<?xml version="1.0" standalone="no"?>
<!DOCTYPE svg PUBLIC "-//W3C//DTD SVG 1.1//EN" "http://www.w3.org/Graphics/SVG/1.1/DTD/svg11.dtd" >
<svg xmlns="http://www.w3.org/2000/svg">
<metadata>
This is a custom SVG webfont generated by Font Squirrel.
Copyright   : Copyright c 2009 by Eduardo Manso All rights reserved
Designer    : Eduardo Manso
Foundry     : Eduardo Manso
Foundry URL : httpwwwemtypenet
</metadata>
<defs>
<font id="GeogrotesqueSemiBoldItalic" horiz-adv-x="1148" >
<font-face units-per-em="2048" ascent="1536" descent="-512" />
<missing-glyph horiz-adv-x="411" />
<glyph unicode="&#xfb00;" horiz-adv-x="1394" d="M154 891l12 104q2 25 15.5 36t41.5 16l109 10h6l18 127q41 313 486 313h28q48 0 48 -43v-10l-15 -121q-6 -53 -61 -53h-21q-174 0 -188 -117l-12 -96h372l15 127q37 313 487 313h29q46 0 46 -40q0 -6 -1 -13l-15 -121q-6 -53 -59 -53h-20q-176 0 -191 -117l-12 -96h176 q55 0 49 -49l-14 -117q-6 -53 -60 -53h-178l-149 -1213q-6 -31 -17.5 -42t-38.5 -11h-178q-48 0 -48 43q0 5 1 10l152 1213h-373l-152 -1213q-6 -53 -55 -53h-176q-48 0 -48 43q0 5 1 10l151 1213h-114q-48 0 -48 42q0 5 1 11z" />
<glyph unicode="&#xfb01;" horiz-adv-x="1265" d="M150 889l10 106q2 27 15 37t44 15l107 10h8l16 117q37 315 477 315h428q46 0 47 -40q0 -6 -2 -13l-14 -123q-6 -53 -59 -53h-412q-174 0 -188 -117l-13 -86h600q29 0 39.5 -12.5t8.5 -38.5l-115 -951q-8 -55 -60 -55h-178q-46 0 -45 44v11l99 781h-375l-152 -1211 q-4 -31 -15 -42t-40 -11h-176q-48 0 -48 43q0 5 1 10l151 1211h-114q-46 0 -46 42q0 5 1 11z" />
<glyph unicode="&#xfb02;" horiz-adv-x="1265" d="M150 889l10 106q2 27 15 37t44 15l107 10h8l16 117q37 315 477 315h441q48 0 47 -43v-10l-168 -1381q-8 -55 -60 -55h-178q-46 0 -45 44v11l150 1205h-199q-174 0 -188 -117l-13 -86h177q55 0 49 -49l-17 -119q-6 -53 -59 -53h-176l-152 -1211q-4 -31 -15 -42t-40 -11 h-176q-48 0 -48 43q0 5 1 10l151 1211h-114q-46 0 -46 42q0 5 1 11z" />
<glyph unicode="&#xfb03;" horiz-adv-x="1910" d="M154 891l12 104q2 25 15.5 36t41.5 16l109 10h6l18 127q41 313 486 313h28q48 0 48 -43v-10l-15 -121q-6 -53 -61 -53h-21q-174 0 -188 -117l-12 -96h372l15 119q39 313 477 313h428q48 0 48 -43q0 -5 -1 -10l-14 -121q-8 -53 -62 -53h-409q-92 0 -136.5 -28t-54.5 -91 l-12 -86h600q31 0 40 -12.5t7 -38.5l-115 -953q-6 -53 -57 -53h-180q-44 0 -44 40q0 6 1 13l96 785h-375l-149 -1213q-6 -31 -17.5 -42t-38.5 -11h-178q-48 0 -48 43q0 5 1 10l152 1213h-373l-152 -1213q-6 -53 -55 -53h-176q-48 0 -48 43q0 5 1 10l151 1213h-114 q-48 0 -48 42q0 5 1 11z" />
<glyph unicode="&#xfb04;" horiz-adv-x="1925" d="M152 891l12 104q2 25 15.5 36t41.5 16l109 10h8l16 127q35 313 486 313h28q48 0 48 -43q0 -5 -1 -10l-14 -121q-6 -53 -59 -53h-23q-174 0 -188 -117l-13 -96h375l15 119q39 313 477 313h440q48 0 48 -43q0 -5 -1 -10l-168 -1383q-6 -53 -57 -53h-180q-44 0 -44 40 q0 6 1 13l147 1209h-196q-92 0 -136.5 -28t-54.5 -91l-12 -86h176q55 0 49 -49l-14 -117q-6 -53 -60 -53h-178l-149 -1213q-6 -31 -17.5 -42t-38.5 -11h-178q-48 0 -48 43q0 5 1 10l152 1213h-375l-150 -1213q-6 -53 -57 -53h-176q-48 0 -48 43q0 5 1 10l151 1213h-114 q-48 0 -48 42q0 5 1 11z" />
<glyph unicode=" "  horiz-adv-x="411" />
<glyph unicode="&#x09;" horiz-adv-x="411" />
<glyph unicode="&#xa0;" horiz-adv-x="411" />
<glyph unicode="!" horiz-adv-x="589" d="M154 53l20 172q6 53 59 54h187q46 0 46 -43q0 -5 -1 -11l-23 -172q-6 -53 -57 -53h-184q-48 0 -48 43q0 4 1 10zM231 440l21 391l67 562q8 55 60 55h188q43 0 43 -38q0 -8 -2 -17l-65 -562l-76 -391q-6 -29 -19.5 -41t-37.5 -12h-134q-27 0 -37 12t-8 41z" />
<glyph unicode="&#x22;" horiz-adv-x="909" d="M279 1047l18 346q2 55 59 55h172q44 0 45 -41q0 -7 -2 -14l-63 -346q-10 -53 -62 -54h-122q-27 0 -37 11.5t-8 42.5zM657 1047l21 346q2 55 59 55h170q46 0 46 -42q0 -6 -1 -13l-65 -346q-10 -53 -58 -54h-127q-27 0 -37 11.5t-8 42.5z" />
<glyph unicode="#" horiz-adv-x="1443" d="M197 436l10 94q6 49 57 50h148l65 159h-90q-55 0 -49 52l12 94q6 49 62 49h145l70 166q20 55 71 55h129q37 0 38 -27q0 -12 -7 -28l-67 -166h260l67 166q23 55 72 55h131q36 0 36 -27q0 -12 -7 -28l-68 -166h84q55 0 49 -49l-12 -94q-6 -51 -60 -52h-139l-67 -159h86 q53 0 47 -50l-10 -94q-6 -53 -60 -53h-141l-68 -166q-23 -53 -71 -53h-129q-38 0 -39 28q0 11 6 25l69 166h-262l-69 -166q-20 -53 -70 -53h-129q-38 0 -38 28q0 11 5 25l68 166h-90q-46 0 -46 42q0 5 1 11zM643 580h262l66 159h-260z" />
<glyph unicode="$" horiz-adv-x="1140" d="M209 418q0 14 2 33l6 49q6 49 55 49h158q42 0 42 -39q0 -5 -1 -10l-2 -23q-2 -16 -2 -28q0 -74 160 -74q174 0 184 86l2 14q2 16 2 37q0 39 -84 72l-291 110q-143 55 -143 203q0 14 2 39l6 65q18 219 303 263l19 129q6 55 59 55h176q44 0 44 -44q0 -5 -1 -11l-16 -138 q115 -29 173 -92t58 -145q0 -12 -2 -35l-4 -35q-6 -49 -55 -49h-158q-45 0 -43 49l2 25q2 23 2 31q0 72 -141 71q-150 0 -164 -80l-2 -14q-2 -12 -2 -25q0 -49 53 -67l297 -107q176 -66 176 -198q0 -18 -4 -52l-10 -96q-10 -92 -86 -159.5t-223 -92.5l-15 -129 q-6 -55 -55 -55h-176q-48 0 -48 44q0 5 1 11l14 133q-135 23 -201.5 85.5t-66.5 144.5z" />
<glyph unicode="%" horiz-adv-x="1849" d="M264 983q0 25 2 37l25 207q29 240 354 239q154 0 233.5 -55t79.5 -145q0 -18 -4 -43l-26 -205q-27 -238 -350 -238q-314 0 -314 203zM450 19l-2 10q0 14 11 26l841 1338q37 55 86 55h162q25 0 30 -16.5t-11 -38.5l-846 -1338q-35 -55 -82 -55h-162q-22 0 -27 19z M494 1016q0 -55 98 -55q102 0 110 65l25 191v10q0 55 -100.5 55t-108.5 -63l-24 -191v-12zM1065 182q0 25 2 37l27 207q14 115 96 176.5t256 61.5q154 0 233.5 -54.5t79.5 -144.5q0 -29 -2 -41l-24 -207q-29 -238 -353 -237q-158 0 -236.5 54t-78.5 148zM1296 217 q0 -55 99 -55q102 0 110 65l23 189v12q0 55 -99 55q-102 0 -108 -63l-25 -193v-10z" />
<glyph unicode="&#x26;" horiz-adv-x="1480" d="M166 283q0 33 2 51l25 178q10 90 58 147.5t150 94.5q-137 47 -137 180q0 8 4 41l19 151q20 156 130.5 248t377.5 92q225 0 335.5 -81.5t110.5 -217.5q0 -35 -2 -59l-6 -57q-6 -53 -57 -54h-179q-46 0 -45 43v11l2 18q2 29 2 45q0 121 -182 121q-193 0 -211 -158l-8 -53 q0 -6 -1 -13t-2 -11.5t-1 -8.5v-8q0 -123 194 -123h715q53 0 47 -51l-14 -125q-6 -53 -59 -53h-123l-39 -301q-45 -346 -588 -346q-274 0 -396 83t-122 216zM455 340q0 -127 254 -127q268 0 288 158l31 260h-330q-113 0 -166 -38t-63 -118l-12 -102q-2 -17 -2 -33z" />
<glyph unicode="'" horiz-adv-x="526" d="M279 1047l18 346q2 55 59 55h172q44 0 45 -41q0 -7 -2 -14l-63 -346q-10 -53 -62 -54h-122q-27 0 -37 11.5t-8 42.5z" />
<glyph unicode="(" horiz-adv-x="759" d="M109 -172q0 12 4 43l161 1321q23 172 125.5 243.5t335.5 71.5h56q48 0 47 -42v-11l-17 -123q-6 -53 -61 -53h-19q-166 0 -180 -115l-158 -1276q-2 -18 -2 -26q0 -94 154 -94h23q48 0 48 -41q0 -6 -1 -13l-19 -125q-6 -53 -57 -53h-17q-203 0 -313 78t-110 215z" />
<glyph unicode=")" horiz-adv-x="759" d="M47 -412l14 125q6 53 60 54h20q168 0 183 114l155 1262q4 35 4 39q0 96 -157 96h-19q-48 0 -48 40q0 6 1 13l16 123q6 53 58 53h18q201 0 312.5 -77.5t111.5 -212.5q0 -12 -6 -43l-162 -1324q-20 -170 -123.5 -242.5t-334.5 -72.5h-56q-51 0 -47 53z" />
<glyph unicode="*" horiz-adv-x="1150" d="M266 877q-5 13 -5 24q0 31 38 47l231 103l-206 104q-27 13 -27 36q0 15 12 34l49 78q19 32 44 32q15 0 32 -12l209 -147l16 278q2 53 58 53h96q45 0 45 -35q0 -8 -2 -18l-53 -270l231 141q19 11 34 11q24 0 38 -27l37 -84q7 -14 6 -26q0 -28 -37 -44l-240 -106l211 -103 q28 -14 28 -37q0 -15 -11 -35l-51 -81q-20 -29 -43 -30q-16 0 -33 13l-199 137l-16 -249q-2 -55 -56 -56h-96q-46 0 -46 36q0 9 3 20l51 258l-247 -148q-19 -12 -34 -12q-23 0 -34 31z" />
<glyph unicode="+" horiz-adv-x="1191" d="M205 657v127q0 51 53 52h299v301q0 55 51 55h127q51 0 51 -55v-301h304q53 0 53 -52v-127q0 -53 -53 -53h-304v-299q0 -53 -51 -53h-127q-51 0 -51 53v299h-299q-53 0 -53 53z" />
<glyph unicode="," horiz-adv-x="589" d="M37 -94q-2 8 -2 16q0 35 47 49q98 33 108 113l19 141q6 53 59 54h181q46 0 45 -43v-11l-21 -157q-14 -127 -100 -203t-246 -113q-14 -3 -24.5 -3t-17.5 3q-13 6 -19 35z" />
<glyph unicode="-" horiz-adv-x="927" d="M190 551v127q0 51 54 51h569q53 0 53 -51v-127q0 -51 -53 -51h-569q-54 0 -54 51z" />
<glyph unicode="." horiz-adv-x="532" d="M129 53l21 172q6 53 59 54h182q44 0 44 -43q0 -5 -1 -11l-20 -172q-6 -53 -58 -53h-182q-46 0 -46 42q0 5 1 11z" />
<glyph unicode="/" horiz-adv-x="778" d="M-2 -260l631 1694q18 55 65 55h201q40 0 40 -30q0 -11 -5 -25l-631 -1694q-23 -55 -70 -55h-196q-40 0 -40 30q0 11 5 25z" />
<glyph unicode="0" horiz-adv-x="1196" d="M139 289q0 23 4 55l93 774q41 348 526 348q238 0 353.5 -88t115.5 -219q0 -12 -4 -55l-94 -774q-18 -154 -141.5 -250t-387.5 -96q-236 0 -350.5 86t-114.5 219zM430 354q0 -133 197 -133q205 0 223 160l86 674q2 16 2 41q0 131 -193 131q-207 0 -225 -160l-84 -659 q-6 -52 -6 -54z" />
<glyph unicode="1" horiz-adv-x="1196" d="M145 53l15 135q6 49 59 50h289l117 940l-295 -50q-25 -4 -38 7.5t-11 38.5l18 137q6 45 61 57l535 94q8 2 15 2q12 0 21 -7q13 -11 9 -44l-145 -1175h280q53 0 47 -50l-14 -135q-6 -53 -61 -53h-857q-46 0 -45 42q-1 5 0 11z" />
<glyph unicode="2" horiz-adv-x="1196" d="M143 53l50 398q10 84 50 121.5t117 68.5l455 170q90 37 100 123l19 127q2 16 2 45q0 125 -193 125q-205 0 -223 -160l-10 -82q-8 -53 -55 -53h-181q-46 0 -45 42v11l17 129q39 348 516 348q236 0 350.5 -87t114.5 -220q0 -18 -4 -55l-21 -166q-33 -252 -241 -328 l-379 -135q-57 -20 -82 -42.5t-31 -74.5l-14 -120h616q53 0 47 -50l-16 -135q-6 -53 -60 -53h-852q-48 0 -47 43q-1 4 0 10z" />
<glyph unicode="3" horiz-adv-x="1196" d="M137 287q0 20 2 43l6 67q6 53 58 54h176q49 0 45 -54l-2 -26q-2 -14 -2 -35q0 -123 198 -123q205 0 226 158l12 104q2 23 2 35q0 121 -190 121h-166q-46 0 -46 40q0 6 1 13l14 125q6 51 59 51h146q207 0 227 158l8 59q2 18 2 33q0 125 -182 125q-201 0 -213 -158l-2 -26 q-2 -53 -59 -54h-178q-47 0 -43 54l8 67q33 348 514 348q238 0 342 -84t104 -215q0 -16 -4 -59l-18 -139q-10 -84 -53.5 -134.5t-133.5 -80.5q152 -57 152 -207q0 -18 -6 -58l-21 -172q-41 -334 -522 -333q-240 0 -350.5 84t-110.5 219z" />
<glyph unicode="4" horiz-adv-x="1196" d="M123 444l16 125q4 29 17 60l331 764q25 55 74 55h184q39 0 40 -28q0 -11 -7 -27l-329 -760h399l94 760q6 55 59 55h185q44 0 43 -44v-11l-164 -1338q-6 -55 -55 -55h-187q-46 0 -46 42q0 6 1 13l41 338h-647q-55 0 -49 51z" />
<glyph unicode="5" horiz-adv-x="1196" d="M141 285q0 25 2 43l9 67q6 53 55 54h178q46 0 46 -43q0 -5 -1 -11l-2 -22q-2 -29 -2 -35q0 -127 195 -127q203 0 223 160l18 149q4 31 4 53q0 127 -190 127h-379q-44 0 -44 44q0 5 1 12l76 637q6 55 55 55h780q55 0 49 -51l-18 -133q-6 -53 -59 -54h-541l-33 -280h142 q229 0 342.5 -84t113.5 -217q0 -23 -4 -56l-31 -245q-41 -346 -526 -346q-240 0 -349.5 85t-109.5 218z" />
<glyph unicode="6" horiz-adv-x="1196" d="M152 287q0 18 4 43l96 790q43 346 508 346q231 0 338.5 -86t107.5 -209q0 -33 -2 -51l-10 -55q-8 -53 -55 -53h-178q-46 0 -46 42v11l3 14q2 18 2 37q0 119 -179 119q-193 0 -211 -156l-34 -260q106 68 247 68q201 0 303.5 -88t102.5 -217q0 -31 -6 -60l-21 -192 q-37 -346 -516 -346q-233 0 -343.5 85t-110.5 218zM440 340q0 -127 187 -127q195 0 215 160l14 123q0 6 1 15t2 13t1 8q0 121 -186 121q-197 0 -213 -143l-17 -125q-4 -37 -4 -45z" />
<glyph unicode="7" horiz-adv-x="1196" d="M244 1264l16 133q6 51 59 51h924q55 0 49 -51l-16 -131q-2 -20 -19 -54l-657 -1157q-31 -55 -72 -55h-215q-40 0 -40 25q0 12 10 30l657 1155h-649q-48 0 -48 41q0 6 1 13z" />
<glyph unicode="8" horiz-adv-x="1196" d="M152 289q0 20 2 41l22 194q23 162 209 228q-131 55 -131 192q0 8 4 47l14 127q8 74 33 131.5t75 108.5t146.5 79.5t231.5 28.5q231 0 332.5 -84t101.5 -217q0 -33 -2 -47l-16 -141q-10 -86 -55.5 -138.5t-135.5 -86.5q160 -61 160 -201q0 -12 -4 -41l-21 -180 q-41 -346 -514 -346q-233 0 -342.5 86t-109.5 219zM440 338q0 -125 185 -125q106 0 155 38t60 122l12 94q2 16 2 43q0 125 -182 125q-104 0 -154.5 -37t-60.5 -119l-15 -106q-2 -17 -2 -35zM537 989q0 -68 36.5 -97.5t124.5 -29.5q100 0 144.5 38t56.5 122l8 53q2 20 2 37 q0 123 -168 123q-100 0 -140 -37t-54 -123l-8 -53q-2 -17 -2 -33z" />
<glyph unicode="9" horiz-adv-x="1196" d="M164 281q0 27 2 47l6 55q6 53 59 53h179q46 0 45 -42v-11l-4 -14q-2 -16 -2 -33q0 -123 180 -123q190 0 211 156l30 260q-102 -66 -243 -66q-201 0 -304.5 88t-103.5 215q0 23 4 60l25 192q39 348 510 348q236 0 347.5 -87t111.5 -218q0 -31 -3 -43l-96 -790 q-43 -344 -504 -344q-231 0 -340.5 85t-109.5 212zM512 922q0 -127 184 -127q197 0 213 145l13 123q4 39 4 45q0 127 -183 127q-203 0 -217 -160l-12 -123q-2 -16 -2 -30z" />
<glyph unicode=":" horiz-adv-x="532" d="M129 53l21 172q6 53 59 54h182q44 0 44 -43q0 -5 -1 -11l-20 -172q-6 -53 -58 -53h-182q-46 0 -46 42q0 5 1 11zM223 834l23 174q6 53 59 53h182q29 0 38 -12q6 -9 7 -25q0 -7 -2 -16l-20 -174q-8 -53 -59 -54h-183q-46 0 -45 43q-1 5 0 11z" />
<glyph unicode=";" horiz-adv-x="616" d="M63 -94q-2 7 -1 14q0 36 47 51q100 33 108 113l19 141q8 53 59 54h182q27 0 37 -11.5t6 -42.5l-20 -157q-14 -127 -100.5 -203t-243.5 -113q-15 -3 -26 -3t-17 3q-12 6 -19 35zM311 834l19 174q6 53 61 53h182q27 0 37 -12q7 -9 8 -26q0 -7 -2 -15l-20 -174 q-6 -53 -59 -54h-181q-46 0 -45 43q-1 5 0 11z" />
<glyph unicode="&#x3c;" horiz-adv-x="1112" d="M201 625v194q0 14 2 23.5t12 16.5t13 8t22 10l758 329q9 4 16 4q12 0 22 -10q15 -16 15 -45v-168q0 -27 -12.5 -38t-40.5 -23l-537 -203l537 -205q29 -10 41 -22.5t12 -36.5v-170q0 -29 -15 -45q-9 -10 -22 -10q-8 0 -16 4l-758 329q-41 18 -47 35q-2 9 -2 23z" />
<glyph unicode="=" horiz-adv-x="1236" d="M172 406v126q0 49 53 50h879q53 0 53 -50v-126q0 -53 -53 -54h-879q-53 1 -53 54zM172 840v127q0 51 53 51h879q53 0 53 -51v-127q0 -51 -53 -52h-879q-53 1 -53 52z" />
<glyph unicode="&#x3e;" horiz-adv-x="1112" d="M158 287v174q0 18 7 29.5t17.5 16.5l28.5 13l537 201l-537 203q-53 23 -53 59v172q0 31 13 47q8 10 21 10q8 0 19 -4l760 -327q47 -20 47 -60v-198q0 -39 -47 -58l-760 -329q-10 -4 -19 -4q-13 0 -21 10q-13 16 -13 45z" />
<glyph unicode="?" horiz-adv-x="1202" d="M227 989l19 129q43 348 522 348q236 0 350.5 -91t114.5 -222q0 -27 -2 -47l-12 -100q-27 -229 -240 -318l-127 -55q-51 -25 -74.5 -47.5t-29.5 -71.5l-9 -76q-2 -27 -15 -39t-40 -12h-188q-53 0 -47 51l20 148q10 82 49 122t109 70l209 99q82 45 98 131l8 63q2 23 2 39 q0 121 -194 121q-211 0 -230 -160l-10 -82q-10 -53 -59 -53h-177q-48 0 -47 43q-1 4 0 10zM406 53l18 172q6 53 59 54h189q42 0 42 -40q0 -7 -1 -14l-21 -172q-6 -53 -57 -53h-186q-25 0 -35 10q-9 9 -9 33q1 5 1 10z" />
<glyph unicode="@" horiz-adv-x="2031" d="M162 94q0 37 4 76l92 739q10 82 33.5 142.5t84 127t157 110.5t260 72t383.5 28q242 0 409.5 -33t253.5 -93.5t121 -130t35 -157.5q0 -23 -4 -70l-60 -493q-39 -342 -432 -342q-240 0 -305 133q-168 -133 -342 -133q-121 0 -183.5 57t-62.5 160q0 47 12 94l60 283 q33 154 110.5 232.5t219.5 78.5q147 0 284 -105l11 35q16 53 65 53h154q41 0 41 -34q0 -8 -2 -19l-101 -438q-14 -63 -14 -102q0 -92 90 -93q63 0 91 46.5t38 130.5l53 446q2 14 2 43q0 74 -45 121t-172 75.5t-346 28.5q-240 0 -378 -33.5t-190 -88t-63 -144.5l-88 -717 q-4 -29 -4 -45q0 -117 124 -173t446 -56h372q46 0 46 -43q0 -5 -1 -10l-14 -119q-6 -53 -61 -53h-365q-240 0 -408 32.5t-255 95t-121.5 130t-34.5 155.5zM893 391q0 -70 100 -69q85 0 181 55q0 12 2 16l59 266q-80 72 -160 72q-111 0 -137 -123l-37 -168q0 -4 -3 -14 t-4 -19.5t-1 -15.5z" />
<glyph unicode="A" horiz-adv-x="1177" d="M37 53l561 1342q23 53 74 53h186q49 0 57 -53l236 -1342q2 -8 2 -15q0 -38 -47 -38h-188q-47 0 -58 53l-43 260h-395l-107 -260q-18 -53 -67 -53h-178q-40 0 -41 26q1 11 8 27zM514 541h270l-41 237q-17 100 -16 335v54q-80 -311 -111 -387z" />
<glyph unicode="B" horiz-adv-x="1263" d="M154 55l165 1338q6 55 58 55h381q246 0 365.5 -81t119.5 -212q0 -14 -4 -51l-12 -109q-16 -162 -191 -235q94 -31 147.5 -97.5t53.5 -142.5q0 -27 -2 -43l-18 -151q-43 -326 -549 -326h-467q-48 0 -48 42q0 6 1 13zM465 229h221q236 0 252 148l8 84q2 20 2 33 q0 137 -209 137h-225zM539 848h161q221 0 244 151l8 62q2 16 2 37q0 121 -209 121h-159z" />
<glyph unicode="C" horiz-adv-x="1210" d="M162 289q0 14 4 55l94 774q41 348 535 348q242 0 355.5 -86t113.5 -219q0 -12 -4 -55l-13 -90q-6 -53 -55 -53h-178q-46 0 -46 42q0 5 1 11l6 41q2 16 2 41q0 129 -199 129q-215 0 -235 -160l-82 -672q-4 -33 -4 -39q0 -135 198 -135q221 0 238 160l8 82q6 53 60 53h176 q44 0 43 -42v-11l-15 -133q-37 -346 -534 -346q-244 0 -356.5 86t-112.5 219z" />
<glyph unicode="D" horiz-adv-x="1308" d="M154 55l165 1338q6 55 58 55h452q248 0 370 -89t122 -224q0 -31 -4 -62l-90 -725q-41 -348 -545 -348h-487q-42 0 -42 43q0 6 1 12zM465 238h231q227 0 248 159l78 629q4 31 4 49q0 135 -213 135h-227z" />
<glyph unicode="E" horiz-adv-x="1089" d="M154 55l165 1338q6 55 58 55h729q55 0 49 -51l-18 -133q-6 -53 -60 -54h-491l-43 -346h458q46 0 46 -41v-10l-17 -127q-6 -51 -59 -51h-455l-51 -397h514q50 0 50 -38q0 -5 -1 -12l-18 -135q-8 -53 -58 -53h-751q-48 0 -48 44q0 5 1 11z" />
<glyph unicode="F" horiz-adv-x="1101" d="M154 55l165 1338q6 55 58 55h780q55 0 49 -51l-18 -133q-6 -53 -60 -54h-542l-43 -346h508q53 0 47 -51l-19 -135q-6 -53 -59 -53h-506l-72 -570q-6 -55 -57 -55h-184q-48 0 -48 44q0 5 1 11z" />
<glyph unicode="G" horiz-adv-x="1236" d="M162 289q0 18 4 55l94 774q41 348 535 348q242 0 355.5 -87t113.5 -222q0 -14 -4 -55l-7 -70q-8 -53 -61 -53h-176q-46 0 -46 42q0 5 1 11l4 35q2 14 2 37q0 123 -195 123q-219 0 -239 -160l-82 -674q-4 -29 -4 -41q0 -131 196 -131q217 0 238 158l16 143h-209 q-53 0 -47 51l19 136q6 51 59 51h434q55 0 49 -51l-47 -379q-41 -346 -534 -346q-244 0 -356.5 86t-112.5 219z" />
<glyph unicode="H" horiz-adv-x="1331" d="M154 55l165 1338q6 55 58 55h186q44 0 44 -41q0 -7 -1 -14l-63 -531h458l66 531q6 55 59 55h187q42 0 42 -41q0 -7 -1 -14l-166 -1338q-6 -55 -53 -55h-185q-48 0 -47 44v11l70 570h-459l-72 -570q-6 -55 -57 -55h-184q-48 0 -48 44q0 5 1 11z" />
<glyph unicode="I" horiz-adv-x="581" d="M154 55l165 1338q6 55 58 55h186q44 0 44 -41q0 -7 -1 -14l-164 -1338q-6 -55 -57 -55h-184q-48 0 -48 44q0 5 1 11z" />
<glyph unicode="J" horiz-adv-x="1095" d="M70 287q0 31 4 61l14 111q6 53 59 53h181q44 0 43 -42v-11l-9 -70q-4 -33 -4 -45q0 -123 168 -123q94 0 135 39t52 121l127 1012q6 55 57 55h184q46 0 46 -44q0 -5 -1 -11l-129 -1063q-41 -346 -485 -346q-227 0 -334.5 85t-107.5 218z" />
<glyph unicode="K" horiz-adv-x="1243" d="M154 53l163 1342q6 53 60 53h186q42 0 42 -42q0 -5 -1 -11l-67 -574h30l447 574q43 53 92 53h205q27 0 31 -15q1 -3 2 -7q0 -13 -15 -31l-526 -658l416 -684q12 -18 3.5 -35.5t-36.5 -17.5h-234q-41 0 -71 53l-332 557h-39l-70 -557q-6 -53 -55 -53h-184q-48 0 -48 43 q0 4 1 10z" />
<glyph unicode="L" horiz-adv-x="1015" d="M154 55l165 1338q6 55 58 55h186q44 0 44 -41q0 -7 -1 -14l-141 -1155h475q50 0 50 -38q0 -5 -1 -12l-20 -135q-8 -53 -58 -53h-716q-42 0 -42 43q0 6 1 12z" />
<glyph unicode="M" horiz-adv-x="1587" d="M154 53l163 1342q6 53 60 53h166q33 0 43 -29l233 -743q18 -53 37 -150q31 72 70 148l409 749q14 25 51 25h181q44 0 43 -42v-11l-164 -1342q-6 -53 -55 -53h-177q-48 0 -47 43v10l101 811q-49 -131 -86 -194l-209 -398q-29 -53 -78 -53h-143q-51 0 -68 53l-131 428 q-16 55 -29 160l-100 -807q-6 -53 -55 -53h-168q-48 0 -48 43q0 4 1 10z" />
<glyph unicode="N" horiz-adv-x="1331" d="M154 53l163 1342q6 53 60 53h160q37 0 45 -21l338 -735q41 -88 53 -149l104 852q6 53 58 53h168q46 0 45 -43v-10l-166 -1342q-6 -53 -56 -53h-159q-37 0 -49 25l-326 706q-43 98 -64 174l-104 -852q-6 -53 -55 -53h-168q-48 0 -48 43q0 4 1 10z" />
<glyph unicode="O" horiz-adv-x="1288" d="M162 291q0 12 4 53l94 774q18 154 148.5 251t402.5 97q246 0 365.5 -89t119.5 -220q0 -35 -2 -53l-92 -774q-18 -152 -150 -249t-405 -97q-244 0 -364.5 87t-120.5 220zM457 356q0 -135 215 -135q225 0 243 160l86 672l5 41q0 133 -215 133q-104 0 -172 -42t-76 -118 l-82 -672q-4 -33 -4 -39z" />
<glyph unicode="P" horiz-adv-x="1234" d="M154 55l165 1338q6 55 58 55h438q248 0 364.5 -91t116.5 -233q0 -31 -4 -61l-22 -213q-16 -162 -142.5 -249t-406.5 -87h-223l-56 -459q-6 -55 -57 -55h-184q-48 0 -48 44q0 5 1 11zM530 752h211q227 0 250 147l17 125q2 20 2 41q0 72 -48.5 108.5t-158.5 36.5h-217z" />
<glyph unicode="Q" horiz-adv-x="1286" d="M162 291q0 12 4 53l94 774q18 154 148.5 251t402.5 97q246 0 365.5 -89t119.5 -220q0 -35 -2 -53l-92 -774q-33 -258 -338 -326l201 -201q18 -17 18 -34q0 -19 -20 -39l-107 -101q-23 -21 -42 -20q-17 0 -31 16l-353 365q-186 18 -277 101t-91 200zM457 356 q0 -135 215 -135q225 0 243 160l86 672l5 41q0 133 -215 133q-104 0 -172 -42t-76 -118l-82 -672q-4 -33 -4 -39z" />
<glyph unicode="R" horiz-adv-x="1277" d="M154 55l165 1338q6 55 58 55h432q248 0 367.5 -91t119.5 -235q0 -33 -2 -49l-20 -184q-27 -227 -268 -301l159 -533q8 -23 -10 -39t-45 -16h-184q-33 0 -49 55l-148 496h-4h-223l-60 -496q-6 -55 -57 -55h-184q-48 0 -48 42q0 6 1 13zM532 791h213q227 0 250 149l13 86 q2 18 2 39q0 145 -207 145h-217z" />
<glyph unicode="S" horiz-adv-x="1216" d="M141 295q0 23 4 49l15 121q6 55 57 55h178q46 0 46 -44q0 -5 -1 -11l-10 -82q-2 -16 -2 -41q0 -129 211 -129q219 0 242 156l8 59q2 14 2 31q0 25 -13.5 45t-41 36.5t-50 28t-57.5 25.5l-297 117q-82 33 -132 99.5t-50 150.5q0 8 4 51l12 106q41 348 518 348 q238 0 348.5 -87t110.5 -218q0 -20 -2 -43l-8 -88q-6 -53 -59 -53h-179q-46 0 -45 42v11l6 49q2 18 2 23q0 133 -194 133q-209 0 -223 -156l-2 -20q-2 -18 -2 -35q0 -61 71 -88l353 -133q219 -82 219 -277q0 -12 -4 -51l-15 -145q-18 -154 -144 -250t-396 -96 q-246 0 -363 88t-117 223z" />
<glyph unicode="T" horiz-adv-x="1048" d="M176 1264l19 133q6 51 59 51h893q48 0 48 -39q0 -6 -1 -12l-16 -133q-6 -53 -58 -54h-305l-141 -1155q-6 -55 -56 -55h-186q-48 0 -48 44q0 5 1 11l143 1155h-303q-55 1 -49 54z" />
<glyph unicode="U" horiz-adv-x="1308" d="M172 297q0 8 6 59l129 1037q6 55 55 55h187q46 0 46 -44q0 -5 -1 -11l-121 -971q-6 -45 -6 -64q0 -137 213 -137q227 0 246 160l129 1012q6 55 55 55h184q48 0 48 -45q0 -5 -1 -10l-131 -1063q-41 -346 -548 -346q-242 0 -366 89t-124 224z" />
<glyph unicode="V" horiz-adv-x="1177" d="M203 1395q-2 8 -2 15q0 38 49 38h196q29 0 40.5 -12.5t15.5 -40.5l119 -723q14 -96 14 -310q2 10 15.5 62.5t37 128.5t41.5 117l295 725q25 53 72 53h188q39 0 39 -27q0 -11 -6 -26l-563 -1342q-20 -53 -72 -53h-186q-53 0 -62 53z" />
<glyph unicode="W" horiz-adv-x="1783" d="M201 1395q-1 6 -1 10q0 43 48 43h186q49 0 55 -53l93 -725q6 -49 10 -181q27 88 59 181l273 725q20 53 71 53h172q49 0 56 -53l92 -723q10 -96 10 -213q20 102 61 211l271 725q18 53 69 53h166q36 0 36 -28q0 -11 -5 -25l-502 -1342q-20 -53 -71 -53h-181q-49 0 -55 53 l-94 742q-7 53 -7 131q0 32 1 67q-31 -139 -53 -198l-279 -742q-20 -53 -74 -53h-180q-49 0 -55 53z" />
<glyph unicode="X" horiz-adv-x="1220" d="M66 61l471 689l-289 639q-14 25 -6 42t32 17h211q47 0 70 -53l186 -406l273 406q37 53 86 53h198q35 0 35 -20q0 -13 -14 -33l-467 -652l315 -690q10 -18 3 -35.5t-35 -17.5h-211q-43 0 -70 53l-203 439l-284 -439q-37 -53 -82 -53h-203q-18 0 -25 9q-5 7 -4 17 q0 17 13 35z" />
<glyph unicode="Y" horiz-adv-x="1159" d="M201 1395q-3 10 -4 18q0 12 8 21q12 14 41 14h205q43 0 59 -53l143 -486q10 -35 23 -112q33 86 51 112l283 486q31 53 69 53h189q41 0 41 -24q0 -12 -11 -29l-505 -842l-62 -500q-6 -53 -55 -53h-187q-48 0 -47 43v10l58 467z" />
<glyph unicode="Z" horiz-adv-x="1056" d="M76 53l18 135q2 25 21 48l653 974h-459q-48 0 -47 43v11l17 133q6 51 59 51h758q48 0 48 -39q0 -6 -1 -12l-17 -133q-2 -16 -22 -52l-655 -974h534q53 0 47 -50l-16 -135q-6 -53 -58 -53h-831q-55 0 -49 53z" />
<glyph unicode="[" horiz-adv-x="837" d="M82 -393l225 1827q6 55 58 55h487q53 0 47 -51l-16 -135q-8 -53 -62 -54h-248l-182 -1460h250q55 0 49 -53l-16 -133q-6 -51 -58 -52h-489q-53 1 -45 56z" />
<glyph unicode="\" horiz-adv-x="778" d="M205 1434q-1 6 -1 10q0 44 48 45h188q51 0 58 -55l213 -1694q1 -6 0 -11q0 -45 -49 -44h-187q-49 0 -55 55z" />
<glyph unicode="]" horiz-adv-x="837" d="M66 -397l18 133q6 53 57 53h250l182 1460h-249q-55 0 -50 54l17 135q8 51 61 51h486q48 0 47 -45v-10l-228 -1827q-6 -55 -57 -56h-485q-55 1 -49 52z" />
<glyph unicode="^" horiz-adv-x="1228" d="M207 641l325 758q6 16 9.5 21l9.5 13.5t16.5 11.5t22.5 3h198q16 0 28.5 -7t17 -14.5t12.5 -27.5l328 -758q4 -10 4 -18q0 -13 -10 -22q-15 -15 -46 -15h-170q-27 0 -37 12t-20 43l-207 533l-203 -533q-10 -31 -22 -43t-37 -12h-170q-31 0 -45 15q-8 9 -8 21q0 9 4 19z " />
<glyph unicode="_" horiz-adv-x="970" d="M2 -207q0 49 53 49h776q53 0 54 -49v-127q0 -53 -54 -53h-776q-53 0 -53 53v127z" />
<glyph unicode="`" horiz-adv-x="667" d="M301 1493q10 14 37 14h182q45 0 66 -53l78 -209q6 -15 6 -26q0 -27 -41 -27h-133q-45 0 -64 37l-127 225q-8 14 -8 25q0 8 4 14z" />
<glyph unicode="a" d="M135 242q0 14 4 53l60 471q37 311 338 311q190 0 327 -116l10 47q8 29 19.5 41t40.5 12h170q46 0 46 -43q0 -5 -1 -10l-119 -953q-6 -55 -59 -55h-164q-45 0 -45 55l2 47q-172 -119 -346 -118q-137 0 -210 67.5t-73 190.5zM420 307q0 -82 106 -82q104 0 258 97l52 415 q-119 98 -234 98.5t-131 -110.5l-49 -389q-2 -11 -2 -29z" />
<glyph unicode="b" d="M131 55l170 1379q6 55 59 55h177q44 0 43 -44v-11l-58 -471q162 115 340 114q135 0 208 -68.5t73 -191.5q0 -33 -2 -51l-60 -471q-37 -311 -342 -311q-193 0 -327 118l-11 -47q-8 -31 -20 -43t-41 -12h-164q-46 0 -46 44q0 5 1 11zM444 322q117 -96 234 -96.5t129 110.5 l49 389q2 14 2 27q0 84 -104 84q-117 0 -258 -99z" />
<glyph unicode="c" horiz-adv-x="1046" d="M137 256q0 27 2 43l56 465q37 313 469 313q207 0 307 -73.5t100 -198.5q0 -27 -2 -45l-4 -31q-6 -51 -59 -51h-162q-51 0 -45 49l2 16q2 12 2 25q0 88 -152 88q-90 0 -130 -26.5t-48 -86.5l-49 -393q-6 -43 -6 -51q0 -94 153 -94q88 0 128 27.5t49 86.5l4 33q6 53 57 54 h164q46 0 46 -40q0 -6 -1 -14l-6 -53q-18 -154 -126 -234.5t-343 -80.5q-205 0 -305.5 71.5t-100.5 200.5z" />
<glyph unicode="d" d="M135 238q0 18 4 57l60 471q37 311 338 311q190 0 325 -114l56 471q6 55 59 55h178q46 0 46 -44q0 -5 -1 -11l-170 -1379q-6 -55 -59 -55h-164q-27 0 -36 12.5t-9 42.5v47q-49 -35 -82 -54t-106.5 -41.5t-155.5 -22.5q-137 0 -210 67.5t-73 186.5zM420 307q0 -82 106 -82 q104 0 258 97l52 415q-119 98 -234 98.5t-131 -110.5l-47 -375q-4 -35 -4 -43z" />
<glyph unicode="e" horiz-adv-x="1060" d="M137 256q0 27 2 43l56 465q37 313 467 313q199 0 300 -70.5t101 -199.5q0 -29 -2 -43l-31 -246q-6 -49 -55 -49h-545l-14 -133q-4 -41 -4 -49q0 -94 153 -94q168 0 178 108l2 21q6 53 60 53h149q49 0 45 -53l-2 -23q-16 -150 -118.5 -232.5t-333.5 -82.5 q-205 0 -306.5 71.5t-101.5 200.5zM457 655h331l11 82q2 10 2 33q0 98 -156 98q-166 0 -178 -116z" />
<glyph unicode="f" horiz-adv-x="741" d="M150 889l12 106q2 25 15 36t42 16l109 10h8l16 125q37 315 488 315h26q48 0 48 -43q0 -5 -1 -10l-14 -123q-6 -53 -59 -53h-23q-174 0 -188 -115l-13 -96h177q55 0 49 -49l-15 -119q-8 -53 -61 -53h-176l-152 -1211q-4 -31 -15 -42t-40 -11h-176q-48 0 -48 43q0 5 1 10 l151 1211h-114q-48 0 -48 42q0 5 1 11z" />
<glyph unicode="g" d="M135 242q0 18 4 53l60 471q37 311 336 311q197 0 335 -123l13 54q6 29 16 41t39 12h164q48 0 48 -43q0 -5 -1 -10l-139 -1123q-39 -313 -494 -313h-301q-55 0 -49 51l14 123q8 55 64 55h299q178 0 190 115l21 180q-166 -113 -336 -112q-137 0 -210 68.5t-73 189.5z M420 309q0 -84 106 -84q104 0 258 97l52 415q-125 98 -234 99q-119 0 -131 -111l-47 -369q-4 -39 -4 -47z" />
<glyph unicode="h" horiz-adv-x="1159" d="M131 55l170 1379q6 55 59 55h177q44 0 43 -44v-11l-58 -467q156 111 340 110q127 0 204 -68.5t77 -179.5q0 -20 -2 -36l-86 -738q-6 -55 -62 -55h-174q-46 0 -46 42q0 6 1 13l80 668q2 16 2 31q0 82 -102 82q-119 0 -258 -97l-84 -684q-6 -55 -58 -55h-178q-46 0 -46 44 q0 5 1 11z" />
<glyph unicode="i" horiz-adv-x="532" d="M131 55l119 953q6 53 57 53h176q46 0 46 -43q0 -5 -1 -10l-116 -953q-6 -55 -58 -55h-178q-46 0 -46 44q0 5 1 11zM279 1249l22 185q6 55 59 55h177q44 0 43 -44v-11l-23 -185q-6 -49 -57 -49h-176q-51 0 -45 49z" />
<glyph unicode="j" horiz-adv-x="528" d="M-168 -377l14 123q6 55 62 55h20q172 0 187 115l135 1092q6 53 57 53h176q46 0 46 -43q0 -5 -1 -10l-137 -1123q-18 -156 -134 -234.5t-349 -78.5h-29q-53 0 -47 51zM279 1249l24 185q6 55 57 55h177q46 0 45 -44v-11l-25 -185q-4 -27 -15.5 -38t-39.5 -11h-176 q-53 0 -47 49z" />
<glyph unicode="k" horiz-adv-x="1052" d="M131 53l170 1383q6 53 59 53h177q44 0 43 -42v-11l-91 -738h41l304 310q53 53 88 53h198q29 0 34 -18q1 -3 1 -7q0 -14 -16 -28l-394 -406l306 -549q12 -18 2.5 -35.5t-35.5 -17.5h-191q-43 0 -71 53l-246 434h-45l-53 -434q-6 -53 -58 -53h-178q-46 0 -46 42q0 5 1 11z " />
<glyph unicode="l" horiz-adv-x="532" d="M131 55l170 1379q6 55 59 55h177q44 0 43 -44v-11l-168 -1379q-6 -55 -58 -55h-178q-46 0 -46 44q0 5 1 11z" />
<glyph unicode="m" horiz-adv-x="1777" d="M131 55l119 955q6 51 57 51h164q27 0 36 -10.5t9 -40.5l-2 -52q150 119 336 119q94 0 164.5 -38t97.5 -103q2 2 31.5 24.5t44 31.5t50.5 29.5t65.5 30t76.5 17.5t99 8q125 0 203.5 -67.5t78.5 -173.5q0 -29 -2 -43l-90 -738q-6 -55 -59 -55h-174q-46 0 -46 44q0 5 1 11 l79 652q4 43 5 47q0 82 -105 82q-129 0 -248 -97v-14l-80 -670q-8 -55 -61 -55h-174q-48 0 -48 44q0 5 1 11l82 666q4 29 4 33q0 82 -105 82q-125 0 -245 -97l-84 -684q-6 -55 -58 -55h-178q-46 0 -46 44q0 5 1 11z" />
<glyph unicode="n" horiz-adv-x="1159" d="M131 55l119 955q6 51 57 51h164q27 0 38 -12.5t9 -38.5l-2 -52q160 119 346 119q127 0 204 -68.5t77 -179.5q0 -35 -2 -51l-86 -723q-6 -55 -62 -55h-174q-47 0 -46 39q0 7 1 16l80 652q4 35 4 47q0 82 -104 82q-125 0 -258 -97l-84 -684q-6 -55 -58 -55h-178 q-46 0 -46 44q0 5 1 11z" />
<glyph unicode="o" horiz-adv-x="1128" d="M137 262q0 18 2 37l56 465q37 313 491 313q209 0 320.5 -73.5t111.5 -200.5q0 -20 -2 -39l-57 -465q-39 -315 -490 -315q-209 0 -320.5 73.5t-111.5 204.5zM420 303q0 -98 168 -98q178 0 194 117l52 401q2 20 2 35q0 98 -168 98q-180 0 -195 -115l-51 -403q-2 -17 -2 -35 z" />
<glyph unicode="p" d="M78 -375l174 1383q6 53 55 53h166q49 0 47 -53l-4 -52q170 121 346 121q137 0 211 -67.5t74 -192.5q0 -16 -6 -51l-58 -471q-37 -311 -338 -311q-188 0 -327 112l-58 -471q-6 -53 -57 -53h-178q-48 0 -48 43q0 4 1 10zM444 322q123 -96 236 -97q117 0 129 111l45 375 q4 39 4 45q0 80 -102 80q-123 0 -258 -99z" />
<glyph unicode="q" d="M135 242q0 18 4 53l60 471q37 311 336 311q193 0 333 -121l13 52q6 29 17 41t40 12h164q48 0 48 -43q0 -5 -1 -10l-172 -1383q-6 -53 -57 -53h-177q-46 0 -46 40q0 6 1 13l56 471q-166 -113 -336 -112q-137 0 -210 68.5t-73 189.5zM420 309q0 -84 106 -84q104 0 258 97 l52 415q-125 98 -234 99q-119 0 -131 -111l-47 -371q-4 -35 -4 -45z" />
<glyph unicode="r" horiz-adv-x="788" d="M131 55l119 955q6 51 57 51h164q27 0 38 -12.5t9 -38.5l-4 -74q154 141 328 141q55 0 49 -53l-19 -135q-4 -47 -61 -53q-190 -20 -319 -127l-80 -654q-6 -55 -58 -55h-178q-46 0 -46 44q0 5 1 11z" />
<glyph unicode="s" horiz-adv-x="1003" d="M109 223q0 14 2 35l6 49q6 49 55 49h158q42 0 41 -38v-11l-2 -24q-2 -16 -2 -27q0 -76 159 -76q174 0 185 86l2 15q2 18 2 36q0 41 -84 72l-291 111q-143 55 -143 202q0 14 2 39l6 66q10 117 111.5 193.5t316.5 76.5q195 0 291 -73.5t96 -180.5q0 -12 -2 -32l-4 -37 q-6 -49 -56 -49h-157q-45 0 -43 49l2 26q2 20 2 29q0 74 -141 74q-150 0 -162 -82l-2 -13q-2 -12 -2 -26q0 -49 53 -68l295 -106q176 -63 176 -199q0 -18 -4 -51l-10 -94q-12 -115 -121 -187.5t-328 -72.5q-201 0 -304 68.5t-103 170.5z" />
<glyph unicode="t" horiz-adv-x="772" d="M141 889l11 106q4 45 59 52l104 10h2l25 205q8 53 59 53h177q46 0 45 -43v-10l-27 -205h195q53 0 47 -49l-15 -119q-6 -53 -61 -53h-193l-57 -476q-2 -18 -2 -36q0 -94 154 -95h47q55 0 49 -53l-15 -123q-6 -53 -59 -53h-92q-199 0 -286 61.5t-87 190.5q0 16 4 63l64 521 h-105q-44 0 -43 42q-1 5 0 11z" />
<glyph unicode="u" horiz-adv-x="1146" d="M143 229q0 23 2 39l91 740q8 53 61 53h172q51 0 47 -53l-82 -670q-2 -16 -2 -33q0 -41 23.5 -60.5t79.5 -19.5q113 0 247 94l82 689q6 53 58 53h180q46 0 46 -43q0 -5 -1 -10l-121 -955q-6 -53 -57 -53h-164q-27 0 -38 11.5t-9 41.5l2 47q-145 -117 -334 -116 q-129 0 -206 67t-77 178z" />
<glyph unicode="v" horiz-adv-x="1007" d="M145 1008q-2 7 -1 12q0 16 12 27q16 14 47 14h176q41 0 51 -53l96 -484q16 -94 17 -198l4 14q4 18 11 40.5l14.5 48.5t16.5 50.5t17 42.5l225 486q25 53 66 53h168q31 0 44 -14q7 -7 7 -18q0 -9 -6 -21l-446 -959q-10 -20 -15.5 -29.5t-15.5 -14.5t-29 -5h-201 q-29 0 -36 9t-13 40z" />
<glyph unicode="w" horiz-adv-x="1523" d="M139 1008q-4 25 11.5 39t44.5 14h165q47 0 54 -53l78 -559q4 -29 4 -105q0 10 36 105l226 559q23 53 63 53h172q47 0 54 -53l61 -559q6 -61 6 -101q0 18 35 101l215 559q20 53 63 53h146q49 0 49 -30q0 -10 -6 -23l-389 -959q-12 -31 -23.5 -40t-36.5 -9h-213 q-27 0 -35 10t-12 39l-57 504q-6 57 -6 115l-41 -115l-211 -504q-10 -29 -22.5 -39t-37.5 -10h-206q-25 0 -34 10t-13 39z" />
<glyph unicode="x" horiz-adv-x="1011" d="M17 17q-1 4 -1 8q0 14 15 28l387 492l-252 463q-12 20 -4 36.5t39 16.5h188q41 0 72 -53l149 -273l203 273q43 53 86 53h176q27 0 32 -17q1 -4 1 -7q0 -14 -14 -29l-377 -476l262 -477q14 -20 4 -37.5t-37 -17.5h-190q-35 0 -68 53l-160 289l-221 -289q-41 -53 -86 -53 h-172q-27 0 -32 17z" />
<glyph unicode="y" horiz-adv-x="1007" d="M145 1008q-2 6 -1 11q0 15 12 27q16 15 47 15h174q18 0 29.5 -7t15.5 -17.5t8 -28.5l98 -488q16 -82 17 -182q35 104 65 174l228 496q23 53 65 53h162q31 0 44 -14q7 -7 7 -18q0 -9 -6 -21l-639 -1383q-27 -53 -65 -53h-134q-50 0 -50 31q0 10 5 22l148 346z" />
<glyph unicode="z" horiz-adv-x="948" d="M76 51l16 125q2 27 19 45l510 613h-359q-55 0 -49 51l14 125q6 51 62 51h647q46 0 46 -37q0 -6 -1 -12l-14 -125q-2 -23 -17 -41l-516 -619h436q53 0 48 -51l-15 -125q-6 -51 -59 -51h-721q-53 0 -47 51z" />
<glyph unicode="{" horiz-adv-x="958" d="M168 469l12 121q8 55 64 55h2q162 0 176 115l53 432q39 315 477 315h37q48 0 48 -40q0 -6 -1 -13l-14 -123q-6 -53 -61 -53h-19q-166 0 -182 -115l-55 -432q-10 -84 -46 -130t-108 -71q109 -49 108 -163q0 -4 -4 -43l-51 -414q-4 -27 -4 -55q0 -88 156 -88h22 q44 0 44 -40q0 -6 -1 -14l-14 -125q-6 -53 -59 -53h-13q-205 0 -315.5 74t-110.5 213q0 27 4 61l54 412q2 16 2 33q0 88 -152 88h-2q-48 0 -48 43q0 4 1 10z" />
<glyph unicode="|" horiz-adv-x="581" d="M225 -393v1827q0 55 54 55h186q49 0 49 -55v-1827q0 -55 -49 -56h-186q-54 1 -54 56z" />
<glyph unicode="}" horiz-adv-x="958" d="M49 -412l12 125q6 53 62 54h22q166 0 181 114l55 447q10 84 48 129t108 73q-109 43 -109 166q0 12 6 64l49 399q2 16 2 33q0 86 -155 86h-21q-48 0 -47 43v10l17 123q6 53 57 53h20q201 0 310.5 -73.5t109.5 -210.5q0 -37 -2 -54l-49 -389q-4 -35 -4 -45q0 -90 149 -90h2 q46 0 46 -44v-11l-13 -121q-6 -53 -59 -53h-2q-162 0 -176 -115l-58 -451q-37 -315 -475 -315h-39q-48 0 -47 43q-1 4 0 10z" />
<glyph unicode="~" horiz-adv-x="1073" d="M184 489l11 103q8 96 60 142t118 46q57 0 114 -24l193 -86q70 -29 84 -29q33 0 43 66l2 10q10 47 57 47h92q46 0 46 -49v-13l-11 -86q-14 -100 -62 -150t-114 -50q-70 0 -129 28l-194 91q-43 20 -68 20q-39 0 -47 -66l-2 -12q-6 -29 -19.5 -38t-38.5 -9h-92q-44 0 -43 47 q-1 5 0 12z" />
<glyph unicode="&#xa1;" horiz-adv-x="589" d="M109 -332l65 561l78 392q6 29 18.5 41t38.5 12h131q29 0 38 -12.5t7 -40.5l-18 -392l-70 -561q-8 -55 -59 -55h-186q-44 0 -45 41q1 6 2 14zM254 836l20 172q6 53 58 53h186q48 0 48 -43q0 -5 -1 -10l-22 -172q-6 -53 -60 -54h-184q-46 0 -46 43q0 5 1 11z" />
<glyph unicode="&#xa2;" horiz-adv-x="1159" d="M199 449q0 29 2 43l55 466q31 266 344 306l18 129q6 55 60 55h176q44 0 44 -44q0 -5 -1 -11l-16 -133q252 -49 252 -261q0 -29 -3 -45l-4 -32q-6 -51 -59 -52h-162q-51 0 -45 50l2 18q2 12 2 25q0 88 -151 88q-90 0 -130 -27t-48 -86l-50 -395q-6 -41 -6 -51 q0 -94 154 -95q90 0 129 29t47 88l4 31q6 53 57 53h164q46 0 46 -40q0 -6 -1 -13l-6 -53q-14 -127 -91 -205t-234 -103l-15 -129q-6 -55 -55 -55h-178q-46 0 -46 42q0 6 1 13l14 129q-137 23 -203.5 92t-66.5 173z" />
<glyph unicode="&#xa3;" horiz-adv-x="1462" d="M150 53l14 125q6 51 59 51h117l47 369h-119q-53 0 -47 51l17 129q8 51 59 51h119l35 293q41 344 510 344q227 0 335.5 -85t108.5 -214q0 -31 -2 -45l-10 -71q-6 -55 -56 -56h-172q-47 0 -46 40q0 7 1 16l2 20q2 12 2 35q0 121 -182 121q-190 0 -209 -156l-31 -242h234 q46 0 46 -38q0 -6 -1 -13l-14 -129q-6 -51 -62 -51h-229l-47 -369h321q70 0 102.5 41t45.5 133l2 19q6 53 59 53h168q46 0 46 -42q0 -5 -1 -11l-2 -19q-25 -227 -116 -315t-257 -88h-802q-46 0 -46 42q0 5 1 11z" />
<glyph unicode="&#xa4;" horiz-adv-x="1353" d="M213 539l8 75q6 47 60 48h77l13 118h-74q-53 0 -47 51l8 74q6 51 59 51h74l23 162q41 348 534 348q242 0 355.5 -86t113.5 -219q0 -12 -4 -55l-12 -90q-6 -53 -55 -53h-179q-46 0 -45 42v11l6 41q2 16 2 41q0 129 -200 129q-215 0 -234 -160l-14 -111h199q48 0 48 -38 q0 -6 -1 -13l-8 -74q-6 -51 -62 -51h-199l-14 -118h201q53 0 47 -48l-8 -75q-8 -53 -64 -54h-196l-11 -90q-6 -33 -6 -39q0 -135 201 -135q221 0 238 160l8 82q6 53 59 53h176q44 0 44 -42q0 -5 -1 -11l-14 -133q-37 -346 -535 -346q-244 0 -356.5 86t-112.5 219q0 14 4 55 l17 141h-76q-48 0 -48 43q0 5 1 11z" />
<glyph unicode="&#xa5;" horiz-adv-x="1189" d="M174 543l8 75q8 51 62 52h219l-41 114h-164q-48 0 -48 43q0 5 1 11l8 73q6 49 60 50h84l-150 434q-8 25 4 39t41 14h207q43 0 57 -53l146 -486q10 -35 20 -112q35 86 51 112l283 486q31 53 72 53h186q42 0 42 -25q0 -12 -9 -28l-262 -434h96q46 0 46 -37q0 -6 -1 -13 l-8 -73q-6 -53 -60 -54h-180l-72 -114h238q29 0 39 -12.5t8 -39.5l-8 -75q-8 -51 -62 -51h-290l-54 -439q-6 -53 -55 -53h-186q-46 0 -46 40q0 6 1 13l53 439h-289q-53 0 -47 51z" />
<glyph unicode="&#xa6;" horiz-adv-x="532" d="M211 274q0 55 53 56h176q49 0 49 -56v-667q0 -55 -49 -56h-176q-53 0 -53 56v667zM211 725v668q0 55 53 55h176q49 0 49 -55v-668q0 -55 -49 -55h-176q-53 0 -53 55z" />
<glyph unicode="&#xa7;" horiz-adv-x="1175" d="M127 -170q0 6 1 17.5t1 13.5l2 33q4 51 62 51h155q25 0 35 -11.5t8 -42.5l-2 -28v-17q0 -53 37 -74.5t121 -21.5q92 0 134 25.5t50 85.5l12 102q0 8 1 16.5t2.5 13.5t1.5 7q0 59 -91 86l-260 82q-170 53 -170 219q0 14 4 51l21 162q6 51 57 51h156q48 0 48 -39 q0 -6 -1 -12l-16 -111q-2 -20 -2 -45q0 -53 67 -73l268 -86q80 -25 138.5 -87.5t58.5 -156.5q0 -29 -2 -41l-16 -123q-43 -309 -467 -309q-414 0 -414 262zM270 995q0 10 4 39l15 123q37 309 469 309q412 0 411 -262q0 -12 -2 -35l-2 -28q-2 -53 -57 -54h-158 q-27 0 -37 12.5t-8 41.5l2 28v17q0 53 -34.5 74.5t-122.5 21.5q-92 0 -133.5 -25.5t-49.5 -85.5l-16 -106q-2 -12 -2 -31q0 -61 90 -86l260 -84q170 -55 170 -217q0 -33 -2 -53l-20 -162q-6 -51 -58 -51h-155q-53 0 -48 51l17 133q2 12 2 23q0 53 -68 73l-266 87 q-82 27 -141.5 90t-59.5 157z" />
<glyph unicode="&#xa8;" horiz-adv-x="811" d="M305 1253l23 197q6 53 59 53h105q44 0 43 -42v-11l-23 -197q-8 -53 -57 -53h-105q-46 0 -46 43q0 4 1 10zM602 1253l25 197q6 53 59 53h102q46 0 46 -42v-11l-27 -197q-6 -53 -57 -53h-103q-46 0 -46 43q0 4 1 10z" />
<glyph unicode="&#xa9;" horiz-adv-x="1656" d="M199 479v492q0 82 12 144.5t54 132t113 113.5t199 74.5t300 30.5q176 0 304 -30.5t198.5 -74.5t112.5 -113.5t54.5 -132t12.5 -144.5v-492q0 -82 -12.5 -144.5t-54.5 -131t-112.5 -114.5t-198.5 -75.5t-304 -29.5q-172 0 -300 29.5t-199 75.5t-113 114.5t-54 131 t-12 144.5zM401 440q0 -285 476 -284q479 0 479 282v574q0 283 -479 282q-475 0 -476 -284v-570zM520 580v286q0 150 83 223.5t279.5 73.5t277.5 -73.5t81 -223.5v-18q0 -31 -11 -41t-40 -10h-141q-53 0 -54 51v12q0 59 -26.5 87t-87 28t-87 -26.5t-26.5 -88.5v-272 q0 -59 26.5 -87t88.5 -28q113 0 112 115v28q0 53 54 54h141q51 0 51 -54v-36q0 -150 -82 -223.5t-278.5 -73.5t-278.5 73.5t-82 223.5z" />
<glyph unicode="&#xaa;" horiz-adv-x="763" d="M215 961q0 20 2 34l37 283q10 88 67.5 138t155.5 50q111 0 193 -71l6 26q8 33 37 33h141q31 0 29 -31l-72 -575q-2 -35 -35 -35h-141q-29 0 -29 35v29q-94 -74 -200 -74q-86 0 -138.5 43t-52.5 115zM434 1012q0 -51 60 -51q57 0 129 59l24 223q-43 59 -110.5 59.5 t-75.5 -65.5l-27 -205v-20z" />
<glyph unicode="&#xab;" horiz-adv-x="1347" d="M180 436l23 172q4 39 57 74l432 283q11 7 21 6q8 0 16 -4q16 -10 14 -37l-22 -180q-6 -39 -64 -74l-245 -156l209 -157q49 -37 43 -76l-23 -172q-4 -27 -21 -38q-7 -5 -15 -5q-11 0 -21 10l-363 285q-45 36 -41 69zM690 436l21 172q4 39 57 74l434 283q11 7 21 6 q8 0 16 -4q16 -10 14 -37l-24 -180q-4 -39 -62 -74l-247 -156l208 -158q49 -37 46 -75l-23 -172q-4 -27 -22 -38q-7 -5 -14 -5q-11 0 -21 10l-363 285q-45 36 -41 69z" />
<glyph unicode="&#xac;" horiz-adv-x="851" d="M158 682q0 113 77.5 190.5t188.5 77.5q113 0 190.5 -78.5t77.5 -189.5t-78.5 -188.5t-189.5 -77.5t-188.5 77.5t-77.5 188.5z" />
<glyph unicode="&#xad;" horiz-adv-x="927" d="M190 551v127q0 51 54 51h569q53 0 53 -51v-127q0 -51 -53 -51h-569q-54 0 -54 51z" />
<glyph unicode="&#xae;" horiz-adv-x="1374" d="M231 721v393q0 51 10.5 93t43 92.5t89 85t158 58t239.5 23.5t240.5 -23.5t158 -58t88 -85t43 -92.5t10.5 -93v-393q0 -51 -10.5 -94t-43 -93.5t-88 -84t-158 -57t-240.5 -23.5t-239.5 23.5t-158 57t-89 84t-43 93.5t-10.5 94zM416 702q0 -174 355 -174t355 172v430 q0 82 -77.5 127.5t-278.5 45.5q-354 0 -354 -173v-428zM526 664v505q0 37 37 37h242q231 0 231 -178v-35q0 -104 -78 -147l72 -182q6 -16 -3 -26.5t-32 -10.5h-114q-16 0 -20.5 6t-14.5 31l-62 149h-71v-149q0 -37 -35 -37h-115q-37 0 -37 37zM713 950h71q23 0 44.5 12.5 t21.5 34.5v25q0 49 -66 49h-71v-121z" />
<glyph unicode="&#xaf;" horiz-adv-x="864" d="M287 1270l14 108q6 51 59 52h492q53 0 47 -52l-12 -108q-6 -51 -60 -51h-493q-53 0 -47 51z" />
<glyph unicode="&#xb0;" horiz-adv-x="925" d="M236 991q0 25 2 37l24 199q14 119 95 179t276 60q328 0 328 -204q0 -27 -3 -39l-22 -199q-16 -119 -97 -177.5t-272 -58.5q-331 0 -331 203zM475 1028q0 -59 107 -59q111 0 118 65l23 180v11q0 57 -107 57q-109 0 -118 -63l-21 -172z" />
<glyph unicode="&#xb1;" horiz-adv-x="1191" d="M143 150v124q0 51 54 52h831q53 0 53 -52v-124q0 -53 -53 -54h-831q-54 1 -54 54zM143 750v127q0 49 54 49h299v200q0 53 49 54h129q51 0 51 -54v-200h303q53 0 53 -49v-127q0 -51 -53 -52h-303v-200q0 -53 -51 -54h-129q-49 0 -49 54v200h-299q-54 1 -54 52z" />
<glyph unicode="&#xb2;" horiz-adv-x="825" d="M195 625l28 227q6 49 27.5 72.5t64.5 40.5l287 120q39 18 47 70l8 55v17q0 70 -95 69.5t-103 -82.5l-4 -45q-4 -41 -43 -41h-138q-20 0 -26 10.5t-4 30.5l8 76q10 94 88 157.5t242 63.5q145 0 218.5 -60t73.5 -142q0 -6 -4 -50l-4 -53q-10 -147 -153 -209l-244 -106 q-31 -12 -33 -31l-8 -57h356q37 0 33 -35l-12 -98q-6 -39 -43 -39h-533q-40 0 -34 39z" />
<glyph unicode="&#xb3;" horiz-adv-x="823" d="M193 764q0 14 2 31l4 43q2 35 43 34h135q35 0 35 -34v-19q0 -76 92 -76q100 0 110 84l4 35v12q0 74 -94 74h-90q-39 0 -33 35l11 92q6 39 45 39h73q104 0 113 80l2 23v8q0 76 -88 75q-94 0 -94 -81v-11q0 -37 -43 -37h-139q-33 0 -31 37l4 41q20 219 328 219 q147 0 215.5 -54t68.5 -136q0 -14 -2 -35l-8 -84q-4 -51 -28.5 -76.5t-75.5 -46.5q84 -39 84 -123q0 -14 -2 -30l-15 -97q-27 -209 -327 -208q-154 0 -226.5 55t-72.5 131z" />
<glyph unicode="&#xb4;" horiz-adv-x="667" d="M305 1245l127 209q35 53 80 53h190q29 0 34 -14q1 -3 1 -7q0 -13 -14 -32l-182 -225q-31 -37 -72 -37h-143q-33 0 -33 20q0 13 12 33z" />
<glyph unicode="&#xb5;" horiz-adv-x="1146" d="M68 -375l170 1383q8 53 61 53h172q48 0 48 -43q0 -5 -1 -10l-80 -664q-4 -37 -4 -41q0 -41 23.5 -60.5t79.5 -19.5q119 0 247 94l82 691q6 53 60 53h178q46 0 46 -43q0 -5 -1 -10l-119 -955q-6 -53 -59 -53h-164q-27 0 -37 11.5t-8 41.5l2 47q-160 -117 -322 -116 q-49 0 -65 16l-29 -375q-4 -53 -59 -53h-176q-46 0 -46 42q0 5 1 11z" />
<glyph unicode="&#xb6;" horiz-adv-x="1474" d="M246 844q0 10 4 41l33 284q18 133 111 206t335 73h285q55 0 49 -53l-219 -1770q-6 -53 -58 -53h-186q-46 0 -46 42q0 5 1 11l121 975h-51q-193 0 -286 65.5t-93 178.5zM987 -375l219 1768q6 55 58 55h184q46 0 46 -44q0 -5 -1 -11l-219 -1768q-6 -53 -57 -53h-187 q-44 0 -44 40q0 6 1 13z" />
<glyph unicode="&#xb7;" horiz-adv-x="532" d="M182 502l21 174q6 53 59 53h182q44 0 44 -42q0 -5 -1 -11l-20 -174q-6 -53 -57 -53h-183q-46 0 -45 42q-1 5 0 11z" />
<glyph unicode="&#xb8;" horiz-adv-x="555" d="M-12 -395l4 41q6 51 57 51h209q45 0 45 37q0 31 -39 30h-155q-65 0 -65 40q0 13 7 30l78 195q22 45 66 45h4l77 -6q36 -4 36 -36q0 -12 -5 -28l-41 -100h66q76 0 120 -40t44 -114q0 -98 -57.5 -148.5t-151.5 -50.5h-254q-46 0 -46 43q0 5 1 11z" />
<glyph unicode="&#xb9;" horiz-adv-x="794" d="M174 623l10 98q6 35 45 35h156l64 508l-158 -23q-20 -4 -28.5 4t-6.5 29l10 98q2 31 45 37l342 53h19q8 0 12 -9t2 -26l-84 -671h152q37 0 34 -35l-12 -98q-2 -39 -41 -39h-524q-43 0 -37 39z" />
<glyph unicode="&#xba;" horiz-adv-x="790" d="M219 981q0 16 4 41l31 242q27 203 313 202q129 0 206 -49t77 -131q0 -4 -4 -43l-31 -237q-27 -203 -313 -203q-129 0 -206 49t-77 129zM436 1012q0 -47 82 -47q78 0 86 57l29 223v15q0 43 -80 43q-82 0 -88 -54l-29 -221v-16z" />
<glyph unicode="&#xbb;" horiz-adv-x="1357" d="M180 129l25 182q4 39 61 74l248 156l-209 157q-49 37 -45 76l23 172q4 27 21 38q7 5 14 5q11 0 22 -10l362 -285q45 -37 41 -69l-20 -174q-6 -37 -59 -72l-433 -283q-11 -7 -21 -6q-8 0 -15 4q-17 10 -15 35zM700 129l25 182q4 39 61 74l246 156l-209 157q-47 37 -43 76 l23 172q4 27 21 38q7 5 15 5q11 0 21 -10l363 -285q45 -37 41 -69l-23 -174q-4 -37 -57 -72l-432 -283q-11 -7 -22 -6q-8 0 -15 4q-17 10 -15 35z" />
<glyph unicode="&#xbc;" horiz-adv-x="1904" d="M238 623l12 98q4 35 45 35h154l65 508l-158 -23q-23 -4 -31 4t-6 29l11 98q2 31 45 37l342 53h19q7 0 11.5 -9t2.5 -26l-82 -671h149q37 0 35 -35l-12 -98q-2 -39 -41 -39h-525q-42 0 -36 39zM680 -66l580 1579q12 39 49 39h149q41 0 27 -39l-578 -1579q-12 -39 -47 -38 h-153q-30 0 -30 22q0 7 3 16zM1206 258l6 72q2 23 19 65l176 436q16 37 51 37h146q39 0 24 -37l-174 -442h184l54 442q4 37 45 37h139q37 0 35 -37l-99 -792q-2 -39 -43 -39h-141q-35 0 -33 39l21 180h-377q-35 0 -33 39z" />
<glyph unicode="&#xbd;" horiz-adv-x="1912" d="M238 623l12 98q4 35 45 35h154l65 508l-158 -23q-23 -4 -31 4t-6 29l11 98q2 31 45 37l342 53h19q7 0 11.5 -9t2.5 -26l-82 -671h149q37 0 35 -35l-12 -98q-2 -39 -41 -39h-525q-42 0 -36 39zM676 -66l579 1579q12 39 48 39h151q41 0 27 -39l-580 -1579q-12 -39 -47 -38 h-152q-30 0 -30 21q0 7 4 17zM1272 39l28 227q8 49 29 72.5t64 40.5l288 121q37 18 45 69l11 56v16q0 70 -96.5 70t-104.5 -82l-4 -45q-2 -41 -43 -41h-137q-20 0 -26.5 10t-4.5 31l8 75q10 94 88 158t242 64q145 0 220 -60.5t75 -142.5q0 -6 -4 -49l-4 -54 q-12 -147 -154 -208l-246 -107q-31 -12 -33 -31l-8 -57h357q39 0 34 -35l-14 -98q-6 -39 -41 -39h-532q-43 0 -37 39z" />
<glyph unicode="&#xbe;" horiz-adv-x="1929" d="M254 764q0 14 2 31l4 43q2 35 43 34h135q35 0 35 -34v-19q0 -76 94 -76q100 0 109 84l4 35v12q0 74 -94 74h-90q-37 0 -33 35l10 92q6 39 45 39h74q104 0 113 80l2 23v8q0 76 -86 75q-96 0 -97 -81v-11q0 -37 -43 -37h-139q-33 0 -31 37l4 41q20 219 328 219 q147 0 216 -54t69 -136q0 -14 -2 -35l-8 -84q-4 -51 -29 -76.5t-76 -46.5q84 -39 84 -123q0 -14 -2 -30l-12 -97q-29 -209 -330 -208q-152 0 -225.5 55t-73.5 131zM702 -66l578 1579q12 39 49 39h152q41 0 24 -39l-577 -1579q-12 -39 -45 -38h-154q-30 0 -29 22q-1 7 2 16z M1225 258l8 72q2 23 20 65l177 436q14 37 51 37h145q37 0 23 -37l-172 -442h182l53 442q4 37 43 37h143q35 0 31 -37l-96 -792q-2 -39 -41 -39h-143q-35 0 -33 39l22 180h-376q-43 0 -37 39z" />
<glyph unicode="&#xbf;" horiz-adv-x="1202" d="M96 -92q0 27 2 47l13 100q27 229 239 318l127 55q51 23 74.5 46.5t30.5 72.5l8 76q2 27 15 39t40 12h189q53 0 47 -51l-21 -148q-10 -82 -50 -122t-108 -70l-208 -101q-82 -43 -99 -129l-8 -63q-2 -23 -2 -39q0 -121 195 -121q211 0 229 160l10 82q10 53 58 53h178 q48 0 47 -43v-10l-19 -129q-43 -348 -522 -349q-236 0 -350.5 91.5t-114.5 222.5zM616 836l21 172q6 53 57 53h187q25 0 34 -10q9 -9 9 -33v-10l-19 -172q-6 -53 -59 -54h-189q-42 0 -42 39q0 7 1 15z" />
<glyph unicode="&#xc0;" horiz-adv-x="1177" d="M37 53l561 1342q23 53 74 53h186q49 0 57 -53l236 -1342q2 -8 2 -15q0 -38 -47 -38h-188q-47 0 -58 53l-43 260h-395l-107 -260q-18 -53 -67 -53h-178q-40 0 -41 26q1 11 8 27zM498 1855q10 14 37 15h180q45 0 67 -53l78 -209q7 -15 7 -26q0 -26 -40 -26h-135 q-47 0 -63 35l-129 226q-7 13 -7 23q0 8 5 15zM514 541h270l-41 237q-17 100 -16 335v54q-80 -311 -111 -387z" />
<glyph unicode="&#xc1;" horiz-adv-x="1177" d="M37 53l561 1342q23 53 74 53h186q49 0 57 -53l236 -1342q2 -8 2 -15q0 -38 -47 -38h-188q-47 0 -58 53l-43 260h-395l-107 -260q-18 -53 -67 -53h-178q-40 0 -41 26q1 11 8 27zM514 541h270l-41 237q-17 100 -16 335v54q-80 -311 -111 -387zM682 1608l129 209 q35 53 80 53h188q29 0 34 -15q1 -3 1 -7q0 -13 -12 -31l-182 -226q-27 -37 -74 -37h-144q-34 0 -33 20q0 13 13 34z" />
<glyph unicode="&#xc2;" horiz-adv-x="1177" d="M37 53l561 1342q23 53 74 53h186q49 0 57 -53l236 -1342q2 -8 2 -15q0 -38 -47 -38h-188q-47 0 -58 53l-43 260h-395l-107 -260q-18 -53 -67 -53h-178q-40 0 -41 26q1 11 8 27zM461 1571q-2 4 -2 8q0 13 14 29l180 209q45 53 92 53h101q43 0 76 -53l133 -209q8 -13 8 -24 q0 -8 -4 -14q-10 -15 -41 -16h-131q-47 0 -70 54l-39 96l-67 -96q-37 -53 -78 -54h-139q-27 1 -33 17zM514 541h270l-41 237q-17 100 -16 335v54q-80 -311 -111 -387z" />
<glyph unicode="&#xc3;" horiz-adv-x="1177" d="M37 53l561 1342q23 53 74 53h186q49 0 57 -53l236 -1342q2 -8 2 -15q0 -38 -47 -38h-188q-47 0 -58 53l-43 260h-395l-107 -260q-18 -53 -67 -53h-178q-40 0 -41 26q1 11 8 27zM369 1626l18 86q20 80 75.5 123t127.5 43t127 -29l86 -45q59 -31 69 -30q35 0 48 51l4 14 q18 45 63 45h92q41 0 42 -40q0 -10 -3 -21l-18 -80q-41 -168 -191 -168q-74 0 -141 29l-90 45q-51 25 -74 24q-31 0 -41 -41l-8 -22q-14 -47 -61 -47h-88q-40 0 -40 38q0 11 3 25zM514 541h270l-41 237q-17 100 -16 335v54q-80 -311 -111 -387z" />
<glyph unicode="&#xc4;" horiz-adv-x="1177" d="M37 53l561 1342q23 53 74 53h186q49 0 57 -53l236 -1342q2 -8 2 -15q0 -38 -47 -38h-188q-47 0 -58 53l-43 260h-395l-107 -260q-18 -53 -67 -53h-178q-40 0 -41 26q1 11 8 27zM514 541h270l-41 237q-17 100 -16 335v54q-80 -311 -111 -387zM516 1612l25 198q6 55 57 56 h104q44 0 44 -44q0 -5 -1 -12l-22 -198q-8 -53 -59 -53h-103q-46 0 -46 42q0 5 1 11zM813 1612l25 198q6 55 59 56h104q44 0 44 -44q0 -5 -1 -12l-24 -198q-6 -53 -57 -53h-105q-46 0 -46 42q0 5 1 11z" />
<glyph unicode="&#xc5;" horiz-adv-x="1177" d="M37 53l561 1342q23 53 74 53h186q49 0 57 -53l236 -1342q2 -8 2 -15q0 -38 -47 -38h-188q-47 0 -58 53l-43 260h-395l-107 -260q-18 -53 -67 -53h-178q-40 0 -41 26q1 11 8 27zM514 541h270l-41 237q-17 100 -16 335v54q-80 -311 -111 -387zM541 1661q0 25 2 45l6 49 q20 162 248 162q109 0 166 -39t57 -102q0 -8 -2 -29l-6 -64q-14 -162 -242 -161q-111 0 -170 39t-59 100zM692 1692q0 -53 82 -54q86 0 90 64l2 33v14q0 49 -80 49q-88 0 -92 -63l-2 -33v-10z" />
<glyph unicode="&#xc6;" horiz-adv-x="1777" d="M35 15q-5 6 -5 14q0 11 11 24l963 1344q39 51 86 51h710q53 0 47 -51l-18 -129q-6 -51 -57 -51h-492l-45 -355h457q55 0 49 -51l-17 -121q-6 -53 -59 -53h-457l-49 -406h512q55 0 49 -49l-16 -131q-6 -51 -59 -51h-734q-50 0 -49 45v10l33 258h-387l-184 -260 q-41 -53 -70 -53h-180q-27 0 -39 15zM670 541h254l53 450q-47 -80 -88 -139z" />
<glyph unicode="&#xc7;" horiz-adv-x="1210" d="M162 289q0 14 4 55l94 774q41 348 535 348q242 0 355.5 -86t113.5 -219q0 -12 -4 -55l-13 -90q-6 -53 -55 -53h-178q-46 0 -46 42q0 5 1 11l6 41q2 16 2 41q0 129 -199 129q-215 0 -235 -160l-82 -672q-4 -33 -4 -39q0 -135 198 -135q221 0 238 160l8 82q6 53 60 53h176 q44 0 43 -42v-11l-15 -133q-37 -330 -491 -346l-33 -80h66q76 0 119.5 -40t43.5 -114q0 -98 -57 -148.5t-151 -50.5h-254q-46 0 -46 43v11l5 41q6 51 57 51h209q45 0 45 37q0 31 -39 30h-156q-65 0 -64 40q0 13 7 30l63 160q-170 23 -248.5 102.5t-78.5 192.5z" />
<glyph unicode="&#xc8;" horiz-adv-x="1089" d="M154 55l165 1338q6 55 58 55h729q55 0 49 -51l-18 -133q-6 -53 -60 -54h-491l-43 -346h458q46 0 46 -41v-10l-17 -127q-6 -51 -59 -51h-455l-51 -397h514q50 0 50 -38q0 -5 -1 -12l-18 -135q-8 -53 -58 -53h-751q-48 0 -48 44q0 5 1 11zM484 1855q9 14 38 15h180 q45 0 66 -53l80 -209q6 -14 5 -24q0 -27 -40 -28h-133q-47 0 -64 35l-129 226q-7 14 -7 24q0 8 4 14z" />
<glyph unicode="&#xc9;" horiz-adv-x="1089" d="M154 55l165 1338q6 55 58 55h729q55 0 49 -51l-18 -133q-6 -53 -60 -54h-491l-43 -346h458q46 0 46 -41v-10l-17 -127q-6 -51 -59 -51h-455l-51 -397h514q50 0 50 -38q0 -5 -1 -12l-18 -135q-8 -53 -58 -53h-751q-48 0 -48 44q0 5 1 11zM633 1608l129 209q35 53 80 53 h188q29 0 34 -15q1 -3 1 -7q0 -13 -12 -31l-183 -226q-27 -37 -73 -37h-144q-34 0 -34 20q1 13 14 34z" />
<glyph unicode="&#xca;" horiz-adv-x="1089" d="M154 55l165 1338q6 55 58 55h729q55 0 49 -51l-18 -133q-6 -53 -60 -54h-491l-43 -346h458q46 0 46 -41v-10l-17 -127q-6 -51 -59 -51h-455l-51 -397h514q50 0 50 -38q0 -5 -1 -12l-18 -135q-8 -53 -58 -53h-751q-48 0 -48 44q0 5 1 11zM444 1571q-1 4 -1 8q0 13 16 29 l180 209q45 53 92 53h100q41 0 76 -53l133 -209q8 -13 8 -23q0 -8 -5 -15q-11 -15 -39 -16h-134q-47 0 -67 54l-41 96l-66 -96q-39 -53 -78 -54h-139q-29 1 -35 17z" />
<glyph unicode="&#xcb;" horiz-adv-x="1089" d="M154 55l165 1338q6 55 58 55h729q55 0 49 -51l-18 -133q-6 -53 -60 -54h-491l-43 -346h458q46 0 46 -41v-10l-17 -127q-6 -51 -59 -51h-455l-51 -397h514q50 0 50 -38q0 -5 -1 -12l-18 -135q-8 -53 -58 -53h-751q-48 0 -48 44q0 5 1 11zM504 1612l26 198q6 55 58 56h104 q44 0 44 -44q0 -5 -1 -12l-24 -198q-6 -53 -58 -53h-104q-46 0 -46 42q0 5 1 11zM803 1612l24 198q6 55 60 56h104q42 0 42 -41q0 -7 -1 -15l-22 -198q-6 -53 -58 -53h-104q-46 0 -46 42q0 5 1 11z" />
<glyph unicode="&#xcc;" horiz-adv-x="581" d="M154 55l165 1338q6 55 58 55h186q44 0 44 -41q0 -7 -1 -14l-164 -1338q-6 -55 -57 -55h-184q-48 0 -48 44q0 5 1 11zM214 1855q9 14 38 15h180q45 0 66 -53l80 -209q6 -14 5 -24q0 -27 -40 -28h-133q-47 0 -66 35l-127 226q-7 14 -7 24q0 8 4 14z" />
<glyph unicode="&#xcd;" horiz-adv-x="581" d="M154 55l165 1338q6 55 58 55h186q44 0 44 -41q0 -7 -1 -14l-164 -1338q-6 -55 -57 -55h-184q-48 0 -48 44q0 5 1 11zM379 1608l131 209q33 53 78 53h190q27 0 32 -15q1 -3 1 -7q0 -13 -12 -31l-181 -226q-29 -37 -75 -37h-142q-36 0 -35 21q0 13 13 33z" />
<glyph unicode="&#xce;" horiz-adv-x="581" d="M154 55l165 1338q6 55 58 55h186q44 0 44 -41q0 -7 -1 -14l-164 -1338q-6 -55 -57 -55h-184q-48 0 -48 44q0 5 1 11zM181 1571q-2 4 -2 9q0 13 16 28l180 209q45 53 92 53h100q41 0 76 -53l133 -209q8 -13 8 -23q0 -8 -5 -15q-11 -15 -40 -16h-133q-45 0 -67 54l-41 96 l-66 -96q-39 -53 -78 -54h-139q-27 1 -34 17z" />
<glyph unicode="&#xcf;" horiz-adv-x="581" d="M154 55l165 1338q6 55 58 55h186q44 0 44 -41q0 -7 -1 -14l-164 -1338q-6 -55 -57 -55h-184q-48 0 -48 44q0 5 1 11zM233 1612l27 198q6 55 57 56h105q44 0 44 -44q0 -5 -1 -12l-25 -198q-6 -53 -57 -53h-104q-46 0 -46 42q-1 5 0 11zM532 1612l23 198q8 55 61 56h105 q42 0 42 -44q0 -6 -1 -12l-23 -198q-6 -53 -57 -53h-104q-46 0 -46 42q-1 5 0 11z" />
<glyph unicode="&#xd0;" horiz-adv-x="1308" d="M68 676l14 108q6 49 61 50h107l69 559q6 55 58 55h452q248 0 370 -89t122 -224q0 -31 -4 -62l-90 -725q-41 -348 -545 -348h-487q-42 0 -42 43q0 6 1 12l69 568h-108q-48 0 -48 42q0 5 1 11zM465 238h231q227 0 248 159l78 629q4 31 4 49q0 135 -213 135h-227l-47 -376 h172q53 0 47 -50l-13 -108q-6 -53 -59 -53h-174z" />
<glyph unicode="&#xd1;" horiz-adv-x="1331" d="M154 53l163 1342q6 53 60 53h160q37 0 45 -21l338 -735q41 -88 53 -149l104 852q6 53 58 53h168q46 0 45 -43v-10l-166 -1342q-6 -53 -56 -53h-159q-37 0 -49 25l-326 706q-43 98 -64 174l-104 -852q-6 -53 -55 -53h-168q-48 0 -48 43q0 4 1 10zM502 1626l20 86 q18 80 73.5 123t128.5 43t128 -29l86 -45q59 -31 70 -30q35 0 47 51l4 14q16 45 61 45h94q41 0 42 -40q0 -10 -3 -21l-20 -80q-41 -168 -189 -168q-74 0 -141 29l-92 45q-51 25 -72 24q-33 0 -43 -41l-6 -22q-14 -47 -61 -47h-90q-40 0 -40 38q0 11 3 25z" />
<glyph unicode="&#xd2;" horiz-adv-x="1288" d="M162 291q0 12 4 53l94 774q18 154 148.5 251t402.5 97q246 0 365.5 -89t119.5 -220q0 -35 -2 -53l-92 -774q-18 -152 -150 -249t-405 -97q-244 0 -364.5 87t-120.5 220zM457 356q0 -135 215 -135q225 0 243 160l86 672l5 41q0 133 -215 133q-104 0 -172 -42t-76 -118 l-82 -672q-4 -33 -4 -39zM553 1855q10 14 37 15h180q45 0 68 -53l77 -209q7 -15 7 -26q0 -26 -39 -26h-135q-47 0 -64 35l-129 226q-7 13 -7 23q0 8 5 15z" />
<glyph unicode="&#xd3;" horiz-adv-x="1288" d="M162 291q0 12 4 53l94 774q18 154 148.5 251t402.5 97q246 0 365.5 -89t119.5 -220q0 -35 -2 -53l-92 -774q-18 -152 -150 -249t-405 -97q-244 0 -364.5 87t-120.5 220zM457 356q0 -135 215 -135q225 0 243 160l86 672l5 41q0 133 -215 133q-104 0 -172 -42t-76 -118 l-82 -672q-4 -33 -4 -39zM713 1608l131 209q33 53 78 53h190q27 0 33 -15q2 -4 1 -7q0 -13 -13 -31l-181 -226q-29 -37 -75 -37h-142q-35 0 -34 21q0 13 12 33z" />
<glyph unicode="&#xd4;" horiz-adv-x="1288" d="M162 291q0 12 4 53l94 774q18 154 148.5 251t402.5 97q246 0 365.5 -89t119.5 -220q0 -35 -2 -53l-92 -774q-18 -152 -150 -249t-405 -97q-244 0 -364.5 87t-120.5 220zM457 356q0 -135 215 -135q225 0 243 160l86 672l5 41q0 133 -215 133q-104 0 -172 -42t-76 -118 l-82 -672q-4 -33 -4 -39zM532 1571q-2 4 -1 8q0 13 14 29l182 209q43 53 90 53h101q43 0 77 -53l131 -209q8 -13 9 -24q0 -8 -5 -14q-10 -15 -40 -16h-132q-47 0 -67 54l-41 96l-66 -96q-39 -53 -79 -54h-138q-29 1 -35 17z" />
<glyph unicode="&#xd5;" horiz-adv-x="1288" d="M162 291q0 12 4 53l94 774q18 154 148.5 251t402.5 97q246 0 365.5 -89t119.5 -220q0 -35 -2 -53l-92 -774q-18 -152 -150 -249t-405 -97q-244 0 -364.5 87t-120.5 220zM457 356q0 -135 215 -135q225 0 243 160l86 672l5 41q0 133 -215 133q-104 0 -172 -42t-76 -118 l-82 -672q-4 -33 -4 -39zM473 1626l19 86q20 80 75.5 123t127 43t126.5 -29l86 -45q59 -31 70 -30q35 0 47 51l4 14q18 45 62 45h94q41 0 41 -40q0 -10 -2 -21l-19 -80q-41 -168 -190 -168q-72 0 -142 29l-90 45q-51 25 -73 24q-31 0 -41 -41l-9 -22q-14 -47 -61 -47h-88 q-40 0 -40 38q0 11 3 25z" />
<glyph unicode="&#xd6;" horiz-adv-x="1288" d="M162 291q0 12 4 53l94 774q18 154 148.5 251t402.5 97q246 0 365.5 -89t119.5 -220q0 -35 -2 -53l-92 -774q-18 -152 -150 -249t-405 -97q-244 0 -364.5 87t-120.5 220zM457 356q0 -135 215 -135q225 0 243 160l86 672l5 41q0 133 -215 133q-104 0 -172 -42t-76 -118 l-82 -672q-4 -33 -4 -39zM588 1612l26 198q6 55 58 56h104q42 0 42 -44q0 -6 -1 -12l-22 -198q-6 -53 -58 -53h-104q-46 0 -46 42q0 5 1 11zM887 1612l22 198q6 55 60 56h104q44 0 44 -44q0 -5 -1 -12l-22 -198q-8 -53 -60 -53h-104q-44 0 -44 42q0 5 1 11z" />
<glyph unicode="&#xd7;" horiz-adv-x="1150" d="M199 575q0 20 28 39l262 148l-151 262q-12 25 -12 37q0 20 28 37l109 63q16 10 31 10q25 0 43 -32l151 -262l262 151q20 12 33 12q23 0 37 -28l63 -109q12 -20 13 -35q0 -20 -33 -39l-262 -151l151 -260q10 -23 11 -33q0 -23 -29 -41l-111 -61q-14 -10 -30 -11 q-23 0 -39 31l-152 260l-262 -149q-16 -10 -33 -11q-25 0 -39 29l-59 109q-10 22 -10 34z" />
<glyph unicode="&#xd8;" horiz-adv-x="1288" d="M162 291q0 12 4 53l94 774q18 154 148.5 251t402.5 97q164 0 274 -43l29 45q33 55 72 56h63q28 0 28 -20q0 -13 -13 -36l-68 -106q100 -80 100 -205q0 -35 -2 -53l-92 -774q-18 -152 -150 -249t-405 -97q-160 0 -276 41l-27 -41q-33 -55 -74 -56h-63q-18 0 -21.5 16.5 t11.5 39.5l63 102q-98 78 -98 205zM463 414l483 780q-55 33 -155 33q-104 0 -172 -42t-76 -118zM512 254q55 -33 160 -33q225 0 243 160l84 661z" />
<glyph unicode="&#xd9;" horiz-adv-x="1308" d="M172 297q0 8 6 59l129 1037q6 55 55 55h187q46 0 46 -44q0 -5 -1 -11l-121 -971q-6 -45 -6 -64q0 -137 213 -137q227 0 246 160l129 1012q6 55 55 55h184q48 0 48 -45q0 -5 -1 -10l-131 -1063q-41 -346 -548 -346q-242 0 -366 89t-124 224zM581 1855q9 14 37 15h181 q45 0 65 -53l80 -209q6 -14 6 -24q0 -27 -41 -28h-133q-47 0 -65 35l-127 226q-7 14 -7 24q0 8 4 14z" />
<glyph unicode="&#xda;" horiz-adv-x="1308" d="M172 297q0 8 6 59l129 1037q6 55 55 55h187q46 0 46 -44q0 -5 -1 -11l-121 -971q-6 -45 -6 -64q0 -137 213 -137q227 0 246 160l129 1012q6 55 55 55h184q48 0 48 -45q0 -5 -1 -10l-131 -1063q-41 -346 -548 -346q-242 0 -366 89t-124 224zM733 1608l129 209q35 53 80 53 h188q29 0 34 -15q1 -3 2 -7q0 -13 -13 -31l-182 -226q-27 -37 -74 -37h-143q-34 0 -34 20q0 13 13 34z" />
<glyph unicode="&#xdb;" horiz-adv-x="1308" d="M172 297q0 8 6 59l129 1037q6 55 55 55h187q46 0 46 -44q0 -5 -1 -11l-121 -971q-6 -45 -6 -64q0 -137 213 -137q227 0 246 160l129 1012q6 55 55 55h184q48 0 48 -45q0 -5 -1 -10l-131 -1063q-41 -346 -548 -346q-242 0 -366 89t-124 224zM532 1571q-2 4 -1 8 q0 13 14 29l182 209q43 53 90 53h101q43 0 77 -53l131 -209q8 -13 9 -24q0 -8 -5 -14q-10 -15 -40 -16h-132q-47 0 -67 54l-41 96l-66 -96q-39 -53 -79 -54h-138q-29 1 -35 17z" />
<glyph unicode="&#xdc;" horiz-adv-x="1308" d="M172 297q0 8 6 59l129 1037q6 55 55 55h187q46 0 46 -44q0 -5 -1 -11l-121 -971q-6 -45 -6 -64q0 -137 213 -137q227 0 246 160l129 1012q6 55 55 55h184q48 0 48 -45q0 -5 -1 -10l-131 -1063q-41 -346 -548 -346q-242 0 -366 89t-124 224zM590 1612l26 198q6 55 58 56 h104q42 0 42 -41q0 -7 -1 -15l-22 -198q-6 -53 -58 -53h-104q-46 0 -46 42q0 5 1 11zM889 1612l22 198q6 55 60 56h104q44 0 44 -44q0 -5 -1 -12l-22 -198q-8 -53 -60 -53h-102q-46 0 -46 42q0 5 1 11z" />
<glyph unicode="&#xdd;" horiz-adv-x="1159" d="M201 1395q-3 10 -4 18q0 12 8 21q12 14 41 14h205q43 0 59 -53l143 -486q10 -35 23 -112q33 86 51 112l283 486q31 53 69 53h189q41 0 41 -24q0 -12 -11 -29l-505 -842l-62 -500q-6 -53 -55 -53h-187q-48 0 -47 43v10l58 467zM680 1608l129 209q35 53 80 53h188 q29 0 34 -15q1 -3 1 -7q0 -13 -12 -31l-182 -226q-27 -37 -74 -37h-144q-34 0 -34 20q1 13 14 34z" />
<glyph unicode="&#xde;" horiz-adv-x="1234" d="M154 53l163 1342q6 53 60 53h186q42 0 42 -42q0 -5 -1 -11l-37 -334h201q246 0 365.5 -88t119.5 -221q0 -29 -4 -43l-20 -179q-8 -72 -40 -131t-94.5 -108t-168 -78t-246.5 -29h-221l-19 -131q-6 -53 -55 -53h-184q-51 0 -47 53zM487 422h211q111 0 177.5 40t74.5 120 l8 82v24q0 135 -210 135h-211z" />
<glyph unicode="&#xdf;" horiz-adv-x="1363" d="M150 889l12 106q4 45 57 52l115 10h2l18 135q37 315 516 315q217 0 330 -71.5t113 -198.5q0 -8 -4 -47l-13 -72q-18 -137 -168 -200l-149 -62q-63 -25 -64 -57v-13q0 -33 58 -59l233 -113q162 -80 162 -202q0 -16 -2 -35l-12 -92q-16 -147 -106.5 -224t-299.5 -77 q-182 0 -261 60t-79 177q0 16 2 43l4 25q6 53 60 53h121q49 0 45 -53l-2 -23q-2 -16 -2 -20q0 -86 120 -86q131 0 144 108l4 41l4 39q0 39 -72 76l-217 96q-141 66 -141 205q0 25 2 41l4 39q16 129 162 190l100 39q88 37 98 101l5 41v24q0 113 -195 113q-207 0 -221 -133 l-139 -1125q-6 -55 -58 -55h-178q-46 0 -46 44q0 5 1 11l96 781h-114q-46 0 -46 42q0 5 1 11z" />
<glyph unicode="&#xe0;" d="M135 242q0 14 4 53l60 471q37 311 338 311q190 0 327 -116l10 47q8 29 19.5 41t40.5 12h170q46 0 46 -43q0 -5 -1 -10l-119 -953q-6 -55 -59 -55h-164q-45 0 -45 55l2 47q-172 -119 -346 -118q-137 0 -210 67.5t-73 190.5zM420 307q0 -82 106 -82q104 0 258 97l52 415 q-119 98 -234 98.5t-131 -110.5l-49 -389q-2 -11 -2 -29zM455 1493q10 14 37 14h182q43 0 65 -53l78 -209q6 -15 7 -26q0 -27 -42 -27h-133q-45 0 -63 37l-127 225q-8 14 -9 25q1 8 5 14z" />
<glyph unicode="&#xe1;" d="M135 242q0 14 4 53l60 471q37 311 338 311q190 0 327 -116l10 47q8 29 19.5 41t40.5 12h170q46 0 46 -43q0 -5 -1 -10l-119 -953q-6 -55 -59 -55h-164q-45 0 -45 55l2 47q-172 -119 -346 -118q-137 0 -210 67.5t-73 190.5zM420 307q0 -82 106 -82q104 0 258 97l52 415 q-119 98 -234 98.5t-131 -110.5l-49 -389q-2 -11 -2 -29zM588 1245l127 209q35 53 80 53h192q27 0 32 -14q1 -3 1 -7q0 -13 -14 -32l-183 -225q-31 -37 -71 -37h-144q-33 0 -33 20q1 13 13 33z" />
<glyph unicode="&#xe2;" d="M135 242q0 14 4 53l60 471q37 311 338 311q190 0 327 -116l10 47q8 29 19.5 41t40.5 12h170q46 0 46 -43q0 -5 -1 -10l-119 -953q-6 -55 -59 -55h-164q-45 0 -45 55l2 47q-172 -119 -346 -118q-137 0 -210 67.5t-73 190.5zM408 1207q-2 4 -2 8q0 13 14 30l178 209 q43 53 92 53h103q43 0 75 -53l131 -209q8 -13 9 -24q0 -8 -4 -14q-10 -15 -41 -15h-132q-39 0 -67 53l-41 96l-66 -96q-35 -53 -79 -53h-138q-26 0 -32 15zM420 307q0 -82 106 -82q104 0 258 97l52 415q-119 98 -234 98.5t-131 -110.5l-49 -389q-2 -11 -2 -29z" />
<glyph unicode="&#xe3;" d="M135 242q0 14 4 53l60 471q37 311 338 311q190 0 327 -116l10 47q8 29 19.5 41t40.5 12h170q46 0 46 -43q0 -5 -1 -10l-119 -953q-6 -55 -59 -55h-164q-45 0 -45 55l2 47q-172 -119 -346 -118q-137 0 -210 67.5t-73 190.5zM350 1243l19 90q18 80 72.5 122t129.5 42 q72 0 127 -29l86 -45q55 -29 70 -28q37 0 47 49l4 12q16 47 62 47h94q41 0 41 -40q0 -10 -2 -21l-21 -80q-39 -168 -188 -168q-74 0 -141 31l-93 45q-55 23 -71 22q-33 0 -43 -43l-6 -20q-14 -47 -62 -47h-90q-39 0 -39 35q0 11 4 26zM420 307q0 -82 106 -82q104 0 258 97 l52 415q-119 98 -234 98.5t-131 -110.5l-49 -389q-2 -11 -2 -29z" />
<glyph unicode="&#xe4;" d="M135 242q0 14 4 53l60 471q37 311 338 311q190 0 327 -116l10 47q8 29 19.5 41t40.5 12h170q46 0 46 -43q0 -5 -1 -10l-119 -953q-6 -55 -59 -55h-164q-45 0 -45 55l2 47q-172 -119 -346 -118q-137 0 -210 67.5t-73 190.5zM420 307q0 -82 106 -82q104 0 258 97l52 415 q-119 98 -234 98.5t-131 -110.5l-49 -389q-2 -11 -2 -29zM465 1253l22 197q6 53 60 53h104q44 0 44 -42q0 -5 -1 -11l-22 -197q-8 -53 -58 -53h-104q-46 0 -46 43q0 4 1 10zM762 1253l24 197q6 53 60 53h102q46 0 46 -42q0 -5 -1 -11l-26 -197q-6 -53 -58 -53h-102 q-46 0 -46 43q0 4 1 10z" />
<glyph unicode="&#xe5;" d="M135 242q0 14 4 53l60 471q37 311 338 311q190 0 327 -116l10 47q8 29 19.5 41t40.5 12h170q46 0 46 -43q0 -5 -1 -10l-119 -953q-6 -55 -59 -55h-164q-45 0 -45 55l2 47q-172 -119 -346 -118q-137 0 -210 67.5t-73 190.5zM420 307q0 -82 106 -82q104 0 258 97l52 415 q-119 98 -234 98.5t-131 -110.5l-49 -389q-2 -11 -2 -29zM496 1298q0 25 2 45l6 50q20 162 248 161q109 0 166 -38.5t57 -100.5q0 -10 -2 -31l-6 -63q-14 -162 -240 -162q-111 0 -171 39t-60 100zM647 1329q0 -53 82 -53q88 0 90 63l2 33v14q0 49 -80 50q-90 0 -92 -64 l-2 -33v-10z" />
<glyph unicode="&#xe6;" horiz-adv-x="1671" d="M121 213q0 20 2 37l14 100q14 115 102.5 189.5t247.5 74.5h293l17 127q4 29 4 37q0 94 -148 94q-90 0 -127 -22.5t-47 -83.5l-4 -23q-8 -53 -59 -53h-156q-46 0 -46 43q0 5 1 10l2 27q25 307 453 307q197 0 282 -90q113 90 318 90q199 0 299 -70.5t100 -199.5 q0 -29 -2 -43l-29 -246q-6 -49 -55 -49h-547l-18 -154q0 -6 -1 -12t-2 -10t-1 -6q0 -94 157 -94q88 0 127 26.5t50 81.5l4 21q10 53 61 53h146q47 0 45 -53l-2 -31q-10 -147 -114 -227t-333 -80q-279 0 -371 133q-162 -133 -356 -133q-137 0 -222 61.5t-85 167.5zM401 276 q0 -74 97 -73q102 0 243 96l17 119h-242q-98 0 -110 -92l-5 -39v-11zM1059 655h334l12 97v18q0 98 -152 98q-164 0 -180 -116z" />
<glyph unicode="&#xe7;" horiz-adv-x="1046" d="M137 256q0 27 2 43l56 465q37 313 469 313q207 0 307 -73.5t100 -198.5q0 -27 -2 -45l-4 -31q-6 -51 -59 -51h-162q-51 0 -45 49l2 16q2 12 2 25q0 88 -152 88q-90 0 -130 -26.5t-48 -86.5l-49 -393q-6 -43 -6 -51q0 -94 153 -94q88 0 128 27.5t49 86.5l4 33q6 53 57 54 h164q46 0 46 -40q0 -6 -1 -14l-6 -53q-18 -145 -114.5 -225t-301.5 -88l-31 -82h66q74 0 119 -40t45 -114q0 -98 -57.5 -148.5t-151.5 -50.5h-256q-46 0 -46 43q0 5 1 11l4 41q8 51 59 51h207q45 0 45 37q0 31 -37 30h-155q-65 0 -65 40q0 13 7 30l64 160q-277 41 -277 262z " />
<glyph unicode="&#xe8;" horiz-adv-x="1064" d="M137 256q0 27 2 43l56 465q37 313 467 313q199 0 300 -70.5t101 -199.5q0 -29 -2 -43l-31 -246q-6 -49 -55 -49h-545l-14 -133q-4 -41 -4 -49q0 -94 153 -94q168 0 178 108l2 21q6 53 60 53h149q49 0 45 -53l-2 -23q-16 -150 -118.5 -232.5t-333.5 -82.5 q-205 0 -306.5 71.5t-101.5 200.5zM413 1493q9 14 36 14h182q45 0 65 -53l80 -209q5 -14 6 -24q0 -29 -43 -29h-133q-43 0 -63 37l-127 225q-7 14 -7 25q0 8 4 14zM457 655h331l11 82q2 10 2 33q0 98 -156 98q-166 0 -178 -116z" />
<glyph unicode="&#xe9;" horiz-adv-x="1064" d="M137 256q0 27 2 43l56 465q37 313 467 313q199 0 300 -70.5t101 -199.5q0 -29 -2 -43l-31 -246q-6 -49 -55 -49h-545l-14 -133q-4 -41 -4 -49q0 -94 153 -94q168 0 178 108l2 21q6 53 60 53h149q49 0 45 -53l-2 -23q-16 -150 -118.5 -232.5t-333.5 -82.5 q-205 0 -306.5 71.5t-101.5 200.5zM457 655h331l11 82q2 10 2 33q0 98 -156 98q-166 0 -178 -116zM561 1245l127 209q35 53 78 53h192q29 0 34 -14q1 -3 1 -6q0 -13 -16 -33l-180 -225q-33 -37 -72 -37h-143q-33 0 -33 20q0 13 12 33z" />
<glyph unicode="&#xea;" horiz-adv-x="1064" d="M137 256q0 27 2 43l56 465q37 313 467 313q199 0 300 -70.5t101 -199.5q0 -29 -2 -43l-31 -246q-6 -49 -55 -49h-545l-14 -133q-4 -41 -4 -49q0 -94 153 -94q168 0 178 108l2 21q6 53 60 53h149q49 0 45 -53l-2 -23q-16 -150 -118.5 -232.5t-333.5 -82.5 q-205 0 -306.5 71.5t-101.5 200.5zM375 1207q-2 4 -2 8q0 13 14 30l180 209q41 53 90 53h103q43 0 78 -53l129 -209q8 -13 8 -24q0 -8 -4 -14q-10 -15 -41 -15h-131q-41 0 -66 53l-43 96l-63 -96q-37 -53 -82 -53h-135q-29 0 -35 15zM457 655h331l11 82q2 10 2 33 q0 98 -156 98q-166 0 -178 -116z" />
<glyph unicode="&#xeb;" horiz-adv-x="1064" d="M137 256q0 27 2 43l56 465q37 313 467 313q199 0 300 -70.5t101 -199.5q0 -29 -2 -43l-31 -246q-6 -49 -55 -49h-545l-14 -133q-4 -41 -4 -49q0 -94 153 -94q168 0 178 108l2 21q6 53 60 53h149q49 0 45 -53l-2 -23q-16 -150 -118.5 -232.5t-333.5 -82.5 q-205 0 -306.5 71.5t-101.5 200.5zM418 1253l22 197q6 53 60 53h104q44 0 44 -42q0 -5 -1 -11l-22 -197q-6 -53 -58 -53h-104q-46 0 -46 43q0 4 1 10zM457 655h331l11 82q2 10 2 33q0 98 -156 98q-166 0 -178 -116zM715 1253l24 197q6 53 60 53h102q46 0 46 -42q0 -5 -1 -11 l-26 -197q-6 -53 -58 -53h-102q-46 0 -46 43q0 4 1 10z" />
<glyph unicode="&#xec;" horiz-adv-x="532" d="M131 53l119 955q6 53 57 53h178q44 0 44 -42q0 -5 -1 -11l-116 -955q-6 -53 -58 -53h-178q-46 0 -46 42q0 5 1 11zM144 1493q9 14 36 14h182q45 0 66 -53l80 -209q5 -14 5 -24q0 -29 -42 -29h-133q-43 0 -64 37l-127 225q-7 14 -7 25q0 8 4 14z" />
<glyph unicode="&#xed;" horiz-adv-x="532" d="M131 53l119 955q6 53 57 53h178q44 0 44 -42q0 -5 -1 -11l-116 -955q-6 -53 -58 -53h-178q-46 0 -46 42q0 5 1 11zM309 1245l127 209q35 53 80 53h191q29 0 33 -14q1 -3 1 -7q0 -13 -14 -32l-182 -225q-31 -37 -72 -37h-143q-33 0 -33 20q0 13 12 33z" />
<glyph unicode="&#xee;" horiz-adv-x="532" d="M115 1207q-2 4 -2 8q0 13 14 30l180 209q43 53 90 53h103q43 0 78 -53l129 -209q10 -13 9 -24q0 -7 -4 -14q-11 -15 -40 -15h-133q-41 0 -66 53l-43 96l-63 -96q-37 -53 -82 -53h-135q-29 0 -35 15zM131 53l119 955q6 53 57 53h178q44 0 44 -42q0 -5 -1 -11l-116 -955 q-6 -53 -58 -53h-178q-46 0 -46 42q0 5 1 11z" />
<glyph unicode="&#xef;" horiz-adv-x="532" d="M131 53l119 955q6 53 57 53h178q44 0 44 -42q0 -5 -1 -11l-116 -955q-6 -53 -58 -53h-178q-46 0 -46 42q0 5 1 11zM172 1253l25 197q6 53 59 53h104q44 0 44 -42q0 -5 -1 -11l-24 -197q-6 -53 -57 -53h-105q-46 0 -46 43q0 4 1 10zM471 1253l23 197q6 53 59 53h102 q46 0 46 -42q0 -5 -1 -11l-24 -197q-6 -53 -58 -53h-102q-46 0 -46 43q0 4 1 10z" />
<glyph unicode="&#xf0;" horiz-adv-x="1208" d="M137 260q0 23 2 37l56 469q33 311 340 311q190 0 325 -114l25 172v8q0 8 -4 16l-82 -37q-17 -7 -31 -7q-25 0 -37 26l-16 33q-6 13 -6 23q0 28 36 44l101 49q-37 25 -119 25h-207q-51 0 -47 53l10 88q6 51 60 51h209q227 0 329 -90l101 51q16 8 29 8q25 0 38 -28l19 -31 q6 -11 5 -22q0 -27 -38 -47l-86 -48q6 -16 6 -59q0 -31 -2 -47l-111 -897q-39 -313 -473 -313q-209 0 -320.5 73.5t-111.5 202.5zM418 303q0 -100 168 -100q180 0 196 116l54 420q-125 98 -236 99q-119 0 -131 -113l-49 -406q0 -2 -1 -8t-1 -8z" />
<glyph unicode="&#xf1;" horiz-adv-x="1161" d="M131 55l119 955q6 51 57 51h164q27 0 38 -12.5t9 -38.5l-2 -52q160 119 346 119q127 0 204 -68.5t77 -179.5q0 -35 -2 -51l-86 -723q-6 -55 -62 -55h-174q-47 0 -46 39q0 7 1 16l80 652q4 35 4 47q0 82 -104 82q-125 0 -258 -97l-84 -684q-6 -55 -58 -55h-178 q-46 0 -46 44q0 5 1 11zM371 1243l18 90q20 80 74.5 122t128.5 42q72 0 129 -29l84 -45q55 -29 69 -28q37 0 48 49l4 12q18 47 63 47h92q41 0 42 -40q0 -10 -3 -21l-18 -80q-41 -168 -191 -168q-72 0 -141 31l-90 45q-55 23 -74 22q-31 0 -41 -43l-8 -20q-14 -47 -61 -47 h-88q-40 0 -40 37q0 11 3 24z" />
<glyph unicode="&#xf2;" horiz-adv-x="1128" d="M137 262q0 18 2 37l56 465q37 313 491 313q209 0 320.5 -73.5t111.5 -200.5q0 -20 -2 -39l-57 -465q-39 -315 -490 -315q-209 0 -320.5 73.5t-111.5 204.5zM420 303q0 -98 168 -98q178 0 194 117l52 401q2 20 2 35q0 98 -168 98q-180 0 -195 -115l-51 -403q-2 -17 -2 -35 zM444 1493q10 14 37 14h181q45 0 67 -53l78 -209q6 -15 6 -25q0 -28 -43 -28h-131q-47 0 -64 37l-129 225q-7 13 -6 24q-1 8 4 15z" />
<glyph unicode="&#xf3;" horiz-adv-x="1128" d="M137 262q0 18 2 37l56 465q37 313 491 313q209 0 320.5 -73.5t111.5 -200.5q0 -20 -2 -39l-57 -465q-39 -315 -490 -315q-209 0 -320.5 73.5t-111.5 204.5zM420 303q0 -98 168 -98q178 0 194 117l52 401q2 20 2 35q0 98 -168 98q-180 0 -195 -115l-51 -403q-2 -17 -2 -35 zM586 1245l127 209q35 53 80 53h190q29 0 34 -14q1 -3 1 -7q0 -13 -14 -32l-183 -225q-31 -37 -71 -37h-144q-33 0 -33 20q1 13 13 33z" />
<glyph unicode="&#xf4;" horiz-adv-x="1128" d="M137 262q0 18 2 37l56 465q37 313 491 313q209 0 320.5 -73.5t111.5 -200.5q0 -20 -2 -39l-57 -465q-39 -315 -490 -315q-209 0 -320.5 73.5t-111.5 204.5zM410 1207q-2 4 -2 8q0 13 14 30l178 209q43 53 92 53h103q43 0 75 -53l131 -209q8 -13 9 -24q0 -8 -4 -14 q-10 -15 -41 -15h-131q-41 0 -68 53l-41 96l-66 -96q-35 -53 -79 -53h-138q-26 0 -32 15zM420 303q0 -98 168 -98q178 0 194 117l52 401q2 20 2 35q0 98 -168 98q-180 0 -195 -115l-51 -403q-2 -17 -2 -35z" />
<glyph unicode="&#xf5;" horiz-adv-x="1128" d="M137 262q0 18 2 37l56 465q37 313 491 313q209 0 320.5 -73.5t111.5 -200.5q0 -20 -2 -39l-57 -465q-39 -315 -490 -315q-209 0 -320.5 73.5t-111.5 204.5zM319 1243l19 90q20 80 74.5 122t128 42t129.5 -29l84 -45q55 -29 69 -28q37 0 47 49l4 12q18 47 64 47h92 q41 0 41 -40q0 -10 -2 -21l-18 -80q-41 -168 -191 -168q-72 0 -139 31l-92 45q-55 23 -74 22q-31 0 -41 -43l-6 -20q-16 -47 -64 -47h-88q-40 0 -40 37q0 11 3 24zM420 303q0 -98 168 -98q178 0 194 117l52 401q2 20 2 35q0 98 -168 98q-180 0 -195 -115l-51 -403 q-2 -17 -2 -35z" />
<glyph unicode="&#xf6;" horiz-adv-x="1128" d="M137 262q0 18 2 37l56 465q37 313 491 313q209 0 320.5 -73.5t111.5 -200.5q0 -20 -2 -39l-57 -465q-39 -315 -490 -315q-209 0 -320.5 73.5t-111.5 204.5zM420 303q0 -98 168 -98q178 0 194 117l52 401q2 20 2 35q0 98 -168 98q-180 0 -195 -115l-51 -403q-2 -17 -2 -35 zM461 1253l22 197q6 53 60 53h104q44 0 44 -42q0 -5 -1 -11l-22 -197q-8 -53 -60 -53h-104q-44 0 -44 42q0 5 1 11zM758 1253l24 197q6 53 60 53h102q46 0 46 -42q0 -5 -1 -11l-26 -197q-6 -53 -58 -53h-102q-46 0 -46 43q0 4 1 10z" />
<glyph unicode="&#xf7;" horiz-adv-x="1236" d="M195 571v127q0 51 51 52h876q53 0 54 -52v-127q0 -51 -54 -51h-874q-53 0 -53 51zM543 168v174q0 53 51 53h184q49 0 49 -53v-174q0 -51 -49 -51h-184q-51 0 -51 51zM543 928v174q0 53 51 53h184q49 0 49 -53v-174q0 -53 -49 -54h-184q-51 1 -51 54z" />
<glyph unicode="&#xf8;" horiz-adv-x="1128" d="M137 262q0 23 2 37l56 465q37 313 491 313q115 0 213 -26l23 32q37 55 71 56h64q25 0 25 -17q0 -14 -17 -39l-55 -82q109 -78 108 -198q0 -25 -2 -39l-57 -465q-39 -315 -490 -315q-123 0 -217 26l-20 -28q-33 -53 -76 -54h-57q-16 0 -20.5 9.5t-1.5 20.5t13 24l54 77 q-107 76 -107 203zM420 328l342 516q-37 12 -94 12q-180 0 -195 -115zM487 215q33 -10 101 -10q178 0 194 117l52 413z" />
<glyph unicode="&#xf9;" d="M143 229q0 23 2 39l91 740q8 53 61 53h172q51 0 47 -53l-82 -670q-2 -16 -2 -33q0 -41 23.5 -60.5t79.5 -19.5q113 0 247 94l82 689q6 53 58 53h180q46 0 46 -43q0 -5 -1 -10l-121 -955q-6 -53 -57 -53h-164q-27 0 -38 11.5t-9 41.5l2 47q-145 -117 -334 -116 q-129 0 -206 67t-77 178zM446 1493q10 14 37 14h181q45 0 67 -53l78 -209q6 -15 6 -26q0 -27 -41 -27h-133q-45 0 -63 37l-129 225q-7 13 -7 24q-1 8 4 15z" />
<glyph unicode="&#xfa;" d="M143 229q0 23 2 39l91 740q8 53 61 53h172q51 0 47 -53l-82 -670q-2 -16 -2 -33q0 -41 23.5 -60.5t79.5 -19.5q113 0 247 94l82 689q6 53 58 53h180q46 0 46 -43q0 -5 -1 -10l-121 -955q-6 -53 -57 -53h-164q-27 0 -38 11.5t-9 41.5l2 47q-145 -117 -334 -116 q-129 0 -206 67t-77 178zM604 1245l129 209q33 53 78 53h193q27 0 32 -14q1 -3 2 -7q0 -13 -16 -32l-180 -225q-33 -37 -74 -37h-141q-34 0 -34 21q0 13 11 32z" />
<glyph unicode="&#xfb;" d="M143 229q0 23 2 39l91 740q8 53 61 53h172q51 0 47 -53l-82 -670q-2 -16 -2 -33q0 -41 23.5 -60.5t79.5 -19.5q113 0 247 94l82 689q6 53 58 53h180q46 0 46 -43q0 -5 -1 -10l-121 -955q-6 -53 -57 -53h-164q-27 0 -38 11.5t-9 41.5l2 47q-145 -117 -334 -116 q-129 0 -206 67t-77 178zM410 1207q-2 4 -2 8q0 13 14 30l178 209q43 53 92 53h103q43 0 75 -53l131 -209q8 -13 9 -24q0 -8 -4 -14q-10 -15 -41 -15h-131q-41 0 -68 53l-41 96l-66 -96q-35 -53 -79 -53h-138q-26 0 -32 15z" />
<glyph unicode="&#xfc;" d="M143 229q0 23 2 39l91 740q8 53 61 53h172q51 0 47 -53l-82 -670q-2 -16 -2 -33q0 -41 23.5 -60.5t79.5 -19.5q113 0 247 94l82 689q6 53 58 53h180q46 0 46 -43q0 -5 -1 -10l-121 -955q-6 -53 -57 -53h-164q-27 0 -38 11.5t-9 41.5l2 47q-145 -117 -334 -116 q-129 0 -206 67t-77 178zM465 1253l22 197q6 53 60 53h104q44 0 44 -42q0 -5 -1 -11l-22 -197q-8 -53 -58 -53h-104q-46 0 -46 43q0 4 1 10zM762 1253l24 197q6 53 60 53h102q46 0 46 -42q0 -5 -1 -11l-26 -197q-6 -53 -58 -53h-102q-46 0 -46 43q0 4 1 10z" />
<glyph unicode="&#xfd;" horiz-adv-x="1007" d="M145 1008q-2 6 -1 11q0 15 12 27q16 15 47 15h174q18 0 29.5 -7t15.5 -17.5t8 -28.5l98 -488q16 -82 17 -182q35 104 65 174l228 496q23 53 65 53h162q31 0 44 -14q7 -7 7 -18q0 -9 -6 -21l-639 -1383q-27 -53 -65 -53h-134q-50 0 -50 31q0 10 5 22l148 346zM545 1245 l129 209q33 53 78 53h192q27 0 32 -14q1 -3 1 -7q0 -13 -14 -32l-181 -225q-33 -37 -73 -37h-142q-34 0 -33 21q0 13 11 32z" />
<glyph unicode="&#xfe;" d="M78 -375l225 1811q6 53 57 53h177q46 0 45 -43v-10l-58 -473q162 115 338 114q135 0 210 -67.5t75 -190.5q0 -16 -6 -55l-60 -469q-37 -311 -338 -311q-186 0 -325 112l-60 -471q-4 -31 -16 -42t-39 -11h-178q-48 0 -48 43q0 4 1 10zM444 322q111 -98 234 -99 q68 0 95.5 31t35.5 82l47 387q4 29 4 31q0 84 -106 84q-117 0 -258 -99z" />
<glyph unicode="&#xff;" horiz-adv-x="1007" d="M145 1008q-2 6 -1 11q0 15 12 27q16 15 47 15h174q18 0 29.5 -7t15.5 -17.5t8 -28.5l98 -488q16 -82 17 -182q35 104 65 174l228 496q23 53 65 53h162q31 0 44 -14q7 -7 7 -18q0 -9 -6 -21l-639 -1383q-27 -53 -65 -53h-134q-50 0 -50 31q0 10 5 22l148 346zM387 1253 l25 197q6 53 59 53h104q44 0 44 -42q0 -5 -1 -11l-24 -197q-6 -53 -57 -53h-105q-46 0 -46 43q0 4 1 10zM686 1253l23 197q6 53 59 53h102q46 0 46 -42q0 -5 -1 -11l-24 -197q-6 -53 -57 -53h-103q-46 0 -46 43q0 4 1 10z" />
<glyph unicode="&#x100;" horiz-adv-x="1177" d="M37 53l561 1342q23 53 74 53h186q49 0 57 -53l236 -1342q2 -8 2 -15q0 -38 -47 -38h-188q-47 0 -58 53l-43 260h-395l-107 -260q-18 -53 -67 -53h-178q-40 0 -41 26q1 11 8 27zM461 1651l10 108q6 49 61 49h490q53 0 47 -49l-10 -108q-6 -53 -62 -54h-489q-48 0 -48 43 q0 5 1 11zM514 541h270l-41 237q-17 100 -16 335v54q-80 -311 -111 -387z" />
<glyph unicode="&#x101;" d="M135 242q0 14 4 53l60 471q37 311 338 311q190 0 327 -116l10 47q8 29 19.5 41t40.5 12h170q46 0 46 -43q0 -5 -1 -10l-119 -953q-6 -55 -59 -55h-164q-45 0 -45 55l2 47q-172 -119 -346 -118q-137 0 -210 67.5t-73 190.5zM416 1270l12 108q6 51 59 52h492q53 0 47 -52 l-12 -108q-6 -51 -60 -51h-491q-53 0 -47 51zM420 307q0 -82 106 -82q104 0 258 97l52 415q-119 98 -234 98.5t-131 -110.5l-49 -389q-2 -11 -2 -29z" />
<glyph unicode="&#x102;" horiz-adv-x="1177" d="M37 53l561 1342q23 53 74 53h186q49 0 57 -53l236 -1342q2 -8 2 -15q0 -38 -47 -38h-188q-47 0 -58 53l-43 260h-395l-107 -260q-18 -53 -67 -53h-178q-40 0 -41 26q1 11 8 27zM481 1778q0 12 4 45l4 32q6 45 52 46h106q27 0 35 -10.5t6 -35.5l-4 -40v-15q0 -76 86 -76 q96 0 107 97l6 34q2 25 13 35.5t38 10.5h106q45 0 39 -46l-4 -28q-18 -133 -92 -199.5t-223 -66.5q-127 0 -203 56.5t-76 160.5zM514 541h270l-41 237q-17 100 -16 335v54q-80 -311 -111 -387z" />
<glyph unicode="&#x103;" d="M135 242q0 14 4 53l60 471q37 311 338 311q190 0 327 -116l10 47q8 29 19.5 41t40.5 12h170q46 0 46 -43q0 -5 -1 -10l-119 -953q-6 -55 -59 -55h-164q-45 0 -45 55l2 47q-172 -119 -346 -118q-137 0 -210 67.5t-73 190.5zM420 307q0 -82 106 -82q104 0 258 97l52 415 q-119 98 -234 98.5t-131 -110.5l-49 -389q-2 -11 -2 -29zM432 1382q0 27 2 45l4 31q6 45 54 45h106q47 0 41 -45l-4 -39v-16q0 -74 88 -74q98 0 106 96l2 33q2 45 54 45h106q45 0 39 -45l-4 -26q-18 -135 -92 -201t-223 -66q-127 0 -203 56.5t-76 160.5z" />
<glyph unicode="&#x104;" horiz-adv-x="1179" d="M39 53l559 1342q23 53 74 53h186q49 0 57 -53l236 -1342q2 -8 2 -15q0 -38 -47 -38h-70q-100 0 -100 -125q0 -63 78 -63h51q61 0 55 -50l-10 -73q-6 -53 -68 -54h-114q-76 0 -139.5 40t-63.5 137q0 150 129 274l-37 227h-395l-107 -260q-18 -53 -67 -53h-178 q-38 0 -39 26q0 11 8 27zM514 541h270l-41 237q-16 102 -16 385q0 -2 -9 -36l-21 -78q-11 -45 -26 -97l-30 -98q-14 -47 -25 -74z" />
<glyph unicode="&#x105;" d="M135 242q0 14 4 53l60 471q37 311 338 311q184 0 327 -116l10 47q8 29 19.5 41t40.5 12h170q46 0 46 -43q0 -5 -1 -10l-119 -953q-6 -55 -59 -55h-15q-45 -2 -73.5 -37t-28.5 -84q0 -68 84 -67h16q29 0 42.5 -11.5t11.5 -38.5l-9 -73q-6 -53 -71 -54h-74q-80 0 -143.5 41 t-63.5 140q0 133 115 235l2 51q-172 -119 -346 -118q-137 0 -210 67.5t-73 190.5zM420 307q0 -82 106 -82q104 0 258 97l52 415q-119 98 -234 98.5t-131 -110.5l-49 -389q-2 -11 -2 -29z" />
<glyph unicode="&#x106;" horiz-adv-x="1210" d="M162 289q0 14 4 55l94 774q41 348 535 348q242 0 355.5 -86t113.5 -219q0 -12 -4 -55l-13 -90q-6 -53 -55 -53h-178q-46 0 -46 42q0 5 1 11l6 41q2 16 2 41q0 129 -199 129q-215 0 -235 -160l-82 -672q-4 -33 -4 -39q0 -135 198 -135q221 0 238 160l8 82q6 53 60 53h176 q44 0 43 -42v-11l-15 -133q-37 -346 -534 -346q-244 0 -356.5 86t-112.5 219zM709 1608l131 209q33 53 78 53h190q27 0 33 -15q2 -4 1 -7q0 -13 -14 -31l-180 -226q-29 -37 -76 -37h-141q-35 0 -35 21q1 13 13 33z" />
<glyph unicode="&#x107;" horiz-adv-x="1046" d="M137 256q0 27 2 43l56 465q37 313 469 313q207 0 307 -73.5t100 -198.5q0 -27 -2 -45l-4 -31q-6 -51 -59 -51h-162q-51 0 -45 49l2 16q2 12 2 25q0 88 -152 88q-90 0 -130 -26.5t-48 -86.5l-49 -393q-6 -43 -6 -51q0 -94 153 -94q88 0 128 27.5t49 86.5l4 33q6 53 57 54 h164q46 0 46 -40q0 -6 -1 -14l-6 -53q-18 -154 -126 -234.5t-343 -80.5q-205 0 -305.5 71.5t-100.5 200.5zM575 1245l127 209q35 53 80 53h191q29 0 34 -14q1 -3 1 -7q0 -13 -15 -32l-182 -225q-31 -37 -72 -37h-143q-33 0 -33 20q0 13 12 33z" />
<glyph unicode="&#x108;" horiz-adv-x="1210" d="M162 289q0 14 4 55l94 774q41 348 535 348q242 0 355.5 -86t113.5 -219q0 -12 -4 -55l-13 -90q-6 -53 -55 -53h-178q-46 0 -46 42q0 5 1 11l6 41q2 16 2 41q0 129 -199 129q-215 0 -235 -160l-82 -672q-4 -33 -4 -39q0 -135 198 -135q221 0 238 160l8 82q6 53 60 53h176 q44 0 43 -42v-11l-15 -133q-37 -346 -534 -346q-244 0 -356.5 86t-112.5 219zM509 1571q-2 4 -2 9q0 13 15 28l180 209q45 53 93 53h100q43 0 76 -53l133 -209q8 -13 8 -24q0 -8 -4 -14q-10 -15 -41 -16h-131q-47 0 -70 54l-39 96l-67 -96q-37 -53 -78 -54h-139 q-27 1 -34 17z" />
<glyph unicode="&#x109;" horiz-adv-x="1046" d="M137 256q0 27 2 43l56 465q37 313 469 313q207 0 307 -73.5t100 -198.5q0 -27 -2 -45l-4 -31q-6 -51 -59 -51h-162q-51 0 -45 49l2 16q2 12 2 25q0 88 -152 88q-90 0 -130 -26.5t-48 -86.5l-49 -393q-6 -43 -6 -51q0 -94 153 -94q88 0 128 27.5t49 86.5l4 33q6 53 57 54 h164q46 0 46 -40q0 -6 -1 -14l-6 -53q-18 -154 -126 -234.5t-343 -80.5q-205 0 -305.5 71.5t-100.5 200.5zM389 1207q-1 4 -1 8q0 13 15 30l179 209q43 53 92 53h102q41 0 76 -53l129 -209q10 -13 10 -24q0 -7 -5 -14q-11 -15 -40 -15h-133q-37 0 -65 53l-43 96l-64 -96 q-37 -53 -80 -53h-137q-29 0 -35 15z" />
<glyph unicode="&#x10a;" horiz-adv-x="1210" d="M162 289q0 14 4 55l94 774q41 348 535 348q242 0 355.5 -86t113.5 -219q0 -12 -4 -55l-13 -90q-6 -53 -55 -53h-178q-46 0 -46 42q0 5 1 11l6 41q2 16 2 41q0 129 -199 129q-215 0 -235 -160l-82 -672q-4 -33 -4 -39q0 -135 198 -135q221 0 238 160l8 82q6 53 60 53h176 q44 0 43 -42v-11l-15 -133q-37 -346 -534 -346q-244 0 -356.5 86t-112.5 219zM664 1612l22 176q6 53 57 53h183q44 0 43 -42v-11l-21 -176q-6 -51 -55 -51h-184q-27 0 -38 11q-8 8 -9 26q1 6 2 14z" />
<glyph unicode="&#x10b;" horiz-adv-x="1046" d="M137 256q0 27 2 43l56 465q37 313 469 313q207 0 307 -73.5t100 -198.5q0 -27 -2 -45l-4 -31q-6 -51 -59 -51h-162q-51 0 -45 49l2 16q2 12 2 25q0 88 -152 88q-90 0 -130 -26.5t-48 -86.5l-49 -393q-6 -43 -6 -51q0 -94 153 -94q88 0 128 27.5t49 86.5l4 33q6 53 57 54 h164q46 0 46 -40q0 -6 -1 -14l-6 -53q-18 -154 -126 -234.5t-343 -80.5q-205 0 -305.5 71.5t-100.5 200.5z" />
<glyph unicode="&#x10c;" horiz-adv-x="1210" d="M162 289q0 14 4 55l94 774q41 348 535 348q242 0 355.5 -86t113.5 -219q0 -12 -4 -55l-13 -90q-6 -53 -55 -53h-178q-46 0 -46 42q0 5 1 11l6 41q2 16 2 41q0 129 -199 129q-215 0 -235 -160l-82 -672q-4 -33 -4 -39q0 -135 198 -135q221 0 238 160l8 82q6 53 60 53h176 q44 0 43 -42v-11l-15 -133q-37 -346 -534 -346q-244 0 -356.5 86t-112.5 219zM547 1855q10 14 39 15h131q43 0 67 -51l43 -99l64 99q33 51 80 51h137q27 0 34 -15q2 -4 2 -7q0 -12 -16 -29l-178 -211q-43 -53 -92 -54h-102q-43 0 -76 56l-131 209q-7 12 -7 22q0 7 5 14z" />
<glyph unicode="&#x10d;" horiz-adv-x="1046" d="M137 256q0 27 2 43l56 465q37 313 469 313q207 0 307 -73.5t100 -198.5q0 -27 -2 -45l-4 -31q-6 -51 -59 -51h-162q-51 0 -45 49l2 16q2 12 2 25q0 88 -152 88q-90 0 -130 -26.5t-48 -86.5l-49 -393q-6 -43 -6 -51q0 -94 153 -94q88 0 128 27.5t49 86.5l4 33q6 53 57 54 h164q46 0 46 -40q0 -6 -1 -14l-6 -53q-18 -154 -126 -234.5t-343 -80.5q-205 0 -305.5 71.5t-100.5 200.5zM416 1493q10 14 39 14h133q45 0 65 -51l41 -96l66 96q35 51 80 51h137q29 0 35 -14q2 -4 1 -8q0 -12 -14 -29l-182 -211q-43 -53 -90 -53h-100q-43 0 -78 55 l-131 209q-7 12 -7 22q0 8 5 15z" />
<glyph unicode="&#x10e;" horiz-adv-x="1308" d="M154 55l165 1338q6 55 58 55h452q248 0 370 -89t122 -224q0 -31 -4 -62l-90 -725q-41 -348 -545 -348h-487q-42 0 -42 43q0 6 1 12zM465 238h231q227 0 248 159l78 629q4 31 4 49q0 135 -213 135h-227zM535 1855q10 14 38 15h132q43 0 65 -51l43 -99l64 99q35 51 81 51 h138q27 0 32 -15q2 -4 2 -7q0 -12 -14 -29l-178 -211q-43 -53 -92 -54h-103q-43 0 -75 56l-131 209q-7 12 -7 22q0 7 5 14z" />
<glyph unicode="&#x10f;" horiz-adv-x="1384" d="M135 238q0 18 4 57l60 471q37 311 338 311q190 0 325 -114l56 471q6 55 59 55h178q46 0 46 -44q0 -5 -1 -11l-170 -1379q-6 -55 -59 -55h-164q-27 0 -36 12.5t-9 42.5v47q-49 -35 -82 -54t-106.5 -41.5t-155.5 -22.5q-137 0 -210 67.5t-73 186.5zM420 307q0 -82 106 -82 q104 0 258 97l52 415q-119 98 -234 98.5t-131 -110.5l-47 -375q-4 -35 -4 -43zM1247 1227q43 76 58.5 115.5t25.5 115.5l8 68q6 53 58 53h133q44 0 44 -40q0 -6 -1 -13l-12 -82q-6 -61 -27 -114.5t-40 -84.5t-60 -84q-23 -31 -55 -31q-8 0 -17 3l-96 24q-32 7 -33 31 q0 16 14 39z" />
<glyph unicode="&#x110;" horiz-adv-x="1308" d="M68 676l14 108q6 49 61 50h107l69 559q6 55 58 55h452q248 0 370 -89t122 -224q0 -31 -4 -62l-90 -725q-41 -348 -545 -348h-487q-42 0 -42 43q0 6 1 12l69 568h-108q-48 0 -48 42q0 5 1 11zM465 238h231q227 0 248 159l78 629q4 31 4 49q0 135 -213 135h-227l-47 -376 h172q53 0 47 -50l-13 -108q-6 -53 -59 -53h-174z" />
<glyph unicode="&#x111;" d="M135 238q0 18 4 57l60 471q37 311 338 311q190 0 325 -114l23 190h-180q-55 0 -50 53l13 90q6 49 59 50h180l11 88q6 55 59 55h178q46 0 46 -44q0 -5 -1 -11l-12 -88h69q55 0 50 -50l-15 -90q-8 -53 -57 -53h-70l-135 -1098q-6 -55 -59 -55h-164q-27 0 -36 12.5t-9 42.5 v47q-49 -35 -82 -54t-106.5 -41.5t-155.5 -22.5q-137 0 -210 67.5t-73 186.5zM420 307q0 -82 106 -82q104 0 258 97l52 415q-119 98 -234 98.5t-131 -110.5l-47 -375q-4 -35 -4 -43z" />
<glyph unicode="&#x112;" horiz-adv-x="1089" d="M154 55l165 1338q6 55 58 55h729q55 0 49 -51l-18 -133q-6 -53 -60 -54h-491l-43 -346h458q46 0 46 -41v-10l-17 -127q-6 -51 -59 -51h-455l-51 -397h514q50 0 50 -38q0 -5 -1 -12l-18 -135q-8 -53 -58 -53h-751q-48 0 -48 44q0 5 1 11zM455 1651l10 108q6 49 61 49h490 q53 0 47 -49l-10 -108q-6 -53 -62 -54h-491q-46 0 -46 40q0 7 1 14z" />
<glyph unicode="&#x113;" horiz-adv-x="1064" d="M137 256q0 27 2 43l56 465q37 313 467 313q199 0 300 -70.5t101 -199.5q0 -29 -2 -43l-31 -246q-6 -49 -55 -49h-545l-14 -133q-4 -41 -4 -49q0 -94 153 -94q168 0 178 108l2 21q6 53 60 53h149q49 0 45 -53l-2 -23q-16 -150 -118.5 -232.5t-333.5 -82.5 q-205 0 -306.5 71.5t-101.5 200.5zM391 1270l15 108q6 51 59 52h491q53 0 48 -52l-13 -108q-8 -51 -61 -51h-492q-53 0 -47 51zM457 655h331l11 82q2 10 2 33q0 98 -156 98q-166 0 -178 -116z" />
<glyph unicode="&#x114;" horiz-adv-x="1089" d="M154 55l165 1338q6 55 58 55h729q55 0 49 -51l-18 -133q-6 -53 -60 -54h-491l-43 -346h458q46 0 46 -41v-10l-17 -127q-6 -51 -59 -51h-455l-51 -397h514q50 0 50 -38q0 -5 -1 -12l-18 -135q-8 -53 -58 -53h-751q-48 0 -48 44q0 5 1 11zM459 1778q0 12 4 45l4 32 q6 45 51 46h107q25 0 34 -10.5t5 -35.5l-5 -40v-15q0 -76 89 -76q96 0 106 97l4 34q2 25 14.5 35.5t36.5 10.5h107q47 0 41 -46l-4 -28q-20 -133 -93 -199.5t-223 -66.5q-129 0 -203.5 56.5t-74.5 160.5z" />
<glyph unicode="&#x115;" horiz-adv-x="1064" d="M137 256q0 27 2 43l56 465q37 313 467 313q199 0 300 -70.5t101 -199.5q0 -29 -2 -43l-31 -246q-6 -49 -55 -49h-545l-14 -133q-4 -41 -4 -49q0 -94 153 -94q168 0 178 108l2 21q6 53 60 53h149q49 0 45 -53l-2 -23q-16 -150 -118.5 -232.5t-333.5 -82.5 q-205 0 -306.5 71.5t-101.5 200.5zM408 1382q0 27 2 45l4 31q6 45 53 45h106q47 0 41 -45l-6 -39v-16q0 -74 88 -74q100 0 107 96l2 33q2 45 53 45h107q47 0 41 -45l-5 -26q-20 -135 -92.5 -201t-222.5 -66q-129 0 -203.5 56.5t-74.5 160.5zM457 655h331l11 82q2 10 2 33 q0 98 -156 98q-166 0 -178 -116z" />
<glyph unicode="&#x116;" horiz-adv-x="1089" d="M154 55l165 1338q6 55 58 55h729q55 0 49 -51l-18 -133q-6 -53 -60 -54h-491l-43 -346h458q46 0 46 -41v-10l-17 -127q-6 -51 -59 -51h-455l-51 -397h514q50 0 50 -38q0 -5 -1 -12l-18 -135q-8 -53 -58 -53h-751q-48 0 -48 44q0 5 1 11zM602 1612l23 176q6 53 57 53h182 q44 0 44 -42q0 -5 -1 -11l-20 -176q-6 -51 -56 -51h-184q-27 0 -38 11q-8 8 -8 26q0 6 1 14z" />
<glyph unicode="&#x117;" horiz-adv-x="1064" d="M137 256q0 27 2 43l56 465q37 313 467 313q199 0 300 -70.5t101 -199.5q0 -29 -2 -43l-31 -246q-6 -49 -55 -49h-545l-14 -133q-4 -41 -4 -49q0 -94 153 -94q168 0 178 108l2 21q6 53 60 53h149q49 0 45 -53l-2 -23q-16 -150 -118.5 -232.5t-333.5 -82.5 q-205 0 -306.5 71.5t-101.5 200.5zM457 655h331l11 82q2 10 2 33q0 98 -156 98q-166 0 -178 -116z" />
<glyph unicode="&#x118;" horiz-adv-x="1089" d="M154 55l165 1338q6 55 58 55h729q55 0 49 -51l-18 -133q-6 -53 -60 -54h-491l-43 -346h458q46 0 46 -41v-10l-17 -127q-6 -51 -59 -51h-455l-51 -397h514q50 0 50 -38q0 -5 -1 -12l-18 -135q-8 -53 -58 -53h-67q-94 0 -94 -125q0 -63 75 -63h58q31 0 45 -11.5t10 -38.5 l-10 -73q-8 -53 -68 -54h-117q-47 0 -89 12.5t-78.5 54.5t-36.5 110q0 104 57 188h-436q-48 0 -48 44q0 5 1 11z" />
<glyph unicode="&#x119;" horiz-adv-x="1060" d="M137 256q0 27 2 43l56 465q37 313 467 313q199 0 300 -70.5t101 -199.5q0 -29 -2 -43l-31 -246q-6 -49 -55 -49h-545l-14 -133q0 -8 -1 -16.5t-2 -14.5t-2 -11t-1 -7q0 -94 155 -94q168 0 178 108l2 21q6 53 60 53h149q49 0 45 -53l-2 -23q-16 -137 -108 -225 q-39 -37 -57.5 -56.5t-36 -57.5t-17.5 -83q0 -66 78 -65h43q29 0 42 -11.5t11 -38.5l-8 -73q-6 -53 -72 -54h-102q-78 0 -140.5 41t-62.5 136q0 88 47 174q-23 -2 -69 -2q-205 0 -306.5 71.5t-101.5 200.5zM457 655h331l11 82q2 10 2 33q0 98 -156 98q-166 0 -178 -116z" />
<glyph unicode="&#x11a;" horiz-adv-x="1089" d="M154 55l165 1338q6 55 58 55h729q55 0 49 -51l-18 -133q-6 -53 -60 -54h-491l-43 -346h458q46 0 46 -41v-10l-17 -127q-6 -51 -59 -51h-455l-51 -397h514q50 0 50 -38q0 -5 -1 -12l-18 -135q-8 -53 -58 -53h-751q-48 0 -48 44q0 5 1 11zM481 1855q10 14 39 15h131 q43 0 66 -51l43 -99l63 99q35 51 82 51h137q27 0 33 -15q2 -4 2 -7q0 -12 -14 -29l-178 -211q-43 -53 -92 -54h-103q-43 0 -76 56l-131 209q-7 12 -6 22q-1 7 4 14z" />
<glyph unicode="&#x11b;" horiz-adv-x="1064" d="M137 256q0 27 2 43l56 465q37 313 466 313q199 0 300.5 -70.5t101.5 -199.5q0 -29 -2 -43l-31 -246q-6 -49 -55 -49h-545l-14 -133q-4 -41 -4 -49q0 -94 153 -94q168 0 178 108l2 21q6 53 60 53h149q49 0 45 -53l-2 -23q-16 -150 -118.5 -232.5t-333.5 -82.5 q-205 0 -306.5 71.5t-101.5 200.5zM400 1493q11 14 38 14h135q45 0 66 -51l41 -96l65 96q35 51 78 51h140q29 0 34 -14q1 -3 2 -7q0 -12 -16 -30l-180 -211q-45 -53 -92 -53h-101q-41 0 -75 55l-132 209q-8 13 -8 23q0 8 5 14zM457 655h331l11 82q2 10 2 33q0 98 -156 98 q-166 0 -178 -116z" />
<glyph unicode="&#x11c;" horiz-adv-x="1236" d="M162 289q0 18 4 55l94 774q41 348 535 348q242 0 355.5 -87t113.5 -222q0 -14 -4 -55l-7 -70q-8 -53 -61 -53h-176q-46 0 -46 42q0 5 1 11l4 35q2 14 2 37q0 123 -195 123q-219 0 -239 -160l-82 -674q-4 -29 -4 -41q0 -131 196 -131q217 0 238 158l16 143h-209 q-53 0 -47 51l19 136q6 51 59 51h434q55 0 49 -51l-47 -379q-41 -346 -534 -346q-244 0 -356.5 86t-112.5 219zM509 1571q-2 4 -2 9q0 13 15 28l180 209q45 53 93 53h100q43 0 76 -53l133 -209q8 -13 8 -24q0 -8 -4 -14q-10 -15 -41 -16h-131q-47 0 -70 54l-39 96l-67 -96 q-37 -53 -78 -54h-139q-27 1 -34 17z" />
<glyph unicode="&#x11d;" d="M135 242q0 18 4 53l60 471q37 311 336 311q197 0 335 -123l13 54q6 29 16 41t39 12h164q48 0 48 -43q0 -5 -1 -10l-139 -1123q-39 -313 -494 -313h-301q-55 0 -49 51l14 123q8 55 64 55h299q178 0 190 115l21 180q-166 -113 -336 -112q-137 0 -210 68.5t-73 189.5z M410 1207q-2 4 -2 8q0 13 14 30l178 209q43 53 92 53h103q43 0 75 -53l131 -209q8 -13 9 -24q0 -8 -4 -14q-10 -15 -41 -15h-131q-41 0 -68 53l-41 96l-66 -96q-35 -53 -79 -53h-138q-26 0 -32 15zM420 309q0 -84 106 -84q104 0 258 97l52 415q-125 98 -234 99 q-119 0 -131 -111l-47 -369q-4 -39 -4 -47z" />
<glyph unicode="&#x11e;" horiz-adv-x="1236" d="M162 289q0 18 4 55l94 774q41 348 535 348q242 0 355.5 -87t113.5 -222q0 -14 -4 -55l-7 -70q-8 -53 -61 -53h-176q-46 0 -46 42q0 5 1 11l4 35q2 14 2 37q0 123 -195 123q-219 0 -239 -160l-82 -674q-4 -29 -4 -41q0 -131 196 -131q217 0 238 158l16 143h-209 q-53 0 -47 51l19 136q6 51 59 51h434q55 0 49 -51l-47 -379q-41 -346 -534 -346q-244 0 -356.5 86t-112.5 219zM520 1778q0 12 4 45l4 32q6 45 52 46h106q25 0 34 -10.5t7 -35.5l-4 -40v-15q0 -76 86 -76q96 0 106 97l5 34q2 25 14 35.5t37 10.5h106q47 0 41 -46l-4 -28 q-18 -133 -92 -199.5t-223 -66.5q-127 0 -203 56.5t-76 160.5z" />
<glyph unicode="&#x11f;" d="M135 242q0 18 4 53l60 471q37 311 336 311q197 0 335 -123l13 54q6 29 16 41t39 12h164q48 0 48 -43q0 -5 -1 -10l-139 -1123q-39 -313 -494 -313h-301q-55 0 -49 51l14 123q8 55 64 55h299q178 0 190 115l21 180q-166 -113 -336 -112q-137 0 -210 68.5t-73 189.5z M418 1382q0 27 2 45l4 31q6 45 53 45h107q47 0 41 -45l-4 -39v-16q0 -74 86 -74q100 0 106 96l2 33q2 45 53 45h107q47 0 41 -45l-4 -26q-18 -135 -92 -201t-224 -66q-127 0 -202.5 56.5t-75.5 160.5zM420 309q0 -84 106 -84q104 0 258 97l52 415q-125 98 -234 99 q-119 0 -131 -111l-47 -369q-4 -39 -4 -47z" />
<glyph unicode="&#x120;" horiz-adv-x="1236" d="M162 289q0 18 4 55l94 774q41 348 535 348q242 0 355.5 -87t113.5 -222q0 -14 -4 -55l-7 -70q-8 -53 -61 -53h-176q-46 0 -46 42q0 5 1 11l4 35q2 14 2 37q0 123 -195 123q-219 0 -239 -160l-82 -674q-4 -29 -4 -41q0 -131 196 -131q217 0 238 158l16 143h-209 q-53 0 -47 51l19 136q6 51 59 51h434q55 0 49 -51l-47 -379q-41 -346 -534 -346q-244 0 -356.5 86t-112.5 219zM649 1612l23 176q6 53 57 53h182q44 0 44 -42q0 -5 -1 -11l-20 -176q-8 -51 -57 -51h-183q-27 0 -38 11q-8 8 -8 26q0 6 1 14z" />
<glyph unicode="&#x121;" d="M135 242q0 18 4 53l60 471q37 311 336 311q197 0 335 -123l13 54q6 29 16 41t39 12h164q48 0 48 -43q0 -5 -1 -10l-139 -1123q-39 -313 -494 -313h-301q-55 0 -49 51l14 123q8 55 64 55h299q178 0 190 115l21 180q-166 -113 -336 -112q-137 0 -210 68.5t-73 189.5z M420 309q0 -84 106 -84q104 0 258 97l52 415q-125 98 -234 99q-119 0 -131 -111l-47 -369q-4 -39 -4 -47z" />
<glyph unicode="&#x122;" horiz-adv-x="1236" d="M162 289q0 18 4 55l94 774q41 348 535 348q242 0 355.5 -87t113.5 -222q0 -14 -4 -55l-7 -70q-8 -53 -61 -53h-176q-46 0 -46 42q0 5 1 11l4 35q2 14 2 37q0 123 -195 123q-219 0 -239 -160l-82 -674q-4 -29 -4 -41q0 -131 196 -131q217 0 238 158l16 143h-209 q-53 0 -47 51l19 136q6 51 59 51h434q55 0 49 -51l-47 -379q-41 -346 -534 -346q-244 0 -356.5 86t-112.5 219zM406 -459q41 78 56 117t25 117l9 65q6 53 57 54h133q44 0 44 -40q0 -6 -1 -14l-12 -82q-6 -61 -25.5 -114.5t-40 -84t-61.5 -83.5q-20 -30 -51 -30q-10 0 -21 3 l-96 23q-31 7 -32 30q1 16 16 39z" />
<glyph unicode="&#x123;" d="M135 242q0 18 4 53l60 471q37 311 336 311q197 0 335 -123l13 54q6 29 16 41t39 12h164q48 0 48 -43q0 -5 -1 -10l-139 -1123q-39 -313 -494 -313h-301q-55 0 -49 51l14 123q8 55 64 55h299q178 0 190 115l21 180q-166 -113 -336 -112q-137 0 -210 68.5t-73 189.5z M420 309q0 -84 106 -84q104 0 258 97l52 415q-125 98 -234 99q-119 0 -131 -111l-47 -369q-4 -39 -4 -47zM571 1264l11 79q6 61 26.5 114.5t41 85.5t59.5 85q22 29 55 29q9 0 18 -2l95 -23q32 -9 32 -33q0 -16 -14 -38q-43 -76 -58.5 -116t-25.5 -116l-8 -65q-6 -53 -58 -54 h-131q-44 0 -44 40q0 7 1 14z" />
<glyph unicode="&#x124;" horiz-adv-x="1331" d="M154 55l165 1338q6 55 58 55h186q44 0 44 -41q0 -7 -1 -14l-63 -531h458l66 531q6 55 59 55h187q42 0 42 -41q0 -7 -1 -14l-166 -1338q-6 -55 -53 -55h-185q-48 0 -47 44v11l70 570h-459l-72 -570q-6 -55 -57 -55h-184q-48 0 -48 44q0 5 1 11zM537 1571q-2 4 -2 8 q0 13 14 29l182 209q45 53 90 53h101q43 0 77 -53l131 -209q10 -13 10 -25q0 -7 -4 -13q-11 -15 -40 -16h-133q-47 0 -68 54l-41 96l-66 -96q-39 -53 -79 -54h-138q-28 1 -34 17z" />
<glyph unicode="&#x125;" horiz-adv-x="1161" d="M131 55l170 1379q6 55 59 55h177q44 0 43 -44v-11l-58 -467q156 111 340 110q127 0 204 -68.5t77 -179.5q0 -20 -2 -36l-86 -738q-6 -55 -62 -55h-174q-46 0 -46 42q0 6 1 13l80 668q2 16 2 31q0 82 -102 82q-119 0 -258 -97l-84 -684q-6 -55 -58 -55h-178q-46 0 -46 44 q0 5 1 11zM158 1571q-2 4 -2 8q0 13 14 29l182 209q43 53 90 53h101q43 0 78 -53l131 -209q8 -13 8 -24q0 -8 -4 -14q-10 -15 -41 -16h-131q-47 0 -68 54l-41 96l-65 -96q-39 -53 -80 -54h-137q-29 1 -35 17z" />
<glyph unicode="&#x126;" horiz-adv-x="1331" d="M154 55l118 957h-69q-55 0 -49 51l12 92q6 51 59 51h72l22 187q6 55 58 55h186q44 0 44 -41q0 -7 -1 -14l-22 -187h460l23 187q6 55 59 55h187q42 0 42 -41q0 -7 -1 -14l-23 -187h64q48 0 48 -39q0 -6 -1 -12l-10 -92q-8 -51 -60 -51h-63l-121 -957q-6 -55 -53 -55h-185 q-48 0 -47 44v11l70 570h-459l-72 -570q-6 -55 -57 -55h-184q-48 0 -48 44q0 5 1 11zM543 862h458l17 150h-457z" />
<glyph unicode="&#x127;" horiz-adv-x="1161" d="M131 55l135 1098h-78q-48 0 -47 43v10l11 90q6 49 59 50h78l12 88q6 55 59 55h177q44 0 43 -44v-11l-11 -88h172q55 0 50 -50l-13 -90q-10 -53 -61 -53h-174l-21 -186q156 111 340 110q127 0 204 -68.5t77 -179.5q0 -20 -2 -36l-86 -738q-6 -55 -62 -55h-174 q-46 0 -46 42q0 6 1 13l80 668q2 16 2 31q0 82 -102 82q-119 0 -258 -97l-84 -684q-6 -55 -58 -55h-178q-46 0 -46 44q0 5 1 11z" />
<glyph unicode="&#x128;" horiz-adv-x="581" d="M104 1626l19 86q20 80 75.5 123t127 43t129.5 -29l84 -45q59 -31 69 -30q35 0 47 51l4 14q18 45 64 45h92q41 0 41 -40q0 -10 -2 -21l-18 -80q-41 -168 -191 -168q-74 0 -141 29l-90 45q-51 25 -74 24q-31 0 -41 -41l-8 -22q-14 -47 -62 -47h-88q-40 0 -40 38q0 11 3 25z M154 55l165 1338q6 55 58 55h186q44 0 44 -41q0 -7 -1 -14l-164 -1338q-6 -55 -57 -55h-184q-48 0 -48 44q0 5 1 11z" />
<glyph unicode="&#x129;" horiz-adv-x="532" d="M55 1243l19 90q20 80 74.5 122t128 42t129.5 -29l83 -45q55 -29 72 -28q35 0 45 49l4 12q18 47 64 47h92q41 0 41 -40q0 -10 -2 -21l-19 -80q-41 -168 -190 -168q-72 0 -139 31l-92 45q-55 23 -74 22q-31 0 -41 -43l-6 -20q-16 -47 -64 -47h-88q-40 0 -40 37q0 11 3 24z M131 53l119 955q6 53 57 53h178q44 0 44 -42q0 -5 -1 -11l-116 -955q-6 -53 -58 -53h-178q-46 0 -46 42q0 5 1 11z" />
<glyph unicode="&#x12a;" horiz-adv-x="581" d="M154 55l165 1338q6 55 58 55h186q44 0 44 -41q0 -7 -1 -14l-164 -1338q-6 -55 -57 -55h-184q-48 0 -48 44q0 5 1 11zM188 1651l11 108q6 49 61 49h490q53 0 47 -49l-11 -108q-6 -53 -61 -54h-492q-46 0 -46 40q0 7 1 14z" />
<glyph unicode="&#x12b;" horiz-adv-x="532" d="M123 1270l14 108q6 51 60 52h491q53 0 47 -52l-12 -108q-8 -51 -61 -51h-492q-53 0 -47 51zM131 53l119 955q6 53 57 53h178q44 0 44 -42q0 -5 -1 -11l-116 -955q-6 -53 -58 -53h-178q-46 0 -46 42q0 5 1 11z" />
<glyph unicode="&#x12c;" horiz-adv-x="581" d="M154 55l165 1338q6 55 58 55h186q44 0 44 -41q0 -7 -1 -14l-164 -1338q-6 -55 -57 -55h-184q-48 0 -48 44q0 5 1 11zM195 1778q0 12 4 45l4 32q6 45 51 46h106q25 0 34 -10.5t7 -35.5l-6 -40v-15q0 -76 88 -76q96 0 107 97l4 34q2 25 14.5 35.5t36.5 10.5h107 q47 0 41 -46l-5 -28q-20 -133 -92.5 -199.5t-222.5 -66.5q-129 0 -203.5 56.5t-74.5 160.5z" />
<glyph unicode="&#x12d;" horiz-adv-x="532" d="M131 53l119 955q6 53 57 53h178q44 0 44 -42q0 -5 -1 -11l-116 -955q-6 -53 -58 -53h-178q-46 0 -46 42q0 5 1 11zM137 1382q0 27 2 45l4 31q6 45 54 45h106q40 0 40 -32q0 -6 -1 -13l-4 -39v-16q0 -74 88 -74q100 0 106 96l3 33q2 45 53 45h106q47 0 41 -45l-4 -26 q-20 -135 -93 -201t-222 -66q-129 0 -204 56.5t-75 160.5z" />
<glyph unicode="&#x12e;" horiz-adv-x="581" d="M25 -188q0 154 133 270l161 1311q6 55 58 55h186q44 0 44 -41q0 -7 -1 -14l-164 -1338q-6 -55 -57 -55h-49q-49 0 -76 -36t-27 -89q0 -63 80 -63h54q59 0 53 -50l-8 -73q-6 -53 -72 -54h-111q-76 0 -140 40.5t-64 136.5z" />
<glyph unicode="&#x12f;" horiz-adv-x="532" d="M-4 -188q0 158 141 280l113 916q6 53 57 53h176q46 0 46 -43q0 -5 -1 -10l-116 -953q-6 -55 -58 -55h-45q-51 0 -77.5 -37t-26.5 -90q0 -61 78 -61h53q31 0 43 -11.5t10 -38.5l-8 -73q-6 -53 -70 -54h-110q-76 0 -140.5 40.5t-64.5 136.5zM279 1249l22 185q6 55 59 55 h177q44 0 44 -41q0 -7 -1 -14l-23 -185q-6 -49 -57 -49h-176q-51 0 -45 49z" />
<glyph unicode="&#x130;" horiz-adv-x="581" d="M154 55l165 1338q6 55 58 55h186q44 0 44 -41q0 -7 -1 -14l-164 -1338q-6 -55 -57 -55h-184q-48 0 -48 44q0 5 1 11zM348 1612l21 176q6 53 57 53h182q44 0 44 -42q0 -5 -1 -11l-20 -176q-6 -51 -56 -51h-184q-27 0 -38 11q-7 7 -7 22q0 8 2 18z" />
<glyph unicode="&#x131;" horiz-adv-x="532" d="M131 53l119 955q6 53 57 53h178q44 0 44 -42q0 -5 -1 -11l-116 -955q-6 -53 -58 -53h-178q-46 0 -46 42q0 5 1 11z" />
<glyph unicode="&#x132;" horiz-adv-x="1679" d="M154 55l165 1338q6 55 58 55h186q44 0 44 -41q0 -7 -1 -14l-164 -1338q-6 -55 -57 -55h-184q-48 0 -48 44q0 5 1 11zM653 287q0 31 4 61l15 111q6 53 59 53h180q44 0 44 -42q0 -5 -1 -11l-8 -70q-4 -33 -4 -45q0 -123 168 -123q94 0 135 39t51 121l127 1012q6 55 58 55 h184q46 0 46 -44q0 -5 -1 -11l-129 -1063q-41 -346 -485 -346q-227 0 -335 85t-108 218z" />
<glyph unicode="&#x133;" horiz-adv-x="1060" d="M131 55l119 953q6 53 57 53h176q46 0 46 -43q0 -5 -1 -10l-116 -953q-6 -55 -58 -55h-178q-46 0 -46 44q0 5 1 11zM279 1249l22 185q6 55 59 55h177q44 0 43 -44v-11l-23 -185q-6 -49 -57 -49h-176q-51 0 -45 49zM365 -377l14 123q6 55 61 55h21q172 0 186 115l135 1092 q6 53 58 53h176q46 0 46 -43q0 -5 -1 -10l-137 -1123q-18 -156 -134 -234.5t-350 -78.5h-28q-53 0 -47 51zM811 1249l25 185q6 55 57 55h176q46 0 46 -44q0 -5 -1 -11l-24 -185q-4 -27 -15.5 -38t-40.5 -11h-176q-53 0 -47 49z" />
<glyph unicode="&#x134;" horiz-adv-x="1095" d="M70 287q0 31 4 61l14 111q6 53 59 53h181q44 0 43 -42v-11l-9 -70q-4 -33 -4 -45q0 -123 168 -123q94 0 135 39t52 121l127 1012q6 55 57 55h184q46 0 46 -44q0 -5 -1 -11l-129 -1063q-41 -346 -485 -346q-227 0 -334.5 85t-107.5 218zM690 1571q-2 4 -1 8q0 13 13 29 l183 209q43 53 90 53h100q43 0 78 -53l131 -209q8 -13 8 -24q0 -8 -4 -14q-10 -15 -41 -16h-131q-47 0 -67 54l-41 96l-66 -96q-39 -53 -80 -54h-137q-29 1 -35 17z" />
<glyph unicode="&#x135;" horiz-adv-x="528" d="M-170 -377l16 121q6 55 60 55h20q174 0 189 115l135 1094q6 53 57 53h176q46 0 46 -40q0 -6 -1 -13l-139 -1123q-18 -156 -133 -234.5t-350 -78.5h-27q-55 0 -49 51zM109 1207q-2 4 -2 8q0 13 14 30l180 209q41 53 90 53h103q43 0 77 -53l129 -209q8 -13 9 -24 q0 -8 -4 -14q-10 -15 -41 -15h-132q-39 0 -65 53l-43 96l-64 -96q-37 -53 -81 -53h-136q-28 0 -34 15z" />
<glyph unicode="&#x136;" horiz-adv-x="1243" d="M154 53l163 1342q6 53 60 53h186q42 0 42 -42q0 -5 -1 -11l-67 -574h30l447 574q43 53 92 53h205q27 0 31 -15q1 -3 2 -7q0 -13 -15 -31l-526 -658l416 -684q12 -18 3.5 -35.5t-36.5 -17.5h-234q-41 0 -71 53l-332 557h-39l-70 -557q-6 -53 -55 -53h-184q-48 0 -48 43 q0 4 1 10zM403 -459q41 78 56.5 117t25.5 117l9 65q6 53 57 54h133q44 0 44 -40q0 -6 -1 -14l-12 -82q-6 -61 -25.5 -114.5t-40 -84t-61.5 -83.5q-20 -30 -51 -30q-10 0 -21 3l-96 23q-31 7 -32 30q0 16 15 39z" />
<glyph unicode="&#x137;" horiz-adv-x="1052" d="M131 53l170 1383q6 53 59 53h177q44 0 43 -42v-11l-91 -738h41l304 310q53 53 88 53h198q29 0 34 -18q1 -3 1 -7q0 -14 -16 -28l-394 -406l306 -549q12 -18 2.5 -35.5t-35.5 -17.5h-191q-43 0 -71 53l-246 434h-45l-53 -434q-6 -53 -58 -53h-178q-46 0 -46 42q0 5 1 11z M338 -459q43 78 58.5 117t25.5 117l8 65q6 53 57 54h134q43 0 42 -37q0 -7 -1 -17l-11 -82q-6 -61 -26.5 -114.5t-40 -84t-60.5 -83.5q-22 -30 -53 -30q-10 0 -20 3l-95 23q-32 7 -32 31q0 15 14 38z" />
<glyph unicode="&#x138;" horiz-adv-x="1052" d="M131 53l119 955q6 53 57 53h178q44 0 44 -42q0 -5 -1 -11l-39 -310h41l304 310q53 53 88 53h198q29 0 34 -18q1 -3 1 -7q0 -14 -16 -28l-394 -406l306 -549q12 -18 2.5 -35.5t-35.5 -17.5h-191q-43 0 -71 53l-246 434h-45l-53 -434q-6 -53 -58 -53h-178q-46 0 -46 42 q0 5 1 11z" />
<glyph unicode="&#x139;" horiz-adv-x="1015" d="M154 55l165 1338q6 55 58 55h186q44 0 44 -41q0 -7 -1 -14l-141 -1155h475q50 0 50 -38q0 -5 -1 -12l-20 -135q-8 -53 -58 -53h-716q-42 0 -42 43q0 6 1 12zM381 1608l131 209q33 53 78 53h190q27 0 32 -15q1 -3 1 -7q0 -13 -12 -31l-180 -226q-29 -37 -76 -37h-142 q-35 0 -34 21q0 13 12 33z" />
<glyph unicode="&#x13a;" horiz-adv-x="532" d="M131 55l170 1379q6 55 59 55h177q44 0 43 -44v-11l-168 -1379q-6 -55 -58 -55h-178q-46 0 -46 44q0 5 1 11zM354 1608l129 209q35 53 80 53h189q29 0 33 -15q1 -3 2 -7q0 -13 -13 -31l-182 -226q-27 -37 -74 -37h-143q-34 0 -34 20q0 13 13 34z" />
<glyph unicode="&#x13b;" horiz-adv-x="1015" d="M154 55l165 1338q6 55 58 55h186q44 0 44 -41q0 -7 -1 -14l-141 -1155h475q50 0 50 -38q0 -5 -1 -12l-20 -135q-8 -53 -58 -53h-716q-42 0 -42 43q0 6 1 12zM319 -457q43 78 57.5 117t26.5 117l9 65q6 53 57 54h131q44 0 44 -40q0 -6 -1 -14l-10 -80q-6 -63 -26.5 -116.5 t-41 -84t-61.5 -83.5q-20 -30 -51 -30q-10 0 -21 3l-96 23q-31 7 -32 30q0 16 15 39z" />
<glyph unicode="&#x13c;" horiz-adv-x="532" d="M43 -459q43 78 57.5 117t24.5 117l10 65q6 53 58 54h131q44 0 44 -40q0 -6 -1 -14l-11 -82q-6 -61 -26.5 -114.5t-41 -84t-61.5 -83.5q-20 -30 -51 -30q-10 0 -20 3l-97 23q-31 7 -31 30q0 16 15 39zM131 55l170 1379q6 55 59 55h177q44 0 43 -44v-11l-168 -1379 q-6 -55 -58 -55h-178q-46 0 -46 44q0 5 1 11z" />
<glyph unicode="&#x13d;" horiz-adv-x="1015" d="M154 55l165 1338q6 55 58 55h186q44 0 44 -41q0 -7 -1 -14l-141 -1155h475q50 0 50 -38q0 -5 -1 -12l-20 -135q-8 -53 -58 -53h-716q-42 0 -42 43q0 6 1 12zM756 1221q43 76 58 115.5t26 115.5l8 68q6 53 57 53h131q44 0 44 -40q0 -6 -1 -13l-10 -82q-6 -61 -26.5 -114.5 t-41 -84.5t-59.5 -84q-23 -31 -56 -31q-9 0 -18 2l-94 25q-32 7 -32 31q0 16 14 39z" />
<glyph unicode="&#x13e;" horiz-adv-x="763" d="M131 55l170 1379q6 55 59 55h177q44 0 43 -44v-11l-168 -1379q-6 -55 -58 -55h-178q-46 0 -46 44q0 5 1 11zM629 1227q43 76 57 115.5t25 115.5l10 68q6 53 57 53h131q44 0 44 -40q0 -6 -1 -13l-10 -82q-6 -61 -26.5 -114.5t-41 -84.5t-61.5 -84q-21 -31 -54 -31 q-9 0 -18 3l-96 24q-31 7 -31 30q0 17 15 40z" />
<glyph unicode="&#x13f;" horiz-adv-x="1015" d="M154 55l165 1338q6 55 58 55h186q44 0 44 -41q0 -7 -1 -14l-141 -1155h475q50 0 50 -38q0 -5 -1 -12l-20 -135q-8 -53 -58 -53h-716q-42 0 -42 43q0 6 1 12zM723 664l18 174q6 53 60 53h182q44 0 44 -42q0 -5 -1 -11l-20 -174q-6 -53 -58 -54h-182q-44 0 -44 40q0 7 1 14 z" />
<glyph unicode="&#x140;" horiz-adv-x="823" d="M131 55l170 1379q6 55 59 55h177q44 0 43 -44v-11l-168 -1379q-6 -55 -58 -55h-178q-46 0 -46 44q0 5 1 11zM600 664l21 174q6 53 59 53h182q44 0 44 -42q0 -5 -1 -11l-20 -174q-8 -53 -58 -54h-182q-46 0 -46 43q0 5 1 11z" />
<glyph unicode="&#x141;" horiz-adv-x="1015" d="M61 645q-4 10 -3 19q0 30 42 47l142 55l77 627q6 55 58 55h186q44 0 44 -41q0 -7 -1 -14l-63 -508l80 28q15 7 27 7q27 0 38 -35l19 -62q5 -10 4 -19q0 -28 -41 -46l-148 -58l-57 -462h475q50 0 50 -38q0 -5 -1 -12l-20 -135q-8 -53 -58 -53h-716q-42 0 -42 43q0 6 1 12 l65 531l-72 -29q-13 -4 -22 -4q-29 0 -41 33z" />
<glyph unicode="&#x142;" horiz-adv-x="532" d="M43 647q-5 12 -5 22q0 28 38 44l143 55l82 666q6 55 59 55h177q44 0 43 -44v-11l-68 -551l84 30q18 8 31 8q29 0 35 -36l20 -62q4 -9 4 -18q0 -29 -43 -47l-154 -60l-77 -643q-6 -55 -58 -55h-178q-46 0 -46 44q0 5 1 11l66 531l-76 -29q-14 -5 -25 -5q-28 0 -39 34z" />
<glyph unicode="&#x143;" horiz-adv-x="1331" d="M154 53l163 1342q6 53 60 53h160q37 0 45 -21l338 -735q41 -88 53 -149l104 852q6 53 58 53h168q46 0 45 -43v-10l-166 -1342q-6 -53 -56 -53h-159q-37 0 -49 25l-326 706q-43 98 -64 174l-104 -852q-6 -53 -55 -53h-168q-48 0 -48 43q0 4 1 10zM731 1608l129 209 q35 53 80 53h188q29 0 34 -15q1 -3 1 -7q0 -13 -12 -31l-182 -226q-27 -37 -74 -37h-143q-34 0 -34 20q0 13 13 34z" />
<glyph unicode="&#x144;" horiz-adv-x="1161" d="M131 55l119 955q6 51 57 51h164q27 0 38 -12.5t9 -38.5l-2 -52q160 119 346 119q127 0 204 -68.5t77 -179.5q0 -35 -2 -51l-86 -723q-6 -55 -62 -55h-174q-47 0 -46 39q0 7 1 16l80 652q4 35 4 47q0 82 -104 82q-125 0 -258 -97l-84 -684q-6 -55 -58 -55h-178 q-46 0 -46 44q0 5 1 11zM633 1245l127 209q35 53 80 53h190q29 0 34 -14q1 -3 1 -7q0 -13 -14 -32l-183 -225q-31 -37 -71 -37h-144q-33 0 -33 20q1 13 13 33z" />
<glyph unicode="&#x145;" horiz-adv-x="1331" d="M154 53l163 1342q6 53 60 53h160q37 0 45 -21l338 -735q41 -88 53 -149l104 852q6 53 58 53h168q46 0 45 -43v-10l-166 -1342q-6 -53 -56 -53h-159q-37 0 -49 25l-326 706q-43 98 -64 174l-104 -852q-6 -53 -55 -53h-168q-48 0 -48 43q0 4 1 10zM473 -459q43 78 57.5 117 t24.5 117l10 65q6 53 58 54h131q44 0 44 -40q0 -6 -1 -14l-11 -82q-6 -61 -26.5 -114.5t-41 -84t-61.5 -83.5q-20 -30 -51 -30q-10 0 -20 3l-97 23q-31 7 -31 30q0 16 15 39z" />
<glyph unicode="&#x146;" horiz-adv-x="1161" d="M131 55l119 955q6 51 57 51h164q27 0 38 -12.5t9 -38.5l-2 -52q160 119 346 119q127 0 204 -68.5t77 -179.5q0 -35 -2 -51l-86 -723q-6 -55 -62 -55h-174q-47 0 -46 39q0 7 1 16l80 652q4 35 4 47q0 82 -104 82q-125 0 -258 -97l-84 -684q-6 -55 -58 -55h-178 q-46 0 -46 44q0 5 1 11zM352 -459q41 78 56.5 117t25.5 117l8 65q6 53 58 54h133q44 0 44 -40q0 -6 -1 -14l-12 -82q-6 -61 -26 -114.5t-40 -84t-61 -83.5q-20 -30 -52 -30q-10 0 -20 3l-96 23q-31 7 -32 30q0 16 15 39z" />
<glyph unicode="&#x147;" horiz-adv-x="1331" d="M154 53l163 1342q6 53 60 53h160q37 0 45 -21l338 -735q41 -88 53 -149l104 852q6 53 58 53h168q46 0 45 -43v-10l-166 -1342q-6 -53 -56 -53h-159q-37 0 -49 25l-326 706q-43 98 -64 174l-104 -852q-6 -53 -55 -53h-168q-48 0 -48 43q0 4 1 10zM578 1855q10 14 38 15 h132q43 0 65 -51l43 -99l64 99q35 51 81 51h136q29 0 34 -15q2 -4 2 -7q0 -12 -14 -29l-180 -211q-41 -53 -90 -54h-103q-43 0 -77 56l-129 209q-7 12 -7 22q0 7 5 14z" />
<glyph unicode="&#x148;" horiz-adv-x="1161" d="M131 55l119 955q6 51 57 51h164q27 0 38 -12.5t9 -38.5l-2 -52q160 119 346 119q127 0 204 -68.5t77 -179.5q0 -35 -2 -51l-86 -723q-6 -55 -62 -55h-174q-47 0 -46 39q0 7 1 16l80 652q4 35 4 47q0 82 -104 82q-125 0 -258 -97l-84 -684q-6 -55 -58 -55h-178 q-46 0 -46 44q0 5 1 11zM460 1493q11 14 38 14h135q45 0 65 -51l41 -96l66 96q35 51 80 51h137q29 0 35 -14q2 -4 1 -8q0 -12 -14 -29l-182 -211q-45 -53 -92 -53h-98q-43 0 -78 55l-131 209q-8 13 -8 23q0 8 5 14z" />
<glyph unicode="&#x149;" horiz-adv-x="1161" d="M131 55l119 955q6 51 57 51h164q27 0 38 -12.5t9 -38.5l-2 -52q160 119 346 119q127 0 204 -68.5t77 -179.5q0 -35 -2 -51l-86 -723q-6 -55 -62 -55h-174q-47 0 -46 39q0 7 1 16l80 652q4 35 4 47q0 82 -104 82q-125 0 -258 -97l-84 -684q-6 -55 -58 -55h-178 q-46 0 -46 44q0 5 1 11zM203 1227q43 76 57 115.5t25 115.5l10 68q6 53 57 53h131q44 0 44 -40q0 -6 -1 -13l-10 -82q-6 -61 -26.5 -114.5t-41 -84.5t-61.5 -84q-21 -31 -54 -31q-9 0 -18 3l-96 24q-31 7 -31 30q0 17 15 40z" />
<glyph unicode="&#x14a;" horiz-adv-x="1331" d="M154 53l163 1342q8 53 60 53h160q37 0 45 -21l338 -735q37 -72 53 -149l104 852q6 53 58 53h168q46 0 45 -43v-10l-187 -1510q-20 -156 -136 -234.5t-347 -78.5h-31q-48 0 -48 39q0 6 1 12l16 121q6 55 60 55h20q184 0 197 115l16 127l-317 690q-43 98 -64 174l-104 -852 q-6 -53 -55 -53h-168q-48 0 -48 43q0 4 1 10z" />
<glyph unicode="&#x14b;" horiz-adv-x="1161" d="M131 53l119 957q6 51 57 51h164q47 0 47 -51l-2 -52q156 119 344 119q129 0 206 -68.5t77 -179.5q0 -33 -2 -51l-111 -893q-18 -156 -133 -234.5t-350 -78.5h-27q-55 0 -49 51l16 121q6 55 60 55h20q174 0 189 115l96 795q4 31 4 45q0 84 -102 84q-125 0 -258 -97 l-84 -688q-6 -53 -58 -53h-178q-46 0 -46 42q0 5 1 11z" />
<glyph unicode="&#x14c;" horiz-adv-x="1288" d="M162 291q0 12 4 53l94 774q18 154 148.5 251t402.5 97q246 0 365.5 -89t119.5 -220q0 -35 -2 -53l-92 -774q-18 -152 -150 -249t-405 -97q-244 0 -364.5 87t-120.5 220zM457 356q0 -135 215 -135q225 0 243 160l86 672l5 41q0 133 -215 133q-104 0 -172 -42t-76 -118 l-82 -672q-4 -33 -4 -39zM545 1651l10 108q8 49 63 49h490q53 0 47 -49l-12 -108q-6 -53 -62 -54h-489q-48 0 -48 43q0 5 1 11z" />
<glyph unicode="&#x14d;" horiz-adv-x="1128" d="M137 262q0 18 2 37l56 465q37 313 491 313q209 0 320.5 -73.5t111.5 -200.5q0 -20 -2 -39l-57 -465q-39 -315 -490 -315q-209 0 -320.5 73.5t-111.5 204.5zM418 1270l12 108q6 51 59 52h492q53 0 47 -52l-12 -108q-6 -51 -60 -51h-491q-53 0 -47 51zM420 303 q0 -98 168 -98q178 0 194 117l52 401q2 20 2 35q0 98 -168 98q-180 0 -195 -115l-51 -403q-2 -17 -2 -35z" />
<glyph unicode="&#x14e;" horiz-adv-x="1288" d="M162 291q0 12 4 53l94 774q18 154 148.5 251t402.5 97q246 0 365.5 -89t119.5 -220q0 -35 -2 -53l-92 -774q-18 -152 -150 -249t-405 -97q-244 0 -364.5 87t-120.5 220zM457 356q0 -135 215 -135q225 0 243 160l86 672l5 41q0 133 -215 133q-104 0 -172 -42t-76 -118 l-82 -672q-4 -33 -4 -39zM565 1778q0 12 4 45l4 32q6 45 52 46h106q25 0 34 -10.5t5 -35.5l-4 -40v-15q0 -76 88 -76q96 0 107 97l4 34q2 25 14 35.5t37 10.5h106q47 0 41 -46l-4 -28q-20 -133 -93 -199.5t-222 -66.5q-129 0 -204 56.5t-75 160.5z" />
<glyph unicode="&#x14f;" horiz-adv-x="1128" d="M137 262q0 18 2 37l56 465q37 313 491 313q209 0 320.5 -73.5t111.5 -200.5q0 -20 -2 -39l-57 -465q-39 -315 -490 -315q-209 0 -320.5 73.5t-111.5 204.5zM420 303q0 -98 168 -98q178 0 194 117l52 401q2 20 2 35q0 98 -168 98q-180 0 -195 -115l-51 -403q-2 -17 -2 -35 zM436 1382q0 27 2 45l4 31q6 45 54 45h106q47 0 41 -45l-4 -39v-16q0 -74 88 -74q100 0 107 96l2 33q2 45 53 45h106q40 0 40 -32q0 -6 -1 -13l-4 -26q-18 -135 -92 -201t-223 -66q-127 0 -203 56.5t-76 160.5z" />
<glyph unicode="&#x150;" horiz-adv-x="1288" d="M162 291q0 12 4 53l94 774q18 154 148.5 251t402.5 97q246 0 365.5 -89t119.5 -220q0 -35 -2 -53l-92 -774q-18 -152 -150 -249t-405 -97q-244 0 -364.5 87t-120.5 220zM457 356q0 -135 215 -135q225 0 243 160l86 672l5 41q0 133 -215 133q-104 0 -172 -42t-76 -118 l-82 -672q-4 -33 -4 -39zM565 1608l113 209q29 53 78 53h155q29 0 37 -14.5t-6 -38.5l-141 -209q-37 -53 -78 -54h-129q-39 0 -39 24q0 12 10 30zM874 1608l146 209q37 53 88 53h158q32 0 31 -21q0 -13 -13 -32l-172 -211q-43 -51 -86 -52h-129q-36 0 -36 21q0 13 13 33z " />
<glyph unicode="&#x151;" horiz-adv-x="1128" d="M137 262q0 18 2 37l56 465q37 313 491 313q209 0 320.5 -73.5t111.5 -200.5q0 -20 -2 -39l-57 -465q-39 -315 -490 -315q-209 0 -320.5 73.5t-111.5 204.5zM420 303q0 -98 168 -98q178 0 194 117l52 401q2 20 2 35q0 98 -168 98q-180 0 -195 -115l-51 -403q-2 -17 -2 -35 zM438 1245l115 209q31 53 80 53h155q27 0 36.5 -14t-9.5 -39l-139 -209q-37 -53 -78 -53h-129q-40 0 -40 24q0 12 9 29zM750 1245l147 209q39 53 86 53h156q29 0 33 -14q1 -3 2 -7q0 -13 -15 -32l-172 -211q-39 -51 -86 -51h-131q-35 0 -35 20q1 12 15 33z" />
<glyph unicode="&#x152;" horiz-adv-x="1814" d="M162 289q0 16 4 53l94 776q18 152 140 251t374 99q154 0 270 -59q12 39 58 39h727q48 0 48 -39q0 -6 -1 -12l-16 -133q-6 -51 -60 -52h-491l-43 -348h456q53 0 47 -51l-16 -125q-6 -51 -57 -51h-459l-49 -401h514q55 0 49 -52l-16 -133q-10 -51 -62 -51h-749 q-41 0 -50 31q-98 -47 -231 -47q-246 0 -363.5 86t-117.5 219zM457 356q0 -137 215 -137q223 0 243 160l84 676q4 33 5 39q0 135 -213 135q-104 0 -171 -40t-77 -120l-82 -676q-4 -29 -4 -37z" />
<glyph unicode="&#x153;" horiz-adv-x="1705" d="M137 260q0 23 2 37l58 467q37 313 475 313q217 0 315 -84q111 84 320 84q199 0 299 -70.5t100 -199.5q0 -27 -2 -43l-31 -242q-6 -49 -55 -49h-545l-18 -162q-2 -14 -2 -24q0 -96 155 -97q160 0 176 109l5 23q6 51 59 51h147q46 0 46 -41q0 -5 -1 -10l-2 -31 q-16 -147 -117.5 -227t-330.5 -80q-203 0 -307 71q-102 -72 -314 -71q-209 0 -320.5 73.5t-111.5 202.5zM420 301q0 -98 168 -98q178 0 194 116l52 422v17q0 100 -166 100q-180 0 -195 -117l-53 -422v-18zM1098 653h332l12 99v22q0 96 -154 96q-166 0 -178 -118z" />
<glyph unicode="&#x154;" horiz-adv-x="1277" d="M154 55l165 1338q6 55 58 55h432q248 0 367.5 -91t119.5 -235q0 -33 -2 -49l-20 -184q-27 -227 -268 -301l159 -533q8 -23 -10 -39t-45 -16h-184q-33 0 -49 55l-148 496h-227l-60 -496q-6 -55 -57 -55h-184q-48 0 -48 42q0 6 1 13zM532 791h213q227 0 250 149l13 86 q2 18 2 39q0 145 -207 145h-217zM647 1608l131 209q33 53 78 53h191q27 0 31 -15q1 -3 1 -7q0 -13 -12 -31l-180 -226q-29 -37 -76 -37h-141q-35 0 -35 21q0 13 12 33z" />
<glyph unicode="&#x155;" horiz-adv-x="788" d="M131 55l119 955q6 51 57 51h164q27 0 38 -12.5t9 -38.5l-4 -74q154 141 328 141q55 0 49 -53l-19 -135q-4 -47 -61 -53q-190 -20 -319 -127l-80 -654q-6 -55 -58 -55h-178q-46 0 -46 44q0 5 1 11zM444 1245l129 209q33 53 78 53h193q27 0 33 -14q1 -3 1 -7q0 -13 -16 -32 l-180 -225q-33 -37 -74 -37h-141q-34 0 -34 21q0 13 11 32z" />
<glyph unicode="&#x156;" horiz-adv-x="1277" d="M154 55l165 1338q6 55 58 55h432q248 0 367.5 -91t119.5 -235q0 -33 -2 -49l-20 -184q-27 -227 -268 -301l159 -533q8 -23 -10 -39t-45 -16h-184q-33 0 -49 55l-148 496h-227l-60 -496q-6 -55 -57 -55h-184q-48 0 -48 42q0 6 1 13zM418 -459q43 78 57 117t25 117l10 65 q6 53 57 54h131q44 0 45 -40q0 -6 -2 -14l-10 -82q-6 -61 -26.5 -114.5t-41 -84t-61.5 -83.5q-20 -30 -51 -30q-10 0 -21 3l-96 23q-31 7 -31 30q0 16 15 39zM532 791h213q227 0 250 149l13 86q2 18 2 39q0 145 -207 145h-217z" />
<glyph unicode="&#x157;" horiz-adv-x="788" d="M37 -459q41 78 56.5 117t25.5 117l8 65q8 53 57 54h133q44 0 45 -40q0 -6 -2 -14l-10 -82q-8 -61 -27.5 -114.5t-40 -84t-61.5 -83.5q-20 -30 -51 -30q-10 0 -20 3l-97 23q-31 7 -31 30q0 16 15 39zM131 55l119 955q6 51 57 51h164q27 0 38 -12.5t9 -38.5l-4 -74 q154 141 328 141q55 0 49 -53l-19 -135q-4 -47 -61 -53q-190 -20 -319 -127l-80 -654q-6 -55 -58 -55h-178q-46 0 -46 44q0 5 1 11z" />
<glyph unicode="&#x158;" horiz-adv-x="1277" d="M154 55l165 1338q6 55 58 55h432q248 0 367.5 -91t119.5 -235q0 -33 -2 -49l-20 -184q-27 -227 -268 -301l159 -533q8 -23 -10 -39t-45 -16h-184q-33 0 -49 55l-148 496h-227l-60 -496q-6 -55 -57 -55h-184q-48 0 -48 42q0 6 1 13zM483 1855q10 14 39 15h131q43 0 68 -51 l41 -99l65 99q33 51 80 51h137q27 0 33 -15q2 -4 2 -7q0 -12 -14 -29l-178 -211q-43 -53 -92 -54h-103q-43 0 -76 56l-131 209q-7 12 -6 22q-1 7 4 14zM532 791h213q227 0 250 149l13 86q2 18 2 39q0 145 -207 145h-217z" />
<glyph unicode="&#x159;" horiz-adv-x="788" d="M131 55l119 955q6 51 57 51h164q27 0 38 -12.5t9 -38.5l-4 -74q154 141 328 141q55 0 49 -53l-19 -135q-4 -47 -61 -53q-190 -20 -319 -127l-80 -654q-6 -55 -58 -55h-178q-46 0 -46 44q0 5 1 11zM274 1493q10 14 39 14h133q45 0 68 -51l39 -96l68 96q33 51 77 51h140 q27 0 32 -14q2 -4 2 -8q0 -12 -14 -29l-180 -211q-45 -53 -92 -53h-101q-43 0 -75 55l-134 209q-7 12 -6 22q-1 8 4 15z" />
<glyph unicode="&#x15a;" horiz-adv-x="1216" d="M141 295q0 23 4 49l15 121q6 55 57 55h178q46 0 46 -44q0 -5 -1 -11l-10 -82q-2 -16 -2 -41q0 -129 211 -129q219 0 242 156l8 59q2 14 2 31q0 25 -13.5 45t-41 36.5t-50 28t-57.5 25.5l-297 117q-82 33 -132 99.5t-50 150.5q0 8 4 51l12 106q41 348 518 348 q238 0 348.5 -87t110.5 -218q0 -20 -2 -43l-8 -88q-6 -53 -59 -53h-179q-46 0 -45 42v11l6 49q2 18 2 23q0 133 -194 133q-209 0 -223 -156l-2 -20q-2 -18 -2 -35q0 -61 71 -88l353 -133q219 -82 219 -277q0 -12 -4 -51l-15 -145q-18 -154 -144 -250t-396 -96 q-246 0 -363 88t-117 223zM686 1608l129 209q35 53 80 53h188q29 0 34 -15q1 -3 1 -7q0 -13 -12 -31l-182 -226q-27 -37 -74 -37h-143q-34 0 -34 20q0 13 13 34z" />
<glyph unicode="&#x15b;" horiz-adv-x="1003" d="M109 223q0 14 2 35l6 49q6 49 55 49h158q42 0 41 -38v-11l-2 -24q-2 -16 -2 -27q0 -76 159 -76q174 0 185 86l2 15q2 18 2 36q0 41 -84 72l-291 111q-143 55 -143 202q0 14 2 39l6 66q10 117 111.5 193.5t316.5 76.5q195 0 291 -73.5t96 -180.5q0 -12 -2 -32l-4 -37 q-6 -49 -56 -49h-157q-45 0 -43 49l2 26q2 20 2 29q0 74 -141 74q-150 0 -162 -82l-2 -13q-2 -12 -2 -26q0 -49 53 -68l295 -106q176 -63 176 -199q0 -18 -4 -51l-10 -94q-12 -115 -121 -187.5t-328 -72.5q-201 0 -304 68.5t-103 170.5zM537 1245l127 209q35 53 79 53h193 q27 0 32 -14q1 -3 1 -7q0 -13 -15 -32l-180 -225q-33 -37 -74 -37h-143q-33 0 -33 20q1 13 13 33z" />
<glyph unicode="&#x15c;" horiz-adv-x="1216" d="M141 295q0 23 4 49l15 121q6 55 57 55h178q46 0 46 -44q0 -5 -1 -11l-10 -82q-2 -16 -2 -41q0 -129 211 -129q219 0 242 156l8 59q2 14 2 31q0 25 -13.5 45t-41 36.5t-50 28t-57.5 25.5l-297 117q-82 33 -132 99.5t-50 150.5q0 8 4 51l12 106q41 348 518 348 q238 0 348.5 -87t110.5 -218q0 -20 -2 -43l-8 -88q-6 -53 -59 -53h-179q-46 0 -45 42v11l6 49q2 18 2 23q0 133 -194 133q-209 0 -223 -156l-2 -20q-2 -18 -2 -35q0 -61 71 -88l353 -133q219 -82 219 -277q0 -12 -4 -51l-15 -145q-18 -154 -144 -250t-396 -96 q-246 0 -363 88t-117 223zM489 1571q-2 4 -1 8q0 13 14 29l182 209q45 53 92 53h98q43 0 78 -53l131 -209q10 -13 10 -25q0 -7 -4 -13q-11 -15 -40 -16h-134q-47 0 -67 54l-41 96l-66 -96q-39 -53 -79 -54h-138q-29 1 -35 17z" />
<glyph unicode="&#x15d;" horiz-adv-x="1003" d="M109 223q0 14 2 35l6 49q6 49 55 49h158q42 0 41 -38v-11l-2 -24q-2 -16 -2 -27q0 -76 159 -76q174 0 185 86l2 15q2 18 2 36q0 41 -84 72l-291 111q-143 55 -143 202q0 14 2 39l6 66q10 117 111.5 193.5t316.5 76.5q195 0 291 -73.5t96 -180.5q0 -12 -2 -32l-4 -37 q-6 -49 -56 -49h-157q-45 0 -43 49l2 26q2 20 2 29q0 74 -141 74q-150 0 -162 -82l-2 -13q-2 -12 -2 -26q0 -49 53 -68l295 -106q176 -63 176 -199q0 -18 -4 -51l-10 -94q-12 -115 -121 -187.5t-328 -72.5q-201 0 -304 68.5t-103 170.5zM343 1207q-2 4 -2 9q0 13 15 29 l179 209q43 53 92 53h102q41 0 76 -53l131 -209q8 -13 8 -23q0 -8 -5 -15q-11 -15 -40 -15h-133q-37 0 -66 53l-43 96l-63 -96q-37 -53 -80 -53h-137q-27 0 -34 15z" />
<glyph unicode="&#x15e;" horiz-adv-x="1216" d="M141 295q0 23 4 49l15 121q6 55 57 55h178q46 0 46 -44q0 -5 -1 -11l-10 -82q-2 -16 -2 -41q0 -129 211 -129q219 0 242 156l8 59q2 14 2 31q0 25 -13.5 45t-41 36.5t-50 28t-57.5 25.5l-297 117q-82 33 -132 99.5t-50 150.5q0 8 4 51l12 106q41 348 518 348 q238 0 348.5 -87t110.5 -218q0 -20 -2 -43l-8 -88q-6 -53 -59 -53h-179q-46 0 -45 42v11l6 49q2 18 2 23q0 133 -194 133q-209 0 -223 -156l-2 -20q-2 -18 -2 -35q0 -61 71 -88l353 -133q219 -82 219 -277q0 -12 -4 -51l-15 -145q-18 -141 -129.5 -236.5t-347.5 -107.5 l-33 -82h66q76 0 121 -40t45 -114q0 -98 -58.5 -148.5t-150.5 -50.5h-256q-46 0 -46 43q0 5 1 11l4 41q6 51 57 51h209q45 0 45 37q0 31 -39 30h-155q-64 0 -64 41q0 13 6 29l62 156q-182 20 -269.5 103t-87.5 202z" />
<glyph unicode="&#x15f;" horiz-adv-x="1003" d="M109 223q0 14 2 35l6 49q6 49 55 49h158q42 0 41 -38v-11l-2 -24q-2 -16 -2 -27q0 -76 159 -76q174 0 185 86l2 15q2 18 2 36q0 41 -84 72l-291 111q-143 55 -143 202q0 14 2 39l6 66q10 117 111.5 193.5t316.5 76.5q195 0 291 -73.5t96 -180.5q0 -12 -2 -32l-4 -37 q-6 -49 -56 -49h-157q-45 0 -43 49l2 26q2 20 2 29q0 74 -141 74q-150 0 -162 -82l-2 -13q-2 -12 -2 -26q0 -49 53 -68l295 -106q176 -63 176 -199q0 -18 -4 -51l-10 -94q-12 -104 -105.5 -175t-277.5 -83l-33 -82h67q74 0 119 -40t45 -114q0 -98 -58 -148.5t-151 -50.5 h-256q-46 0 -45 43v11l4 41q6 51 58 51h209q45 0 45 37q0 31 -39 30h-156q-64 0 -64 41q0 13 7 29l63 158q-143 18 -215.5 82.5t-72.5 148.5z" />
<glyph unicode="&#x160;" horiz-adv-x="1216" d="M141 295q0 23 4 49l15 121q6 55 57 55h178q46 0 46 -44q0 -5 -1 -11l-10 -82q-2 -16 -2 -41q0 -129 211 -129q219 0 242 156l8 59q2 14 2 31q0 25 -13.5 45t-41 36.5t-50 28t-57.5 25.5l-297 117q-82 33 -132 99.5t-50 150.5q0 8 4 51l12 106q41 348 518 348 q238 0 348.5 -87t110.5 -218q0 -20 -2 -43l-8 -88q-6 -53 -59 -53h-179q-46 0 -45 42v11l6 49q2 18 2 23q0 133 -194 133q-209 0 -223 -156l-2 -20q-2 -18 -2 -35q0 -61 71 -88l353 -133q219 -82 219 -277q0 -12 -4 -51l-15 -145q-18 -154 -144 -250t-396 -96 q-246 0 -363 88t-117 223zM518 1855q10 14 37 15h133q43 0 66 -51l43 -99l63 99q35 51 82 51h135q29 0 35 -15q2 -4 2 -7q0 -12 -14 -29l-180 -211q-43 -53 -91 -54h-102q-43 0 -78 56l-129 209q-7 12 -7 22q0 7 5 14z" />
<glyph unicode="&#x161;" horiz-adv-x="1003" d="M109 223q0 14 2 35l6 49q6 49 55 49h158q42 0 41 -38v-11l-2 -24q-2 -16 -2 -27q0 -76 159 -76q174 0 185 86l2 15q2 18 2 36q0 41 -84 72l-291 111q-143 55 -143 202q0 14 2 39l6 66q10 117 111.5 193.5t316.5 76.5q195 0 291 -73.5t96 -180.5q0 -12 -2 -32l-4 -37 q-6 -49 -56 -49h-157q-45 0 -43 49l2 26q2 20 2 29q0 74 -141 74q-150 0 -162 -82l-2 -13q-2 -12 -2 -26q0 -49 53 -68l295 -106q176 -63 176 -199q0 -18 -4 -51l-10 -94q-12 -115 -121 -187.5t-328 -72.5q-201 0 -304 68.5t-103 170.5zM358 1493q10 14 37 14h135 q45 0 66 -51l41 -96l65 96q35 51 80 51h138q29 0 34 -14q2 -4 2 -8q0 -12 -14 -29l-182 -211q-45 -53 -90 -53h-101q-43 0 -77 55l-132 209q-7 12 -6 22q-1 8 4 15z" />
<glyph unicode="&#x162;" horiz-adv-x="1046" d="M176 1264l19 133q6 51 59 51h893q48 0 48 -39q0 -6 -1 -12l-16 -133q-6 -53 -58 -54h-305l-141 -1155q-6 -55 -56 -55h-186q-48 0 -48 44q0 5 1 11l143 1155h-303q-55 1 -49 54zM287 -459q43 78 58 117t26 117l8 65q6 53 57 54h133q43 0 43 -37q0 -7 -2 -17l-10 -82 q-6 -61 -26.5 -114.5t-40 -84t-60.5 -83.5q-22 -30 -52 -30q-9 0 -20 3l-96 23q-32 7 -32 31q0 15 14 38z" />
<glyph unicode="&#x163;" horiz-adv-x="772" d="M141 889l11 106q4 45 59 52l104 10h2l25 205q8 53 59 53h177q46 0 45 -43v-10l-27 -205h195q53 0 47 -49l-15 -119q-6 -53 -61 -53h-193l-57 -476q-2 -18 -2 -36q0 -94 154 -95h47q55 0 49 -53l-15 -123q-6 -53 -59 -53h-92q-199 0 -286 61.5t-87 190.5q0 16 4 63l64 521 h-105q-44 0 -43 42q-1 5 0 11zM147 -459q43 78 57.5 117t24.5 117l9 65q8 53 59 54h131q44 0 44 -40q0 -6 -1 -14l-10 -82q-6 -61 -26.5 -114.5t-41 -84t-61.5 -83.5q-20 -30 -51 -30q-10 0 -21 3l-96 23q-31 7 -32 30q0 16 15 39z" />
<glyph unicode="&#x164;" horiz-adv-x="1046" d="M176 1264l19 133q6 51 59 51h893q48 0 48 -39q0 -6 -1 -12l-16 -133q-6 -53 -58 -54h-305l-141 -1155q-6 -55 -56 -55h-186q-48 0 -48 44q0 5 1 11l143 1155h-303q-55 1 -49 54zM432 1855q10 14 39 15h131q43 0 68 -51l41 -99l65 99q33 51 80 51h137q27 0 33 -15 q2 -4 2 -7q0 -12 -14 -29l-178 -211q-43 -53 -93 -54h-102q-43 0 -76 56l-131 209q-7 12 -7 22q0 7 5 14z" />
<glyph unicode="&#x165;" horiz-adv-x="837" d="M141 889l11 106q4 45 59 52l104 10h2l25 205q8 53 59 53h177q46 0 45 -43v-10l-27 -205h195q53 0 47 -49l-15 -119q-6 -53 -61 -53h-193l-57 -476q-2 -18 -2 -36q0 -94 154 -95h47q55 0 49 -53l-15 -123q-6 -53 -59 -53h-92q-199 0 -286 61.5t-87 190.5q0 16 4 63l64 521 h-105q-44 0 -43 42q-1 5 0 11zM702 1227q43 76 58.5 115.5t25.5 115.5l9 68q6 53 57 53h131q44 0 44 -40q0 -6 -1 -13l-10 -82q-6 -61 -26.5 -114.5t-41 -84.5t-59.5 -84q-23 -31 -56 -31q-9 0 -18 3l-94 24q-32 7 -32 31q-1 16 13 39z" />
<glyph unicode="&#x166;" horiz-adv-x="1046" d="M176 1264l19 133q6 51 59 51h893q48 0 48 -39q0 -6 -1 -12l-16 -133q-6 -53 -58 -54h-305l-37 -309h228q55 0 49 -49l-13 -92q-8 -53 -59 -53h-229l-80 -652q-6 -55 -56 -55h-186q-48 0 -48 44q0 5 1 11l82 652h-219q-55 0 -49 53l12 92q6 49 57 49h221l39 309h-303 q-55 1 -49 54z" />
<glyph unicode="&#x167;" horiz-adv-x="772" d="M98 551l13 92q6 49 57 49h102l19 144h-105q-44 0 -43 42v11l11 106q4 45 59 52l104 10h2l25 205q8 53 59 53h177q46 0 45 -43v-10l-27 -205h195q53 0 47 -49l-15 -119q-6 -53 -61 -53h-193l-18 -144h194q55 0 50 -49l-13 -92q-6 -53 -57 -53h-197l-16 -138q-2 -18 -2 -36 q0 -94 154 -95h47q55 0 49 -53l-15 -123q-6 -53 -59 -53h-92q-199 0 -286 61.5t-87 190.5q0 16 4 63l23 183h-101q-55 0 -49 53z" />
<glyph unicode="&#x168;" horiz-adv-x="1308" d="M172 297q0 8 6 59l129 1037q6 55 55 55h187q46 0 46 -44q0 -5 -1 -11l-121 -971q-6 -45 -6 -64q0 -137 213 -137q227 0 246 160l129 1012q6 55 55 55h184q48 0 48 -45q0 -5 -1 -10l-131 -1063q-41 -346 -548 -346q-242 0 -366 89t-124 224zM479 1626l19 86 q20 80 75.5 123t128 43t127.5 -29l84 -45q59 -31 70 -30q35 0 47 51l4 14q18 45 64 45h92q41 0 41 -40q0 -10 -2 -21l-19 -80q-41 -168 -190 -168q-74 0 -139 29l-93 45q-51 25 -73 24q-31 0 -41 -41l-6 -22q-16 -47 -64 -47h-88q-40 0 -40 38q0 11 3 25z" />
<glyph unicode="&#x169;" d="M143 229q0 23 2 39l91 740q8 53 61 53h172q51 0 47 -53l-82 -670q-2 -16 -2 -33q0 -41 23.5 -60.5t79.5 -19.5q113 0 247 94l82 689q6 53 58 53h180q46 0 46 -43q0 -5 -1 -10l-121 -955q-6 -53 -57 -53h-164q-27 0 -38 11.5t-9 41.5l2 47q-145 -117 -334 -116 q-129 0 -206 67t-77 178zM348 1243l19 90q18 80 72.5 122t129.5 42q72 0 127 -29l86 -45q55 -29 70 -28q37 0 47 49l4 12q16 47 62 47h94q41 0 41 -40q0 -10 -2 -21l-21 -80q-41 -168 -188 -168q-76 0 -141 31l-93 45q-55 23 -71 22q-33 0 -43 -43l-6 -20q-14 -47 -62 -47 h-90q-39 0 -39 35q0 11 4 26z" />
<glyph unicode="&#x16a;" horiz-adv-x="1308" d="M172 297q0 8 6 59l129 1037q6 55 55 55h187q46 0 46 -44q0 -5 -1 -11l-121 -971q-6 -45 -6 -64q0 -137 213 -137q227 0 246 160l129 1012q6 55 55 55h184q48 0 48 -45q0 -5 -1 -10l-131 -1063q-41 -346 -548 -346q-242 0 -366 89t-124 224zM549 1651l12 108q6 49 62 49 h489q53 0 47 -49l-10 -108q-8 -53 -64 -54h-489q-48 0 -48 43q0 5 1 11z" />
<glyph unicode="&#x16b;" d="M143 229q0 23 2 39l91 740q8 53 61 53h172q51 0 47 -53l-82 -670q-2 -16 -2 -33q0 -41 23.5 -60.5t79.5 -19.5q113 0 247 94l82 689q6 53 58 53h180q46 0 46 -43q0 -5 -1 -10l-121 -955q-6 -53 -57 -53h-164q-27 0 -38 11.5t-9 41.5l2 47q-145 -117 -334 -116 q-129 0 -206 67t-77 178zM416 1270l12 108q6 51 59 52h492q53 0 47 -52l-12 -108q-6 -51 -60 -51h-491q-53 0 -47 51z" />
<glyph unicode="&#x16c;" horiz-adv-x="1308" d="M172 297q0 8 6 59l129 1037q6 55 55 55h187q46 0 46 -44q0 -5 -1 -11l-121 -971q-6 -45 -6 -64q0 -137 213 -137q227 0 246 160l129 1012q6 55 55 55h184q48 0 48 -45q0 -5 -1 -10l-131 -1063q-41 -346 -548 -346q-242 0 -366 89t-124 224zM565 1778q0 12 4 45l4 32 q6 45 52 46h106q25 0 34 -10.5t5 -35.5l-4 -40v-15q0 -76 88 -76q96 0 107 97l4 34q2 25 14 35.5t37 10.5h106q47 0 41 -46l-4 -28q-20 -133 -93 -199.5t-222 -66.5q-129 0 -204 56.5t-75 160.5z" />
<glyph unicode="&#x16d;" d="M143 229q0 23 2 39l91 740q8 53 61 53h172q51 0 47 -53l-82 -670q-2 -16 -2 -33q0 -41 23.5 -60.5t79.5 -19.5q113 0 247 94l82 689q6 53 58 53h180q46 0 46 -43q0 -5 -1 -10l-121 -955q-6 -53 -57 -53h-164q-27 0 -38 11.5t-9 41.5l2 47q-145 -117 -334 -116 q-129 0 -206 67t-77 178zM432 1382q0 27 2 45l4 31q6 45 54 45h106q47 0 41 -45l-4 -39v-16q0 -74 88 -74q98 0 106 96l2 33q2 45 54 45h106q45 0 39 -45l-4 -26q-18 -135 -92 -201t-223 -66q-127 0 -203 56.5t-76 160.5z" />
<glyph unicode="&#x16e;" horiz-adv-x="1308" d="M172 297q0 8 6 59l129 1037q6 55 55 55h187q46 0 46 -44q0 -5 -1 -11l-121 -971q-6 -45 -6 -64q0 -137 213 -137q227 0 246 160l129 1012q6 55 55 55h184q48 0 48 -45q0 -5 -1 -10l-131 -1063q-41 -346 -548 -346q-242 0 -366 89t-124 224zM616 1661q0 25 2 45l7 49 q18 162 245 162q109 0 167.5 -39t58.5 -102q0 -8 -2 -29l-9 -64q-14 -162 -239 -161q-111 0 -170.5 39t-59.5 100zM766 1692q0 -53 82 -54q90 0 92 64l2 33v14q0 49 -82 49q-90 0 -92 -63l-2 -33v-10z" />
<glyph unicode="&#x16f;" horiz-adv-x="1146" d="M143 229q0 23 2 39l91 740q8 53 61 53h172q51 0 47 -53l-82 -670q-2 -16 -2 -33q0 -41 23.5 -60.5t79.5 -19.5q113 0 247 94l82 689q6 53 58 53h180q46 0 46 -43q0 -5 -1 -10l-121 -955q-6 -53 -57 -53h-164q-27 0 -38 11.5t-9 41.5l2 47q-145 -117 -334 -116 q-129 0 -206 67t-77 178zM487 1298q0 25 2 45l7 50q20 162 247 161q109 0 166.5 -38.5t57.5 -100.5q0 -10 -2 -31l-7 -63q-14 -162 -241 -162q-111 0 -170.5 39t-59.5 100zM639 1329q0 -53 82 -53q88 0 90 63l2 33v14q0 49 -80 50q-90 0 -92 -64l-2 -33v-10z" />
<glyph unicode="&#x170;" horiz-adv-x="1308" d="M172 297q0 8 6 59l129 1037q6 55 55 55h187q46 0 46 -44q0 -5 -1 -11l-121 -971q-6 -45 -6 -64q0 -137 213 -137q227 0 246 160l129 1012q6 55 55 55h184q48 0 48 -45q0 -5 -1 -10l-131 -1063q-41 -346 -548 -346q-242 0 -366 89t-124 224zM573 1608l113 209q29 53 78 53 h156q29 0 37 -14.5t-7 -38.5l-141 -209q-35 -53 -78 -54h-129q-39 0 -39 24q0 12 10 30zM885 1608l143 209q37 53 88 53h158q27 0 32 -15q1 -3 1 -6q0 -13 -15 -32l-172 -211q-43 -51 -86 -52h-129q-35 0 -35 20q1 13 15 34z" />
<glyph unicode="&#x171;" d="M143 229q0 23 2 39l91 740q8 53 61 53h172q51 0 47 -53l-82 -670q-2 -16 -2 -33q0 -41 23.5 -60.5t79.5 -19.5q113 0 247 94l82 689q6 53 58 53h180q46 0 46 -43q0 -5 -1 -10l-121 -955q-6 -53 -57 -53h-164q-27 0 -38 11.5t-9 41.5l2 47q-145 -117 -334 -116 q-129 0 -206 67t-77 178zM440 1245l115 209q31 53 80 53h156q27 0 36 -14t-10 -39l-139 -209q-37 -53 -78 -53h-129q-40 0 -40 24q0 12 9 29zM752 1245l147 209q39 53 88 53h154q29 0 34 -14q1 -3 1 -7q0 -13 -15 -32l-172 -211q-39 -51 -86 -51h-129q-37 0 -37 20 q1 13 15 33z" />
<glyph unicode="&#x172;" horiz-adv-x="1308" d="M172 297q0 8 6 59l129 1037q6 55 55 55h187q46 0 46 -44q0 -5 -1 -11l-121 -971q-6 -45 -6 -64q0 -137 213 -137q227 0 246 160l129 1012q6 55 55 55h184q48 0 48 -45q0 -5 -1 -10l-131 -1063q-18 -135 -102 -215q-2 -2 -19.5 -17.5t-21.5 -19.5t-20.5 -19.5t-20.5 -21.5 t-16.5 -22.5t-16.5 -24.5t-13 -24.5t-12 -29t-6.5 -29t-3.5 -32.5q0 -63 82 -63h56q29 0 43 -11.5t10 -38.5l-10 -73q-6 -53 -70 -54h-115q-80 0 -142 40t-62 136.5t51 180.5q-86 -8 -139 -8q-242 0 -366 89t-124 224z" />
<glyph unicode="&#x173;" horiz-adv-x="1146" d="M143 229q0 27 2 39l91 740q8 53 61 53h172q51 0 47 -53l-82 -670q-2 -12 -2 -33q0 -41 23.5 -60.5t79.5 -19.5q113 0 247 94l82 689q6 53 58 53h180q46 0 46 -43q0 -5 -1 -10l-121 -955q-6 -53 -57 -53h-15q-45 0 -74.5 -36t-29.5 -87q0 -66 84 -65h14q61 0 56 -50 l-11 -73q-6 -53 -69 -54h-76q-80 0 -142.5 41t-62.5 140q0 137 117 237v47q-145 -117 -334 -116q-129 0 -206 67t-77 178z" />
<glyph unicode="&#x174;" horiz-adv-x="1783" d="M201 1395q-1 6 -1 10q0 43 48 43h186q49 0 55 -53l93 -725q6 -49 10 -181q27 88 59 181l273 725q20 53 71 53h172q49 0 56 -53l92 -723q10 -96 10 -213q20 102 61 211l271 725q18 53 69 53h166q36 0 36 -28q0 -11 -5 -25l-502 -1342q-20 -53 -71 -53h-181q-49 0 -55 53 l-94 742q-7 53 -7 131q0 32 1 67q-31 -139 -53 -198l-279 -742q-20 -53 -74 -53h-180q-49 0 -55 53zM788 1571q-2 4 -1 8q0 13 14 29l180 209q45 53 92 53h101q43 0 75 -53l133 -209q8 -13 9 -24q0 -8 -5 -14q-10 -15 -40 -16h-132q-47 0 -67 54l-41 96l-66 -96 q-39 -53 -79 -54h-140q-27 1 -33 17z" />
<glyph unicode="&#x175;" horiz-adv-x="1523" d="M131 1008q-4 25 12.5 39t44.5 14h166q47 0 54 -53l77 -559q4 -29 4 -101q8 31 37 101l226 559q23 53 63 53h172q45 0 53 -53l62 -559q6 -57 6 -99q12 51 33 99l215 559q23 53 65 53h144q51 0 50 -30q0 -10 -5 -23l-389 -959q-12 -31 -23.5 -40t-36.5 -9h-213 q-27 0 -35 10t-12 39l-57 504q-6 55 -6 111l-41 -111l-211 -504q-10 -29 -22.5 -39t-37.5 -10h-207q-25 0 -34 10t-13 39zM602 1207q-1 4 -1 8q0 13 15 30l179 209q43 53 92 53h102q41 0 76 -53l129 -209q10 -13 10 -24q0 -7 -5 -14q-11 -15 -40 -15h-133q-37 0 -65 53 l-43 96l-64 -96q-37 -53 -80 -53h-137q-29 0 -35 15z" />
<glyph unicode="&#x176;" horiz-adv-x="1159" d="M201 1395q-3 10 -4 18q0 12 8 21q12 14 41 14h205q43 0 59 -53l143 -486q10 -35 23 -112q33 86 51 112l283 486q31 53 69 53h189q41 0 41 -24q0 -12 -11 -29l-505 -842l-62 -500q-6 -53 -55 -53h-187q-48 0 -47 43v10l58 467zM477 1571q-2 4 -1 8q0 13 13 29l183 209 q43 53 90 53h100q43 0 78 -53l131 -209q8 -13 8 -24q0 -8 -4 -14q-10 -15 -41 -16h-131q-47 0 -67 54l-41 96l-66 -96q-39 -53 -80 -54h-137q-29 1 -35 17z" />
<glyph unicode="&#x177;" horiz-adv-x="1007" d="M145 1008q-2 6 -1 11q0 15 12 27q16 15 47 15h174q18 0 29.5 -7t15.5 -17.5t8 -28.5l98 -488q16 -82 17 -182q35 104 65 174l228 496q23 53 65 53h162q31 0 44 -14q7 -7 7 -18q0 -9 -6 -21l-639 -1383q-27 -53 -65 -53h-134q-50 0 -50 31q0 10 5 22l148 346zM347 1207 q-2 4 -2 9q0 13 15 29l179 209q43 53 92 53h102q43 0 76 -53l131 -209q8 -13 8 -24q0 -8 -4 -14q-10 -15 -41 -15h-133q-37 0 -65 53l-43 96l-64 -96q-35 -53 -80 -53h-137q-27 0 -34 15z" />
<glyph unicode="&#x178;" horiz-adv-x="1159" d="M201 1395q-3 10 -4 18q0 12 8 21q12 14 41 14h205q43 0 59 -53l143 -486q10 -35 23 -112q33 86 51 112l283 486q31 53 69 53h189q41 0 41 -24q0 -12 -11 -29l-505 -842l-62 -500q-6 -53 -55 -53h-187q-48 0 -47 43v10l58 467zM510 1612l25 198q6 55 57 56h104 q44 0 44 -44q0 -5 -1 -12l-24 -198q-6 -53 -58 -53h-104q-44 0 -44 39q0 7 1 14zM807 1612l24 198q6 55 60 56h104q42 0 42 -41q0 -7 -1 -15l-22 -198q-6 -53 -58 -53h-104q-46 0 -46 42q0 5 1 11z" />
<glyph unicode="&#x179;" horiz-adv-x="1056" d="M76 53l18 135q2 25 21 48l653 974h-459q-48 0 -47 43v11l17 133q6 51 59 51h758q48 0 48 -39q0 -6 -1 -12l-17 -133q-2 -16 -22 -52l-655 -974h534q53 0 47 -50l-16 -135q-6 -53 -58 -53h-831q-55 0 -49 53zM608 1608l131 209q35 53 78 53h191q27 0 32 -15q2 -4 2 -7 q0 -13 -14 -31l-180 -226q-29 -37 -74 -37h-143q-35 0 -35 21q0 13 12 33z" />
<glyph unicode="&#x17a;" horiz-adv-x="948" d="M74 51l16 125q2 27 19 45l509 613h-358q-55 0 -49 51l14 125q6 51 62 51h647q46 0 46 -37q0 -6 -1 -12l-14 -125q-2 -23 -17 -41l-516 -619h436q53 0 47 -51l-14 -125q-6 -51 -59 -51h-721q-53 0 -47 51zM498 1245l129 209q33 53 78 53h192q27 0 33 -14q1 -3 1 -7 q0 -13 -16 -32l-180 -225q-33 -37 -73 -37h-142q-34 0 -34 21q1 13 12 32z" />
<glyph unicode="&#x17b;" horiz-adv-x="1056" d="M76 53l18 135q2 25 21 48l653 974h-459q-48 0 -47 43v11l17 133q6 51 59 51h758q48 0 48 -39q0 -6 -1 -12l-17 -133q-2 -16 -22 -52l-655 -974h534q53 0 47 -50l-16 -135q-6 -53 -58 -53h-831q-55 0 -49 53zM586 1612l20 176q8 53 58 53h184q44 0 44 -42q0 -5 -1 -11 l-23 -176q-6 -51 -55 -51h-182q-29 0 -39 11q-7 8 -7 25q0 7 1 15z" />
<glyph unicode="&#x17c;" horiz-adv-x="948" d="M74 51l16 125q2 27 19 45l509 613h-358q-55 0 -49 51l14 125q6 51 62 51h647q46 0 46 -37q0 -6 -1 -12l-14 -125q-2 -23 -17 -41l-516 -619h436q53 0 47 -51l-14 -125q-6 -51 -59 -51h-721q-53 0 -47 51z" />
<glyph unicode="&#x17d;" horiz-adv-x="1056" d="M76 53l18 135q2 25 21 48l653 974h-459q-48 0 -47 43v11l17 133q6 51 59 51h758q48 0 48 -39q0 -6 -1 -12l-17 -133q-2 -16 -22 -52l-655 -974h534q53 0 47 -50l-16 -135q-6 -53 -58 -53h-831q-55 0 -49 53zM456 1855q11 14 38 15h133q43 0 65 -51l43 -99l64 99 q35 51 82 51h135q29 0 35 -15q1 -3 1 -7q0 -12 -16 -29l-178 -211q-43 -53 -92 -54h-102q-41 0 -76 56l-129 209q-8 13 -8 22q0 8 5 14z" />
<glyph unicode="&#x17e;" horiz-adv-x="948" d="M74 51l16 125q2 27 19 45l509 613h-358q-55 0 -49 51l14 125q6 51 62 51h647q46 0 46 -37q0 -6 -1 -12l-14 -125q-2 -23 -17 -41l-516 -619h436q53 0 47 -51l-14 -125q-6 -51 -59 -51h-721q-53 0 -47 51zM330 1493q10 14 39 14h133q45 0 67 -51l39 -96l68 96q33 51 78 51 h139q27 0 34 -14q2 -4 2 -8q0 -12 -16 -29l-180 -211q-45 -53 -92 -53h-100q-43 0 -76 55l-133 209q-7 12 -7 22q0 8 5 15z" />
<glyph unicode="&#x17f;" horiz-adv-x="741" d="M154 891l12 104q2 25 15.5 36t41.5 16l109 10h6l18 127q37 313 486 313h28q48 0 48 -43v-10l-15 -121q-6 -53 -61 -53h-21q-176 0 -188 -117l-191 -1528q-6 -53 -55 -53h-176q-48 0 -48 43q0 5 1 10l151 1213h-114q-48 0 -48 42q0 5 1 11z" />
<glyph unicode="&#x192;" horiz-adv-x="1226" d="M70 -397l16 123q6 53 57 53h39q180 0 205 117l188 806h-131q-44 0 -44 39q0 6 1 13l13 116q6 53 59 54h152l63 268q37 154 152.5 234.5t339.5 80.5h55q48 0 48 -42q0 -5 -1 -11l-14 -123q-6 -53 -62 -53h-43q-172 0 -200 -115l-60 -239h154q55 0 49 -52l-16 -118 q-6 -51 -60 -52h-174l-194 -839q-74 -311 -494 -312h-53q-46 0 -46 41q0 6 1 11z" />
<glyph unicode="&#x1fa;" horiz-adv-x="1179" d="M37 53l561 1342q23 53 74 53h186q49 0 57 -53l236 -1342q2 -8 2 -15q0 -38 -47 -38h-188q-47 0 -58 53l-43 260h-395l-107 -260q-18 -53 -67 -53h-178q-40 0 -41 26q1 11 8 27zM514 541h270l-41 237q-17 100 -16 335v54q-80 -311 -111 -387zM541 1661q0 25 2 45l6 49 q16 121 156 154l53 92q29 53 82 53h188q29 0 34 -15q1 -3 1 -7q0 -13 -14 -31l-99 -119q70 -37 70 -106q0 -8 -2 -29l-6 -64q-14 -162 -242 -161q-111 0 -170 39t-59 100zM692 1692q0 -53 82 -54q86 0 90 64l2 33v14q0 49 -80 49q-88 0 -92 -63l-2 -33v-10z" />
<glyph unicode="&#x1fb;" d="M135 242q0 14 4 53l60 471q37 311 338 311q190 0 327 -116l10 47q8 29 19.5 41t40.5 12h170q46 0 46 -43q0 -5 -1 -10l-119 -953q-6 -55 -59 -55h-164q-45 0 -45 55l2 47q-172 -119 -346 -118q-137 0 -210 67.5t-73 190.5zM420 307q0 -82 106 -82q104 0 258 97l52 415 q-119 98 -234 98.5t-131 -110.5l-49 -389q-2 -11 -2 -29zM496 1298q0 25 2 45l6 50q16 127 160 153l92 152q35 53 80 53h190q29 0 34 -15q1 -3 1 -7q0 -13 -14 -31l-142 -176q70 -39 70 -107q0 -10 -2 -31l-6 -63q-14 -162 -240 -162q-111 0 -171 39t-60 100zM647 1329 q0 -53 82 -53q88 0 90 63l2 33v14q0 49 -80 50q-90 0 -92 -64l-2 -33v-10z" />
<glyph unicode="&#x1fc;" horiz-adv-x="1777" d="M35 15q-5 6 -5 14q0 11 11 24l963 1344q39 51 86 51h710q53 0 47 -51l-18 -129q-6 -51 -57 -51h-492l-45 -355h457q55 0 49 -51l-17 -121q-6 -53 -59 -53h-457l-49 -406h512q55 0 49 -49l-16 -131q-6 -51 -59 -51h-734q-50 0 -49 45v10l33 258h-387l-184 -260 q-41 -53 -70 -53h-180q-27 0 -39 15zM670 541h254l53 450q-47 -80 -88 -139zM1141 1608l131 209q35 53 78 53h190q27 0 33 -15q2 -4 1 -7q0 -13 -13 -31l-181 -226q-29 -37 -73 -37h-144q-35 0 -34 21q0 13 12 33z" />
<glyph unicode="&#x1fd;" horiz-adv-x="1671" d="M121 213q0 20 2 37l14 100q14 115 102.5 189.5t247.5 74.5h293l17 127q4 29 4 37q0 94 -148 94q-90 0 -127 -22.5t-47 -83.5l-4 -23q-8 -53 -59 -53h-156q-46 0 -46 43q0 5 1 10l2 27q25 307 453 307q197 0 282 -90q113 90 318 90q199 0 299 -70.5t100 -199.5 q0 -29 -2 -43l-29 -246q-6 -49 -55 -49h-547l-18 -154q0 -6 -1 -12t-2 -10t-1 -6q0 -94 157 -94q88 0 127 26.5t50 81.5l4 21q10 53 61 53h146q47 0 45 -53l-2 -31q-10 -147 -114 -227t-333 -80q-279 0 -371 133q-162 -133 -356 -133q-137 0 -222 61.5t-85 167.5zM401 276 q0 -74 97 -73q102 0 243 96l17 119h-242q-98 0 -110 -92l-5 -39v-11zM870 1245l129 209q33 53 78 53h193q27 0 33 -14t-15 -39l-180 -225q-33 -37 -74 -37h-141q-34 0 -34 21q0 13 11 32zM1059 655h334l12 97v18q0 98 -152 98q-164 0 -180 -116z" />
<glyph unicode="&#x1fe;" horiz-adv-x="1288" d="M162 291q0 12 4 53l94 774q18 154 148.5 251t402.5 97q164 0 274 -43l29 45q33 55 72 56h63q28 0 28 -20q0 -13 -13 -36l-68 -106q100 -80 100 -205q0 -35 -2 -53l-92 -774q-18 -152 -150 -249t-405 -97q-160 0 -276 41l-27 -41q-33 -55 -74 -56h-63q-18 0 -21.5 16.5 t11.5 39.5l63 102q-98 78 -98 205zM463 414l483 780q-55 33 -155 33q-104 0 -172 -42t-76 -118zM512 254q55 -33 160 -33q225 0 243 160l84 661zM725 1608l129 209q35 53 80 53h188q29 0 34 -15q1 -3 1 -6q0 -13 -14 -32l-180 -226q-27 -37 -74 -37h-144q-34 0 -33 20 q0 13 13 34z" />
<glyph unicode="&#x1ff;" horiz-adv-x="1128" d="M137 262q0 23 2 37l56 465q37 313 491 313q115 0 213 -26l23 32q37 55 71 56h64q25 0 25 -17q0 -14 -17 -39l-55 -82q109 -78 108 -198q0 -25 -2 -39l-57 -465q-39 -315 -490 -315q-123 0 -217 26l-20 -28q-33 -53 -76 -54h-57q-16 0 -20.5 9.5t-1.5 20.5t13 24l54 77 q-107 76 -107 203zM420 328l342 516q-37 12 -94 12q-180 0 -195 -115zM487 215q33 -10 101 -10q178 0 194 117l52 413zM598 1245l129 209q33 53 78 53h192q27 0 32 -14q1 -3 1 -7q0 -13 -14 -32l-180 -225q-33 -37 -74 -37h-141q-34 0 -34 21q0 13 11 32z" />
<glyph unicode="&#x218;" horiz-adv-x="1216" d="M141 295q0 23 4 49l15 121q6 55 57 55h178q46 0 46 -44q0 -5 -1 -11l-10 -82q-2 -16 -2 -41q0 -129 211 -129q219 0 242 156l8 59q2 14 2 31q0 25 -13.5 45t-41 36.5t-50 28t-57.5 25.5l-297 117q-82 33 -132 99.5t-50 150.5q0 8 4 51l12 106q41 348 518 348 q238 0 348.5 -87t110.5 -218q0 -20 -2 -43l-8 -88q-6 -53 -59 -53h-179q-46 0 -45 42v11l6 49q2 18 2 23q0 133 -194 133q-209 0 -223 -156l-2 -20q-2 -18 -2 -35q0 -61 71 -88l353 -133q219 -82 219 -277q0 -12 -4 -51l-15 -145q-18 -154 -144 -250t-396 -96 q-246 0 -363 88t-117 223zM401 -459q41 78 56.5 117t25.5 117l9 65q6 53 57 54h133q44 0 44 -40q0 -6 -1 -14l-12 -82q-6 -61 -25.5 -114.5t-40 -84t-61.5 -83.5q-22 -30 -52 -30q-9 0 -20 3l-96 23q-31 7 -32 30q0 16 15 39z" />
<glyph unicode="&#x219;" horiz-adv-x="1003" d="M109 223q0 14 2 35l6 49q6 49 55 49h158q42 0 41 -38v-11l-2 -24q-2 -16 -2 -27q0 -76 159 -76q174 0 185 86l2 15q2 18 2 36q0 41 -84 72l-291 111q-143 55 -143 202q0 14 2 39l6 66q10 117 111.5 193.5t316.5 76.5q195 0 291 -73.5t96 -180.5q0 -12 -2 -32l-4 -37 q-6 -49 -56 -49h-157q-45 0 -43 49l2 26q2 20 2 29q0 74 -141 74q-150 0 -162 -82l-2 -13q-2 -12 -2 -26q0 -49 53 -68l295 -106q176 -63 176 -199q0 -18 -4 -51l-10 -94q-12 -115 -121 -187.5t-328 -72.5q-201 0 -304 68.5t-103 170.5zM303 -457q41 78 56.5 117t25.5 117 l8 65q8 53 58 54h133q44 0 44 -40q0 -6 -1 -14l-11 -80q-8 -63 -27.5 -116.5t-40 -84t-61.5 -83.5q-20 -30 -51 -30q-10 0 -20 3l-97 23q-31 7 -31 30q0 16 15 39z" />
<glyph unicode="&#x237;" horiz-adv-x="528" d="M-170 -377l16 121q6 55 60 55h20q174 0 189 115l135 1094q6 53 57 53h176q46 0 46 -40q0 -6 -1 -13l-139 -1123q-18 -156 -133 -234.5t-350 -78.5h-27q-55 0 -49 51z" />
<glyph unicode="&#x2c6;" horiz-adv-x="753" d="M225 1207q-2 4 -1 8q0 13 14 30l180 209q43 53 92 53h100q43 0 78 -53l129 -209q10 -13 10 -24q0 -7 -5 -14q-11 -15 -40 -15h-133q-41 0 -65 53l-43 96l-64 -96q-37 -53 -82 -53h-135q-29 0 -35 15z" />
<glyph unicode="&#x2c7;" horiz-adv-x="753" d="M262 1493q10 14 39 14h133q45 0 66 -51l41 -96l65 96q35 51 80 51h137q29 0 35 -14q2 -4 2 -8q0 -12 -14 -29l-182 -211q-43 -53 -91 -53h-100q-43 0 -78 55l-131 209q-7 12 -7 22q0 8 5 15z" />
<glyph unicode="&#x2d8;" horiz-adv-x="886" d="M190 1382q0 27 3 45l4 31q6 45 53 45h106q40 0 40 -32q0 -6 -1 -13l-4 -39v-16q0 -74 88 -74q100 0 107 96l2 33q2 45 53 45h107q47 0 40 -45l-4 -26q-20 -135 -93 -201t-222 -66q-129 0 -204 56.5t-75 160.5z" />
<glyph unicode="&#x2d9;" horiz-adv-x="528" d="M279 1270l22 172q6 53 57 53h183q29 0 38 -11q6 -8 6 -25q0 -8 -1 -17l-21 -172q-8 -53 -55 -53h-184q-46 0 -46 42q0 5 1 11z" />
<glyph unicode="&#x2da;" horiz-adv-x="759" d="M307 1298q0 25 2 45l6 50q18 162 248 161q109 0 166 -38.5t57 -100.5q0 -10 -2 -31l-6 -63q-16 -162 -241 -162q-111 0 -170.5 39t-59.5 100zM459 1329q0 -53 80 -53q88 0 92 63l2 33v14q0 49 -82 50q-86 0 -90 -64l-2 -33v-10z" />
<glyph unicode="&#x2db;" horiz-adv-x="493" d="M23 -211q0 139 139 279q38 38 66 38q5 0 10 -2l90 -20q40 -10 40 -29q0 -14 -20 -32q-104 -96 -104 -168q0 -51 71 -52h66q48 0 48 -38q0 -6 -1 -13l-10 -80q-6 -51 -60 -51h-137q-86 0 -142 44t-56 124z" />
<glyph unicode="&#x2dc;" horiz-adv-x="868" d="M221 1243l21 90q18 80 72.5 122t128 42t128.5 -29l84 -45q55 -29 72 -28q35 0 47 49l4 12q16 47 62 47h94q39 0 39 -39q0 -10 -2 -22l-19 -80q-41 -168 -190 -168q-72 0 -139 31l-93 45q-55 23 -71 22q-33 0 -43 -43l-6 -20q-16 -47 -62 -47h-90q-40 0 -40 37q0 11 3 24z " />
<glyph unicode="&#x2dd;" horiz-adv-x="860" d="M231 1245l117 209q29 53 78 53h156q27 0 36 -14t-10 -39l-139 -209q-37 -53 -78 -53h-129q-40 0 -40 24q0 12 9 29zM543 1245l147 209q39 53 88 53h156q27 0 32 -14q1 -3 1 -7q0 -13 -15 -32l-172 -211q-39 -51 -86 -51h-129q-36 0 -35 21q0 12 13 32z" />
<glyph unicode="&#x394;" horiz-adv-x="851" d="M180 492v385q0 53 51 53h390q51 0 51 -53v-385q0 -53 -51 -54h-390q-51 1 -51 54z" />
<glyph unicode="&#x3a9;" horiz-adv-x="851" d="M137 682q0 119 85 205t202 86q119 0 204 -86t85 -205q0 -117 -85 -203t-204 -86q-117 0 -202 85t-85 204zM178 682q0 -104 70.5 -175t175.5 -71q102 0 175 72t73 174t-73 175t-175 73t-174 -73t-72 -175z" />
<glyph unicode="&#x3bc;" d="M68 -375l170 1383q8 53 61 53h172q48 0 48 -43q0 -5 -1 -10l-80 -664q-4 -37 -4 -41q0 -41 23.5 -60.5t79.5 -19.5q119 0 247 94l82 691q6 53 60 53h178q46 0 46 -43q0 -5 -1 -10l-119 -955q-6 -53 -59 -53h-164q-27 0 -37 11.5t-8 41.5l2 47q-160 -117 -322 -116 q-49 0 -65 16l-29 -375q-4 -53 -59 -53h-176q-46 0 -46 42q0 5 1 11z" />
<glyph unicode="&#x3c0;" horiz-adv-x="851" d="M103 933q0 11 5 18q7 11 23 12h584q18 0 26 -12q7 -9 7 -22v-6q-2 -17 -13 -34l-272 -443q-16 -20 -38 -20t-36 20l-272 443q-14 23 -14 44z" />
<glyph unicode="&#x1e80;" horiz-adv-x="1783" d="M201 1395q-1 6 -1 10q0 43 48 43h186q49 0 55 -53l93 -725q6 -49 10 -181q27 88 59 181l273 725q20 53 71 53h172q49 0 56 -53l92 -723q10 -96 10 -213q20 102 61 211l271 725q18 53 69 53h166q36 0 36 -28q0 -11 -5 -25l-502 -1342q-20 -53 -71 -53h-181q-49 0 -55 53 l-94 742q-7 53 -7 131q0 32 1 67q-31 -139 -53 -198l-279 -742q-20 -53 -74 -53h-180q-49 0 -55 53zM812 1855q9 14 38 15h180q45 0 68 -53l78 -209q6 -14 5 -24q0 -27 -40 -28h-133q-47 0 -64 35l-129 226q-7 14 -7 24q0 8 4 14z" />
<glyph unicode="&#x1e81;" horiz-adv-x="1523" d="M135 1008q-2 7 -2 12q0 16 12 27q16 14 45 14h166q47 0 54 -53l77 -559q4 -29 5 -101q8 31 36 101l226 559q23 53 63 53h172q45 0 53 -53l62 -559q6 -57 6 -99q12 51 33 99l217 559q20 53 63 53h144q51 0 50 -30q0 -10 -5 -23l-389 -959q-12 -31 -23.5 -40t-36.5 -9h-213 q-27 0 -35 10t-12 39l-57 504q-6 55 -6 111l-41 -111l-211 -504q-10 -29 -22.5 -39t-37.5 -10h-206q-25 0 -34 10t-14 39zM634 1493q9 14 38 14h180q45 0 66 -53l79 -209q5 -14 6 -24q0 -29 -42 -29h-132q-45 0 -65 37l-127 225q-7 14 -7 25q0 8 4 14z" />
<glyph unicode="&#x1e82;" horiz-adv-x="1783" d="M201 1395q-1 6 -1 10q0 43 48 43h186q49 0 55 -53l93 -725q6 -49 10 -181q27 88 59 181l273 725q20 53 71 53h172q49 0 56 -53l92 -723q10 -96 10 -213q20 102 61 211l271 725q18 53 69 53h166q36 0 36 -28q0 -11 -5 -25l-502 -1342q-20 -53 -71 -53h-181q-49 0 -55 53 l-94 742q-7 53 -7 131q0 32 1 67q-31 -139 -53 -198l-279 -742q-20 -53 -74 -53h-180q-49 0 -55 53zM991 1608l129 209q35 53 80 53h189q29 0 33 -15q1 -3 1 -6q0 -13 -14 -32l-180 -226q-27 -37 -74 -37h-143q-34 0 -34 20q0 13 13 34z" />
<glyph unicode="&#x1e83;" horiz-adv-x="1523" d="M135 1008q-2 7 -2 12q0 16 12 27q16 14 45 14h166q47 0 54 -53l77 -559q4 -29 5 -101q8 31 36 101l226 559q23 53 63 53h172q45 0 53 -53l62 -559q6 -57 6 -99q12 51 33 99l217 559q20 53 63 53h144q51 0 50 -30q0 -10 -5 -23l-389 -959q-12 -31 -23.5 -40t-36.5 -9h-213 q-27 0 -35 10t-12 39l-57 504q-6 55 -6 111l-41 -111l-211 -504q-10 -29 -22.5 -39t-37.5 -10h-206q-25 0 -34 10t-14 39zM813 1245l129 209q33 53 78 53h192q27 0 32 -14q1 -3 1 -7q0 -13 -14 -32l-180 -225q-33 -37 -74 -37h-141q-34 0 -34 21q0 13 11 32z" />
<glyph unicode="&#x1e84;" horiz-adv-x="1783" d="M201 1395q-1 6 -1 10q0 43 48 43h186q49 0 55 -53l93 -725q6 -49 10 -181q27 88 59 181l273 725q20 53 71 53h172q49 0 56 -53l92 -723q10 -96 10 -213q20 102 61 211l271 725q18 53 69 53h166q36 0 36 -28q0 -11 -5 -25l-502 -1342q-20 -53 -71 -53h-181q-49 0 -55 53 l-94 742q-7 53 -7 131q0 32 1 67q-31 -139 -53 -198l-279 -742q-20 -53 -74 -53h-180q-49 0 -55 53zM831 1612l25 198q6 55 57 56h105q44 0 44 -44q0 -5 -1 -12l-25 -198q-6 -53 -57 -53h-105q-44 0 -44 39q0 7 1 14zM1128 1612l25 198q6 55 59 56h105q44 0 44 -44 q0 -5 -1 -12l-25 -198q-6 -53 -57 -53h-104q-46 0 -46 42q-1 5 0 11z" />
<glyph unicode="&#x1e85;" horiz-adv-x="1523" d="M135 1008q-2 7 -2 12q0 16 12 27q16 14 45 14h166q47 0 54 -53l77 -559q4 -29 5 -101q8 31 36 101l226 559q23 53 63 53h172q45 0 53 -53l62 -559q6 -57 6 -99q12 51 33 99l217 559q20 53 63 53h144q51 0 50 -30q0 -10 -5 -23l-389 -959q-12 -31 -23.5 -40t-36.5 -9h-213 q-27 0 -35 10t-12 39l-57 504q-6 55 -6 111l-41 -111l-211 -504q-10 -29 -22.5 -39t-37.5 -10h-206q-25 0 -34 10t-14 39zM647 1253l25 197q6 53 59 53h105q42 0 42 -39q0 -7 -1 -14l-23 -197q-6 -53 -57 -53h-105q-46 0 -45 43q-1 4 0 10zM946 1253l23 197q6 53 59 53h102 q46 0 46 -42v-11l-25 -197q-8 -53 -57 -53h-103q-46 0 -45 43q-1 4 0 10z" />
<glyph unicode="&#x1ef2;" horiz-adv-x="1159" d="M201 1395q-3 10 -4 18q0 12 8 21q12 14 41 14h205q43 0 59 -53l143 -486q10 -35 23 -112q33 86 51 112l283 486q31 53 69 53h189q41 0 41 -24q0 -12 -11 -29l-505 -842l-62 -500q-6 -53 -55 -53h-187q-48 0 -47 43v10l58 467zM510 1855q10 14 37 15h182q45 0 66 -53 l77 -209q7 -15 7 -26q0 -26 -39 -26h-135q-47 0 -64 35l-127 226q-8 14 -8 25q0 7 4 13z" />
<glyph unicode="&#x1ef3;" horiz-adv-x="1007" d="M145 1008q-2 6 -1 11q0 15 12 27q16 15 47 15h174q18 0 29.5 -7t15.5 -17.5t8 -28.5l98 -488q16 -82 17 -182q35 104 65 174l228 496q23 53 65 53h162q31 0 44 -14q7 -7 7 -18q0 -9 -6 -21l-639 -1383q-27 -53 -65 -53h-134q-50 0 -50 31q0 10 5 22l148 346zM370 1493 q9 14 38 14h180q45 0 65 -53l80 -209q5 -14 6 -24q0 -29 -43 -29h-131q-45 0 -65 37l-127 225q-7 14 -7 25q0 8 4 14z" />
<glyph unicode="&#x2000;" horiz-adv-x="1026" />
<glyph unicode="&#x2001;" horiz-adv-x="2054" />
<glyph unicode="&#x2002;" horiz-adv-x="1026" />
<glyph unicode="&#x2003;" horiz-adv-x="2054" />
<glyph unicode="&#x2004;" horiz-adv-x="684" />
<glyph unicode="&#x2005;" horiz-adv-x="512" />
<glyph unicode="&#x2006;" horiz-adv-x="342" />
<glyph unicode="&#x2007;" horiz-adv-x="342" />
<glyph unicode="&#x2008;" horiz-adv-x="256" />
<glyph unicode="&#x2009;" horiz-adv-x="409" />
<glyph unicode="&#x200a;" horiz-adv-x="112" />
<glyph unicode="&#x2010;" horiz-adv-x="927" d="M190 551v127q0 51 54 51h569q53 0 53 -51v-127q0 -51 -53 -51h-569q-54 0 -54 51z" />
<glyph unicode="&#x2011;" horiz-adv-x="927" d="M190 551v127q0 51 54 51h569q53 0 53 -51v-127q0 -51 -53 -51h-569q-54 0 -54 51z" />
<glyph unicode="&#x2012;" horiz-adv-x="927" d="M190 551v127q0 51 54 51h569q53 0 53 -51v-127q0 -51 -53 -51h-569q-54 0 -54 51z" />
<glyph unicode="&#x2013;" horiz-adv-x="1134" d="M190 551v127q0 51 54 51h776q53 0 53 -51v-127q0 -51 -53 -51h-776q-54 0 -54 51z" />
<glyph unicode="&#x2014;" horiz-adv-x="1794" d="M190 551v127q0 51 54 51h1437q53 0 54 -51v-127q0 -51 -54 -51h-1437q-54 0 -54 51z" />
<glyph unicode="&#x2018;" horiz-adv-x="589" d="M236 1128l22 158q14 129 99 204t245 112q15 3 26 3t17 -3q12 -6 19 -35l30 -119q2 -7 2 -14q0 -36 -47 -52q-100 -33 -108 -110l-19 -144q-6 -53 -59 -53h-182q-46 0 -46 43q0 4 1 10z" />
<glyph unicode="&#x2019;" horiz-adv-x="589" d="M207 1229q-2 7 -2 14q0 36 47 51q100 33 108 111l19 143q6 53 59 54h183q44 0 44 -40q0 -6 -1 -14l-21 -157q-14 -127 -99 -203t-245 -113q-15 -3 -26 -3t-17 3q-12 6 -20 35z" />
<glyph unicode="&#x201a;" horiz-adv-x="589" d="M39 -94q-2 7 -2 14q0 36 47 51q98 33 109 113l18 141q6 53 59 54h181q46 0 45 -43v-11l-21 -157q-14 -127 -100 -203t-246 -113q-14 -3 -24.5 -3t-17.5 3q-13 6 -19 35z" />
<glyph unicode="&#x201c;" horiz-adv-x="1052" d="M236 1128l22 158q14 129 99 204t245 112q15 3 26 3t17 -3q12 -6 19 -35l30 -119q2 -7 2 -14q0 -36 -47 -52q-100 -33 -108 -110l-19 -144q-6 -53 -59 -53h-182q-46 0 -46 43q0 4 1 10zM700 1128l23 158q14 129 99 204t245 112q15 3 26 3t17 -3q12 -6 18 -35l31 -119 q2 -7 2 -14q0 -36 -47 -52q-100 -33 -108 -110l-19 -144q-8 -53 -61 -53h-181q-46 0 -45 43q-1 4 0 10z" />
<glyph unicode="&#x201d;" horiz-adv-x="1052" d="M207 1229q-2 7 -2 14q0 36 47 51q100 33 108 111l19 143q6 53 59 54h183q44 0 44 -40q0 -6 -1 -14l-21 -157q-14 -127 -99 -203t-245 -113q-15 -3 -26 -3t-17 3q-12 6 -20 35zM672 1229q-2 9 -2 16q0 34 45 49q100 33 108 111l21 143q6 53 59 54h180q46 0 46 -43 q0 -5 -1 -11l-20 -157q-14 -127 -100 -203t-246 -113q-14 -3 -24.5 -3t-17.5 3q-13 6 -20 35z" />
<glyph unicode="&#x201e;" horiz-adv-x="1052" d="M39 -94q-2 7 -2 14q0 36 47 51q98 33 109 113l18 141q6 53 59 54h181q46 0 45 -43v-11l-21 -157q-14 -127 -100 -203t-246 -113q-14 -3 -24.5 -3t-17.5 3q-13 6 -19 35zM502 -94q-2 7 -2 14q0 36 47 51q100 33 108 113l21 141q6 53 59 54h180q46 0 46 -43v-11l-21 -157 q-16 -127 -101 -203t-245 -113q-14 -3 -24.5 -3t-17.5 3q-13 6 -20 35z" />
<glyph unicode="&#x2020;" horiz-adv-x="1443" d="M260 918l14 129q6 49 60 49h268q53 0 47 -49l-12 -129q-6 -53 -59 -54h-271q-48 0 -48 43q0 5 1 11zM590 55l168 1379q6 55 59 55h178q42 0 42 -41q0 -7 -1 -14l-168 -1379q-6 -55 -57 -55h-176q-46 0 -46 44q0 5 1 11zM1032 918l15 129q6 49 59 49h270q53 0 47 -49 l-16 -129q-6 -53 -59 -54h-269q-48 0 -47 43q-1 5 0 11z" />
<glyph unicode="&#x2021;" horiz-adv-x="1443" d="M203 440l14 127q6 51 59 51h269q31 0 40 -12t7 -39l-14 -127q-6 -53 -58 -53h-270q-48 0 -48 43q0 4 1 10zM262 918l12 129q6 49 62 49h268q53 0 47 -49l-12 -129q-6 -53 -61 -54h-269q-48 0 -47 43q-1 5 0 11zM590 55l168 1379q6 55 59 55h178q46 0 46 -44q0 -5 -1 -11 l-172 -1379q-6 -55 -57 -55h-176q-46 0 -46 44q0 5 1 11zM973 440l16 127q6 51 60 51h270q29 0 39 -12t8 -39l-16 -127q-6 -53 -60 -53h-268q-55 0 -49 53zM1032 918l17 129q6 49 59 49h268q53 0 47 -49l-14 -129q-6 -53 -59 -54h-271q-48 0 -47 43q-1 5 0 11z" />
<glyph unicode="&#x2022;" horiz-adv-x="579" d="M201 424l37 309q8 55 59 55h182q46 0 46 -44q0 -5 -1 -11l-41 -309q-6 -53 -57 -53h-180q-46 0 -46 42q0 5 1 11z" />
<glyph unicode="&#x2026;" horiz-adv-x="1585" d="M129 53l21 172q6 53 59 54h182q44 0 44 -43q0 -5 -1 -11l-20 -172q-6 -53 -58 -53h-182q-46 0 -46 42q0 5 1 11zM657 53l21 172q6 53 59 54h183q44 0 43 -43v-11l-21 -172q-6 -53 -57 -53h-183q-46 0 -45 42q-1 5 0 11zM1184 53l20 172q6 53 60 54h182q44 0 44 -43 q0 -5 -1 -11l-21 -172q-8 -53 -59 -53h-180q-46 0 -46 42q0 5 1 11z" />
<glyph unicode="&#x202f;" horiz-adv-x="409" />
<glyph unicode="&#x2030;" horiz-adv-x="2627" d="M264 983q0 25 2 37l25 207q29 240 354 239q154 0 233.5 -55t79.5 -145q0 -18 -4 -43l-26 -205q-27 -238 -350 -238q-314 0 -314 203zM450 19l-2 10q0 14 11 26l841 1338q37 55 86 55h162q25 0 30 -16.5t-11 -38.5l-846 -1338q-35 -55 -82 -55h-162q-22 0 -27 19z M494 1016q0 -55 98 -55q102 0 110 65l25 191v10q0 55 -100.5 55t-108.5 -63l-24 -191v-12zM1065 182q0 25 2 37l27 207q14 115 96 176.5t256 61.5q154 0 233.5 -54.5t79.5 -144.5q0 -29 -2 -41l-24 -207q-29 -238 -353 -237q-158 0 -236.5 54t-78.5 148zM1296 217 q0 -55 99 -55q102 0 110 65l23 189v12q0 55 -99 55q-102 0 -108 -63l-25 -193v-10zM1845 182q0 25 2 37l25 207q29 238 352 238q156 0 236 -54.5t80 -144.5q0 -29 -3 -41l-28 -207q-27 -238 -350 -237q-314 -1 -314 202zM2077 217q0 -55 98 -55q100 0 109 65l22 189v12 q0 55 -99.5 55t-107.5 -63l-22 -193v-10z" />
<glyph unicode="&#x2039;" horiz-adv-x="837" d="M180 436l23 172q4 39 57 74l432 283q11 7 21 6q8 0 16 -4q16 -10 14 -37l-22 -180q-6 -39 -64 -74l-245 -156l209 -158q49 -37 43 -75l-23 -172q-4 -27 -21 -38q-7 -5 -15 -5q-11 0 -21 10l-363 285q-45 36 -41 69z" />
<glyph unicode="&#x203a;" horiz-adv-x="837" d="M180 115l25 182q4 37 61 74l248 155l-209 158q-49 37 -45 74l23 172q4 29 21 39q7 4 15 4q10 0 21 -8l362 -285q45 -37 41 -72l-20 -172q-6 -39 -59 -71l-433 -283q-11 -8 -21 -8q-8 0 -15 5q-17 11 -15 36z" />
<glyph unicode="&#x2044;" horiz-adv-x="962" d="M9 29q0 14 9 26l844 1338q37 55 86 55h162q23 0 28 -16q1 -4 1 -9q0 -13 -11 -30l-847 -1338q-33 -55 -80 -55h-162q-30 0 -30 29z" />
<glyph unicode="&#x205f;" horiz-adv-x="512" />
<glyph unicode="&#x20ac;" horiz-adv-x="1353" d="M213 539l8 75q6 47 60 48h77l13 118h-74q-53 0 -47 51l8 74q6 51 59 51h74l23 162q41 348 534 348q242 0 355.5 -86t113.5 -219q0 -12 -4 -55l-12 -90q-6 -53 -55 -53h-179q-46 0 -45 42v11l6 41q2 16 2 41q0 129 -200 129q-215 0 -234 -160l-14 -111h199q48 0 48 -38 q0 -6 -1 -13l-8 -74q-6 -51 -62 -51h-199l-14 -118h201q53 0 47 -48l-8 -75q-8 -53 -64 -54h-196l-11 -90q-6 -33 -6 -39q0 -135 201 -135q221 0 238 160l8 82q6 53 59 53h176q44 0 44 -42q0 -5 -1 -11l-14 -133q-37 -346 -535 -346q-244 0 -356.5 86t-112.5 219q0 14 4 55 l17 141h-76q-48 0 -48 43q0 5 1 11z" />
<glyph unicode="&#x2113;" horiz-adv-x="1212" d="M104 504q-4 12 -3 22q0 34 40 49q82 27 181 76l57 463q16 150 131 248t324 98q201 0 293 -88t92 -219q0 -33 -2 -47q-12 -102 -69.5 -190.5t-155 -162t-186.5 -124.5t-220 -113l-17 -123q-2 -18 -2 -49q0 -117 144 -117h241q55 0 49 -51l-18 -125q-6 -51 -57 -51h-244 q-403 0 -403 283v14l8 82q-18 -8 -76 -31q-16 -8 -29 -7q-25 0 -35 30zM618 793q16 10 78 43.5t93.5 55t76.5 59.5t65.5 80t20.5 89q0 113 -135 113q-143 0 -164 -156z" />
<glyph unicode="&#x2122;" horiz-adv-x="1959" d="M266 1294l13 113q6 41 51 41h583q47 0 41 -41l-14 -113q-6 -41 -49 -41h-176l-76 -628q-6 -45 -47 -45h-152q-38 0 -38 32q0 6 1 13l76 628h-174q-45 0 -39 41zM952 625l97 778q6 45 51 45h129q29 0 37 -21l151 -387q14 -37 23 -73q14 33 37 67l241 393q16 20 45 21h144 q36 0 36 -32q0 -6 -1 -13l-95 -778q-6 -45 -47 -45h-141q-45 0 -39 45l49 393l-29 -62l-116 -202q-27 -43 -64 -43h-96q-41 0 -55 43l-76 207q-10 29 -10 69l-52 -405q-6 -45 -47 -45h-131q-47 0 -41 45z" />
<glyph unicode="&#x2126;" horiz-adv-x="851" d="M137 682q0 119 85 205t202 86q119 0 204 -86t85 -205t-85 -204t-204 -85q-117 0 -202 85t-85 204zM176 682q0 -104 71.5 -175t176.5 -71q102 0 175 72t73 174t-73 175t-175 73t-175 -73t-73 -175z" />
<glyph unicode="&#x212e;" horiz-adv-x="1773" d="M221 725q0 305 217 523t524.5 218t523.5 -218t216 -523q0 -35 -39 -35h-1141v-459q184 -174 441 -174q293 0 510 234q10 12 22 12t23.5 -12t11.5 -26.5t-19 -37.5q-96 -113 -241.5 -178t-306.5 -65q-311 0 -526.5 208.5t-215.5 532.5zM522 756h885v456 q-188 178 -444 178.5t-441 -178.5v-456z" />
<glyph unicode="&#x2202;" horiz-adv-x="851" d="M182 397v582q0 29 25.5 33t50.5 -13l440 -272q23 -14 23 -36.5t-23 -37.5l-440 -272q-16 -10 -33.5 -12t-30 4t-12.5 24z" />
<glyph unicode="&#x2206;" horiz-adv-x="851" d="M178 492v385q0 53 55 53h388q51 0 51 -53v-385q0 -53 -51 -54h-388q-55 1 -55 54z" />
<glyph unicode="&#x220f;" horiz-adv-x="851" d="M104 452q0 20 13 40l272 442q14 20 37 20t37 -20l272 -442q14 -21 14 -43v-8q-3 -26 -32 -25h-580q-33 0 -33 36z" />
<glyph unicode="&#x2211;" horiz-adv-x="851" d="M131 690.5q0 22.5 23 36.5l440 272q20 13 40 14q5 0 10 -1q26 -4 26 -33v-582q0 -18 -13 -24q-9 -5 -21 -5q-4 0 -8 1q-17 2 -34 12l-440 272q-23 15 -23 37.5z" />
<glyph unicode="&#x2212;" horiz-adv-x="1236" d="M203 635v125q0 51 53 51h874q55 0 56 -51v-125q0 -53 -56 -53h-874q-53 0 -53 53z" />
<glyph unicode="&#x221a;" horiz-adv-x="851" d="M160 492v385q0 41 17.5 57t53.5 16h390q37 0 54 -16t17 -57v-385q0 -74 -71 -74h-390q-71 0 -71 74zM201 492q0 -33 30 -33h390q29 0 28 33v385q0 31 -28 30h-390q-31 0 -30 -30v-385z" />
<glyph unicode="&#x221e;" horiz-adv-x="851" d="M72 684q0 23 28 51l275 275q27 25 51.5 24.5t50.5 -24.5l275 -275q27 -27 26 -51q0 -29 -26 -51l-275 -273q-31 -31 -51 -30.5t-51 30.5l-275 273q-28 24 -28 51zM119 682q0 -8 10 -20l277 -275q10 -10 20 -10t20 10l277 275q10 12 10 20q0 12 -12 25l-275 272 q-8 10 -20 10t-20 -10l-275 -272q-12 -13 -12 -25z" />
<glyph unicode="&#x222b;" horiz-adv-x="851" d="M49 682q0 158 109.5 268.5t265.5 110.5t266.5 -110.5t110.5 -268.5q0 -156 -109.5 -265.5t-267.5 -109.5q-156 0 -265.5 108.5t-109.5 266.5z" />
<glyph unicode="&#x2248;" horiz-adv-x="1073" d="M184 731l11 103q8 94 60 140t118 46q57 0 114 -23l193 -88q70 -27 84 -26q33 0 43 65l2 10q10 47 57 48h92q46 0 46 -49v-13l-11 -88q-14 -100 -62 -150.5t-114 -50.5q-70 0 -129 31l-194 90q-43 20 -68 21q-39 0 -47 -66l-2 -14q-6 -27 -19.5 -36t-38.5 -9h-92 q-44 0 -43 47q-1 5 0 12zM184 328l11 102q8 96 60 142t118 46q57 0 114 -24l193 -86q70 -29 84 -29q33 0 43 66l2 10q10 47 57 47h92q46 0 46 -49v-12l-11 -86q-14 -100 -62 -150.5t-114 -50.5q-70 0 -129 29l-194 90q-43 20 -68 20q-39 0 -47 -65l-2 -13q-6 -29 -19.5 -38 t-38.5 -9h-92q-44 0 -43 47q-1 6 0 13z" />
<glyph unicode="&#x2260;" horiz-adv-x="1236" d="M172 406v126q0 49 53 50h267l77 206h-344q-53 0 -53 52v127q0 51 53 51h428l45 117q18 55 66 55h166q42 0 42 -30q0 -11 -5 -25l-45 -117h182q53 0 53 -51v-127q0 -51 -53 -52h-266l-78 -206h344q53 0 53 -50v-126q0 -53 -53 -54h-430l-43 -119q-20 -53 -68 -53h-168 q-38 0 -38 28q0 11 5 25l44 119h-181q-53 1 -53 54z" />
<glyph unicode="&#x2264;" horiz-adv-x="1112" d="M147 805v199q0 39 50 57l757 282q9 3 17 3q14 0 23 -9q15 -14 16 -45v-168q0 -43 -56 -59l-534 -162l534 -162q55 -16 56 -57v-170q0 -31 -15.5 -47t-40.5 -4l-757 285q-18 6 -26.5 10t-16 17.5t-7.5 29.5zM150 201v125q0 51 53 51h751q55 0 56 -51v-125q0 -51 -56 -51 h-751q-53 0 -53 51z" />
<glyph unicode="&#x2265;" horiz-adv-x="1112" d="M147 199v127q0 51 54 51h753q53 0 54 -51v-127q0 -51 -54 -52h-753q-54 1 -54 52zM147 514v170q0 43 54 59l536 160l-536 162q-53 16 -54 59v170q0 31 14 45q8 9 22 10q8 0 18 -3l757 -283q49 -18 50 -59v-199q0 -16 -7.5 -29.5t-16.5 -17.5t-26 -10l-757 -285 q-10 -3 -18 -3q-14 0 -22 9q-14 14 -14 45z" />
<glyph unicode="&#x25ca;" horiz-adv-x="851" d="M96 684q0 18 19 37l274 274q20 18 36.5 18.5t37.5 -18.5l274 -274q16 -16 16.5 -36.5t-16.5 -37.5l-274 -274q-23 -16 -37 -16.5t-37 16.5l-274 274q-19 21 -19 37z" />
<glyph unicode="&#xe000;" horiz-adv-x="1060" d="M0 1060h1060v-1060h-1060v1060z" />
<glyph horiz-adv-x="0" />
<glyph horiz-adv-x="413" d="M61 -72q43 76 58.5 116t25.5 116l9 65q6 53 57 54h131q44 0 44 -40q0 -6 -1 -14l-10 -80q-6 -61 -26.5 -114.5t-41 -85t-59.5 -84.5q-22 -29 -55 -29q-9 0 -19 2l-96 23q-31 8 -32 32q0 16 15 39z" />
<glyph horiz-adv-x="411" d="M-4 1608l129 209q35 53 80 53h188q29 0 34 -15q1 -3 1 -7q0 -13 -12 -31l-183 -226q-27 -37 -73 -37h-144q-34 0 -34 20q1 13 14 34z" />
<glyph horiz-adv-x="411" d="M-98 1651l10 108q6 49 63 49h490q53 0 47 -49l-12 -108q-6 -53 -62 -54h-489q-48 0 -48 43q0 5 1 11z" />
<glyph horiz-adv-x="411" d="M-98 1778q0 12 4 45l4 32q6 45 51 46h107q27 0 35 -10.5t6 -35.5l-5 -40v-15q0 -76 89 -76q94 0 106 97l4 34q2 25 13.5 35.5t37.5 10.5h107q40 0 40 -33q0 -6 -1 -13l-4 -28q-18 -133 -92 -199.5t-224 -66.5q-127 0 -202.5 56.5t-75.5 160.5z" />
<glyph horiz-adv-x="411" d="M-89 1855q11 14 38 15h133q41 0 65 -51l43 -99l64 99q33 51 80 51h137q27 0 34 -15q2 -4 2 -7q0 -12 -15 -29l-179 -211q-43 -53 -92 -54h-102q-43 0 -76 56l-131 209q-6 12 -6 21q0 8 5 15z" />
<glyph horiz-adv-x="411" d="M-31 1661q0 25 2 45l9 49q18 162 245 162q109 0 166.5 -39t57.5 -102q0 -8 -3 -29l-6 -64q-14 -162 -239 -161q-111 0 -171.5 39t-60.5 100zM121 1692q0 -53 82 -54q86 0 92 64l2 33v14q0 49 -82 49q-88 0 -92 -63l-2 -33v-10z" />
<glyph horiz-adv-x="411" d="M-94 1571q-2 4 -2 8q0 13 14 29l182 209q45 53 93 53h98q43 0 78 -53l131 -209q10 -13 9 -25q0 -7 -4 -13q-11 -15 -40 -16h-133q-47 0 -68 54l-41 96l-65 -96q-39 -53 -80 -54h-137q-29 1 -35 17z" />
<glyph horiz-adv-x="411" d="M-166 1626l19 86q20 80 75.5 123t127 43t126.5 -29l86 -45q59 -31 70 -30q35 0 47 51l4 14q18 45 62 45h94q41 0 41 -40q0 -10 -2 -21l-19 -80q-41 -168 -190 -168q-72 0 -142 29l-90 45q-51 25 -73 24q-31 0 -41 -41l-9 -22q-14 -47 -61 -47h-88q-40 0 -40 38q0 11 3 25 z" />
<glyph horiz-adv-x="411" d="M-57 1612l24 198q8 55 58 56h104q44 0 44 -44q0 -5 -1 -12l-22 -198q-6 -53 -58 -53h-104q-46 0 -46 42q0 5 1 11zM242 1612l22 198q6 55 60 56h104q44 0 44 -44q0 -5 -1 -12l-25 -198q-6 -53 -57 -53h-104q-44 0 -44 39q0 7 1 14z" />
<glyph horiz-adv-x="411" d="M55 1612l21 176q8 53 59 53h182q44 0 44 -42q0 -5 -1 -11l-22 -176q-6 -51 -55 -51h-183q-29 0 -39 11q-7 8 -7 25q0 7 1 15z" />
<glyph horiz-adv-x="411" d="M27 1855q10 14 36 15h183q43 0 65 -53l78 -209q7 -15 7 -26q0 -26 -40 -26h-135q-47 0 -63 35l-127 226q-8 14 -9 25q1 7 5 13z" />
<glyph horiz-adv-x="411" d="M-156 1608l113 209q31 53 80 53h156q27 0 35 -14.5t-7 -38.5l-139 -209q-37 -53 -80 -54h-127q-40 0 -40 25q0 12 9 29zM156 1608l145 209q35 53 86 53h158q34 0 33 -21q0 -13 -13 -32l-174 -211q-41 -51 -84 -52h-131q-35 0 -35 20q1 13 15 34z" />
<glyph horiz-adv-x="3143" d="M141 539q0 57 39 101t107 44q41 0 64.5 -20.5t23.5 -45.5q0 -51 -53 -69q-35 -12 -95 -12q4 -47 56 -48q37 0 69 21q16 -12 17 -35q0 -8 -5.5 -18.5t-30 -20.5t-65.5 -10q-59 0 -93 31t-34 82zM150 0v16h2848v-16h-2848zM150 1126v17h2848v-17h-2848zM225 563q80 0 80 43 q0 29 -29 29q-43 0 -51 -72zM408 668q51 16 67 16q23 0 23 -20v-84q6 18 16 39.5t32.5 43t47.5 21.5q61 0 61 -68v-36q31 104 97 104q59 0 59 -68v-104l6 -70q-51 -16 -65 -16q-23 0 -23 16v142q0 35 -18 34q-12 0 -34 -37.5t-22 -64.5l4 -74q-51 -16 -65 -16q-23 0 -23 16 v142q0 35 -18 34q-14 0 -34.5 -37.5t-20.5 -64.5l6 -74q-49 -16 -68 -16q-23 0 -22 16v148zM801 702v9q0 43 26 43h35l-6 63q51 18 68 19q25 0 24 -19v-61h101v-6q0 -45 -27 -45h-74v-183q0 -35 27 -35q20 0 40.5 17.5t20.5 38.5v53l-6 72q51 16 70 16q23 0 22 -20v-140 q0 -33 15 -32q18 0 37.5 37.5t17.5 64.5l-4 74q51 16 67 16q23 0 23 -20v-209l53 6v129l-6 78q51 16 68 16q25 0 24 -20v-84q35 102 99 102q37 0 61.5 -28.5t24.5 -80.5q0 -145 -185 -145v-86l6 -68q-51 -16 -69 -16q-23 0 -23 16v160l-53 -6v-6q0 -168 -145 -168 q-45 0 -65.5 22.5t-20.5 49.5q0 78 147 112v90q-35 -102 -96.5 -102t-61.5 66v6q-39 -70 -112 -70q-61 0 -62 64v215zM1106 344q0 -29 29 -29q53 0 57 99q-86 -21 -86 -70zM1417 467q94 12 94 108q0 43 -27.5 43t-47 -39.5t-19.5 -62.5v-49zM1630 539q0 57 39 101t107 44 q41 0 64.5 -20.5t23.5 -45.5q0 -51 -54 -69q-35 -12 -94 -12q4 -47 56 -48q37 0 69 21q16 -12 17 -35q0 -8 -5.5 -18.5t-30 -20.5t-65.5 -10q-59 0 -93 31t-34 82zM1714 563q80 0 80 43q0 29 -29 29q-43 0 -51 -72zM1896 481.5q0 20.5 14.5 35.5t38 15t40 -15t16.5 -35.5 t-16.5 -35t-40 -14.5t-38 14.5t-14.5 35zM2034 668q51 16 67 16q25 0 25 -20v-84q39 104 96 104q61 0 62 -68v-104l4 -70q-51 -16 -66 -16q-25 0 -24 16v144q0 33 -17 32q-14 0 -34.5 -37.5t-20.5 -64.5l6 -74q-51 -16 -68 -16q-25 0 -24 16v148zM2318 539q0 57 39 101 t107 44q41 0 64.5 -20.5t23.5 -45.5q0 -51 -53 -69q-35 -12 -95 -12q4 -47 56 -48q37 0 67 21q18 -12 19 -35q0 -8 -5.5 -18.5t-30 -20.5t-65.5 -10q-59 0 -93 31t-34 82zM2402 563q80 0 80 43q0 29 -28 29q-44 0 -52 -72zM2523 702v9q0 43 27 43h37l-9 63q51 18 70 19 q23 0 23 -19v-61h100v-6q0 -45 -25 -45h-75v-191q0 -33 34 -33q23 0 81.5 11.5t99.5 11.5q37 0 85 -12.5t48 -36.5q0 -31 -20.5 -46.5t-37.5 -15.5q-4 0 -56 25.5t-95 25.5q-16 0 -69.5 -8t-93.5 -8t-48 26.5t-10 139.5q0 68 -2 113z" />
</font>
</defs>
</svg>
