<?xml version="1.0" standalone="no"?>
<!DOCTYPE svg PUBLIC "-//W3C//DTD SVG 1.1//EN" "http://www.w3.org/Graphics/SVG/1.1/DTD/svg11.dtd" >
<svg xmlns="http://www.w3.org/2000/svg">
<metadata>
This is a custom SVG webfont generated by Font Squirrel.
Copyright   : Copyright c 2009 by Eduardo Manso All rights reserved
Designer    : Eduardo Manso
Foundry     : Eduardo Manso
Foundry URL : httpwwwemtypenet
</metadata>
<defs>
<font id="GeogrotesqueUltraLightItalic" horiz-adv-x="1116" >
<font-face units-per-em="2048" ascent="1536" descent="-512" />
<missing-glyph horiz-adv-x="522" />
<glyph unicode="&#xfb00;" horiz-adv-x="1284" d="M197 -436l178 1440h-148q-18 0 -16 18l2 18q4 18 20 19l123 4h25l27 209q16 123 106 188.5t293 65.5h12q18 0 15 -19l-3 -24q-2 -20 -22 -21h-8q-164 0 -235.5 -50t-86.5 -144l-24 -205h549l24 209q16 123 107.5 188.5t296.5 65.5h8q18 0 16 -19l-2 -24q-2 -20 -22 -21 h-9q-297 0 -323 -194l-25 -205h268q20 0 19 -19l-2 -22q-6 -18 -23 -18h-268l-178 -1440q-2 -18 -23 -19h-32q-18 0 -17 19l178 1440h-551l-178 -1440q-2 -18 -20 -19h-35q-18 1 -16 19z" />
<glyph unicode="&#xfb01;" horiz-adv-x="1095" d="M195 -434l178 1435h-148q-14 0 -14 19v20q0 18 18 19l125 4h27l22 201q16 121 106.5 187.5t291.5 66.5h250q18 0 14 -21l-2 -22q0 -20 -19 -21h-245q-301 0 -324 -197l-24 -194h602q23 0 20 -21l-129 -1022q-4 -20 -18 -20h-35q-23 0 -19 20l121 981h-549l-178 -1435 q-2 -20 -18 -21h-35q-20 1 -18 21z" />
<glyph unicode="&#xfb02;" horiz-adv-x="1140" d="M195 -434l178 1435h-148q-14 0 -14 19v20q0 18 18 19l125 4h27l22 201q16 121 106.5 187.5t291.5 66.5h307q20 0 18 -21l-182 -1477q-2 -20 -18 -20h-35q-23 0 -19 20l179 1434h-252q-301 0 -324 -197l-24 -194h268q16 0 16 -19l-2 -24q-4 -18 -18 -19h-271l-178 -1435 q-2 -20 -18 -21h-35q-20 1 -18 21z" />
<glyph unicode="&#xfb03;" horiz-adv-x="1714" d="M197 -436l178 1440h-148q-18 0 -16 18l2 18q4 18 20 19l123 4h25l27 209q16 123 106 188.5t293 65.5h12q18 0 15 -19l-3 -24q-2 -20 -22 -21h-8q-164 0 -235.5 -50t-86.5 -144l-24 -205h551l22 201q16 121 106.5 187.5t290.5 66.5h248q20 0 19 -21l-2 -22q-4 -20 -21 -21 h-246q-301 0 -323 -194l-23 -197h600q20 0 19 -21l-127 -1022q-4 -20 -19 -20h-34q-23 0 -19 20l123 984h-551l-178 -1440q-2 -18 -21 -19h-34q-18 0 -17 19l178 1440h-551l-178 -1440q-2 -18 -20 -19h-35q-18 1 -16 19z" />
<glyph unicode="&#xfb04;" horiz-adv-x="1765" d="M195 -436l178 1440h-146q-23 0 -18 18l4 18q4 18 18 19l123 4h27l25 209q16 123 107 188.5t294 65.5h10q20 0 17 -19l-3 -24q0 -20 -22 -21h-8q-297 0 -324 -194l-26 -205h555l22 201q16 121 105.5 187.5t291.5 66.5h308q18 0 18 -21l-182 -1477q-2 -20 -19 -20h-34 q-23 0 -19 20l176 1434h-250q-301 0 -323 -194l-23 -197h266q18 0 19 -19l-6 -22q0 -18 -19 -18h-268l-178 -1440q-2 -18 -21 -19h-34q-18 0 -17 19l178 1440h-551l-178 -1440q-2 -18 -20 -19h-35q-20 1 -18 19z" />
<glyph unicode=" "  horiz-adv-x="522" />
<glyph unicode="&#x09;" horiz-adv-x="522" />
<glyph unicode="&#xa0;" horiz-adv-x="522" />
<glyph unicode="!" horiz-adv-x="522" d="M225 20l23 164q4 20 20 21h37q20 0 17 -21l-23 -164q-4 -20 -20 -20h-33q-25 0 -21 20zM274 348l54 498l73 610q2 20 23 21h39q18 0 16 -21l-73 -610l-72 -498q-4 -20 -21 -20h-24q-15 0 -15 20z" />
<glyph unicode="&#x22;" horiz-adv-x="718" d="M334 1075l39 381q4 20 22 21h39q16 0 15 -21l-54 -381q-4 -20 -20 -20h-23q-22 0 -18 20zM586 1075l39 381q4 20 22 21h37q18 0 16 -21l-53 -381q-4 -20 -20 -20h-23q-22 0 -18 20z" />
<glyph unicode="#" horiz-adv-x="1384" d="M264 545v22q0 16 23 17h192l113 282h-186q-14 0 -15 19v22q0 18 21 19h204l93 231q6 20 26 21h29q20 0 10 -21l-90 -231h369l92 231q6 20 24 21h31q20 0 10 -21l-92 -231h160q20 0 18 -19l-2 -22q-4 -18 -22 -19h-176l-115 -282h172q18 0 16 -17l-2 -22q0 -16 -20 -17 h-186l-93 -229q-8 -18 -24 -18h-33q-18 0 -10 18l92 229h-371l-90 -229q-6 -18 -24 -18h-31q-20 0 -12 18l92 229h-176q-17 1 -17 17zM547 584h368l113 282h-369z" />
<glyph unicode="$" horiz-adv-x="1136" d="M279 385q0 14 2 33l6 55q2 18 18 19h35q16 0 14 -19l-6 -51q-2 -16 -2 -29q0 -147 279 -147q150 0 233.5 44t91.5 122l15 110q0 4 1 14.5t1 18.5q0 76 -129 119l-332 100q-61 18 -104.5 64.5t-43.5 107.5q0 20 2 33l13 90q27 207 348 219l22 168q4 20 21 21h33 q20 0 14 -21l-20 -170q145 -8 218.5 -60t73.5 -132q0 -18 -2 -41l-8 -64q-2 -14 -20 -14h-33q-8 0 -13.5 4t-2.5 10l8 60q2 16 2 41q0 61 -65.5 101t-200.5 40q-287 0 -308 -162l-8 -80q-2 -14 -2 -28q0 -90 117 -127l334 -101q156 -45 155 -162q0 -12 -2 -24v-12l-16 -129 q-12 -94 -101.5 -153.5t-261.5 -66.5l-20 -166q-6 -20 -21 -20h-32q-23 0 -17 20l19 166q-152 6 -228.5 60.5t-76.5 138.5z" />
<glyph unicode="%" horiz-adv-x="1568" d="M324 1024q0 18 4 45l28 236q20 184 289 184q248 0 248 -156q0 -27 -2 -43l-29 -235q-10 -88 -75.5 -136.5t-213.5 -48.5q-249 0 -249 154zM389 1034q0 -109 191 -108q203 0 217 129l28 235q2 12 2 33q0 111 -186 111q-205 0 -219 -131l-31 -244v-8q-2 -9 -2 -17zM428 20 l813 1436q10 20 29 21h35q20 0 8 -21l-813 -1436q-8 -20 -29 -20h-35q-12 0 -12 8q0 5 4 12zM852 137q0 16 4 43l27 238q23 184 288 184q248 0 248 -158q0 -25 -2 -43l-28 -233q-10 -90 -75 -137t-214 -47q-248 -1 -248 153zM915 145q0 -109 193 -108q201 0 217 131l27 233 q2 12 2 33q0 111 -187 111q-203 0 -219 -131l-30 -242q0 -2 -1.5 -11.5t-1.5 -15.5z" />
<glyph unicode="&#x26;" horiz-adv-x="1427" d="M248 238q0 20 2 36l33 265q14 111 66 171t181 85q-178 37 -178 192q0 18 4 57l19 160q18 139 111.5 214t318.5 75q367 0 366 -233v-23l-6 -68q-2 -18 -20 -18h-35q-16 0 -16 18l4 62v18q0 76 -49.5 119t-108.5 53.5t-141 10.5q-158 0 -247 -51.5t-106 -182.5l-16 -147 q-4 -39 -4 -54q0 -88 64.5 -130t236.5 -42h682q14 0 14 -20l-2 -25q0 -20 -20 -20h-182l-62 -490q-37 -287 -489 -286q-420 0 -420 254zM322 248q0 -203 354 -203q379 0 409 234l62 481h-442q-195 0 -265.5 -55.5t-85.5 -169.5l-30 -254q-2 -15 -2 -33z" />
<glyph unicode="'" horiz-adv-x="466" d="M334 1075l39 381q4 20 22 21h39q16 0 15 -21l-54 -381q-4 -20 -20 -20h-23q-22 0 -18 20z" />
<glyph unicode="(" horiz-adv-x="765" d="M188 -254q0 27 2 39l185 1497q16 127 104 190.5t291 63.5h16q16 0 15 -18l-2 -25q0 -18 -19 -18h-10q-164 0 -235.5 -51.5t-85.5 -147.5l-183 -1477q-4 -25 -4 -41q0 -168 277 -168h8q16 0 16 -20l-4 -25q0 -18 -18 -18h-9q-344 0 -344 219z" />
<glyph unicode=")" horiz-adv-x="765" d="M92 -430q0 20 21 20h8q166 0 237.5 50.5t83.5 146.5l183 1477q4 43 4 45q0 166 -277 166h-10q-16 0 -12 18l2 25q0 18 20 18h8q342 0 342 -219q0 -25 -2 -39l-184 -1497q-14 -127 -102 -190.5t-295 -63.5h-13q-14 0 -14 18v25z" />
<glyph unicode="*" horiz-adv-x="1069" d="M350 1016q-3 6 -3 11q0 10 13 15l271 150l-234 151q-14 8 -4 25l10 16q8 20 29 7l230 -162l28 295q4 20 25 20h18q18 0 17 -20l-45 -295l268 166q16 8 26 -9l11 -16q3 -5 2 -9q0 -10 -13 -18l-274 -151l238 -152q12 -6 4 -24l-13 -17q-10 -23 -28 -8l-230 162l-28 -289 q-2 -23 -21 -22h-22q-16 0 -15 22l43 291l-268 -166q-18 -10 -27 8z" />
<glyph unicode="+" horiz-adv-x="1280" d="M285 723v27q0 18 18 18h391v393q0 20 19 21h24q18 0 19 -21v-393h397q16 0 16 -18v-27q0 -18 -16 -18h-397v-392q0 -20 -19 -20h-24q-18 0 -19 20v392h-391q-18 0 -18 18z" />
<glyph unicode="," horiz-adv-x="454" d="M57 -135q-2 5 -2 10q0 11 15 16q68 31 96.5 70t38.5 100l14 123q2 20 23 21h34q18 0 17 -21l-17 -125q-20 -168 -190 -229q-4 -2 -7 -2q-9 0 -13 12z" />
<glyph unicode="-" horiz-adv-x="1013" d="M268 616v25q0 18 21 18h583q18 0 19 -18v-25q0 -18 -19 -18h-583q-21 0 -21 18z" />
<glyph unicode="." horiz-adv-x="442" d="M186 20l21 164q4 20 20 21h37q18 0 17 -21l-21 -164q-4 -20 -18 -20h-35q-23 0 -21 20z" />
<glyph unicode="/" horiz-adv-x="802" d="M80 -301l713 1798q8 20 24 21h39q14 0 14 -12q0 -4 -2 -9l-710 -1798q-6 -20 -27 -21h-39q-15 0 -14 11q0 4 2 10z" />
<glyph unicode="0" horiz-adv-x="1148" d="M190 223q0 18 5 58l114 917q10 92 47 152.5t136.5 101.5t263.5 41q381 0 381 -244q0 -35 -2 -53l-111 -917q-16 -141 -115.5 -218t-335.5 -77q-383 -1 -383 239zM264 240q0 -94 71 -143.5t245 -49.5q195 0 275.5 62.5t94.5 177.5l111 901q2 16 2 47q0 94 -68.5 143 t-244.5 49q-195 0 -275 -60t-94 -177l-113 -901q-4 -47 -4 -49z" />
<glyph unicode="1" horiz-adv-x="1148" d="M170 20l2 25q2 20 21 21h376l164 1337l-387 -113q-10 -2 -14 3t-2 14l2 26q0 14 22 21l443 125q3 1 5 0q5 0 10 -2q7 -4 5 -15l-174 -1396h375q18 0 18 -21l-2 -25q-6 -20 -22 -20h-826q-16 0 -16 20z" />
<glyph unicode="2" horiz-adv-x="1148" d="M203 20l53 429q20 152 221 198l395 103q29 8 60 22t66.5 53t41.5 90l35 275q2 16 2 49q0 92 -68.5 140t-242.5 48q-195 0 -270.5 -60t-92.5 -175l-14 -113q-2 -20 -20 -20h-35q-20 0 -17 20l15 119q14 94 48 153.5t132 100.5t260 41q209 0 294 -62.5t85 -177.5 q0 -37 -2 -57l-35 -281q-14 -100 -79.5 -155t-135.5 -72l-385 -98q-174 -47 -186 -158l-45 -366h710q18 0 17 -21l-2 -25q0 -20 -23 -20h-766q-18 0 -16 20z" />
<glyph unicode="3" horiz-adv-x="1148" d="M182 225q0 29 2 45l4 35q2 20 23 21h35q18 0 14 -21l-4 -26q-2 -16 -2 -46q0 -90 69.5 -139t241.5 -49q188 0 269 60.5t96 173.5l31 256q4 39 4 51q0 88 -65.5 131t-235.5 43h-207q-20 0 -21 20l2 25q4 20 25 20h196q195 0 266.5 54.5t86.5 171.5l16 147q4 23 4 45 q0 92 -66.5 140.5t-232.5 48.5q-186 0 -265 -61.5t-87 -172.5l-4 -29q0 -18 -19 -18h-34q-18 0 -19 18l4 35q18 289 434 289q365 0 365 -236q0 -16 -6 -55l-19 -160q-12 -106 -61 -164.5t-168 -82.5q184 -39 184 -197q0 -18 -4 -61l-33 -267q-18 -139 -114 -212.5 t-328 -73.5q-377 -1 -377 241z" />
<glyph unicode="4" horiz-adv-x="1148" d="M182 522l4 27q2 14 15 35l438 872q8 20 27 21h39q20 0 10 -21l-447 -883h674l109 883q4 20 22 21h35q16 0 14 -21l-176 -1436q-4 -20 -18 -20h-35q-25 0 -21 20l62 488h-733q-10 0 -15.5 3t-3.5 11z" />
<glyph unicode="5" horiz-adv-x="1148" d="M219 223q0 31 2 47l2 35q0 20 23 21h35q16 0 16 -21l-2 -24q-2 -18 -2 -52q0 -92 59.5 -138t229.5 -46q190 0 260.5 57.5t85.5 176.5l37 309q4 39 4 47q0 172 -301 172h-338q-20 0 -17 20l78 629q4 20 19 21h684q18 0 16 -21l-2 -24q0 -20 -21 -21h-628l-68 -539h285 q172 0 269 -57t97 -168q0 -12 -4 -53l-39 -324q-10 -66 -30.5 -115t-65.5 -89.5t-127 -61t-201 -20.5q-203 0 -279.5 61t-76.5 178z" />
<glyph unicode="6" horiz-adv-x="1148" d="M205 221q0 18 4 58l115 938q14 125 108 200.5t326 75.5q367 0 366 -236q0 -16 -2 -40l-2 -31q0 -18 -22 -19h-35q-16 0 -14 19l2 22v17q2 12 2 16q0 190 -303 191q-190 0 -267 -61.5t-88 -162.5l-59 -475q82 133 356 133q373 0 373 -243q0 -18 -4 -54l-35 -290 q-10 -92 -47 -152.5t-135.5 -101.5t-261.5 -41q-207 0 -292 62t-85 175zM279 233q0 -90 67.5 -139t239.5 -49q197 0 274.5 61.5t91.5 178.5l35 280q4 35 4 47q0 90 -69.5 140.5t-243.5 50.5q-338 0 -361 -217l-34 -299q-4 -36 -4 -54z" />
<glyph unicode="7" horiz-adv-x="1148" d="M299 1432l2 24q0 20 23 21h860q18 0 16 -21l-2 -22q0 -8 -10 -29l-742 -1385q-10 -20 -24 -20h-47q-23 0 -13 20l748 1391h-793q-18 1 -18 21z" />
<glyph unicode="8" horiz-adv-x="1148" d="M197 221q0 35 4 58l30 256q16 111 71.5 174t189.5 88q-188 33 -189 202q0 18 6 62l17 137q8 70 27.5 118t64.5 91t128 64.5t208 21.5q201 0 282.5 -61.5t81.5 -174.5q0 -16 -4 -59l-18 -139q-14 -113 -66.5 -175.5t-183.5 -86.5q201 -39 201 -213q0 -33 -3 -52l-30 -253 q-16 -143 -111.5 -219t-331.5 -76q-207 0 -290.5 62t-83.5 175zM268 233q0 -90 68.5 -139t241.5 -49q193 0 271.5 61.5t92.5 178.5l29 241q2 16 2 47q0 92 -67.5 141.5t-241.5 49.5q-193 0 -269 -60.5t-92 -175.5l-29 -243q-6 -36 -6 -52zM377 1014q0 -92 64.5 -139.5 t232.5 -47.5q193 0 264.5 59.5t85.5 178.5l16 127q4 39 4 53q0 90 -64.5 138.5t-231.5 48.5q-195 0 -265.5 -60.5t-85.5 -179.5l-14 -127q-6 -39 -6 -51z" />
<glyph unicode="9" horiz-adv-x="1148" d="M203 219q0 31 2 41l4 31q4 18 20 18h33q20 0 19 -18l-2 -25q0 -2 -1.5 -14t-1.5 -19q0 -188 306 -188q188 0 264 61.5t88 159.5l57 477q-80 -133 -356 -133q-373 0 -373 244q0 18 4 53l35 291q12 94 49 153.5t135.5 100.5t259.5 41q379 0 379 -238q0 -18 -4 -57 l-114 -938q-16 -125 -107.5 -200.5t-323.5 -75.5q-372 -1 -372 235zM336 864q0 -92 69.5 -141t243.5 -49q332 0 361 217l34 299q4 35 5 51q0 92 -68 141.5t-238 49.5q-197 0 -275.5 -61.5t-94.5 -178.5l-33 -281q-4 -35 -4 -47z" />
<glyph unicode=":" horiz-adv-x="442" d="M186 20l21 164q2 20 20 21h35q20 0 17 -21l-21 -164q-2 -20 -20 -20h-35q-21 0 -17 20zM293 881l20 166q4 18 21 18h35q23 0 18 -18l-22 -166q-4 -18 -23 -19h-33q-18 1 -16 19z" />
<glyph unicode=";" horiz-adv-x="559" d="M164 -135l-2 8q0 12 16 18q66 31 94.5 70t38.5 100l15 123q2 20 20 21h39q18 0 14 -21l-16 -125q-20 -170 -190 -229q-5 -2 -9 -2q-7 0 -10 8zM410 881l20 166q4 18 25 18h32q16 0 17 -18l-21 -166q0 -18 -20 -19h-35q-18 1 -18 19z" />
<glyph unicode="&#x3c;" horiz-adv-x="1187" d="M285 721v37q0 14 16 22l760 353q6 3 11 3q10 0 9 -16v-37q0 -10 -20 -22l-703 -322l703 -319q20 -12 20 -23v-37q0 -15 -9 -15q-4 0 -11 3l-760 350q-16 7 -16 23z" />
<glyph unicode="=" horiz-adv-x="1284" d="M260 543v26q0 16 21 17h852q20 0 20 -17v-26q0 -20 -20 -21h-852q-21 1 -21 21zM260 897v23q0 20 21 20h852q20 0 20 -20v-23q0 -20 -20 -20h-852q-21 0 -21 20z" />
<glyph unicode="&#x3e;" horiz-adv-x="1187" d="M240 360v37q0 10 18 23l705 319l-705 320q-18 10 -18 22v39q0 15 8 16q4 0 10 -3l760 -351q18 -8 18 -22v-39q0 -16 -18 -23l-760 -352q-6 -4 -10 -4q-8 0 -8 18z" />
<glyph unicode="?" horiz-adv-x="1232" d="M326 1079l14 119q18 141 118.5 218t338.5 77q391 0 391 -250q0 -29 -2 -47l-25 -203q-18 -164 -196 -245l-119 -58q-121 -59 -137 -174l-25 -168q-2 -20 -20 -20h-37q-18 0 -15 20l23 182q14 135 172 213l131 62q133 63 149 192l27 195q2 14 2 41q0 94 -73.5 144 t-251.5 50q-197 0 -280 -61t-99 -174l-15 -113q-2 -20 -22 -20h-35q-18 0 -14 20zM571 20l19 162q4 23 22 23h37q18 0 15 -21l-19 -164q-2 -20 -22 -20h-35q-19 0 -17 20z" />
<glyph unicode="@" horiz-adv-x="1720" d="M227 51q0 2 11 82l104 871q18 150 167.5 232.5t510.5 82.5q604 0 604 -277q0 -4 -4 -53l-86 -670q-14 -123 -69.5 -185t-170.5 -62q-78 0 -126 36.5t-54 104.5q-201 -141 -371 -141q-223 0 -223 178q0 39 10 74l93 415q29 125 100.5 191.5t216.5 66.5q162 0 303 -135 l27 99q6 18 22 18h27q20 0 16 -18l-143 -633q-8 -35 -8 -72q0 -125 119 -125q137 0 163 195l82 661q4 31 4 45q0 225 -538 225q-569 0 -600 -253l-109 -883q-6 -51 -6 -58q0 -111 122 -169t417 -58h411q14 0 15 -16l-2 -29q0 -16 -23 -16h-408q-604 0 -604 276zM594 270 q0 -133 176 -133q156 0 342 133q4 31 8 49l107 478q-129 135 -283 135q-205 0 -252 -201l-88 -399q-10 -39 -10 -62z" />
<glyph unicode="A" horiz-adv-x="1107" d="M63 20l625 1436q10 20 27 21h39q18 0 20 -21l273 -1436q4 -20 -13 -20h-41q-16 0 -20 20l-88 455h-551l-199 -455q-6 -20 -24 -20h-33q-17 0 -18 10q0 4 3 10zM360 539h517l-125 661l-29 191q-4 -12 -30.5 -84t-39.5 -101z" />
<glyph unicode="B" horiz-adv-x="1249" d="M223 20l176 1436q4 20 23 21h360q403 0 404 -250q0 -31 -2 -45l-21 -150q-12 -102 -69.5 -166.5t-178.5 -95.5q242 -43 242 -231q0 -29 -2 -41l-27 -207q-16 -139 -122.5 -215t-348.5 -76h-415q-21 0 -19 20zM301 63h361q365 0 395 236l24 197q2 12 2 39q0 199 -335 198 h-363zM393 797h334q334 0 365 237l18 140q2 14 2 40q0 199 -338 199h-305z" />
<glyph unicode="C" horiz-adv-x="1175" d="M225 227q0 18 4 54l113 917q18 139 120.5 217t340.5 78q397 0 397 -250q0 -29 -2 -47l-14 -113q-2 -20 -21 -20h-35q-20 0 -16 20l12 107q2 12 2 41q0 197 -327 196q-197 0 -283 -61t-102 -176l-111 -901q-2 -14 -2 -43q0 -199 326 -199q199 0 285.5 62.5t101.5 177.5 l18 133q2 16 19 16h34q23 0 17 -16l-17 -141q-16 -139 -119.5 -217t-342.5 -78q-398 -1 -398 243z" />
<glyph unicode="D" horiz-adv-x="1288" d="M223 20l176 1436q4 20 21 21h416q406 0 405 -252q0 -33 -2 -47l-109 -883q-14 -139 -121.5 -217t-349.5 -78h-417q-21 0 -19 20zM301 66h363q362 0 393 237l106 866q2 14 2 39q0 203 -336 203h-360z" />
<glyph unicode="E" horiz-adv-x="1150" d="M223 20l176 1436q4 20 23 21h739q18 0 19 -21l-2 -24q-6 -20 -23 -21h-686l-74 -600h645q16 0 17 -18l-2 -27q0 -18 -21 -18h-647l-86 -682h715q23 0 18 -21l-6 -25q-4 -20 -18 -20h-770q-19 0 -17 20z" />
<glyph unicode="F" horiz-adv-x="1155" d="M223 20l176 1436q4 20 23 21h799q20 0 16 -21l-4 -24q-4 -20 -23 -21h-741l-76 -606h703q20 0 18 -19l-4 -26q-2 -20 -20 -21h-703l-90 -719q-2 -20 -18 -20h-37q-21 0 -19 20z" />
<glyph unicode="G" horiz-adv-x="1212" d="M225 227q0 18 4 54l113 917q18 139 120.5 217t340.5 78q397 0 397 -250q0 -33 -2 -47l-14 -111q-2 -20 -21 -20h-35q-20 0 -16 20l12 105q2 12 2 41q0 197 -327 196q-195 0 -282 -61t-103 -176l-111 -901q-2 -14 -2 -43q0 -96 74 -147.5t252 -51.5q199 0 284.5 61.5 t100.5 174.5l43 325h-334q-18 0 -19 19l3 26q0 20 22 21h389q18 0 14 -21l-45 -374q-16 -139 -119.5 -217t-342.5 -78q-398 -1 -398 243z" />
<glyph unicode="H" horiz-adv-x="1314" d="M223 20l176 1436q4 20 23 21h37q18 0 14 -21l-76 -629h725l76 629q4 20 23 21h36q18 0 15 -21l-176 -1436q-2 -20 -19 -20h-37q-20 0 -18 20l92 744h-725l-92 -744q-2 -20 -18 -20h-37q-21 0 -19 20z" />
<glyph unicode="I" horiz-adv-x="516" d="M223 20l176 1436q4 20 23 21h37q18 0 14 -21l-176 -1436q-2 -20 -18 -20h-37q-21 0 -19 20z" />
<glyph unicode="J" horiz-adv-x="1054" d="M113 225q0 18 4 58l8 73q6 18 22 19h35q18 0 15 -19l-9 -69q-4 -31 -4 -49q0 -92 64.5 -141.5t220.5 -49.5q176 0 249 61.5t87 178.5l145 1169q4 20 21 21h37q20 0 16 -21l-145 -1177q-16 -141 -107.5 -218t-308.5 -77q-350 -1 -350 241z" />
<glyph unicode="K" horiz-adv-x="1146" d="M223 20l176 1436q4 20 23 21h35q20 0 16 -21l-82 -686h80l655 688q12 18 33 19h45q14 0 14 -7q0 -5 -8 -14l-675 -708l563 -728q4 -8 1 -14t-12 -6h-45q-18 0 -32 20l-541 693h-86l-88 -693q-4 -20 -19 -20h-34q-21 0 -19 20z" />
<glyph unicode="L" horiz-adv-x="1077" d="M223 20l176 1436q4 20 23 21h37q18 0 14 -21l-172 -1390h680q18 0 18 -21l-2 -25q-4 -20 -22 -20h-735q-19 0 -17 20z" />
<glyph unicode="M" horiz-adv-x="1548" d="M223 20l176 1436q0 20 21 21h29q14 0 18 -11l321 -1077q18 -74 21 -90q8 23 45 90l580 1077q4 10 18 11h37q18 0 16 -21l-176 -1436q-4 -20 -20 -20h-35q-18 0 -17 20l158 1289q0 -2 -17 -39l-26 -53l-524 -971q-10 -20 -27 -21h-37q-18 0 -24 21l-291 979q-10 35 -18 84 l-160 -1289q-4 -20 -21 -20h-28q-21 0 -19 20z" />
<glyph unicode="N" horiz-adv-x="1312" d="M223 20l176 1436q4 20 23 21h24q16 0 19 -9l524 -1202q49 -102 49 -116l160 1306q4 20 23 21h30q20 0 17 -21l-178 -1436q-4 -20 -19 -20h-29q-16 0 -18 8l-522 1196l-47 125l-164 -1309q-4 -20 -21 -20h-28q-21 0 -19 20z" />
<glyph unicode="O" horiz-adv-x="1263" d="M225 229q0 16 4 52l113 917q16 139 122.5 217t346.5 78q408 0 408 -252q0 -31 -2 -45l-115 -917q-33 -295 -473 -295q-404 -1 -404 245zM301 250q0 -203 336 -203q362 0 391 240l111 901q4 14 4 39q0 201 -338 200q-360 0 -391 -237l-111 -901q-2 -14 -2 -39z" />
<glyph unicode="P" horiz-adv-x="1212" d="M223 20l176 1436q4 20 21 21h414q403 0 403 -260q0 -29 -2 -48l-35 -284q-16 -137 -122.5 -211t-348.5 -74h-360l-72 -580q-2 -20 -18 -20h-37q-21 0 -19 20zM377 664h358q201 0 291 59t102 172l33 268q2 14 2 39q0 209 -336 209h-358z" />
<glyph unicode="Q" horiz-adv-x="1261" d="M225 229q0 16 4 52l113 917q16 139 122.5 217t346.5 78q408 0 408 -252q0 -31 -2 -45l-115 -917q-29 -264 -375 -291l293 -305q14 -12 -2 -25l-21 -23q-7 -6 -13.5 -6t-12.5 6l-332 349h-10q-404 -1 -404 245zM301 250q0 -203 336 -203q362 0 391 240l111 901q4 14 4 39 q0 201 -338 200q-360 0 -391 -237l-111 -901q-2 -14 -2 -39z" />
<glyph unicode="R" horiz-adv-x="1269" d="M223 20l176 1436q4 20 21 21h414q403 0 403 -260q0 -29 -2 -48l-31 -260q-12 -113 -87 -183.5t-236 -94.5l237 -611q8 -20 -18 -20h-37q-16 0 -25 20l-231 605q-23 -2 -76 -2h-360l-74 -603q-2 -20 -18 -20h-37q-21 0 -19 20zM381 688h356q371 0 396 230l28 245 q2 14 2 39q0 209 -336 209h-358z" />
<glyph unicode="S" horiz-adv-x="1216" d="M209 231q0 10 4 50l12 104q2 18 21 18h35q18 0 16 -18l-12 -98q-2 -16 -2 -41q0 -201 333 -201q362 0 394 240l22 178q2 16 2 29q0 119 -157 182l-392 157q-68 29 -115.5 85.5t-47.5 136.5q0 16 4 49l10 96q18 141 118.5 218t340.5 77q391 0 391 -248q0 -31 -2 -47 l-15 -111q-2 -18 -20 -18h-35q-20 0 -18 18l14 105q2 16 2 41q0 96 -72.5 147.5t-251.5 51.5q-358 0 -380 -238l-9 -84q-4 -39 -4 -47q0 -117 127 -166l404 -164q180 -74 180 -231q0 -23 -4 -35l-21 -188q-16 -139 -122.5 -217t-346.5 -78q-403 -1 -403 247z" />
<glyph unicode="T" horiz-adv-x="1034" d="M221 1432l2 24q0 20 23 21h899q18 0 16 -21l-2 -24q0 -20 -22 -21h-412l-172 -1391q-2 -20 -18 -20h-37q-20 0 -19 20l172 1391h-411q-19 1 -19 21z" />
<glyph unicode="U" horiz-adv-x="1288" d="M240 233q0 33 2 50l145 1173q4 20 19 21h34q25 0 21 -21l-146 -1163q-2 -16 -2 -43q0 -203 334 -203q199 0 288 63.5t105 176.5l146 1169q4 20 18 21h35q25 0 21 -21l-146 -1177q-18 -139 -124.5 -217t-346.5 -78q-403 -1 -403 249z" />
<glyph unicode="V" horiz-adv-x="1107" d="M240 1456q-2 20 18 21h37q18 0 20 -21l226 -1180q6 -31 11 -74.5t9 -73.5t4 -32q33 96 66 172l518 1188q10 20 22 21h39q17 0 17 -11q0 -4 -2 -10l-625 -1436q-10 -20 -27 -20h-36q-25 0 -27 20z" />
<glyph unicode="W" horiz-adv-x="1691" d="M240 1456q-2 20 18 21h35q16 0 20 -21l158 -1186q14 -121 14 -145l54 145l446 1186q6 20 27 21h35q16 0 18 -21l158 -1186q14 -106 14 -145q8 31 53 145l447 1186q6 20 26 21h35q13 0 13 -10q0 -4 -3 -11l-540 -1436q-6 -20 -27 -20h-37q-18 0 -22 20l-158 1201 q-12 109 -12 125l-43 -125l-455 -1201q-6 -20 -27 -20h-36q-20 0 -23 20z" />
<glyph unicode="X" horiz-adv-x="1169" d="M111 20l518 728l-334 708q-8 20 10 21h45q16 0 25 -21l309 -647l449 647q14 20 30 21h43q13 0 13 -8q0 -5 -5 -13l-499 -711l344 -725q10 -20 -12 -20h-41q-23 0 -31 20l-313 660l-469 -660q-10 -20 -29 -20h-43q-14 0 -14 9q1 4 4 11z" />
<glyph unicode="Y" horiz-adv-x="1087" d="M229 1456q-2 5 -2 9q0 12 19 12h41q14 0 22 -21l297 -706q16 -49 21 -66q2 12 35 66l471 706q16 20 28 21h39q16 0 16 -9q0 -5 -6 -12l-555 -833l-73 -603q-4 -20 -19 -20h-35q-25 0 -20 20l74 596z" />
<glyph unicode="Z" horiz-adv-x="1097" d="M133 16l4 25q2 12 10 27l891 1343h-676q-20 0 -16 21l4 24q2 20 21 21h749q14 0 15 -21l-2 -24q0 -12 -7 -21l-895 -1345h748q20 0 18 -21l-6 -25q-2 -20 -18 -20h-821q-10 0 -15.5 4t-3.5 12z" />
<glyph unicode="[" horiz-adv-x="759" d="M164 -438l239 1935q2 20 23 21h348q16 0 17 -21l-3 -24q0 -20 -20 -21h-297l-227 -1845h295q16 0 16 -19l-2 -26q-2 -20 -18 -21h-353q-18 1 -18 21z" />
<glyph unicode="\" horiz-adv-x="802" d="M301 1497q-4 20 16 21h35q20 0 23 -21l268 -1796q4 -23 -18 -23h-37q-14 0 -19 21z" />
<glyph unicode="]" horiz-adv-x="759" d="M96 -438l2 26q0 18 19 19h297l229 1845h-295q-18 0 -18 21l2 24q2 20 20 21h350q20 0 21 -21l-242 -1935q-2 -20 -20 -21h-350q-19 1 -15 21z" />
<glyph unicode="^" horiz-adv-x="1181" d="M283 696l352 760q8 20 20 21h39q14 0 23 -21l352 -760q2 -5 2 -8q0 -10 -16 -10h-37q-12 0 -21 18l-321 705l-322 -705q-8 -18 -22 -18h-37q-15 0 -15 9q1 4 3 9z" />
<glyph unicode="_" horiz-adv-x="911" d="M16 -217q0 20 21 20h770q20 0 20 -20v-25q0 -18 -20 -18h-770q-20 0 -21 18v25z" />
<glyph unicode="`" horiz-adv-x="739" d="M430 1518q-2 5 -2 9q0 9 14 9h39q18 0 25 -14l133 -262q3 -6 3 -11q0 -8 -13 -8h-29q-18 0 -22 12z" />
<glyph unicode="a" d="M193 197q0 14 4 41l73 591q31 254 324 254q215 0 371 -137l14 101q6 18 22 18h31q14 0 15 -18l-127 -1027q-4 -20 -21 -20h-31q-14 0 -14 20l6 97q-186 -133 -399 -133q-133 0 -200.5 57.5t-67.5 155.5zM266 213q0 -76 53.5 -121t161.5 -45q197 0 387 137l86 695 q-145 139 -352 139q-119 0 -183.5 -54.5t-78.5 -140.5l-72 -579q-2 -13 -2 -31z" />
<glyph unicode="b" d="M197 20l180 1477q4 20 22 21h35q23 0 17 -21l-66 -549q186 135 397 135q131 0 200 -58t69 -159q0 -18 -2 -37l-74 -591q-12 -119 -94 -186.5t-232 -67.5q-217 0 -368 133l-17 -97q-4 -20 -20 -20h-31q-18 0 -16 20zM291 184q152 -137 352 -137q117 0 183.5 54.5 t76.5 142.5l72 579q2 18 2 31q0 76 -53.5 120t-159.5 44q-215 0 -389 -139z" />
<glyph unicode="c" horiz-adv-x="1021" d="M193 195q0 27 2 43l73 591q16 123 105.5 188.5t292.5 65.5q338 0 338 -213q0 -25 -3 -43l-8 -41q-2 -20 -18 -20h-33q-23 0 -16 18l4 41q2 14 2 35q0 162 -273 162q-164 0 -235.5 -52t-83.5 -145l-72 -579q-2 -23 -2 -39q0 -78 61.5 -120t211.5 -42q164 0 233.5 51 t85.5 146l8 57q2 20 23 20h31q18 0 16 -20l-8 -61q-16 -125 -103.5 -189.5t-292.5 -64.5q-339 0 -339 211z" />
<glyph unicode="d" d="M193 197q0 12 4 43l73 589q33 254 322 254q211 0 371 -135l65 549q6 20 23 21h34q16 0 15 -21l-180 -1477q-4 -20 -21 -20h-31q-14 0 -14 20l6 97q-186 -133 -399 -133q-133 0 -200.5 57.5t-67.5 155.5zM266 213q0 -76 53.5 -121t161.5 -45q197 0 387 137l84 695 q-137 139 -350 139q-121 0 -185.5 -54.5t-76.5 -140.5l-72 -577q-2 -27 -2 -33z" />
<glyph unicode="e" horiz-adv-x="1058" d="M193 197q0 23 2 41l73 591q16 123 107.5 188.5t296.5 65.5q342 0 342 -215q0 -27 -2 -39l-35 -272q-4 -18 -21 -18h-651l-39 -295q-2 -18 -2 -35q0 -166 279 -166q303 0 325 197l6 55q2 20 25 20h31q16 0 14 -20l-6 -57q-16 -123 -104.5 -188.5t-294.5 -65.5 q-346 0 -346 213zM311 598h600l31 227q2 14 2 33q0 164 -280 164q-297 0 -324 -195z" />
<glyph unicode="f" horiz-adv-x="663" d="M195 -434l178 1435h-148q-20 0 -16 19l2 20q2 18 20 19l123 4h23l26 209q16 123 107.5 188.5t294.5 65.5h12q16 0 14 -19l-2 -24q-2 -20 -22 -21h-8q-301 0 -324 -196l-24 -203h268q25 0 18 -19l-2 -24q-2 -18 -20 -19h-271l-178 -1435q-2 -20 -20 -21h-35q-18 1 -16 21z " />
<glyph unicode="g" d="M186 -436l2 26q0 18 23 19h289q301 0 323 196l37 310q-184 -131 -397 -131q-133 0 -201.5 58t-68.5 161q0 8 10 67l67 559q33 254 324 254q223 0 371 -137l14 101q2 18 22 18h31q18 0 15 -18l-152 -1248q-16 -123 -106.5 -188.5t-294.5 -65.5h-289q-21 1 -19 19zM266 215 q0 -76 53.5 -122t161.5 -46q197 0 387 137l86 695q-145 139 -352 139q-119 0 -183.5 -53.5t-78.5 -141.5l-72 -575q-2 -19 -2 -33z" />
<glyph unicode="h" horiz-adv-x="1128" d="M201 20l180 1477q2 20 20 21h35q18 0 15 -21l-66 -549q180 135 399 135q129 0 198 -57t69 -156q0 -25 -2 -36l-101 -814q-2 -20 -20 -20h-35q-18 0 -16 20l98 803q2 10 2 31q0 164 -215 164q-199 0 -387 -137l-105 -861q-2 -20 -20 -20h-35q-18 0 -14 20z" />
<glyph unicode="i" horiz-adv-x="462" d="M201 20l125 1027q4 18 20 18h35q23 0 18 -18l-129 -1027q-2 -20 -20 -20h-35q-18 0 -14 20zM354 1288l27 209q2 20 20 21h35q18 0 15 -21l-23 -209q-2 -20 -22 -20h-35q-19 0 -17 20z" />
<glyph unicode="j" horiz-adv-x="460" d="M-184 -436l2 26q4 18 22 19h8q297 0 320 196l154 1242q4 18 20 18h35q20 0 16 -18l-153 -1248q-16 -123 -106.5 -188.5t-291.5 -65.5h-10q-16 1 -16 19zM350 1288l27 209q6 20 20 21h35q18 0 17 -21l-27 -209q-4 -20 -21 -20h-34q-19 0 -17 20z" />
<glyph unicode="k" horiz-adv-x="952" d="M197 20l180 1477q6 20 22 21h35q20 0 15 -21l-103 -866h80l477 418q16 16 35 16h45q15 0 16 -9q0 -6 -8 -9l-504 -441l441 -586q10 -20 -13 -20h-41q-14 0 -32 20l-414 551h-92l-68 -551q-4 -20 -20 -20h-35q-20 0 -16 20z" />
<glyph unicode="l" horiz-adv-x="462" d="M197 20l180 1477q6 20 22 21h35q18 0 18 -13q0 -3 -1 -8l-183 -1477q-4 -20 -18 -20h-37q-18 0 -16 20z" />
<glyph unicode="m" horiz-adv-x="1781" d="M201 20l125 1027q4 18 20 18h29q20 0 18 -18l-8 -99q168 135 385 135q106 0 175 -39.5t87 -107.5q197 147 404 147q131 0 199.5 -57t68.5 -156q0 -25 -2 -36l-103 -814q-4 -20 -18 -20h-37q-18 0 -16 20l100 801q2 10 2 31q0 76 -53 121t-162 45q-209 0 -379 -141 q2 -20 0 -54l-100 -803q-2 -20 -21 -20h-36q-16 0 -15 20l99 787q4 35 4 45q0 76 -53.5 121t-161.5 45q-197 0 -377 -137l-105 -861q-4 -20 -18 -20h-37q-18 0 -14 20z" />
<glyph unicode="n" horiz-adv-x="1128" d="M201 20l125 1027q4 18 20 18h29q20 0 18 -18l-8 -101q182 137 399 137q129 0 198 -57t69 -156q0 -27 -2 -39l-101 -811q-2 -20 -20 -20h-35q-18 0 -16 20l98 801q4 16 4 31q0 166 -215 166q-201 0 -389 -137l-105 -861q-2 -20 -20 -20h-35q-18 0 -14 20z" />
<glyph unicode="o" horiz-adv-x="1091" d="M193 201q0 23 2 37l73 591q16 121 108.5 187.5t299.5 66.5q344 0 344 -215q0 -20 -2 -39l-72 -591q-31 -254 -405 -254q-348 0 -348 217zM266 211q0 -166 281 -166q307 0 327 197l72 583q2 18 2 31q0 166 -280 166q-303 0 -328 -197l-72 -583q-2 -19 -2 -31z" />
<glyph unicode="p" d="M143 -434l183 1481q4 18 20 18h29q18 0 16 -18l-8 -101q188 137 401 137q131 0 199 -57t68 -158q0 -27 -2 -39l-74 -591q-12 -119 -93 -186.5t-231 -67.5q-213 0 -368 131l-68 -549q-2 -20 -22 -21h-33q-19 1 -17 21zM291 184q152 -137 354 -137q117 0 182.5 54.5 t75.5 142.5l72 577q2 16 2 33q0 76 -53.5 120t-159.5 44q-219 0 -387 -139z" />
<glyph unicode="q" d="M193 203q0 12 10 67l67 559q33 254 324 254q223 0 371 -137l14 101q2 18 22 18h31q18 0 15 -18l-181 -1481q-2 -20 -22 -21h-35q-20 0 -16 21l67 549q-184 -131 -397 -131q-133 0 -201.5 58.5t-68.5 160.5zM266 215q0 -76 53.5 -122t161.5 -46q197 0 387 137l86 695 q-145 139 -352 139q-121 0 -185.5 -54.5t-76.5 -140.5l-72 -575q-2 -23 -2 -33z" />
<glyph unicode="r" horiz-adv-x="712" d="M201 20l125 1027q4 18 20 18h29q20 0 18 -18l-10 -125q207 160 397 159q18 0 17 -20l-2 -29q-2 -18 -25 -18q-188 -4 -397 -156l-103 -838q-4 -20 -20 -20h-35q-18 0 -14 20z" />
<glyph unicode="s" horiz-adv-x="1001" d="M166 180q0 14 2 33l6 55q2 18 19 19h34q16 0 15 -19l-9 -51q-2 -14 -2 -29q0 -147 281 -147q150 0 233.5 45t92.5 123l14 110q0 2 1 12.5t1 20.5q0 76 -129 117l-332 102q-61 16 -104 63.5t-43 108.5q0 18 2 31l12 90q31 219 379 219q164 0 248 -54t84 -138q0 -20 -2 -43 l-8 -62q-4 -16 -21 -16h-33q-8 0 -13 5t-3 11l8 58q2 18 2 41q0 61 -65.5 101t-200.5 40q-287 0 -307 -162l-9 -78q-2 -16 -2 -30q0 -90 117 -127l334 -99q154 -47 154 -163q0 -10 -2 -25v-12l-15 -127q-12 -100 -111.5 -159.5t-285.5 -59.5q-172 0 -257 55t-85 141z" />
<glyph unicode="t" horiz-adv-x="733" d="M193 1020l2 20q6 18 22 19l143 4h2l31 242q2 20 21 20h32q23 0 19 -20l-31 -242h271q16 0 16 -19v-26q0 -16 -25 -17h-270l-90 -739q-2 -12 -2 -35q0 -164 274 -164h33q14 0 14 -20v-23q0 -20 -24 -20h-37q-182 0 -258 54.5t-76 156.5q0 23 2 43l92 747h-145 q-18 1 -16 19z" />
<glyph unicode="u" horiz-adv-x="1114" d="M207 195q0 18 2 36l100 816q4 18 21 18h35q20 0 18 -18l-100 -801q-2 -18 -2 -31q0 -168 215 -168q201 0 372 137l105 863q4 18 20 18h35q20 0 19 -18l-129 -1027q-2 -20 -17 -20h-31q-25 0 -18 20l8 97q-170 -133 -385 -133q-133 0 -200.5 57.5t-67.5 153.5z" />
<glyph unicode="v" horiz-adv-x="884" d="M178 1044q-4 20 15 21h38q16 0 19 -18l188 -852q4 -14 8.5 -51.5t8.5 -43.5q31 86 37 95l399 852q8 18 22 18h35q18 0 19 -10q0 -3 -2 -8l-482 -1027q-10 -20 -22 -20h-39q-14 0 -19 20z" />
<glyph unicode="w" horiz-adv-x="1347" d="M174 1047q-4 18 16 18h37q16 0 21 -18l125 -863l12 -82q10 37 27 82l344 863q6 18 26 18h47q16 0 19 -18l125 -863l8 -78l29 78l342 863q8 18 24 18h35q14 0 14 -8q0 -4 -4 -10l-411 -1027q-6 -20 -25 -20h-39q-12 0 -16 20l-129 859q-8 66 -8 96q-2 -2 -18.5 -46 t-20.5 -52l-348 -857q-10 -20 -23 -20h-41q-12 0 -16 20z" />
<glyph unicode="x" horiz-adv-x="991" d="M92 6q-1 2 -1 4q0 5 5 10l422 523l-287 504q-10 18 15 18h41q14 0 26 -18l260 -453l357 453q14 18 33 18h41q12 0 12 -6q0 -4 -6 -12l-408 -508l295 -514q10 -25 -12 -25h-39q-16 0 -27 20l-268 465l-375 -465q-16 -20 -33 -20h-39q-8 0 -12 6z" />
<glyph unicode="y" horiz-adv-x="884" d="M178 1047q-4 18 15 18h36q18 0 21 -18l188 -852l19 -95q16 49 37 95l397 852q8 18 22 18h35q18 0 19 -10q0 -3 -2 -8l-689 -1483q-10 -20 -26 -21h-31q-25 0 -12 21l201 438z" />
<glyph unicode="z" horiz-adv-x="993" d="M135 20l2 19q2 12 21 39l716 926h-575q-16 0 -14 18l2 27q0 16 22 16h645q18 0 17 -16l-2 -21q0 -10 -13 -24l-729 -941h631q18 0 14 -20l-2 -23q-2 -20 -22 -20h-696q-21 0 -17 20z" />
<glyph unicode="{" horiz-adv-x="968" d="M188 528l5 23q2 20 20 20h4q270 0 297 197l64 514q14 123 104 188.5t295 65.5h10q20 0 17 -18l-3 -25q0 -18 -20 -18h-8q-166 0 -237.5 -51.5t-84.5 -147.5l-63 -514q-20 -184 -228 -223q174 -35 175 -187q0 -25 -5 -63l-61 -484q-4 -27 -4 -49q0 -166 274 -166h11 q14 0 14 -20l-2 -25q0 -18 -19 -18h-10q-342 0 -342 217q0 29 4 59l60 482q6 57 6 61q0 162 -252 162h-2q-21 0 -19 20z" />
<glyph unicode="|" horiz-adv-x="516" d="M258 -438v1935q0 20 18 21h37q16 0 17 -21v-1935q0 -20 -17 -21h-37q-18 1 -18 21z" />
<glyph unicode="}" horiz-adv-x="968" d="M92 -455l2 25q0 20 21 20h8q166 0 236.5 50.5t82.5 146.5l66 530q23 182 229 222q-174 35 -174 188q0 31 4 57l58 478q4 31 4 47q0 166 -273 166h-8q-18 0 -18 18l2 25q2 18 22 18h6q342 0 342 -217q0 -16 -4 -55l-57 -478q-4 -31 -4 -53q0 -162 252 -162h2q16 0 16 -20 l-2 -25q0 -18 -24 -18h-2q-270 0 -297 -195l-66 -532q-14 -121 -105.5 -187.5t-291.5 -66.5h-10q-17 0 -17 18z" />
<glyph unicode="~" horiz-adv-x="1032" d="M256 504v33q6 182 133 182q45 0 109 -39l176 -105q55 -31 88 -30q45 0 59.5 27.5t14.5 105.5v20q0 18 20 19h21q18 0 18 -21v-34q-6 -182 -129 -183q-49 0 -117 41l-178 107q-47 27 -78 26q-45 0 -61.5 -26.5t-16.5 -106.5v-18q0 -20 -22 -21h-19q-18 0 -18 23z" />
<glyph unicode="&#xa1;" horiz-adv-x="522" d="M172 -391l74 610l71 500q4 18 21 18h24q14 0 15 -18l-53 -500l-74 -610q-2 -18 -23 -19h-39q-18 1 -16 19zM330 881l22 166q4 18 21 18h33q25 0 20 -18l-23 -166q-4 -18 -20 -19h-37q-20 1 -16 19z" />
<glyph unicode="&#xa2;" horiz-adv-x="1128" d="M246 399q0 27 2 41l74 594q14 117 95 181.5t267 70.5l21 170q4 20 22 21h35q20 0 14 -21l-18 -170q297 -12 297 -211q0 -25 -2 -43l-6 -43q-2 -18 -21 -18h-33q-20 0 -16 16l4 41q2 16 2 35q0 164 -270 164q-166 0 -238 -52.5t-82 -146.5l-71 -579q-2 -20 -3 -39 q0 -78 60.5 -119t210.5 -41q166 0 235.5 51t83.5 143l9 60q2 18 22 18h33q16 0 14 -18l-8 -64q-14 -117 -94 -182t-262 -72l-21 -166q-2 -20 -20 -20h-35q-20 0 -19 20l21 166q-303 8 -303 213z" />
<glyph unicode="&#xa3;" horiz-adv-x="1402" d="M201 20l2 25q0 18 20 18h131l82 652h-133q-14 0 -14 18l2 27q2 16 22 16h129l56 443q8 70 27.5 114.5t65.5 83.5t128 57.5t207 18.5q205 0 286.5 -55.5t81.5 -163.5q0 -16 -4 -55l-8 -58q-2 -18 -20 -18h-33q-23 0 -19 20l9 45q4 41 4 56q0 84 -66.5 123.5t-238.5 39.5 q-193 0 -263.5 -51t-85.5 -168l-53 -432h391q20 0 15 -16l-2 -27q0 -18 -21 -18h-389l-82 -652h481q111 0 190 60.5t79 218.5v10q4 18 20 19h31q16 0 16 -19v-10q-4 -342 -332 -342h-698q-14 0 -14 20z" />
<glyph unicode="&#xa4;" horiz-adv-x="1167" d="M150 606v17q0 20 22 20h182l23 195h-182q-18 0 -17 18l2 16q2 20 23 21h182l39 305q16 139 118.5 217t340.5 78q397 0 397 -250q0 -29 -2 -47l-14 -113q-4 -20 -21 -20h-35q-18 0 -16 20l12 107q2 12 2 41q0 197 -327 196q-197 0 -283 -61t-100 -176l-37 -297h344 q18 0 18 -21v-16q0 -18 -24 -18h-346l-23 -195h344q23 0 19 -20l-3 -17q-2 -18 -20 -18h-346l-37 -299q-2 -14 -2 -43q0 -199 326 -199q197 0 283.5 62.5t101.5 177.5l18 133q2 16 18 16h35q23 0 19 -16l-19 -141q-16 -139 -119.5 -217t-343.5 -78q-397 0 -397 243 q0 18 6 54l37 307h-180q-18 0 -18 18z" />
<glyph unicode="&#xa5;" horiz-adv-x="1091" d="M215 631l2 18q2 16 21 17h325l-82 196h-219q-16 0 -16 19v18q0 16 20 16h193l-228 541q-8 20 17 21h41q14 0 22 -21l297 -706q16 -49 21 -66q2 10 35 66l471 706q16 20 28 21h39q16 0 17 -9q0 -5 -5 -12l-360 -541h193q16 0 16 -16v-18q0 -18 -21 -19h-225l-131 -196h328 q10 0 16 -4.5t4 -12.5l-2 -18q-4 -18 -22 -19h-355l-71 -592q-2 -20 -19 -20h-35q-23 0 -20 20l74 592h-353q-18 1 -16 19z" />
<glyph unicode="&#xa6;" horiz-adv-x="462" d="M242 317q0 18 18 19h35q20 0 20 -19v-755q0 -20 -20 -21h-35q-18 0 -18 21v755zM242 700v756q0 20 18 21h35q20 0 20 -21v-756q0 -18 -20 -18h-35q-18 0 -18 18z" />
<glyph unicode="&#xa7;" horiz-adv-x="1185" d="M190 -254q0 16 5 51l2 21q4 18 22 18h33q16 0 14 -20l-2 -19q-4 -25 -4 -43q0 -166 281 -166q297 0 323 195l21 168q6 29 6 43q0 100 -152 141l-290 86q-59 18 -109.5 64.5t-50.5 124.5q0 31 2 47l28 231q2 20 21 21h31q20 0 18 -21l-27 -215q-4 -31 -4 -49 q0 -102 125 -141l293 -88q186 -53 187 -189q0 -18 -7 -53l-18 -168q-16 -121 -107.5 -187.5t-293.5 -66.5q-347 0 -347 215zM348 1020q0 23 4 53l21 166q16 123 107 188.5t294 65.5q344 0 344 -215q0 -18 -4 -49l-2 -23q-2 -18 -22 -18h-31q-18 0 -17 20l2 19q4 27 5 45 q0 166 -279 166q-299 0 -326 -197l-20 -164q-2 -18 -2 -45q0 -100 149 -141l291 -86q57 -16 108.5 -63.5t51.5 -125.5q0 -33 -2 -47l-31 -233q-4 -18 -20 -19h-31q-23 0 -18 19l28 215q4 31 4 53q0 100 -127 139l-290 86q-187 62 -187 191z" />
<glyph unicode="&#xa8;" horiz-adv-x="630" d="M346 1288l25 215q2 18 22 19h25q16 0 14 -19l-26 -215q-2 -20 -21 -20h-23q-20 0 -16 20zM537 1288l26 215q2 18 21 19h24q16 0 15 -19l-25 -215q-4 -20 -23 -20h-22q-18 0 -16 20z" />
<glyph unicode="&#xa9;" horiz-adv-x="1513" d="M254 301v877q0 72 21.5 124t77 98t165 69.5t273.5 23.5q160 0 269 -23.5t164.5 -69.5t78 -98.5t22.5 -123.5v-877q0 -74 -22.5 -127t-78 -98t-165 -68.5t-268.5 -23.5q-164 0 -273.5 23.5t-165 68.5t-77 98t-21.5 127zM315 295q0 -123 103.5 -190.5t371 -67.5t372 67.5 t104.5 190.5v887q0 123 -104.5 190.5t-372 67.5t-371 -67.5t-103.5 -190.5v-887zM510 528v418q0 127 57.5 189.5t222 62.5t223 -62.5t58.5 -189.5v-41q0 -20 -20 -20h-29q-18 0 -18 20v39q0 100 -41 149.5t-173.5 49.5t-172 -48t-39.5 -151v-414q0 -100 39.5 -149t173.5 -49 q129 0 171 49t42 149v56q0 20 18 20h29q20 0 20 -20v-58q0 -127 -58.5 -189.5t-223 -62.5t-222 62.5t-57.5 189.5z" />
<glyph unicode="&#xaa;" horiz-adv-x="755" d="M266 963q0 4 4 38l43 340q18 152 199 152q119 0 219 -80l12 53q2 16 17 17h24q14 0 11 -15l-74 -614q0 -12 -16 -12h-27q-12 0 -12 12l6 57q-117 -80 -242 -80q-80 0 -122 35.5t-42 96.5zM326 973q0 -94 121.5 -94t230.5 86l47 395q-94 84 -209 84q-131 0 -147 -109 l-39 -315z" />
<glyph unicode="&#xab;" horiz-adv-x="1308" d="M246 518l4 29q2 18 20 28l443 308q4 6 9 6q2 0 4 -1q7 -4 5 -14l-6 -40q-2 -14 -23 -31l-391 -271l326 -270q16 -16 14 -29l-4 -43q-2 -8 -9 -10q-2 -1 -4 0q-4 0 -7 2l-369 312q-14 14 -12 24zM662 518l4 29q2 18 22 28l440 308q4 6 10 6q2 0 5 -1q8 -3 6 -14l-6 -40 q-4 -14 -23 -31l-393 -271l326 -270q18 -16 16 -29l-6 -43q-2 -8 -8 -10q-2 -1 -4 0q-4 0 -7 2l-368 312q-16 14 -14 24z" />
<glyph unicode="&#xac;" horiz-adv-x="792" d="M168 675q0 93 65.5 160.5t162 67.5t163 -67.5t66.5 -160.5t-66.5 -161t-163 -68t-162 68t-65.5 161z" />
<glyph unicode="&#xad;" horiz-adv-x="1015" d="M268 616v25q0 18 21 18h583q18 0 19 -18v-25q0 -18 -19 -18h-583q-21 0 -21 18z" />
<glyph unicode="&#xae;" horiz-adv-x="1320" d="M324 848v381q0 264 440 264q436 0 436 -264v-381q0 -262 -436 -262q-440 0 -440 262zM381 844q0 -84 83 -144.5t300 -60.5q381 0 381 205v389q0 209 -381 209q-215 0 -299 -62.5t-84 -146.5v-389zM573 758v542q0 14 15 15h194q109 0 155 -43t46 -105v-55 q0 -111 -121 -139l92 -215q6 -12 -12 -13h-31q-12 0 -16 13l-90 207h-174v-207q0 -12 -13 -13h-32q-13 1 -13 13zM631 1012h149q76 0 111 30.5t35 73.5v47q0 43 -35 74t-111 31h-149v-256z" />
<glyph unicode="&#xaf;" horiz-adv-x="915" d="M317 1348l2 22q0 18 21 19h571q18 0 19 -17l-2 -24q0 -18 -23 -19h-571q-17 1 -17 19z" />
<glyph unicode="&#xb0;" horiz-adv-x="841" d="M283 1065q0 23 4 45l24 195q10 92 74 138t217 46q246 0 246 -160q0 -29 -2 -41l-23 -194q-12 -88 -75.5 -136.5t-215.5 -48.5q-249 0 -249 156zM348 1075q0 -111 191 -110q205 0 219 131l24 190q2 8 2 31q0 119 -190 119q-203 0 -219 -131l-23 -195q-4 -27 -4 -35z" />
<glyph unicode="&#xb1;" horiz-adv-x="1280" d="M229 289v24q0 18 21 19h848q20 0 20 -19v-24q0 -20 -20 -21h-848q-21 1 -21 21zM229 811v27q0 18 21 18h391v301q0 20 16 21h27q18 0 18 -21v-301h396q20 0 20 -18v-27q0 -18 -20 -18h-396v-306q0 -18 -18 -18h-27q-16 0 -16 18v306h-391q-21 0 -21 18z" />
<glyph unicode="&#xb2;" horiz-adv-x="792" d="M229 612l31 252q10 88 131 119l240 68q90 25 98 96l19 141q4 39 4 41q0 55 -40 85t-143 30q-109 0 -152.5 -36t-51.5 -103l-9 -64q-2 -14 -18 -14h-29q-16 0 -14 14l8 72q12 86 70.5 133t201.5 47q233 0 234 -154q0 -6 -4 -45l-17 -145q-14 -111 -133 -141l-231 -64 q-100 -29 -107 -86l-26 -211h424q12 0 12 -12l-2 -23q0 -14 -14 -14h-469q-15 0 -13 14z" />
<glyph unicode="&#xb3;" horiz-adv-x="790" d="M233 735q0 10 5 31l2 22q0 12 14 13h31q14 0 14 -13l-2 -16q-2 -18 -2 -24q0 -109 178 -109q106 0 152.5 35t54.5 98l16 129q2 18 2 45q0 53 -36.5 78t-133.5 25h-120q-4 0 -7.5 1t-5.5 4t-2 7l2 20q2 14 17 15h114q113 0 156 32.5t47 100.5l4 47q6 59 6 61 q0 109 -168 109q-104 0 -149 -34t-53 -101l-2 -15q-2 -14 -17 -14h-31q-10 0 -10 14l2 21q8 86 67.5 132t199.5 46q225 0 225 -145q0 -4 -4 -47l-8 -80q-6 -66 -36 -99.5t-102 -48.5q106 -25 107 -119q0 -8 -4 -51l-17 -141q-8 -84 -68.5 -130t-201.5 -46q-236 0 -236 147z " />
<glyph unicode="&#xb4;" horiz-adv-x="739" d="M401 1260l203 262q10 14 23 14h45q12 0 12 -6q0 -4 -6 -12l-211 -265q-10 -12 -23 -12h-34q-12 0 -12 8q-1 4 3 11z" />
<glyph unicode="&#xb5;" horiz-adv-x="1114" d="M129 -436l184 1483q4 18 21 18h33q20 0 18 -18l-96 -768q-6 -45 -6 -64q0 -168 215 -168q195 0 372 135l107 865q4 18 22 18h33q18 0 17 -18l-129 -1027q-4 -20 -19 -20h-29q-16 0 -16 20l6 97q-168 -133 -381 -133q-176 0 -223 100l-57 -520q-4 -18 -21 -19h-35 q-20 1 -16 19z" />
<glyph unicode="&#xb6;" horiz-adv-x="1339" d="M324 854q0 29 4 59l34 279q18 137 118 211t337 74h176q18 0 19 -19l-232 -1892q-4 -20 -22 -21h-37q-18 0 -16 21l129 1046h-123q-387 0 -387 242zM983 -434l234 1890q4 20 20 21h35q18 0 18 -21l-233 -1890q-2 -20 -21 -21h-37q-18 1 -16 21z" />
<glyph unicode="&#xb7;" horiz-adv-x="442" d="M242 477l18 166q4 18 23 19h36q18 0 15 -19l-19 -166q-2 -18 -20 -18h-35q-20 0 -18 18z" />
<glyph unicode="&#xb8;" horiz-adv-x="303" d="M-84 -424q0 20 21 21h251q53 0 95.5 28.5t42.5 106.5q0 51 -33 72.5t-76 21.5h-119q-33 0 -22 24l63 154q4 16 21 16l20 -4q16 -2 8 -24l-45 -111h88q61 0 108.5 -35.5t47.5 -109.5q0 -104 -60.5 -149.5t-138.5 -45.5h-258q-14 0 -14 21v14z" />
<glyph unicode="&#xb9;" horiz-adv-x="815" d="M219 618l2 23q0 14 19 14h219l92 770l-221 -55q-6 -2 -11.5 0t-3.5 10l2 25q0 12 15 14l274 72h3q9 0 9 -10l-102 -826h219q14 0 15 -12l-2 -25q-2 -14 -17 -14h-500q-12 0 -12 14z" />
<glyph unicode="&#xba;" horiz-adv-x="759" d="M266 967q0 10 8 55l39 315q16 156 246 156q217 0 217 -133q0 -16 -4 -43l-41 -330q-16 -156 -250 -156q-215 1 -215 136zM326 975q0 -96 159 -96q172 0 189 112l41 326q4 23 4 35q0 94 -162 94q-174 0 -186 -111l-41 -311q-4 -31 -4 -49z" />
<glyph unicode="&#xbb;" horiz-adv-x="1314" d="M248 207l6 41q2 14 22 31l392 270l-326 270q-16 16 -14 27l4 45q2 8 9 10q2 1 4 1q4 0 7 -3l369 -311q14 -14 12 -25l-4 -28q-2 -18 -20 -29l-443 -309q-5 -5 -10 -5q-2 0 -3 1q-7 2 -5 14zM672 207l6 41q2 14 20 31l394 270l-326 270q-16 16 -14 27l4 45q2 8 8 10 q2 1 4 1q4 0 6 -3l371 -311q14 -14 12 -25l-4 -28q-2 -18 -23 -29l-440 -309q-5 -5 -10 -5q-2 0 -4 1q-5 1 -6 7q1 3 2 7z" />
<glyph unicode="&#xbc;" horiz-adv-x="1738" d="M283 618l2 23q0 14 16 14h219l94 770l-221 -55q-6 -2 -12 0t-4 10l4 25q0 12 14 14l273 72q14 2 14 -10l-102 -826h219q12 0 12 -12l-2 -25q-2 -14 -14 -14h-500q-12 0 -12 14zM662 -92l653 1661q8 14 20 14h35q12 0 6 -14l-653 -1661q-6 -14 -18 -14h-31q-14 0 -14 8 q0 2 2 6zM1122 313v15q0 6 8 24l259 518q8 14 20 15h35q14 0 6 -15l-256 -522h383l61 522q0 14 19 15h31q12 0 12 -15l-105 -856q-2 -14 -16 -14h-33q-18 0 -14 14l37 285h-436q-11 0 -11 14z" />
<glyph unicode="&#xbd;" horiz-adv-x="1785" d="M283 618l2 23q0 14 16 14h219l94 770l-221 -55q-6 -2 -12 0t-4 10l4 25q0 12 14 14l273 72q14 2 14 -10l-102 -826h219q12 0 12 -12l-2 -25q-2 -14 -14 -14h-500q-12 0 -12 14zM655 -92l654 1661q6 14 20 14h35q12 0 6 -14l-653 -1661q-4 -14 -19 -14h-32q-15 0 -11 14z M1214 14l29 252q12 90 131 121l242 68q88 23 96 94l19 141q4 39 4 41q0 57 -40 86t-143 29q-109 0 -152.5 -36t-51.5 -101l-9 -64q-2 -16 -16 -16h-31q-16 0 -14 16l10 72q10 84 68.5 132t202.5 48q236 0 235 -154q0 -8 -6 -47l-16 -145q-12 -111 -134 -141l-231 -62 q-100 -29 -107 -88l-26 -211h424q12 0 12 -12l-2 -23q0 -14 -14 -14h-469q-15 0 -11 14z" />
<glyph unicode="&#xbe;" horiz-adv-x="1728" d="M297 735q0 10 2 31l2 22q0 12 16 13h31q14 0 14 -13l-2 -16q-2 -18 -2 -24q0 -109 179 -109q106 0 151 35t55 98l17 129q2 18 2 45q0 53 -37 78t-135 25h-119q-4 0 -7 1t-5 4t-2 7l2 20q2 14 16 15h113q113 0 156.5 32.5t48.5 100.5l4 47q6 59 6 61q0 109 -168 109 q-104 0 -149.5 -34t-53.5 -101l-2 -15q-2 -14 -18 -14h-29q-12 0 -12 14l2 21q10 86 69.5 132t198.5 46q225 0 225 -145q0 -4 -4 -47l-8 -80q-8 -66 -37 -99.5t-100 -48.5q106 -25 106 -119q0 -8 -4 -51l-16 -141q-8 -84 -68.5 -130t-202.5 -46q-235 0 -235 147zM647 -92 l653 1661q6 14 19 14h33q16 0 10 -14l-653 -1661q-10 -14 -21 -14h-33q-11 0 -11 6q0 3 3 8zM1114 313l2 15q0 10 6 24l258 518q6 14 23 15h33q14 0 6 -15l-256 -522h381l63 522q0 14 19 15h28q14 0 15 -15l-105 -856q-2 -14 -18 -14h-29q-14 0 -14 14l35 285h-435 q-14 0 -12 14z" />
<glyph unicode="&#xbf;" horiz-adv-x="1232" d="M174 -178q0 31 2 47l25 203q18 166 196 247l117 56q123 59 139 174l25 170q2 18 18 18h37q20 0 17 -18l-23 -182q-14 -137 -174 -213l-129 -64q-133 -63 -150 -190l-26 -195q-2 -16 -2 -43q0 -92 73.5 -143t251.5 -51q195 0 279 61t98 176l17 113q2 18 20 18h35 q18 0 16 -18l-16 -121q-16 -141 -117.5 -218t-337.5 -77q-391 0 -391 250zM696 881l21 166q4 18 20 18h35q20 0 19 -18l-21 -164q-4 -20 -20 -21h-37q-19 1 -17 19z" />
<glyph unicode="&#xc0;" horiz-adv-x="1107" d="M63 20l625 1436q10 20 27 21h39q18 0 20 -21l273 -1436q4 -20 -13 -20h-41q-16 0 -20 20l-88 455h-551l-199 -455q-6 -20 -24 -20h-33q-17 0 -18 10q0 4 3 10zM360 539h517l-125 661l-29 191q-4 -12 -30.5 -84t-39.5 -101zM532 1886q-4 7 -4 12q0 9 15 9h39q18 0 24 -17 l133 -262q3 -5 3 -8q0 -8 -13 -8h-29q-16 0 -22 10z" />
<glyph unicode="&#xc1;" horiz-adv-x="1107" d="M63 20l625 1436q10 20 27 21h39q18 0 20 -21l273 -1436q4 -20 -13 -20h-41q-16 0 -20 20l-88 455h-551l-199 -455q-6 -20 -24 -20h-33q-17 0 -18 10q0 4 3 10zM360 539h517l-125 661l-29 191q-4 -12 -30.5 -84t-39.5 -101zM709 1628l198 262q10 16 27 17h41q13 0 13 -7 q0 -5 -7 -14l-211 -264q-10 -10 -20 -10h-35q-12 0 -12 5q0 4 6 11z" />
<glyph unicode="&#xc2;" horiz-adv-x="1107" d="M63 20l625 1436q10 20 27 21h39q18 0 20 -21l273 -1436q4 -20 -13 -20h-41q-16 0 -20 20l-88 455h-551l-199 -455q-6 -20 -24 -20h-33q-17 0 -18 10q0 4 3 10zM360 539h517l-125 661l-29 191q-4 -12 -30.5 -84t-39.5 -101zM518 1630l203 256q14 20 33 21h28q14 0 25 -19 l143 -258q4 -7 5 -11q0 -8 -15 -7h-29q-14 0 -28 18l-119 223l-178 -223q-14 -18 -27 -18h-31q-16 0 -15 7q0 4 5 11z" />
<glyph unicode="&#xc3;" horiz-adv-x="1107" d="M63 20l625 1436q10 20 27 21h39q18 0 20 -21l273 -1436q4 -20 -13 -20h-41q-16 0 -20 20l-88 455h-551l-199 -455q-6 -20 -24 -20h-33q-17 0 -18 10q0 4 3 10zM360 539h517l-125 661l-29 191q-4 -12 -30.5 -84t-39.5 -101zM451 1669l6 33q12 98 48 138t99 40 q55 0 107 -49l84 -86q37 -37 69 -37q43 0 62.5 27.5t27.5 105.5l2 21q4 18 25 18h20q18 0 15 -20l-4 -31q-12 -98 -48 -138t-100 -40q-57 0 -106 49l-86 84q-43 37 -68 37q-45 0 -61.5 -26t-30.5 -103l-4 -25q-4 -18 -23 -18h-18q-20 0 -16 20z" />
<glyph unicode="&#xc4;" horiz-adv-x="1107" d="M63 20l625 1436q10 20 27 21h39q18 0 20 -21l273 -1436q4 -20 -13 -20h-41q-16 0 -20 20l-88 455h-551l-199 -455q-6 -20 -24 -20h-33q-17 0 -18 10q0 4 3 10zM360 539h517l-125 661l-29 191q-4 -12 -30.5 -84t-39.5 -101zM612 1651l27 215q2 16 20 16h25q16 0 14 -16 l-24 -215q-2 -20 -23 -21h-22q-19 1 -17 21zM803 1651l26 215q2 16 23 16h22q18 0 17 -16l-25 -215q-2 -20 -22 -21h-23q-20 1 -18 21z" />
<glyph unicode="&#xc5;" horiz-adv-x="1107" d="M63 20l625 1436q10 20 27 21h39q18 0 20 -21l273 -1436q4 -20 -13 -20h-41q-16 0 -20 20l-88 455h-551l-199 -455q-6 -20 -24 -20h-33q-17 0 -18 10q0 4 3 10zM360 539h517l-125 661l-29 191q-4 -12 -30.5 -84t-39.5 -101zM557 1700q0 29 2 57l4 19q14 139 205 139 q86 0 130 -37t44 -94q0 -18 -2 -41l-4 -35q-18 -131 -207 -131q-84 0 -128 34t-44 89zM610 1708q0 -84 123 -84q145 0 152 88l4 27q2 20 2 37q0 90 -127 90q-141 0 -152 -94l-2 -27v-37z" />
<glyph unicode="&#xc6;" horiz-adv-x="1824" d="M66 20l1005 1436q14 20 37 21h733q16 0 14 -21l-2 -22q-4 -20 -20 -21h-686l-74 -602h643q20 0 19 -18l-2 -25q-4 -18 -23 -18h-645l-86 -687h715q18 0 16 -18l-4 -25q-4 -20 -18 -20h-756q-16 0 -23.5 4t-5.5 21l58 450h-500l-320 -455q-16 -20 -26 -20h-35q-19 0 -19 9 q0 4 5 11zM506 539h463l96 807q-29 -51 -84 -127z" />
<glyph unicode="&#xc7;" horiz-adv-x="1175" d="M225 227q0 18 4 54l113 917q18 139 120.5 217t340.5 78q397 0 397 -250q0 -29 -2 -47l-14 -113q-2 -20 -21 -20h-35q-20 0 -16 20l12 107q2 12 2 41q0 197 -327 196q-197 0 -283 -61t-102 -176l-111 -901q-2 -14 -2 -43q0 -199 326 -199q199 0 285.5 62.5t101.5 177.5 l18 133q2 16 19 16h34q23 0 17 -16l-17 -141q-16 -139 -119.5 -217t-342.5 -78h-25l-43 -103h90q59 0 106.5 -35.5t47.5 -109.5q0 -104 -59.5 -149.5t-137.5 -45.5h-260q-14 0 -14 21v14q0 20 22 21h252q51 0 93 28.5t42 106.5q0 51 -31.5 72.5t-76.5 21.5h-119 q-33 0 -23 24l56 138q-318 18 -318 239z" />
<glyph unicode="&#xc8;" horiz-adv-x="1150" d="M223 20l176 1436q4 20 23 21h739q18 0 19 -21l-2 -24q-6 -20 -23 -21h-686l-74 -600h645q16 0 17 -18l-2 -27q0 -18 -21 -18h-647l-86 -682h715q23 0 18 -21l-6 -25q-4 -20 -18 -20h-770q-19 0 -17 20zM610 1886q-3 7 -3 12q0 9 14 9h38q18 0 25 -17l135 -262q2 -4 2 -7 q0 -9 -14 -9h-27q-18 0 -24 10z" />
<glyph unicode="&#xc9;" horiz-adv-x="1150" d="M223 20l176 1436q4 20 23 21h739q18 0 19 -21l-2 -24q-6 -20 -23 -21h-686l-74 -600h645q16 0 17 -18l-2 -27q0 -18 -21 -18h-647l-86 -682h715q23 0 18 -21l-6 -25q-4 -20 -18 -20h-770q-19 0 -17 20zM756 1628l198 262q12 16 27 17h41q13 0 13 -7q0 -5 -7 -14 l-209 -264q-12 -10 -22 -10h-35q-11 0 -11 6q0 3 5 10z" />
<glyph unicode="&#xca;" horiz-adv-x="1150" d="M223 20l176 1436q4 20 23 21h739q18 0 19 -21l-2 -24q-6 -20 -23 -21h-686l-74 -600h645q16 0 17 -18l-2 -27q0 -18 -21 -18h-647l-86 -682h715q23 0 18 -21l-6 -25q-4 -20 -18 -20h-770q-19 0 -17 20zM584 1630l202 256q14 20 33 21h27q16 0 26 -19l144 -258q3 -6 3 -10 q0 -8 -13 -8h-29q-14 0 -29 18l-119 223l-178 -223q-14 -18 -26 -18h-33q-14 0 -14 7q0 4 6 11z" />
<glyph unicode="&#xcb;" horiz-adv-x="1150" d="M223 20l176 1436q4 20 23 21h739q18 0 19 -21l-2 -24q-6 -20 -23 -21h-686l-74 -600h645q16 0 17 -18l-2 -27q0 -18 -21 -18h-647l-86 -682h715q23 0 18 -21l-6 -25q-4 -20 -18 -20h-770q-19 0 -17 20zM690 1651l27 215q2 16 20 16h25q18 0 14 -16l-24 -215 q-2 -20 -23 -21h-20q-21 1 -19 21zM881 1651l26 215q2 16 23 16h22q18 0 17 -16l-25 -215q-2 -20 -22 -21h-23q-20 1 -18 21z" />
<glyph unicode="&#xcc;" horiz-adv-x="516" d="M223 20l176 1436q4 20 23 21h37q18 0 14 -21l-176 -1436q-2 -20 -18 -20h-37q-21 0 -19 20zM266 1886q-3 6 -3 11q0 10 16 10h38q16 0 23 -17l135 -262q2 -4 2 -8q0 -9 -12 -8h-29q-16 0 -24 10z" />
<glyph unicode="&#xcd;" horiz-adv-x="516" d="M223 20l176 1436q4 20 23 21h37q18 0 14 -21l-176 -1436q-2 -20 -18 -20h-37q-21 0 -19 20zM426 1628l199 262q12 16 26 17h41q13 0 13 -7q0 -5 -7 -14l-211 -264q-10 -10 -20 -10h-35q-12 0 -12 5q0 4 6 11z" />
<glyph unicode="&#xce;" horiz-adv-x="516" d="M223 20l176 1436q4 20 23 21h37q18 0 14 -21l-176 -1436q-2 -20 -18 -20h-37q-21 0 -19 20zM233 1630l203 256q14 20 33 21h29q14 0 24 -19l144 -258q4 -7 4 -11q0 -8 -15 -7h-28q-14 0 -27 18l-121 223l-178 -223q-14 -18 -25 -18h-32q-16 0 -16 7q0 4 5 11z" />
<glyph unicode="&#xcf;" horiz-adv-x="516" d="M223 20l176 1436q4 20 23 21h37q18 0 14 -21l-176 -1436q-2 -20 -18 -20h-37q-21 0 -19 20zM334 1651l26 215q2 16 23 16h23q18 0 16 -16l-27 -215q-2 -20 -22 -21h-21q-20 1 -18 21zM526 1651l25 215q2 16 22 16h25q16 0 14 -16l-24 -215q-2 -20 -21 -21h-24 q-21 1 -17 21z" />
<glyph unicode="&#xd0;" horiz-adv-x="1290" d="M117 737l2 23q0 20 22 20h176l82 676q4 20 21 21h416q406 0 405 -252q0 -33 -2 -47l-109 -883q-14 -139 -121.5 -217t-349.5 -78h-417q-20 0 -19 20l86 699h-174q-22 0 -18 18zM301 66h363q362 0 393 237l106 866q2 14 2 39q0 203 -336 203h-360l-78 -631h334 q18 0 18 -20l-4 -23q-6 -18 -22 -18h-334z" />
<glyph unicode="&#xd1;" horiz-adv-x="1312" d="M223 20l176 1436q4 20 23 21h24q16 0 19 -9l524 -1202q49 -102 49 -116l160 1306q4 20 23 21h30q20 0 17 -21l-178 -1436q-4 -20 -19 -20h-29q-16 0 -18 8l-522 1196l-47 125l-164 -1309q-4 -20 -21 -20h-28q-21 0 -19 20zM582 1669l4 33q14 98 50 138t97 40 q57 0 107 -49l86 -86q37 -37 67 -37q45 0 64.5 27.5t27.5 105.5l2 21q2 18 25 18h18q20 0 17 -20l-4 -31q-14 -98 -50 -138t-100 -40q-55 0 -104 49l-88 84q-41 37 -68 37q-43 0 -60.5 -26t-29.5 -103l-4 -25q-4 -18 -23 -18h-18q-20 0 -16 20z" />
<glyph unicode="&#xd2;" horiz-adv-x="1263" d="M225 229q0 16 4 52l113 917q16 139 122.5 217t346.5 78q408 0 408 -252q0 -31 -2 -45l-115 -917q-33 -295 -473 -295q-404 -1 -404 245zM301 250q0 -203 336 -203q362 0 391 240l111 901q4 14 4 39q0 201 -338 200q-360 0 -391 -237l-111 -901q-2 -14 -2 -39zM647 1886 q-3 6 -2 11q0 10 12 10h39q16 0 25 -17l135 -262q2 -4 2 -7q0 -9 -14 -9h-27q-18 0 -24 10z" />
<glyph unicode="&#xd3;" horiz-adv-x="1263" d="M225 229q0 16 4 52l113 917q16 139 122.5 217t346.5 78q408 0 408 -252q0 -31 -2 -45l-115 -917q-33 -295 -473 -295q-404 -1 -404 245zM301 250q0 -203 336 -203q362 0 391 240l111 901q4 14 4 39q0 201 -338 200q-360 0 -391 -237l-111 -901q-2 -14 -2 -39zM795 1628 l198 262q12 16 27 17h41q14 0 14 -8q0 -5 -6 -13l-211 -264q-12 -10 -22 -10h-35q-11 0 -11 6q0 3 5 10z" />
<glyph unicode="&#xd4;" horiz-adv-x="1263" d="M225 229q0 16 4 52l113 917q16 139 122.5 217t346.5 78q408 0 408 -252q0 -31 -2 -45l-115 -917q-33 -295 -473 -295q-404 -1 -404 245zM301 250q0 -203 336 -203q362 0 391 240l111 901q4 14 4 39q0 201 -338 200q-360 0 -391 -237l-111 -901q-2 -14 -2 -39zM604 1630 l201 256q16 20 33 21h28q14 0 27 -19l143 -258q3 -6 3 -10q0 -9 -15 -8h-27q-16 0 -28 18l-121 223l-176 -223q-16 -18 -27 -18h-33q-15 0 -14 6q-1 5 6 12z" />
<glyph unicode="&#xd5;" horiz-adv-x="1263" d="M225 229q0 16 4 52l113 917q16 139 122.5 217t346.5 78q408 0 408 -252q0 -31 -2 -45l-115 -917q-33 -295 -473 -295q-404 -1 -404 245zM301 250q0 -203 336 -203q362 0 391 240l111 901q4 14 4 39q0 201 -338 200q-360 0 -391 -237l-111 -901q-2 -14 -2 -39zM559 1669 l6 33q12 98 48 138t100 40q55 0 106 -49l84 -86q37 -37 70 -37q43 0 62.5 27.5t27.5 105.5l2 21q4 18 25 18h20q18 0 14 -20l-4 -31q-12 -98 -48 -138t-99 -40q-57 0 -107 49l-86 84q-43 37 -67 37q-45 0 -61.5 -26t-30.5 -103l-5 -25q-4 -18 -22 -18h-19q-20 0 -16 20z" />
<glyph unicode="&#xd6;" horiz-adv-x="1263" d="M225 229q0 16 4 52l113 917q16 139 122.5 217t346.5 78q408 0 408 -252q0 -31 -2 -45l-115 -917q-33 -295 -473 -295q-404 -1 -404 245zM301 250q0 -203 336 -203q362 0 391 240l111 901q4 14 4 39q0 201 -338 200q-360 0 -391 -237l-111 -901q-2 -14 -2 -39zM700 1651 l27 215q2 16 23 16h22q18 0 16 -16l-26 -215q-2 -20 -23 -21h-20q-21 1 -19 21zM893 1651l25 215q2 16 22 16h25q16 0 14 -16l-25 -215q-2 -20 -20 -21h-25q-18 1 -16 21z" />
<glyph unicode="&#xd7;" horiz-adv-x="1181" d="M266 526q-3 5 -3 9q0 9 13 16l338 197l-196 339q-10 14 6 27l20 12q7 4 12 4q9 0 15 -12l197 -338l344 197q14 8 24 -6l13 -23q3 -5 2 -9q0 -10 -11 -19l-342 -197l199 -338q8 -14 -8 -27l-21 -12q-6 -5 -11 -5q-8 0 -15 11l-197 340l-340 -194q-12 -10 -24 8z" />
<glyph unicode="&#xd8;" horiz-adv-x="1263" d="M225 227q0 16 4 52l113 917q16 139 122.5 217t346.5 78q190 0 291 -55l45 71q10 18 27 19h22q8 0 9 -6.5t-3 -12.5l-57 -100q74 -61 74 -168q0 -31 -2 -45l-115 -918q-33 -297 -473 -296q-193 0 -291 55l-39 -66q-12 -23 -29 -22h-20q-23 0 -6 22l53 94q-72 55 -72 164z M301 248q0 -70 37 -115l727 1239q-80 53 -260 53q-360 0 -391 -237l-111 -901q-2 -16 -2 -39zM375 100q82 -55 262 -55q362 0 391 240l111 901q4 14 4 39q0 68 -41 112z" />
<glyph unicode="&#xd9;" horiz-adv-x="1290" d="M240 233q0 33 2 50l145 1173q4 20 19 21h34q25 0 21 -21l-146 -1163q-2 -16 -2 -43q0 -203 334 -203q199 0 288 63.5t105 176.5l146 1169q4 20 18 21h35q25 0 21 -21l-146 -1177q-18 -139 -124.5 -217t-346.5 -78q-403 -1 -403 249zM649 1886q-3 7 -3 12q0 9 13 9h39 q18 0 25 -17l135 -262q2 -4 2 -7q0 -9 -14 -9h-27q-18 0 -24 10z" />
<glyph unicode="&#xda;" horiz-adv-x="1290" d="M240 233q0 33 2 50l145 1173q4 20 19 21h34q25 0 21 -21l-146 -1163q-2 -16 -2 -43q0 -203 334 -203q199 0 288 63.5t105 176.5l146 1169q4 20 18 21h35q25 0 21 -21l-146 -1177q-18 -139 -124.5 -217t-346.5 -78q-403 -1 -403 249zM801 1628l200 262q10 16 25 17h43 q12 0 12 -7q0 -5 -6 -14l-211 -264q-10 -10 -22 -10h-35q-11 0 -11 6q0 3 5 10z" />
<glyph unicode="&#xdb;" horiz-adv-x="1290" d="M240 233q0 33 2 50l145 1173q4 20 19 21h34q25 0 21 -21l-146 -1163q-2 -16 -2 -43q0 -203 334 -203q199 0 288 63.5t105 176.5l146 1169q4 20 18 21h35q25 0 21 -21l-146 -1177q-18 -139 -124.5 -217t-346.5 -78q-403 -1 -403 249zM621 1630l202 256q14 20 33 21h27 q16 0 26 -19l144 -258q3 -6 3 -10q0 -8 -14 -8h-28q-14 0 -29 18l-119 223l-178 -223q-14 -18 -26 -18h-33q-14 0 -14 7q0 4 6 11z" />
<glyph unicode="&#xdc;" horiz-adv-x="1290" d="M240 233q0 33 2 50l145 1173q4 20 19 21h34q25 0 21 -21l-146 -1163q-2 -16 -2 -43q0 -203 334 -203q199 0 288 63.5t105 176.5l146 1169q4 20 18 21h35q25 0 21 -21l-146 -1177q-18 -139 -124.5 -217t-346.5 -78q-403 -1 -403 249zM709 1651l24 215q2 16 23 16h24 q16 0 15 -16l-27 -215q-2 -20 -20 -21h-23q-20 1 -16 21zM899 1651l27 215q2 16 20 16h25q16 0 14 -16l-22 -215q-2 -20 -23 -21h-25q-18 1 -16 21z" />
<glyph unicode="&#xdd;" horiz-adv-x="1087" d="M229 1456q-2 5 -2 9q0 12 19 12h41q14 0 22 -21l297 -706q16 -49 21 -66q2 10 35 66l471 706q16 20 28 21h39q16 0 16 -9q0 -5 -6 -12l-555 -833l-73 -603q-4 -20 -19 -20h-35q-25 0 -20 20l74 596zM705 1628l200 262q10 16 27 17h41q12 0 12 -7q0 -5 -6 -14l-211 -264 q-10 -10 -20 -10h-35q-13 0 -13 6q0 4 5 10z" />
<glyph unicode="&#xde;" horiz-adv-x="1212" d="M223 20l176 1436q4 20 23 21h35q18 0 16 -21l-47 -391h358q403 0 404 -250q0 -29 -2 -45l-31 -240q-18 -139 -123.5 -218t-347.5 -79h-360l-29 -213q-4 -20 -19 -20h-34q-21 0 -19 20zM330 299h360q362 0 393 240l29 225q2 12 2 37q0 203 -338 203h-358z" />
<glyph unicode="&#xdf;" horiz-adv-x="1259" d="M195 1018v22q0 18 22 19l145 4h3l26 219q33 254 416 254q356 0 356 -221q0 -8 -4 -51l-6 -64q-14 -135 -199 -180l-135 -33q-2 0 -22.5 -4t-27.5 -7t-26.5 -9t-31 -15.5t-23.5 -20.5t-19 -28.5t-10 -36.5l-2 -12q-2 -18 -2 -27q0 -82 129 -131l250 -90q180 -66 180 -180 q0 -29 -4 -41l-18 -147q-14 -125 -94 -189.5t-279 -64.5q-174 0 -244.5 51t-70.5 149q0 31 2 47l4 33q2 20 22 21h25q20 0 18 -21l-4 -33q-2 -14 -2 -38q0 -76 56.5 -116t197.5 -40q160 0 224.5 51t76.5 143l15 129q4 20 4 50q0 14 -4 26.5t-8.5 21.5t-12.5 18t-16 16.5 t-19.5 14.5t-18.5 10t-19.5 9l-17.5 8.5t-17 6.5l-13 4l-247 90q-57 18 -108.5 64t-51.5 116q0 18 2 33l2 20q18 131 199 172l129 29q152 29 161 135l7 58q4 39 4 45q0 172 -293 172q-315 0 -336 -201l-154 -1258q-2 -20 -22 -20h-35q-20 0 -16 20l120 981h-147 q-16 1 -16 17z" />
<glyph unicode="&#xe0;" d="M193 197q0 14 4 41l73 591q31 254 324 254q215 0 371 -137l14 101q6 18 22 18h31q14 0 15 -18l-127 -1027q-4 -20 -21 -20h-31q-14 0 -14 20l6 97q-186 -133 -399 -133q-133 0 -200.5 57.5t-67.5 155.5zM266 213q0 -76 53.5 -121t161.5 -45q197 0 387 137l86 695 q-145 139 -352 139q-119 0 -183.5 -54.5t-78.5 -140.5l-72 -579q-2 -13 -2 -31zM506 1518q-3 6 -3 9q0 9 15 9h39q16 0 25 -14l133 -262q3 -6 3 -11q0 -8 -13 -8h-29q-18 0 -23 12z" />
<glyph unicode="&#xe1;" d="M193 197q0 14 4 41l73 591q31 254 324 254q215 0 371 -137l14 101q6 18 22 18h31q14 0 15 -18l-127 -1027q-4 -20 -21 -20h-31q-14 0 -14 20l6 97q-186 -133 -399 -133q-133 0 -200.5 57.5t-67.5 155.5zM266 213q0 -76 53.5 -121t161.5 -45q197 0 387 137l86 695 q-145 139 -352 139q-119 0 -183.5 -54.5t-78.5 -140.5l-72 -579q-2 -13 -2 -31zM635 1260l201 262q10 14 24 14h43q13 0 13 -6q0 -4 -7 -12l-211 -265q-10 -12 -20 -12h-35q-13 0 -13 7q0 5 5 12z" />
<glyph unicode="&#xe2;" d="M193 197q0 14 4 41l73 591q31 254 324 254q215 0 371 -137l14 101q6 18 22 18h31q14 0 15 -18l-127 -1027q-4 -20 -21 -20h-31q-14 0 -14 20l6 97q-186 -133 -399 -133q-133 0 -200.5 57.5t-67.5 155.5zM266 213q0 -76 53.5 -121t161.5 -45q197 0 387 137l86 695 q-145 139 -352 139q-119 0 -183.5 -54.5t-78.5 -140.5l-72 -579q-2 -13 -2 -31zM449 1262l202 256q14 18 33 18h29q18 0 26 -16l142 -258q4 -7 4 -12q0 -9 -15 -9h-28q-16 0 -25 21l-123 223l-178 -223q-14 -20 -24 -21h-33q-16 0 -16 8q1 5 6 13z" />
<glyph unicode="&#xe3;" d="M193 197q0 14 4 41l73 591q31 254 324 254q215 0 371 -137l14 101q6 18 22 18h31q14 0 15 -18l-127 -1027q-4 -20 -21 -20h-31q-14 0 -14 20l6 97q-186 -133 -399 -133q-133 0 -200.5 57.5t-67.5 155.5zM266 213q0 -76 53.5 -121t161.5 -45q197 0 387 137l86 695 q-145 139 -352 139q-119 0 -183.5 -54.5t-78.5 -140.5l-72 -579q-2 -13 -2 -31zM401 1292l5 33q16 96 51 137t96 41q59 0 106 -51l86 -84q37 -37 70 -37q43 0 62.5 26.5t27.5 104.5l2 23q2 18 23 18h20q18 0 17 -20l-4 -31q-14 -100 -50 -140t-98 -40q-57 0 -106 51l-88 84 q-37 37 -68 37q-43 0 -60.5 -26.5t-29.5 -104.5l-4 -23q-2 -18 -23 -18h-22q-15 0 -13 20z" />
<glyph unicode="&#xe4;" d="M193 197q0 14 4 41l73 591q31 254 324 254q215 0 371 -137l14 101q6 18 22 18h31q14 0 15 -18l-127 -1027q-4 -20 -21 -20h-31q-14 0 -14 20l6 97q-186 -133 -399 -133q-133 0 -200.5 57.5t-67.5 155.5zM266 213q0 -76 53.5 -121t161.5 -45q197 0 387 137l86 695 q-145 139 -352 139q-119 0 -183.5 -54.5t-78.5 -140.5l-72 -579q-2 -13 -2 -31zM545 1288l26 215q2 18 21 19h24q18 0 15 -19l-25 -215q-2 -20 -22 -20h-21q-20 0 -18 20zM735 1288l27 215q2 18 22 19h23q18 0 16 -19l-26 -215q-2 -20 -23 -20h-20q-21 0 -19 20z" />
<glyph unicode="&#xe5;" d="M193 197q0 14 4 41l73 591q31 254 324 254q215 0 371 -137l14 101q6 18 22 18h31q14 0 15 -18l-127 -1027q-4 -20 -21 -20h-31q-14 0 -14 20l6 97q-186 -133 -399 -133q-133 0 -200.5 57.5t-67.5 155.5zM266 213q0 -76 53.5 -121t161.5 -45q197 0 387 137l86 695 q-145 139 -352 139q-119 0 -183.5 -54.5t-78.5 -140.5l-72 -579q-2 -13 -2 -31zM520 1337q0 29 2 58l4 18q14 139 205 139q86 0 130 -36.5t44 -94.5q0 -18 -2 -41l-4 -34q-18 -131 -207 -132q-84 0 -128 34t-44 89zM573 1346q0 -84 123 -84q145 0 152 88l4 26q2 20 2 37 q0 90 -127 90q-141 0 -152 -94l-2 -27v-36z" />
<glyph unicode="&#xe6;" horiz-adv-x="1714" d="M176 190q0 27 2 39l10 97q12 109 87 176t202 67h416l29 242q6 35 6 49q0 164 -273 164q-164 0 -233.5 -51t-85.5 -144l-6 -41q-2 -20 -19 -20h-30q-20 0 -19 20l4 41q14 121 103.5 187.5t292.5 66.5q264 0 313 -137q78 137 352 137q342 0 342 -215q0 -27 -2 -39l-35 -272 q-4 -18 -18 -18h-651l-37 -285q-6 -35 -6 -45q0 -166 280 -166q166 0 237.5 51t86.5 146l8 55q4 20 22 20h29q18 0 16 -20l-8 -57q-18 -125 -105 -189.5t-292 -64.5q-299 0 -336 161q-201 -162 -414 -161q-125 0 -196.5 55t-71.5 151zM248 209q0 -164 213 -164 q182 0 387 160l37 305h-408q-94 0 -152.5 -53.5t-66.5 -137.5l-8 -81q-2 -15 -2 -29zM967 598h600l30 229v31q0 164 -274 164q-168 0 -240.5 -51t-85.5 -144z" />
<glyph unicode="&#xe7;" horiz-adv-x="1024" d="M193 195q0 27 2 43l73 591q16 123 105.5 188.5t292.5 65.5q338 0 338 -213q0 -25 -3 -43l-8 -41q-2 -20 -18 -20h-33q-23 0 -16 18l4 41q2 14 2 35q0 162 -273 162q-164 0 -235.5 -52t-83.5 -145l-72 -579q-2 -23 -2 -39q0 -78 61.5 -120t211.5 -42q164 0 233.5 51 t85.5 146l8 57q2 20 23 20h31q18 0 16 -20l-8 -61q-16 -123 -100.5 -187.5t-282.5 -66.5l-41 -103h88q61 0 108.5 -35.5t47.5 -109.5q0 -104 -60.5 -149.5t-138.5 -45.5h-258q-14 0 -15 21v14q0 20 21 21h252q53 0 95 28.5t42 106.5q0 51 -32.5 72.5t-75.5 21.5h-119 q-33 0 -23 24l56 136q-299 10 -299 209z" />
<glyph unicode="&#xe8;" horiz-adv-x="1058" d="M193 197q0 23 2 41l73 591q16 123 107.5 188.5t296.5 65.5q342 0 342 -215q0 -27 -2 -39l-35 -272q-4 -18 -21 -18h-651l-39 -295q-2 -18 -2 -35q0 -166 279 -166q303 0 325 197l6 55q2 20 25 20h31q16 0 14 -20l-6 -57q-16 -123 -104.5 -188.5t-294.5 -65.5 q-346 0 -346 213zM311 598h600l31 227q2 14 2 33q0 164 -280 164q-297 0 -324 -195zM510 1518q-3 6 -3 9q0 9 15 9h41q14 0 23 -14l133 -262q4 -7 4 -11q0 -8 -12 -8h-31q-18 0 -23 12z" />
<glyph unicode="&#xe9;" horiz-adv-x="1058" d="M193 197q0 23 2 41l73 591q16 123 107.5 188.5t296.5 65.5q342 0 342 -215q0 -27 -2 -39l-35 -272q-4 -18 -21 -18h-651l-39 -295q-2 -18 -2 -35q0 -166 279 -166q303 0 325 197l6 55q2 20 25 20h31q16 0 14 -20l-6 -57q-16 -123 -104.5 -188.5t-294.5 -65.5 q-346 0 -346 213zM311 598h600l31 227q2 14 2 33q0 164 -280 164q-297 0 -324 -195zM651 1260l203 262q10 14 23 14h43q14 0 13 -7q0 -4 -5 -11l-211 -265q-12 -12 -23 -12h-35q-12 0 -11 8q-1 4 3 11z" />
<glyph unicode="&#xea;" horiz-adv-x="1058" d="M193 197q0 23 2 41l73 591q16 123 107.5 188.5t296.5 65.5q342 0 342 -215q0 -27 -2 -39l-35 -272q-4 -18 -21 -18h-651l-39 -295q-2 -18 -2 -35q0 -166 279 -166q303 0 325 197l6 55q2 20 25 20h31q16 0 14 -20l-6 -57q-16 -123 -104.5 -188.5t-294.5 -65.5 q-346 0 -346 213zM311 598h600l31 227q2 14 2 33q0 164 -280 164q-297 0 -324 -195zM465 1262l201 256q16 18 32 18h29q20 0 29 -16l141 -258q3 -6 3 -11q0 -10 -15 -10h-27q-16 0 -27 21l-120 223l-179 -223q-16 -20 -26 -21h-33q-15 0 -15 7q0 6 7 14z" />
<glyph unicode="&#xeb;" horiz-adv-x="1058" d="M193 197q0 23 2 41l73 591q16 123 107.5 188.5t296.5 65.5q342 0 342 -215q0 -27 -2 -39l-35 -272q-4 -18 -21 -18h-651l-39 -295q-2 -18 -2 -35q0 -166 279 -166q303 0 325 197l6 55q2 20 25 20h31q16 0 14 -20l-6 -57q-16 -123 -104.5 -188.5t-294.5 -65.5 q-346 0 -346 213zM311 598h600l31 227q2 14 2 33q0 164 -280 164q-297 0 -324 -195zM553 1288l27 215q2 18 22 19h23q18 0 16 -19l-27 -215q-2 -20 -22 -20h-21q-20 0 -18 20zM745 1288l25 215q2 18 23 19h24q16 0 14 -19l-26 -215q-2 -20 -21 -20h-22q-19 0 -17 20z" />
<glyph unicode="&#xec;" horiz-adv-x="462" d="M193 1518q-3 5 -4 9q0 9 18 9h39q14 0 22 -14l133 -262q4 -7 4 -11q0 -8 -12 -8h-31q-16 0 -22 12zM201 20l125 1027q0 18 20 18h35q18 0 16 -18l-127 -1027q-2 -20 -20 -20h-35q-17 0 -16 11q0 4 2 9z" />
<glyph unicode="&#xed;" horiz-adv-x="462" d="M201 20l125 1027q0 18 20 18h35q18 0 16 -18l-127 -1027q-2 -20 -20 -20h-35q-17 0 -16 11q0 4 2 9zM352 1260l201 262q12 14 25 14h43q13 0 13 -6q0 -4 -7 -12l-209 -265q-12 -12 -23 -12h-35q-13 0 -12 7q-1 5 4 12z" />
<glyph unicode="&#xee;" horiz-adv-x="462" d="M168 1262l201 256q16 18 32 18h29q18 0 29 -16l141 -258q3 -6 3 -11q0 -10 -15 -10h-29q-16 0 -24 21l-123 223l-179 -223q-14 -20 -24 -21h-33q-15 0 -15 7q0 6 7 14zM201 20l125 1027q0 18 20 18h35q18 0 16 -18l-127 -1027q-2 -20 -20 -20h-35q-17 0 -16 11q0 4 2 9z " />
<glyph unicode="&#xef;" horiz-adv-x="462" d="M201 20l125 1027q0 18 20 18h35q18 0 16 -18l-127 -1027q-2 -20 -20 -20h-35q-17 0 -16 11q0 4 2 9zM266 1288l27 215q2 18 22 19h23q18 0 16 -19l-26 -215q-2 -20 -23 -20h-20q-21 0 -19 20zM459 1288l24 215q2 18 23 19h24q16 0 15 -19l-27 -215q-2 -20 -20 -20h-23 q-18 0 -16 20z" />
<glyph unicode="&#xf0;" horiz-adv-x="1187" d="M193 197q0 27 2 41l71 591q31 254 326 254q209 0 369 -135l40 326q0 2 1.5 13t1.5 16q0 35 -15 67l-215 -84q-18 -10 -22 6l-4 15q-4 16 12 22l211 82q-59 70 -244 70h-184q-8 0 -14.5 3t-2.5 11l2 23q2 18 21 18h186q231 0 301 -92l127 51q16 10 23 -6l6 -14q2 -4 1 -7 q0 -10 -13 -16l-121 -49q14 -29 14 -76q0 -31 -2 -45l-127 -1044q-14 -123 -105 -188.5t-298 -65.5q-348 0 -348 213zM266 211q0 -168 281 -168q307 0 327 199l78 639q-145 139 -352 139q-119 0 -184.5 -54.5t-77.5 -142.5l-70 -581q-2 -13 -2 -31z" />
<glyph unicode="&#xf1;" horiz-adv-x="1128" d="M201 20l125 1027q4 18 20 18h29q20 0 18 -18l-8 -101q182 137 399 137q129 0 198 -57t69 -156q0 -27 -2 -39l-101 -811q-2 -20 -20 -20h-35q-18 0 -16 20l98 801q4 16 4 31q0 166 -215 166q-201 0 -389 -137l-105 -861q-2 -20 -20 -20h-35q-18 0 -14 20zM446 1292l5 33 q16 96 51 137t98 41q57 0 105 -51l86 -84q37 -37 69 -37q43 0 62.5 26.5t27.5 104.5l2 23q2 18 23 18h22q18 0 15 -20l-4 -31q-14 -100 -50 -140t-98 -40q-57 0 -106 51l-88 84q-37 37 -66 37q-45 0 -62.5 -26.5t-29.5 -104.5l-4 -23q-2 -18 -23 -18h-20q-19 0 -15 20z" />
<glyph unicode="&#xf2;" horiz-adv-x="1091" d="M193 201q0 23 2 37l73 591q16 121 108.5 187.5t299.5 66.5q344 0 344 -215q0 -20 -2 -39l-72 -591q-31 -254 -405 -254q-348 0 -348 217zM266 211q0 -166 281 -166q307 0 327 197l72 583q2 18 2 31q0 166 -280 166q-303 0 -328 -197l-72 -583q-2 -19 -2 -31zM492 1518 q-3 6 -4 9q0 9 16 9h39q16 0 24 -14l131 -262q5 -7 5 -12q0 -7 -13 -7h-31q-16 0 -20 12z" />
<glyph unicode="&#xf3;" horiz-adv-x="1091" d="M193 201q0 23 2 37l73 591q16 121 108.5 187.5t299.5 66.5q344 0 344 -215q0 -20 -2 -39l-72 -591q-31 -254 -405 -254q-348 0 -348 217zM266 211q0 -166 281 -166q307 0 327 197l72 583q2 18 2 31q0 166 -280 166q-303 0 -328 -197l-72 -583q-2 -19 -2 -31zM653 1260 l203 262q10 14 23 14h43q14 0 13 -7q0 -4 -5 -11l-211 -265q-10 -12 -23 -12h-34q-12 0 -12 8q-1 4 3 11z" />
<glyph unicode="&#xf4;" horiz-adv-x="1091" d="M193 201q0 23 2 37l73 591q16 121 108.5 187.5t299.5 66.5q344 0 344 -215q0 -20 -2 -39l-72 -591q-31 -254 -405 -254q-348 0 -348 217zM266 211q0 -166 281 -166q307 0 327 197l72 583q2 18 2 31q0 166 -280 166q-303 0 -328 -197l-72 -583q-2 -19 -2 -31zM475 1262 l203 256q14 18 33 18h26q20 0 29 -16l141 -258q3 -7 4 -12q0 -9 -14 -9h-29q-16 0 -26 21l-121 223l-178 -223q-14 -20 -27 -21h-33q-14 0 -13 8q-1 5 5 13z" />
<glyph unicode="&#xf5;" horiz-adv-x="1091" d="M193 201q0 23 2 37l73 591q16 121 108.5 187.5t299.5 66.5q344 0 344 -215q0 -20 -2 -39l-72 -591q-31 -254 -405 -254q-348 0 -348 217zM266 211q0 -166 281 -166q307 0 327 197l72 583q2 18 2 31q0 166 -280 166q-303 0 -328 -197l-72 -583q-2 -19 -2 -31zM410 1292 l4 33q16 96 51 137t98 41q57 0 105 -51l86 -84q37 -37 69 -37q43 0 62.5 26.5t27.5 104.5l2 23q2 18 23 18h23q16 0 14 -20l-4 -31q-14 -100 -50 -140t-98 -40q-57 0 -106 51l-88 84q-37 37 -66 37q-45 0 -62.5 -26.5t-29.5 -104.5l-4 -23q-2 -18 -23 -18h-20q-16 0 -14 20z " />
<glyph unicode="&#xf6;" horiz-adv-x="1091" d="M193 201q0 23 2 37l73 591q16 121 108.5 187.5t299.5 66.5q344 0 344 -215q0 -20 -2 -39l-72 -591q-31 -254 -405 -254q-348 0 -348 217zM266 211q0 -166 281 -166q307 0 327 197l72 583q2 18 2 31q0 166 -280 166q-303 0 -328 -197l-72 -583q-2 -19 -2 -31zM557 1288 l27 215q2 18 22 19h23q18 0 16 -19l-27 -215q-2 -20 -20 -20h-23q-20 0 -18 20zM750 1288l24 215q2 18 23 19h24q16 0 15 -19l-27 -215q-2 -20 -21 -20h-22q-18 0 -16 20z" />
<glyph unicode="&#xf7;" horiz-adv-x="1286" d="M283 711v24q0 20 16 21h858q20 0 21 -19v-26q0 -20 -21 -21h-856q-18 1 -18 21zM692 293v166q0 18 19 18h37q16 0 16 -18v-166q0 -18 -16 -19h-37q-19 1 -19 19zM692 991v166q0 20 19 21h37q16 0 16 -21v-166q0 -18 -16 -18h-37q-19 0 -19 18z" />
<glyph unicode="&#xf8;" horiz-adv-x="1091" d="M181 -43q0 5 3 10l66 94q-57 53 -57 140q0 23 2 37l73 591q16 121 108.5 187.5t299.5 66.5q158 0 252 -49l49 72q12 18 27 18h20q12 0 12 -7q0 -4 -4 -11l-67 -98q55 -55 55 -140q0 -27 -2 -39l-72 -591q-14 -123 -107.5 -188.5t-297.5 -65.5q-166 0 -256 51l-45 -68 q-12 -18 -29 -18h-21q-9 -1 -9 8zM266 211q0 -55 27 -90l592 854q-66 47 -217 47q-301 0 -328 -197l-72 -583q-2 -13 -2 -31zM326 92q70 -47 221 -47q301 0 327 197l72 581q2 10 2 33q0 51 -28 88z" />
<glyph unicode="&#xf9;" horiz-adv-x="1114" d="M207 195q0 18 2 36l100 816q4 18 21 18h35q20 0 18 -18l-100 -801q-2 -18 -2 -31q0 -168 215 -168q201 0 372 137l105 863q4 18 20 18h35q20 0 19 -18l-129 -1027q-2 -20 -17 -20h-31q-25 0 -18 20l8 97q-170 -133 -385 -133q-133 0 -200.5 57.5t-67.5 153.5zM510 1518 q-3 6 -3 9q0 9 15 9h41q14 0 23 -14l133 -262q4 -7 4 -11q0 -8 -12 -8h-31q-18 0 -23 12z" />
<glyph unicode="&#xfa;" horiz-adv-x="1114" d="M207 195q0 18 2 36l100 816q4 18 21 18h35q20 0 18 -18l-100 -801q-2 -18 -2 -31q0 -168 215 -168q201 0 372 137l105 863q4 18 20 18h35q20 0 19 -18l-129 -1027q-2 -20 -17 -20h-31q-25 0 -18 20l8 97q-170 -133 -385 -133q-133 0 -200.5 57.5t-67.5 153.5zM647 1260 l201 262q12 14 24 14h43q13 0 13 -6q0 -4 -6 -12l-209 -265q-12 -12 -23 -12h-35q-12 0 -11 8q-1 4 3 11z" />
<glyph unicode="&#xfb;" horiz-adv-x="1114" d="M207 195q0 18 2 36l100 816q4 18 21 18h35q20 0 18 -18l-100 -801q-2 -18 -2 -31q0 -168 215 -168q201 0 372 137l105 863q4 18 20 18h35q20 0 19 -18l-129 -1027q-2 -20 -17 -20h-31q-25 0 -18 20l8 97q-170 -133 -385 -133q-133 0 -200.5 57.5t-67.5 153.5zM471 1262 l203 256q14 18 31 18h28q20 0 29 -16l141 -258q3 -7 4 -12q0 -9 -14 -9h-29q-18 0 -26 21l-121 223l-178 -223q-16 -20 -27 -21h-33q-14 0 -14 8q0 5 6 13z" />
<glyph unicode="&#xfc;" horiz-adv-x="1114" d="M207 195q0 18 2 36l100 816q4 18 21 18h35q20 0 18 -18l-100 -801q-2 -18 -2 -31q0 -168 215 -168q201 0 372 137l105 863q4 18 20 18h35q20 0 19 -18l-129 -1027q-2 -20 -17 -20h-31q-25 0 -18 20l8 97q-170 -133 -385 -133q-133 0 -200.5 57.5t-67.5 153.5zM573 1288 l27 215q4 18 21 19h24q18 0 14 -19l-24 -215q-6 -20 -23 -20h-22q-21 0 -17 20zM764 1288l27 215q4 18 20 19h25q20 0 16 -19l-27 -215q-4 -20 -22 -20h-21q-22 0 -18 20z" />
<glyph unicode="&#xfd;" horiz-adv-x="884" d="M178 1047q-4 18 15 18h36q18 0 21 -18l188 -852l19 -95q16 49 37 95l397 852q8 18 22 18h35q18 0 19 -10q0 -3 -2 -8l-689 -1483q-10 -20 -26 -21h-31q-25 0 -12 21l201 438zM541 1260l202 262q10 14 23 14h43q14 0 14 -7q0 -4 -6 -11l-211 -265q-12 -12 -22 -12h-35 q-12 0 -12 8q0 4 4 11z" />
<glyph unicode="&#xfe;" d="M141 -436l240 1933q2 20 18 21h35q23 0 17 -21l-66 -549q186 135 399 135q131 0 199 -57t68 -158q0 -20 -4 -53l-72 -577q-33 -254 -324 -254q-223 0 -368 133l-70 -553q-4 -20 -20 -21h-35q-19 1 -17 21zM289 184q152 -137 354 -137q117 0 182.5 53.5t77.5 143.5l70 563 q4 39 4 47q0 76 -53.5 121t-161.5 45q-209 0 -385 -139z" />
<glyph unicode="&#xff;" horiz-adv-x="884" d="M178 1047q-4 18 15 18h36q18 0 21 -18l188 -852l19 -95q16 49 37 95l397 852q8 18 22 18h35q18 0 19 -10q0 -3 -2 -8l-689 -1483q-10 -20 -26 -21h-31q-25 0 -12 21l201 438zM449 1288l26 215q2 18 23 19h22q18 0 17 -19l-27 -215q-2 -20 -23 -20h-20q-20 0 -18 20z M641 1288l25 215q2 18 22 19h25q16 0 14 -19l-27 -215q-2 -20 -20 -20h-23q-18 0 -16 20z" />
<glyph unicode="&#x100;" horiz-adv-x="1107" d="M63 20l625 1436q10 20 27 21h39q18 0 20 -21l273 -1436q4 -20 -13 -20h-41q-16 0 -20 20l-88 455h-551l-199 -455q-6 -20 -24 -20h-33q-17 0 -18 10q0 4 3 10zM360 539h517l-125 661l-29 191q-4 -12 -30.5 -84t-39.5 -101zM422 1726l2 21q0 18 20 18h572q18 0 18 -16 l-2 -23q0 -20 -22 -20h-570q-18 0 -18 20z" />
<glyph unicode="&#x101;" d="M193 197q0 14 4 41l73 591q31 254 324 254q215 0 371 -137l14 101q6 18 22 18h31q14 0 15 -18l-127 -1027q-4 -20 -21 -20h-31q-14 0 -14 20l6 97q-186 -133 -399 -133q-133 0 -200.5 57.5t-67.5 155.5zM266 213q0 -76 53.5 -121t161.5 -45q197 0 387 137l86 695 q-145 139 -352 139q-119 0 -183.5 -54.5t-78.5 -140.5l-72 -579q-2 -13 -2 -31zM387 1348l2 22q0 18 21 19h571q18 0 18 -17l-2 -24q0 -18 -22 -19h-572q-16 1 -16 19z" />
<glyph unicode="&#x102;" horiz-adv-x="1107" d="M63 20l625 1436q10 20 27 21h39q18 0 20 -21l273 -1436q4 -20 -13 -20h-41q-16 0 -20 20l-88 455h-551l-199 -455q-6 -20 -24 -20h-33q-17 0 -18 10q0 4 3 10zM360 539h517l-125 661l-29 191q-4 -12 -30.5 -84t-39.5 -101zM514 1800q0 16 2 39l4 53q2 18 23 19h24 q16 0 15 -19l-4 -53q-2 -16 -3 -35q0 -68 35 -97.5t123 -29.5q106 0 144 46t49 143l2 26q2 18 20 19h25q14 0 14 -19l-2 -24q-14 -125 -66.5 -184.5t-189.5 -59.5q-115 0 -165 43t-50 133z" />
<glyph unicode="&#x103;" d="M193 197q0 14 4 41l73 591q31 254 324 254q215 0 371 -137l14 101q6 18 22 18h31q14 0 15 -18l-127 -1027q-4 -20 -21 -20h-31q-14 0 -14 20l6 97q-186 -133 -399 -133q-133 0 -200.5 57.5t-67.5 155.5zM266 213q0 -76 53.5 -121t161.5 -45q197 0 387 137l86 695 q-145 139 -352 139q-119 0 -183.5 -54.5t-78.5 -140.5l-72 -579q-2 -13 -2 -31zM457 1389q0 18 2 38l4 54q2 18 18 18h25q23 0 14 -18l-4 -54v-36q0 -63 35 -94t125 -31q106 0 144 47t46 141l2 27q0 18 23 18h22q16 0 17 -18l-2 -27q-16 -123 -69.5 -181.5t-190.5 -58.5 q-113 0 -162 43.5t-49 131.5z" />
<glyph unicode="&#x104;" horiz-adv-x="1107" d="M63 20l625 1436q10 20 27 21h39q18 0 20 -21l273 -1436q4 -20 -13 -20h-14q-80 -20 -119 -67.5t-39 -96.5q0 -92 131 -92h56q25 0 20 -20v-17q-6 -20 -22 -20h-66q-180 0 -180 141q0 53 41 111.5t127 97.5l-84 438h-551l-199 -455q-6 -20 -24 -20h-33q-17 0 -18 10 q0 4 3 10zM360 539h517l-125 661q-29 170 -29 191q-39 -117 -70 -185z" />
<glyph unicode="&#x105;" d="M193 197q0 14 4 41l73 591q31 254 324 254q215 0 371 -137l14 101q2 18 22 18h31q16 0 15 -18l-127 -1027q-2 -20 -21 -20h-2q-76 -20 -118 -67.5t-42 -96.5q0 -92 133 -92h37q20 0 21 -20l-2 -17q0 -20 -23 -20h-45q-180 0 -180 143q0 66 53 120t125 85l4 82 q-186 -133 -399 -133q-133 0 -200.5 57.5t-67.5 155.5zM266 213q0 -76 53.5 -121t161.5 -45q197 0 387 137l86 695q-145 139 -352 139q-119 0 -183.5 -54.5t-78.5 -140.5l-72 -579q-2 -13 -2 -31z" />
<glyph unicode="&#x106;" horiz-adv-x="1175" d="M225 227q0 18 4 54l113 917q18 139 120.5 217t340.5 78q397 0 397 -250q0 -29 -2 -47l-14 -113q-2 -20 -21 -20h-35q-20 0 -16 20l12 107q2 12 2 41q0 197 -327 196q-197 0 -283 -61t-102 -176l-111 -901q-2 -14 -2 -43q0 -199 326 -199q199 0 285.5 62.5t101.5 177.5 l18 133q2 16 19 16h34q23 0 17 -16l-17 -141q-16 -139 -119.5 -217t-342.5 -78q-398 -1 -398 243zM786 1628l199 262q12 16 27 17h41q13 0 13 -7q0 -5 -7 -14l-211 -264q-10 -10 -21 -10h-34q-12 0 -12 5q-1 4 5 11z" />
<glyph unicode="&#x107;" horiz-adv-x="1024" d="M193 195q0 27 2 43l73 591q16 123 105.5 188.5t292.5 65.5q338 0 338 -213q0 -25 -3 -43l-8 -41q-2 -20 -18 -20h-33q-23 0 -16 18l4 41q2 14 2 35q0 162 -273 162q-164 0 -235.5 -52t-83.5 -145l-72 -579q-2 -23 -2 -39q0 -78 61.5 -120t211.5 -42q164 0 233.5 51 t85.5 146l8 57q2 20 23 20h31q18 0 16 -20l-8 -61q-16 -125 -103.5 -189.5t-292.5 -64.5q-339 0 -339 211zM637 1260l201 262q10 14 24 14h43q13 0 13 -6q0 -4 -7 -12l-211 -265q-10 -12 -20 -12h-35q-13 0 -13 7q0 5 5 12z" />
<glyph unicode="&#x108;" horiz-adv-x="1175" d="M225 227q0 18 4 54l113 917q18 139 120.5 217t340.5 78q397 0 397 -250q0 -29 -2 -47l-14 -113q-2 -20 -21 -20h-35q-20 0 -16 20l12 107q2 12 2 41q0 197 -327 196q-197 0 -283 -61t-102 -176l-111 -901q-2 -14 -2 -43q0 -199 326 -199q199 0 285.5 62.5t101.5 177.5 l18 133q2 16 19 16h34q23 0 17 -16l-17 -141q-16 -139 -119.5 -217t-342.5 -78q-398 -1 -398 243zM592 1630l203 256q14 20 32 21h29q14 0 25 -19l143 -258q4 -7 4 -11q0 -8 -14 -7h-29q-14 0 -29 18l-118 223l-179 -223q-14 -18 -24 -18h-33q-16 0 -15 7q0 4 5 11z" />
<glyph unicode="&#x109;" horiz-adv-x="1024" d="M193 195q0 27 2 43l73 591q16 123 105.5 188.5t292.5 65.5q338 0 338 -213q0 -25 -3 -43l-8 -41q-2 -20 -18 -20h-33q-23 0 -16 18l4 41q2 14 2 35q0 162 -273 162q-164 0 -235.5 -52t-83.5 -145l-72 -579q-2 -23 -2 -39q0 -78 61.5 -120t211.5 -42q164 0 233.5 51 t85.5 146l8 57q2 20 23 20h31q18 0 16 -20l-8 -61q-16 -125 -103.5 -189.5t-292.5 -64.5q-339 0 -339 211zM449 1262l202 256q14 18 33 18h29q18 0 26 -16l142 -258q4 -7 4 -12q0 -9 -15 -9h-28q-16 0 -25 21l-123 223l-178 -223q-14 -20 -24 -21h-33q-16 0 -16 8q1 5 6 13z " />
<glyph unicode="&#x10a;" horiz-adv-x="1175" d="M225 227q0 18 4 54l113 917q18 139 120.5 217t340.5 78q397 0 397 -250q0 -29 -2 -47l-14 -113q-2 -20 -21 -20h-35q-20 0 -16 20l12 107q2 12 2 41q0 197 -327 196q-197 0 -283 -61t-102 -176l-111 -901q-2 -14 -2 -43q0 -199 326 -199q199 0 285.5 62.5t101.5 177.5 l18 133q2 16 19 16h34q23 0 17 -16l-17 -141q-16 -139 -119.5 -217t-342.5 -78q-398 -1 -398 243zM788 1655l19 164q4 20 20 20h37q20 0 17 -20l-19 -164q-2 -18 -20 -19h-37q-19 1 -17 19z" />
<glyph unicode="&#x10b;" horiz-adv-x="1024" d="M193 195q0 27 2 43l73 591q16 123 105.5 188.5t292.5 65.5q338 0 338 -213q0 -25 -3 -43l-8 -41q-2 -20 -18 -20h-33q-23 0 -16 18l4 41q2 14 2 35q0 162 -273 162q-164 0 -235.5 -52t-83.5 -145l-72 -579q-2 -23 -2 -39q0 -78 61.5 -120t211.5 -42q164 0 233.5 51 t85.5 146l8 57q2 20 23 20h31q18 0 16 -20l-8 -61q-16 -125 -103.5 -189.5t-292.5 -64.5q-339 0 -339 211z" />
<glyph unicode="&#x10c;" horiz-adv-x="1175" d="M225 227q0 18 4 54l113 917q18 139 120.5 217t340.5 78q397 0 397 -250q0 -29 -2 -47l-14 -113q-2 -20 -21 -20h-35q-20 0 -16 20l12 107q2 12 2 41q0 197 -327 196q-197 0 -283 -61t-102 -176l-111 -901q-2 -14 -2 -43q0 -199 326 -199q199 0 285.5 62.5t101.5 177.5 l18 133q2 16 19 16h34q23 0 17 -16l-17 -141q-16 -139 -119.5 -217t-342.5 -78q-398 -1 -398 243zM625 1886q-3 6 -3 10q0 10 17 11h29q12 0 22 -21l121 -223l178 223q14 20 29 21h33q13 0 13 -7q0 -5 -7 -14l-203 -258q-14 -16 -31 -16h-26q-20 0 -31 18z" />
<glyph unicode="&#x10d;" horiz-adv-x="1024" d="M193 195q0 27 2 43l73 591q16 123 105.5 188.5t292.5 65.5q338 0 338 -213q0 -25 -3 -43l-8 -41q-2 -20 -18 -20h-33q-23 0 -16 18l4 41q2 14 2 35q0 162 -273 162q-164 0 -235.5 -52t-83.5 -145l-72 -579q-2 -23 -2 -39q0 -78 61.5 -120t211.5 -42q164 0 233.5 51 t85.5 146l8 57q2 20 23 20h31q18 0 16 -20l-8 -61q-16 -125 -103.5 -189.5t-292.5 -64.5q-339 0 -339 211zM498 1518q-4 6 -4 10q0 8 16 8h31q12 0 24 -18l119 -224l178 224q14 18 29 18h31q13 0 12 -7q0 -4 -4 -11l-205 -258q-12 -18 -31 -19h-26q-16 0 -27 21z" />
<glyph unicode="&#x10e;" horiz-adv-x="1290" d="M223 20l176 1436q4 20 21 21h416q406 0 405 -252q0 -33 -2 -47l-109 -883q-14 -139 -121.5 -217t-349.5 -78h-417q-21 0 -19 20zM301 66h363q362 0 393 237l106 866q2 14 2 39q0 203 -336 203h-360zM631 1886q-3 6 -3 10q0 10 17 11h31q10 0 20 -21l123 -223l178 223 q12 20 27 21h33q13 0 13 -7q0 -5 -7 -14l-203 -258q-14 -16 -31 -16h-26q-20 0 -31 18z" />
<glyph unicode="&#x10f;" horiz-adv-x="1150" d="M193 197q0 12 4 43l73 589q33 254 322 254q211 0 371 -135l65 549q6 20 23 21h34q16 0 15 -21l-180 -1477q-4 -20 -21 -20h-31q-14 0 -14 20l6 97q-186 -133 -399 -133q-133 0 -200.5 57.5t-67.5 155.5zM266 213q0 -76 53.5 -121t161.5 -45q197 0 387 137l84 695 q-137 139 -350 139q-121 0 -185.5 -54.5t-76.5 -140.5l-72 -577q-2 -27 -2 -33zM1194 1239l46 78q13 23 26.5 59.5t19.5 79.5l6 57q2 18 21 19h28q18 0 15 -19l-6 -59q-4 -47 -23.5 -94t-34 -70.5t-47.5 -70.5q-10 -13 -19 -14l-5 1l-23 8q-9 5 -9 13q0 5 5 12z" />
<glyph unicode="&#x110;" horiz-adv-x="1290" d="M117 737l2 23q0 20 22 20h176l82 676q4 20 21 21h416q406 0 405 -252q0 -33 -2 -47l-109 -883q-14 -139 -121.5 -217t-349.5 -78h-417q-20 0 -19 20l86 699h-174q-22 0 -18 18zM301 66h363q362 0 393 237l106 866q2 14 2 39q0 203 -336 203h-360l-78 -631h334 q18 0 18 -20l-4 -23q-6 -18 -22 -18h-334z" />
<glyph unicode="&#x111;" d="M193 197q0 12 4 43l73 589q33 254 322 254q211 0 371 -135l34 289h-399q-12 0 -17.5 4t-2.5 14l2 19q2 20 20 20h404l24 203q6 20 23 21h34q16 0 15 -21l-25 -203h103q20 0 18 -20l-2 -19q-2 -18 -20 -18h-105l-149 -1217q-4 -20 -21 -20h-31q-14 0 -14 20l6 97 q-186 -133 -399 -133q-133 0 -200.5 57.5t-67.5 155.5zM266 213q0 -76 53.5 -121t161.5 -45q197 0 387 137l84 695q-137 139 -350 139q-121 0 -185.5 -54.5t-76.5 -140.5l-72 -577q-2 -27 -2 -33z" />
<glyph unicode="&#x112;" horiz-adv-x="1150" d="M223 20l176 1436q4 20 23 21h739q18 0 19 -21l-2 -24q-6 -20 -23 -21h-686l-74 -600h645q16 0 17 -18l-2 -27q0 -18 -21 -18h-647l-86 -682h715q23 0 18 -21l-6 -25q-4 -20 -18 -20h-770q-19 0 -17 20zM487 1726l5 21q0 18 20 18h571q16 0 17 -16l-2 -23q0 -20 -21 -20 h-569q-21 0 -21 20z" />
<glyph unicode="&#x113;" horiz-adv-x="1058" d="M193 197q0 23 2 41l73 591q16 123 107.5 188.5t296.5 65.5q342 0 342 -215q0 -27 -2 -39l-35 -272q-4 -18 -21 -18h-651l-39 -295q-2 -18 -2 -35q0 -166 279 -166q303 0 325 197l6 55q2 20 25 20h31q16 0 14 -20l-6 -57q-16 -123 -104.5 -188.5t-294.5 -65.5 q-346 0 -346 213zM311 598h600l31 227q2 14 2 33q0 164 -280 164q-297 0 -324 -195zM381 1348l2 22q0 18 20 19h572q16 0 16 -17l-2 -24q0 -18 -20 -19h-572q-16 1 -16 19z" />
<glyph unicode="&#x114;" horiz-adv-x="1150" d="M223 20l176 1436q4 20 23 21h739q18 0 19 -21l-2 -24q-6 -20 -23 -21h-686l-74 -600h645q16 0 17 -18l-2 -27q0 -18 -21 -18h-647l-86 -682h715q23 0 18 -21l-6 -25q-4 -20 -18 -20h-770q-19 0 -17 20zM578 1800q0 16 2 39l4 53q2 18 22 19h23q18 0 16 -19l-4 -53 q-2 -16 -2 -35q0 -68 35 -97.5t123 -29.5q106 0 144 46t46 143l2 26q2 18 23 19h24q14 0 15 -19l-2 -24q-14 -125 -66.5 -184.5t-189.5 -59.5q-115 0 -165 43t-50 133z" />
<glyph unicode="&#x115;" horiz-adv-x="1058" d="M193 197q0 23 2 41l73 591q16 123 107.5 188.5t296.5 65.5q342 0 342 -215q0 -27 -2 -39l-35 -272q-4 -18 -21 -18h-651l-39 -295q-2 -18 -2 -35q0 -166 279 -166q303 0 325 197l6 55q2 20 25 20h31q16 0 14 -20l-6 -57q-16 -123 -104.5 -188.5t-294.5 -65.5 q-346 0 -346 213zM311 598h600l31 227q2 14 2 33q0 164 -280 164q-297 0 -324 -195zM461 1389q0 18 2 38l4 54q2 18 18 18h25q23 0 16 -18l-6 -54v-36q0 -63 35 -94t125 -31q106 0 144 47t46 141l2 27q0 18 23 18h23q16 0 16 -18l-2 -27q-16 -123 -69.5 -181.5t-188.5 -58.5 q-115 0 -164 43.5t-49 131.5z" />
<glyph unicode="&#x116;" horiz-adv-x="1150" d="M223 20l176 1436q4 20 23 21h739q18 0 19 -21l-2 -24q-6 -20 -23 -21h-686l-74 -600h645q16 0 17 -18l-2 -27q0 -18 -21 -18h-647l-86 -682h715q23 0 18 -21l-6 -25q-4 -20 -18 -20h-770q-19 0 -17 20zM758 1655l18 164q6 20 21 20h37q23 0 18 -20l-21 -164 q-2 -18 -20 -19h-37q-18 1 -16 19z" />
<glyph unicode="&#x117;" horiz-adv-x="1058" d="M193 197q0 23 2 41l73 591q16 123 107.5 188.5t296.5 65.5q342 0 342 -215q0 -27 -2 -39l-35 -272q-4 -18 -21 -18h-651l-39 -295q-2 -18 -2 -35q0 -166 279 -166q303 0 325 197l6 55q2 20 25 20h31q16 0 14 -20l-6 -57q-16 -123 -104.5 -188.5t-294.5 -65.5 q-346 0 -346 213zM311 598h600l31 227q2 14 2 33q0 164 -280 164q-297 0 -324 -195z" />
<glyph unicode="&#x118;" horiz-adv-x="1150" d="M223 20l176 1436q4 20 23 21h739q18 0 19 -21l-2 -24q-6 -20 -23 -21h-686l-74 -600h645q16 0 17 -18l-2 -27q0 -18 -21 -18h-647l-86 -682h715q18 0 18 -21l-6 -25q0 -20 -18 -20h-54q-82 0 -125 -47t-43 -107q0 -102 130 -102h63q20 0 20 -20l-2 -17q0 -20 -22 -20h-72 q-82 0 -131 37.5t-49 111.5q0 104 96 164h-581q-19 0 -17 20z" />
<glyph unicode="&#x119;" horiz-adv-x="1058" d="M193 197q0 27 2 41l73 591q16 123 107.5 188.5t296.5 65.5q342 0 342 -215q0 -27 -2 -39l-35 -272q-4 -18 -21 -18h-651l-39 -295q-2 -14 -2 -35q0 -166 279 -166q303 0 325 197l6 55q2 20 25 20h31q16 0 14 -20l-6 -57q-16 -123 -109 -191q-2 -2 -16 -11t-17 -12.5 t-16.5 -14.5t-18.5 -16l-17 -17q-11 -11 -15 -19t-11 -20.5t-11.5 -24.5t-6.5 -26.5t-2 -28.5q0 -113 144 -113h71q25 0 21 -20l-2 -17q-2 -20 -23 -20h-80q-86 0 -138 40t-52 117q0 86 59 154q-80 -14 -159 -14q-346 0 -346 213zM311 598h600l31 227q2 10 2 33 q0 164 -280 164q-297 0 -324 -195z" />
<glyph unicode="&#x11a;" horiz-adv-x="1150" d="M223 20l176 1436q4 20 23 21h739q18 0 19 -21l-2 -24q-6 -20 -23 -21h-686l-74 -600h645q16 0 17 -18l-2 -27q0 -18 -21 -18h-647l-86 -682h715q23 0 18 -21l-6 -25q-4 -20 -18 -20h-770q-19 0 -17 20zM606 1886q-4 7 -4 12q0 9 16 9h31q10 0 23 -21l121 -223l178 223 q12 20 28 21h33q12 0 12 -7q0 -5 -6 -14l-204 -258q-12 -16 -31 -16h-27q-20 0 -28 18z" />
<glyph unicode="&#x11b;" horiz-adv-x="1058" d="M193 197q0 23 2 41l73 591q16 123 107.5 188.5t296.5 65.5q342 0 342 -215q0 -27 -2 -39l-35 -272q-4 -18 -21 -18h-651l-39 -295q-2 -18 -2 -35q0 -166 279 -166q303 0 325 197l6 55q2 20 25 20h31q16 0 14 -20l-6 -57q-16 -123 -104.5 -188.5t-294.5 -65.5 q-346 0 -346 213zM311 598h600l31 227q2 14 2 33q0 164 -280 164q-297 0 -324 -195zM485 1518q-3 5 -3 9q0 9 18 9h30q12 0 23 -18l121 -224l178 224q16 18 27 18h32q12 0 12 -6q0 -4 -5 -12l-203 -258q-14 -18 -31 -19h-27q-16 0 -28 21z" />
<glyph unicode="&#x11c;" horiz-adv-x="1212" d="M225 227q0 18 4 54l113 917q18 139 120.5 217t340.5 78q397 0 397 -250q0 -33 -2 -47l-14 -111q-2 -20 -21 -20h-35q-20 0 -16 20l12 105q2 12 2 41q0 197 -327 196q-195 0 -282 -61t-103 -176l-111 -901q-2 -14 -2 -43q0 -96 74 -147.5t252 -51.5q199 0 284.5 61.5 t100.5 174.5l43 325h-334q-18 0 -19 19l3 26q0 20 22 21h389q18 0 14 -21l-45 -374q-16 -139 -119.5 -217t-342.5 -78q-398 -1 -398 243zM606 1630l201 256q16 20 33 21h28q14 0 27 -19l143 -258q3 -6 4 -10q0 -9 -16 -8h-27q-16 0 -28 18l-119 223l-178 -223 q-16 -18 -27 -18h-33q-15 0 -14 6q-1 5 6 12z" />
<glyph unicode="&#x11d;" d="M186 -436l2 26q0 18 23 19h289q301 0 323 196l37 310q-184 -131 -397 -131q-133 0 -201.5 58t-68.5 161q0 8 10 67l67 559q33 254 324 254q223 0 371 -137l14 101q2 18 22 18h31q18 0 15 -18l-152 -1248q-16 -123 -106.5 -188.5t-294.5 -65.5h-289q-21 1 -19 19zM266 215 q0 -76 53.5 -122t161.5 -46q197 0 387 137l86 695q-145 139 -352 139q-119 0 -183.5 -53.5t-78.5 -141.5l-72 -575q-2 -19 -2 -33zM477 1262l203 256q14 18 33 18h26q20 0 29 -16l141 -258q3 -7 4 -12q0 -9 -14 -9h-29q-14 0 -26 21l-121 223l-178 -223q-14 -20 -27 -21h-33 q-14 0 -13 8q-1 5 5 13z" />
<glyph unicode="&#x11e;" horiz-adv-x="1212" d="M225 227q0 18 4 54l113 917q18 139 120.5 217t340.5 78q397 0 397 -250q0 -33 -2 -47l-14 -111q-2 -20 -21 -20h-35q-20 0 -16 20l12 105q2 12 2 41q0 197 -327 196q-195 0 -282 -61t-103 -176l-111 -901q-2 -14 -2 -43q0 -96 74 -147.5t252 -51.5q199 0 284.5 61.5 t100.5 174.5l43 325h-334q-18 0 -19 19l3 26q0 20 22 21h389q18 0 14 -21l-45 -374q-16 -139 -119.5 -217t-342.5 -78q-398 -1 -398 243zM588 1800q0 16 2 39l4 53q4 18 22 19h25q16 0 14 -19l-4 -53q-2 -16 -2 -35q0 -68 35 -97.5t123 -29.5q106 0 144 46t48 143l2 26 q2 18 21 19h25q14 0 14 -19l-2 -24q-14 -125 -66.5 -184.5t-189.5 -59.5q-115 0 -165 43t-50 133z" />
<glyph unicode="&#x11f;" d="M186 -436l2 26q0 18 23 19h289q301 0 323 196l37 310q-184 -131 -397 -131q-133 0 -201.5 58t-68.5 161q0 8 10 67l67 559q33 254 324 254q223 0 371 -137l14 101q2 18 22 18h31q18 0 15 -18l-152 -1248q-16 -123 -106.5 -188.5t-294.5 -65.5h-289q-21 1 -19 19zM266 215 q0 -76 53.5 -122t161.5 -46q197 0 387 137l86 695q-145 139 -352 139q-119 0 -183.5 -53.5t-78.5 -141.5l-72 -575q-2 -19 -2 -33zM463 1389q0 18 2 38l4 54q4 18 18 18h25q23 0 16 -18l-6 -54v-36q0 -63 35 -94t125 -31q106 0 144 47t46 141l2 27q0 18 23 18h23 q16 0 16 -18l-2 -27q-16 -123 -69.5 -181.5t-188.5 -58.5q-113 0 -163 43.5t-50 131.5z" />
<glyph unicode="&#x120;" horiz-adv-x="1212" d="M225 227q0 18 4 54l113 917q18 139 120.5 217t340.5 78q397 0 397 -250q0 -33 -2 -47l-14 -111q-2 -20 -21 -20h-35q-20 0 -16 20l12 105q2 12 2 41q0 197 -327 196q-195 0 -282 -61t-103 -176l-111 -901q-2 -14 -2 -43q0 -96 74 -147.5t252 -51.5q199 0 284.5 61.5 t100.5 174.5l43 325h-334q-18 0 -19 19l3 26q0 20 22 21h389q18 0 14 -21l-45 -374q-16 -139 -119.5 -217t-342.5 -78q-398 -1 -398 243zM756 1655l18 164q6 20 21 20h36q20 0 17 -20l-19 -164q-2 -18 -20 -19h-37q-18 1 -16 19z" />
<glyph unicode="&#x121;" d="M186 -436l2 26q0 18 23 19h289q301 0 323 196l37 310q-184 -131 -397 -131q-133 0 -201.5 58t-68.5 161q0 8 10 67l67 559q33 254 324 254q223 0 371 -137l14 101q2 18 22 18h31q18 0 15 -18l-152 -1248q-16 -123 -106.5 -188.5t-294.5 -65.5h-289q-21 1 -19 19zM266 215 q0 -76 53.5 -122t161.5 -46q197 0 387 137l86 695q-145 139 -352 139q-119 0 -183.5 -53.5t-78.5 -141.5l-72 -575q-2 -19 -2 -33z" />
<glyph unicode="&#x122;" horiz-adv-x="1212" d="M225 227q0 18 4 54l113 917q18 139 120.5 217t340.5 78q397 0 397 -250q0 -33 -2 -47l-14 -111q-2 -20 -21 -20h-35q-20 0 -16 20l12 105q2 12 2 41q0 197 -327 196q-195 0 -282 -61t-103 -176l-111 -901q-2 -14 -2 -43q0 -96 74 -147.5t252 -51.5q199 0 284.5 61.5 t100.5 174.5l43 325h-334q-18 0 -19 19l3 26q0 20 22 21h389q18 0 14 -21l-45 -374q-16 -139 -119.5 -217t-342.5 -78q-398 -1 -398 243zM485 -401q33 53 46.5 76.5t27.5 60.5t19 80l6 55q2 20 22 20h29q16 0 14 -20l-6 -57q-4 -47 -23.5 -94.5t-34 -71l-46.5 -72.5 q-10 -11 -21 -11q-3 0 -6 1l-20 6q-11 5 -12 13q0 7 5 14z" />
<glyph unicode="&#x123;" d="M186 -436l2 26q0 18 23 19h289q301 0 323 196l37 310q-184 -131 -397 -131q-133 0 -201.5 58t-68.5 161q0 8 10 67l67 559q33 254 324 254q223 0 371 -137l14 101q2 18 22 18h31q18 0 15 -18l-152 -1248q-16 -123 -106.5 -188.5t-294.5 -65.5h-289q-21 1 -19 19zM266 215 q0 -76 53.5 -122t161.5 -46q197 0 387 137l86 695q-145 139 -352 139q-119 0 -183.5 -53.5t-78.5 -141.5l-72 -575q-2 -19 -2 -33zM641 1266l6 59q4 47 23.5 94t34 70.5t47.5 71.5q9 12 17 11l7 -1l23 -6q10 -5 10 -12q0 -6 -6 -13q-33 -55 -45.5 -77.5t-26.5 -59.5t-18 -80 l-8 -57q-2 -20 -21 -21h-29q-16 1 -14 21z" />
<glyph unicode="&#x124;" horiz-adv-x="1314" d="M223 20l176 1436q4 20 23 21h37q18 0 14 -21l-76 -629h725l76 629q4 20 23 21h36q18 0 15 -21l-176 -1436q-2 -20 -19 -20h-37q-20 0 -18 20l92 744h-725l-92 -744q-2 -20 -18 -20h-37q-21 0 -19 20zM629 1630l202 256q14 20 33 21h29q14 0 25 -19l143 -258q4 -7 4 -11 q0 -8 -14 -7h-29q-14 0 -29 18l-119 223l-178 -223q-14 -18 -24 -18h-33q-16 0 -16 7q1 4 6 11z" />
<glyph unicode="&#x125;" horiz-adv-x="1128" d="M201 20l180 1477q2 20 20 21h35q18 0 15 -21l-66 -549q180 135 399 135q129 0 198 -57t69 -156q0 -25 -2 -36l-101 -814q-2 -20 -20 -20h-35q-18 0 -16 20l98 803q2 10 2 31q0 164 -215 164q-199 0 -387 -137l-105 -861q-2 -20 -20 -20h-35q-18 0 -14 20zM219 1630 l203 256q14 20 33 21h26q16 0 27 -19l143 -258q3 -6 4 -10q0 -8 -14 -8h-29q-14 0 -28 18l-119 223l-178 -223q-16 -18 -27 -18h-33q-14 0 -13 7q-1 4 5 11z" />
<glyph unicode="&#x126;" horiz-adv-x="1314" d="M223 20l133 1080h-82q-18 0 -18 20l2 19q0 20 21 20h83l37 297q4 20 23 21h37q18 0 14 -21l-37 -297h725l37 297q4 20 23 21h36q18 0 15 -21l-37 -297h88q18 0 18 -20l-2 -19q-2 -20 -22 -20h-88l-133 -1080q-2 -20 -19 -20h-37q-20 0 -18 20l92 744h-725l-92 -744 q-2 -20 -18 -20h-37q-21 0 -19 20zM397 827h725l33 273h-725z" />
<glyph unicode="&#x127;" horiz-adv-x="1128" d="M184 1255l2 19q0 20 21 20h147l27 203q2 20 20 21h35q18 0 15 -21l-25 -203h358q18 0 19 -20l-2 -19q-2 -18 -19 -18h-362l-35 -289q180 135 399 135q129 0 198 -57t69 -156q0 -25 -2 -36l-101 -814q-2 -20 -20 -20h-35q-18 0 -16 20l98 803q2 10 2 31q0 164 -215 164 q-199 0 -387 -137l-105 -861q-2 -20 -20 -20h-35q-18 0 -14 20l147 1217h-143q-21 0 -21 18z" />
<glyph unicode="&#x128;" horiz-adv-x="516" d="M184 1669l4 33q14 98 50 138t98 40q57 0 106 -49l86 -86q37 -37 70 -37q43 0 62.5 27.5t27.5 105.5l2 21q2 18 25 18h18q18 0 17 -20l-5 -31q-14 -98 -50 -138t-97 -40q-57 0 -106 49l-89 84q-41 37 -67 37q-43 0 -60.5 -26t-29.5 -103l-4 -25q-2 -18 -23 -18h-18 q-21 0 -17 20zM223 20l176 1436q4 20 23 21h37q18 0 14 -21l-176 -1436q-2 -20 -18 -20h-37q-21 0 -19 20z" />
<glyph unicode="&#x129;" horiz-adv-x="462" d="M111 1292l4 33q16 96 51 137t96 41q59 0 107 -51l86 -84q37 -37 67 -37q45 0 64.5 26.5t27.5 104.5l2 23q2 18 23 18h20q18 0 17 -20l-4 -31q-14 -100 -50 -140t-100 -40q-55 0 -104 51l-88 84q-37 37 -68 37q-43 0 -60.5 -26.5t-29.5 -104.5l-4 -23q-2 -18 -23 -18h-22 q-14 0 -12 20zM201 20l125 1027q0 18 20 18h35q18 0 16 -18l-127 -1027q-2 -20 -20 -20h-35q-17 0 -16 11q0 4 2 9z" />
<glyph unicode="&#x12a;" horiz-adv-x="516" d="M158 1726l2 21q0 18 22 18h572q16 0 16 -16l-2 -23q0 -20 -20 -20h-570q-20 0 -20 20zM223 20l176 1436q4 20 23 21h37q18 0 14 -21l-176 -1436q-2 -20 -18 -20h-37q-21 0 -19 20z" />
<glyph unicode="&#x12b;" horiz-adv-x="462" d="M98 1348l2 22q0 18 21 19h571q18 0 19 -17l-2 -24q0 -18 -23 -19h-571q-17 1 -17 19zM201 20l125 1027q0 18 20 18h35q18 0 16 -18l-127 -1027q-2 -20 -20 -20h-35q-17 0 -16 11q0 4 2 9z" />
<glyph unicode="&#x12c;" horiz-adv-x="516" d="M223 20l176 1436q4 20 23 21h37q18 0 14 -21l-176 -1436q-2 -20 -18 -20h-37q-21 0 -19 20zM238 1800q0 16 2 39l4 53q2 18 20 19h25q16 0 14 -19l-4 -53q-2 -16 -2 -35q0 -68 35 -97.5t125 -29.5q106 0 144 46t46 143l2 26q2 18 23 19h22q16 0 17 -19l-2 -24 q-16 -125 -68.5 -184.5t-189.5 -59.5q-115 0 -164 43t-49 133z" />
<glyph unicode="&#x12d;" horiz-adv-x="462" d="M170 1389q0 18 2 38l4 54q2 18 19 18h24q23 0 14 -18l-4 -54v-36q0 -63 35 -94t125 -31q106 0 144 47t47 141l2 27q0 18 22 18h23q16 0 16 -18l-2 -27q-16 -123 -69.5 -181.5t-188.5 -58.5q-115 0 -164 43.5t-49 131.5zM201 20l125 1027q0 18 20 18h35q18 0 16 -18 l-127 -1027q-2 -20 -20 -20h-35q-17 0 -16 11q0 4 2 9z" />
<glyph unicode="&#x12e;" horiz-adv-x="516" d="M47 -172q0 68 49 123t129 88l174 1417q4 20 23 21h37q18 0 14 -21l-176 -1436q-2 -20 -18 -20h-11q-80 -20 -119.5 -67.5t-39.5 -96.5q0 -92 133 -92h43q25 0 18 -20l-2 -17q0 -20 -18 -20h-56q-180 0 -180 141z" />
<glyph unicode="&#x12f;" horiz-adv-x="462" d="M23 -172q0 68 51 125t129 88l123 1006q4 18 20 18h35q18 0 18 -18l-129 -1027q-2 -20 -20 -20h-4q-80 -20 -122 -67.5t-42 -98.5q0 -90 133 -90h43q20 0 21 -20l-3 -17q0 -20 -22 -20h-49q-182 0 -182 141zM354 1288l27 209q2 20 20 21h35q17 0 17 -11q0 -4 -2 -10 l-23 -209q-2 -20 -22 -20h-35q-17 0 -17 20z" />
<glyph unicode="&#x130;" horiz-adv-x="516" d="M223 20l176 1436q4 20 23 21h37q18 0 14 -21l-176 -1436q-2 -20 -18 -20h-37q-21 0 -19 20zM426 1655l18 164q4 20 21 20h37q18 0 16 -20l-18 -164q-2 -18 -21 -19h-37q-18 1 -16 19z" />
<glyph unicode="&#x131;" horiz-adv-x="462" d="M201 20l125 1027q0 18 20 18h35q18 0 16 -18l-127 -1027q-2 -20 -20 -20h-35q-17 0 -16 11q0 4 2 9z" />
<glyph unicode="&#x132;" horiz-adv-x="1570" d="M223 20l176 1436q4 20 23 21h37q18 0 14 -21l-176 -1436q-2 -20 -18 -20h-37q-21 0 -19 20zM629 225q0 18 6 58l8 73q4 18 21 19h34q18 0 17 -19l-10 -69q-4 -31 -5 -49q0 -92 64.5 -141.5t220.5 -49.5q176 0 249 61.5t89 178.5l145 1169q4 20 19 21h37q23 0 18 -21 l-145 -1177q-18 -141 -109.5 -218t-308.5 -77q-350 -1 -350 241z" />
<glyph unicode="&#x133;" horiz-adv-x="927" d="M201 20l125 1027q4 18 20 18h35q23 0 18 -18l-129 -1027q-2 -20 -20 -20h-35q-18 0 -14 20zM281 -436l2 26q4 18 20 19h10q297 0 318 196l155 1242q4 18 21 18h35q20 0 16 -18l-156 -1248q-14 -123 -104 -188.5t-293 -65.5h-8q-16 1 -16 19zM354 1288l27 209q2 20 20 21 h35q18 0 15 -21l-23 -209q-2 -20 -22 -20h-35q-19 0 -17 20zM815 1288l27 209q4 20 20 21h35q18 0 16 -21l-28 -209q-4 -20 -19 -20h-35q-20 0 -16 20z" />
<glyph unicode="&#x134;" horiz-adv-x="1054" d="M113 225q0 18 4 58l8 73q6 18 22 19h35q18 0 15 -19l-9 -69q-4 -31 -4 -49q0 -92 64.5 -141.5t220.5 -49.5q176 0 249 61.5t87 178.5l145 1169q4 20 21 21h37q20 0 16 -21l-145 -1177q-16 -141 -107.5 -218t-308.5 -77q-350 -1 -350 241zM776 1630l203 256q14 20 33 21 h28q14 0 25 -19l143 -258q4 -7 5 -11q0 -8 -15 -7h-29q-14 0 -26 18l-121 223l-178 -223q-14 -18 -25 -18h-33q-16 0 -15 7q0 4 5 11z" />
<glyph unicode="&#x135;" horiz-adv-x="460" d="M-184 -436l2 24q0 18 18 19h10q295 0 322 198l154 1242q0 18 20 18h33q18 0 18 -18l-153 -1248q-16 -123 -106.5 -189.5t-291.5 -66.5h-10q-16 1 -16 21zM147 1262l203 256q14 18 33 18h27q20 0 28 -16l142 -258q3 -7 3 -12q0 -9 -14 -9h-28q-14 0 -27 21l-121 223 l-178 -223q-14 -20 -27 -21h-32q-14 0 -14 8q-1 5 5 13z" />
<glyph unicode="&#x136;" horiz-adv-x="1146" d="M223 20l176 1436q4 20 23 21h35q20 0 16 -21l-82 -686h80l655 688q12 18 33 19h45q14 0 14 -7q0 -5 -8 -14l-675 -708l563 -728q4 -8 1 -14t-12 -6h-45q-18 0 -32 20l-541 693h-86l-88 -693q-4 -20 -19 -20h-34q-21 0 -19 20zM434 -401q33 53 46.5 76.5t26.5 60.5t19 80 l6 55q2 20 21 20h29q18 0 16 -20l-8 -57q-4 -47 -23.5 -94.5t-34 -71t-47.5 -72.5q-10 -11 -19 -11l-5 1l-23 6q-9 5 -9 13q0 6 5 14z" />
<glyph unicode="&#x137;" horiz-adv-x="952" d="M197 20l180 1477q6 20 22 21h35q20 0 15 -21l-103 -866h80l477 418q16 16 35 16h45q15 0 16 -9q0 -6 -8 -9l-504 -441l441 -586q10 -20 -13 -20h-41q-14 0 -32 20l-414 551h-92l-68 -551q-4 -20 -20 -20h-35q-20 0 -16 20zM369 -401q33 53 46 76.5t27.5 60.5t18.5 80 l6 55q2 20 20 20h29q18 0 16 -20l-6 -57q-6 -47 -25.5 -94.5t-32.5 -71t-46 -72.5q-11 -11 -21 -11q-3 0 -6 1l-22 6q-9 5 -10 13q1 6 6 14z" />
<glyph unicode="&#x138;" horiz-adv-x="952" d="M197 20l127 1027q2 18 22 18h35q16 0 16 -18l-51 -416h80l477 418q16 16 35 16h45q15 0 15 -7q0 -4 -7 -11l-504 -441l441 -586q10 -20 -13 -20h-41q-14 0 -32 20l-414 551h-92l-68 -551q-4 -20 -20 -20h-35q-20 0 -16 20z" />
<glyph unicode="&#x139;" horiz-adv-x="1077" d="M223 20l176 1436q4 20 23 21h37q18 0 14 -21l-172 -1390h680q18 0 18 -21l-2 -25q-4 -20 -22 -20h-735q-19 0 -17 20zM428 1628l199 262q12 16 26 17h41q13 0 13 -7q0 -5 -7 -14l-208 -264q-12 -10 -23 -10h-35q-12 0 -12 5q0 4 6 11z" />
<glyph unicode="&#x13a;" horiz-adv-x="462" d="M197 20l180 1477q6 20 22 21h35q23 0 17 -21l-183 -1477q-4 -20 -18 -20h-37q-18 0 -16 20zM403 1628l201 262q10 16 25 17h43q12 0 12 -7q0 -5 -6 -14l-211 -264q-10 -10 -23 -10h-34q-11 0 -11 6q-1 3 4 10z" />
<glyph unicode="&#x13b;" horiz-adv-x="1077" d="M223 20l176 1436q4 20 23 21h37q18 0 14 -21l-172 -1390h680q18 0 18 -21l-2 -25q-4 -20 -22 -20h-735q-19 0 -17 20zM449 -399q33 53 46 76.5t27.5 60.5t18.5 80l6 57q2 18 22 19h29q18 0 14 -19l-6 -59q-4 -47 -23.5 -94.5t-33.5 -71t-47 -72.5q-11 -11 -21 -11 q-3 0 -6 1l-20 6q-10 5 -10 14q0 6 4 13z" />
<glyph unicode="&#x13c;" horiz-adv-x="462" d="M84 -401q33 53 46 76.5t27.5 60.5t18.5 80l6 55q2 20 23 20h26q20 0 17 -20l-6 -57q-4 -47 -24.5 -94.5t-34 -71t-46.5 -72.5q-11 -11 -21 -11q-3 0 -5 1l-23 6q-8 5 -8 13q0 6 4 14zM197 20l180 1477q6 20 22 21h35q18 0 18 -13q0 -3 -1 -8l-183 -1477q-4 -20 -18 -20 h-37q-18 0 -16 20z" />
<glyph unicode="&#x13d;" horiz-adv-x="1077" d="M223 20l176 1436q4 20 23 21h37q18 0 14 -21l-172 -1390h680q18 0 18 -21l-2 -25q-4 -20 -22 -20h-735q-19 0 -17 20zM776 1202l46 78q13 23 27.5 59.5t18.5 79.5l6 58q2 18 23 18h29q16 0 14 -18l-6 -60q-4 -47 -23.5 -94t-34 -70.5t-47.5 -70.5q-10 -13 -21 -13h-5 l-21 9q-11 5 -11 12q0 5 5 12z" />
<glyph unicode="&#x13e;" horiz-adv-x="499" d="M197 20l180 1477q6 20 22 21h35q23 0 17 -21l-183 -1477q-4 -20 -18 -20h-37q-18 0 -16 20zM543 1239l46 78q13 23 26.5 59.5t19.5 79.5l6 57q2 18 21 19h28q18 0 15 -19l-7 -59q-4 -47 -23.5 -94t-33.5 -70.5t-47 -70.5q-10 -13 -20 -14l-5 1l-22 8q-9 5 -10 13 q1 5 6 12z" />
<glyph unicode="&#x13f;" horiz-adv-x="1077" d="M223 20l176 1436q4 20 23 21h37q18 0 14 -21l-172 -1390h680q18 0 18 -21l-2 -25q-4 -20 -22 -20h-735q-19 0 -17 20zM827 686l19 166q6 18 22 18h37q16 0 16 -11q0 -3 -1 -7l-19 -166q-2 -20 -20 -20h-35q-21 0 -19 20z" />
<glyph unicode="&#x140;" horiz-adv-x="557" d="M197 20l180 1477q6 20 22 21h35q23 0 17 -21l-183 -1477q-4 -20 -18 -20h-37q-18 0 -16 20zM537 686l18 166q4 18 23 18h36q16 0 16 -11q0 -3 -1 -7l-19 -166q-2 -20 -20 -20h-35q-20 0 -18 20z" />
<glyph unicode="&#x141;" horiz-adv-x="1077" d="M121 655q-4 20 14 27l178 70l86 704q4 20 23 21h37q18 0 14 -21l-84 -676l164 64q16 10 20 -8l7 -17q6 -18 -15 -24l-182 -72l-82 -657h680q18 0 18 -21l-2 -25q-4 -20 -22 -20h-735q-18 0 -17 20l82 672l-155 -61q-18 -6 -21 10z" />
<glyph unicode="&#x142;" horiz-adv-x="462" d="M92 655q-2 5 -2 10q0 11 14 17l183 72l90 743q6 20 22 21h35q23 0 17 -21l-89 -715l158 62q16 8 23 -8l6 -17q4 -18 -14 -24l-179 -70l-88 -705q-4 -20 -18 -20h-37q-18 0 -16 20l84 674l-164 -63q-14 -6 -21 10z" />
<glyph unicode="&#x143;" horiz-adv-x="1312" d="M223 20l176 1436q4 20 23 21h24q16 0 19 -9l524 -1202q49 -102 49 -116l160 1306q4 20 23 21h30q20 0 17 -21l-178 -1436q-4 -20 -19 -20h-29q-16 0 -18 8l-522 1196l-47 125l-164 -1309q-4 -20 -21 -20h-28q-21 0 -19 20zM825 1628l199 262q12 16 27 17h41q13 0 13 -7 q0 -5 -7 -14l-209 -264q-12 -10 -23 -10h-35q-12 0 -12 5q0 4 6 11z" />
<glyph unicode="&#x144;" horiz-adv-x="1128" d="M201 20l125 1027q4 18 20 18h29q20 0 18 -18l-8 -101q182 137 399 137q129 0 198 -57t69 -156q0 -27 -2 -39l-101 -811q-2 -20 -20 -20h-35q-18 0 -16 20l98 801q4 16 4 31q0 166 -215 166q-201 0 -389 -137l-105 -861q-2 -20 -20 -20h-35q-18 0 -14 20zM723 1260 l203 262q10 14 22 14h43q14 0 14 -7q0 -4 -6 -11l-211 -265q-12 -12 -22 -12h-35q-12 0 -12 8q0 4 4 11z" />
<glyph unicode="&#x145;" horiz-adv-x="1312" d="M223 20l176 1436q4 20 23 21h24q16 0 19 -9l524 -1202q49 -102 49 -116l160 1306q4 20 23 21h30q20 0 17 -21l-178 -1436q-4 -20 -19 -20h-29q-16 0 -18 8l-522 1196l-47 125l-164 -1309q-4 -20 -21 -20h-28q-21 0 -19 20zM516 -401q33 53 46 76.5t27.5 60.5t18.5 80 l6 55q2 20 23 20h27q18 0 16 -20l-6 -57q-6 -47 -25.5 -94.5t-33 -71t-46.5 -72.5q-11 -11 -21 -11q-3 0 -5 1l-23 6q-9 5 -9 13q0 6 5 14z" />
<glyph unicode="&#x146;" horiz-adv-x="1128" d="M201 20l125 1027q4 18 20 18h29q20 0 18 -18l-8 -101q182 137 399 137q129 0 198 -57t69 -156q0 -27 -2 -39l-101 -811q-2 -20 -20 -20h-35q-18 0 -16 20l98 801q4 16 4 31q0 166 -215 166q-201 0 -389 -137l-105 -861q-2 -20 -20 -20h-35q-18 0 -14 20zM432 -401 q33 53 46.5 76.5t26.5 60.5t17 80l8 55q2 20 21 20h29q16 0 15 -12q0 -4 -1 -8l-6 -57q-4 -47 -23.5 -94.5t-34 -71t-47.5 -72.5q-10 -11 -19 -11l-5 1l-23 6q-8 5 -8 13q0 6 4 14z" />
<glyph unicode="&#x147;" horiz-adv-x="1312" d="M223 20l176 1436q4 20 23 21h24q16 0 19 -9l524 -1202q49 -102 49 -116l160 1306q4 20 23 21h30q20 0 17 -21l-178 -1436q-4 -20 -19 -20h-29q-16 0 -18 8l-522 1196l-47 125l-164 -1309q-4 -20 -21 -20h-28q-21 0 -19 20zM653 1886q-3 6 -3 11q0 10 16 10h30 q12 0 23 -21l121 -223l178 223q14 20 29 21h32q12 0 12 -7q0 -5 -6 -14l-204 -258q-12 -16 -29 -16h-27q-23 0 -30 18z" />
<glyph unicode="&#x148;" horiz-adv-x="1128" d="M201 20l125 1027q4 18 20 18h29q20 0 18 -18l-8 -101q182 137 399 137q129 0 198 -57t69 -156q0 -27 -2 -39l-101 -811q-2 -20 -20 -20h-35q-18 0 -16 20l98 801q4 16 4 31q0 166 -215 166q-201 0 -389 -137l-105 -861q-2 -20 -20 -20h-35q-18 0 -14 20zM545 1518 q-3 6 -3 9q0 9 15 9h31q14 0 24 -18l119 -224l178 224q16 18 29 18h33q11 0 11 -7q0 -4 -5 -11l-205 -258q-12 -18 -29 -19h-26q-18 0 -29 21z" />
<glyph unicode="&#x149;" horiz-adv-x="1128" d="M201 20l125 1027q4 18 20 18h29q20 0 18 -18l-8 -101q182 137 399 137q129 0 198 -57t69 -156q0 -27 -2 -39l-101 -811q-2 -20 -20 -20h-35q-18 0 -16 20l98 801q4 16 4 31q0 166 -215 166q-201 0 -389 -137l-105 -861q-2 -20 -20 -20h-35q-18 0 -14 20zM279 1239 q33 55 45 77.5t26.5 59.5t18.5 80l6 57q2 18 22 19h29q16 0 14 -19l-6 -59q-4 -47 -23.5 -94t-34 -70.5t-46.5 -70.5q-10 -13 -21 -14q-3 0 -6 1l-20 8q-10 5 -11 12q1 6 7 13z" />
<glyph unicode="&#x14a;" horiz-adv-x="1312" d="M223 20l176 1436q4 20 23 21h24q12 0 19 -9l524 -1202q49 -102 49 -116l160 1306q4 20 23 21h30q20 0 17 -21l-205 -1657q-14 -123 -104.5 -189.5t-292.5 -66.5h-11q-16 0 -14 21l2 24q0 18 19 19h10q301 0 321 198l27 209l-518 1190l-47 125l-164 -1309q0 -20 -21 -20 h-28q-21 0 -19 20z" />
<glyph unicode="&#x14b;" horiz-adv-x="1128" d="M201 20l125 1027q4 18 20 18h29q20 0 18 -18l-8 -101q174 137 399 137q129 0 198 -57t69 -156q0 -14 -2 -39l-127 -1032q-14 -123 -104.5 -189.5t-291.5 -66.5h-12q-18 0 -14 21l2 24q0 18 18 19h10q295 0 322 198l123 1016q2 14 2 31q0 78 -52.5 123t-160.5 45 q-197 0 -389 -139l-105 -861q-2 -20 -20 -20h-35q-18 0 -14 20z" />
<glyph unicode="&#x14c;" horiz-adv-x="1263" d="M225 229q0 16 4 52l113 917q16 139 122.5 217t346.5 78q408 0 408 -252q0 -31 -2 -45l-115 -917q-33 -295 -473 -295q-404 -1 -404 245zM301 250q0 -203 336 -203q362 0 391 240l111 901q4 14 4 39q0 201 -338 200q-360 0 -391 -237l-111 -901q-2 -14 -2 -39zM532 1726 l3 21q0 18 20 18h571q18 0 19 -16l-2 -23q0 -20 -23 -20h-569q-19 0 -19 20z" />
<glyph unicode="&#x14d;" horiz-adv-x="1091" d="M193 201q0 23 2 37l73 591q16 121 108.5 187.5t299.5 66.5q344 0 344 -215q0 -20 -2 -39l-72 -591q-31 -254 -405 -254q-348 0 -348 217zM266 211q0 -166 281 -166q307 0 327 197l72 583q2 18 2 31q0 166 -280 166q-303 0 -328 -197l-72 -583q-2 -19 -2 -31zM401 1348 l2 22q0 18 23 19h571q16 0 17 -17l-2 -24q0 -18 -23 -19h-569q-19 1 -19 19z" />
<glyph unicode="&#x14e;" horiz-adv-x="1263" d="M225 229q0 16 4 52l113 917q16 139 122.5 217t346.5 78q408 0 408 -252q0 -31 -2 -45l-115 -917q-33 -295 -473 -295q-404 -1 -404 245zM301 250q0 -203 336 -203q362 0 391 240l111 901q4 14 4 39q0 201 -338 200q-360 0 -391 -237l-111 -901q-2 -14 -2 -39zM631 1800 q0 16 4 39l4 53q2 18 20 19h25q16 0 14 -19l-4 -53q-2 -16 -2 -35q0 -68 35 -97.5t125 -29.5q104 0 143 46t47 143l2 26q2 18 21 19h25q16 0 16 -19l-4 -24q-14 -125 -66.5 -184.5t-189.5 -59.5q-115 0 -165 43t-50 133z" />
<glyph unicode="&#x14f;" horiz-adv-x="1091" d="M193 201q0 23 2 37l73 591q16 121 108.5 187.5t299.5 66.5q344 0 344 -215q0 -20 -2 -39l-72 -591q-31 -254 -405 -254q-348 0 -348 217zM266 211q0 -166 281 -166q307 0 327 197l72 583q2 18 2 31q0 166 -280 166q-303 0 -328 -197l-72 -583q-2 -19 -2 -31zM479 1389 q0 18 2 38l4 54q6 18 21 18h24q20 0 15 -18l-4 -54v-36q0 -63 34.5 -94t122.5 -31q106 0 144.5 47t48.5 141l2 27q0 18 20 18h25q14 0 14 -18l-2 -27q-14 -123 -67.5 -181.5t-190.5 -58.5q-113 0 -163 43.5t-50 131.5z" />
<glyph unicode="&#x150;" horiz-adv-x="1263" d="M225 229q0 16 4 52l113 917q16 139 122.5 217t346.5 78q408 0 408 -252q0 -31 -2 -45l-115 -917q-33 -295 -473 -295q-404 -1 -404 245zM301 250q0 -203 336 -203q362 0 391 240l111 901q4 14 4 39q0 201 -338 200q-360 0 -391 -237l-111 -901q-2 -14 -2 -39zM721 1630 l168 256q10 20 29 21h32q20 0 11 -21l-175 -256q-14 -18 -28 -18h-29q-11 0 -11 8q0 4 3 10zM883 1630l198 256q10 20 33 21h35q10 0 10 -8q0 -5 -4 -13l-209 -260q-14 -14 -26 -14h-29q-12 0 -12 7q0 4 4 11z" />
<glyph unicode="&#x151;" horiz-adv-x="1091" d="M193 201q0 23 2 37l73 591q16 121 108.5 187.5t299.5 66.5q344 0 344 -215q0 -20 -2 -39l-72 -591q-31 -254 -405 -254q-348 0 -348 217zM266 211q0 -166 281 -166q307 0 327 197l72 583q2 18 2 31q0 166 -280 166q-303 0 -328 -197l-72 -583q-2 -19 -2 -31zM582 1262 l168 256q10 18 26 18h35q23 0 12 -18l-178 -256q-14 -20 -29 -21h-26q-11 0 -11 9q0 5 3 12zM743 1262l197 256q14 18 33 18h35q12 0 12 -6q0 -4 -6 -12l-209 -261q-14 -16 -29 -16h-24q-13 0 -13 8q-1 5 4 13z" />
<glyph unicode="&#x152;" horiz-adv-x="1925" d="M225 229q0 16 4 52l113 917q16 139 121.5 217t341.5 78q268 0 356 -117l10 80q6 20 23 21h739q18 0 19 -21l-2 -24q-2 -18 -23 -19h-686l-74 -602h643q20 0 21 -16l-2 -27q-6 -18 -23 -18h-647l-84 -687h713q18 0 16 -18l-2 -25q0 -20 -20 -20h-770q-18 0 -15 20l9 76 q-113 -113 -377 -112q-404 -1 -404 245zM301 248q0 -203 336 -203q365 0 389 238l111 901l6 24v21q0 203 -338 203q-360 0 -391 -240l-111 -905q-2 -12 -2 -39z" />
<glyph unicode="&#x153;" horiz-adv-x="1736" d="M193 197q0 27 2 41l73 591q16 121 107.5 187.5t298.5 66.5q268 0 319 -135q86 135 357 135q342 0 342 -215q0 -27 -2 -39l-35 -270q-4 -18 -21 -18h-651l-39 -301q-2 -16 -2 -31q0 -168 281 -168q162 0 234.5 51t88.5 146l8 57q2 18 23 18h29q18 0 16 -18l-8 -57 q-18 -125 -106.5 -189.5t-290.5 -64.5q-266 0 -326 127q-86 -127 -350 -127q-348 0 -348 213zM266 211q0 -168 281 -168q301 0 327 199l72 583q2 10 2 31q0 166 -280 166q-301 0 -328 -197l-72 -583q-2 -13 -2 -31zM987 598h602l31 229q2 10 2 31q0 166 -279 166 q-299 0 -325 -197z" />
<glyph unicode="&#x154;" horiz-adv-x="1269" d="M223 20l176 1436q4 20 21 21h414q403 0 403 -260q0 -29 -2 -48l-31 -260q-12 -113 -87 -183.5t-236 -94.5l237 -611q8 -20 -18 -20h-37q-16 0 -25 20l-231 605q-23 -2 -76 -2h-360l-74 -603q-2 -20 -18 -20h-37q-21 0 -19 20zM381 688h356q371 0 396 230l28 245 q2 14 2 39q0 209 -336 209h-358zM752 1628l198 262q12 16 27 17h41q13 0 13 -7q0 -5 -7 -14l-209 -264q-12 -10 -22 -10h-35q-12 0 -12 5q0 4 6 11z" />
<glyph unicode="&#x155;" horiz-adv-x="712" d="M201 20l125 1027q4 18 20 18h29q20 0 18 -18l-10 -125q207 160 397 159q18 0 17 -20l-2 -29q-2 -18 -25 -18q-188 -4 -397 -156l-103 -838q-4 -20 -20 -20h-35q-18 0 -14 20zM500 1260l200 262q12 14 25 14h43q13 0 13 -6q0 -4 -7 -12l-209 -265q-12 -12 -22 -12h-35 q-13 0 -13 7q0 5 5 12z" />
<glyph unicode="&#x156;" horiz-adv-x="1269" d="M223 20l176 1436q4 20 21 21h414q403 0 403 -260q0 -29 -2 -48l-31 -260q-12 -113 -87 -183.5t-236 -94.5l237 -611q8 -20 -18 -20h-37q-16 0 -25 20l-231 605q-23 -2 -76 -2h-360l-74 -603q-2 -20 -18 -20h-37q-21 0 -19 20zM381 688h356q371 0 396 230l28 245 q2 14 2 39q0 209 -336 209h-358zM496 -401q33 53 45 76.5t26.5 60.5t18.5 80l6 55q2 20 22 20h29q16 0 14 -20l-6 -57q-4 -47 -23.5 -94.5t-33.5 -71t-47 -72.5q-10 -11 -21 -11q-3 0 -6 1l-20 6q-10 5 -11 12q1 7 7 15z" />
<glyph unicode="&#x157;" horiz-adv-x="712" d="M84 -401q33 53 46 76.5t27.5 60.5t18.5 80l6 55q2 20 23 20h26q20 0 17 -20l-6 -57q-4 -47 -24.5 -94.5t-34 -71t-46.5 -72.5q-11 -11 -21 -11q-3 0 -5 1l-23 6q-8 5 -8 13q0 6 4 14zM201 20l125 1027q4 18 20 18h29q20 0 18 -18l-10 -125q207 160 397 159q18 0 17 -20 l-2 -29q-2 -18 -25 -18q-188 -4 -397 -156l-103 -838q-4 -20 -20 -20h-35q-18 0 -14 20z" />
<glyph unicode="&#x158;" horiz-adv-x="1269" d="M223 20l176 1436q4 20 21 21h414q403 0 403 -260q0 -29 -2 -48l-31 -260q-12 -113 -87 -183.5t-236 -94.5l237 -611q8 -20 -18 -20h-37q-16 0 -25 20l-231 605q-23 -2 -76 -2h-360l-74 -603q-2 -20 -18 -20h-37q-21 0 -19 20zM381 688h356q371 0 396 230l28 245 q2 14 2 39q0 209 -336 209h-358zM604 1886q-4 7 -4 12q0 9 16 9h31q10 0 21 -21l123 -223l178 223q12 20 28 21h31q14 0 14 -8q0 -5 -6 -13l-205 -258q-12 -16 -30 -16h-27q-18 0 -29 18z" />
<glyph unicode="&#x159;" horiz-adv-x="712" d="M201 20l125 1027q4 18 20 18h29q20 0 18 -18l-10 -125q207 160 397 159q18 0 17 -20l-2 -29q-2 -18 -25 -18q-188 -4 -397 -156l-103 -838q-4 -20 -20 -20h-35q-18 0 -14 20zM346 1518q-4 6 -4 10q0 8 16 8h31q12 0 23 -18l120 -224l179 224q14 18 26 18h33q12 0 12 -6 q0 -4 -6 -12l-203 -258q-14 -18 -30 -19h-27q-16 0 -29 21z" />
<glyph unicode="&#x15a;" horiz-adv-x="1216" d="M209 231q0 10 4 50l12 104q2 18 21 18h35q18 0 16 -18l-12 -98q-2 -16 -2 -41q0 -201 333 -201q362 0 394 240l22 178q2 16 2 29q0 119 -157 182l-392 157q-68 29 -115.5 85.5t-47.5 136.5q0 16 4 49l10 96q18 141 118.5 218t340.5 77q391 0 391 -248q0 -31 -2 -47 l-15 -111q-2 -18 -20 -18h-35q-20 0 -18 18l14 105q2 16 2 41q0 96 -72.5 147.5t-251.5 51.5q-358 0 -380 -238l-9 -84q-4 -39 -4 -47q0 -117 127 -166l404 -164q180 -74 180 -231q0 -23 -4 -35l-21 -188q-16 -139 -122.5 -217t-346.5 -78q-403 -1 -403 247zM768 1628 l201 262q10 16 24 17h43q12 0 12 -7q0 -5 -6 -14l-211 -264q-10 -10 -22 -10h-35q-11 0 -11 6q0 3 5 10z" />
<glyph unicode="&#x15b;" horiz-adv-x="1001" d="M166 180q0 14 2 33l6 55q2 18 19 19h34q16 0 15 -19l-9 -51q-2 -14 -2 -29q0 -147 281 -147q150 0 233.5 45t92.5 123l14 110q0 2 1 12.5t1 20.5q0 76 -129 117l-332 102q-61 16 -104 63.5t-43 108.5q0 18 2 31l12 90q31 219 379 219q164 0 248 -54t84 -138q0 -20 -2 -43 l-8 -62q-4 -16 -21 -16h-33q-8 0 -13 5t-3 11l8 58q2 18 2 41q0 61 -65.5 101t-200.5 40q-287 0 -307 -162l-9 -78q-2 -16 -2 -30q0 -90 117 -127l334 -99q154 -47 154 -163q0 -10 -2 -25v-12l-15 -127q-12 -100 -111.5 -159.5t-285.5 -59.5q-172 0 -257 55t-85 141z M602 1260l201 262q12 14 24 14h43q13 0 13 -6q0 -4 -6 -12l-211 -265q-10 -12 -21 -12h-35q-13 0 -12 7q-1 5 4 12z" />
<glyph unicode="&#x15c;" horiz-adv-x="1216" d="M209 231q0 10 4 50l12 104q2 18 21 18h35q18 0 16 -18l-12 -98q-2 -16 -2 -41q0 -201 333 -201q362 0 394 240l22 178q2 16 2 29q0 119 -157 182l-392 157q-68 29 -115.5 85.5t-47.5 136.5q0 16 4 49l10 96q18 141 118.5 218t340.5 77q391 0 391 -248q0 -31 -2 -47 l-15 -111q-2 -18 -20 -18h-35q-20 0 -18 18l14 105q2 16 2 41q0 96 -72.5 147.5t-251.5 51.5q-358 0 -380 -238l-9 -84q-4 -39 -4 -47q0 -117 127 -166l404 -164q180 -74 180 -231q0 -23 -4 -35l-21 -188q-16 -139 -122.5 -217t-346.5 -78q-403 -1 -403 247zM575 1630 l201 256q16 20 33 21h29q16 0 26 -19l144 -258q3 -6 3 -10q0 -8 -14 -8h-28q-16 0 -29 18l-119 223l-178 -223q-16 -18 -27 -18h-32q-15 0 -15 6q-1 5 6 12z" />
<glyph unicode="&#x15d;" horiz-adv-x="1001" d="M166 180q0 14 2 33l6 55q2 18 19 19h34q16 0 15 -19l-9 -51q-2 -14 -2 -29q0 -147 281 -147q150 0 233.5 45t92.5 123l14 110q0 2 1 12.5t1 20.5q0 76 -129 117l-332 102q-61 16 -104 63.5t-43 108.5q0 18 2 31l12 90q31 219 379 219q164 0 248 -54t84 -138q0 -20 -2 -43 l-8 -62q-4 -16 -21 -16h-33q-8 0 -13 5t-3 11l8 58q2 18 2 41q0 61 -65.5 101t-200.5 40q-287 0 -307 -162l-9 -78q-2 -16 -2 -30q0 -90 117 -127l334 -99q154 -47 154 -163q0 -10 -2 -25v-12l-15 -127q-12 -100 -111.5 -159.5t-285.5 -59.5q-172 0 -257 55t-85 141z M420 1262l201 256q16 18 32 18h29q18 0 29 -16l141 -258q3 -6 3 -11q0 -10 -15 -10h-29q-16 0 -25 21l-122 223l-179 -223q-14 -20 -24 -21h-33q-15 0 -15 7q0 6 7 14z" />
<glyph unicode="&#x15e;" horiz-adv-x="1216" d="M209 231q0 10 4 50l12 104q2 18 21 18h35q18 0 16 -18l-12 -98q-2 -16 -2 -41q0 -201 333 -201q362 0 394 240l22 178q2 16 2 29q0 119 -157 182l-392 157q-68 29 -115.5 85.5t-47.5 136.5q0 16 4 49l10 96q18 141 118.5 218t340.5 77q391 0 391 -248q0 -31 -2 -47 l-15 -111q-2 -18 -20 -18h-35q-20 0 -18 18l14 105q2 16 2 41q0 96 -72.5 147.5t-251.5 51.5q-358 0 -380 -238l-9 -84q-4 -39 -4 -47q0 -117 127 -166l404 -164q180 -74 180 -231q0 -23 -4 -35l-21 -188q-16 -139 -121.5 -216t-341.5 -79l-40 -103h88q61 0 108 -35.5 t47 -109.5q0 -104 -60.5 -149.5t-137.5 -45.5h-258q-14 0 -15 21v14q0 20 21 21h252q53 0 95 28.5t42 106.5q0 51 -33 72.5t-76 21.5h-119q-33 0 -22 24l55 136q-356 14 -356 245z" />
<glyph unicode="&#x15f;" horiz-adv-x="1001" d="M166 180q0 14 2 33l6 55q2 18 19 19h34q16 0 15 -19l-9 -51q-2 -14 -2 -29q0 -147 281 -147q150 0 233.5 45t92.5 123l14 110q0 2 1 12.5t1 20.5q0 76 -129 117l-332 102q-61 16 -104 63.5t-43 108.5q0 18 2 31l12 90q31 219 379 219q164 0 248 -54t84 -138q0 -20 -2 -43 l-8 -62q-4 -16 -21 -16h-33q-8 0 -13 5t-3 11l8 58q2 18 2 41q0 61 -65.5 101t-200.5 40q-287 0 -307 -162l-9 -78q-2 -16 -2 -30q0 -90 117 -127l334 -99q154 -47 154 -163q0 -10 -2 -25v-12l-15 -127q-12 -98 -107.5 -157.5t-275.5 -61.5l-41 -103h90q59 0 106.5 -35.5 t47.5 -109.5q0 -104 -59.5 -149.5t-137.5 -45.5h-260q-14 0 -14 21v14q0 20 22 21h252q51 0 93.5 28.5t42.5 106.5q0 51 -32 72.5t-77 21.5h-119q-33 0 -22 25l55 135q-150 6 -226.5 60t-76.5 134z" />
<glyph unicode="&#x160;" horiz-adv-x="1216" d="M209 231q0 10 4 50l12 104q2 18 21 18h35q18 0 16 -18l-12 -98q-2 -16 -2 -41q0 -201 333 -201q362 0 394 240l22 178q2 16 2 29q0 119 -157 182l-392 157q-68 29 -115.5 85.5t-47.5 136.5q0 16 4 49l10 96q18 141 118.5 218t340.5 77q391 0 391 -248q0 -31 -2 -47 l-15 -111q-2 -18 -20 -18h-35q-20 0 -18 18l14 105q2 16 2 41q0 96 -72.5 147.5t-251.5 51.5q-358 0 -380 -238l-9 -84q-4 -39 -4 -47q0 -117 127 -166l404 -164q180 -74 180 -231q0 -23 -4 -35l-21 -188q-16 -139 -122.5 -217t-346.5 -78q-403 -1 -403 247zM604 1886 q-4 7 -4 12q0 9 16 9h31q10 0 21 -21l123 -223l178 223q12 20 28 21h31q14 0 14 -8q0 -5 -6 -13l-205 -258q-12 -16 -30 -16h-27q-18 0 -29 18z" />
<glyph unicode="&#x161;" horiz-adv-x="1001" d="M166 180q0 14 2 33l6 55q2 18 19 19h34q16 0 15 -19l-9 -51q-2 -14 -2 -29q0 -147 281 -147q150 0 233.5 45t92.5 123l14 110q0 2 1 12.5t1 20.5q0 76 -129 117l-332 102q-61 16 -104 63.5t-43 108.5q0 18 2 31l12 90q31 219 379 219q164 0 248 -54t84 -138q0 -20 -2 -43 l-8 -62q-4 -16 -21 -16h-33q-8 0 -13 5t-3 11l8 58q2 18 2 41q0 61 -65.5 101t-200.5 40q-287 0 -307 -162l-9 -78q-2 -16 -2 -30q0 -90 117 -127l334 -99q154 -47 154 -163q0 -10 -2 -25v-12l-15 -127q-12 -100 -111.5 -159.5t-285.5 -59.5q-172 0 -257 55t-85 141z M440 1518q-3 5 -3 9q0 9 18 9h28q14 0 25 -18l119 -224l178 224q16 18 29 18h32q11 0 11 -7q0 -4 -5 -11l-204 -258q-12 -18 -29 -19h-27q-18 0 -28 21z" />
<glyph unicode="&#x162;" horiz-adv-x="1034" d="M221 1432l2 24q0 20 23 21h899q18 0 16 -21l-2 -24q0 -20 -22 -21h-412l-172 -1391q-2 -20 -18 -20h-37q-20 0 -19 20l172 1391h-411q-19 1 -19 21zM365 -401q33 53 46 76.5t26.5 60.5t19.5 80l6 55q2 20 20 20h29q18 0 16 -20l-8 -57q-4 -47 -23.5 -94.5t-33.5 -70.5 l-45 -73q-11 -11 -21 -11q-3 0 -6 1l-22 6q-9 5 -10 13q1 6 6 14z" />
<glyph unicode="&#x163;" horiz-adv-x="733" d="M137 -401q33 53 45.5 76.5t26.5 60.5t18 80l6 55q4 20 23 20h29q18 0 14 -20l-6 -57q-4 -47 -23.5 -94.5t-34 -71t-47.5 -72.5q-10 -11 -19 -11l-5 1l-23 6q-9 5 -9 13q0 6 5 14zM193 1020l2 20q6 18 22 19l143 4h2l31 242q2 20 21 20h32q23 0 19 -20l-31 -242h271 q16 0 16 -19v-26q0 -16 -25 -17h-270l-90 -739q-2 -12 -2 -35q0 -164 274 -164h33q14 0 14 -20v-23q0 -20 -24 -20h-37q-182 0 -258 54.5t-76 156.5q0 23 2 43l92 747h-145q-18 1 -16 19z" />
<glyph unicode="&#x164;" horiz-adv-x="1034" d="M221 1432l2 24q0 20 23 21h899q18 0 16 -21l-2 -24q0 -20 -22 -21h-412l-172 -1391q-2 -20 -18 -20h-37q-20 0 -19 20l172 1391h-411q-19 1 -19 21zM520 1886q-3 6 -3 10q0 10 18 11h30q10 0 21 -21l123 -223l176 223q14 20 28 21h33q13 0 13 -7q0 -5 -7 -14l-202 -258 q-14 -16 -31 -16h-27q-18 0 -30 18z" />
<glyph unicode="&#x165;" horiz-adv-x="741" d="M193 1020l2 20q6 18 22 19l143 4h2l31 242q2 20 21 20h32q23 0 19 -20l-31 -242h271q16 0 16 -19v-26q0 -16 -25 -17h-270l-90 -739q-2 -12 -2 -35q0 -164 274 -164h33q14 0 14 -20v-23q0 -20 -24 -20h-37q-182 0 -258 54.5t-76 156.5q0 23 2 43l92 747h-145 q-18 1 -16 19zM584 1239l46 78q13 23 27.5 59.5t18.5 79.5l6 57q2 18 20 19h29q20 0 17 -19l-9 -59q-4 -47 -23.5 -94t-33.5 -71l-45 -70q-11 -13 -22 -14q-3 0 -5 1l-22 8q-8 5 -9 13q1 5 5 12z" />
<glyph unicode="&#x166;" horiz-adv-x="1034" d="M219 965l2 18q0 18 21 18h358l51 410h-411q-18 0 -19 21l2 24q0 20 23 21h899q18 0 16 -21l-2 -24q0 -20 -22 -21h-412l-51 -410h360q18 0 19 -18l-2 -18q0 -20 -19 -21h-366l-113 -924q-2 -20 -18 -20h-37q-20 0 -19 20l113 924h-354q-21 1 -19 21z" />
<glyph unicode="&#x167;" horiz-adv-x="733" d="M154 690l2 21q0 18 20 18h143l35 272h-145q-18 0 -16 19l2 20q6 18 22 19l143 4h2l31 242q2 20 21 20h32q23 0 19 -20l-31 -242h271q16 0 16 -19v-26q0 -16 -25 -17h-270l-33 -272h271q23 0 18 -18l-2 -21q0 -16 -21 -16h-272l-51 -412q-2 -12 -2 -35q0 -164 274 -164h33 q14 0 14 -20v-23q0 -20 -24 -20h-37q-182 0 -258 54.5t-76 156.5q0 23 2 43l51 420h-141q-20 0 -18 16z" />
<glyph unicode="&#x168;" horiz-adv-x="1290" d="M240 233q0 33 2 50l145 1173q4 20 19 21h34q25 0 21 -21l-146 -1163q-2 -16 -2 -43q0 -203 334 -203q199 0 288 63.5t105 176.5l146 1169q4 20 18 21h35q25 0 21 -21l-146 -1177q-18 -139 -124.5 -217t-346.5 -78q-403 -1 -403 249zM567 1669l4 33q12 98 48 138t100 40 q55 0 106 -49l84 -86q37 -37 70 -37q43 0 62.5 27.5t29.5 105.5l2 21q2 18 23 18h20q16 0 14 -20l-4 -31q-12 -98 -48 -138t-99 -40q-57 0 -107 49l-86 84q-41 37 -67 37q-43 0 -60.5 -26t-31.5 -103l-4 -25q-2 -18 -21 -18h-20q-19 0 -15 20z" />
<glyph unicode="&#x169;" horiz-adv-x="1114" d="M207 195q0 18 2 36l100 816q4 18 21 18h35q20 0 18 -18l-100 -801q-2 -18 -2 -31q0 -168 215 -168q201 0 372 137l105 863q4 18 20 18h35q20 0 19 -18l-129 -1027q-2 -20 -17 -20h-31q-25 0 -18 20l8 97q-170 -133 -385 -133q-133 0 -200.5 57.5t-67.5 153.5zM424 1292 l4 33q14 96 49 137t99 41q59 0 106 -51l84 -84q37 -37 70 -37q43 0 62.5 26.5t29.5 104.5l2 23q2 18 20 18h23q16 0 14 -20l-4 -31q-12 -100 -48 -140t-99 -40q-55 0 -107 51l-86 84q-37 37 -68 37q-43 0 -60 -26.5t-32 -104.5l-4 -23q-2 -18 -20 -18h-23q-14 0 -12 20z" />
<glyph unicode="&#x16a;" horiz-adv-x="1290" d="M240 233q0 33 2 50l145 1173q4 20 19 21h34q25 0 21 -21l-146 -1163q-2 -16 -2 -43q0 -203 334 -203q199 0 288 63.5t105 176.5l146 1169q4 20 18 21h35q25 0 21 -21l-146 -1177q-18 -139 -124.5 -217t-346.5 -78q-403 -1 -403 249zM539 1726l2 21q0 18 22 18h570 q18 0 18 -16l-2 -23q0 -20 -23 -20h-569q-18 0 -18 20z" />
<glyph unicode="&#x16b;" horiz-adv-x="1114" d="M207 195q0 18 2 36l100 816q4 18 21 18h35q20 0 18 -18l-100 -801q-2 -18 -2 -31q0 -168 215 -168q201 0 372 137l105 863q4 18 20 18h35q20 0 19 -18l-129 -1027q-2 -20 -17 -20h-31q-25 0 -18 20l8 97q-170 -133 -385 -133q-133 0 -200.5 57.5t-67.5 153.5zM391 1348 l2 22q0 18 21 19h571q18 0 19 -17l-3 -24q0 -18 -22 -19h-571q-17 1 -17 19z" />
<glyph unicode="&#x16c;" horiz-adv-x="1290" d="M240 233q0 33 2 50l145 1173q4 20 19 21h34q25 0 21 -21l-146 -1163q-2 -16 -2 -43q0 -203 334 -203q199 0 288 63.5t105 176.5l146 1169q4 20 18 21h35q25 0 21 -21l-146 -1177q-18 -139 -124.5 -217t-346.5 -78q-403 -1 -403 249zM623 1800q0 16 2 39l4 53q2 18 22 19 h25q16 0 14 -19l-4 -53q-2 -16 -2 -35q0 -68 35 -97.5t123 -29.5q106 0 144 46t48 143l2 26q2 18 21 19h24q14 0 15 -19l-2 -24q-14 -125 -66.5 -184.5t-189.5 -59.5q-115 0 -165 43t-50 133z" />
<glyph unicode="&#x16d;" horiz-adv-x="1114" d="M207 195q0 18 2 36l100 816q4 18 21 18h35q20 0 18 -18l-100 -801q-2 -18 -2 -31q0 -168 215 -168q201 0 372 137l105 863q4 18 20 18h35q20 0 19 -18l-129 -1027q-2 -20 -17 -20h-31q-25 0 -18 20l8 97q-170 -133 -385 -133q-133 0 -200.5 57.5t-67.5 153.5zM477 1389 q0 18 2 38l4 54q2 18 21 18h24q20 0 15 -18l-4 -54v-36q0 -63 34.5 -94t122.5 -31q106 0 144.5 47t48.5 141l2 27q0 18 20 18h25q14 0 14 -18l-2 -27q-14 -123 -67.5 -181.5t-190.5 -58.5q-113 0 -163 43.5t-50 131.5z" />
<glyph unicode="&#x16e;" horiz-adv-x="1290" d="M240 233q0 33 2 50l145 1173q4 20 19 21h34q25 0 21 -21l-146 -1163q-2 -16 -2 -43q0 -203 334 -203q199 0 288 63.5t105 176.5l146 1169q4 20 18 21h35q25 0 21 -21l-146 -1177q-18 -139 -124.5 -217t-346.5 -78q-403 -1 -403 249zM657 1700q0 29 2 57l3 19 q16 139 206 139q84 0 129 -37t45 -94q0 -18 -2 -41l-4 -35q-18 -131 -207 -131q-84 0 -128 34t-44 89zM711 1708q0 -84 123 -84q145 0 151 88l2 27q2 20 2 37q0 90 -125 90q-141 0 -151 -94l-2 -27v-37z" />
<glyph unicode="&#x16f;" horiz-adv-x="1114" d="M207 195q0 18 2 36l100 816q4 18 21 18h35q20 0 18 -18l-100 -801q-2 -18 -2 -31q0 -168 215 -168q201 0 372 137l105 863q4 18 20 18h35q20 0 19 -18l-129 -1027q-2 -20 -17 -20h-31q-25 0 -18 20l8 97q-170 -133 -385 -133q-133 0 -200.5 57.5t-67.5 153.5zM512 1337 q0 29 2 58l2 18q16 139 207 139q84 0 129 -36.5t45 -94.5q0 -18 -2 -41l-4 -34q-18 -131 -207 -132q-84 0 -128 34t-44 89zM565 1346q0 -84 123 -84q145 0 152 88l2 26q2 20 2 37q0 90 -125 90q-141 0 -152 -94l-2 -27v-36z" />
<glyph unicode="&#x170;" horiz-adv-x="1290" d="M240 233q0 33 2 50l145 1173q4 20 19 21h34q25 0 21 -21l-146 -1163q-2 -16 -2 -43q0 -203 334 -203q199 0 288 63.5t105 176.5l146 1169q4 20 18 21h35q25 0 21 -21l-146 -1177q-18 -139 -124.5 -217t-346.5 -78q-403 -1 -403 249zM725 1630l168 256q10 20 29 21h32 q20 0 11 -21l-174 -256q-14 -18 -29 -18h-29q-11 0 -11 8q0 4 3 10zM889 1630l196 256q10 20 33 21h35q10 0 10 -8q0 -5 -4 -13l-209 -260q-14 -14 -24 -14h-31q-11 0 -11 6q0 5 5 12z" />
<glyph unicode="&#x171;" horiz-adv-x="1114" d="M207 195q0 18 2 36l100 816q4 18 21 18h35q20 0 18 -18l-100 -801q-2 -18 -2 -31q0 -168 215 -168q201 0 372 137l105 863q4 18 20 18h35q20 0 19 -18l-129 -1027q-2 -20 -17 -20h-31q-25 0 -18 20l8 97q-170 -133 -385 -133q-133 0 -200.5 57.5t-67.5 153.5zM567 1262 l166 256q12 18 29 18h35q23 0 10 -18l-178 -256q-12 -20 -27 -21h-27q-13 0 -12 8q-1 5 4 13zM727 1262l199 256q14 18 30 18h35q14 0 14 -7q0 -4 -6 -11l-208 -261q-16 -16 -29 -16h-27q-12 0 -12 9q0 5 4 12z" />
<glyph unicode="&#x172;" horiz-adv-x="1290" d="M240 233q0 33 2 50l145 1173q0 20 19 21h34q20 0 21 -21l-146 -1163q-2 -16 -2 -43q0 -203 334 -203q199 0 288 63.5t105 176.5l146 1169q0 20 18 21h35q20 0 21 -21l-146 -1177q-18 -131 -94 -195q-4 -4 -47 -38t-62.5 -54.5t-42 -60.5t-22.5 -81q0 -106 141 -106h78 q20 0 20 -20l-2 -17q0 -20 -22 -20h-86q-188 0 -189 153q0 86 70 166q-92 -23 -213 -22q-403 -1 -403 249z" />
<glyph unicode="&#x173;" horiz-adv-x="1114" d="M207 195q0 25 2 36l100 816q6 18 21 18h35q20 0 18 -18l-100 -801q-2 -14 -2 -31q0 -168 215 -168q201 0 372 137l105 863q6 18 20 18h35q20 0 19 -18l-129 -1027q0 -20 -17 -20h-4q-76 -20 -118 -67.5t-42 -96.5q0 -92 135 -92h35q20 0 21 -20l-2 -17q0 -20 -23 -20h-43 q-182 0 -182 143q0 63 51 117.5t125 85.5l6 84q-170 -133 -385 -133q-133 0 -200.5 57.5t-67.5 153.5z" />
<glyph unicode="&#x174;" horiz-adv-x="1691" d="M240 1456q-2 20 18 21h35q16 0 20 -21l158 -1186q14 -121 14 -145l54 145l446 1186q6 20 27 21h35q16 0 18 -21l158 -1186q14 -104 14 -141q27 78 53 141l447 1186q6 20 26 21h35q13 0 13 -10q0 -4 -3 -11l-540 -1436q-6 -20 -27 -20h-37q-18 0 -22 20l-158 1201 q-12 109 -12 125l-43 -125l-455 -1201q-6 -20 -27 -20h-36q-20 0 -23 20zM809 1630l203 256q14 20 32 21h29q14 0 25 -19l143 -258q4 -7 4 -11q0 -8 -14 -7h-29q-14 0 -28 18l-119 223l-178 -223q-14 -18 -25 -18h-33q-16 0 -15 7q0 4 5 11z" />
<glyph unicode="&#x175;" horiz-adv-x="1347" d="M174 1047q-4 18 16 18h37q16 0 21 -18l125 -863l12 -82q10 37 27 82l344 863q6 18 26 18h47q16 0 19 -18l125 -863l8 -78l29 78l342 863q8 18 24 18h35q14 0 14 -8q0 -4 -4 -10l-411 -1027q-6 -20 -25 -20h-39q-12 0 -16 20l-129 859q-8 66 -8 96q-2 -2 -18.5 -46 t-20.5 -52l-348 -857q-10 -20 -23 -20h-41q-12 0 -16 20zM588 1262l203 256q14 18 32 18h29q18 0 27 -16l141 -258q4 -7 4 -12q0 -9 -14 -9h-29q-16 0 -27 21l-120 223l-179 -223q-14 -20 -26 -21h-31q-16 0 -16 8q1 5 6 13z" />
<glyph unicode="&#x176;" horiz-adv-x="1087" d="M229 1456q-2 5 -2 9q0 12 19 12h41q14 0 22 -21l297 -706q16 -49 21 -66q2 10 35 66l471 706q16 20 28 21h39q16 0 16 -9q0 -5 -6 -12l-555 -833l-73 -603q-4 -20 -19 -20h-35q-25 0 -20 20l74 596zM512 1630l203 256q14 20 33 21h26q16 0 27 -19l143 -258q3 -6 4 -10 q0 -8 -14 -8h-29q-14 0 -28 18l-119 223l-178 -223q-14 -18 -27 -18h-33q-14 0 -14 7q0 4 6 11z" />
<glyph unicode="&#x177;" horiz-adv-x="884" d="M178 1047q-4 18 15 18h36q18 0 21 -18l188 -852l19 -95q16 49 37 95l397 852q8 18 22 18h35q18 0 19 -10q0 -3 -2 -8l-689 -1483q-10 -20 -26 -21h-31q-25 0 -12 21l201 438zM360 1262l203 256q14 18 31 18h29q20 0 28 -16l142 -258q3 -7 3 -12q0 -9 -14 -9h-28 q-16 0 -27 21l-121 223l-178 -223q-16 -20 -27 -21h-32q-14 0 -14 8q-1 5 5 13z" />
<glyph unicode="&#x178;" horiz-adv-x="1087" d="M229 1456q-2 5 -2 9q0 12 19 12h41q14 0 22 -21l297 -706q16 -49 21 -66q2 10 35 66l471 706q16 20 28 21h39q16 0 16 -9q0 -5 -6 -12l-555 -833l-73 -603q-4 -20 -19 -20h-35q-25 0 -20 20l74 596zM594 1651l27 215q2 16 22 16h23q18 0 16 -16l-27 -215q-2 -20 -20 -21 h-23q-20 1 -18 21zM786 1651l25 215q4 16 23 16h24q16 0 14 -16l-24 -215q-2 -20 -21 -21h-24q-19 1 -17 21z" />
<glyph unicode="&#x179;" horiz-adv-x="1097" d="M133 16l4 25q2 12 10 27l891 1343h-676q-20 0 -16 21l4 24q2 20 21 21h749q14 0 15 -21l-2 -24q0 -12 -7 -21l-895 -1345h748q20 0 18 -21l-6 -25q-2 -20 -18 -20h-821q-10 0 -15.5 4t-3.5 12zM700 1628l201 262q10 16 27 17h41q12 0 12 -7q0 -5 -6 -14l-211 -264 q-10 -10 -21 -10h-34q-13 0 -13 6q-1 4 4 10z" />
<glyph unicode="&#x17a;" horiz-adv-x="993" d="M121 20l2 19q2 12 22 39l717 926h-575q-18 0 -17 18l4 27q0 16 21 16h647q18 0 14 -16l-2 -21q0 -10 -10 -24l-729 -941h629q20 0 16 -20l-2 -23q-2 -20 -22 -20h-697q-22 0 -18 20zM580 1260l202 262q10 14 23 14h43q14 0 14 -7q0 -4 -6 -11l-211 -265q-10 -12 -22 -12 h-35q-12 0 -12 8q0 4 4 11z" />
<glyph unicode="&#x17b;" horiz-adv-x="1097" d="M133 16l4 25q2 12 10 27l891 1343h-676q-20 0 -16 21l4 24q2 20 21 21h749q14 0 15 -21l-2 -24q0 -12 -7 -21l-895 -1345h748q20 0 18 -21l-6 -25q-2 -20 -18 -20h-821q-10 0 -15.5 4t-3.5 12zM711 1655l18 164q4 20 21 20h36q20 0 17 -20l-19 -164q-2 -18 -20 -19h-37 q-18 1 -16 19z" />
<glyph unicode="&#x17c;" horiz-adv-x="993" d="M121 20l2 19q2 12 22 39l717 926h-575q-18 0 -17 18l4 27q0 16 21 16h647q18 0 14 -16l-2 -21q0 -10 -10 -24l-729 -941h629q20 0 16 -20l-2 -23q-2 -20 -22 -20h-697q-22 0 -18 20z" />
<glyph unicode="&#x17d;" horiz-adv-x="1097" d="M133 16l4 25q2 12 10 27l891 1343h-676q-20 0 -16 21l4 24q2 20 21 21h749q14 0 15 -21l-2 -24q0 -12 -7 -21l-895 -1345h748q20 0 18 -21l-6 -25q-2 -20 -18 -20h-821q-10 0 -15.5 4t-3.5 12zM557 1886q-3 6 -3 10q0 10 17 11h31q10 0 21 -21l122 -223l177 223 q14 20 28 21h33q13 0 13 -7q0 -5 -7 -14l-203 -258q-14 -16 -30 -16h-27q-20 0 -31 18z" />
<glyph unicode="&#x17e;" horiz-adv-x="993" d="M121 20l2 19q2 12 22 39l717 926h-575q-18 0 -17 18l4 27q0 16 21 16h647q18 0 14 -16l-2 -21q0 -10 -10 -24l-729 -941h629q20 0 16 -20l-2 -23q-2 -20 -22 -20h-697q-22 0 -18 20zM428 1518q-3 6 -3 9q0 9 15 9h31q12 0 25 -18l118 -224l179 224q14 18 28 18h33 q11 0 11 -7q0 -4 -5 -11l-205 -258q-12 -18 -30 -19h-25q-18 0 -29 21z" />
<glyph unicode="&#x17f;" horiz-adv-x="663" d="M197 -436l178 1440h-148q-18 0 -16 18l2 18q4 18 20 19l123 4h25l27 209q16 123 106 188.5t293 65.5h12q18 0 15 -19l-3 -24q-2 -20 -22 -21h-8q-299 0 -322 -194l-211 -1704q-2 -18 -20 -19h-35q-18 1 -16 19z" />
<glyph unicode="&#x192;" horiz-adv-x="1167" d="M35 -451l2 23q0 20 20 20h15q166 0 242.5 51.5t99.5 145.5l254 1028h-230q-16 0 -16 19l2 24q0 18 20 19h240l98 403q27 123 125.5 188.5t298.5 65.5h15q16 0 16 -18l-2 -25q-2 -18 -21 -18h-14q-299 0 -346 -199l-98 -397h237q18 0 19 -19l-2 -24q-2 -18 -23 -19h-248 l-254 -1032q-29 -123 -126 -189.5t-296 -66.5h-14q-14 0 -14 20z" />
<glyph unicode="&#x1fa;" horiz-adv-x="1107" d="M63 20l625 1436q10 20 27 21h39q18 0 20 -21l273 -1436q4 -20 -13 -20h-41q-16 0 -20 20l-88 455h-551l-199 -455q-6 -20 -24 -20h-33q-17 0 -18 10q0 4 3 10zM360 539h517l-125 661l-29 191q-4 -12 -30.5 -84t-39.5 -101zM555 1700q0 29 2 57l2 19q16 133 193 139 l131 162q8 16 24 16h41q15 0 15 -6q0 -5 -9 -14l-139 -162q59 -10 92 -45t33 -82q0 -18 -2 -41l-4 -35q-18 -131 -207 -131q-84 0 -128 34t-44 89zM608 1708q0 -84 123 -84q145 0 152 88l2 27q4 20 4 37q0 90 -127 90q-141 0 -152 -94l-2 -27v-37z" />
<glyph unicode="&#x1fb;" d="M193 197q0 14 4 41l73 591q31 254 324 254q215 0 371 -137l14 101q6 18 22 18h31q14 0 15 -18l-127 -1027q-4 -20 -21 -20h-31q-14 0 -14 20l6 97q-186 -133 -399 -133q-133 0 -200.5 57.5t-67.5 155.5zM266 213q0 -76 53.5 -121t161.5 -45q197 0 387 137l86 695 q-145 139 -352 139q-119 0 -183.5 -54.5t-78.5 -140.5l-72 -579q-2 -13 -2 -31zM518 1337q0 29 2 58l2 18q16 131 187 139l180 234q10 16 22 16h43q14 0 14 -7q0 -5 -5 -13l-189 -234q63 -12 96 -46t33 -81q0 -18 -2 -41l-4 -34q-18 -131 -207 -132q-84 0 -128 34t-44 89z M571 1346q0 -84 123 -84q145 0 152 88l2 26q4 20 4 37q0 90 -127 90q-141 0 -152 -94l-2 -27v-36z" />
<glyph unicode="&#x1fc;" horiz-adv-x="1824" d="M66 20l1005 1436q14 20 37 21h733q16 0 14 -21l-2 -22q-4 -20 -20 -21h-686l-74 -602h643q20 0 19 -18l-2 -25q-4 -18 -23 -18h-645l-86 -687h715q18 0 16 -18l-4 -25q-4 -20 -18 -20h-756q-16 0 -23.5 4t-5.5 21l58 450h-500l-320 -455q-16 -20 -26 -20h-35q-19 0 -19 9 q0 4 5 11zM506 539h463l96 807q-29 -51 -84 -127zM1169 1628l201 262q10 16 27 17h41q12 0 12 -7q0 -5 -6 -14l-211 -264q-10 -10 -23 -10h-32q-13 0 -13 6q-1 4 4 10z" />
<glyph unicode="&#x1fd;" horiz-adv-x="1714" d="M176 190q0 27 2 39l10 97q12 109 87 176t202 67h416l29 242q6 35 6 49q0 164 -273 164q-164 0 -233.5 -51t-85.5 -144l-6 -41q-2 -20 -19 -20h-30q-20 0 -19 20l4 41q14 121 103.5 187.5t292.5 66.5q264 0 313 -137q78 137 352 137q342 0 342 -215q0 -27 -2 -39l-35 -272 q-4 -18 -18 -18h-651l-37 -285q-6 -35 -6 -45q0 -166 280 -166q166 0 237.5 51t86.5 146l8 55q4 20 22 20h29q18 0 16 -20l-8 -57q-18 -125 -105 -189.5t-292 -64.5q-299 0 -336 161q-201 -162 -414 -161q-125 0 -196.5 55t-71.5 151zM248 209q0 -164 213 -164 q182 0 387 160l37 305h-408q-94 0 -152.5 -53.5t-66.5 -137.5l-8 -81q-2 -15 -2 -29zM967 598h600l30 229v31q0 164 -274 164q-168 0 -240.5 -51t-85.5 -144zM997 1260l201 262q10 14 25 14h43q13 0 13 -6q0 -4 -7 -12l-211 -265q-10 -12 -21 -12h-34q-13 0 -13 7q-1 5 4 12 z" />
<glyph unicode="&#x1fe;" horiz-adv-x="1263" d="M225 227q0 16 4 52l113 917q16 139 122.5 217t346.5 78q190 0 291 -55l45 71q10 18 27 19h22q8 0 9 -6.5t-3 -12.5l-57 -100q74 -61 74 -168q0 -31 -2 -45l-115 -918q-33 -297 -473 -296q-193 0 -291 55l-39 -66q-12 -23 -29 -22h-20q-23 0 -6 22l53 94q-72 55 -72 164z M301 248q0 -70 37 -115l727 1239q-80 53 -260 53q-360 0 -391 -237l-111 -901q-2 -16 -2 -39zM375 100q82 -55 262 -55q362 0 391 240l111 901q4 14 4 39q0 68 -41 112zM805 1628l201 262q10 16 26 17h41q12 0 12 -7q0 -5 -6 -14l-211 -264q-10 -10 -22 -10h-35q-11 0 -11 6 q0 3 5 10z" />
<glyph unicode="&#x1ff;" horiz-adv-x="1091" d="M181 -43q0 5 3 10l66 94q-57 53 -57 140q0 23 2 37l73 591q16 121 108.5 187.5t299.5 66.5q158 0 252 -49l49 72q12 18 27 18h20q12 0 12 -7q0 -4 -4 -11l-67 -98q55 -55 55 -140q0 -27 -2 -39l-72 -591q-14 -123 -107.5 -188.5t-297.5 -65.5q-166 0 -256 51l-45 -68 q-12 -18 -29 -18h-21q-9 -1 -9 8zM266 211q0 -55 27 -90l592 854q-66 47 -217 47q-301 0 -328 -197l-72 -583q-2 -13 -2 -31zM326 92q70 -47 221 -47q301 0 327 197l72 581q2 10 2 33q0 51 -28 88zM647 1260l201 262q12 14 24 14h43q13 0 13 -6q0 -4 -6 -12l-209 -265 q-12 -12 -23 -12h-35q-12 0 -11 8q-1 4 3 11z" />
<glyph unicode="&#x218;" horiz-adv-x="1216" d="M209 231q0 10 4 50l12 104q2 18 21 18h35q18 0 16 -18l-12 -98q-2 -16 -2 -41q0 -201 333 -201q362 0 394 240l22 178q2 16 2 29q0 119 -157 182l-392 157q-68 29 -115.5 85.5t-47.5 136.5q0 16 4 49l10 96q18 141 118.5 218t340.5 77q391 0 391 -248q0 -31 -2 -47 l-15 -111q-2 -18 -20 -18h-35q-20 0 -18 18l14 105q2 16 2 41q0 96 -72.5 147.5t-251.5 51.5q-358 0 -380 -238l-9 -84q-4 -39 -4 -47q0 -117 127 -166l404 -164q180 -74 180 -231q0 -23 -4 -35l-21 -188q-16 -139 -122.5 -217t-346.5 -78q-403 -1 -403 247zM492 -401l44 76 q13 24 27.5 61t18.5 80l6 55q2 20 22 20h29q16 0 14 -20l-6 -57q-4 -47 -23.5 -94.5t-34 -71l-46.5 -72.5q-10 -11 -21 -11q-3 0 -6 1l-20 6q-10 5 -11 12q1 7 7 15z" />
<glyph unicode="&#x219;" horiz-adv-x="1001" d="M166 180q0 14 2 33l6 55q2 18 19 19h34q16 0 15 -19l-9 -51q-2 -14 -2 -29q0 -147 281 -147q150 0 233.5 45t92.5 123l14 110q0 2 1 12.5t1 20.5q0 76 -129 117l-332 102q-61 16 -104 63.5t-43 108.5q0 18 2 31l12 90q31 219 379 219q164 0 248 -54t84 -138q0 -20 -2 -43 l-8 -62q-4 -16 -21 -16h-33q-8 0 -13 5t-3 11l8 58q2 18 2 41q0 61 -65.5 101t-200.5 40q-287 0 -307 -162l-9 -78q-2 -16 -2 -30q0 -90 117 -127l334 -99q154 -47 154 -163q0 -10 -2 -25v-12l-15 -127q-12 -100 -111.5 -159.5t-285.5 -59.5q-172 0 -257 55t-85 141z M389 -399q33 53 45 76.5t26.5 60.5t18.5 80l6 57q2 18 23 19h29q18 0 14 -19l-6 -59q-4 -47 -23.5 -94.5t-34 -71t-47.5 -72.5q-10 -11 -20 -11q-3 0 -6 1l-21 6q-9 5 -9 13q0 6 5 14z" />
<glyph unicode="&#x237;" horiz-adv-x="460" d="M-184 -436l2 24q0 18 18 19h10q295 0 322 198l154 1242q0 18 20 18h33q18 0 18 -18l-153 -1248q-16 -123 -106.5 -189.5t-291.5 -66.5h-10q-16 1 -16 21z" />
<glyph unicode="&#x2c6;" horiz-adv-x="741" d="M305 1262l203 256q14 18 33 18h28q18 0 29 -16l139 -258q4 -7 5 -12q0 -9 -15 -9h-29q-16 0 -24 21l-123 223l-178 -223q-14 -20 -25 -21h-33q-16 0 -15 8q0 5 5 13z" />
<glyph unicode="&#x2c7;" horiz-adv-x="741" d="M338 1518q-3 5 -3 9q0 9 17 9h31q12 0 23 -18l120 -224l176 224q18 18 29 18h33q12 0 12 -6q0 -4 -6 -12l-203 -258q-14 -18 -30 -19h-27q-16 0 -29 21z" />
<glyph unicode="&#x2d8;" horiz-adv-x="841" d="M346 1389q0 18 2 38l4 54q4 18 19 18h24q23 0 15 -18l-4 -54v-36q0 -63 34.5 -94t124.5 -31q106 0 144.5 47t46.5 141l2 27q0 18 22 18h23q16 0 16 -18l-2 -27q-16 -123 -69.5 -181.5t-190.5 -58.5q-113 0 -162 43.5t-49 131.5z" />
<glyph unicode="&#x2d9;" horiz-adv-x="509" d="M377 1300l20 162q2 20 23 21h37q16 0 14 -21l-20 -162q-2 -20 -19 -20h-35q-22 0 -20 20z" />
<glyph unicode="&#x2da;" horiz-adv-x="667" d="M256 1337q0 29 2 58l2 18q16 139 207 139q84 0 129 -36.5t45 -94.5q0 -18 -2 -41l-4 -34q-18 -131 -207 -132q-86 0 -129 34t-43 89zM309 1346q0 -84 123 -84q145 0 152 88l2 26q2 20 2 37q0 90 -125 90q-141 0 -152 -94l-2 -27v-36z" />
<glyph unicode="&#x2db;" horiz-adv-x="483" d="M100 -182q0 133 170 219q13 6 21 6q5 0 8 -2l23 -14q18 -16 0 -23q-154 -68 -154 -178q0 -86 123 -86h51q12 0 17.5 -4t2.5 -15l-2 -20q0 -20 -20 -20h-61q-179 0 -179 137z" />
<glyph unicode="&#x2dc;" horiz-adv-x="931" d="M350 1292l4 33q14 96 49 137t99 41q57 0 106 -51l84 -84q37 -37 70 -37q43 0 62.5 26.5t29.5 104.5l2 23q2 18 21 18h22q16 0 14 -20l-4 -31q-12 -100 -48 -140t-99 -40q-57 0 -107 51l-86 84q-37 37 -67 37q-43 0 -60.5 -26.5t-31.5 -104.5l-4 -23q-2 -18 -21 -18h-22 q-15 0 -13 20z" />
<glyph unicode="&#x2dd;" horiz-adv-x="747" d="M326 1262l168 256q10 18 26 18h35q23 0 12 -18l-178 -256q-14 -20 -29 -21h-26q-11 0 -11 9q0 5 3 12zM485 1262l199 256q14 18 33 18h35q12 0 12 -6q0 -4 -6 -12l-209 -261q-14 -16 -29 -16h-24q-14 0 -14 9q0 5 3 12z" />
<glyph unicode="&#x394;" horiz-adv-x="792" d="M188 512v328q0 45 43 45h332q43 0 43 -45v-328q0 -45 -43 -45h-332q-43 0 -43 45z" />
<glyph unicode="&#x3a9;" horiz-adv-x="792" d="M150 674.5q0 101.5 72.5 174.5t173 73t174 -73t73.5 -173.5t-72.5 -173t-175.5 -72.5q-100 0 -172.5 71.5t-72.5 173zM186 676q0 -90 61.5 -150.5t147.5 -60.5t148.5 60.5t62.5 150.5q0 86 -62.5 147.5t-148.5 61.5t-147.5 -61.5t-61.5 -147.5z" />
<glyph unicode="&#x3bc;" horiz-adv-x="1114" d="M129 -436l182 1483q2 18 23 18h33q20 0 18 -18l-96 -768q-6 -45 -6 -64q0 -168 215 -168q195 0 372 135l107 865q4 18 22 18h33q18 0 17 -18l-129 -1027q-4 -20 -19 -20h-29q-16 0 -16 20l6 97q-168 -133 -385 -133q-172 0 -219 102l-57 -522q-6 -20 -21 -21h-35 q-20 1 -16 21z" />
<glyph unicode="&#x3c0;" horiz-adv-x="792" d="M145 913h498q14 0 22 -10q5 -7 5 -16q0 -4 -1 -8q-3 -14 -12 -31l-229 -375q-10 -17 -29 -17h-3q-22 1 -31 17l-232 375q-14 19 -14 37q0 28 26 28z" />
<glyph unicode="&#x1e80;" horiz-adv-x="1691" d="M240 1456q-2 20 18 21h35q16 0 20 -21l158 -1186q14 -121 14 -145l54 145l446 1186q6 20 27 21h35q16 0 18 -21l158 -1186q14 -104 14 -141q27 78 53 141l447 1186q6 20 26 21h35q13 0 13 -10q0 -4 -3 -11l-540 -1436q-6 -20 -27 -20h-37q-18 0 -22 20l-158 1201 q-12 109 -12 125l-43 -125l-455 -1201q-6 -20 -27 -20h-36q-20 0 -23 20zM846 1886q-2 6 -3 10q0 10 15 11h39q14 0 23 -17l135 -262q2 -4 1 -8q0 -9 -12 -8h-28q-16 0 -25 10z" />
<glyph unicode="&#x1e81;" horiz-adv-x="1347" d="M174 1047q-4 18 16 18h37q16 0 21 -18l125 -863l12 -82q10 37 27 82l344 863q6 18 26 18h47q16 0 19 -18l125 -863l8 -78l29 78l342 863q8 18 24 18h35q14 0 14 -8q0 -4 -4 -10l-411 -1027q-6 -20 -25 -20h-39q-12 0 -16 20l-129 859q-8 66 -8 96q-2 -2 -18.5 -46 t-20.5 -52l-348 -857q-10 -20 -23 -20h-41q-12 0 -16 20zM618 1518q-3 6 -3 9q0 9 16 9h41q14 0 22 -14l133 -262q4 -7 4 -11q0 -8 -12 -8h-31q-18 0 -22 12z" />
<glyph unicode="&#x1e82;" horiz-adv-x="1691" d="M240 1456q-2 20 18 21h35q16 0 20 -21l158 -1186q14 -121 14 -145l54 145l446 1186q6 20 27 21h35q16 0 18 -21l158 -1186q14 -104 14 -141q27 78 53 141l447 1186q6 20 26 21h35q13 0 13 -10q0 -4 -3 -11l-540 -1436q-6 -20 -27 -20h-37q-18 0 -22 20l-158 1201 q-12 109 -12 125l-43 -125l-455 -1201q-6 -20 -27 -20h-36q-20 0 -23 20zM1014 1628l200 262q10 16 25 17h41q14 0 14 -8q0 -5 -6 -13l-211 -264q-12 -10 -22 -10h-35q-11 0 -11 6q0 3 5 10z" />
<glyph unicode="&#x1e83;" horiz-adv-x="1347" d="M174 1047q-4 18 16 18h37q16 0 21 -18l125 -863l12 -82q10 37 27 82l344 863q6 18 26 18h47q16 0 19 -18l125 -863l8 -78l29 78l342 863q8 18 24 18h35q14 0 14 -8q0 -4 -4 -10l-411 -1027q-6 -20 -25 -20h-39q-12 0 -16 20l-129 859q-8 66 -8 96q-2 -2 -18.5 -46 t-20.5 -52l-348 -857q-10 -20 -23 -20h-41q-12 0 -16 20zM786 1260l201 262q12 14 25 14h43q13 0 13 -6q0 -4 -7 -12l-209 -265q-12 -12 -23 -12h-34q-13 0 -13 7q-1 5 4 12z" />
<glyph unicode="&#x1e84;" horiz-adv-x="1691" d="M240 1456q-2 20 18 21h35q16 0 20 -21l158 -1186q14 -121 14 -145l54 145l446 1186q6 20 27 21h35q16 0 18 -21l158 -1186q14 -104 14 -141q27 78 53 141l447 1186q6 20 26 21h35q13 0 13 -10q0 -4 -3 -11l-540 -1436q-6 -20 -27 -20h-37q-18 0 -22 20l-158 1201 q-12 109 -12 125l-43 -125l-455 -1201q-6 -20 -27 -20h-36q-20 0 -23 20zM903 1651l27 215q2 16 20 16h25q16 0 14 -16l-24 -215q-2 -20 -23 -21h-22q-19 1 -17 21zM1094 1651l26 215q2 16 23 16h22q18 0 17 -16l-25 -215q-2 -20 -22 -21h-23q-20 1 -18 21z" />
<glyph unicode="&#x1e85;" horiz-adv-x="1347" d="M174 1047q-4 18 16 18h37q16 0 21 -18l125 -863l12 -82q10 37 27 82l344 863q6 18 26 18h47q16 0 19 -18l125 -863l8 -78l29 78l342 863q8 18 24 18h35q14 0 14 -8q0 -4 -4 -10l-411 -1027q-6 -20 -25 -20h-39q-12 0 -16 20l-129 859q-8 66 -8 96q-2 -2 -18.5 -46 t-20.5 -52l-348 -857q-10 -20 -23 -20h-41q-12 0 -16 20zM688 1288l27 215q2 18 20 19h25q16 0 14 -19l-24 -215q-2 -20 -23 -20h-22q-19 0 -17 20zM879 1288l26 215q2 18 23 19h22q18 0 17 -19l-27 -215q-2 -20 -22 -20h-21q-20 0 -18 20z" />
<glyph unicode="&#x1ef2;" horiz-adv-x="1087" d="M229 1456q-2 5 -2 9q0 12 19 12h41q14 0 22 -21l297 -706q16 -49 21 -66q2 10 35 66l471 706q16 20 28 21h39q16 0 16 -9q0 -5 -6 -12l-555 -833l-73 -603q-4 -20 -19 -20h-35q-25 0 -20 20l74 596zM539 1886q-3 6 -3 11q0 10 13 10h39q16 0 24 -17l136 -262q2 -4 1 -7 q0 -9 -14 -9h-26q-18 0 -25 10z" />
<glyph unicode="&#x1ef3;" horiz-adv-x="884" d="M178 1047q-4 18 15 18h36q18 0 21 -18l188 -852l19 -95q16 49 37 95l397 852q8 18 22 18h35q18 0 19 -10q0 -3 -2 -8l-689 -1483q-10 -20 -26 -21h-31q-25 0 -12 21l201 438zM383 1518q-3 6 -3 9q0 9 15 9h39q16 0 25 -14l131 -262q5 -7 4 -12q0 -7 -12 -7h-31 q-16 0 -21 12z" />
<glyph unicode="&#x2000;" horiz-adv-x="1044" />
<glyph unicode="&#x2001;" horiz-adv-x="2091" />
<glyph unicode="&#x2002;" horiz-adv-x="1044" />
<glyph unicode="&#x2003;" horiz-adv-x="2091" />
<glyph unicode="&#x2004;" horiz-adv-x="696" />
<glyph unicode="&#x2005;" horiz-adv-x="522" />
<glyph unicode="&#x2006;" horiz-adv-x="348" />
<glyph unicode="&#x2007;" horiz-adv-x="348" />
<glyph unicode="&#x2008;" horiz-adv-x="260" />
<glyph unicode="&#x2009;" horiz-adv-x="417" />
<glyph unicode="&#x200a;" horiz-adv-x="114" />
<glyph unicode="&#x2010;" horiz-adv-x="1013" d="M268 616v25q0 18 21 18h583q18 0 19 -18v-25q0 -18 -19 -18h-583q-21 0 -21 18z" />
<glyph unicode="&#x2011;" horiz-adv-x="1013" d="M268 616v25q0 18 21 18h583q18 0 19 -18v-25q0 -18 -19 -18h-583q-21 0 -21 18z" />
<glyph unicode="&#x2012;" horiz-adv-x="1013" d="M268 616v25q0 18 21 18h583q18 0 19 -18v-25q0 -18 -19 -18h-583q-21 0 -21 18z" />
<glyph unicode="&#x2013;" horiz-adv-x="1200" d="M268 616v25q0 18 21 18h768q20 0 20 -18v-25q0 -18 -20 -18h-768q-21 0 -21 18z" />
<glyph unicode="&#x2014;" horiz-adv-x="1869" d="M268 616v25q0 18 21 18h1440q18 0 18 -18v-25q0 -18 -18 -18h-1440q-21 0 -21 18z" />
<glyph unicode="&#x2018;" horiz-adv-x="454" d="M319 1196l17 127q20 166 190 227q4 2 8 2q8 0 13 -10l8 -26q2 -5 2 -10q0 -11 -14 -17q-68 -31 -96.5 -70t-38.5 -100l-15 -123q-2 -18 -22 -18h-35q-19 0 -17 18z" />
<glyph unicode="&#x2019;" horiz-adv-x="454" d="M229 1214q-1 4 -1 8q0 11 16 17q68 31 96.5 70t36.5 100l16 123q2 20 21 20h35q20 0 18 -20l-18 -125q-18 -168 -189 -227q-5 -3 -9 -3q-8 0 -11 11z" />
<glyph unicode="&#x201a;" horiz-adv-x="454" d="M57 -135q-2 5 -2 10q0 11 15 16q68 31 96.5 70t38.5 100l14 123q2 20 23 21h34q18 0 17 -21l-17 -125q-20 -168 -190 -229q-4 -2 -7 -2q-9 0 -13 12z" />
<glyph unicode="&#x201c;" horiz-adv-x="718" d="M319 1196l17 127q20 166 190 227q4 2 8 2q8 0 13 -10l8 -26q8 -18 -12 -27q-68 -31 -96.5 -70t-38.5 -100l-15 -123q-2 -18 -22 -18h-35q-19 0 -17 18zM586 1196l18 127q18 166 189 227q4 2 8 2q9 0 14 -10l8 -26l2 -8q0 -12 -16 -19q-66 -31 -95.5 -70t-37.5 -100 l-17 -123q-4 -18 -20 -18h-35q-22 0 -18 18z" />
<glyph unicode="&#x201d;" horiz-adv-x="718" d="M229 1214q-1 4 -1 8q0 11 16 17q68 31 96.5 70t36.5 100l16 123q2 20 21 20h35q20 0 18 -20l-18 -125q-18 -168 -189 -227q-5 -3 -9 -3q-8 0 -11 11zM498 1214q-2 4 -2 8q0 11 14 17q68 31 97.5 70t37.5 100l14 123q4 20 23 20h35q20 0 16 -20l-16 -125 q-20 -168 -189 -227q-5 -3 -9 -3q-9 0 -13 11z" />
<glyph unicode="&#x201e;" horiz-adv-x="718" d="M57 -135q-2 5 -2 10q0 11 15 16q68 31 96.5 70t38.5 100l14 123q2 20 23 21h34q18 0 17 -21l-17 -125q-20 -168 -190 -229q-4 -2 -7 -2q-9 0 -13 12zM324 -135q-2 5 -2 8q0 12 14 18q68 31 97.5 70t37.5 100l14 123q6 20 23 21h35q18 0 17 -13q0 -3 -1 -8l-16 -125 q-20 -168 -189 -229q-4 -2 -8 -2q-10 0 -14 12z" />
<glyph unicode="&#x2020;" horiz-adv-x="1134" d="M346 1026l4 27q2 20 19 20h233q16 0 16 -20v-27q0 -16 -20 -16h-233q-10 0 -17 4q-4 2 -4 6q0 3 2 6zM535 20l180 1477q2 20 22 21h33q20 0 18 -21l-182 -1477q-2 -20 -22 -20h-33q-20 0 -16 20zM766 1026l2 27q4 20 20 20h234q20 0 18 -20l-2 -27q0 -16 -20 -16h-232 q-20 0 -20 16z" />
<glyph unicode="&#x2021;" horiz-adv-x="1134" d="M279 467l2 27q0 18 18 18h236q20 0 16 -18l-2 -27q0 -20 -19 -21h-233q-18 1 -18 21zM348 1026l2 27q2 20 21 20h233q20 0 17 -20l-3 -27q0 -16 -18 -16h-233q-19 0 -19 16zM537 20l180 1477q4 20 20 21h35q23 0 19 -21l-183 -1477q-4 -20 -22 -20h-35q-16 0 -14 20z M698 467l2 27q0 18 21 18h233q18 0 19 -18l-2 -27q0 -20 -21 -21h-233q-19 1 -19 21zM768 1026l2 27q0 20 21 20h233q18 0 18 -20l-2 -27q0 -16 -20 -16h-232q-20 0 -20 16z" />
<glyph unicode="&#x2022;" horiz-adv-x="516" d="M274 428l29 260q6 20 23 21h34q16 0 17 -21l-31 -260q-4 -20 -22 -20h-35q-16 0 -16 12q0 3 1 8z" />
<glyph unicode="&#x2026;" horiz-adv-x="1515" d="M186 20l21 164q4 20 20 21h37q18 0 17 -21l-21 -164q-4 -20 -18 -20h-35q-23 0 -21 20zM725 20l20 164q4 20 21 21h37q18 0 16 -21l-20 -164q-4 -20 -19 -20h-35q-22 0 -20 20zM1262 20l18 164q6 20 23 21h36q16 0 16 -12q0 -4 -1 -9l-19 -164q-2 -20 -20 -20h-35 q-20 0 -18 20z" />
<glyph unicode="&#x202f;" horiz-adv-x="417" />
<glyph unicode="&#x2030;" horiz-adv-x="2224" d="M324 1024q0 18 4 45l28 236q20 184 289 184q248 0 248 -156q0 -27 -2 -43l-29 -235q-10 -88 -75.5 -136.5t-213.5 -48.5q-249 0 -249 154zM389 1034q0 -109 191 -108q203 0 217 129l28 235q2 12 2 33q0 111 -186 111q-205 0 -219 -131l-31 -244v-8q-2 -9 -2 -17zM428 20 l813 1436q10 20 29 21h35q20 0 8 -21l-813 -1436q-8 -20 -29 -20h-35q-12 0 -12 8q0 5 4 12zM852 137q0 16 4 43l27 238q23 184 288 184q248 0 248 -158q0 -25 -2 -43l-28 -233q-10 -90 -75 -137t-214 -47q-248 -1 -248 153zM915 145q0 -109 193 -108q201 0 217 131l27 233 q2 12 2 33q0 111 -187 111q-203 0 -219 -131l-30 -242q0 -2 -1.5 -11.5t-1.5 -15.5zM1507 137q0 16 4 43l29 238q20 184 289 184q246 0 246 -158q0 -25 -2 -43l-27 -233q-12 -90 -76.5 -137t-212.5 -47q-250 -1 -250 153zM1571 145q0 -109 192 -108q201 0 217 131l27 233 q4 12 4 33q0 111 -188 111q-203 0 -219 -131l-31 -242q0 -2 -1 -11.5t-1 -15.5z" />
<glyph unicode="&#x2039;" horiz-adv-x="890" d="M246 518l4 29q2 18 20 28l443 308q4 6 9 6q2 0 4 -1q7 -3 5 -14l-6 -40q-2 -14 -23 -31l-391 -271l326 -270q16 -16 14 -29l-4 -43q-2 -8 -9 -10q-2 -1 -4 0q-4 0 -7 2l-369 312q-14 14 -12 24z" />
<glyph unicode="&#x203a;" horiz-adv-x="890" d="M248 190l6 41q2 16 22 31l392 273l-326 268q-16 18 -14 28l4 43q2 8 9 12q2 1 4 1q4 0 7 -4l369 -310q14 -16 12 -26l-4 -29q-2 -16 -20 -26l-443 -310q-5 -5 -10 -4h-3q-7 2 -5 12z" />
<glyph unicode="&#x2044;" horiz-adv-x="933" d="M115 20l815 1436q8 20 26 21h35q14 0 14 -9q0 -5 -4 -12l-815 -1436q-8 -20 -28 -20h-35q-12 0 -12 8q0 5 4 12z" />
<glyph unicode="&#x205f;" horiz-adv-x="522" />
<glyph unicode="&#x20ac;" horiz-adv-x="1167" d="M150 606v17q0 20 22 20h182l23 195h-182q-18 0 -17 18l2 16q2 20 23 21h182l39 305q16 139 118.5 217t340.5 78q397 0 397 -250q0 -29 -2 -47l-14 -113q-4 -20 -21 -20h-35q-18 0 -16 20l12 107q2 12 2 41q0 197 -327 196q-197 0 -283 -61t-100 -176l-37 -297h344 q18 0 18 -21v-16q0 -18 -24 -18h-346l-23 -195h344q23 0 19 -20l-3 -17q-2 -18 -20 -18h-346l-37 -299q-2 -14 -2 -43q0 -199 326 -199q197 0 283.5 62.5t101.5 177.5l18 133q2 16 18 16h35q23 0 19 -16l-19 -141q-16 -139 -119.5 -217t-343.5 -78q-397 0 -397 243 q0 18 6 54l37 307h-180q-18 0 -18 18z" />
<glyph unicode="&#x2113;" horiz-adv-x="1081" d="M63 461q-2 4 -1 8q0 10 12 16l22 11q20 6 51 18l71 28q40 15 91 39l99 46l69 557q18 141 91 218t237 77q279 0 278 -228q0 -23 -4 -69q-31 -309 -604 -594l-39 -322q-2 -12 -2 -37q0 -166 271 -166h192q18 0 16 -20l-2 -23q-4 -20 -20 -20h-191q-340 0 -340 215 q0 27 2 37l35 301l-92 -43q-47 -23 -83 -36t-63.5 -24.5t-44 -17.5t-18.5 -6q-20 -6 -24 8zM483 664q498 256 527 518q4 39 4 57q0 176 -213 176q-129 0 -182.5 -59.5t-69.5 -175.5z" />
<glyph unicode="&#x2122;" horiz-adv-x="1904" d="M334 1436l2 24q0 16 18 17h584q16 0 14 -17l-2 -24q0 -16 -16 -17h-260l-103 -813q0 -16 -16 -16h-35q-14 0 -14 16l100 813h-254q-18 1 -18 17zM956 606l105 854q4 16 18 17h31q8 0 12 -17l213 -614l13 -51q16 31 28 51l357 616q6 14 18 15h35q14 0 14 -17l-106 -854 q0 -16 -17 -16h-32q-14 0 -15 16l90 733l-26 -51l-316 -549q-10 -14 -24 -14h-27q-12 0 -20 14l-187 553l-10 49l-92 -735q0 -16 -14 -16h-33q-15 0 -15 16z" />
<glyph unicode="&#x2126;" horiz-adv-x="792" d="M150 674.5q0 101.5 72.5 174.5t173 73t174 -73t73.5 -173.5t-72.5 -173t-175.5 -72.5q-100 0 -172.5 71.5t-72.5 173zM186 676q0 -90 61.5 -150.5t147.5 -60.5t148.5 60.5t62.5 150.5q0 86 -62.5 147.5t-148.5 61.5t-147.5 -61.5t-61.5 -147.5z" />
<glyph unicode="&#x212e;" horiz-adv-x="1806" d="M221 737.5q0 313.5 221.5 534.5t534.5 221q311 0 533.5 -221t222.5 -535q0 -35 -33 -35h-1303v-372q96 -141 248 -224t332 -83q315 0 541 243q10 12 22 12.5t12 -16.5q0 -10 -16 -31q-98 -115 -245.5 -181t-313.5 -66q-313 0 -534.5 220t-221.5 533.5zM397 739h1164v396 q-98 145 -251 231t-333 86q-178 0 -329.5 -83t-250.5 -224v-406z" />
<glyph unicode="&#x2202;" horiz-adv-x="792" d="M190 432v498q0 20 20.5 23t43.5 -9l375 -231q18 -12 19 -33t-19 -31l-375 -229q-14 -10 -28.5 -13.5t-25 4t-10.5 21.5z" />
<glyph unicode="&#x2206;" horiz-adv-x="792" d="M188 512v328q0 45 43 45h332q43 0 43 -45v-328q0 -45 -43 -45h-332q-43 0 -43 45z" />
<glyph unicode="&#x220f;" horiz-adv-x="792" d="M124 481q0 17 11 31l232 377q10 16 30.5 16t30.5 -16l231 -377q8 -12 12 -27q1 -5 1 -9q0 -9 -4 -16q-6 -11 -21 -11h-497q-26 0 -26 32z" />
<glyph unicode="&#x2211;" horiz-adv-x="792" d="M166 713l375 231q14 8 28 10q4 1 7 1q10 0 18 -5q10 -6 10 -20v-498q0 -14 -10 -21q-7 -5 -16 -5q-4 0 -9 1q-14 3 -28 13l-375 229q-20 10 -20 29q0 22 20 35z" />
<glyph unicode="&#x2212;" horiz-adv-x="1284" d="M285 721v24q0 18 18 19h854q20 0 21 -19v-24q0 -20 -21 -21h-854q-18 1 -18 21z" />
<glyph unicode="&#x221a;" horiz-adv-x="792" d="M170 512v328q0 63 61 63h332q61 0 62 -63v-328q0 -63 -62 -63h-332q-61 0 -61 63zM207 512q0 -27 24 -27h332q25 0 25 27v328q0 29 -25 28h-332q-25 0 -24 -28v-328z" />
<glyph unicode="&#x221e;" horiz-adv-x="792" d="M96 678q0 12 25 43l231 231q18 23 45 23t45 -23l232 -231q23 -29 22 -43q0 -18 -22 -47l-232 -232q-20 -25 -44.5 -24.5t-45.5 24.5l-231 232q-25 31 -25 47zM137 678q0 -12 8 -21l236 -231q10 -12 16 -12t17 12l235 231q8 8 8 21q0 8 -8 16l-235 236q-8 8 -16.5 8 t-16.5 -8l-236 -236q-8 -8 -8 -16z" />
<glyph unicode="&#x222b;" horiz-adv-x="792" d="M70 675q0 136 94 232.5t231 96.5t233.5 -97.5t96.5 -230.5q0 -137 -96.5 -231.5t-233.5 -94.5t-231 94.5t-94 230.5z" />
<glyph unicode="&#x2248;" horiz-adv-x="1032" d="M256 444v33q6 182 133 182q45 0 109 -38l176 -105q55 -31 88 -31q45 0 59.5 28t14.5 105v23q0 16 20 16h21q18 0 18 -18v-35q-6 -182 -129 -182q-49 0 -117 41l-178 106q-47 25 -78 25q-45 0 -61.5 -26.5t-16.5 -104.5v-21q0 -18 -22 -18h-19q-18 0 -18 20zM256 756v32 q6 182 133 183q45 0 109 -39l176 -105q55 -31 88 -30q45 0 59.5 27.5t14.5 105.5v20q0 18 20 19h21q18 0 18 -21v-35q-6 -182 -129 -182q-49 0 -117 41l-178 107q-47 27 -78 26q-45 0 -61.5 -26.5t-16.5 -106.5v-18q0 -20 -22 -21h-19q-18 0 -18 23z" />
<glyph unicode="&#x2260;" horiz-adv-x="1284" d="M260 543v26q0 16 21 17h329l115 291h-444q-20 0 -21 20v23q0 20 21 20h471l65 166q6 18 25 18h30q23 0 13 -18l-64 -166h312q20 0 20 -20v-23q0 -20 -20 -20h-338l-115 -291h453q20 0 20 -17v-26q0 -20 -20 -21h-478l-65 -164q-8 -20 -27 -20h-31q-20 0 -12 20l66 164 h-305q-21 1 -21 21z" />
<glyph unicode="&#x2264;" horiz-adv-x="1187" d="M233 840v39q0 12 21 22l760 307q6 3 11 4q10 0 9 -16v-37q0 -12 -20 -22l-703 -277l703 -278q20 -8 20 -23v-37q0 -20 -20 -12l-760 309q-21 11 -21 21zM238 315v23q0 20 18 20h758q20 0 20 -20v-23q0 -20 -20 -20h-758q-18 0 -18 20z" />
<glyph unicode="&#x2265;" horiz-adv-x="1187" d="M231 315v23q0 20 21 20h758q18 0 18 -20v-23q0 -20 -18 -20h-758q-21 0 -21 20zM231 522v37q0 18 21 25l702 276l-702 277q-20 8 -21 22v37q0 17 11 17q4 0 10 -3l760 -309q20 -8 20 -22v-39q0 -12 -20 -21l-760 -309q-6 -2 -10 -2q-11 -1 -11 14z" />
<glyph unicode="&#x25ca;" horiz-adv-x="792" d="M117 678q0 12 18 31l232 231q16 14 30.5 14t30.5 -14l231 -231q18 -18 19 -31q0 -16 -19 -33l-231 -233q-18 -16 -30.5 -16.5t-30.5 16.5l-232 233q-18 17 -18 33z" />
<glyph unicode="&#xe000;" horiz-adv-x="1065" d="M0 1065h1065v-1065h-1065v1065z" />
<glyph horiz-adv-x="0" />
<glyph horiz-adv-x="528" d="M141 -88l46 76q13 23 26.5 59.5t17.5 81.5l9 55q2 20 20 21h29q16 0 16 -12q0 -4 -2 -9l-6 -59q-4 -47 -23.5 -93t-34 -70.5t-46.5 -72.5q-10 -11 -20 -11l-5 1l-23 6q-8 5 -8 13q0 6 4 14z" />
<glyph horiz-adv-x="524" d="M123 1628l201 262q10 16 26 17h41q12 0 12 -7q0 -5 -6 -14l-211 -264q-10 -10 -20 -10h-35q-13 0 -13 6q0 4 5 10z" />
<glyph horiz-adv-x="524" d="M-43 1726l2 21q0 18 21 18h571q18 0 18 -16l-2 -23q0 -20 -22 -20h-570q-18 0 -18 20z" />
<glyph horiz-adv-x="524" d="M25 1800q0 16 2 39l4 53q2 18 20 19h25q18 0 16 -19l-6 -53q-2 -16 -2 -35q0 -68 35 -97.5t125 -29.5q106 0 144 46t46 143l2 26q2 18 23 19h22q16 0 17 -19l-2 -24q-16 -125 -68.5 -184.5t-187.5 -59.5q-117 0 -166 43t-49 133z" />
<glyph horiz-adv-x="524" d="M43 1886q-3 6 -3 10q0 10 17 11h29q12 0 23 -21l120 -223l179 223q14 20 28 21h33q13 0 13 -7q0 -5 -7 -14l-205 -258q-12 -16 -28 -16h-27q-20 0 -31 18z" />
<glyph horiz-adv-x="524" d="M70 1700q0 29 2 57l2 19q14 139 207 139q84 0 129 -37t45 -94q0 -18 -4 -41l-5 -35q-16 -131 -204 -131q-86 0 -129 34t-43 89zM121 1708q0 -84 125 -84q145 0 151 88l2 27q2 20 2 37q0 90 -125 90q-141 0 -153 -94l-2 -27v-37z" />
<glyph horiz-adv-x="524" d="M45 1630l203 256q14 20 33 21h28q14 0 25 -19l143 -258q3 -6 4 -10q0 -8 -14 -8h-29q-14 0 -28 18l-119 223l-178 -223q-14 -18 -27 -18h-33q-14 0 -14 7q0 4 6 11z" />
<glyph horiz-adv-x="524" d="M-20 1669l6 33q12 98 48 138t99 40q55 0 107 -49l84 -86q37 -37 69 -37q43 0 62.5 27.5t27.5 105.5l2 21q2 18 25 18h20q16 0 15 -20l-4 -31q-12 -98 -48 -138t-100 -40q-57 0 -106 49l-86 84q-43 37 -68 37q-45 0 -62.5 -26t-29.5 -103l-4 -25q-2 -18 -23 -18h-18 q-20 0 -16 20z" />
<glyph horiz-adv-x="524" d="M121 1651l26 215q2 16 23 16h23q18 0 16 -16l-27 -215q-2 -20 -22 -21h-21q-20 1 -18 21zM313 1651l25 215q2 16 22 16h25q16 0 14 -16l-24 -215q-2 -20 -21 -21h-24q-19 1 -17 21z" />
<glyph horiz-adv-x="524" d="M217 1655l21 164q4 20 18 20h37q20 0 18 -20l-20 -164q-2 -18 -21 -19h-37q-18 1 -16 19z" />
<glyph horiz-adv-x="524" d="M158 1886q-3 6 -4 11q0 10 16 10h39q16 0 22 -17l136 -262q2 -4 1 -8q0 -9 -12 -8h-28q-16 0 -25 10z" />
<glyph horiz-adv-x="524" d="M43 1630l168 256q10 20 31 21h32q18 0 9 -21l-174 -256q-12 -18 -29 -18h-29q-11 0 -11 8q0 4 3 10zM207 1630l196 256q10 20 33 21h35q10 0 10 -8q0 -5 -4 -13l-209 -260q-14 -14 -24 -14h-31q-11 0 -11 6q0 5 5 12z" />
<glyph horiz-adv-x="3237" d="M164 549q0 59 40 103t109 44q41 0 64.5 -20.5t23.5 -46.5q0 -51 -53 -70q-35 -12 -96 -12q4 -47 57 -47q37 0 68 18q18 -10 18 -35q0 -8 -5 -17t-30.5 -20.5t-66.5 -11.5q-61 0 -95 32t-34 83zM172 0v16h2904v-16h-2904zM172 1149v16h2904v-16h-2904zM250 573q80 0 80 46 q0 29 -29 28q-43 0 -51 -74zM434 680q51 16 70 16q25 0 24 -18v-88q6 20 15.5 41.5t33 43t48.5 21.5q63 0 63 -69v-37q31 106 98 106q59 0 60 -69v-107l8 -69q-53 -16 -68 -17q-25 0 -24 17v143q0 35 -16.5 35t-38 -38t-19.5 -65l4 -75q-51 -16 -67 -17q-23 0 -23 17v143 q0 35 -18 35q-14 0 -35 -38t-21 -65l7 -75q-53 -16 -70 -17q-25 0 -25 17v151zM836 717v8q0 43 26 43h37l-6 66q51 18 70 18q23 0 22 -18v-64h102v-6q0 -45 -26 -45h-76v-187q0 -35 29 -34q20 0 41.5 17t21.5 38v55l-6 72q51 16 68 16q25 0 24 -18v-143q0 -33 15.5 -33 t36 38t20.5 66l-4 74q51 16 67 16q25 0 25 -18v-215l53 6v133l-6 78q51 16 70 16q23 0 22 -18v-88q37 104 103 104q37 0 62.5 -28.5t25.5 -81.5q0 -147 -191 -148v-86l8 -69q-53 -18 -69 -19q-25 0 -25 19v161l-53 -6v-6q0 -172 -149 -172q-45 0 -67 22.5t-22 51.5 q0 78 152 114v93q-37 -104 -100 -105q-59 0 -60 68v6q-41 -72 -114 -72q-63 0 -64 66v219zM1147 352q0 -31 31 -30q53 0 57 100q-88 -21 -88 -70zM1462 475q98 12 99 111q0 43 -28 43t-49.5 -40t-21.5 -63v-51zM1679 549q0 59 41 103t111 44q41 0 64.5 -20.5t23.5 -46.5 q0 -51 -53 -70q-35 -12 -97 -12q4 -47 56 -47q37 0 69 18q18 -10 19 -35q0 -8 -5 -17t-31 -20.5t-67 -11.5q-61 0 -96 32t-35 83zM1767 573q80 0 80 46q0 29 -28 28q-44 0 -52 -74zM1952 490.5q0 21.5 15 37t39 15.5t40 -15.5t16 -37t-16 -36t-40 -14.5t-39 14.5t-15 36z M2093 680q51 16 70 16q23 0 22 -18v-88q37 106 99 106q63 0 63 -69v-107l4 -69q-51 -16 -67 -17q-25 0 -25 17v147q0 31 -16 31q-14 0 -36 -38t-22 -65l8 -75q-53 -16 -69 -17q-25 0 -25 17v151zM2382 549q0 59 40 103t109 44q41 0 64.5 -20.5t23.5 -46.5q0 -51 -53 -70 q-35 -12 -96 -12q4 -47 57 -47q37 0 70 18q16 -10 16 -35q0 -8 -5 -17t-29.5 -20.5t-67.5 -11.5q-59 0 -94 32t-35 83zM2468 573q80 0 80 46q0 29 -27 28q-45 0 -53 -74zM2593 717v8q0 43 24 43h37l-6 66q53 18 70 18q25 0 24 -18v-64h103v-6q0 -45 -27 -45h-76v-197 q0 -31 35 -30q23 0 83 11t101 11q37 0 86.5 -13.5t49.5 -37.5q0 -31 -21.5 -46.5t-38.5 -15.5q-4 0 -57 27t-96 27q-16 0 -70.5 -9.5t-95.5 -9.5t-50.5 28t-11.5 142q0 70 -2 115z" />
</font>
</defs>
</svg>
