<?xml version="1.0" standalone="no"?>
<!DOCTYPE svg PUBLIC "-//W3C//DTD SVG 1.1//EN" "http://www.w3.org/Graphics/SVG/1.1/DTD/svg11.dtd" >
<svg xmlns="http://www.w3.org/2000/svg">
<metadata>
This is a custom SVG webfont generated by Font Squirrel.
Copyright   : Copyright c 2009 by Eduardo Manso All rights reserved
Designer    : Eduardo Manso
Foundry     : Eduardo Manso
Foundry URL : httpwwwemtypenet
</metadata>
<defs>
<font id="GeogrotesqueRegular" horiz-adv-x="1136" >
<font-face units-per-em="2048" ascent="1536" descent="-512" />
<missing-glyph horiz-adv-x="485" />
<glyph unicode="&#xfb00;" horiz-adv-x="1345" d="M70 977v51q0 31 30 33l119 8h19v176q0 281 405 281h12q33 0 33 -33v-61q0 -33 -33 -33h-12q-139 0 -196.5 -43t-57.5 -125v-162h485v186q0 276 406 277h14q31 0 31 -29v-65q0 -33 -31 -33h-14q-254 0 -254 -166v-170h236q33 0 32 -31v-61q0 -33 -32 -33h-236v-911 q0 -33 -33 -33h-88q-31 0 -31 33v911h-485v-911q0 -33 -31 -33h-90q-31 0 -30 33v911h-138q-30 0 -30 33z" />
<glyph unicode="&#xfb01;" horiz-adv-x="1185" d="M61 977v51q0 31 31 33l117 8h18v168q0 281 404 281h311q31 0 31 -33v-64q0 -33 -31 -32h-311q-254 0 -254 -166v-154h606q33 0 33 -33v-1003q0 -33 -31 -33h-88q-31 0 -31 33v911h-489v-911q0 -33 -29 -33h-90q-31 0 -31 33v911h-135q-31 0 -31 33z" />
<glyph unicode="&#xfb02;" horiz-adv-x="1185" d="M61 977v51q0 31 31 33l117 8h18v168q0 281 404 281h352q33 0 33 -33v-1452q0 -33 -31 -33h-88q-31 0 -31 33v1356h-235q-254 0 -254 -166v-154h237q33 0 33 -31v-61q0 -33 -33 -33h-237v-911q0 -33 -29 -33h-90q-31 0 -31 33v911h-135q-31 0 -31 33z" />
<glyph unicode="&#xfb03;" horiz-adv-x="1835" d="M70 977v51q0 31 30 33l119 8h19v176q0 281 405 281h12q33 0 33 -33v-61q0 -33 -33 -33h-12q-139 0 -196.5 -43t-57.5 -125v-162h485v168q0 281 406 281h309q33 0 33 -33v-64q0 -33 -33 -32h-309q-137 0 -195.5 -42t-58.5 -124v-154h604q35 0 35 -33v-1003q0 -33 -31 -33 h-88q-33 0 -33 33v911h-487v-911q0 -33 -33 -33h-86q-33 0 -33 33v911h-485v-911q0 -33 -31 -33h-90q-31 0 -30 33v911h-138q-30 0 -30 33z" />
<glyph unicode="&#xfb04;" horiz-adv-x="1835" d="M70 977v51q0 31 32 33l117 8h21v176q0 281 403 281h12q33 0 33 -33v-61q0 -33 -33 -33h-12q-139 0 -196.5 -43t-57.5 -125v-162h485v168q0 281 408 281h348q35 0 35 -33v-1452q0 -33 -31 -33h-86q-33 0 -32 33v1356h-234q-137 0 -196.5 -42t-59.5 -124v-154h238 q33 0 32 -31v-61q0 -33 -32 -33h-238v-911q0 -33 -33 -33h-86q-33 0 -33 33v911h-485v-911q0 -33 -31 -33h-90q-29 0 -28 33v911h-138q-32 0 -32 33z" />
<glyph unicode=" "  horiz-adv-x="485" />
<glyph unicode="&#x09;" horiz-adv-x="485" />
<glyph unicode="&#xa0;" horiz-adv-x="485" />
<glyph unicode="!" horiz-adv-x="550" d="M197 33v170q0 31 32 30h93q31 0 30 -30v-170q0 -33 -30 -33h-93q-32 0 -32 33zM197 846v598q0 33 30 33h97q31 0 30 -33v-598l-16 -461q0 -33 -29 -33h-65q-31 0 -31 33z" />
<glyph unicode="&#x22;" horiz-adv-x="796" d="M172 1444q0 33 33 33h86q31 0 31 -33l-13 -371q0 -33 -30 -33h-62q-33 0 -33 33zM473 1444q0 33 33 33h86q33 0 33 -33l-13 -371q0 -33 -32 -33h-62q-31 0 -31 33z" />
<glyph unicode="#" horiz-adv-x="1417" d="M180 508v47q0 31 31 31h178l66 237h-154q-33 0 -33 33v49q0 31 33 31h184l60 209q10 33 39 33h65q33 0 25 -33l-60 -209h330l60 209q10 33 38 33h66q31 0 22 -33l-57 -209h131q33 0 33 -31v-49q0 -33 -33 -33h-164l-65 -237h141q31 0 31 -31v-47q0 -33 -31 -33h-174 l-57 -205q-10 -33 -37 -32h-66q-35 0 -24 32l59 205h-334l-55 -205q-10 -33 -39 -32h-65q-35 0 -25 32l57 205h-145q-31 0 -31 33zM514 586h332l67 237h-331z" />
<glyph unicode="$" horiz-adv-x="1146" d="M178 430v57q0 31 31 31h80q29 0 28 -31v-51q0 -137 254 -137q123 0 189.5 36t66.5 101v80q0 82 -129 123l-333 111q-66 20 -117 76.5t-51 134.5v83q0 98 74.5 165t234.5 81v154q0 33 33 33h88q31 0 30 -33v-156q150 -16 221.5 -83.5t71.5 -160.5v-63q0 -29 -30 -29h-80 q-29 0 -29 29v63q0 135 -240 136q-238 0 -237 -136v-57q0 -84 110 -119l336 -108q186 -61 187 -207v-123q0 -94 -78 -159.5t-232 -82.5v-155q0 -33 -30 -33h-88q-33 0 -33 33v153q-166 10 -247 78t-81 166z" />
<glyph unicode="%" horiz-adv-x="1683" d="M180 1049v237q0 205 293 205t293 -205v-237q0 -207 -293 -207t-293 207zM305 1053q0 -106 168 -106.5t168 106.5v227q0 106 -168 106t-168 -106v-227zM440 11q-2 5 -1 9q0 7 3 13l660 1411q18 33 47 33h74q33 0 16 -33l-657 -1411q-14 -33 -45 -33h-78q-15 0 -19 11z M918 186v238q0 205 296 205q293 0 293 -205v-238q0 -207 -293 -206q-296 -1 -296 206zM1047 193q0 -109 167 -109q164 0 164 109v227q0 106 -164 106q-168 0 -167 -106v-227z" />
<glyph unicode="&#x26;" horiz-adv-x="1458" d="M186 293v239q0 102 44 163t159 89q-104 25 -145 84.5t-41 155.5v160q0 145 95 227t333 82q242 0 337 -84t95 -229v-50q0 -31 -31 -30h-90q-31 0 -31 30v29q0 102 -61.5 154.5t-218 52.5t-217 -52t-60.5 -155v-112q0 -104 60.5 -153.5t224.5 -49.5h698q33 0 33 -33v-63 q0 -31 -33 -31h-163v-420q0 -143 -117 -228t-377 -85q-494 0 -494 309zM338 317q0 -207 343 -206.5t343 206.5v400h-401q-162 0 -223.5 -49.5t-61.5 -153.5v-197z" />
<glyph unicode="'" horiz-adv-x="491" d="M172 1444q0 33 33 33h86q31 0 31 -33l-13 -371q0 -33 -30 -33h-62q-33 0 -33 33z" />
<glyph unicode="(" horiz-adv-x="768" d="M186 -193v1450q0 279 406 279h14q33 0 33 -31v-63q0 -33 -33 -33h-14q-135 0 -192.5 -42t-57.5 -126v-1419q0 -82 57.5 -125t192.5 -43h14q33 0 33 -31v-63q0 -33 -33 -33h-14q-406 -1 -406 280z" />
<glyph unicode=")" horiz-adv-x="768" d="M131 -377q0 31 33 31h10q137 0 194.5 43t57.5 125v1419q0 84 -57.5 126t-194.5 42h-10q-33 0 -33 33v63q0 31 33 31h10q406 0 406 -279v-1450q0 -281 -406 -280h-10q-33 0 -33 33v63z" />
<glyph unicode="*" horiz-adv-x="1105" d="M205 969q-6 10 -6 19q0 15 18 24l244 133l-244 135q-17 9 -17 25q0 8 5 18l20 43q16 29 43 10l244 -155l-10 288q0 33 30 33h48q31 0 30 -33l-12 -288l240 155q33 20 45 -10l20 -43q3 -8 3 -16q0 -16 -15 -27l-244 -135l244 -133q16 -10 16 -26q0 -8 -4 -17l-20 -41 q-12 -31 -45 -13l-238 156l10 -278q0 -33 -30 -33h-48q-31 0 -30 33l8 280l-242 -158q-27 -16 -43 15z" />
<glyph unicode="+" horiz-adv-x="1255" d="M172 702v66q0 33 33 33h358v358q0 35 29 35h65q31 0 31 -35v-358h365q33 0 32 -33v-66q0 -31 -32 -30h-365v-361q0 -31 -31 -30h-65q-29 0 -29 30v361h-358q-33 -1 -33 30z" />
<glyph unicode="," horiz-adv-x="477" d="M37 -119q-3 7 -3 13q0 18 23 28q59 27 83 59.5t24 88.5v133q0 31 29 30h94q31 0 30 -30v-140q0 -201 -219 -266q-7 -3 -13 -2q-18 0 -26 23z" />
<glyph unicode="-" horiz-adv-x="989" d="M172 598v61q0 31 33 31h581q33 0 33 -31v-61q0 -33 -33 -33h-581q-33 0 -33 33z" />
<glyph unicode="." horiz-adv-x="479" d="M164 33v170q0 31 31 30h92q31 0 30 -30v-170q0 -33 -30 -33h-92q-31 0 -31 33z" />
<glyph unicode="/" horiz-adv-x="800" d="M86 -289l469 1774q10 33 37 33h98q27 0 27 -20q0 -6 -2 -13l-467 -1774q-8 -33 -39 -33h-98q-27 0 -27 20q0 6 2 13z" />
<glyph unicode="0" horiz-adv-x="1175" d="M141 299v879q0 315 447 315q451 0 450 -315v-879q0 -315 -450 -315q-447 0 -447 315zM295 324q0 -102 65.5 -155.5t228.5 -53.5t227.5 53t64.5 156v829q0 102 -64.5 155.5t-227.5 53.5t-228.5 -53.5t-65.5 -155.5v-829z" />
<glyph unicode="1" horiz-adv-x="1175" d="M158 33v69q0 31 32 31h349v1180l-346 -80q-33 -6 -33 27v73q0 31 33 37l469 113h6q24 0 24 -29v-1321h344q33 0 33 -31v-69q0 -33 -33 -33h-846q-32 0 -32 33z" />
<glyph unicode="2" horiz-adv-x="1175" d="M158 1053v125q0 147 98 231t342 84q444 0 444 -315v-242q0 -115 -62 -180.5t-134 -87.5l-369 -117q-143 -41 -143 -143v-275h682q33 0 33 -31v-69q0 -33 -33 -33h-805q-31 0 -31 33v418q0 137 178 196l404 135q127 39 127 152v219q0 104 -64.5 157.5t-226.5 53.5 t-225.5 -53.5t-63.5 -157.5v-100q0 -35 -30 -35h-89q-32 0 -32 35z" />
<glyph unicode="3" horiz-adv-x="1175" d="M135 297v49q0 29 31 29h88q31 0 31 -29v-29q0 -100 67.5 -153t225 -53t224 53t66.5 153v197q0 104 -60 153.5t-224 49.5h-193q-33 0 -33 31v63q0 33 33 33h180q162 0 222.5 49t60.5 154v112q0 102 -61.5 154.5t-217 52.5t-218 -52t-62.5 -155v-29q0 -31 -31 -30h-88 q-31 0 -31 30v50q0 145 95.5 229t337.5 84q240 0 334 -82t94 -227v-160q0 -96 -40 -155.5t-147 -84.5q115 -29 158 -89t43 -163v-239q0 -309 -440 -309q-445 0 -445 313z" />
<glyph unicode="4" horiz-adv-x="1175" d="M102 500v63q0 14 7 35l303 846q14 33 39 33h92q35 0 24 -33l-305 -844h578v844q0 33 32 33h95q31 0 30 -33v-1411q0 -33 -30 -33h-95q-33 0 -32 33v434h-705q-33 0 -33 33z" />
<glyph unicode="5" horiz-adv-x="1175" d="M160 295v47q0 33 33 33h88q33 0 32 -33v-25q0 -104 58.5 -155t218.5 -51t218 51t58 155v273q0 182 -282 182h-357q-31 0 -30 33v639q0 33 30 33h725q33 0 33 -33v-68q0 -33 -33 -33h-600v-442h234q217 0 326.5 -76.5t109.5 -214.5v-315q0 -147 -94 -231t-338 -84 q-240 0 -335 84t-95 231z" />
<glyph unicode="6" horiz-adv-x="1175" d="M154 299v889q0 305 434 305q430 0 430 -305v-39q0 -33 -33 -33h-86q-31 0 -31 33v18q0 199 -280 199q-283 0 -283 -199v-397q78 109 305 109q424 0 424 -316v-264q0 -147 -98 -231t-344 -84q-242 0 -340 84t-98 231zM305 319q0 -102 63.5 -155t223.5 -53q164 0 226.5 53 t62.5 155v224q0 102 -62.5 155.5t-226.5 53.5q-287 0 -287 -193v-240z" />
<glyph unicode="7" horiz-adv-x="1175" d="M113 1376v68q0 33 34 33h891q31 0 31 -33v-66q0 -8 -8 -28l-555 -1317q-12 -33 -39 -33h-107q-37 0 -24 33l557 1310h-746q-34 0 -34 33z" />
<glyph unicode="8" horiz-adv-x="1175" d="M150 299v236q0 96 49 159.5t163 91.5q-109 25 -151.5 87.5t-42.5 162.5v142q0 150 89 232.5t331.5 82.5t332 -83t89.5 -232v-142q0 -100 -44 -162.5t-155 -87.5q215 -53 215 -251v-236q0 -147 -96 -231t-342 -84t-342 84t-96 231zM303 319q0 -104 61.5 -156t223.5 -52 t224 53t62 155v193q0 104 -62 156.5t-224 52.5t-223.5 -52.5t-61.5 -156.5v-193zM319 1057q0 -106 55.5 -158.5t214.5 -52.5t215 52t56 159v100q0 104 -56 156.5t-215 52.5t-214.5 -52t-55.5 -157v-100z" />
<glyph unicode="9" horiz-adv-x="1175" d="M143 913v265q0 147 97.5 231t343 84t342 -84t96.5 -231v-889q0 -305 -434 -305q-428 0 -428 305v39q0 33 30 32h91q31 0 30 -32v-19q0 -199 277 -198q160 0 220 52t60 146v393q-74 -104 -303 -104q-422 0 -422 315zM295 934q0 -102 63.5 -155.5t225.5 -53.5q154 0 219 50 t65 147v235q0 102 -61.5 155.5t-223 53.5t-225 -53t-63.5 -156v-223z" />
<glyph unicode=":" horiz-adv-x="479" d="M164 33v170q0 31 31 30h92q31 0 30 -30v-170q0 -33 -30 -33h-92q-31 0 -31 33zM164 868v172q0 33 31 33h92q31 0 30 -33v-172q0 -31 -30 -30h-92q-31 -1 -31 30z" />
<glyph unicode=";" horiz-adv-x="585" d="M143 -119q-3 7 -2 13q0 18 23 28q61 29 83.5 61.5t22.5 86.5v133q0 31 33 30h90q31 0 31 -30v-140q0 -197 -217 -266q-8 -3 -14 -2q-19 0 -27 23zM270 868v172q0 33 33 33h90q31 0 31 -33v-172q0 -31 -31 -30h-90q-33 -1 -33 30z" />
<glyph unicode="&#x3c;" horiz-adv-x="1169" d="M172 690v98q0 18 31 35l764 344q6 3 11 3q7 0 12 -5q9 -8 9 -26v-86q0 -18 -32 -35l-645 -281l645 -278q33 -16 32 -35v-88q0 -30 -18 -30q-6 0 -14 3l-764 344q-31 14 -31 37z" />
<glyph unicode="=" horiz-adv-x="1275" d="M172 494v63q0 31 33 31h868q33 0 33 -31v-63q0 -31 -33 -31h-868q-33 0 -33 31zM172 881v65q0 31 33 31h868q33 0 33 -31v-65q0 -33 -33 -33h-868q-33 0 -33 33z" />
<glyph unicode="&#x3e;" horiz-adv-x="1169" d="M172 334v88q0 23 33 39l643 276l-643 279q-33 16 -33 37v90q0 30 18 30q6 0 15 -4l764 -344q31 -16 30 -37v-98q0 -25 -30 -39l-764 -346q-8 -3 -14 -3q-19 0 -19 32z" />
<glyph unicode="?" horiz-adv-x="1230" d="M164 1053v125q0 315 450 315q449 0 455 -315v-166q0 -195 -180 -283l-117 -55q-109 -53 -108 -156v-133q0 -33 -29 -33h-94q-31 0 -31 33v168q0 137 143 209l152 78q109 61 108 168v145q0 102 -68.5 156.5t-230.5 54.5q-166 0 -233.5 -54.5t-67.5 -156.5v-100 q0 -35 -30 -35h-88q-31 0 -31 35zM510 33v170q0 31 31 30h94q29 0 29 -30v-170q0 -33 -29 -33h-94q-31 0 -31 33z" />
<glyph unicode="@" horiz-adv-x="1849" d="M197 119v856q0 66 17 118t65.5 102t127 84t211 54.5t308.5 20.5q219 0 367.5 -29t224 -85t106.5 -119.5t31 -145.5v-617q0 -287 -283 -286q-193 0 -244 139q-172 -139 -348 -139q-254 0 -254 229q0 31 2 49l37 367q27 276 293 276q154 0 307 -121l13 74q6 31 36 31h76 q27 0 25 -31l-55 -561q-3 -25 -3 -47q0 -152 123 -152q127 0 127 189v594q0 127 -127 194.5t-454 67.5q-326 0 -455 -67.5t-129 -194.5v-846q0 -82 47 -137.5t180 -90t357 -34.5h399q31 0 31 -31v-61q0 -33 -31 -33h-399q-221 0 -369.5 29.5t-223.5 86t-105.5 121 t-30.5 146.5zM674 350q0 -137 162 -137q119 0 272 102v33l43 402q-131 111 -254 110q-172 0 -188 -170l-31 -295q-4 -43 -4 -45z" />
<glyph unicode="A" horiz-adv-x="1140" d="M51 33l432 1411q12 33 43 33h92q29 0 39 -33l435 -1411q2 -7 2 -13q0 -20 -29 -20h-92q-31 0 -39 33l-119 387h-498l-116 -387q-10 -33 -37 -33h-88q-26 0 -26 21q-1 5 1 12zM354 543h428l-159 508q-14 49 -54 262q-23 -158 -55 -258z" />
<glyph unicode="B" horiz-adv-x="1261" d="M197 33v1411q0 33 30 33h375q469 0 469 -306v-143q0 -190 -197 -256q256 -55 256 -266v-193q0 -313 -471 -313h-432q-30 0 -30 33zM350 129h309q317 0 318 207v162q0 201 -318 200h-309v-569zM350 821h273q295 0 295 211v117q0 100 -75 149.5t-241 49.5h-252v-527z" />
<glyph unicode="C" horiz-adv-x="1198" d="M172 299v879q0 315 457.5 315t457.5 -315v-113q0 -33 -30 -33h-86q-33 0 -33 33v88q0 209 -306 209t-306 -209v-829q0 -209 306 -209t306 209v114q0 33 33 33h86q31 0 30 -33v-139q0 -315 -457.5 -315t-457.5 315z" />
<glyph unicode="D" horiz-adv-x="1306" d="M197 33v1411q0 33 28 33h439q471 0 471 -318v-842q0 -317 -471 -317h-441q-26 0 -26 33zM350 133h314q317 0 317 207v795q0 209 -317 208h-314v-1210z" />
<glyph unicode="E" d="M197 33v1411q0 33 30 33h742q33 0 32 -33v-68q0 -33 -32 -33h-619v-505h580q33 0 33 -33v-62q0 -33 -33 -32h-580v-578h643q33 0 33 -31v-69q0 -33 -33 -33h-768q-28 0 -28 33z" />
<glyph unicode="F" horiz-adv-x="1144" d="M197 33v1411q0 33 30 33h797q33 0 33 -33v-68q0 -33 -33 -33h-674v-507h635q31 0 31 -33v-70q0 -33 -31 -33h-635v-667q0 -33 -31 -33h-92q-30 0 -30 33z" />
<glyph unicode="G" horiz-adv-x="1230" d="M172 299v879q0 315 457.5 315t457.5 -315v-105q0 -31 -30 -31h-86q-33 0 -33 31v80q0 209 -306 209t-306 -209v-829q0 -209 306 -209t306 207v256h-291q-31 0 -31 32v70q0 31 31 31h408q33 0 32 -31v-381q0 -315 -457.5 -315t-457.5 315z" />
<glyph unicode="H" horiz-adv-x="1331" d="M197 33v1411q0 33 30 33h92q31 0 31 -33v-598h631v598q0 33 31 33h94q29 0 29 -33v-1411q0 -33 -29 -33h-94q-31 0 -31 33v684h-631v-684q0 -33 -31 -33h-92q-30 0 -30 33z" />
<glyph unicode="I" horiz-adv-x="546" d="M197 33v1411q0 33 30 33h92q31 0 31 -33v-1411q0 -33 -31 -33h-92q-30 0 -30 33z" />
<glyph unicode="J" horiz-adv-x="1075" d="M66 299v98q0 35 32 35h88q31 0 31 -35v-73q0 -102 58.5 -155.5t204 -53.5t202.5 53t57 156v1120q0 33 31 33h92q33 0 33 -33v-1145q0 -147 -92 -231t-324 -84q-413 0 -413 315z" />
<glyph unicode="K" horiz-adv-x="1189" d="M195 33v1411q0 33 32 33h92q31 0 31 -33v-647h68l500 649q25 31 55 31h100q16 0 20.5 -9.5t-6.5 -23.5l-540 -694l602 -717q5 -7 5 -14q0 -4 -1 -8q-4 -11 -20 -11h-121q-27 0 -49 33l-545 647h-68v-647q0 -33 -31 -33h-92q-32 0 -32 33z" />
<glyph unicode="L" horiz-adv-x="1062" d="M197 33v1411q0 33 30 33h95q31 0 30 -33v-1311h609q29 0 28 -31v-69q0 -33 -28 -33h-738q-26 0 -26 33z" />
<glyph unicode="M" horiz-adv-x="1574" d="M195 33v1411q0 33 32 33h84q20 0 27 -19l412 -958q27 -70 38 -111q16 49 41 109l402 960q6 18 31 19h86q33 0 32 -33v-1411q0 -33 -32 -33h-86q-33 0 -33 33v1120q-18 -76 -43 -135l-316 -760q-12 -33 -43 -33h-79q-29 0 -43 33l-328 780q-14 35 -37 113v-1118 q0 -33 -29 -33h-84q-32 0 -32 33z" />
<glyph unicode="N" horiz-adv-x="1329" d="M195 33v1411q0 33 32 33h84q18 0 25 -15l590 -1034l63 -131v1147q0 33 31 33h82q31 0 31 -33v-1411q0 -33 -31 -33h-82q-20 0 -31 14l-575 1022q-61 109 -74 142v-1145q0 -33 -29 -33h-84q-32 0 -32 33z" />
<glyph unicode="O" horiz-adv-x="1282" d="M172 299v879q0 315 469 315q471 0 471 -315v-879q0 -315 -471 -315q-469 0 -469 315zM326 324q0 -209 315 -209t315 209v829q0 209 -315 209t-315 -209v-829z" />
<glyph unicode="P" horiz-adv-x="1226" d="M197 33v1411q0 33 28 33h430q471 0 471 -318v-270q0 -319 -471 -320h-305v-536q0 -33 -31 -33h-92q-30 0 -30 33zM350 700h305q317 0 318 211v224q0 209 -318 208h-305v-643z" />
<glyph unicode="Q" horiz-adv-x="1280" d="M172 299v879q0 315 469 315q471 0 471 -315v-879q0 -262 -324 -305l291 -268q27 -20 4 -45l-47 -50q-11 -13 -22 -12q-11 0 -23 10l-383 355q-436 10 -436 315zM326 322q0 -211 315 -211t315 211v833q0 211 -315 211t-315 -211v-833z" />
<glyph unicode="R" horiz-adv-x="1280" d="M197 33v1411q0 33 28 33h430q471 0 471 -318v-244q0 -236 -268 -294l281 -588q4 -8 4 -14q0 -7 -5 -11q-9 -8 -28 -8h-92q-20 0 -39 33l-268 569h-56h-305v-569q0 -33 -31 -33h-92q-30 0 -30 33zM350 731h305q317 0 318 211v193q0 209 -318 208h-305v-612z" />
<glyph unicode="S" horiz-adv-x="1224" d="M154 299v121q0 31 30 31h90q29 0 29 -31v-101q0 -207 313 -206q315 0 316 206v136q0 76 -49 116.5t-131 73.5l-390 150q-76 29 -132 98.5t-56 161.5v123q0 315 447 315q453 0 452 -315v-103q0 -33 -33 -33h-90q-31 0 -30 33v82q0 100 -68 153.5t-229.5 53.5t-230 -53.5 t-68.5 -153.5v-65q0 -119 125 -170l409 -154q225 -84 225 -283v-186q0 -315 -464.5 -315t-464.5 315z" />
<glyph unicode="T" horiz-adv-x="1046" d="M39 1376v68q0 33 33 33h903q33 0 33 -33v-68q0 -33 -33 -33h-373v-1310q0 -33 -31 -33h-94q-33 0 -33 33v1310h-372q-33 0 -33 33z" />
<glyph unicode="U" horiz-adv-x="1306" d="M184 299v1145q0 33 31 33h94q29 0 29 -33v-1120q0 -209 313 -209q319 0 320 209v1120q0 33 30 33h91q31 0 30 -33v-1145q0 -315 -471 -315q-467 0 -467 315z" />
<glyph unicode="V" horiz-adv-x="1140" d="M51 1444q-2 7 -1 12q0 21 26 21h100q29 0 37 -33l309 -1018q10 -33 22 -84l20 -96q9 -45 9 -49q33 162 52 225l313 1022q8 33 37 33h90q29 0 29 -20q0 -6 -2 -13l-435 -1411q-10 -33 -39 -33h-92q-31 0 -43 33z" />
<glyph unicode="W" horiz-adv-x="1738" d="M49 1444q-2 7 -2 13q0 20 29 20h94q25 0 37 -33l258 -1020l35 -162q10 68 35 162l260 1020q8 33 39 33h86q27 0 36 -33l261 -1020q27 -113 34 -172q0 39 35 172l260 1020q8 33 39 33h80q26 0 26 -21q0 -5 -1 -12l-359 -1411q-12 -33 -39 -33h-92q-29 0 -39 33l-262 1038 q-16 53 -29 150q-12 -74 -30 -152l-262 -1036q-8 -33 -41 -33h-93q-27 0 -36 33z" />
<glyph unicode="X" horiz-adv-x="1198" d="M92 37l416 717l-406 688q-23 35 13 35h108q29 0 47 -33l336 -563l320 563q16 33 45 33h100q31 0 14 -33l-403 -694l424 -717q6 -11 6 -18q0 -15 -25 -15h-106q-29 0 -47 33l-346 581l-334 -581q-20 -33 -45 -33h-103q-22 0 -21 15q-1 8 7 22z" />
<glyph unicode="Y" horiz-adv-x="1122" d="M45 1444q-4 9 -4 16q0 17 27 17h104q23 0 39 -33l319 -629q8 -18 15.5 -37.5t11.5 -32.5l6 -14q0 18 31 84l332 629q16 33 39 33h90q27 0 27 -17q0 -7 -5 -16l-436 -842v-569q0 -33 -33 -33h-92q-33 0 -33 33v551z" />
<glyph unicode="Z" horiz-adv-x="1091" d="M111 33v69q0 14 4 21l667 1220h-602q-33 0 -33 33v68q0 33 33 33h758q33 0 33 -33v-68q0 -12 -6 -24l-670 -1219h678q33 0 33 -31v-69q0 -33 -33 -33h-832q-30 0 -30 33z" />
<glyph unicode="[" horiz-adv-x="792" d="M186 -426v1911q0 33 33 33h406q31 0 30 -33v-68q0 -33 -30 -33h-283v-1710h283q31 0 30 -32v-68q0 -33 -30 -33h-406q-33 0 -33 33z" />
<glyph unicode="\" horiz-adv-x="800" d="M86 1485q-2 7 -2 12q0 21 27 21h98q31 0 39 -33l467 -1774q2 -7 2 -13q0 -20 -27 -20h-98q-29 0 -37 33z" />
<glyph unicode="]" horiz-adv-x="792" d="M139 -358q0 33 33 32h279v1710h-279q-33 0 -33 33v68q0 33 33 33h403q31 0 31 -33v-1911q0 -33 -31 -33h-403q-33 0 -33 33v68z" />
<glyph unicode="^" horiz-adv-x="1208" d="M174 682l344 764q16 31 35 31h98q23 0 37 -31l346 -764q3 -8 3 -15q0 -20 -29 -20h-90q-20 0 -35 35l-281 643l-278 -643q-12 -35 -35 -35h-86q-32 0 -33 20q0 6 4 15z" />
<glyph unicode="_" horiz-adv-x="937" d="M49 -215q0 31 31 31h780q33 0 33 -31v-66q0 -31 -33 -30h-780q-31 0 -31 30v66z" />
<glyph unicode="`" horiz-adv-x="716" d="M205 1505q-10 12 -10 19q0 12 24 12h96q23 0 43 -29l146 -243q6 -11 6 -18q0 -13 -23 -13h-73q-23 0 -39 20z" />
<glyph unicode="a" horiz-adv-x="1095" d="M135 240v108q0 111 73 183.5t210 72.5h373v195q0 80 -54.5 124t-191.5 44t-192.5 -42t-55.5 -122v-27q0 -33 -33 -33h-78q-31 0 -30 33v39q0 274 391 274.5t391 -274.5v-782q0 -33 -31 -33h-78q-31 0 -32 33l-4 78q-162 -127 -359 -127q-145 0 -222 72.5t-77 183.5z M281 258q0 -150 188 -149q166 0 322 120v254h-347q-164 0 -163 -155v-70z" />
<glyph unicode="b" d="M172 33v1452q0 33 33 33h86q31 0 31 -33v-522q170 127 368 127q150 0 224.5 -75t74.5 -204v-551q0 -127 -74.5 -201.5t-224.5 -74.5q-213 0 -371 129l-4 -80q-2 -33 -32 -33h-78q-33 0 -33 33zM322 242q164 -123 327 -123q190 0 191 164v508q0 162 -191 161 q-170 0 -327 -123v-587z" />
<glyph unicode="c" horiz-adv-x="1038" d="M147 262v547q0 281 395.5 281t395.5 -281v-41q0 -33 -33 -33h-80q-33 0 -32 33v33q0 80 -55.5 123t-192.5 43t-192.5 -43t-55.5 -123v-527q0 -84 55.5 -126t192.5 -42t192.5 42t55.5 126v48q0 33 32 32h80q33 0 33 -32v-60q0 -279 -397 -278q-213 0 -303.5 72.5 t-90.5 205.5z" />
<glyph unicode="d" d="M147 260v551q0 129 75 204t227 75q195 0 368 -127v522q0 33 29 33h88q33 0 33 -33v-1452q0 -33 -33 -33h-78q-31 0 -33 33l-4 80q-166 -129 -370 -129q-152 0 -227 74.5t-75 201.5zM297 283q0 -72 47 -118t143 -46q164 0 330 123v587q-160 123 -330 123q-96 0 -143 -45 t-47 -116v-508z" />
<glyph unicode="e" horiz-adv-x="1067" d="M147 262v547q0 281 400 281q213 0 303 -73t90 -208v-266q0 -31 -31 -31h-614v-242q0 -82 55.5 -124t196.5 -42t196.5 42t55.5 124v39q0 29 30 29h78q33 0 33 -29v-47q0 -279 -397 -278q-396 -1 -396 278zM295 627h504v174q0 168 -252 168t-252 -168v-174z" />
<glyph unicode="f" horiz-adv-x="698" d="M61 977v51q0 31 31 33l117 8h16v186q0 276 406 277h14q33 0 33 -29v-65q0 -33 -33 -33h-14q-254 0 -254 -166v-170h237q33 0 33 -31v-61q0 -33 -33 -33h-237v-911q0 -33 -31 -33h-88q-33 0 -33 33v911h-133q-31 0 -31 33z" />
<glyph unicode="g" d="M147 260v551q0 129 75 204t227 75q209 0 370 -134l4 84q2 33 33 33h78q33 0 33 -33v-1208q0 -279 -408 -278h-295q-33 0 -33 28v66q0 31 33 30h295q258 0 258 168v263q-172 -125 -368 -125q-152 0 -227 74.5t-75 201.5zM297 283q0 -72 47 -118t143 -46q164 0 330 123v587 q-160 123 -330 123q-96 0 -143 -45t-47 -116v-508z" />
<glyph unicode="h" horiz-adv-x="1146" d="M172 33v1452q0 33 33 33h86q31 0 31 -33v-522q154 127 368 127q145 0 222 -74t77 -193v-790q0 -33 -28 -33h-89q-33 0 -32 33v758q0 164 -191 163q-172 0 -327 -120v-801q0 -33 -31 -33h-86q-33 0 -33 33z" />
<glyph unicode="i" horiz-adv-x="493" d="M172 33v1007q0 33 33 33h86q31 0 31 -33v-1007q0 -33 -31 -33h-86q-33 0 -33 33zM172 1282v203q0 33 33 33h86q31 0 31 -33v-203q0 -31 -31 -31h-86q-33 0 -33 31z" />
<glyph unicode="j" horiz-adv-x="491" d="M-129 -352q0 31 31 30h16q254 0 254 168v1194q0 33 31 33h88q31 0 31 -33v-1208q0 -279 -404 -278h-16q-31 0 -31 28v66zM172 1282v203q0 33 31 33h88q31 0 31 -33v-203q0 -31 -31 -31h-88q-31 0 -31 31z" />
<glyph unicode="k" horiz-adv-x="995" d="M172 33v1452q0 33 31 33h88q31 0 31 -33v-826h71l369 381q29 33 53 33h96q18 0 22.5 -10t-5.5 -23l-412 -432l461 -575q7 -7 7 -14q0 -4 -2 -8q-5 -11 -19 -11h-99q-27 0 -53 33l-416 512h-73v-512q0 -33 -31 -33h-88q-31 0 -31 33z" />
<glyph unicode="l" horiz-adv-x="493" d="M172 33v1452q0 33 33 33h86q31 0 31 -33v-1452q0 -33 -31 -33h-86q-33 0 -33 33z" />
<glyph unicode="m" horiz-adv-x="1792" d="M172 33v1007q0 33 33 33h78q33 0 32 -33l2 -79q152 129 361 129q211 0 274 -148q176 147 381 148q147 0 224 -74t77 -193v-790q0 -33 -32 -33h-86q-33 0 -33 33v758q0 164 -191 163q-184 0 -317 -125q2 -10 2 -38v-758q0 -33 -31 -33h-86q-33 0 -33 33v758 q0 164 -190 163q-174 0 -315 -120v-801q0 -33 -31 -33h-86q-33 0 -33 33z" />
<glyph unicode="n" horiz-adv-x="1146" d="M172 33v1007q0 33 33 33h78q31 0 32 -33l4 -84q154 133 371 134q145 0 222 -74t77 -193v-790q0 -33 -28 -33h-89q-33 0 -32 33v758q0 164 -191 163q-172 0 -327 -120v-801q0 -33 -31 -33h-86q-33 0 -33 33z" />
<glyph unicode="o" horiz-adv-x="1112" d="M147 262v547q0 281 408 281q412 0 412 -281v-547q0 -279 -412 -278q-408 -1 -408 278zM297 274q0 -168 258 -168q262 0 262 168v525q0 168 -262 168q-258 0 -258 -168v-525z" />
<glyph unicode="p" d="M172 -418v1458q0 33 33 33h78q31 0 32 -33l4 -84q160 133 371 134q150 0 224.5 -75t74.5 -204v-551q0 -127 -74.5 -201.5t-224.5 -74.5q-205 0 -368 125v-527q0 -29 -31 -28h-86q-33 -1 -33 28zM322 242q164 -123 327 -123q190 0 191 164v508q0 162 -191 161 q-170 0 -327 -123v-587z" />
<glyph unicode="q" d="M147 260v551q0 129 75 204t227 75q203 0 370 -134l4 84q2 33 33 33h78q33 0 33 -33v-1458q0 -29 -33 -28h-88q-29 0 -29 28v527q-172 -125 -368 -125q-152 0 -227 74.5t-75 201.5zM297 283q0 -72 47 -118t143 -46q164 0 330 123v587q-160 123 -330 123q-96 0 -143 -45 t-47 -116v-508z" />
<glyph unicode="r" horiz-adv-x="747" d="M172 33v1007q0 33 33 33h78q31 0 32 -33l7 -106q170 156 354 156q35 0 35 -33v-72q0 -33 -35 -33q-190 -6 -354 -145v-774q0 -33 -31 -33h-86q-33 0 -33 33z" />
<glyph unicode="s" horiz-adv-x="1007" d="M119 227v60q0 31 31 30h79q29 0 29 -30v-54q0 -135 254 -135q125 0 190.5 36t65.5 99v82q0 80 -127 121l-336 111q-63 23 -114.5 79t-51.5 132v84q0 109 90 178.5t285 69.5t287 -70t92 -178v-62q0 -29 -31 -28h-80q-29 0 -28 28v62q0 135 -242 135q-236 0 -236 -135v-56 q0 -86 111 -120l334 -109q186 -59 186 -205v-125q0 -106 -98 -174.5t-296 -68.5t-296 68.5t-98 174.5z" />
<glyph unicode="t" horiz-adv-x="751" d="M57 977v51q0 31 29 33l115 8h16v229q0 33 33 33h88q31 0 31 -33v-229h243q33 0 33 -31v-61q0 -33 -33 -33h-243v-649q0 -82 57 -124t195 -42h36q33 0 33 -33v-63q0 -33 -33 -33h-55q-213 0 -299 69.5t-86 211.5v663h-131q-29 0 -29 33z" />
<glyph unicode="u" horiz-adv-x="1134" d="M158 248v792q0 33 30 33h91q31 0 30 -33v-757q0 -166 193 -166q166 0 313 121v802q0 33 29 33h90q31 0 31 -33v-1007q0 -33 -31 -33h-80q-31 0 -33 33l-4 78q-152 -127 -356 -127q-147 0 -225 72.5t-78 191.5z" />
<glyph unicode="v" horiz-adv-x="935" d="M39 1040q-2 7 -2 13q0 21 31 20h92q27 0 37 -33l243 -718q23 -72 31 -136q20 98 33 133l248 721q10 33 36 33h82q31 0 31 -20q0 -5 -2 -13l-350 -1009q-8 -31 -35 -31h-100q-23 0 -31 31z" />
<glyph unicode="w" horiz-adv-x="1423" d="M39 1040q-2 7 -2 12q0 21 33 21h86q29 0 34 -33l205 -755q4 -16 7.5 -37t6.5 -34t3 -17q0 10 22 88l209 755q10 33 37 33h92q29 0 35 -33l197 -755l18 -84q0 12 22 84l201 755q12 33 37 33h74q30 0 29 -19q0 -6 -3 -14l-282 -1009q-8 -31 -31 -31h-104q-29 0 -35 31 l-193 733q-4 18 -20 102l-27 -104l-209 -731q-10 -31 -35 -31h-98q-27 0 -35 31z" />
<glyph unicode="x" horiz-adv-x="1005" d="M68 33l346 512l-336 495q-10 12 -5 22.5t21 10.5h99q25 0 49 -33l268 -391l258 391q20 33 49 33h86q14 0 20.5 -10t-5.5 -23l-336 -499l350 -508q6 -11 6 -18q0 -15 -25 -15h-96q-29 0 -49 33l-281 403l-268 -403q-18 -33 -47 -33h-88q-24 0 -24 14q1 7 8 19z" />
<glyph unicode="y" horiz-adv-x="935" d="M39 1040q-2 7 -2 13q0 21 31 20h88q27 0 37 -33l245 -721q8 -27 16 -58l11 -51q4 -19 4 -22q23 88 35 127l248 725q10 33 36 33h82q31 0 31 -20q0 -5 -2 -13l-498 -1458q-12 -31 -36 -31h-68q-37 0 -27 31l131 410z" />
<glyph unicode="z" horiz-adv-x="985" d="M102 33v61q0 12 9 25l548 827h-495q-33 0 -33 33v63q0 31 33 31h651q31 0 31 -31v-61q0 -16 -6 -27l-553 -829h557q33 0 33 -31v-61q0 -33 -33 -33h-709q-33 0 -33 33z" />
<glyph unicode="{" horiz-adv-x="970" d="M121 508v63q0 33 33 33h2q236 0 235 166v487q0 279 404 279h14q31 0 31 -31v-63q0 -33 -31 -33h-14q-137 0 -193.5 -42t-56.5 -126v-485q0 -174 -176 -215q176 -45 176 -217v-502q0 -82 56 -125t194 -43h14q31 0 31 -31v-63q0 -33 -31 -33h-14q-403 0 -404 280v504 q0 164 -235 164h-2q-33 0 -33 33z" />
<glyph unicode="|" horiz-adv-x="546" d="M197 -426v1911q0 33 30 33h95q31 0 30 -33v-1911q0 -33 -30 -33h-95q-30 0 -30 33z" />
<glyph unicode="}" horiz-adv-x="970" d="M131 -377q0 31 33 31h12q137 0 193.5 43t56.5 125v502q0 172 178 217q-178 41 -178 215v485q0 84 -56.5 126t-193.5 42h-12q-33 0 -33 33v63q0 31 33 31h12q406 0 406 -279v-487q0 -166 235 -166h2q29 0 29 -33v-63q0 -33 -29 -33h-2q-236 0 -235 -164v-504 q0 -281 -406 -280h-12q-33 0 -33 33v63z" />
<glyph unicode="~" horiz-adv-x="1054" d="M172 502l4 61q6 94 48 140.5t106 46.5q45 0 106 -31l187 -98q61 -31 92 -31q33 0 45 23.5t12 80.5v19q0 27 35 26h49q29 0 27 -37l-4 -57q-14 -186 -150 -186q-55 0 -119 33l-190 96q-49 27 -78 26q-33 0 -43 -18t-16 -82l-2 -18q-2 -29 -35 -29h-45q-33 0 -29 35z" />
<glyph unicode="&#xa1;" horiz-adv-x="550" d="M197 225l16 463q0 33 31 33h65q29 0 29 -33l16 -463v-596q0 -33 -30 -32h-97q-31 0 -30 32v596zM201 870v170q0 33 28 33h93q33 0 32 -33v-170q0 -33 -32 -32h-93q-28 -1 -28 32z" />
<glyph unicode="&#xa2;" horiz-adv-x="1146" d="M180 465v547q0 252 320 276v156q0 33 32 33h89q31 0 30 -33v-156q319 -25 320 -276v-41q0 -33 -33 -33h-80q-33 0 -33 33v33q0 80 -55 121.5t-192.5 41.5t-192.5 -42t-55 -121v-529q0 -82 55 -124t192.5 -42t192.5 42t55 124v47q0 33 33 33h80q33 0 33 -33v-57 q0 -252 -320 -279v-153q0 -33 -30 -33h-89q-33 0 -32 33v153q-172 14 -246 84t-74 195z" />
<glyph unicode="&#xa3;" horiz-adv-x="1435" d="M180 33v65q0 31 31 31h127v547h-127q-31 0 -31 33v63q0 31 31 31h127v387q0 145 92 224t336 79t337 -79t93 -224v-64q0 -33 -31 -32h-86q-31 0 -30 32v39q0 102 -59.5 149.5t-223.5 47.5q-158 0 -215 -47t-57 -150v-362h331q33 0 33 -31v-63q0 -33 -33 -33h-331v-547h436 q86 0 134 51t48 187v14q0 33 31 33h82q33 0 32 -33v-14q0 -209 -75.5 -288t-214.5 -79h-756q-31 0 -31 33z" />
<glyph unicode="&#xa4;" horiz-adv-x="1202" d="M51 586v37q0 33 33 32h100v166h-100q-33 0 -33 33v39q0 29 33 29h100v256q0 315 458 315t458 -315v-113q0 -33 -29 -33h-88q-33 0 -33 33v88q0 209 -306 209t-306 -209v-231h340q33 0 33 -29v-39q0 -33 -33 -33h-340v-166h340q33 0 33 -32v-37q0 -33 -33 -33h-340v-229 q0 -209 306 -209t306 209v114q0 33 33 33h88q29 0 29 -33v-139q0 -315 -458 -315t-458 315v254h-100q-33 0 -33 33z" />
<glyph unicode="&#xa5;" horiz-adv-x="1400" d="M186 1444q-5 10 -4 16q0 16 27 17h104q23 0 39 -33l320 -629q8 -18 15 -37.5t11 -32.5l4 -14q0 18 33 84l330 629q16 33 41 33h90q27 0 27 -17q0 -7 -4 -16l-263 -504h156q33 0 33 -31v-39q0 -33 -33 -32h-209l-84 -164h293q33 0 33 -31v-39q0 -33 -33 -33h-330v-538 q0 -33 -32 -33h-93q-33 0 -32 33v538h-332q-31 0 -31 33v39q0 31 31 31h287l-84 164h-203q-31 0 -31 32v39q0 31 31 31h149z" />
<glyph unicode="&#xa6;" horiz-adv-x="493" d="M172 303q0 33 33 33h86q31 0 31 -33v-729q0 -33 -31 -33h-86q-33 0 -33 33v729zM172 715v729q0 33 33 33h86q31 0 31 -33v-729q0 -33 -31 -33h-86q-33 0 -33 33z" />
<glyph unicode="&#xa7;" horiz-adv-x="1189" d="M197 -154q0 33 30 33h78q33 0 33 -33v-34q0 -166 254 -166q139 0 196.5 43t57.5 125v176q0 82 -144 127l-292 86q-72 18 -132.5 80.5t-60.5 156.5v219q0 33 31 33h80q31 0 30 -33v-204q0 -57 40 -91t83 -47l307 -90q80 -23 144.5 -77t64.5 -154v-172q0 -283 -403 -283 q-397 0 -397 277v28zM197 1040v174q0 279 400 279t400 -274v-27q0 -33 -32 -33h-80q-29 0 -29 33v33q0 80 -58.5 120.5t-195.5 40.5q-256 0 -256 -161v-176q0 -82 146 -129l290 -86q72 -18 132.5 -81t60.5 -159v-219q0 -33 -31 -33h-78q-31 0 -30 33v207q0 57 -40 90t-83 47 l-307 90q-209 61 -209 231z" />
<glyph unicode="&#xa8;" horiz-adv-x="702" d="M176 1282v211q0 33 33 33h53q31 0 31 -33v-211q0 -29 -31 -29h-53q-33 0 -33 29zM410 1282v211q0 33 30 33h56q31 0 30 -33v-211q0 -29 -30 -29h-56q-30 0 -30 29z" />
<glyph unicode="&#xa9;" horiz-adv-x="1579" d="M197 371v735q0 63 12 115.5t50 105.5t102.5 88t173 56.5t256 21.5t256 -21.5t172 -56.5t102.5 -88t50 -105.5t11 -115.5v-735q0 -66 -11 -117t-50 -104.5t-102.5 -88t-172 -56t-256 -21.5t-256 21.5t-173 56t-102.5 88t-50 104.5t-12 117zM311 354q0 -129 108.5 -199.5 t371.5 -70.5q479 0 479 270v770q0 270 -479.5 270.5t-479.5 -272.5v-768zM477 551v371q0 135 67.5 203.5t246 68.5t245 -68.5t66.5 -203.5v-31q0 -33 -29 -33h-72q-33 0 -32 33v29q0 86 -36 125.5t-142.5 39.5t-141.5 -39.5t-35 -125.5v-365q0 -86 35 -126t141.5 -40 t142.5 41t36 125v47q0 35 32 35h72q29 0 29 -35v-51q0 -133 -66.5 -201.5t-245 -68.5t-246 68.5t-67.5 201.5z" />
<glyph unicode="&#xaa;" horiz-adv-x="763" d="M133 983v64q0 68 46 111.5t132 43.5h207v121q0 86 -129 86q-133 0 -133 -86v-18q0 -23 -23 -23h-63q-23 0 -23 23v22q0 166 244 166q240 0 240 -170v-461q0 -25 -21 -24h-61q-20 0 -23 24l-6 41q-90 -76 -205 -76q-92 0 -137 43t-45 113zM246 999q0 -86 99 -86t173 68 v141h-186q-86 0 -86 -82v-41z" />
<glyph unicode="&#xab;" horiz-adv-x="1259" d="M174 487v91q0 16 29 40l401 302q7 8 14 8q4 0 8 -2q11 -6 11 -23v-94q0 -23 -33 -47l-309 -230l309 -229q33 -23 33 -49v-94q0 -14 -12 -20q-5 -2 -9 -2q-7 0 -12 5l-401 301q-29 25 -29 43zM625 487v91q0 16 28 40l402 302q7 8 14 8q4 0 7 -2q11 -6 11 -23v-94 q0 -23 -32 -47l-307 -230l307 -229q33 -23 32 -49v-94q0 -14 -12 -20q-5 -2 -9 -2q-7 0 -11 5l-402 301q-28 25 -28 43z" />
<glyph unicode="&#xac;" horiz-adv-x="821" d="M166 682q0 102 71.5 174t170.5 72q102 0 173.5 -72t71.5 -174t-71.5 -173t-173.5 -71q-98 0 -170 72t-72 172z" />
<glyph unicode="&#xad;" horiz-adv-x="989" d="M172 598v61q0 31 33 31h581q33 0 33 -31v-61q0 -33 -33 -33h-581q-33 0 -33 33z" />
<glyph unicode="&#xae;" horiz-adv-x="1349" d="M197 805v389q0 299 481 299q477 0 477 -299v-389q0 -299 -477 -299q-481 0 -481 299zM301 797q0 -197 377 -197q373 0 373 195v407q0 197 -373 197q-377 0 -377 -197v-405zM465 727v533q0 23 22 22h213q215 0 215 -160v-49q0 -109 -104 -143l86 -203q8 -25 -23 -25h-63 q-16 0 -23 25l-79 186h-9h-129v-186q0 -25 -22 -25h-64q-20 0 -20 25zM571 993h119q57 0 87 24.5t30 59.5v39q0 84 -117 84h-119v-207z" />
<glyph unicode="&#xaf;" horiz-adv-x="901" d="M147 1329v53q0 31 31 31h547q33 0 33 -31v-53q0 -33 -33 -33h-547q-31 0 -31 33z" />
<glyph unicode="&#xb0;" horiz-adv-x="878" d="M139 1075v211q0 98 68.5 151.5t232.5 53.5t231.5 -53.5t67.5 -151.5v-211q0 -100 -67.5 -153.5t-231.5 -53.5t-232.5 53.5t-68.5 153.5zM268 1081q0 -109 172 -108.5t172 108.5v199q0 106 -172 106t-172 -106v-199z" />
<glyph unicode="&#xb1;" horiz-adv-x="1255" d="M172 238v61q0 33 33 33h848q33 0 32 -33v-61q0 -33 -32 -33h-848q-33 0 -33 33zM172 795v65q0 31 33 31h358v264q0 33 29 33h65q31 0 31 -33v-264h365q33 0 32 -31v-65q0 -33 -32 -33h-365v-266q0 -33 -31 -33h-65q-29 0 -29 33v266h-358q-33 0 -33 33z" />
<glyph unicode="&#xb2;" horiz-adv-x="811" d="M129 1223v73q0 197 272 197q279 0 279 -197v-133q0 -127 -117 -170l-231 -82q-72 -18 -72 -65v-152h402q25 0 24 -22v-51q0 -23 -24 -23h-496q-23 0 -23 23v245q0 37 19.5 62.5t37 35t46.5 19.5l248 90q72 23 71 84v123q0 117 -164 117q-156 0 -155 -117v-57 q0 -27 -25 -27h-69q-23 0 -23 27z" />
<glyph unicode="&#xb3;" horiz-adv-x="808" d="M129 782v33q0 20 23 21h69q25 0 25 -21v-16q0 -115 157 -115q162 0 162 115v104q0 59 -34.5 86t-122.5 27h-111q-27 0 -27 24v47q0 25 27 25h100q88 0 122 26.5t34 86.5v61q0 55 -34 85t-116 30q-84 0 -118.5 -30t-34.5 -85v-16q0 -20 -23 -21h-69q-23 0 -23 21v33 q0 193 269.5 192.5t269.5 -192.5v-95q0 -113 -109 -139q117 -33 117 -154v-135q0 -193 -276.5 -193t-276.5 195z" />
<glyph unicode="&#xb4;" horiz-adv-x="716" d="M213 1264l145 243q18 29 43 29h97q24 0 24 -12q0 -7 -10 -19l-172 -252q-14 -20 -39 -20h-72q-24 0 -23 13q0 7 7 18z" />
<glyph unicode="&#xb5;" horiz-adv-x="1134" d="M158 -414v1454q0 33 30 33h91q31 0 30 -33v-757q0 -166 193 -166q166 0 313 121v802q0 33 29 33h90q31 0 31 -33v-1007q0 -33 -31 -33h-80q-31 0 -33 33l-4 78q-152 -127 -356 -127q-98 0 -162 47l10 -445q0 -33 -30 -32h-91q-30 -1 -30 32z" />
<glyph unicode="&#xb6;" horiz-adv-x="1398" d="M197 897v295q0 137 94 211t325 74h222q31 0 30 -31v-1860q0 -33 -32 -32h-91q-33 0 -32 32v1026h-97q-231 0 -325 74t-94 211zM1051 -414v1858q0 33 30 33h93q31 0 30 -33v-1858q0 -33 -30 -32h-93q-30 -1 -30 32z" />
<glyph unicode="&#xb7;" horiz-adv-x="479" d="M164 492v167q0 33 31 33h92q31 0 30 -33v-167q0 -33 -30 -33h-92q-31 0 -31 33z" />
<glyph unicode="&#xb8;" horiz-adv-x="401" d="M-6 -393q0 31 33 31h229q92 0 92 75.5t-92 75.5h-135q-43 0 -43 29q0 6 2 12l49 180q8 29 33 29h4l41 -6q33 -6 20 -39l-30 -109h82q76 0 128 -41t52 -128t-52.5 -131t-127.5 -44h-252q-33 0 -33 33v33z" />
<glyph unicode="&#xb9;" horiz-adv-x="813" d="M129 625v51q0 23 23 22h198v674l-198 -41q-20 -6 -21 17v55q0 18 21 22l294 66q3 1 7 1q6 0 10 -3q6 -4 6 -19v-772h195q23 0 22 -22v-51q0 -23 -22 -23h-512q-23 0 -23 23z" />
<glyph unicode="&#xba;" horiz-adv-x="776" d="M131 1001v318q0 174 258 174t258 -174v-318q0 -174 -258 -174t-258 174zM248 1012q0 -92 141 -92t141 92v297q0 94 -141 94t-141 -94v-297z" />
<glyph unicode="&#xbb;" horiz-adv-x="1259" d="M174 178v92q0 25 33 49l307 230l-307 227q-33 25 -33 51v93q0 16 10 21q4 2 8 2q7 0 15 -5l401 -301q29 -25 29 -45v-88q0 -18 -29 -41l-401 -303q-8 -7 -16 -7q-4 0 -7 2q-10 5 -10 23zM625 178v92q0 25 32 49l310 230l-310 227q-33 25 -32 51v93q0 16 11 21q4 2 8 2 q7 0 13 -5l402 -301q29 -25 28 -45v-88q0 -18 -28 -41l-402 -303q-7 -7 -14 -7q-4 0 -7 2q-11 5 -11 23z" />
<glyph unicode="&#xbc;" horiz-adv-x="1812" d="M129 625v51q0 23 23 22h198v676l-198 -43q-20 -6 -21 17v55q0 18 21 22l294 66q10 2 16.5 -2t6.5 -19v-772h195q23 0 22 -22v-51q0 -23 -22 -23h-512q-23 0 -23 23zM674 -82l424 1641q8 25 30 24h76q25 0 19 -24l-428 -1641q-6 -25 -27 -24h-76q-20 0 -20 14q0 4 2 10z M1124 293v47q0 10 4 18l175 504q6 23 28 23h74q27 0 16 -23l-168 -495h312v495q0 23 24 23h74q25 0 25 -23v-837q0 -25 -25 -25h-74q-25 0 -24 25v243h-414q-27 0 -27 25z" />
<glyph unicode="&#xbd;" horiz-adv-x="1847" d="M129 625v51q0 23 23 22h198v676l-198 -43q-20 -6 -21 17v55q0 18 21 22l294 66q10 2 16.5 -2t6.5 -19v-772h195q23 0 22 -22v-51q0 -23 -22 -23h-512q-23 0 -23 23zM657 -82l428 1641q6 25 29 24h76q25 0 16 -24l-426 -1641q-8 -25 -26 -24h-76q-22 0 -22 16q0 3 1 8z M1161 625v73q0 199 276.5 199t276.5 -199v-131q0 -129 -117 -170l-229 -82q-72 -27 -72 -65v-152h402q23 0 22 -24v-49q0 -25 -22 -25h-498q-20 0 -20 25v243q0 37 19.5 63.5t36.5 35.5l44 20l248 88q70 25 69 84v125q0 115 -159 115q-158 0 -158 -115v-59q0 -25 -23 -25 h-69q-27 0 -27 25z" />
<glyph unicode="&#xbe;" horiz-adv-x="1816" d="M129 780v31q0 23 23 23h69q25 0 25 -23v-14q0 -115 157 -115q162 0 162 115v104q0 59 -34.5 86t-122.5 27h-111q-27 0 -27 24v47q0 25 27 25h100q88 0 122 26.5t34 86.5v59q0 57 -34 87t-116 30q-84 0 -118.5 -30t-34.5 -87v-14q0 -23 -23 -23h-69q-23 0 -23 23v32 q0 193 269.5 193t269.5 -193v-94q0 -113 -109 -141q117 -31 117 -152v-137q0 -190 -276.5 -190.5t-276.5 194.5zM680 -82l428 1641q6 25 25 24h77q23 0 17 -24l-428 -1641q-6 -25 -25 -24h-78q-18 0 -17 15q0 4 1 9zM1128 293v47q0 14 2 18l175 504q6 23 30 23h74 q27 0 16 -23l-170 -495h314v495q0 23 24 23h72q25 0 25 -23v-837q0 -25 -25 -25h-72q-25 0 -24 25v243h-416q-25 0 -25 25z" />
<glyph unicode="&#xbf;" horiz-adv-x="1230" d="M164 61q0 195 178 281l117 57q109 51 108 154v135q0 33 31 33h92q31 0 31 -33v-170q0 -135 -143 -207l-152 -80q-109 -59 -109 -165v-146q0 -102 69 -156.5t230 -54.5q166 0 234 54.5t68 156.5v100q0 33 30 33h88q33 0 33 -33v-124q0 -317 -453 -318q-449 0 -452 318v165 zM567 870v170q0 33 31 33h92q31 0 31 -33v-170q0 -33 -31 -32h-92q-31 -1 -31 32z" />
<glyph unicode="&#xc0;" horiz-adv-x="1140" d="M51 33l432 1411q12 33 43 33h92q29 0 39 -33l435 -1411q2 -7 2 -13q0 -20 -29 -20h-92q-31 0 -39 33l-119 387h-498l-116 -387q-10 -33 -37 -33h-88q-26 0 -26 21q-1 5 1 12zM317 1874q-10 13 -9 20q0 12 24 13h96q23 0 43 -31l145 -244q20 -33 -14 -33h-74q-25 0 -41 23 zM354 543h428l-159 508q-14 49 -54 262q-23 -158 -55 -258z" />
<glyph unicode="&#xc1;" horiz-adv-x="1140" d="M51 33l432 1411q12 33 43 33h92q29 0 39 -33l435 -1411q2 -7 2 -13q0 -20 -29 -20h-92q-31 0 -39 33l-119 387h-498l-116 -387q-10 -33 -37 -33h-88q-26 0 -26 21q-1 5 1 12zM354 543h428l-159 508q-14 49 -54 262q-23 -158 -55 -258zM520 1632l146 244q20 31 43 31h94 q25 0 24 -15q0 -7 -6 -18l-172 -252q-14 -20 -41 -20h-71q-22 0 -22 13q0 7 5 17z" />
<glyph unicode="&#xc2;" horiz-adv-x="1140" d="M51 33l432 1411q12 33 43 33h92q29 0 39 -33l435 -1411q2 -7 2 -13q0 -20 -29 -20h-92q-31 0 -39 33l-119 387h-498l-116 -387q-10 -33 -37 -33h-88q-26 0 -26 21q-1 5 1 12zM322 1611l-2 6q0 7 6 15l168 242q23 33 49 33h57q25 0 49 -31l168 -244q7 -11 7 -17 q0 -13 -25 -13h-70q-25 0 -43 30l-115 178l-114 -178q-18 -31 -45 -30h-70q-16 0 -20 9zM354 543h428l-159 508q-14 49 -54 262q-23 -158 -55 -258z" />
<glyph unicode="&#xc3;" horiz-adv-x="1140" d="M51 33l432 1411q12 33 43 33h92q29 0 39 -33l435 -1411q2 -7 2 -13q0 -20 -29 -20h-92q-31 0 -39 33l-119 387h-498l-116 -387q-10 -33 -37 -33h-88q-26 0 -26 21q-1 5 1 12zM256 1665l4 59q10 170 158 170q59 0 119 -41l94 -69q53 -39 84 -39q35 0 44 20.5t11 83.5v19 q0 27 35 26h49q27 0 27 -34l-2 -54q-6 -176 -158 -176q-59 0 -117 39l-98 70q-51 39 -80 39q-37 0 -47 -20.5t-12 -82.5v-16q0 -31 -33 -31h-49q-29 0 -29 37zM354 543h428l-159 508q-14 49 -54 262q-23 -158 -55 -258z" />
<glyph unicode="&#xc4;" horiz-adv-x="1140" d="M51 33l432 1411q12 33 43 33h92q29 0 39 -33l435 -1411q2 -7 2 -13q0 -20 -29 -20h-92q-31 0 -39 33l-119 387h-498l-116 -387q-10 -33 -37 -33h-88q-26 0 -26 21q-1 5 1 12zM354 543h428l-159 508q-14 49 -54 262q-23 -158 -55 -258zM397 1649v209q0 31 33 30h51 q31 0 31 -30v-209q0 -33 -31 -33h-51q-33 0 -33 33zM629 1649v209q0 31 33 30h53q33 0 33 -30v-209q0 -33 -33 -33h-53q-33 0 -33 33z" />
<glyph unicode="&#xc5;" horiz-adv-x="1140" d="M51 33l432 1411q12 33 43 33h92q29 0 39 -33l435 -1411q2 -7 2 -13q0 -20 -29 -20h-92q-31 0 -39 33l-119 387h-498l-116 -387q-10 -33 -37 -33h-88q-26 0 -26 21q-1 5 1 12zM354 543h428l-159 508q-14 49 -54 262q-23 -158 -55 -258zM365 1726v37q0 72 51 117t155.5 45 t154.5 -45t50 -117v-37q0 -72 -50 -117.5t-154.5 -45.5t-155.5 45.5t-51 117.5zM461 1737q0 -92 110 -92q113 0 113 92v14q0 92 -113 92q-111 0 -110 -92v-14z" />
<glyph unicode="&#xc6;" horiz-adv-x="1820" d="M53 33l824 1411q23 33 45 33h731q33 0 33 -31v-66q0 -33 -33 -32h-619v-512h580q31 0 31 -31v-60q0 -33 -31 -32h-580v-584h643q33 0 33 -31v-65q0 -33 -33 -33h-751q-37 0 -37 33v387h-463l-221 -387q-20 -33 -39 -33h-88q-30 0 -30 16q-1 7 5 17zM500 543h389v680 l-74 -133z" />
<glyph unicode="&#xc7;" horiz-adv-x="1198" d="M172 299v879q0 315 457.5 315t457.5 -315v-113q0 -33 -30 -33h-86q-33 0 -33 33v88q0 209 -306 209t-306 -209v-829q0 -209 306 -209t306 209v114q0 33 33 33h86q31 0 30 -33v-139q0 -315 -458 -315h-6l-25 -99h80q76 0 128 -41t52 -128t-52 -131t-128 -44h-252 q-33 0 -33 33v33q0 31 33 31h229q92 0 92.5 75.5t-92.5 75.5h-135q-43 0 -42 29q0 6 1 12l41 160q-348 33 -348 309z" />
<glyph unicode="&#xc8;" d="M197 33v1411q0 33 30 33h742q33 0 32 -33v-68q0 -33 -32 -33h-619v-505h580q33 0 33 -33v-62q0 -33 -33 -32h-580v-578h643q33 0 33 -31v-69q0 -33 -33 -33h-768q-28 0 -28 33zM387 1874q-10 13 -9 20q0 12 23 13h97q23 0 43 -31l145 -244q7 -12 7 -19q0 -13 -21 -14h-74 q-25 0 -41 23z" />
<glyph unicode="&#xc9;" d="M197 33v1411q0 33 30 33h742q33 0 32 -33v-68q0 -33 -32 -33h-619v-505h580q33 0 33 -33v-62q0 -33 -33 -32h-580v-578h643q33 0 33 -31v-69q0 -33 -33 -33h-768q-28 0 -28 33zM522 1632l146 244q20 31 43 31h94q25 0 24 -15q0 -7 -6 -18l-172 -252q-14 -20 -41 -20h-71 q-22 0 -22 13q0 7 5 17z" />
<glyph unicode="&#xca;" d="M197 33v1411q0 33 30 33h742q33 0 32 -33v-68q0 -33 -32 -33h-619v-505h580q33 0 33 -33v-62q0 -33 -33 -32h-580v-578h643q33 0 33 -31v-69q0 -33 -33 -33h-768q-28 0 -28 33zM319 1611q-1 3 -1 6q0 7 6 15l168 242q23 33 49 33h57q27 0 49 -31l168 -244q7 -8 7 -15 q0 -3 -2 -6q-5 -9 -23 -9h-70q-25 0 -43 30l-115 178l-114 -178q-18 -31 -45 -30h-70q-17 0 -21 9z" />
<glyph unicode="&#xcb;" d="M197 33v1411q0 33 30 33h742q33 0 32 -33v-68q0 -33 -32 -33h-619v-505h580q33 0 33 -33v-62q0 -33 -33 -32h-580v-578h643q33 0 33 -31v-69q0 -33 -33 -33h-768q-28 0 -28 33zM426 1649v209q0 31 33 30h51q31 0 31 -30v-209q0 -33 -31 -33h-51q-33 0 -33 33zM657 1649 v209q0 31 33 30h53q31 0 31 -30v-209q0 -33 -31 -33h-53q-33 0 -33 33z" />
<glyph unicode="&#xcc;" horiz-adv-x="546" d="M25 1874q-10 13 -10 20q0 12 24 13h96q23 0 43 -31l146 -244q18 -33 -15 -33h-76q-20 0 -38 23zM197 33v1411q0 33 30 33h92q31 0 31 -33v-1411q0 -33 -31 -33h-92q-30 0 -30 33z" />
<glyph unicode="&#xcd;" horiz-adv-x="546" d="M197 33v1411q0 33 30 33h92q31 0 31 -33v-1411q0 -33 -31 -33h-92q-30 0 -30 33zM215 1632l145 244q20 31 41 31h97q24 0 23 -14q0 -8 -7 -19l-172 -252q-14 -20 -41 -20h-72q-21 0 -21 12q0 7 7 18z" />
<glyph unicode="&#xce;" horiz-adv-x="546" d="M25 1611l-2 6q0 7 6 15l166 242q25 33 51 33h55q29 0 51 -31l166 -244q8 -8 8 -15q0 -3 -2 -6q-6 -9 -22 -9h-70q-25 0 -43 30l-115 178l-116 -178q-16 -31 -43 -30h-70q-16 0 -20 9zM197 33v1411q0 33 30 33h92q31 0 31 -33v-1411q0 -33 -31 -33h-92q-30 0 -30 33z" />
<glyph unicode="&#xcf;" horiz-adv-x="546" d="M100 1649v209q0 31 33 30h51q31 0 31 -30v-209q0 -33 -31 -33h-51q-33 0 -33 33zM197 33v1411q0 33 30 33h92q31 0 31 -33v-1411q0 -33 -31 -33h-92q-30 0 -30 33zM332 1649v209q0 31 33 30h53q31 0 31 -30v-209q0 -33 -31 -33h-53q-33 0 -33 33z" />
<glyph unicode="&#xd0;" horiz-adv-x="1306" d="M23 719v55q0 31 30 31h144v639q0 33 28 33h439q471 0 471 -318v-842q0 -317 -471 -317h-441q-27 0 -26 33v655h-144q-30 0 -30 31zM350 133h314q317 0 317 207v795q0 209 -317 208h-314v-538h287q31 0 31 -31v-55q0 -31 -31 -31h-287v-555z" />
<glyph unicode="&#xd1;" horiz-adv-x="1329" d="M195 33v1411q0 33 32 33h84q18 0 25 -15l590 -1034l63 -131v1147q0 33 31 33h82q31 0 31 -33v-1411q0 -33 -31 -33h-82q-20 0 -31 14l-575 1022q-66 113 -74 138v-1141q0 -33 -29 -33h-84q-32 0 -32 33zM352 1665l4 59q10 170 156 170q61 0 119 -41l96 -69q53 -39 82 -39 q35 0 45 20.5t12 83.5v19q0 27 35 26h47q29 0 29 -34l-2 -54q-6 -176 -158 -176q-59 0 -119 39l-96 70q-53 39 -82 39q-37 0 -46 -20.5t-11 -82.5v-16q0 -31 -33 -31h-49q-29 0 -29 37z" />
<glyph unicode="&#xd2;" horiz-adv-x="1282" d="M172 299v879q0 315 469 315q471 0 471 -315v-879q0 -315 -471 -315q-469 0 -469 315zM326 324q0 -209 315 -209t315 209v829q0 209 -315 209t-315 -209v-829zM393 1874q-10 13 -9 20q0 12 24 13h96q25 0 43 -31l145 -244q8 -12 8 -20q0 -13 -22 -13h-74q-23 0 -39 23z " />
<glyph unicode="&#xd3;" horiz-adv-x="1282" d="M172 299v879q0 315 469 315q471 0 471 -315v-879q0 -315 -471 -315q-469 0 -469 315zM326 324q0 -209 315 -209t315 209v829q0 209 -315 209t-315 -209v-829zM567 1632l146 244q18 31 41 31h94q25 0 24 -15q0 -7 -6 -18l-172 -252q-14 -20 -41 -20h-71q-21 0 -21 12 q-1 7 6 18z" />
<glyph unicode="&#xd4;" horiz-adv-x="1282" d="M172 299v879q0 315 469 315q471 0 471 -315v-879q0 -315 -471 -315q-469 0 -469 315zM326 324q0 -209 315 -209t315 209v829q0 209 -315 209t-315 -209v-829zM391 1611q-1 3 -1 6q0 7 5 15l168 242q23 33 49 33h56q27 0 51 -31l166 -244q8 -11 8 -18q0 -12 -25 -12h-69 q-25 0 -43 30l-115 178l-115 -178q-18 -31 -45 -30h-69q-17 0 -21 9z" />
<glyph unicode="&#xd5;" horiz-adv-x="1282" d="M172 299v879q0 315 469 315q471 0 471 -315v-879q0 -315 -471 -315q-469 0 -469 315zM326 324q0 -209 315 -209t315 209v829q0 209 -315 209t-315 -209v-829zM328 1665l4 59q10 170 155 170q61 0 121 -41l94 -69q53 -39 84 -39q35 0 44.5 20.5t11.5 83.5v19q0 27 35 26 h49q27 0 26 -34l-2 -54q-6 -176 -157 -176q-59 0 -117 39l-98 70q-51 39 -80 39q-37 0 -47.5 -20.5t-12.5 -82.5v-16q0 -31 -32 -31h-50q-28 0 -28 37z" />
<glyph unicode="&#xd6;" horiz-adv-x="1282" d="M172 299v879q0 315 469 315q471 0 471 -315v-879q0 -315 -471 -315q-469 0 -469 315zM326 324q0 -209 315 -209t315 209v829q0 209 -315 209t-315 -209v-829zM467 1649v209q0 31 33 30h51q31 0 31 -30v-209q0 -33 -31 -33h-51q-33 0 -33 33zM698 1649v209q0 31 33 30h53 q33 0 33 -30v-209q0 -33 -33 -33h-53q-33 0 -33 33z" />
<glyph unicode="&#xd7;" horiz-adv-x="1179" d="M180 537q-5 11 -5 19q0 15 15 24l314 178l-182 315q-16 27 10 43l55 33q8 5 16 5q15 0 27 -19l182 -312l316 181q23 12 41 -13l32 -53q5 -10 5 -18q0 -16 -19 -27l-311 -182l180 -312q12 -27 -14 -43l-54 -32q-9 -5 -17 -5q-15 0 -23 17l-181 311l-313 -180 q-29 -18 -45 12z" />
<glyph unicode="&#xd8;" horiz-adv-x="1282" d="M172 1171q0 317 469 318q186 0 305 -53l27 51q25 47 53 47h29q33 0 8 -47l-47 -96q96 -78 96 -220v-874q0 -319 -471 -320q-195 0 -311 58l-27 -49q-25 -49 -51 -49h-29q-20 0 -20 16q0 12 10 33l47 94q-88 80 -88 217v874zM326 322q0 -51 14 -82l539 1065 q-78 55 -238 55q-315 0 -315 -211v-827zM397 170q80 -59 244 -59q315 0 315 211v827q0 49 -18 88z" />
<glyph unicode="&#xd9;" horiz-adv-x="1306" d="M184 299v1145q0 33 31 33h94q29 0 29 -33v-1120q0 -209 313 -209q319 0 320 209v1120q0 33 30 33h91q31 0 30 -33v-1145q0 -315 -471 -315q-467 0 -467 315zM414 1874q-8 12 -9 20q0 13 25 13h96q23 0 43 -31l146 -244q6 -11 6 -19q0 -14 -23 -14h-73q-20 0 -39 23z" />
<glyph unicode="&#xda;" horiz-adv-x="1306" d="M184 299v1145q0 33 31 33h94q29 0 29 -33v-1120q0 -209 313 -209q319 0 320 209v1120q0 33 30 33h91q31 0 30 -33v-1145q0 -315 -471 -315q-467 0 -467 315zM592 1632l145 244q20 31 43 31h94q25 0 25 -15q0 -7 -6 -18l-172 -252q-16 -20 -41 -20h-72q-22 0 -22 13 q1 7 6 17z" />
<glyph unicode="&#xdb;" horiz-adv-x="1306" d="M184 299v1145q0 33 31 33h94q29 0 29 -33v-1120q0 -209 313 -209q319 0 320 209v1120q0 33 30 33h91q31 0 30 -33v-1145q0 -315 -471 -315q-467 0 -467 315zM403 1611q-1 3 -1 6q0 7 6 15l167 242q25 33 50 33h57q27 0 49 -31l168 -244q7 -11 7 -17q0 -13 -25 -13h-70 q-23 0 -43 30l-115 178l-114 -178q-18 -31 -43 -30h-70q-19 0 -23 9z" />
<glyph unicode="&#xdc;" horiz-adv-x="1306" d="M184 299v1145q0 33 31 33h94q29 0 29 -33v-1120q0 -209 313 -209q319 0 320 209v1120q0 33 30 33h91q31 0 30 -33v-1145q0 -315 -471 -315q-467 0 -467 315zM479 1649v209q0 31 33 30h53q29 0 29 -30v-209q0 -33 -29 -33h-53q-33 0 -33 33zM713 1649v209q0 31 32 30h52 q33 0 32 -30v-209q0 -33 -32 -33h-52q-32 0 -32 33z" />
<glyph unicode="&#xdd;" horiz-adv-x="1122" d="M45 1444q-4 9 -4 16q0 17 27 17h104q23 0 39 -33l319 -629q8 -18 15.5 -37.5t11.5 -32.5l6 -14q0 18 31 84l332 629q16 33 39 33h90q27 0 27 -17q0 -7 -5 -16l-436 -842v-569q0 -33 -33 -33h-92q-33 0 -33 33v551zM518 1632l146 244q20 31 41 31h96q25 0 24 -15 q0 -7 -6 -18l-172 -252q-16 -20 -41 -20h-71q-22 0 -22 13q0 7 5 17z" />
<glyph unicode="&#xde;" horiz-adv-x="1226" d="M195 33v1411q0 33 32 33h92q31 0 31 -33v-371h305q471 0 471 -317v-221q0 -315 -471 -316h-305v-186q0 -33 -31 -33h-92q-32 0 -32 33zM350 348h305q317 0 318 209v174q0 211 -318 211h-305v-594z" />
<glyph unicode="&#xdf;" horiz-adv-x="1308" d="M61 977v51q0 31 31 33l117 8h16v188q0 279 424 279q422 0 422 -279v-79q0 -135 -166 -191l-137 -43q-37 -10 -54.5 -17t-38 -28.5t-20.5 -50.5v-10q0 -74 117 -121l260 -101q199 -76 199 -219v-139q0 -133 -80 -203.5t-283 -70.5q-201 0 -274.5 66.5t-73.5 203.5v22 q0 35 31 35h63q31 0 31 -35v-26q0 -80 49 -122t174 -42t174.5 43t49.5 121v121q0 18 -4.5 33.5t-15.5 26.5t-18 19.5t-24.5 16.5t-24 12t-25.5 12.5t-24 8.5l-245 98q-182 70 -183 221v35q0 129 162 182l119 37q123 35 123 125v47q0 172 -277 172q-279 0 -278 -172v-1212 q0 -33 -31 -33h-88q-33 0 -33 33v911h-133q-31 0 -31 33z" />
<glyph unicode="&#xe0;" horiz-adv-x="1095" d="M135 240v108q0 111 73 183.5t210 72.5h373v195q0 80 -54.5 124t-191.5 44t-192.5 -42t-55.5 -122v-27q0 -33 -33 -33h-78q-31 0 -30 33v39q0 274 391 274.5t391 -274.5v-782q0 -33 -31 -33h-78q-31 0 -32 33l-4 78q-162 -127 -359 -127q-145 0 -222 72.5t-77 183.5z M281 258q0 -150 188 -149q166 0 322 120v254h-347q-164 0 -163 -155v-70zM348 1505q-10 12 -9 19q0 12 23 12h97q23 0 43 -29l145 -243q6 -11 7 -18q0 -13 -23 -13h-74q-23 0 -39 20z" />
<glyph unicode="&#xe1;" horiz-adv-x="1095" d="M135 240v108q0 111 73 183.5t210 72.5h373v195q0 80 -54.5 124t-191.5 44t-192.5 -42t-55.5 -122v-27q0 -33 -33 -33h-78q-31 0 -30 33v39q0 274 391 274.5t391 -274.5v-782q0 -33 -31 -33h-78q-31 0 -32 33l-4 78q-162 -127 -359 -127q-145 0 -222 72.5t-77 183.5z M281 258q0 -150 188 -149q166 0 322 120v254h-347q-164 0 -163 -155v-70zM444 1264l146 243q20 29 45 29h94q25 0 25 -12q0 -7 -9 -19l-172 -252q-16 -20 -38 -20h-72q-25 0 -25 14q0 7 6 17z" />
<glyph unicode="&#xe2;" horiz-adv-x="1095" d="M135 240v108q0 111 73 183.5t210 72.5h373v195q0 80 -54.5 124t-191.5 44t-192.5 -42t-55.5 -122v-27q0 -33 -33 -33h-78q-31 0 -30 33v39q0 274 391 274.5t391 -274.5v-782q0 -33 -31 -33h-78q-31 0 -32 33l-4 78q-162 -127 -359 -127q-145 0 -222 72.5t-77 183.5z M281 258q0 -150 188 -149q166 0 322 120v254h-347q-164 0 -163 -155v-70zM303 1264l166 241q25 31 49 31h57q29 0 50 -29l170 -243q7 -11 7 -18q0 -13 -26 -13h-67q-25 0 -45 31l-115 178l-115 -178q-16 -31 -43 -31h-69q-25 0 -26 13q0 7 7 18z" />
<glyph unicode="&#xe3;" horiz-adv-x="1095" d="M135 240v108q0 111 73 183.5t210 72.5h373v195q0 80 -54.5 124t-191.5 44t-192.5 -42t-55.5 -122v-27q0 -33 -33 -33h-78q-31 0 -30 33v39q0 274 391 274.5t391 -274.5v-782q0 -33 -31 -33h-78q-31 0 -32 33l-4 78q-162 -127 -359 -127q-145 0 -222 72.5t-77 183.5z M238 1282l4 59q10 172 155 172q61 0 119 -40l96 -70q51 -39 82 -39q35 0 45.5 20.5t12.5 83.5v17q0 29 34 28h48q29 0 28 -34l-2 -56q-6 -174 -160 -174q-57 0 -116 39l-99 68q-51 41 -79 41q-37 0 -46.5 -21.5t-11.5 -81.5v-18q0 -31 -33 -31h-51q-26 0 -26 37zM281 258 q0 -150 188 -149q166 0 322 120v254h-347q-164 0 -163 -155v-70z" />
<glyph unicode="&#xe4;" horiz-adv-x="1095" d="M135 240v108q0 111 73 183.5t210 72.5h373v195q0 80 -54.5 124t-191.5 44t-192.5 -42t-55.5 -122v-27q0 -33 -33 -33h-78q-31 0 -30 33v39q0 274 391 274.5t391 -274.5v-782q0 -33 -31 -33h-78q-31 0 -32 33l-4 78q-162 -127 -359 -127q-145 0 -222 72.5t-77 183.5z M281 258q0 -150 188 -149q166 0 322 120v254h-347q-164 0 -163 -155v-70zM371 1282v211q0 33 32 33h56q29 0 28 -33v-211q0 -29 -28 -29h-56q-32 0 -32 29zM606 1282v211q0 33 31 33h53q31 0 31 -33v-211q0 -29 -31 -29h-53q-31 0 -31 29z" />
<glyph unicode="&#xe5;" horiz-adv-x="1095" d="M135 240v108q0 111 73 183.5t210 72.5h373v195q0 80 -54.5 124t-191.5 44t-192.5 -42t-55.5 -122v-27q0 -33 -33 -33h-78q-31 0 -30 33v39q0 274 391 274.5t391 -274.5v-782q0 -33 -31 -33h-78q-31 0 -32 33l-4 78q-162 -127 -359 -127q-145 0 -222 72.5t-77 183.5z M281 258q0 -150 188 -149q166 0 322 120v254h-347q-164 0 -163 -155v-70zM352 1354v55q0 70 49.5 112t149.5 42q102 0 152.5 -42t50.5 -112v-55q0 -152 -203 -152q-100 0 -149.5 42t-49.5 110zM438 1370q0 -90 113 -90t113 90v25q0 88 -113 88t-113 -88v-25z" />
<glyph unicode="&#xe6;" horiz-adv-x="1710" d="M133 240v90q0 111 75 183.5t210 72.5h370v233q0 158 -245 158q-137 0 -192.5 -42t-55.5 -126v-33q0 -31 -31 -31h-78q-33 0 -32 31v39q0 274 393 275q246 0 315 -123q82 123 326 123q395 0 395 -281v-260q0 -31 -31 -31h-616v-258q0 -80 56.5 -121t195.5 -41 q254 0 254 168v39q0 33 31 33h75q31 0 31 -33v-45q0 -131 -90 -203.5t-301 -72.5q-297 0 -367 149q-186 -150 -387 -149q-150 0 -225.5 70.5t-75.5 185.5zM281 256q0 -72 48 -113t140 -41q152 0 319 140v237h-348q-80 0 -119.5 -43t-39.5 -112v-68zM936 625h506v180 q0 170 -254 170q-252 0 -252 -170v-180z" />
<glyph unicode="&#xe7;" horiz-adv-x="1038" d="M147 262v547q0 281 395.5 281t395.5 -281v-41q0 -33 -33 -33h-80q-33 0 -32 33v33q0 80 -55.5 123t-192.5 43t-192.5 -43t-55.5 -123v-527q0 -84 55.5 -126t192.5 -42t192.5 42t55.5 126v48q0 33 32 32h80q33 0 33 -32v-60q0 -279 -397 -278h-9l-26 -99h80q76 0 128 -41 t52 -128t-52 -131t-128 -44h-252q-33 0 -33 33v33q0 31 33 31h231q90 0 90 75.5t-90 75.5h-135q-43 0 -43 27q0 6 2 14l41 160q-283 32 -283 272z" />
<glyph unicode="&#xe8;" horiz-adv-x="1067" d="M147 262v547q0 281 400 281q213 0 303 -73t90 -208v-266q0 -31 -31 -31h-614v-242q0 -82 55.5 -124t196.5 -42t196.5 42t55.5 124v39q0 29 30 29h78q33 0 33 -29v-47q0 -279 -397 -278q-396 -1 -396 278zM295 627h504v174q0 168 -252 168t-252 -168v-174zM315 1505 q-10 12 -9 19q0 12 24 12h96q23 0 43 -29l145 -243q8 -11 8 -19q0 -12 -22 -12h-74q-25 0 -41 20z" />
<glyph unicode="&#xe9;" horiz-adv-x="1067" d="M147 262v547q0 281 400 281q213 0 303 -73t90 -208v-266q0 -31 -31 -31h-614v-242q0 -82 55.5 -124t196.5 -42t196.5 42t55.5 124v39q0 29 30 29h78q33 0 33 -29v-47q0 -279 -397 -278q-396 -1 -396 278zM295 627h504v174q0 168 -252 168t-252 -168v-174zM461 1264 l145 243q18 29 43 29h96q24 0 24 -12q0 -7 -9 -19l-172 -252q-14 -20 -39 -20h-72q-24 0 -24 13q1 7 8 18z" />
<glyph unicode="&#xea;" horiz-adv-x="1067" d="M147 262v547q0 281 400 281q213 0 303 -73t90 -208v-266q0 -31 -31 -31h-614v-242q0 -82 55.5 -124t196.5 -42t196.5 42t55.5 124v39q0 29 30 29h78q33 0 33 -29v-47q0 -279 -397 -278q-396 -1 -396 278zM295 627h504v174q0 168 -252 168t-252 -168v-174zM296 1242 q-2 3 -2 7q0 7 7 15l166 241q25 31 49 31h57q27 0 50 -29l170 -243q6 -10 6 -17q0 -14 -25 -14h-69q-23 0 -43 31l-115 178l-115 -178q-18 -31 -43 -31h-70q-18 0 -23 9z" />
<glyph unicode="&#xeb;" horiz-adv-x="1067" d="M147 262v547q0 281 400 281q213 0 303 -73t90 -208v-266q0 -31 -31 -31h-614v-242q0 -82 55.5 -124t196.5 -42t196.5 42t55.5 124v39q0 29 30 29h78q33 0 33 -29v-47q0 -279 -397 -278q-396 -1 -396 278zM295 627h504v174q0 168 -252 168t-252 -168v-174zM369 1282v211 q0 33 32 33h56q29 0 28 -33v-211q0 -29 -28 -29h-56q-32 0 -32 29zM604 1282v211q0 33 31 33h53q31 0 31 -33v-211q0 -29 -31 -29h-53q-31 0 -31 29z" />
<glyph unicode="&#xec;" horiz-adv-x="491" d="M0 1505q-10 12 -10 19q0 12 24 12h97q25 0 43 -29l145 -243q20 -31 -14 -31h-74q-25 0 -39 20zM172 33v1007q0 33 31 33h88q31 0 31 -33v-1007q0 -33 -31 -33h-88q-31 0 -31 33z" />
<glyph unicode="&#xed;" horiz-adv-x="491" d="M172 33v1007q0 33 31 33h88q31 0 31 -33v-1007q0 -33 -31 -33h-88q-31 0 -31 33zM186 1264l146 243q20 29 43 29h96q24 0 24 -12q0 -7 -10 -19l-170 -252q-16 -20 -39 -20h-71q-25 0 -25 14q0 7 6 17z" />
<glyph unicode="&#xee;" horiz-adv-x="491" d="M4 1264l166 241q23 31 49 31h57q27 0 50 -29l170 -243q6 -10 6 -17q0 -14 -25 -14h-69q-23 0 -43 31l-115 178l-115 -178q-18 -31 -43 -31h-69q-25 0 -26 13q0 7 7 18zM172 33v1007q0 33 31 33h88q31 0 31 -33v-1007q0 -33 -31 -33h-88q-31 0 -31 33z" />
<glyph unicode="&#xef;" horiz-adv-x="491" d="M74 1282v211q0 33 32 33h54q31 0 30 -33v-211q0 -29 -30 -29h-54q-32 0 -32 29zM172 33v1007q0 33 31 33h88q31 0 31 -33v-1007q0 -33 -31 -33h-88q-31 0 -31 33zM309 1282v211q0 33 29 33h55q31 0 31 -33v-211q0 -29 -31 -29h-55q-29 0 -29 29z" />
<glyph unicode="&#xf0;" horiz-adv-x="1204" d="M147 260v551q0 129 75 204t227 75q199 0 368 -129v270q0 39 -18 69l-156 -67q-29 -12 -43 10l-12 21q-14 27 14 41l162 71q-59 51 -205 51h-192q-33 0 -33 33v45q0 31 33 31h192q233 0 326 -92l114 51q27 12 41 -10l13 -23q6 -9 5 -17q0 -15 -20 -24l-102 -47 q20 -45 20 -114v-1000q0 -276 -401 -276q-408 0 -408 276zM297 270q0 -166 258 -166q262 0 262 166v564q-156 127 -325 127q-100 0 -147.5 -47.5t-47.5 -120.5v-523z" />
<glyph unicode="&#xf1;" horiz-adv-x="1148" d="M172 33v1007q0 33 33 33h78q31 0 32 -33l4 -84q154 133 371 134q145 0 222 -74t77 -193v-790q0 -33 -28 -33h-89q-33 0 -32 33v758q0 164 -191 163q-172 0 -327 -120v-801q0 -33 -31 -33h-86q-33 0 -33 33zM256 1292l4 58q10 172 158 172q59 0 119 -41l94 -70 q53 -39 84 -39q35 0 44 20.5t11 84.5v16q0 29 35 29h49q27 0 27 -35l-2 -53q-6 -176 -158 -177q-59 0 -117 39l-98 70q-51 39 -80 39q-37 0 -47 -20.5t-12 -81.5v-17q0 -31 -33 -31h-49q-29 0 -29 37z" />
<glyph unicode="&#xf2;" horiz-adv-x="1112" d="M147 262v547q0 281 408 281q412 0 412 -281v-547q0 -279 -412 -278q-408 -1 -408 278zM297 274q0 -168 258 -168q262 0 262 168v525q0 168 -262 168q-258 0 -258 -168v-525zM322 1505q-10 12 -10 19q0 12 24 12h96q25 0 43 -29l146 -243q8 -11 7 -19q0 -12 -22 -12h-74 q-25 0 -38 20z" />
<glyph unicode="&#xf3;" horiz-adv-x="1112" d="M147 262v547q0 281 408 281q412 0 412 -281v-547q0 -279 -412 -278q-408 -1 -408 278zM297 274q0 -168 258 -168q262 0 262 168v525q0 168 -262 168q-258 0 -258 -168v-525zM487 1264l148 243q18 29 43 29h94q25 0 25 -12q0 -7 -9 -19l-172 -252q-14 -20 -38 -20h-72 q-25 0 -25 14q0 7 6 17z" />
<glyph unicode="&#xf4;" horiz-adv-x="1112" d="M147 262v547q0 281 408 281q412 0 412 -281v-547q0 -279 -412 -278q-408 -1 -408 278zM297 274q0 -168 258 -168q262 0 262 168v525q0 168 -262 168q-258 0 -258 -168v-525zM313 1264l164 241q25 31 51 31h56q29 0 51 -29l168 -243q7 -11 7 -18q0 -13 -24 -13h-69 q-25 0 -43 31l-117 178l-115 -178q-16 -31 -43 -31h-69q-25 0 -25 12q0 8 8 19z" />
<glyph unicode="&#xf5;" horiz-adv-x="1112" d="M147 262v547q0 281 408 281q412 0 412 -281v-547q0 -279 -412 -278q-408 -1 -408 278zM246 1282l4 59q10 172 156 172q61 0 120 -40l95 -70q53 -39 81 -39q35 0 45.5 20.5t12.5 83.5v17q0 29 35 28h47q29 0 28 -34l-2 -56q-6 -174 -157 -174q-59 0 -119 39l-96 68 q-53 41 -82 41q-37 0 -46.5 -21.5t-11.5 -81.5v-18q0 -31 -32 -31h-50q-28 0 -28 37zM297 274q0 -168 258 -168q262 0 262 168v525q0 168 -262 168q-258 0 -258 -168v-525z" />
<glyph unicode="&#xf6;" horiz-adv-x="1112" d="M147 262v547q0 281 408 281q412 0 412 -281v-547q0 -279 -412 -278q-408 -1 -408 278zM297 274q0 -168 258 -168q262 0 262 168v525q0 168 -262 168q-258 0 -258 -168v-525zM383 1282v211q0 33 31 33h55q31 0 31 -33v-211q0 -29 -31 -29h-55q-31 0 -31 29zM616 1282v211 q0 33 31 33h53q31 0 31 -33v-211q0 -29 -31 -29h-53q-31 0 -31 29z" />
<glyph unicode="&#xf7;" horiz-adv-x="1275" d="M172 662v65q0 31 31 31h870q33 0 33 -31v-65q0 -33 -33 -33h-868q-33 0 -33 33zM563 250v170q0 31 31 31h92q31 0 31 -31v-170q0 -33 -31 -33h-92q-31 0 -31 33zM563 977v170q0 33 31 33h92q31 0 31 -33v-170q0 -33 -31 -33h-92q-31 0 -31 33z" />
<glyph unicode="&#xf8;" horiz-adv-x="1112" d="M147 809q0 281 408 281q143 0 244 -39l22 39q2 2 5 10t5.5 10t5.5 8t6 8l8 5.5t10 4.5t11 1h33q35 0 6 -47l-43 -76q98 -70 99 -205v-547q0 -279 -412 -278q-145 0 -244 39l-20 -35q-10 -20 -16.5 -28.5t-15.5 -14.5t-21 -6h-29q-20 0 -20 15q0 12 12 34l39 71 q-92 70 -93 203v547zM297 274q0 -49 18 -81l418 743q-66 31 -178 31q-258 0 -258 -168v-525zM375 139q63 -33 180 -33q262 0 262 168v525q0 47 -22 82z" />
<glyph unicode="&#xf9;" d="M158 248v792q0 33 30 33h91q31 0 30 -33v-757q0 -166 193 -166q166 0 313 121v802q0 33 29 33h90q31 0 31 -33v-1007q0 -33 -31 -33h-80q-31 0 -33 33l-4 78q-152 -127 -356 -127q-147 0 -225 72.5t-78 191.5zM342 1505q-8 11 -8 19q0 12 24 12h97q23 0 43 -29l145 -243 q6 -11 6 -18q0 -13 -22 -13h-74q-23 0 -39 20z" />
<glyph unicode="&#xfa;" d="M158 248v792q0 33 30 33h91q31 0 30 -33v-757q0 -166 193 -166q166 0 313 121v802q0 33 29 33h90q31 0 31 -33v-1007q0 -33 -31 -33h-80q-31 0 -33 33l-4 78q-152 -127 -356 -127q-147 0 -225 72.5t-78 191.5zM492 1264l145 243q18 29 43 29h94q26 0 26 -12q0 -7 -9 -19 l-173 -252q-14 -20 -38 -20h-72q-24 0 -24 13q1 7 8 18z" />
<glyph unicode="&#xfb;" d="M158 248v792q0 33 30 33h91q31 0 30 -33v-757q0 -166 193 -166q166 0 313 121v802q0 33 29 33h90q31 0 31 -33v-1007q0 -33 -31 -33h-80q-31 0 -33 33l-4 78q-152 -127 -356 -127q-147 0 -225 72.5t-78 191.5zM313 1264l164 241q25 31 51 31h56q29 0 51 -29l168 -243 q7 -11 7 -18q0 -13 -24 -13h-69q-25 0 -43 31l-117 178l-115 -178q-16 -31 -43 -31h-69q-25 0 -25 12q0 8 8 19z" />
<glyph unicode="&#xfc;" d="M158 248v792q0 33 30 33h91q31 0 30 -33v-757q0 -166 193 -166q166 0 313 121v802q0 33 29 33h90q31 0 31 -33v-1007q0 -33 -31 -33h-80q-31 0 -33 33l-4 78q-152 -127 -356 -127q-147 0 -225 72.5t-78 191.5zM391 1282v211q0 33 33 33h53q31 0 31 -33v-211 q0 -29 -31 -29h-53q-33 0 -33 29zM625 1282v211q0 33 30 33h56q29 0 28 -33v-211q0 -29 -28 -29h-56q-30 0 -30 29z" />
<glyph unicode="&#xfd;" horiz-adv-x="935" d="M39 1040q-2 7 -2 13q0 21 31 20h88q27 0 37 -33l245 -721q8 -27 16 -58l11 -51q4 -19 4 -22q23 88 35 127l248 725q10 33 36 33h82q31 0 31 -20q0 -5 -2 -13l-498 -1458q-12 -31 -36 -31h-68q-37 0 -27 31l131 410zM412 1264l145 243q20 29 45 29h94q25 0 25 -12 q0 -7 -8 -19l-172 -252q-14 -20 -39 -20h-72q-25 0 -25 14q1 7 7 17z" />
<glyph unicode="&#xfe;" d="M172 -418v1903q0 33 31 33h88q31 0 31 -33v-524q164 129 366 129q152 0 226.5 -75t74.5 -204v-551q0 -129 -74.5 -202.5t-226.5 -73.5q-207 0 -366 127v-529q0 -31 -31 -31h-88q-31 0 -31 31zM322 238q152 -125 325 -125q100 0 146.5 47t46.5 121v512q0 74 -46 121 t-147 47q-172 0 -325 -127v-596z" />
<glyph unicode="&#xff;" horiz-adv-x="935" d="M39 1040q-2 7 -2 13q0 21 31 20h88q27 0 37 -33l245 -721q8 -27 16 -58l11 -51q4 -19 4 -22q23 88 35 127l248 725q10 33 36 33h82q31 0 31 -20q0 -5 -2 -13l-498 -1458q-12 -31 -36 -31h-68q-37 0 -27 31l131 410zM301 1282v211q0 33 33 33h55q31 0 31 -33v-211 q0 -29 -31 -29h-55q-33 0 -33 29zM537 1282v211q0 33 30 33h54q31 0 30 -33v-211q0 -29 -30 -29h-54q-30 0 -30 29z" />
<glyph unicode="&#x100;" horiz-adv-x="1140" d="M51 33l432 1411q12 33 43 33h92q29 0 39 -33l435 -1411q2 -7 2 -13q0 -20 -29 -20h-92q-31 0 -39 33l-119 387h-498l-116 -387q-10 -33 -37 -33h-88q-26 0 -26 21q-1 5 1 12zM264 1708v55q0 33 33 33h545q32 0 32 -33v-55q0 -31 -32 -31h-545q-33 0 -33 31zM354 543h428 l-159 508q-14 49 -54 262q-23 -158 -55 -258z" />
<glyph unicode="&#x101;" horiz-adv-x="1095" d="M135 240v108q0 111 73 183.5t210 72.5h373v195q0 80 -54.5 124t-191.5 44t-192.5 -42t-55.5 -122v-27q0 -33 -33 -33h-78q-31 0 -30 33v39q0 274 391 274.5t391 -274.5v-782q0 -33 -31 -33h-78q-31 0 -32 33l-4 78q-162 -127 -359 -127q-145 0 -222 72.5t-77 183.5z M244 1329v53q0 31 30 31h547q33 0 33 -31v-53q0 -33 -33 -33h-547q-30 0 -30 33zM281 258q0 -150 188 -149q166 0 322 120v254h-347q-164 0 -163 -155v-70z" />
<glyph unicode="&#x102;" horiz-adv-x="1140" d="M51 33l432 1411q12 33 43 33h92q29 0 39 -33l435 -1411q2 -7 2 -13q0 -20 -29 -20h-92q-31 0 -39 33l-119 387h-498l-116 -387q-10 -33 -37 -33h-88q-26 0 -26 21q-1 5 1 12zM313 1845v35q0 29 27 29h57q29 0 29 -29v-37q0 -70 29.5 -107.5t114.5 -37.5t116 37t31 108v37 q0 29 31 29h53q29 0 28 -29v-35q0 -244 -260 -243q-139 0 -197.5 62t-58.5 181zM354 543h428l-159 508q-14 49 -54 262q-23 -158 -55 -258z" />
<glyph unicode="&#x103;" horiz-adv-x="1095" d="M135 240v108q0 111 73 183.5t210 72.5h373v195q0 80 -54.5 124t-191.5 44t-192.5 -42t-55.5 -122v-27q0 -33 -33 -33h-78q-31 0 -30 33v39q0 274 391 274.5t391 -274.5v-782q0 -33 -31 -33h-78q-31 0 -32 33l-4 78q-162 -127 -359 -127q-145 0 -222 72.5t-77 183.5z M281 258q0 -150 188 -149q166 0 322 120v254h-347q-164 0 -163 -155v-70zM299 1448v35q0 29 31 28h55q27 0 27 -28v-37q0 -70 30.5 -108t115.5 -38t114.5 37t29.5 109v37q0 29 31 28h55q29 0 29 -28v-35q0 -244 -262 -244q-137 0 -196.5 62.5t-59.5 181.5z" />
<glyph unicode="&#x104;" horiz-adv-x="1142" d="M51 33l432 1411q12 33 43 33h92q33 0 41 -33l433 -1411q10 -33 -23 -33h-31q-72 -6 -104.5 -45t-32.5 -92q0 -90 117 -90h55q29 0 29 -31v-43q0 -33 -41 -33h-78q-86 0 -143.5 42t-57.5 132q0 49 35 112.5t109 106.5l-111 361h-498l-116 -387q-10 -33 -37 -33h-88 q-26 0 -26 21q-1 5 1 12zM354 543h428l-159 508q-45 158 -54 266q-33 -184 -57 -262z" />
<glyph unicode="&#x105;" horiz-adv-x="1095" d="M135 240v108q0 111 73 183.5t210 72.5h373v195q0 80 -54.5 124t-191.5 44t-192.5 -42t-55.5 -122v-27q0 -33 -33 -33h-78q-31 0 -30 33v39q0 274 391 274.5t391 -274.5v-782q0 -33 -31 -33h-12q-66 -10 -98.5 -49t-32.5 -90q0 -88 117 -88h32q33 0 33 -31v-43 q0 -33 -41 -33h-65q-82 0 -138.5 44t-56.5 130q0 125 152 211l-4 60q-162 -127 -359 -127q-145 0 -222 72.5t-77 183.5zM281 258q0 -150 188 -149q166 0 322 120v254h-347q-164 0 -163 -155v-70z" />
<glyph unicode="&#x106;" horiz-adv-x="1198" d="M172 299v879q0 315 457.5 315t457.5 -315v-113q0 -33 -30 -33h-86q-33 0 -33 33v88q0 209 -306 209t-306 -209v-829q0 -209 306 -209t306 209v114q0 33 33 33h86q31 0 30 -33v-139q0 -315 -457.5 -315t-457.5 315zM545 1632l145 244q20 31 41 31h96q24 0 24 -14 q0 -8 -7 -19l-170 -252q-16 -20 -43 -20h-72q-20 0 -20 13q0 6 6 17z" />
<glyph unicode="&#x107;" horiz-adv-x="1038" d="M147 262v547q0 281 395.5 281t395.5 -281v-41q0 -33 -33 -33h-80q-33 0 -32 33v33q0 80 -55.5 123t-192.5 43t-192.5 -43t-55.5 -123v-527q0 -84 55.5 -126t192.5 -42t192.5 42t55.5 126v48q0 33 32 32h80q33 0 33 -32v-60q0 -279 -397 -278q-213 0 -303.5 72.5 t-90.5 205.5zM471 1264l145 243q20 29 43 29h97q24 0 24 -12q0 -7 -10 -19l-170 -252q-16 -20 -41 -20h-72q-24 0 -23 13q0 7 7 18z" />
<glyph unicode="&#x108;" horiz-adv-x="1198" d="M172 299v879q0 315 457.5 315t457.5 -315v-113q0 -33 -30 -33h-86q-33 0 -33 33v88q0 209 -306 209t-306 -209v-829q0 -209 306 -209t306 209v114q0 33 33 33h86q31 0 30 -33v-139q0 -315 -457.5 -315t-457.5 315zM354 1611q-1 3 -1 6q0 7 5 15l168 242q23 33 49 33h56 q29 0 51 -31l166 -244q8 -8 8 -15q0 -3 -2 -6q-6 -9 -23 -9h-69q-25 0 -43 30l-115 178l-117 -178q-16 -31 -43 -30h-69q-17 0 -21 9z" />
<glyph unicode="&#x109;" horiz-adv-x="1038" d="M147 262v547q0 281 395.5 281t395.5 -281v-41q0 -33 -33 -33h-80q-33 0 -32 33v33q0 80 -55.5 123t-192.5 43t-192.5 -43t-55.5 -123v-527q0 -84 55.5 -126t192.5 -42t192.5 42t55.5 126v48q0 33 32 32h80q33 0 33 -32v-60q0 -279 -397 -278q-213 0 -303.5 72.5 t-90.5 205.5zM270 1242q-2 3 -2 7q0 7 8 15l164 241q25 31 52 31h55q27 0 51 -29l168 -243q7 -11 7 -18q0 -13 -23 -13h-70q-25 0 -43 31l-117 178l-114 -178q-16 -31 -44 -31h-69q-17 0 -23 9z" />
<glyph unicode="&#x10a;" horiz-adv-x="1198" d="M172 299v879q0 315 457.5 315t457.5 -315v-113q0 -33 -30 -33h-86q-33 0 -33 33v88q0 209 -306 209t-306 -209v-829q0 -209 306 -209t306 209v114q0 33 33 33h86q31 0 30 -33v-139q0 -315 -457.5 -315t-457.5 315zM520 1651v170q0 31 31 30h92q31 0 31 -30v-170 q0 -31 -31 -31h-92q-31 0 -31 31z" />
<glyph unicode="&#x10b;" horiz-adv-x="1038" d="M147 262v547q0 281 395.5 281t395.5 -281v-41q0 -33 -33 -33h-80q-33 0 -32 33v33q0 80 -55.5 123t-192.5 43t-192.5 -43t-55.5 -123v-527q0 -84 55.5 -126t192.5 -42t192.5 42t55.5 126v48q0 33 32 32h80q33 0 33 -32v-60q0 -279 -397 -278q-213 0 -303.5 72.5 t-90.5 205.5zM442 1298v168q0 31 31 31h92q29 0 29 -31v-168q0 -33 -29 -32h-92q-31 -1 -31 32z" />
<glyph unicode="&#x10c;" horiz-adv-x="1198" d="M172 299v879q0 315 457.5 315t457.5 -315v-113q0 -33 -30 -33h-86q-33 0 -33 33v88q0 209 -306 209t-306 -209v-829q0 -209 306 -209t306 209v114q0 33 33 33h86q31 0 30 -33v-139q0 -315 -457.5 -315t-457.5 315zM347 1896q5 10 22 11h69q25 0 43 -33l117 -178l115 178 q18 33 43 33h69q16 0 23 -11q2 -3 2 -7q0 -7 -8 -15l-166 -242q-25 -31 -51 -30h-56q-29 0 -51 32l-166 240q-7 8 -7 15q0 4 2 7z" />
<glyph unicode="&#x10d;" horiz-adv-x="1038" d="M147 262v547q0 281 395.5 281t395.5 -281v-41q0 -33 -33 -33h-80q-33 0 -32 33v33q0 80 -55.5 123t-192.5 43t-192.5 -43t-55.5 -123v-527q0 -84 55.5 -126t192.5 -42t192.5 42t55.5 126v48q0 33 32 32h80q33 0 33 -32v-60q0 -279 -397 -278q-213 0 -303.5 72.5 t-90.5 205.5zM270 1527q6 9 23 9h69q25 0 44 -31l114 -178l117 178q18 31 43 31h70q24 0 23 -13q0 -7 -7 -18l-168 -241q-25 -31 -51 -31h-55q-29 0 -52 33l-164 239q-8 8 -8 15q0 4 2 7z" />
<glyph unicode="&#x10e;" horiz-adv-x="1306" d="M197 33v1411q0 33 28 33h439q471 0 471 -318v-842q0 -317 -471 -317h-441q-26 0 -26 33zM350 133h314q317 0 317 207v795q0 209 -317 208h-314v-1210zM397 1896q4 10 23 11h67q25 0 45 -33l115 -178l115 178q20 33 43 33h69q18 0 24 -11q2 -3 2 -7q0 -7 -7 -15l-168 -242 q-23 -31 -49 -30h-58q-29 0 -49 32l-168 240q-5 8 -5 15q0 4 1 7z" />
<glyph unicode="&#x10f;" horiz-adv-x="1251" d="M147 260v551q0 129 75 204t227 75q195 0 368 -127v522q0 33 29 33h88q33 0 33 -33v-1452q0 -33 -33 -33h-78q-31 0 -33 33l-4 80q-166 -129 -370 -129q-152 0 -227 74.5t-75 201.5zM297 283q0 -72 47 -118t143 -46q164 0 330 123v587q-160 123 -330 123q-96 0 -143 -45 t-47 -116v-508zM1077 1243q6 18 20.5 46t19.5 41t11.5 34.5t8.5 46.5t2 57v60q0 33 32 33h66q33 0 33 -33v-68q0 -113 -84 -256q-11 -18 -30 -17q-5 0 -11 1l-53 12q-20 4 -20 21q-1 9 5 22z" />
<glyph unicode="&#x110;" horiz-adv-x="1306" d="M23 719v55q0 31 30 31h144v639q0 33 28 33h439q471 0 471 -318v-842q0 -317 -471 -317h-441q-27 0 -26 33v655h-144q-30 0 -30 31zM350 133h314q317 0 317 207v795q0 209 -317 208h-314v-538h287q31 0 31 -31v-55q0 -31 -31 -31h-287v-555z" />
<glyph unicode="&#x111;" d="M147 260v551q0 129 75 204t227 75q195 0 368 -127v251h-332q-31 0 -30 31v47q0 31 30 31h332v162q0 33 29 33h88q33 0 33 -33v-162h86q33 0 32 -31v-47q0 -31 -32 -31h-86v-1181q0 -33 -33 -33h-78q-31 0 -33 33l-4 80q-166 -129 -370 -129q-152 0 -227 74.5t-75 201.5z M297 283q0 -72 47 -118t143 -46q164 0 330 123v587q-160 123 -330 123q-96 0 -143 -45t-47 -116v-508z" />
<glyph unicode="&#x112;" d="M197 33v1411q0 33 30 33h742q33 0 32 -33v-68q0 -33 -32 -33h-619v-505h580q33 0 33 -33v-62q0 -33 -33 -32h-580v-578h643q33 0 33 -31v-69q0 -33 -33 -33h-768q-28 0 -28 33zM281 1708v55q0 33 32 33h545q33 0 33 -33v-55q0 -31 -33 -31h-545q-32 0 -32 31z" />
<glyph unicode="&#x113;" horiz-adv-x="1067" d="M147 262v547q0 281 400 281q213 0 303 -73t90 -208v-266q0 -31 -31 -31h-614v-242q0 -82 55.5 -124t196.5 -42t196.5 42t55.5 124v39q0 29 30 29h78q33 0 33 -29v-47q0 -279 -397 -278q-396 -1 -396 278zM229 1329v53q0 31 31 31h547q33 0 33 -31v-53q0 -33 -33 -33h-547 q-31 0 -31 33zM295 627h504v174q0 168 -252 168t-252 -168v-174z" />
<glyph unicode="&#x114;" d="M197 33v1411q0 33 30 33h742q33 0 32 -33v-68q0 -33 -32 -33h-619v-505h580q33 0 33 -33v-62q0 -33 -33 -32h-580v-578h643q33 0 33 -31v-69q0 -33 -33 -33h-768q-28 0 -28 33zM332 1845v35q0 29 28 29h58q27 0 26 -29v-37q0 -70 31 -107.5t116 -37.5t114.5 37t29.5 108 v37q0 29 31 29h55q27 0 27 -29v-35q0 -244 -260 -243q-139 0 -197.5 62t-58.5 181z" />
<glyph unicode="&#x115;" horiz-adv-x="1067" d="M147 262v547q0 281 400 281q213 0 303 -73t90 -208v-266q0 -31 -31 -31h-614v-242q0 -82 55.5 -124t196.5 -42t196.5 42t55.5 124v39q0 29 30 29h78q33 0 33 -29v-47q0 -279 -397 -278q-396 -1 -396 278zM276 1448v35q0 29 29 28h55q29 0 29 -28v-37q0 -70 30 -108 t114.5 -38t115.5 37t31 109v37q0 29 31 28h53q29 0 29 -28v-35q0 -244 -261 -244q-139 0 -197.5 62.5t-58.5 181.5zM295 627h504v174q0 168 -252 168t-252 -168v-174z" />
<glyph unicode="&#x116;" d="M197 33v1411q0 33 30 33h742q33 0 32 -33v-68q0 -33 -32 -33h-619v-505h580q33 0 33 -33v-62q0 -33 -33 -32h-580v-578h643q33 0 33 -31v-69q0 -33 -33 -33h-768q-28 0 -28 33zM516 1651v170q0 31 31 30h92q29 0 29 -30v-170q0 -31 -29 -31h-92q-31 0 -31 31z" />
<glyph unicode="&#x117;" horiz-adv-x="1067" d="M147 262v547q0 281 400 281q213 0 303 -73t90 -208v-266q0 -31 -31 -31h-614v-242q0 -82 55.5 -124t196.5 -42t196.5 42t55.5 124v39q0 29 30 29h78q33 0 33 -29v-47q0 -279 -397 -278q-396 -1 -396 278zM295 627h504v174q0 168 -252 168t-252 -168v-174z" />
<glyph unicode="&#x118;" d="M197 33v1411q0 33 30 33h742q33 0 32 -33v-68q0 -33 -32 -33h-619v-505h580q33 0 33 -33v-62q0 -33 -33 -32h-580v-578h643q33 0 33 -31v-69q0 -33 -33 -33h-61q-70 0 -105.5 -39t-35.5 -94q0 -94 116 -94h62q33 0 32 -31v-43q0 -33 -40 -33h-89q-84 0 -142 44t-58 134 q0 86 67 156h-514q-28 0 -28 33z" />
<glyph unicode="&#x119;" horiz-adv-x="1067" d="M147 262v547q0 281 400 281q213 0 303 -73t90 -208v-266q0 -31 -31 -31h-614v-242q0 -82 55.5 -124t196.5 -42t196.5 42t55.5 124v39q0 29 30 29h78q33 0 33 -29v-47q0 -129 -80 -196q-12 -8 -38.5 -31l-39 -34t-30 -31.5t-23.5 -45t-6 -55.5q0 -96 119 -96h63 q33 0 33 -31v-43q0 -33 -39 -33h-96q-84 0 -139.5 42t-55.5 129t49 155q-66 -8 -114 -8q-396 -1 -396 278zM295 627h504v174q0 168 -252 168t-252 -168v-174z" />
<glyph unicode="&#x11a;" d="M197 33v1411q0 33 30 33h742q33 0 32 -33v-68q0 -33 -32 -33h-619v-505h580q33 0 33 -33v-62q0 -33 -33 -32h-580v-578h643q33 0 33 -31v-69q0 -33 -33 -33h-768q-28 0 -28 33zM319 1896q4 10 21 11h70q25 0 45 -33l114 -178l115 178q18 33 43 33h70q18 0 23 -11 q2 -3 2 -7q0 -7 -7 -15l-168 -242q-23 -31 -49 -30h-57q-29 0 -49 32l-168 240q-5 8 -6 15q0 4 1 7z" />
<glyph unicode="&#x11b;" horiz-adv-x="1067" d="M147 262v547q0 281 400 281q213 0 303 -73t90 -208v-266q0 -31 -31 -31h-614v-242q0 -82 55.5 -124t196.5 -42t196.5 42t55.5 124v39q0 29 30 29h78q33 0 33 -29v-47q0 -279 -397 -278q-396 -1 -396 278zM284 1527q5 9 21 9h70q25 0 45 -31l115 -178l114 178q18 31 43 31 h70q37 0 18 -31l-170 -241q-25 -31 -51 -31h-55q-29 0 -49 33l-166 239q-7 8 -7 15q0 4 2 7zM295 627h504v174q0 168 -252 168t-252 -168v-174z" />
<glyph unicode="&#x11c;" horiz-adv-x="1230" d="M172 299v879q0 315 457.5 315t457.5 -315v-105q0 -31 -30 -31h-86q-33 0 -33 31v80q0 209 -306 209t-306 -209v-829q0 -209 306 -209t306 207v256h-291q-31 0 -31 32v70q0 31 31 31h408q33 0 32 -31v-381q0 -315 -457.5 -315t-457.5 315zM365 1611l-2 6q0 7 6 15l168 242 q23 33 49 33h57q25 0 49 -31l168 -244q7 -11 7 -17q0 -13 -25 -13h-70q-23 0 -43 30l-115 178l-114 -178q-18 -31 -43 -30h-70q-18 0 -22 9z" />
<glyph unicode="&#x11d;" d="M147 260v551q0 129 75 204t227 75q209 0 370 -134l4 84q2 33 33 33h78q33 0 33 -33v-1208q0 -279 -408 -278h-295q-33 0 -33 28v66q0 31 33 30h295q258 0 258 168v263q-172 -125 -368 -125q-152 0 -227 74.5t-75 201.5zM297 283q0 -72 47 -118t143 -46q164 0 330 123v587 q-160 123 -330 123q-96 0 -143 -45t-47 -116v-508zM318 1242q-2 3 -1 7q0 7 7 15l163 241q25 31 52 31h55q27 0 51 -29l170 -243q6 -10 6 -17q0 -14 -24 -14h-70q-25 0 -43 31l-115 178l-114 -178q-18 -31 -45 -31h-70q-17 0 -22 9z" />
<glyph unicode="&#x11e;" horiz-adv-x="1230" d="M172 299v879q0 315 457.5 315t457.5 -315v-105q0 -31 -30 -31h-86q-33 0 -33 31v80q0 209 -306 209t-306 -209v-829q0 -209 306 -209t306 207v256h-291q-31 0 -31 32v70q0 31 31 31h408q33 0 32 -31v-381q0 -315 -457.5 -315t-457.5 315zM356 1845v35q0 29 29 29h55 q29 0 29 -29v-37q0 -70 30.5 -107.5t114.5 -37.5t115 37t31 108v37q0 29 31 29h53q29 0 28 -29v-35q0 -244 -260 -243q-139 0 -197.5 62t-58.5 181z" />
<glyph unicode="&#x11f;" d="M147 260v551q0 129 75 204t227 75q209 0 370 -134l4 84q2 33 33 33h78q33 0 33 -33v-1208q0 -279 -408 -278h-295q-33 0 -33 28v66q0 31 33 30h295q258 0 258 168v263q-172 -125 -368 -125q-152 0 -227 74.5t-75 201.5zM297 283q0 -72 47 -118t143 -46q164 0 330 123v587 q-160 123 -330 123q-96 0 -143 -45t-47 -116v-508zM305 1448v35q0 29 31 28h55q29 0 29 -28v-37q0 -70 29.5 -108t114.5 -38t116 37t31 109v37q0 29 28 28h56q29 0 28 -28v-35q0 -244 -260 -244q-139 0 -198.5 62.5t-59.5 181.5z" />
<glyph unicode="&#x120;" horiz-adv-x="1230" d="M172 293v876q0 317 457.5 317.5t457.5 -317.5v-104q0 -29 -30 -29h-86q-33 0 -33 29v82q0 207 -306 207t-306 -207v-830q0 -209 306 -208.5t306 206.5v256h-291q-31 0 -31 33v70q0 29 31 28h408q33 0 32 -28v-381q0 -317 -457.5 -317t-457.5 317zM539 1642v173 q0 31 30 30h90q31 0 31 -30v-173q0 -29 -31 -28h-90q-30 -1 -30 28z" />
<glyph unicode="&#x121;" d="M147 260v551q0 129 75 204t227 75q209 0 370 -134l4 84q2 33 33 33h78q33 0 33 -33v-1208q0 -279 -408 -278h-295q-33 0 -33 28v66q0 31 33 30h295q258 0 258 168v263q-172 -125 -368 -125q-152 0 -227 74.5t-75 201.5zM297 283q0 -72 47 -118t143 -46q164 0 330 123v587 q-160 123 -330 123q-96 0 -143 -45t-47 -116v-508zM475 1298v168q0 31 31 31h92q29 0 29 -31v-168q0 -33 -29 -32h-92q-31 -1 -31 32z" />
<glyph unicode="&#x122;" horiz-adv-x="1230" d="M172 299v879q0 315 457.5 315t457.5 -315v-105q0 -31 -30 -31h-86q-33 0 -33 31v80q0 209 -306 209t-306 -209v-829q0 -209 306 -209t306 207v256h-291q-31 0 -31 32v70q0 31 31 31h408q33 0 32 -31v-381q0 -315 -457.5 -315t-457.5 315zM504 -424q6 18 20.5 46t19.5 41 t12 34.5t9 46.5t2 55v62q0 33 33 33h64q33 0 32 -33v-68q0 -113 -84 -256q-10 -18 -29 -18q-5 0 -12 2l-53 12q-20 4 -20 21q0 9 6 22z" />
<glyph unicode="&#x123;" d="M147 260v551q0 129 75 204t227 75q209 0 370 -134l4 84q2 33 33 33h78q33 0 33 -33v-1208q0 -279 -408 -278h-295q-33 0 -33 28v66q0 31 33 30h295q258 0 258 168v263q-172 -125 -368 -125q-152 0 -227 74.5t-75 201.5zM297 283q0 -72 47 -118t143 -46q164 0 330 123v587 q-160 123 -330 123q-96 0 -143 -45t-47 -116v-508zM469 1274v67q0 113 84 256q11 20 31 20q5 0 10 -1l53 -14q20 -4 20 -22q0 -9 -5 -21q-6 -16 -20.5 -45t-20 -42.5t-11.5 -35t-8 -45t-2 -56.5v-61q0 -33 -33 -33h-65q-33 0 -33 33z" />
<glyph unicode="&#x124;" horiz-adv-x="1329" d="M197 33v1411q0 33 30 33h92q31 0 31 -33v-598h631v598q0 33 31 33h94q29 0 29 -33v-1411q0 -33 -29 -33h-94q-31 0 -31 33v684h-631v-684q0 -33 -31 -33h-92q-30 0 -30 33zM415 1611q-2 3 -2 6q0 7 7 15l166 242q25 33 51 33h55q29 0 51 -31l166 -244q7 -8 7 -15 q0 -3 -2 -6q-5 -9 -21 -9h-70q-25 0 -43 30l-116 178l-115 -178q-16 -31 -43 -30h-70q-16 0 -21 9z" />
<glyph unicode="&#x125;" horiz-adv-x="1148" d="M-2 1611q-1 3 -1 6q0 7 5 15l168 242q23 33 49 33h57q27 0 50 -31l168 -244q10 -12 5 -21t-24 -9h-69q-23 0 -44 30l-114 178l-115 -178q-18 -31 -45 -30h-68q-18 0 -22 9zM172 33v1452q0 33 33 33h86q31 0 31 -33v-522q154 127 368 127q145 0 222 -74t77 -193v-790 q0 -33 -28 -33h-89q-33 0 -32 33v758q0 164 -191 163q-172 0 -327 -120v-801q0 -33 -31 -33h-86q-33 0 -33 33z" />
<glyph unicode="&#x126;" horiz-adv-x="1329" d="M84 1108v45q0 31 33 31h80v260q0 33 30 33h92q31 0 31 -33v-260h631v260q0 33 31 33h94q29 0 29 -33v-260h82q33 0 32 -31v-45q0 -33 -32 -33h-82v-1042q0 -33 -29 -33h-94q-31 0 -31 33v684h-631v-684q0 -33 -31 -33h-92q-31 0 -30 33v1042h-80q-33 0 -33 33zM350 846 h631v229h-631v-229z" />
<glyph unicode="&#x127;" horiz-adv-x="1148" d="M31 1245v47q0 31 32 31h109v162q0 33 33 33h86q31 0 31 -33v-162h307q33 0 33 -31v-47q0 -31 -33 -31h-307v-251q154 127 368 127q145 0 222 -74t77 -193v-790q0 -33 -28 -33h-89q-33 0 -32 33v758q0 164 -191 163q-172 0 -327 -120v-801q0 -33 -31 -33h-86q-33 0 -33 33 v1181h-109q-32 0 -32 31z" />
<glyph unicode="&#x128;" horiz-adv-x="546" d="M-39 1665l4 59q10 170 156 170q61 0 121 -41l94 -69q53 -39 84 -39q35 0 44 20.5t11 83.5v19q0 27 35 26h47q29 0 29 -34l-2 -54q-6 -176 -158 -176q-59 0 -117 39l-98 70q-53 39 -80 39q-37 0 -47 -20.5t-12 -82.5v-16q0 -31 -33 -31h-49q-29 0 -29 37zM197 33v1411 q0 33 30 33h92q31 0 31 -33v-1411q0 -33 -31 -33h-92q-30 0 -30 33z" />
<glyph unicode="&#x129;" horiz-adv-x="491" d="M-68 1282l5 59q12 172 157 172q59 0 119 -40l96 -70q51 -39 82 -39q35 0 44 20.5t11 83.5v17q0 29 35 28h49q27 0 27 -34l-2 -56q-6 -174 -158 -174q-59 0 -116 39l-99 68q-51 41 -80 41q-37 0 -47 -21.5t-12 -81.5v-18q0 -31 -33 -31h-49q-29 0 -29 37zM172 33v1007 q0 33 31 33h88q31 0 31 -33v-1007q0 -33 -31 -33h-88q-31 0 -31 33z" />
<glyph unicode="&#x12a;" horiz-adv-x="546" d="M-31 1708v55q0 33 33 33h545q33 0 33 -33v-55q0 -31 -33 -31h-545q-33 0 -33 31zM197 33v1411q0 33 30 33h92q31 0 31 -33v-1411q0 -33 -31 -33h-92q-30 0 -30 33z" />
<glyph unicode="&#x12b;" horiz-adv-x="491" d="M-57 1329v53q0 31 30 31h547q33 0 33 -31v-53q0 -33 -33 -33h-547q-30 0 -30 33zM172 33v1007q0 33 31 33h88q31 0 31 -33v-1007q0 -33 -31 -33h-88q-31 0 -31 33z" />
<glyph unicode="&#x12c;" horiz-adv-x="546" d="M14 1845v35q0 29 29 29h57q29 0 29 -29v-37q0 -70 29.5 -107.5t114.5 -37.5t116 37t31 108v37q0 29 29 29h55q29 0 28 -29v-35q0 -244 -262 -243q-137 0 -196.5 62t-59.5 181zM197 33v1411q0 33 30 33h92q31 0 31 -33v-1411q0 -33 -31 -33h-92q-30 0 -30 33z" />
<glyph unicode="&#x12d;" horiz-adv-x="491" d="M-12 1448v35q0 29 28 28h56q29 0 28 -28v-37q0 -70 30 -108t115 -38t115.5 37t30.5 109v37q0 29 31 28h53q29 0 29 -28v-35q0 -244 -260 -244q-139 0 -197.5 62.5t-58.5 181.5zM172 33v1007q0 33 31 33h88q31 0 31 -33v-1007q0 -33 -31 -33h-88q-31 0 -31 33z" />
<glyph unicode="&#x12e;" horiz-adv-x="546" d="M41 -160q0 55 41 120t115 101v1383q0 33 30 33h92q31 0 31 -33v-1411q0 -33 -31 -33h-30q-63 -6 -96 -46t-33 -91q0 -90 119 -90h53q31 0 30 -31v-43q0 -33 -38 -33h-80q-88 0 -145.5 42t-57.5 132z" />
<glyph unicode="&#x12f;" horiz-adv-x="493" d="M14 -160q0 55 42 121t116 100v979q0 33 33 33h86q31 0 31 -33v-1007q0 -33 -31 -33h-27q-129 -23 -129 -137q0 -90 119 -90h51q33 0 33 -31v-43q0 -33 -41 -33h-80q-86 0 -144.5 42t-58.5 132zM172 1282v203q0 33 33 33h86q31 0 31 -33v-203q0 -31 -31 -31h-86 q-33 0 -33 31z" />
<glyph unicode="&#x130;" horiz-adv-x="546" d="M197 33v1411q0 33 30 33h92q31 0 31 -33v-1411q0 -33 -31 -33h-92q-30 0 -30 33zM197 1651v170q0 31 30 30h92q31 0 31 -30v-170q0 -31 -31 -31h-92q-30 0 -30 31z" />
<glyph unicode="&#x131;" horiz-adv-x="491" d="M172 33v1007q0 33 31 33h88q31 0 31 -33v-1007q0 -33 -31 -33h-88q-31 0 -31 33z" />
<glyph unicode="&#x132;" horiz-adv-x="1622" d="M197 33v1411q0 33 30 33h92q31 0 31 -33v-1411q0 -33 -31 -33h-92q-30 0 -30 33zM612 299v98q0 35 33 35h88q31 0 31 -35v-73q0 -102 58.5 -155.5t203.5 -53.5t203.5 53t58.5 156v1120q0 33 29 33h92q33 0 33 -33v-1145q0 -147 -92.5 -231t-323.5 -84q-414 0 -414 315z " />
<glyph unicode="&#x133;" horiz-adv-x="985" d="M172 33v1007q0 33 33 33h86q31 0 31 -33v-1007q0 -33 -31 -33h-86q-33 0 -33 33zM172 1282v203q0 33 33 33h86q31 0 31 -33v-203q0 -31 -31 -31h-86q-33 0 -33 31zM365 -352q0 31 30 30h15q254 0 254 168v1194q0 33 30 33h90q31 0 31 -33v-1208q0 -279 -405 -278h-15 q-31 0 -30 28v66zM664 1282v203q0 33 30 33h90q31 0 31 -33v-203q0 -31 -31 -31h-90q-30 0 -30 31z" />
<glyph unicode="&#x134;" horiz-adv-x="1077" d="M66 299v98q0 35 32 35h88q31 0 31 -35v-73q0 -102 58.5 -155.5t204 -53.5t202.5 53t57 156v1120q0 33 31 33h92q33 0 33 -33v-1145q0 -147 -92 -231t-324 -84q-413 0 -413 315zM562 1611q-2 3 -2 6q0 7 7 15l166 242q25 33 51 33h56q29 0 51 -31l166 -244q8 -8 8 -15 q0 -3 -2 -6q-6 -9 -23 -9h-69q-25 0 -43 30l-117 178l-115 -178q-16 -31 -43 -30h-69q-17 0 -22 9z" />
<glyph unicode="&#x135;" horiz-adv-x="491" d="M-129 -356q0 33 33 32h14q254 0 254 168v1196q0 33 31 33h88q31 0 31 -33v-1210q0 -279 -404 -279h-14q-33 0 -33 31v62zM4 1264l166 241q23 31 49 31h57q27 0 50 -29l170 -243q6 -10 6 -17q0 -14 -25 -14h-69q-23 0 -43 31l-115 178l-115 -178q-18 -31 -43 -31h-69 q-25 0 -26 13q0 7 7 18z" />
<glyph unicode="&#x136;" horiz-adv-x="1189" d="M195 33v1411q0 33 32 33h92q31 0 31 -33v-647h68l500 649q25 31 55 31h100q16 0 20.5 -9.5t-6.5 -23.5l-540 -694l602 -717q5 -7 5 -14q0 -4 -1 -8q-4 -11 -20 -11h-121q-27 0 -49 33l-545 647h-68v-647q0 -33 -31 -33h-92q-32 0 -32 33zM471 -424q6 18 20.5 46t19.5 41 t12 34.5t9.5 46.5t2.5 55v62q0 33 32 33h64q33 0 33 -33v-68q0 -113 -84 -256q-10 -18 -30 -18q-5 0 -11 2l-54 12q-19 4 -19 22q0 9 5 21z" />
<glyph unicode="&#x137;" horiz-adv-x="995" d="M172 33v1452q0 33 31 33h88q31 0 31 -33v-826h71l369 381q29 33 53 33h96q18 0 22.5 -10t-5.5 -23l-412 -432l461 -575q7 -7 7 -14q0 -4 -2 -8q-5 -11 -19 -11h-99q-27 0 -53 33l-416 512h-73v-512q0 -33 -31 -33h-88q-31 0 -31 33zM389 -424q6 18 20.5 46t19.5 41 t11 34.5t8.5 46.5t2.5 55v62q0 33 32 33h66q33 0 33 -33v-68q0 -113 -84 -256q-11 -18 -30 -18q-5 0 -11 2l-54 12q-20 4 -20 21q0 9 6 22z" />
<glyph unicode="&#x138;" horiz-adv-x="995" d="M172 33v1007q0 33 31 33h88q31 0 31 -33v-387h71l369 387q33 33 53 33h96q18 0 22.5 -10t-5.5 -23l-412 -440l461 -567q7 -7 7 -14q0 -4 -2 -8q-5 -11 -19 -11h-99q-27 0 -53 33l-416 504h-73v-504q0 -33 -31 -33h-88q-31 0 -31 33z" />
<glyph unicode="&#x139;" horiz-adv-x="1062" d="M197 33v1411q0 33 30 33h95q31 0 30 -33v-1311h609q29 0 28 -31v-69q0 -33 -28 -33h-738q-26 0 -26 33zM215 1632l145 244q20 31 41 31h97q24 0 23 -14q0 -8 -7 -19l-172 -252q-14 -20 -41 -20h-72q-21 0 -21 12q0 7 7 18z" />
<glyph unicode="&#x13a;" horiz-adv-x="491" d="M172 33v1452q0 33 33 33h86q31 0 31 -33v-1452q0 -33 -31 -33h-86q-33 0 -33 33zM190 1632l146 244q20 31 41 31h96q25 0 25 -15q0 -7 -6 -18l-173 -252q-16 -20 -40 -20h-72q-22 0 -22 13q0 7 5 17z" />
<glyph unicode="&#x13b;" horiz-adv-x="1062" d="M197 33v1411q0 33 30 33h95q31 0 30 -33v-1311h609q29 0 28 -31v-69q0 -33 -28 -33h-738q-26 0 -26 33zM442 -424q6 18 20.5 46t19.5 41t12.5 34.5t9.5 46.5t2 55v62q0 33 33 33h65q33 0 33 -33v-68q0 -113 -86 -256q-10 -18 -30 -18q-5 0 -11 2l-51 12q-21 4 -21 23 q-1 8 4 20z" />
<glyph unicode="&#x13c;" horiz-adv-x="491" d="M119 -426q6 18 20.5 46t20.5 41t12 34.5t8 46.5t2 55v62q0 33 33 32h66q33 0 32 -32v-68q0 -113 -86 -256q-10 -18 -29 -18q-5 0 -12 2l-51 12q-21 4 -21 23q0 8 5 20zM172 33v1452q0 33 33 33h86q31 0 31 -33v-1452q0 -33 -31 -33h-86q-33 0 -33 33z" />
<glyph unicode="&#x13d;" horiz-adv-x="1062" d="M197 33v1411q0 33 30 33h95q31 0 30 -33v-1311h609q29 0 28 -31v-69q0 -33 -28 -33h-738q-26 0 -26 33zM645 1219q6 16 20.5 44.5t19.5 41t11 35t9.5 46t3.5 56.5v61q0 31 30 31h66q33 0 33 -31v-67q0 -113 -84 -256q-11 -20 -31 -20q-5 0 -10 1l-54 13q-20 5 -20 22 q0 10 6 23z" />
<glyph unicode="&#x13e;" horiz-adv-x="608" d="M172 33v1452q0 33 33 33h86q31 0 31 -33v-1452q0 -33 -31 -33h-86q-33 0 -33 33zM432 1243q6 18 20.5 46t19.5 41t12.5 34.5t9.5 46.5t2 57v60q0 33 32 33h64q33 0 33 -33v-68q0 -113 -84 -256q-10 -18 -30 -17q-5 0 -11 1l-54 12q-19 4 -19 22q0 9 5 21z" />
<glyph unicode="&#x13f;" horiz-adv-x="1062" d="M197 33v1411q0 33 30 33h95q31 0 30 -33v-1311h609q29 0 28 -31v-69q0 -33 -28 -33h-738q-26 0 -26 33zM729 684v170q0 31 33 31h92q29 0 29 -31v-170q0 -33 -29 -33h-92q-33 0 -33 33z" />
<glyph unicode="&#x140;" horiz-adv-x="667" d="M172 33v1452q0 33 33 33h86q31 0 31 -33v-1452q0 -33 -31 -33h-86q-33 0 -33 33zM481 684v170q0 31 33 31h92q31 0 31 -31v-170q0 -33 -31 -33h-92q-33 0 -33 33z" />
<glyph unicode="&#x141;" horiz-adv-x="1062" d="M33 657q-3 7 -3 14q0 16 19 25l148 62v686q0 33 30 33h95q31 0 30 -33v-623l133 56q29 12 43 -17l15 -33q12 -27 -21 -41l-170 -69v-584h609q29 0 28 -31v-69q0 -33 -28 -33h-738q-27 0 -26 33v620l-111 -45q-27 -14 -41 17z" />
<glyph unicode="&#x142;" horiz-adv-x="532" d="M10 657q-3 7 -3 13q0 16 24 26l159 66v723q0 33 33 33h88q29 0 29 -33v-660l127 52q27 12 39 -17l14 -33q4 -8 5 -15q0 -16 -23 -26l-162 -67v-686q0 -33 -29 -33h-88q-33 0 -33 33v624l-122 -49q-27 -10 -41 17z" />
<glyph unicode="&#x143;" horiz-adv-x="1329" d="M195 33v1411q0 33 32 33h84q18 0 25 -15l590 -1034l63 -131v1147q0 33 31 33h82q31 0 31 -33v-1411q0 -33 -31 -33h-82q-20 0 -31 14l-575 1022q-66 113 -74 138v-1141q0 -33 -29 -33h-84q-32 0 -32 33zM610 1632l146 244q18 31 41 31h96q24 0 24 -14q0 -8 -8 -19 l-172 -252q-14 -20 -41 -20h-71q-21 0 -21 12q-1 7 6 18z" />
<glyph unicode="&#x144;" horiz-adv-x="1148" d="M172 33v1007q0 33 33 33h78q31 0 32 -33l4 -84q154 133 371 134q145 0 222 -74t77 -193v-790q0 -33 -28 -33h-89q-33 0 -32 33v758q0 164 -191 163q-172 0 -327 -120v-801q0 -33 -31 -33h-86q-33 0 -33 33zM522 1264l146 243q20 29 45 29h94q25 0 25 -12q0 -7 -9 -19 l-172 -252q-14 -20 -39 -20h-71q-25 0 -25 14q0 7 6 17z" />
<glyph unicode="&#x145;" horiz-adv-x="1329" d="M195 33v1411q0 33 32 33h84q18 0 25 -15l590 -1034l63 -131v1147q0 33 31 33h82q31 0 31 -33v-1411q0 -33 -31 -33h-82q-20 0 -31 14l-575 1022q-66 113 -74 138v-1141q0 -33 -29 -33h-84q-32 0 -32 33zM545 -426q6 18 20.5 46t19.5 41t12 34.5t9 46.5t2 55v62 q0 33 33 32h64q33 0 32 -32v-68q0 -113 -84 -256q-10 -18 -29 -18q-5 0 -12 2l-53 12q-19 4 -19 22q0 9 5 21z" />
<glyph unicode="&#x146;" horiz-adv-x="1148" d="M172 33v1007q0 33 33 33h78q31 0 32 -33l4 -84q154 133 371 134q145 0 222 -74t77 -193v-790q0 -33 -28 -33h-89q-33 0 -32 33v758q0 164 -191 163q-172 0 -327 -120v-801q0 -33 -31 -33h-86q-33 0 -33 33zM451 -424l21 46l20 41q6 13 12 34.5t8 46.5t2 55v62q0 33 33 33 h65q33 0 33 -33v-68q0 -113 -86 -256q-10 -18 -29 -18q-5 0 -12 2l-51 12q-21 4 -21 23q0 8 5 20z" />
<glyph unicode="&#x147;" horiz-adv-x="1329" d="M195 33v1411q0 33 32 33h84q18 0 25 -15l590 -1034l63 -131v1147q0 33 31 33h82q31 0 31 -33v-1411q0 -33 -31 -33h-82q-20 0 -31 14l-575 1022q-66 113 -74 138v-1141q0 -33 -29 -33h-84q-32 0 -32 33zM415 1896q5 10 21 11h70q25 0 43 -33l115 -178l116 178 q18 33 43 33h70q16 0 21 -11q2 -3 2 -7q0 -7 -7 -15l-166 -242q-23 -31 -51 -30h-55q-29 0 -51 32l-166 240q-7 8 -7 15q0 4 2 7z" />
<glyph unicode="&#x148;" horiz-adv-x="1148" d="M172 33v1007q0 33 33 33h78q31 0 32 -33l4 -84q154 133 371 134q145 0 222 -74t77 -193v-790q0 -33 -28 -33h-89q-33 0 -32 33v758q0 164 -191 163q-172 0 -327 -120v-801q0 -33 -31 -33h-86q-33 0 -33 33zM325 1527q5 9 23 9h70q23 0 43 -31l114 -178l115 178 q20 31 43 31h70q25 0 24 -14q0 -7 -6 -17l-170 -241q-23 -31 -49 -31h-57q-29 0 -49 33l-166 239q-7 8 -7 15q0 4 2 7z" />
<glyph unicode="&#x149;" horiz-adv-x="1148" d="M102 1243q6 18 20.5 46t19.5 41t11.5 34.5t9.5 46.5t3 57v60q0 33 31 33h65q33 0 33 -33v-68q0 -113 -84 -256q-14 -23 -41 -16l-53 12q-20 4 -20 21q-1 9 5 22zM172 33v1007q0 33 33 33h78q31 0 32 -33l4 -84q154 133 371 134q145 0 222 -74t77 -193v-790q0 -33 -28 -33 h-89q-33 0 -32 33v758q0 164 -191 163q-172 0 -327 -120v-801q0 -33 -31 -33h-86q-33 0 -33 33z" />
<glyph unicode="&#x14a;" horiz-adv-x="1329" d="M195 33v1411q0 33 32 33h84q18 0 25 -15l590 -1034l63 -131v1147q0 33 31 33h82q31 0 31 -33v-1614q0 -279 -400 -279h-12q-33 0 -33 31v62q0 33 33 32h12q256 0 256 168v172l-575 1020q-41 72 -74 144v-1147q0 -33 -29 -33h-84q-32 0 -32 33z" />
<glyph unicode="&#x14b;" horiz-adv-x="1148" d="M172 33v1007q0 33 31 33h80q33 0 32 -33l2 -84q160 133 373 134q145 0 222 -73t77 -192v-995q0 -279 -403 -279h-13q-33 0 -32 31v62q0 33 32 32h13q254 0 254 168v949q0 168 -191 168q-176 0 -327 -125v-803q0 -33 -31 -33h-88q-31 0 -31 33z" />
<glyph unicode="&#x14c;" horiz-adv-x="1282" d="M172 299v879q0 315 469 315q471 0 471 -315v-879q0 -315 -471 -315q-469 0 -469 315zM326 324q0 -209 315 -209t315 209v829q0 209 -315 209t-315 -209v-829zM336 1708v55q0 33 33 33h544q33 0 33 -33v-55q0 -31 -33 -31h-544q-33 0 -33 31z" />
<glyph unicode="&#x14d;" horiz-adv-x="1112" d="M147 262v547q0 281 408 281q412 0 412 -281v-547q0 -279 -412 -278q-408 -1 -408 278zM252 1329v53q0 31 31 31h546q33 0 33 -31v-53q0 -33 -33 -33h-546q-31 0 -31 33zM297 274q0 -168 258 -168q262 0 262 168v525q0 168 -262 168q-258 0 -258 -168v-525z" />
<glyph unicode="&#x14e;" horiz-adv-x="1282" d="M172 299v879q0 315 469 315q471 0 471 -315v-879q0 -315 -471 -315q-469 0 -469 315zM326 324q0 -209 315 -209t315 209v829q0 209 -315 209t-315 -209v-829zM383 1845v35q0 29 27 29h57q29 0 29 -29v-37q0 -70 29.5 -107.5t114.5 -37.5t115.5 37t30.5 108v37q0 29 31 29 h53q29 0 29 -29v-35q0 -244 -260 -243q-139 0 -197.5 62t-58.5 181z" />
<glyph unicode="&#x14f;" horiz-adv-x="1112" d="M147 262v547q0 281 408 281q412 0 412 -281v-547q0 -279 -412 -278q-408 -1 -408 278zM289 1448v35q0 29 30 28h54q29 0 28 -28v-37q0 -70 31 -108t115 -38t114.5 37t30.5 109v37q0 29 31 28h53q29 0 29 -28v-35q0 -244 -260 -244q-139 0 -197.5 62.5t-58.5 181.5z M297 274q0 -168 258 -168q262 0 262 168v525q0 168 -262 168q-258 0 -258 -168v-525z" />
<glyph unicode="&#x150;" horiz-adv-x="1282" d="M172 299v879q0 315 469 315q471 0 471 -315v-879q0 -315 -471 -315q-469 0 -469 315zM326 324q0 -209 315 -209t315 209v829q0 209 -315 209t-315 -209v-829zM459 1632l119 242q14 33 45 33h77q18 0 24.5 -10.5t-1.5 -22.5l-135 -242q-16 -31 -43 -30h-68q-24 0 -23 14 q0 6 5 16zM678 1632l149 242q20 33 50 33h79q26 0 26 -13q0 -8 -9 -20l-168 -244q-18 -29 -45 -28h-68q-22 0 -22 12q0 7 8 18z" />
<glyph unicode="&#x151;" horiz-adv-x="1112" d="M147 262v547q0 281 408 281q412 0 412 -281v-547q0 -279 -412 -278q-408 -1 -408 278zM297 274q0 -168 258 -168q262 0 262 168v525q0 168 -262 168q-258 0 -258 -168v-525zM383 1264l119 241q14 31 45 31h78q18 0 24 -9t-2 -22l-135 -241q-16 -31 -43 -31h-68 q-24 0 -23 14q0 7 5 17zM602 1264l152 241q16 31 49 31h78q25 0 24 -12q0 -7 -8 -19l-168 -243q-18 -29 -45 -29h-68q-22 0 -21 12q-1 8 7 19z" />
<glyph unicode="&#x152;" horiz-adv-x="1896" d="M172 299v879q0 315 469 315q199 0 315 -84v35q0 33 31 33h744q31 0 30 -31v-68q0 -31 -30 -30h-619v-512h580q33 0 32 -31v-62q0 -31 -32 -30h-580v-584h645q29 0 29 -31v-65q0 -33 -29 -33h-770q-31 0 -31 33v35q-113 -84 -315 -84q-469 0 -469 315zM326 324 q0 -213 315 -213q309 0 315 202v848q-6 205 -315 205q-315 0 -315 -213v-829z" />
<glyph unicode="&#x153;" horiz-adv-x="1736" d="M147 260v549q0 281 408 281q240 0 326 -101q94 100 336 101q211 0 301 -73t90 -208v-260q0 -31 -27 -31h-616v-252q0 -168 251.5 -168t251.5 168v39q0 33 31 33h74q31 0 31 -33v-45q0 -131 -89.5 -203.5t-297.5 -72.5q-242 0 -336 96q-86 -96 -326 -96q-408 0 -408 276z M297 270q0 -166 258 -166q262 0 262 166v531q0 168 -262 168q-258 0 -258 -168v-531zM965 625h503v180q0 170 -251.5 170t-251.5 -170v-180z" />
<glyph unicode="&#x154;" horiz-adv-x="1280" d="M197 33v1411q0 33 28 33h430q471 0 471 -318v-244q0 -236 -268 -294l281 -588q4 -8 4 -14q0 -7 -5 -11q-9 -8 -28 -8h-92q-20 0 -39 33l-268 569h-361v-569q0 -33 -31 -33h-92q-30 0 -30 33zM350 731h305q317 0 318 211v193q0 209 -318 208h-305v-612zM522 1632l146 244 q20 31 43 31h94q25 0 24 -15q0 -7 -6 -18l-172 -252q-14 -20 -41 -20h-71q-22 0 -22 13q0 7 5 17z" />
<glyph unicode="&#x155;" horiz-adv-x="747" d="M172 33v1007q0 33 33 33h78q31 0 32 -33l7 -106q170 156 354 156q35 0 35 -33v-72q0 -33 -35 -33q-190 -6 -354 -145v-774q0 -33 -31 -33h-86q-33 0 -33 33zM229 1264l146 243q20 29 45 29h94q25 0 25 -12q0 -7 -9 -19l-172 -252q-16 -20 -39 -20h-71q-25 0 -25 14 q0 7 6 17z" />
<glyph unicode="&#x156;" horiz-adv-x="1280" d="M197 33v1411q0 33 28 33h430q471 0 471 -318v-244q0 -236 -268 -294l281 -588q4 -8 4 -14q0 -7 -5 -11q-9 -8 -28 -8h-92q-20 0 -39 33l-268 569h-361v-569q0 -33 -31 -33h-92q-30 0 -30 33zM350 731h305q317 0 318 211v193q0 209 -318 208h-305v-612zM508 -424 q6 18 20.5 46t19.5 41t12 34.5t9 46.5t2 55v62q0 33 33 33h64q33 0 32 -33v-68q0 -113 -84 -256q-10 -18 -29 -18q-5 0 -12 2l-53 12q-19 4 -19 22q0 9 5 21z" />
<glyph unicode="&#x157;" horiz-adv-x="747" d="M119 -424q6 18 20.5 46t20.5 41t12 34.5t8 46.5t2 55v62q0 33 33 33h66q33 0 32 -33v-68q0 -113 -86 -256q-10 -18 -29 -18q-5 0 -12 2l-51 12q-21 4 -21 23q0 8 5 20zM172 33v1007q0 33 33 33h78q31 0 32 -33l7 -106q170 156 354 156q35 0 35 -33v-72q0 -33 -35 -33 q-190 -6 -354 -145v-774q0 -33 -31 -33h-86q-33 0 -33 33z" />
<glyph unicode="&#x158;" horiz-adv-x="1280" d="M197 33v1411q0 33 28 33h430q471 0 471 -318v-244q0 -236 -268 -294l281 -588q4 -8 4 -14q0 -7 -5 -11q-9 -8 -28 -8h-92q-20 0 -39 33l-268 569h-361v-569q0 -33 -31 -33h-92q-30 0 -30 33zM350 731h305q317 0 318 211v193q0 209 -318 208h-305v-612zM369 1896 q4 10 22 11h70q23 0 43 -33l114 -178l115 178q20 33 43 33h70q18 0 23 -11q2 -3 2 -7q0 -7 -7 -15l-168 -242q-23 -31 -49 -30h-57q-27 0 -49 32l-168 240q-5 8 -6 15q1 4 2 7z" />
<glyph unicode="&#x159;" horiz-adv-x="747" d="M123 1527q6 9 22 9h70q25 0 43 -31l115 -178l114 178q20 31 45 31h70q37 0 16 -31l-169 -241q-23 -31 -50 -31h-57q-27 0 -49 33l-164 239q-8 8 -8 15q0 4 2 7zM172 33v1007q0 33 33 33h78q31 0 32 -33l7 -106q170 156 354 156q35 0 35 -33v-72q0 -33 -35 -33 q-190 -6 -354 -145v-774q0 -33 -31 -33h-86q-33 0 -33 33z" />
<glyph unicode="&#x15a;" horiz-adv-x="1224" d="M154 299v121q0 31 30 31h90q29 0 29 -31v-101q0 -207 313 -206q315 0 316 206v136q0 76 -49 116.5t-131 73.5l-390 150q-76 29 -132 98.5t-56 161.5v123q0 315 447 315q453 0 452 -315v-103q0 -33 -33 -33h-90q-31 0 -30 33v82q0 100 -68 153.5t-229.5 53.5t-230 -53.5 t-68.5 -153.5v-65q0 -119 125 -170l409 -154q225 -84 225 -283v-186q0 -315 -464.5 -315t-464.5 315zM559 1632l146 244q20 31 43 31h94q25 0 24 -15q0 -7 -6 -18l-172 -252q-14 -20 -41 -20h-72q-22 0 -21 13q0 7 5 17z" />
<glyph unicode="&#x15b;" horiz-adv-x="1009" d="M119 227v60q0 31 31 30h79q29 0 29 -30v-54q0 -135 254 -135q125 0 190.5 36t65.5 99v82q0 80 -127 121l-336 111q-63 23 -114.5 79t-51.5 132v84q0 109 90 178.5t285 69.5t287 -70t92 -178v-62q0 -29 -31 -28h-80q-29 0 -28 28v62q0 135 -242 135q-236 0 -236 -135v-56 q0 -86 111 -120l334 -109q186 -59 186 -205v-125q0 -106 -98 -174.5t-296 -68.5t-296 68.5t-98 174.5zM457 1264l145 243q18 29 43 29h94q26 0 26 -12q0 -7 -9 -19l-172 -252q-14 -20 -39 -20h-72q-24 0 -24 13q1 7 8 18z" />
<glyph unicode="&#x15c;" horiz-adv-x="1224" d="M154 299v121q0 31 30 31h90q29 0 29 -31v-101q0 -207 313 -206q315 0 316 206v136q0 76 -49 116.5t-131 73.5l-390 150q-76 29 -132 98.5t-56 161.5v123q0 315 447 315q453 0 452 -315v-103q0 -33 -33 -33h-90q-31 0 -30 33v82q0 100 -68 153.5t-229.5 53.5t-230 -53.5 t-68.5 -153.5v-65q0 -119 125 -170l409 -154q225 -84 225 -283v-186q0 -315 -464.5 -315t-464.5 315zM362 1611q-1 3 -1 6q0 7 6 15l168 242q23 33 49 33h57q27 0 49 -31l168 -244q7 -8 7 -15q0 -3 -2 -6q-5 -9 -23 -9h-70q-23 0 -43 30l-115 178l-114 -178q-18 -31 -43 -30 h-70q-19 0 -23 9z" />
<glyph unicode="&#x15d;" horiz-adv-x="1009" d="M119 227v60q0 31 31 30h79q29 0 29 -30v-54q0 -135 254 -135q125 0 190.5 36t65.5 99v82q0 80 -127 121l-336 111q-63 23 -114.5 79t-51.5 132v84q0 109 90 178.5t285 69.5t287 -70t92 -178v-62q0 -29 -31 -28h-80q-29 0 -28 28v62q0 135 -242 135q-236 0 -236 -135v-56 q0 -86 111 -120l334 -109q186 -59 186 -205v-125q0 -106 -98 -174.5t-296 -68.5t-296 68.5t-98 174.5zM260 1264l166 241q23 31 49 31h57q27 0 50 -29l170 -243q6 -10 6 -17q0 -14 -25 -14h-69q-23 0 -43 31l-115 178l-115 -178q-18 -31 -43 -31h-69q-25 0 -26 13q0 7 7 18z " />
<glyph unicode="&#x15e;" horiz-adv-x="1224" d="M154 299v121q0 31 30 31h90q29 0 29 -31v-101q0 -207 313 -206q315 0 316 206v136q0 76 -49 116.5t-131 73.5l-390 150q-76 29 -132 98.5t-56 161.5v123q0 315 447 315q453 0 452 -315v-103q0 -33 -33 -33h-90q-31 0 -30 33v82q0 100 -68 153.5t-229.5 53.5t-230 -53.5 t-68.5 -153.5v-65q0 -119 125 -170l409 -154q225 -84 225 -283v-186q0 -307 -442 -315l-27 -99h80q76 0 128 -41t52 -128t-52 -131t-128 -44h-252q-33 0 -32 33v33q0 31 32 31h232q90 0 90 75.5t-90 75.5h-135q-43 0 -44 27q0 6 3 14l41 156q-385 24 -385 313z" />
<glyph unicode="&#x15f;" horiz-adv-x="1009" d="M119 227v60q0 31 31 30h79q29 0 29 -30v-54q0 -135 254 -135q125 0 190.5 36t65.5 99v82q0 80 -127 121l-336 111q-63 23 -114.5 79t-51.5 132v84q0 109 90 178.5t285 69.5t287 -70t92 -178v-62q0 -29 -31 -28h-80q-29 0 -28 28v62q0 135 -242 135q-236 0 -236 -135v-56 q0 -86 111 -120l334 -109q186 -59 186 -205v-125q0 -104 -97 -172.5t-294 -70.5l-24 -99h79q76 0 128.5 -41t52.5 -128t-52.5 -131t-128.5 -44h-252q-33 0 -32 33v33q0 31 32 31h230q92 0 92 75.5t-92 75.5h-135q-43 1 -43 29q0 6 2 12l41 160q-150 14 -222.5 79.5 t-72.5 157.5z" />
<glyph unicode="&#x160;" horiz-adv-x="1224" d="M154 299v121q0 31 30 31h90q29 0 29 -31v-101q0 -207 313 -206q315 0 316 206v136q0 76 -49 116.5t-131 73.5l-390 150q-76 29 -132 98.5t-56 161.5v123q0 315 447 315q453 0 452 -315v-103q0 -33 -33 -33h-90q-31 0 -30 33v82q0 100 -68 153.5t-229.5 53.5t-230 -53.5 t-68.5 -153.5v-65q0 -119 125 -170l409 -154q225 -84 225 -283v-186q0 -315 -464.5 -315t-464.5 315zM371 1896q4 10 22 11h70q23 0 43 -33l115 -178l114 178q20 33 45 33h68q18 0 23 -11q2 -3 2 -7q0 -7 -7 -15l-168 -242q-20 -31 -49 -30h-57q-27 0 -49 32l-168 240 q-5 8 -6 15q1 4 2 7z" />
<glyph unicode="&#x161;" horiz-adv-x="1009" d="M119 227v60q0 31 31 30h79q29 0 29 -30v-54q0 -135 254 -135q125 0 190.5 36t65.5 99v82q0 80 -127 121l-336 111q-63 23 -114.5 79t-51.5 132v84q0 109 90 178.5t285 69.5t287 -70t92 -178v-62q0 -29 -31 -28h-80q-29 0 -28 28v62q0 135 -242 135q-236 0 -236 -135v-56 q0 -86 111 -120l334 -109q186 -59 186 -205v-125q0 -106 -98 -174.5t-296 -68.5t-296 68.5t-98 174.5zM265 1527q5 9 24 9h69q25 0 43 -31l115 -178l115 178q20 31 45 31h69q24 0 24 -13q0 -7 -7 -18l-170 -241q-23 -31 -49 -31h-58q-27 0 -49 33l-166 239q-7 8 -6 15 q-1 4 1 7z" />
<glyph unicode="&#x162;" horiz-adv-x="1046" d="M39 1376v68q0 33 33 33h903q33 0 33 -33v-68q0 -33 -33 -33h-373v-1310q0 -33 -31 -33h-94q-33 0 -33 33v1310h-372q-33 0 -33 33zM395 -424q6 18 20.5 46t19.5 41t12.5 34.5t9.5 46.5t2 55v62q0 33 33 33h63q33 0 33 -33v-68q0 -113 -84 -256q-10 -18 -30 -18 q-5 0 -11 2l-53 12q-19 4 -20 22q0 9 5 21z" />
<glyph unicode="&#x163;" horiz-adv-x="751" d="M57 977v51q0 31 29 33l115 8h16v229q0 33 33 33h88q31 0 31 -33v-229h243q33 0 33 -31v-61q0 -33 -33 -33h-243v-649q0 -82 57 -124t195 -42h36q33 0 33 -33v-63q0 -33 -33 -33h-55q-213 0 -299 69.5t-86 211.5v663h-131q-29 0 -29 33zM180 -426q6 18 20.5 46t19.5 41 t12.5 34.5t9.5 46.5t2 55v62q0 33 32 32h64q33 0 33 -32v-68q0 -113 -84 -256q-10 -18 -30 -18q-5 0 -11 2l-53 12q-19 4 -20 22q0 9 5 21z" />
<glyph unicode="&#x164;" horiz-adv-x="1046" d="M39 1376v68q0 33 33 33h903q33 0 33 -33v-68q0 -33 -33 -33h-373v-1310q0 -33 -31 -33h-94q-33 0 -33 33v1310h-372q-33 0 -33 33zM273 1896q5 10 22 11h70q25 0 43 -33l114 -178l117 178q18 33 43 33h70q16 0 22 -11q2 -3 2 -7q0 -7 -8 -15l-166 -242q-25 -31 -51 -30 h-55q-29 0 -52 32l-165 240q-7 8 -7 15q-1 4 1 7z" />
<glyph unicode="&#x165;" horiz-adv-x="790" d="M57 977v51q0 31 29 33l115 8h16v229q0 33 33 33h88q31 0 31 -33v-229h243q33 0 33 -31v-61q0 -33 -33 -33h-243v-649q0 -82 57 -124t195 -42h36q33 0 33 -33v-63q0 -33 -33 -33h-55q-213 0 -299 69.5t-86 211.5v663h-131q-29 0 -29 33zM479 1229q6 16 20.5 45t20.5 42 t12.5 34.5t8.5 45t2 56.5v61q0 33 32 33h66q33 0 33 -33v-67q0 -113 -86 -256q-10 -20 -30 -20q-5 0 -11 1l-51 15q-21 4 -21 22q-1 9 4 21z" />
<glyph unicode="&#x166;" horiz-adv-x="1046" d="M39 1376v68q0 33 33 33h903q33 0 33 -33v-68q0 -33 -33 -33h-373v-372h313q31 0 31 -31v-45q0 -33 -31 -33h-313v-829q0 -33 -31 -33h-94q-33 0 -33 33v829h-305q-33 0 -33 33v45q0 31 33 31h305v372h-372q-33 0 -33 33z" />
<glyph unicode="&#x167;" horiz-adv-x="751" d="M57 643v47q0 31 31 31h129v223h-131q-29 0 -29 33v51q0 31 29 33l115 8h16v229q0 33 33 33h88q31 0 31 -33v-229h243q33 0 33 -31v-61q0 -33 -33 -33h-243v-223h243q33 0 33 -31v-47q0 -31 -33 -31h-243v-317q0 -82 57 -124t195 -42h36q33 0 33 -33v-63q0 -33 -33 -33 h-55q-213 0 -299 69.5t-86 211.5v331h-129q-31 0 -31 31z" />
<glyph unicode="&#x168;" horiz-adv-x="1306" d="M184 299v1145q0 33 31 33h94q29 0 29 -33v-1120q0 -209 313 -209q319 0 320 209v1120q0 33 30 33h91q31 0 30 -33v-1145q0 -315 -471 -315q-467 0 -467 315zM340 1665l6 59q10 170 156 170q61 0 119 -41l96 -69q51 -39 82 -39q35 0 45 20.5t12 83.5v19q0 27 35 26h47 q29 0 29 -34l-2 -54q-8 -176 -160 -176q-57 0 -117 39l-98 70q-51 39 -80 39q-37 0 -46 -20.5t-13 -82.5v-16q0 -31 -31 -31h-51q-29 0 -29 37z" />
<glyph unicode="&#x169;" d="M158 248v792q0 33 30 33h91q31 0 30 -33v-757q0 -166 193 -166q166 0 313 121v802q0 33 29 33h90q31 0 31 -33v-1007q0 -33 -31 -33h-80q-31 0 -33 33l-4 78q-152 -127 -356 -127q-147 0 -225 72.5t-78 191.5zM254 1282l4 59q10 172 156 172q61 0 121 -40l94 -70 q53 -39 84 -39q35 0 44 20.5t11 83.5v17q0 29 35 28h49q27 0 27 -34l-2 -56q-6 -174 -158 -174q-59 0 -117 39l-98 68q-53 41 -80 41q-37 0 -47 -21.5t-12 -81.5v-18q0 -31 -33 -31h-49q-29 0 -29 37z" />
<glyph unicode="&#x16a;" horiz-adv-x="1306" d="M184 299v1145q0 33 31 33h94q29 0 29 -33v-1120q0 -209 313 -209q319 0 320 209v1120q0 33 30 33h91q31 0 30 -33v-1145q0 -315 -471 -315q-467 0 -467 315zM350 1708v55q0 33 33 33h545q33 0 33 -33v-55q0 -31 -33 -31h-545q-33 0 -33 31z" />
<glyph unicode="&#x16b;" d="M158 248v792q0 33 30 33h91q31 0 30 -33v-757q0 -166 193 -166q166 0 313 121v802q0 33 29 33h90q31 0 31 -33v-1007q0 -33 -31 -33h-80q-31 0 -33 33l-4 78q-152 -127 -356 -127q-147 0 -225 72.5t-78 191.5zM262 1329v53q0 31 31 31h547q33 0 32 -31v-53q0 -33 -32 -33 h-547q-31 0 -31 33z" />
<glyph unicode="&#x16c;" horiz-adv-x="1306" d="M184 299v1145q0 33 31 33h94q29 0 29 -33v-1120q0 -209 313 -209q319 0 320 209v1120q0 33 30 33h91q31 0 30 -33v-1145q0 -315 -471 -315q-467 0 -467 315zM395 1845v35q0 29 29 29h55q29 0 29 -29v-37q0 -70 30.5 -107.5t114.5 -37.5t115 37t31 108v37q0 29 30 29h54 q29 0 28 -29v-35q0 -244 -260 -243q-139 0 -197.5 62t-58.5 181z" />
<glyph unicode="&#x16d;" d="M158 248v792q0 33 30 33h91q31 0 30 -33v-757q0 -166 193 -166q166 0 313 121v802q0 33 29 33h90q31 0 31 -33v-1007q0 -33 -31 -33h-80q-31 0 -33 33l-4 78q-152 -127 -356 -127q-147 0 -225 72.5t-78 191.5zM297 1448v35q0 29 31 28h55q27 0 27 -28v-37 q0 -70 30.5 -108t115.5 -38t114.5 37t29.5 109v37q0 29 31 28h55q29 0 29 -28v-35q0 -244 -262 -244q-139 0 -197.5 62.5t-58.5 181.5z" />
<glyph unicode="&#x16e;" horiz-adv-x="1306" d="M184 299v1145q0 33 31 33h94q29 0 29 -33v-1120q0 -209 313 -209q319 0 320 209v1120q0 33 30 33h91q31 0 30 -33v-1145q0 -315 -471 -315q-467 0 -467 315zM446 1726v37q0 72 51.5 117t156 45t155.5 -45t51 -117v-37q0 -72 -51 -117.5t-155.5 -45.5t-156 45.5 t-51.5 117.5zM543 1737q0 -92 110 -92q113 0 113 92v14q0 92 -113 92q-111 0 -110 -92v-14z" />
<glyph unicode="&#x16f;" d="M158 248v792q0 33 30 33h91q31 0 30 -33v-757q0 -166 193 -166q166 0 313 121v802q0 33 29 33h90q31 0 31 -33v-1007q0 -33 -31 -33h-80q-31 0 -33 33l-4 78q-152 -127 -356 -127q-147 0 -225 72.5t-78 191.5zM362 1354v55q0 70 50.5 112t151 42t150.5 -42t50 -112v-55 q0 -152 -201 -152q-100 0 -150.5 42t-50.5 110zM449 1370q0 -90 113.5 -90t113.5 90v25q0 88 -113.5 88t-113.5 -88v-25z" />
<glyph unicode="&#x170;" horiz-adv-x="1306" d="M184 299v1145q0 33 31 33h94q29 0 29 -33v-1120q0 -209 313 -209q319 0 320 209v1120q0 33 30 33h91q31 0 30 -33v-1145q0 -315 -471 -315q-467 0 -467 315zM483 1632l121 242q14 33 45 33h78q18 0 24.5 -10.5t-1.5 -22.5l-136 -242q-16 -31 -43 -30h-67q-25 0 -25 15 q0 6 4 15zM702 1632l152 242q20 33 49 33h80q25 0 25 -13q0 -8 -9 -20l-168 -244q-20 -29 -45 -28h-67q-23 0 -23 13q0 6 6 17z" />
<glyph unicode="&#x171;" d="M158 248v792q0 33 30 33h91q31 0 30 -33v-757q0 -166 193 -166q166 0 313 121v802q0 33 29 33h90q31 0 31 -33v-1007q0 -33 -31 -33h-80q-31 0 -33 33l-4 78q-152 -127 -356 -127q-147 0 -225 72.5t-78 191.5zM389 1264l119 241q14 31 45 31h78q18 0 24.5 -9t-2.5 -22 l-135 -241q-16 -31 -43 -31h-67q-24 0 -24 14q0 7 5 17zM608 1264l152 241q16 31 49 31h80q24 0 24 -12q0 -7 -10 -19l-168 -243q-18 -29 -45 -29h-67q-22 0 -22 12q-1 8 7 19z" />
<glyph unicode="&#x172;" horiz-adv-x="1306" d="M184 299v1145q0 33 31 33h94q29 0 29 -33v-1120q0 -209 313 -209q319 0 320 209v1120q0 33 30 33h91q31 0 30 -33v-1145q0 -131 -80 -205q-10 -12 -50 -45t-57.5 -51t-35.5 -54t-18 -77q0 -94 118 -94h70q33 0 33 -31v-43q0 -33 -41 -33h-100q-84 0 -140.5 44t-56.5 132 q0 80 55 154q-72 -12 -168 -12q-467 0 -467 315z" />
<glyph unicode="&#x173;" horiz-adv-x="1134" d="M158 248v792q0 33 30 33h91q31 0 30 -33v-757q0 -166 193 -166q166 0 313 121v802q0 33 29 33h90q31 0 31 -33v-1007q0 -33 -31 -33h-8q-63 -8 -98 -53t-35 -88q0 -86 116 -86h33q33 0 33 -31v-43q0 -33 -41 -33h-66q-82 0 -138 44t-56 130q0 125 147 207l-4 64 q-152 -127 -356 -127q-147 0 -225 72.5t-78 191.5z" />
<glyph unicode="&#x174;" horiz-adv-x="1738" d="M49 1444q-2 7 -2 13q0 20 29 20h94q25 0 37 -33l258 -1020l35 -162q10 68 35 162l260 1020q8 33 39 33h86q27 0 36 -33l261 -1020q27 -113 34 -172q0 39 35 172l260 1020q8 33 39 33h80q26 0 26 -21q0 -5 -1 -12l-359 -1411q-12 -33 -39 -33h-92q-29 0 -39 33l-262 1038 q-16 53 -29 150q-12 -74 -30 -152l-262 -1036q-8 -33 -41 -33h-93q-27 0 -36 33zM623 1611l-2 6q0 7 6 15l168 242q25 33 49 33h57q29 0 49 -31l168 -244q7 -8 7 -15q0 -3 -2 -6q-5 -9 -23 -9h-68q-25 0 -45 30l-115 178l-114 -178q-18 -31 -43 -30h-70q-18 0 -22 9z" />
<glyph unicode="&#x175;" horiz-adv-x="1423" d="M39 1040q-2 7 -2 12q0 21 33 21h86q29 0 34 -33l205 -755q4 -16 7.5 -37t6.5 -34t3 -17q0 10 22 88l209 755q10 33 37 33h92q29 0 35 -33l197 -755l18 -84q0 12 22 84l201 755q12 33 37 33h74q30 0 29 -19q0 -6 -3 -14l-282 -1009q-8 -31 -31 -31h-104q-29 0 -35 31 l-193 733q-4 18 -20 102l-27 -104l-209 -731q-10 -31 -35 -31h-98q-27 0 -35 31zM469 1264l166 241q23 31 49 31h55q29 0 52 -29l170 -243q6 -10 6 -17q0 -14 -25 -14h-70q-25 0 -43 31l-114 178l-115 -178q-18 -31 -45 -31h-70q-25 0 -24 12q0 8 8 19z" />
<glyph unicode="&#x176;" horiz-adv-x="1122" d="M45 1444q-4 9 -4 16q0 17 27 17h104q23 0 39 -33l319 -629q8 -18 15.5 -37.5t11.5 -32.5l6 -14q0 18 31 84l332 629q16 33 39 33h90q27 0 27 -17q0 -7 -5 -16l-436 -842v-569q0 -33 -33 -33h-92q-33 0 -33 33v551zM310 1611q-2 3 -1 6q0 7 6 15l166 242q25 33 51 33h56 q29 0 51 -31l166 -244q8 -8 8 -15q0 -3 -2 -6q-6 -9 -23 -9h-69q-25 0 -43 30l-117 178l-115 -178q-16 -31 -43 -30h-69q-17 0 -22 9z" />
<glyph unicode="&#x177;" horiz-adv-x="935" d="M39 1040q-2 7 -2 13q0 21 31 20h88q27 0 37 -33l245 -721q8 -27 16 -58l11 -51q4 -19 4 -22q23 88 35 127l248 725q10 33 36 33h82q31 0 31 -20q0 -5 -2 -13l-498 -1458q-12 -31 -36 -31h-68q-37 0 -27 31l131 410zM218 1242q-2 3 -2 7q0 7 7 15l166 241q23 31 49 31h58 q25 0 49 -29l170 -243q6 -10 6 -17q0 -14 -25 -14h-69q-23 0 -43 31l-115 178l-115 -178q-18 -31 -43 -31h-69q-19 0 -24 9z" />
<glyph unicode="&#x178;" horiz-adv-x="1122" d="M45 1444q-4 9 -4 16q0 17 27 17h104q23 0 39 -33l319 -629q8 -18 15.5 -37.5t11.5 -32.5l6 -14q0 18 31 84l332 629q16 33 39 33h90q27 0 27 -17q0 -7 -5 -16l-436 -842v-569q0 -33 -33 -33h-92q-33 0 -33 33v551zM387 1649v209q0 31 33 30h51q31 0 31 -30v-209 q0 -33 -31 -33h-51q-33 0 -33 33zM618 1649v209q0 31 33 30h51q33 0 33 -30v-209q0 -33 -33 -33h-51q-33 0 -33 33z" />
<glyph unicode="&#x179;" horiz-adv-x="1091" d="M111 33v69q0 14 4 21l667 1220h-602q-33 0 -33 33v68q0 33 33 33h758q33 0 33 -33v-68q0 -12 -6 -24l-670 -1219h678q33 0 33 -31v-69q0 -33 -33 -33h-832q-30 0 -30 33zM504 1632l145 244q18 31 41 31h96q24 0 24 -14q0 -8 -7 -19l-172 -252q-14 -20 -41 -20h-72 q-21 0 -21 12q0 7 7 18z" />
<glyph unicode="&#x17a;" horiz-adv-x="985" d="M102 33v61q0 12 9 25l548 827h-495q-33 0 -33 33v63q0 31 33 31h651q31 0 31 -31v-61q0 -16 -6 -27l-553 -829h557q33 0 33 -31v-61q0 -33 -33 -33h-709q-33 0 -33 33zM414 1264l145 243q20 29 45 29h94q25 0 25 -12q0 -7 -8 -19l-172 -252q-14 -20 -39 -20h-72 q-25 0 -24 14q0 7 6 17z" />
<glyph unicode="&#x17b;" horiz-adv-x="1091" d="M111 33v69q0 14 4 21l667 1220h-602q-33 0 -33 33v68q0 33 33 33h758q33 0 33 -33v-68q0 -12 -6 -24l-670 -1219h678q33 0 33 -31v-69q0 -33 -33 -33h-832q-30 0 -30 33zM469 1651v170q0 31 31 30h90q31 0 31 -30v-170q0 -31 -31 -31h-90q-31 0 -31 31z" />
<glyph unicode="&#x17c;" horiz-adv-x="985" d="M102 33v61q0 12 9 25l548 827h-495q-33 0 -33 33v63q0 31 33 31h651q31 0 31 -31v-61q0 -16 -6 -27l-553 -829h557q33 0 33 -31v-61q0 -33 -33 -33h-709q-33 0 -33 33zM418 1298v168q0 31 28 31h93q31 0 30 -31v-168q0 -33 -30 -32h-93q-28 -1 -28 32z" />
<glyph unicode="&#x17d;" horiz-adv-x="1091" d="M111 33v69q0 14 4 21l667 1220h-602q-33 0 -33 33v68q0 33 33 33h758q33 0 33 -33v-68q0 -12 -6 -24l-670 -1219h678q33 0 33 -31v-69q0 -33 -33 -33h-832q-30 0 -30 33zM300 1924q5 9 24 9h69q25 0 43 -30l115 -179l115 179q20 31 45 30h69q24 0 24 -12q0 -7 -7 -18 l-170 -242q-23 -31 -49 -31h-58q-27 0 -49 33l-166 240q-7 8 -7 15q0 3 2 6z" />
<glyph unicode="&#x17e;" horiz-adv-x="985" d="M102 33v61q0 12 9 25l548 827h-495q-33 0 -33 33v63q0 31 33 31h651q31 0 31 -31v-61q0 -16 -6 -27l-553 -829h557q33 0 33 -31v-61q0 -33 -33 -33h-709q-33 0 -33 33zM249 1527q5 9 21 9h70q25 0 45 -31l115 -178l114 178q20 31 43 31h70q25 0 25 -14q0 -7 -7 -17 l-170 -241q-25 -31 -49 -31h-57q-29 0 -49 33l-166 239q-7 8 -7 15q0 4 2 7z" />
<glyph unicode="&#x17f;" horiz-adv-x="698" d="M61 979v49q0 31 31 33l117 8h18v180q0 276 404 277h14q33 0 33 -33v-59q0 -31 -33 -31h-14q-254 0 -254 -170v-1200q0 -33 -29 -33h-90q-31 0 -31 33v913h-135q-31 0 -31 33z" />
<glyph unicode="&#x192;" horiz-adv-x="1198" d="M102 -371q0 33 33 33h25q252 0 274 166l111 952h-193q-33 0 -33 31v59q0 33 33 33h205l43 354q31 279 436 279h15q31 0 30 -31v-63q0 -33 -30 -33h-27q-135 0 -198.5 -42t-73.5 -126l-43 -338h209q33 0 32 -33v-59q0 -31 -32 -31h-222l-112 -966q-33 -281 -437 -281h-12 q-33 0 -33 33v63z" />
<glyph unicode="&#x1fa;" horiz-adv-x="1142" d="M51 33l432 1411q12 33 43 33h92q29 0 39 -33l435 -1411q2 -7 2 -13q0 -20 -29 -20h-92q-31 0 -39 33l-119 387h-498l-116 -387q-10 -33 -37 -33h-88q-26 0 -26 21q-1 5 1 12zM354 543h428l-159 508q-14 49 -54 262q-23 -158 -55 -258zM362 1726v37q0 66 42 109t131 51 l81 141q12 29 41 29h97q23 0 22 -14q0 -7 -6 -19l-106 -149q111 -37 110 -148v-37q0 -72 -50 -117.5t-154.5 -45.5t-156 45.5t-51.5 117.5zM459 1737q0 -92 110 -92q113 0 113 92v14q0 92 -113 92q-111 0 -110 -92v-14z" />
<glyph unicode="&#x1fb;" horiz-adv-x="1095" d="M135 240v108q0 111 73 183.5t210 72.5h373v195q0 80 -54.5 124t-191.5 44t-192.5 -42t-55.5 -122v-27q0 -33 -33 -33h-78q-31 0 -30 33v39q0 274 391 274.5t391 -274.5v-782q0 -33 -31 -33h-78q-31 0 -32 33l-4 78q-162 -127 -359 -127q-145 0 -222 72.5t-77 183.5z M281 258q0 -150 188 -149q166 0 322 120v254h-347q-164 0 -163 -155v-70zM348 1354v55q0 63 40 103t120 49l119 198q20 29 45 29h94q25 0 25 -12q0 -7 -9 -19l-141 -207q109 -35 109 -141v-55q0 -152 -203 -152q-100 0 -149.5 42t-49.5 110zM434 1370q0 -90 112.5 -90 t112.5 90v25q0 88 -112.5 88t-112.5 -88v-25z" />
<glyph unicode="&#x1fc;" horiz-adv-x="1820" d="M53 33l824 1411q23 33 45 33h731q33 0 33 -31v-66q0 -33 -33 -32h-619v-512h580q31 0 31 -31v-60q0 -33 -31 -32h-580v-584h643q33 0 33 -31v-65q0 -33 -33 -33h-751q-37 0 -37 33v387h-463l-221 -387q-20 -33 -39 -33h-88q-30 0 -30 16q-1 7 5 17zM500 543h389v680 l-74 -133zM963 1632l145 244q18 31 41 31h94q25 0 25 -15q0 -7 -6 -18l-172 -252q-14 -20 -41 -20h-72q-21 0 -21 12q0 7 7 18z" />
<glyph unicode="&#x1fd;" horiz-adv-x="1710" d="M133 240v90q0 111 75 183.5t210 72.5h370v233q0 158 -245 158q-137 0 -192.5 -42t-55.5 -126v-33q0 -31 -31 -31h-78q-33 0 -32 31v39q0 274 393 275q246 0 315 -123q82 123 326 123q395 0 395 -281v-260q0 -31 -31 -31h-616v-258q0 -80 56.5 -121t195.5 -41 q254 0 254 168v39q0 33 31 33h75q31 0 31 -33v-45q0 -131 -90 -203.5t-301 -72.5q-297 0 -367 149q-186 -150 -387 -149q-150 0 -225.5 70.5t-75.5 185.5zM281 256q0 -72 48 -113t140 -41q152 0 319 140v237h-348q-80 0 -119.5 -43t-39.5 -112v-68zM807 1264l145 243 q20 29 45 29h95q39 0 16 -31l-172 -252q-16 -20 -39 -20h-72q-25 0 -24 14q0 7 6 17zM936 625h506v180q0 170 -254 170q-252 0 -252 -170v-180z" />
<glyph unicode="&#x1fe;" horiz-adv-x="1282" d="M172 1171q0 317 469 318q186 0 305 -53l27 51q25 47 53 47h29q33 0 8 -47l-47 -96q96 -78 96 -220v-874q0 -319 -471 -320q-195 0 -311 58l-27 -49q-25 -49 -51 -49h-29q-20 0 -20 16q0 12 10 33l47 94q-88 80 -88 217v874zM326 322q0 -51 14 -82l539 1065 q-78 55 -238 55q-315 0 -315 -211v-827zM397 170q80 -59 244 -59q315 0 315 211v827q0 49 -18 88zM573 1632l146 244q18 31 41 31h96q24 0 24 -14q0 -8 -8 -19l-172 -252q-14 -20 -41 -20h-71q-21 0 -21 12q-1 7 6 18z" />
<glyph unicode="&#x1ff;" horiz-adv-x="1112" d="M147 809q0 281 408 281q143 0 244 -39l22 39q2 2 5 10t5.5 10t5.5 8t6 8l8 5.5t10 4.5t11 1h33q35 0 6 -47l-43 -76q98 -70 99 -205v-547q0 -279 -412 -278q-145 0 -244 39l-20 -35q-10 -20 -16.5 -28.5t-15.5 -14.5t-21 -6h-29q-20 0 -20 15q0 12 12 34l39 71 q-92 70 -93 203v547zM297 274q0 -49 18 -81l418 743q-66 31 -178 31q-258 0 -258 -168v-525zM375 139q63 -33 180 -33q262 0 262 168v525q0 47 -22 82zM500 1264l145 243q18 29 43 29h96q24 0 24 -12q0 -7 -9 -19l-172 -252q-14 -20 -39 -20h-72q-24 0 -24 13q1 7 8 18z" />
<glyph unicode="&#x218;" horiz-adv-x="1224" d="M154 299v121q0 31 30 31h90q29 0 29 -31v-101q0 -207 313 -206q315 0 316 206v136q0 76 -49 116.5t-131 73.5l-390 150q-76 29 -132 98.5t-56 161.5v123q0 315 447 315q453 0 452 -315v-103q0 -33 -33 -33h-90q-31 0 -30 33v82q0 100 -68 153.5t-229.5 53.5t-230 -53.5 t-68.5 -153.5v-65q0 -119 125 -170l409 -154q225 -84 225 -283v-186q0 -315 -464.5 -315t-464.5 315zM502 -426q6 18 20.5 46t19.5 41t11 34.5t9 46.5t3 55v62q0 33 33 32h64q33 0 32 -32v-68q0 -113 -84 -256q-10 -18 -29 -18q-5 0 -12 2l-53 12q-20 4 -20 21q0 9 6 22z " />
<glyph unicode="&#x219;" horiz-adv-x="1007" d="M119 227v60q0 31 31 30h79q29 0 29 -30v-54q0 -135 254 -135q125 0 190.5 36t65.5 99v82q0 80 -127 121l-336 111q-63 23 -114.5 79t-51.5 132v84q0 109 90 178.5t285 69.5t287 -70t92 -178v-62q0 -29 -31 -28h-80q-29 0 -28 28v62q0 135 -242 135q-236 0 -236 -135v-56 q0 -86 111 -120l334 -109q186 -59 186 -205v-125q0 -106 -98 -174.5t-296 -68.5t-296 68.5t-98 174.5zM403 -426q6 18 20.5 46t20 41t12.5 34.5t9 46.5t2 55v62q0 33 33 32h65q33 0 33 -32v-68q0 -113 -86 -256q-10 -18 -29 -18q-5 0 -12 2l-51 12q-21 4 -21 23q-1 8 4 20z " />
<glyph unicode="&#x237;" horiz-adv-x="491" d="M-129 -356q0 33 33 32h14q254 0 254 168v1196q0 33 31 33h88q31 0 31 -33v-1210q0 -279 -404 -279h-14q-33 0 -33 31v62z" />
<glyph unicode="&#x2c6;" horiz-adv-x="751" d="M131 1264l164 241q25 31 51 31h55q29 0 50 -29l170 -243q7 -11 7 -18q0 -13 -24 -13h-69q-25 0 -43 31l-117 178l-115 -178q-16 -31 -43 -31h-70q-25 0 -24 12q0 8 8 19z" />
<glyph unicode="&#x2c7;" horiz-adv-x="751" d="M125 1527q6 9 22 9h70q25 0 43 -31l115 -178l117 178q18 31 43 31h69q24 0 24 -13q0 -7 -7 -18l-170 -241q-20 -31 -50 -31h-55q-29 0 -51 33l-164 239q-8 8 -8 15q0 4 2 7z" />
<glyph unicode="&#x2d8;" horiz-adv-x="864" d="M174 1448v35q0 29 31 28h53q29 0 29 -28v-37q0 -70 30.5 -108t114.5 -38t115 37t31 109v37q0 29 30 28h54q29 0 28 -28v-35q0 -244 -260 -244q-139 0 -197.5 62.5t-58.5 181.5z" />
<glyph unicode="&#x2d9;" horiz-adv-x="520" d="M184 1298v168q0 31 31 31h90q31 0 31 -31v-168q0 -33 -31 -32h-90q-31 -1 -31 32z" />
<glyph unicode="&#x2da;" horiz-adv-x="808" d="M205 1354v55q0 70 49 112t149 42q102 0 152.5 -42t50.5 -112v-55q0 -152 -203 -152q-100 0 -149 42t-49 110zM291 1370q0 -90 112.5 -90t112.5 90v25q0 88 -112.5 88t-112.5 -88v-25z" />
<glyph unicode="&#x2db;" horiz-adv-x="489" d="M70 -164q0 125 141 213q23 17 46 17l19 -3l39 -14q14 -4 16.5 -15t-12.5 -22q-131 -66 -131 -151q0 -88 134 -88h40q33 0 33 -31v-43q0 -33 -33 -33h-79q-96 0 -154.5 44t-58.5 126z" />
<glyph unicode="&#x2dc;" horiz-adv-x="915" d="M143 1282l4 59q10 172 156 172q61 0 121 -40l94 -70q53 -39 84 -39q35 0 44 20.5t11 83.5v17q0 29 35 28h47q29 0 29 -34l-2 -56q-6 -174 -158 -174q-59 0 -116 39l-99 68q-53 41 -80 41q-37 0 -47 -21.5t-12 -81.5v-18q0 -31 -33 -31h-49q-29 0 -29 37z" />
<glyph unicode="&#x2dd;" horiz-adv-x="796" d="M139 1264l119 241q16 31 45 31h80q16 0 22.5 -9t-2.5 -22l-135 -241q-16 -31 -43 -31h-67q-24 0 -24 14q0 7 5 17zM358 1264l152 241q18 31 49 31h80q24 0 24 -12q0 -7 -10 -19l-168 -243q-18 -29 -45 -29h-67q-22 0 -22 12q-1 8 7 19z" />
<glyph unicode="&#x394;" horiz-adv-x="821" d="M186 508v352q0 49 47 49h353q51 0 51 -49v-352q0 -47 -51 -47h-353q-47 0 -47 47z" />
<glyph unicode="&#x3a9;" horiz-adv-x="821" d="M145 682q0 109 77 186.5t185.5 77.5t187.5 -77.5t79 -186.5t-79 -185.5t-187.5 -76.5t-185.5 76.5t-77 185.5zM184 681q0 -95 64.5 -158.5t160 -63.5t162 64.5t66.5 158.5t-66.5 160.5t-162.5 66.5q-92 0 -158 -66.5t-66 -161.5z" />
<glyph unicode="&#x3bc;" horiz-adv-x="1134" d="M158 -414v1454q0 33 30 33h91q31 0 30 -33v-757q0 -166 193 -166q166 0 313 121v802q0 33 29 33h90q31 0 31 -33v-1007q0 -33 -31 -33h-80q-31 0 -33 33l-4 78q-152 -127 -356 -127q-98 0 -162 47l10 -445q0 -33 -30 -32h-91q-30 -1 -30 32z" />
<glyph unicode="&#x3c0;" horiz-adv-x="821" d="M116 900q-1 5 -1 10q0 9 4 17q6 11 22 11h535q23 0 27 -23l2 -10q0 -17 -13 -35l-250 -403q-12 -20 -32.5 -20.5t-34.5 20.5l-246 403q-10 15 -13 30z" />
<glyph unicode="&#x1e80;" horiz-adv-x="1740" d="M49 1444q-2 7 -2 13q0 20 29 20h94q25 0 37 -33l258 -1020l35 -162q0 29 35 162l260 1020q8 33 39 33h86q27 0 36 -33l261 -1020q27 -113 34 -172q0 39 35 172l260 1020q8 33 39 33h80q26 0 26 -21q0 -5 -1 -12l-359 -1411q-12 -33 -39 -33h-92q-29 0 -39 33l-262 1038 q-16 53 -29 150q-12 -74 -30 -152l-262 -1036q-8 -33 -41 -33h-93q-27 0 -36 33zM618 1874q-9 12 -9 20q0 13 26 13h94q25 0 43 -31l145 -244q8 -12 8 -20q0 -13 -22 -13h-74q-23 0 -38 23z" />
<glyph unicode="&#x1e81;" horiz-adv-x="1423" d="M39 1040q-2 7 -2 12q0 21 33 21h86q29 0 34 -33l205 -755q4 -16 7.5 -37t6.5 -34t3 -17q0 10 22 88l209 755q10 33 37 33h92q29 0 35 -33l197 -755l18 -84q0 12 22 84l201 755q12 33 37 33h74q30 0 29 -19q0 -6 -3 -14l-282 -1009q-8 -31 -31 -31h-104q-29 0 -35 31 l-193 733q-4 18 -20 102l-27 -104l-209 -731q-10 -31 -35 -31h-98q-27 0 -35 31zM473 1505q-10 12 -9 19q0 12 23 12h97q25 0 43 -29l145 -243q8 -11 8 -19q0 -12 -22 -12h-74q-25 0 -39 20z" />
<glyph unicode="&#x1e82;" horiz-adv-x="1740" d="M49 1444q-2 7 -2 13q0 20 29 20h94q25 0 37 -33l258 -1020l35 -162q10 68 35 162l260 1020q8 33 39 33h86q27 0 36 -33l261 -1020q27 -113 34 -172q0 39 35 172l260 1020q8 33 39 33h80q26 0 26 -21q0 -5 -1 -12l-359 -1411q-12 -33 -39 -33h-92q-29 0 -39 33l-262 1038 q-16 53 -29 150q-12 -74 -30 -152l-262 -1036q-8 -33 -41 -33h-93q-27 0 -36 33zM823 1632l146 244q18 31 41 31h96q24 0 24 -14q0 -8 -8 -19l-172 -252q-14 -20 -41 -20h-71q-21 0 -21 12q-1 7 6 18z" />
<glyph unicode="&#x1e83;" horiz-adv-x="1423" d="M39 1040q-2 7 -2 12q0 21 33 21h86q29 0 34 -33l205 -755q4 -16 7.5 -37t6.5 -34t3 -17q0 10 22 88l209 755q10 33 37 33h92q29 0 35 -33l197 -755l18 -84q0 12 22 84l201 755q12 33 37 33h74q30 0 29 -19q0 -6 -3 -14l-282 -1009q-8 -31 -31 -31h-104q-29 0 -35 31 l-193 733q-4 18 -20 102l-27 -104l-209 -731q-10 -31 -35 -31h-98q-27 0 -35 31zM672 1264l145 243q18 29 43 29h94q25 0 25 -12q0 -7 -8 -19l-172 -252q-14 -20 -39 -20h-72q-24 0 -24 13q1 7 8 18z" />
<glyph unicode="&#x1e84;" horiz-adv-x="1740" d="M49 1444q-2 7 -2 13q0 20 29 20h94q25 0 37 -33l258 -1020l35 -162q10 68 35 162l260 1020q8 33 39 33h86q27 0 36 -33l261 -1020l34 -170q0 45 35 170l260 1020q8 33 39 33h80q26 0 26 -21q0 -5 -1 -12l-359 -1411q-12 -33 -39 -33h-92q-29 0 -39 33l-262 1038 q-16 53 -29 150q-12 -74 -30 -152l-262 -1036q-8 -33 -41 -33h-93q-27 0 -36 33zM694 1649v209q0 31 33 30h53q29 0 29 -30v-209q0 -33 -29 -33h-53q-33 0 -33 33zM928 1649v209q0 31 33 30h51q33 0 32 -30v-209q0 -33 -32 -33h-51q-33 0 -33 33z" />
<glyph unicode="&#x1e85;" horiz-adv-x="1423" d="M39 1040q-2 7 -2 12q0 21 33 21h86q29 0 34 -33l205 -755q4 -16 7.5 -37t6.5 -34t3 -17q0 10 22 88l209 755q10 33 37 33h92q29 0 35 -33l197 -755l18 -84q0 12 22 84l201 755q12 33 37 33h74q30 0 29 -19q0 -6 -3 -14l-282 -1009q-8 -31 -31 -31h-104q-29 0 -35 31 l-193 733q-4 18 -20 102l-27 -104l-209 -731q-10 -31 -35 -31h-98q-27 0 -35 31zM537 1282v211q0 33 32 33h54q31 0 30 -33v-211q0 -29 -30 -29h-54q-32 0 -32 29zM770 1282v211q0 33 31 33h55q29 0 29 -33v-211q0 -29 -29 -29h-55q-31 0 -31 29z" />
<glyph unicode="&#x1ef2;" horiz-adv-x="1122" d="M45 1444q-4 9 -4 16q0 17 27 17h104q23 0 39 -33l319 -629q8 -18 15.5 -37.5t11.5 -32.5l6 -14q0 18 31 84l332 629q16 33 39 33h90q27 0 27 -17q0 -7 -5 -16l-436 -842v-569q0 -33 -33 -33h-92q-33 0 -33 33v551zM313 1874q-10 13 -9 20q0 12 24 13h96q23 0 43 -31 l145 -244q7 -12 7 -19q0 -13 -21 -14h-76q-23 0 -39 23z" />
<glyph unicode="&#x1ef3;" horiz-adv-x="935" d="M39 1040q-2 7 -2 13q0 21 31 20h88q27 0 37 -33l245 -721q8 -27 16 -58l11 -51q4 -19 4 -22q23 88 35 127l248 725q10 33 36 33h82q31 0 31 -20q0 -5 -2 -13l-498 -1458q-12 -31 -36 -31h-68q-37 0 -27 31l131 410zM225 1505q-8 11 -8 19q0 12 25 12h94q25 0 45 -29 l145 -243q6 -11 7 -18q0 -13 -23 -13h-74q-25 0 -39 20z" />
<glyph unicode="&#x2000;" horiz-adv-x="1046" />
<glyph unicode="&#x2001;" horiz-adv-x="2093" />
<glyph unicode="&#x2002;" horiz-adv-x="1046" />
<glyph unicode="&#x2003;" horiz-adv-x="2093" />
<glyph unicode="&#x2004;" horiz-adv-x="696" />
<glyph unicode="&#x2005;" horiz-adv-x="522" />
<glyph unicode="&#x2006;" horiz-adv-x="348" />
<glyph unicode="&#x2007;" horiz-adv-x="348" />
<glyph unicode="&#x2008;" horiz-adv-x="260" />
<glyph unicode="&#x2009;" horiz-adv-x="417" />
<glyph unicode="&#x200a;" horiz-adv-x="114" />
<glyph unicode="&#x2010;" horiz-adv-x="989" d="M172 598v61q0 31 33 31h581q33 0 33 -31v-61q0 -33 -33 -33h-581q-33 0 -33 33z" />
<glyph unicode="&#x2011;" horiz-adv-x="989" d="M172 598v61q0 31 33 31h581q33 0 33 -31v-61q0 -33 -33 -33h-581q-33 0 -33 33z" />
<glyph unicode="&#x2012;" horiz-adv-x="989" d="M172 598v61q0 31 33 31h581q33 0 33 -31v-61q0 -33 -33 -33h-581q-33 0 -33 33z" />
<glyph unicode="&#x2013;" horiz-adv-x="1183" d="M172 598v61q0 31 33 31h776q33 0 33 -31v-61q0 -33 -33 -33h-776q-33 0 -33 33z" />
<glyph unicode="&#x2014;" horiz-adv-x="1855" d="M172 598v61q0 31 33 31h1448q33 0 33 -31v-61q0 -33 -33 -33h-1448q-33 0 -33 33z" />
<glyph unicode="&#x2018;" horiz-adv-x="479" d="M147 1180v137q0 201 220 266q7 3 13 3q18 0 26 -23l22 -64q3 -7 3 -12q0 -18 -23 -29q-59 -25 -83 -58.5t-24 -88.5v-131q0 -33 -31 -33h-92q-31 0 -31 33z" />
<glyph unicode="&#x2019;" horiz-adv-x="477" d="M49 1229q-3 7 -2 13q0 18 23 28q61 27 83.5 60.5t22.5 86.5v133q0 33 31 33h92q31 0 31 -33v-139q0 -201 -219 -264q-8 -3 -14 -3q-18 0 -25 21z" />
<glyph unicode="&#x201a;" horiz-adv-x="477" d="M49 -119q-3 7 -2 13q0 18 23 28q61 27 83.5 59.5t22.5 88.5v133q0 31 31 30h92q31 0 31 -30v-140q0 -201 -219 -266q-7 -3 -14 -2q-18 0 -25 23z" />
<glyph unicode="&#x201c;" horiz-adv-x="819" d="M147 1180v137q0 201 220 266q7 3 13 3q18 0 26 -23l22 -64q10 -27 -20 -41q-59 -25 -83 -58.5t-24 -88.5v-131q0 -33 -31 -33h-92q-31 0 -31 33zM492 1180v137q0 201 219 266q7 3 12 3q17 0 27 -23l20 -64q4 -8 4 -14q0 -17 -22 -27q-61 -25 -84 -58.5t-23 -88.5v-131 q0 -33 -31 -33h-94q-28 0 -28 33z" />
<glyph unicode="&#x201d;" horiz-adv-x="819" d="M49 1229q-3 7 -2 13q0 18 23 28q61 27 83.5 60.5t22.5 86.5v133q0 33 31 33h92q31 0 31 -33v-139q0 -201 -219 -264q-8 -3 -14 -3q-18 0 -25 21zM393 1229q-3 8 -2 14q0 18 21 27q61 27 83.5 60.5t22.5 86.5v133q0 33 31 33h94q31 0 31 -33v-139q0 -201 -219 -264 q-8 -3 -14 -3q-18 0 -27 21z" />
<glyph unicode="&#x201e;" horiz-adv-x="819" d="M49 -119q-3 7 -2 13q0 18 23 28q61 27 83.5 59.5t22.5 88.5v133q0 31 31 30h92q31 0 31 -30v-140q0 -201 -219 -266q-7 -3 -14 -2q-18 0 -25 23zM393 -119q-3 7 -2 13q0 17 21 28q61 27 83.5 59.5t22.5 88.5v133q0 31 31 30h94q31 0 31 -30v-140q0 -201 -219 -266 q-7 -3 -14 -2q-18 0 -27 23z" />
<glyph unicode="&#x2020;" horiz-adv-x="1257" d="M197 991v66q0 31 30 30h250q33 0 33 -30v-66q0 -29 -33 -28h-250q-30 -1 -30 28zM555 33v1452q0 33 31 33h90q29 0 29 -33v-1452q0 -33 -29 -33h-90q-31 0 -31 33zM752 991v66q0 31 32 30h250q29 0 29 -30v-66q0 -29 -29 -28h-250q-32 -1 -32 28z" />
<glyph unicode="&#x2021;" horiz-adv-x="1257" d="M197 461v65q0 29 30 29h250q33 0 33 -29v-65q0 -33 -33 -33h-250q-30 0 -30 33zM197 991v66q0 31 30 30h250q33 0 33 -30v-66q0 -29 -33 -28h-250q-30 -1 -30 28zM555 33v1452q0 33 31 33h90q29 0 29 -33v-1452q0 -33 -29 -33h-90q-31 0 -31 33zM752 461v65q0 29 32 29 h250q29 0 29 -29v-65q0 -33 -29 -33h-250q-32 0 -32 33zM752 991v66q0 31 32 30h250q29 0 29 -30v-66q0 -29 -29 -28h-250q-32 -1 -32 28z" />
<glyph unicode="&#x2022;" horiz-adv-x="544" d="M197 430v281q0 33 30 32h92q31 0 31 -32v-281q0 -33 -31 -33h-92q-30 0 -30 33z" />
<glyph unicode="&#x2026;" horiz-adv-x="1552" d="M164 33v170q0 31 31 30h92q31 0 30 -30v-170q0 -33 -30 -33h-92q-31 0 -31 33zM700 33v170q0 31 33 30h92q31 0 31 -30v-170q0 -33 -31 -33h-92q-33 0 -33 33zM1237 33v170q0 31 33 30h92q29 0 29 -30v-170q0 -33 -29 -33h-92q-33 0 -33 33z" />
<glyph unicode="&#x202f;" horiz-adv-x="417" />
<glyph unicode="&#x2030;" horiz-adv-x="2392" d="M180 1049v237q0 205 293 205t293 -205v-237q0 -207 -293 -207t-293 207zM305 1053q0 -106 168 -106.5t168 106.5v227q0 106 -168 106t-168 -106v-227zM440 11q-2 5 -1 9q0 7 3 13l660 1411q18 33 47 33h74q33 0 16 -33l-657 -1411q-14 -33 -45 -33h-78q-15 0 -19 11z M918 186v238q0 205 296 205q293 0 293 -205v-238q0 -207 -293 -206q-296 -1 -296 206zM1047 193q0 -109 167 -109q164 0 164 109v227q0 106 -164 106q-168 0 -167 -106v-227zM1624 186v238q0 205 297 205q291 0 291 -205v-238q0 -207 -291 -206q-297 -1 -297 206zM1751 193 q0 -109 168 -109t168 109v227q0 106 -168 106t-168 -106v-227z" />
<glyph unicode="&#x2039;" horiz-adv-x="808" d="M174 487v91q0 16 29 40l401 302q7 8 14 8q4 0 8 -2q11 -6 11 -23v-94q0 -23 -33 -47l-309 -230l309 -229q33 -23 33 -49v-94q0 -14 -12 -20q-5 -2 -9 -2q-7 0 -12 5l-401 301q-29 25 -29 43z" />
<glyph unicode="&#x203a;" horiz-adv-x="808" d="M174 160v94q0 27 33 49l307 229l-307 230q-33 25 -33 47v94q0 16 10 23q3 2 7 2q7 0 16 -8l401 -302q29 -25 29 -40v-91q0 -18 -29 -43l-401 -301q-9 -5 -15 -5q-4 0 -8 2q-10 6 -10 20z" />
<glyph unicode="&#x2044;" horiz-adv-x="952" d="M76 33l659 1411q16 33 47 33h74q23 0 23 -14q0 -7 -7 -19l-657 -1411q-14 -33 -45 -33h-78q-21 0 -21 15q0 8 5 18z" />
<glyph unicode="&#x205f;" horiz-adv-x="522" />
<glyph unicode="&#x20ac;" horiz-adv-x="1406" d="M180 586v37q0 33 33 32h100v166h-100q-33 0 -33 33v39q0 29 33 29h100v256q0 315 458 315t458 -315v-113q0 -33 -31 -33h-86q-33 0 -33 33v88q0 209 -306 209t-306 -209v-231h338q31 0 31 -29v-39q0 -33 -31 -33h-338v-166h338q31 0 31 -32v-37q0 -33 -31 -33h-338v-229 q0 -209 306 -209t306 209v114q0 33 33 33h86q31 0 31 -33v-139q0 -315 -458 -315t-458 315v254h-100q-33 0 -33 33z" />
<glyph unicode="&#x2113;" horiz-adv-x="1138" d="M14 479q-4 9 -3 17q0 18 20 26l16 8q18 6 45 18l61 25q34 14 71.5 33l70.5 37v522q0 317 354 318q340 0 340 -318q0 -94 -46 -184t-130 -166t-171 -133t-198 -115v-258q0 -90 56.5 -137t191.5 -47h211q33 0 33 -31v-61q0 -33 -31 -33h-213q-397 0 -397 276v218 q-145 -80 -211 -95q-31 -10 -41 13zM444 719q401 219 402 438q0 96 -44 147.5t-154.5 51.5t-157 -52.5t-46.5 -154.5v-430z" />
<glyph unicode="&#x2122;" horiz-adv-x="1939" d="M195 1395v55q0 27 28 27h588q29 0 29 -27v-55q0 -27 -29 -27h-229v-752q0 -27 -25 -26h-80q-27 0 -26 26v752h-228q-28 0 -28 27zM944 616v834q0 27 25 27h71q16 0 23 -15l256 -534q12 -23 24 -62q23 53 25 60l254 536q6 14 23 15h75q25 0 25 -27v-834q0 -27 -25 -26h-75 q-25 0 -25 26v613q-6 -29 -21 -58l-192 -419q-10 -27 -35 -27h-57q-23 0 -35 27l-197 426q-6 10 -20 57v-619q0 -27 -23 -26h-71q-25 -1 -25 26z" />
<glyph unicode="&#x2126;" horiz-adv-x="821" d="M145 682q0 109 77 186.5t185.5 77.5t188.5 -77.5t80 -186.5q0 -106 -80 -184t-188.5 -78t-185.5 76.5t-77 185.5zM184 681q0 -95 64.5 -158.5t160 -63.5t162 64.5t66.5 157.5t-66.5 159.5t-162.5 66.5q-92 0 -158 -65.5t-66 -160.5z" />
<glyph unicode="&#x212e;" horiz-adv-x="1806" d="M129 737q0 313 221 534.5t532.5 221.5t532.5 -221t221 -535q0 -35 -37 -35h-1249v-407q92 -121 231.5 -190.5t301.5 -69.5q309 0 532 244q10 10 23 10q20 0 20 -25q0 -12 -14 -33q-100 -115 -247.5 -181t-313.5 -66q-313 0 -533.5 218t-220.5 535zM350 752h1067v419 q-94 125 -233.5 197t-300 72t-300 -71t-233.5 -191v-426z" />
<glyph unicode="&#x2202;" horiz-adv-x="821" d="M188 422v532q0 25 22.5 29t45.5 -10l403 -250q20 -12 20.5 -33.5t-20.5 -34.5l-403 -247q-23 -14 -45.5 -12.5t-22.5 26.5z" />
<glyph unicode="&#x2206;" horiz-adv-x="821" d="M186 508v352q0 47 47 47h353q51 0 51 -47v-352q0 -47 -51 -47h-353q-47 0 -47 47z" />
<glyph unicode="&#x220f;" horiz-adv-x="821" d="M116 472q0 18 13 36l248 403q14 20 34.5 20.5t32.5 -20.5l248 -403q13 -18 13 -36v-9q-4 -23 -27 -23h-533q-29 0 -29 32z" />
<glyph unicode="&#x2211;" horiz-adv-x="821" d="M143 689.5q0 21.5 21 33.5l401 250q16 11 35 11q5 0 10 -1q25 -4 25 -29v-532q0 -25 -25 -27h-6q-21 0 -39 13l-401 247q-21 13 -21 34.5z" />
<glyph unicode="&#x2212;" horiz-adv-x="1275" d="M172 692v64q0 33 33 32h868q33 0 33 -32v-64q0 -33 -33 -33h-868q-33 0 -33 33z" />
<glyph unicode="&#x221a;" horiz-adv-x="821" d="M168 508v352q0 37 14.5 52.5t50.5 15.5h353q37 0 52 -15.5t15 -52.5v-352q0 -37 -15 -52.5t-52 -15.5h-353q-65 0 -65 68zM207 508q0 -29 26 -29h353q31 0 30 29v352q0 29 -30 29h-353q-27 0 -26 -29v-352z" />
<glyph unicode="&#x221e;" horiz-adv-x="821" d="M86 683q0 19 29 48l247 250q25 25 48.5 25t48.5 -25l250 -250q23 -23 22.5 -47.5t-22.5 -46.5l-250 -250q-27 -27 -49.5 -27t-47.5 27l-247 250q-29 27 -29 46zM131 684q0 -8 10 -20l250 -250q10 -10 19.5 -10.5t19.5 10.5l252 250q8 10 8 20q0 8 -10 18l-250 250 q-10 12 -19.5 12.5t-19.5 -12.5l-250 -250q-10 -10 -10 -18z" />
<glyph unicode="&#x222b;" horiz-adv-x="821" d="M63 682q0 145 99.5 247.5t245 102.5t248 -102.5t102.5 -247.5t-102.5 -245.5t-248 -100.5t-245 100.5t-99.5 245.5z" />
<glyph unicode="&#x2248;" horiz-adv-x="1054" d="M172 752l4 59q6 96 48 142t106 46q45 0 106 -30l187 -99q61 -31 92 -30q33 0 45 22.5t12 81.5v19q0 27 35 26h49q29 0 27 -37l-4 -57q-14 -186 -150 -186q-55 0 -119 30l-190 99q-49 27 -78 26q-33 0 -43 -18.5t-16 -81.5l-2 -19q-2 -29 -35 -28h-45q-33 0 -29 35z M172 403l4 62q6 94 48 140t106 46q45 0 106 -30l187 -99q61 -29 92 -28q33 0 45 22.5t12 81.5v16q0 29 35 29h49q29 0 27 -37l-4 -59q-14 -186 -150 -187q-55 0 -119 33l-190 99q-49 25 -78 24q-33 0 -43 -18.5t-16 -79.5l-2 -21q-2 -29 -35 -28h-45q-33 -1 -29 34z" />
<glyph unicode="&#x2260;" horiz-adv-x="1275" d="M172 494v63q0 31 33 31h309l100 260h-409q-33 0 -33 33v65q0 31 33 31h459l57 147q12 35 41 35h82q35 0 22 -35l-57 -147h264q33 0 33 -31v-65q0 -33 -33 -33h-313l-101 -260h414q33 0 33 -31v-63q0 -31 -33 -31h-463l-57 -150q-12 -33 -43 -32h-82q-31 0 -20 32l57 150 h-260q-33 0 -33 31z" />
<glyph unicode="&#x2264;" horiz-adv-x="1169" d="M172 834v98q0 23 31 35l764 301q7 3 12 3q6 0 11 -4q9 -7 9 -26v-86q0 -27 -32 -37l-645 -237l645 -234q33 -10 32 -37v-88q0 -16 -9 -25.5t-23 -0.5l-764 303q-31 10 -31 35zM174 274v62q0 31 31 31h762q33 0 32 -31v-62q0 -31 -32 -30h-762q-31 -1 -31 30z" />
<glyph unicode="&#x2265;" horiz-adv-x="1169" d="M172 270v66q0 33 33 33h762q31 0 30 -33v-66q0 -31 -30 -30h-762q-33 -1 -33 30zM172 522v90q0 27 33 37l643 232l-643 237q-33 10 -33 37v88q0 32 18 32q6 0 15 -3l764 -301q31 -10 30 -37v-100q0 -27 -30 -37l-764 -301q-8 -4 -15 -4q-18 0 -18 30z" />
<glyph unicode="&#x25ca;" horiz-adv-x="821" d="M111 684q0 12 18 35l248 250q16 14 33.5 14t33.5 -14l250 -250q16 -18 16.5 -35.5t-16.5 -32.5l-250 -250q-18 -18 -34 -18q-14 0 -33 18l-248 250q-18 17 -18 33z" />
<glyph unicode="&#xe000;" horiz-adv-x="1075" d="M0 1075h1075v-1075h-1075v1075z" />
<glyph horiz-adv-x="0" />
<glyph horiz-adv-x="585" d="M166 -82q6 16 20.5 45t19.5 41t11 34.5t8 46.5t2 56v62q0 31 33 30h66q33 0 32 -30v-68q0 -113 -84 -256q-11 -20 -32 -19q-5 0 -11 1l-51 14q-20 4 -20 21q0 9 6 22z" />
<glyph horiz-adv-x="485" d="M152 1632l145 244q20 31 41 31h96q24 0 24 -14q0 -8 -7 -19l-170 -252q-16 -20 -41 -20h-72q-22 0 -22 13q1 7 6 17z" />
<glyph horiz-adv-x="485" d="M-61 1708v55q0 33 32 33h545q33 0 33 -33v-55q0 -31 -33 -31h-545q-32 0 -32 31z" />
<glyph horiz-adv-x="485" d="M-14 1845v35q0 29 26 29h58q29 0 28 -29v-37q0 -70 30 -107.5t115 -37.5t115.5 37t30.5 108v37q0 29 31 29h53q29 0 29 -29v-35q0 -244 -260 -243q-139 0 -197.5 62t-58.5 181z" />
<glyph horiz-adv-x="485" d="M-6 1896q4 10 20 11h70q25 0 45 -33l115 -178l114 178q18 33 43 33h70q16 0 23 -11q2 -3 2 -7q0 -7 -9 -15l-165 -242q-23 -31 -52 -30h-55q-29 0 -49 32l-168 240q-5 8 -6 15q1 4 2 7z" />
<glyph horiz-adv-x="485" d="M37 1726v37q0 72 51 117t155.5 45t155 -45t50.5 -117v-37q0 -72 -50.5 -117.5t-155 -45.5t-155.5 45.5t-51 117.5zM133 1737q0 -92 111 -92q113 0 112 92v14q0 92 -112 92q-111 0 -111 -92v-14z" />
<glyph horiz-adv-x="485" d="M-6 1611l-2 6q0 7 6 15l168 242q23 33 49 33h55q29 0 52 -31l165 -244q8 -8 9 -15q0 -3 -2 -6q-6 -9 -23 -9h-70q-25 0 -43 30l-114 178l-115 -178q-18 -31 -45 -30h-70q-16 0 -20 9z" />
<glyph horiz-adv-x="485" d="M-70 1665l4 59q12 170 158 170q59 0 119 -41l94 -69q53 -39 84 -39q35 0 44 20.5t11 83.5v19q0 27 35 26h49q27 0 27 -34l-2 -54q-6 -176 -158 -176q-59 0 -116 39l-99 70q-51 39 -80 39q-37 0 -47 -20.5t-12 -82.5v-16q0 -31 -33 -31h-49q-29 0 -29 37z" />
<glyph horiz-adv-x="485" d="M70 1649v209q0 31 32 30h52q31 0 30 -30v-209q0 -33 -30 -33h-52q-32 0 -32 33zM301 1649v209q0 31 33 30h53q33 0 33 -30v-209q0 -33 -33 -33h-53q-33 0 -33 33z" />
<glyph horiz-adv-x="485" d="M168 1651v170q0 31 29 30h92q31 0 30 -30v-170q0 -31 -30 -31h-92q-29 0 -29 31z" />
<glyph horiz-adv-x="485" d="M96 1874q-10 13 -9 20q0 12 24 13h96q23 0 43 -31l145 -244q7 -12 7 -19q0 -13 -21 -14h-76q-23 0 -39 23z" />
<glyph horiz-adv-x="485" d="M-14 1632l118 242q14 33 46 33h77q18 0 24.5 -10.5t-1.5 -22.5l-135 -242q-16 -31 -43 -30h-68q-24 0 -24 14q1 6 6 16zM205 1632l149 242q20 33 49 33h80q25 0 25 -13q0 -8 -8 -20l-168 -244q-18 -29 -45 -28h-68q-22 0 -22 12q0 7 8 18z" />
<glyph horiz-adv-x="3225" d="M147 549q0 59 40 103t110 44q41 0 65.5 -20.5t24.5 -46.5q0 -51 -55 -70q-35 -12 -94 -12q4 -47 55 -47q37 0 70 18q18 -10 18 -35q0 -8 -6 -17t-30.5 -20.5t-65.5 -11.5q-61 0 -96.5 32t-35.5 83zM156 0v16h2906v-16h-2906zM156 1149v16h2906v-16h-2906zM233 573 q82 0 82 46q0 29 -28 28q-44 0 -54 -74zM420 680q51 16 67 16q25 0 25 -18v-88q6 20 16.5 41.5t33 43t48.5 21.5q63 0 64 -69v-37q29 106 96 106q61 0 61 -69v-107l7 -69q-51 -16 -68 -17q-23 0 -22 17v143q0 35 -19 35q-14 0 -35.5 -38t-19.5 -65l4 -75q-53 -16 -68 -17 q-25 0 -24 17v143q0 35 -16.5 35t-37 -38t-20.5 -65l6 -75q-51 -16 -69 -17q-23 0 -23 17v151zM821 717v8q0 43 25 43h37l-6 66q53 18 69 18q25 0 25 -18v-64h102v-6q0 -45 -26 -45h-76v-187q0 -35 28 -34q18 0 40 17t22 38v55l-6 72q53 16 69 16q25 0 25 -18v-143 q0 -33 15.5 -33t36 38t20.5 66l-4 74q51 16 65 16q25 0 25 -18v-215l55 6v133l-8 78q53 16 69 16q25 0 25 -18v-88q37 104 102 104q37 0 61.5 -28.5t24.5 -81.5q0 -147 -188 -148v-86l6 -69q-51 -18 -70 -19q-23 0 -22 19v161l-55 -6v-6q0 -172 -148 -172q-45 0 -66.5 22.5 t-21.5 51.5q0 78 152 114v93q-37 -104 -101 -105q-61 0 -61 68v6q-41 -72 -115 -72q-63 0 -63 66v219zM1131 352q0 -31 30 -30q55 0 60 100q-90 -21 -90 -70zM1448 475q98 12 98 111q0 43 -28.5 43t-49 -40t-20.5 -63v-51zM1665 549q0 59 40 103t110 44q41 0 65.5 -20.5 t24.5 -46.5q0 -51 -56 -70q-35 -12 -96 -12q6 -47 57 -47q37 0 70 18q16 -10 16 -35q0 -8 -5 -17t-29.5 -20.5t-65.5 -11.5q-61 0 -96 32t-35 83zM1751 573q82 0 82 46q0 29 -29 28q-43 0 -53 -74zM1937 490.5q0 21.5 14.5 37t39 15.5t41 -15.5t16.5 -37t-16.5 -36 t-41 -14.5t-39 14.5t-14.5 36zM2077 680q53 16 69 16q25 0 25 -18v-88q39 106 98 106q61 0 62 -69v-107l6 -69q-53 -16 -68 -17q-25 0 -24 17v147q0 31 -16.5 31t-37 -38t-20.5 -65l6 -75q-51 -16 -70 -17q-23 0 -22 17v151zM2365 549q0 59 41 103t111 44q41 0 64.5 -20.5 t23.5 -46.5q0 -51 -53 -70q-35 -12 -96 -12q4 -47 55 -47q37 0 69 18q18 -10 19 -35q0 -8 -5 -17t-31 -20.5t-66 -11.5q-61 0 -96.5 32t-35.5 83zM2454 573q80 0 79 46q0 29 -28 28q-43 0 -51 -74zM2576 717v8q0 43 27 43h37l-6 66q51 18 69 18q23 0 23 -18v-64h102v-6 q0 -45 -26 -45h-76v-197q0 -31 35 -30q25 0 84 11t100 11q37 0 86 -13.5t49 -37.5q0 -31 -20.5 -46.5t-36.5 -15.5q-6 0 -59.5 27t-96.5 27q-14 0 -68.5 -9.5t-95.5 -9.5t-50 28t-11 142q0 70 -2 115z" />
</font>
</defs>
</svg>
