<?xml version="1.0" standalone="no"?>
<!DOCTYPE svg PUBLIC "-//W3C//DTD SVG 1.1//EN" "http://www.w3.org/Graphics/SVG/1.1/DTD/svg11.dtd" >
<svg xmlns="http://www.w3.org/2000/svg">
<metadata>
This is a custom SVG webfont generated by Font Squirrel.
Copyright   : Copyright c 2009 by Eduardo Manso All rights reserved
Designer    : Eduardo Manso
Foundry     : Eduardo Manso
Foundry URL : httpwwwemtypenet
</metadata>
<defs>
<font id="GeogrotesqueMediumItalic" horiz-adv-x="1130" >
<font-face units-per-em="2048" ascent="1536" descent="-512" />
<missing-glyph horiz-adv-x="448" />
<glyph unicode="&#xfb00;" horiz-adv-x="1345" d="M172 930l8 74q8 39 45 40l113 9h14l21 155q39 289 450 289h23q43 0 37 -41l-13 -84q-6 -41 -47 -41h-14q-219 0 -236 -145l-18 -133h434l19 155q37 289 452 289h23q43 0 37 -41l-13 -84q-6 -41 -47 -41h-14q-219 0 -236 -145l-18 -133h209q43 0 37 -39l-11 -84 q-6 -39 -45 -39h-208l-160 -1284q-6 -41 -43 -41h-123q-43 0 -37 41l160 1284h-434l-160 -1284q-6 -41 -43 -41h-123q-43 0 -37 41l160 1284h-125q-43 0 -37 39z" />
<glyph unicode="&#xfb01;" horiz-adv-x="1206" d="M164 -391l160 1278h-125q-23 0 -30 9t-5 32l6 76q2 39 45 40l113 9h14l18 143q35 293 445 293h360q20 0 29.5 -8t7.5 -33l-12 -88q-2 -43 -43 -43h-348q-221 0 -238 -141l-16 -123h596q43 0 37 -41l-119 -969q-6 -43 -43 -43h-125q-36 0 -36 33q0 5 1 10l105 844h-435 l-159 -1278q-6 -43 -43 -43h-123q-43 0 -37 43z" />
<glyph unicode="&#xfb02;" horiz-adv-x="1206" d="M164 -391l160 1278h-125q-23 0 -30 9t-5 32l6 76q2 39 45 40l113 9h14l18 143q35 293 445 293h389q43 0 37 -41l-172 -1405q-6 -43 -43 -43h-125q-36 0 -36 33q0 5 1 10l158 1274h-215q-221 0 -238 -141l-16 -123h207q41 0 39 -39l-11 -86q-6 -41 -45 -41h-209 l-159 -1278q-6 -43 -43 -43h-123q-43 0 -37 43z" />
<glyph unicode="&#xfb03;" horiz-adv-x="1826" d="M172 930l8 74q8 39 45 40l113 9h14l21 155q39 289 450 289h23q43 0 37 -41l-13 -84q-6 -41 -47 -41h-14q-219 0 -236 -145l-18 -133h436l17 147q33 289 444 289h360q43 0 37 -41l-10 -84q-8 -41 -45 -41h-348q-217 0 -236 -145l-18 -125h598q41 0 35 -41l-119 -971 q-6 -41 -43 -41h-125q-41 0 -35 41l105 850h-434l-160 -1284q-4 -25 -12.5 -33t-30.5 -8h-123q-43 0 -37 41l160 1284h-434l-160 -1284q-6 -41 -43 -41h-123q-43 0 -37 41l160 1284h-125q-43 0 -37 39z" />
<glyph unicode="&#xfb04;" horiz-adv-x="1853" d="M170 930l10 74q8 39 43 40l113 9h16l19 155q37 289 450 289h23q43 0 37 -41l-13 -84q-6 -41 -45 -41h-16q-219 0 -236 -145l-18 -133h438l17 147q37 289 444 289h391q41 0 35 -41l-172 -1407q-6 -41 -43 -41h-125q-41 0 -35 41l158 1282h-215q-223 0 -236 -145l-18 -125 h209q39 0 37 -39l-11 -84q-2 -39 -45 -39h-208l-160 -1284q-4 -25 -12.5 -33t-30.5 -8h-123q-43 0 -37 41l160 1284h-436l-158 -1284q-6 -41 -45 -41h-123q-43 0 -37 41l160 1284h-125q-43 0 -37 39z" />
<glyph unicode=" "  horiz-adv-x="448" />
<glyph unicode="&#x09;" horiz-adv-x="448" />
<glyph unicode="&#xa0;" horiz-adv-x="448" />
<glyph unicode="!" horiz-adv-x="561" d="M178 41l23 170q6 41 45 41h129q41 0 35 -41l-23 -170q-6 -41 -45 -41h-127q-43 0 -37 41zM246 406l30 425l72 574q6 43 43 43h133q34 0 34 -30q0 -6 -1 -13l-68 -574l-73 -425q-6 -41 -45 -41h-92q-35 0 -33 41z" />
<glyph unicode="&#x22;" horiz-adv-x="833" d="M297 1051l25 354q2 43 45 43h122q34 0 34 -32q0 -5 -1 -11l-59 -354q-6 -43 -45 -43h-88q-35 0 -33 43zM627 1051l26 354q2 43 45 43h121q36 0 36 -33q0 -5 -1 -10l-61 -354q-6 -43 -43 -43h-88q-37 0 -35 43z" />
<glyph unicode="#" horiz-adv-x="1411" d="M219 471l6 68q2 39 45 39h162l84 200h-125q-37 0 -35 39l6 70q2 37 48 37h165l76 188q18 43 56 43h92q39 0 22 -43l-76 -188h299l76 188q16 43 56 43h92q39 0 22 -43l-76 -188h111q39 0 37 -37l-8 -70q-2 -39 -45 -39h-152l-84 -200h115q39 0 37 -39l-6 -68 q-2 -41 -48 -41h-155l-76 -184q-18 -43 -53 -43h-94q-41 0 -25 43l76 184h-299l-74 -184q-16 -43 -53 -43h-94q-30 0 -31 21q0 9 6 22l76 184h-121q-37 0 -35 41zM604 578h299l84 200h-299z" />
<glyph unicode="$" horiz-adv-x="1132" d="M244 403q0 12 2 33l6 51q6 39 43 39h113q31 0 28 -39l-4 -41q-2 -14 -2 -26q0 -43 54.5 -67.5t148.5 -24.5q219 0 233 108l6 49q2 25 2 37q0 51 -98 86l-295 105q-154 53 -153 200q0 10 2 35l8 72q25 217 317 246l19 139q6 43 47 43h123q39 0 30 -43l-18 -143 q125 -20 189.5 -82t64.5 -144q0 -12 -2 -35l-4 -45q-2 -39 -43 -38h-113q-37 0 -33 38l5 37q2 14 2 33q0 96 -187 96q-197 0 -211 -104l-4 -31q-2 -20 -2 -24q0 -66 74 -93l309 -106q80 -27 123 -77t43 -109q0 -12 -4 -52l-10 -106q-10 -94 -90 -156.5t-238 -81.5l-18 -139 q-6 -43 -43 -43h-123q-43 0 -37 43l18 139q-139 18 -208.5 78.5t-69.5 142.5z" />
<glyph unicode="%" horiz-adv-x="1734" d="M283 991q0 12 4 37l26 215q12 106 88 162.5t240 56.5q143 0 215 -48t72 -134q0 -27 -2 -43l-27 -215q-12 -106 -88 -161.5t-238 -55.5q-290 0 -290 186zM444 43l828 1362q27 43 63 43h115q20 0 23.5 -12.5t-7.5 -30.5l-829 -1362q-23 -43 -62 -43h-114q-14 0 -20 7 q-4 6 -4 14q0 12 7 22zM455 1016q0 -74 131 -74q139 0 147 88l21 187q4 29 4 36q0 72 -129 72q-137 0 -148 -86l-22 -186q0 -8 -1 -16.5t-2 -13.5t-1 -7zM979 166q0 12 4 39l27 215q12 106 88 162.5t239 56.5q143 0 216 -49t73 -133q0 -29 -4 -43l-27 -215 q-12 -106 -87.5 -161.5t-237.5 -55.5q-291 0 -291 184zM1151 193q0 -76 131 -76q137 0 148 90l20 184q4 31 4 37q0 72 -129 72q-137 0 -147 -84l-23 -189q0 -8 -1 -15t-2 -12t-1 -7z" />
<glyph unicode="&#x26;" horiz-adv-x="1452" d="M195 266q0 29 2 45l26 207q12 98 61.5 156.5t159.5 87.5q-150 43 -149 184q0 16 4 47l18 154q16 147 121 233t355 86q201 0 308 -71.5t107 -204.5v-33l-6 -74q-8 -39 -45 -39h-127q-37 0 -33 39l4 43v27q0 139 -223 139q-121 0 -185.5 -40t-74.5 -140l-10 -90 q-6 -39 -6 -41q0 -137 231 -137h699q41 0 36 -41l-12 -92q-2 -39 -43 -39h-145l-45 -363q-45 -326 -549 -325q-252 0 -365.5 77.5t-113.5 204.5zM403 307q0 -152 289 -151q307 0 330 180l41 336h-367q-143 0 -201.5 -43t-70.5 -137l-18 -154q-3 -17 -3 -31z" />
<glyph unicode="'" horiz-adv-x="501" d="M297 1051l25 354q2 43 45 43h122q34 0 34 -32q0 -5 -1 -11l-59 -354q-6 -43 -45 -43h-88q-35 0 -33 43z" />
<glyph unicode="(" horiz-adv-x="755" d="M137 -201q0 12 4 43l170 1375q18 154 114.5 222t317.5 68h41q36 0 37 -27q0 -5 -2 -12l-10 -90q-6 -43 -47 -43h-14q-117 0 -169.5 -34.5t-60.5 -106.5l-166 -1339q-4 -16 -4 -27q0 -119 199 -119h16q36 0 36 -32q0 -5 -1 -11l-10 -90q-6 -41 -45 -41h-15 q-193 0 -292 70.5t-99 193.5z" />
<glyph unicode=")" horiz-adv-x="755" d="M61 -424l9 90q6 43 47 43h14q217 0 234 139l163 1340q4 27 4 31q0 117 -200 116h-15q-36 0 -35 33q0 5 1 10l12 90q2 39 43 39h14q193 0 292 -69.5t99 -194.5q0 -12 -4 -41l-168 -1374q-20 -154 -116.5 -223.5t-317.5 -69.5h-39q-43 0 -37 41z" />
<glyph unicode="*" horiz-adv-x="1112" d="M295 918q-5 11 -5 20q0 22 27 35l246 117l-215 122q-33 18 -12 54l35 57q14 25 32 25q12 0 27 -11l215 -151l23 284q2 39 43 39h69q37 0 31 -39l-49 -280l244 149q16 10 27 10q17 0 26 -22l26 -61q5 -10 5 -20q0 -21 -27 -34l-250 -122l219 -119q21 -10 21 -28 q0 -11 -9 -25l-36 -60q-16 -24 -35 -24q-11 0 -23 10l-211 147l-18 -262q-4 -43 -43 -43h-70q-34 0 -33 32v11l48 266l-252 -153q-14 -8 -25 -9q-19 0 -29 25z" />
<glyph unicode="+" horiz-adv-x="1214" d="M229 676v90q0 41 41 41h330v330q0 43 39 43h90q39 0 39 -43v-330h336q39 0 39 -41v-90q0 -41 -39 -41h-336v-330q0 -41 -39 -41h-90q-39 0 -39 41v330h-330q-41 0 -41 41z" />
<glyph unicode="," horiz-adv-x="548" d="M53 -106q-1 6 -1 11q0 28 36 40q59 23 85 53.5t32 75.5l16 137q6 41 45 41h127q41 0 35 -41l-18 -148q-29 -219 -289 -282q-7 -2 -14 -2q-25 0 -33 26z" />
<glyph unicode="-" horiz-adv-x="952" d="M217 571v88q0 39 41 39h571q39 0 39 -39v-88q0 -39 -39 -39h-571q-41 0 -41 39z" />
<glyph unicode="." horiz-adv-x="495" d="M150 41l18 170q2 41 45 41h129q34 0 34 -31q0 -5 -1 -10l-21 -170q-6 -41 -43 -41h-129q-34 0 -33 31q0 4 1 10z" />
<glyph unicode="/" horiz-adv-x="782" d="M29 -272l653 1718q16 43 51 43h139q33 0 33 -23q0 -8 -4 -20l-655 -1718q-16 -43 -53 -43h-142q-28 0 -28 20q0 10 6 23z" />
<glyph unicode="0" horiz-adv-x="1171" d="M156 264q0 20 4 55l100 818q41 330 494 329q223 0 328.5 -78.5t105.5 -205.5q0 -14 -4 -54l-99 -817q-39 -328 -495 -327q-225 0 -329.5 77.5t-104.5 202.5zM369 313q0 -154 235 -153q252 0 277 184l92 750q2 16 2 41q0 154 -234 153q-254 0 -276 -184l-92 -739 q-4 -36 -4 -52z" />
<glyph unicode="1" horiz-adv-x="1171" d="M154 41l10 98q6 37 45 37h317l131 1063l-323 -63q-18 -4 -27.5 5t-7.5 31l10 99q2 33 47 43l498 104l10 2q10 0 17 -6q10 -8 8 -33l-154 -1245h314q41 0 34 -37l-10 -98q-6 -41 -47 -41h-838q-40 0 -34 41z" />
<glyph unicode="2" horiz-adv-x="1171" d="M164 41l51 410q6 61 41 102t64.5 56.5t80.5 33.5l433 156q113 41 122 137l21 162q2 16 2 45q0 147 -231 147q-137 0 -199 -45t-74 -139l-12 -92q-6 -43 -43 -43h-125q-39 0 -35 43l14 123q8 72 35 127t80 103t148.5 73.5t224.5 25.5q225 0 326.5 -77.5t101.5 -204.5 q0 -20 -4 -56l-23 -194q-29 -223 -229 -291l-381 -131l-61 -26q-23 -9 -47.5 -36.5t-28.5 -68.5l-29 -205h647q41 0 37 -37l-10 -98q-6 -41 -47 -41h-815q-41 0 -35 41z" />
<glyph unicode="3" horiz-adv-x="1171" d="M152 264q0 27 2 45l6 56q6 41 45 41h123q39 0 34 -41l-2 -29q-2 -14 -2 -35q0 -145 236 -145q252 0 274 180l21 156q2 23 2 40q0 139 -229 140h-181q-41 0 -37 39l13 92q6 41 45 41h162q139 0 198.5 43t73.5 135l12 90q2 16 2 37q0 143 -223 143q-250 0 -262 -180l-2 -29 q-2 -39 -45 -39h-123q-39 0 -35 39l4 56q23 328 484 327q414 0 413 -276q0 -14 -4 -57l-20 -144q-10 -92 -55.5 -145t-143.5 -82q162 -51 162 -201q0 -20 -4 -59l-27 -201q-16 -147 -125.5 -232t-361.5 -85q-225 0 -327.5 76.5t-102.5 203.5z" />
<glyph unicode="4" horiz-adv-x="1171" d="M145 469l11 88q2 29 14 53l369 795q18 43 55 43h133q39 0 23 -43l-369 -799h493l99 799q6 43 47 43h131q32 0 32 -32q0 -5 -1 -11l-166 -1362q-6 -43 -43 -43h-129q-43 0 -37 43l49 387h-676q-41 0 -35 39z" />
<glyph unicode="5" horiz-adv-x="1171" d="M168 262q0 29 2 45l6 56q2 43 43 43h125q37 0 35 -43l-2 -25q0 -2 -1 -16.5t-1 -22.5q0 -145 227 -145q135 0 193.5 45t70.5 137l27 203q4 29 4 51q0 143 -227 143h-363q-39 0 -35 43l78 629q6 43 41 43h739q43 0 37 -41l-10 -94q-6 -41 -45 -41h-569l-47 -367h194 q207 0 313.5 -74.5t106.5 -199.5q0 -10 -4 -53l-33 -271q-18 -152 -125.5 -238.5t-359.5 -86.5q-420 -1 -420 280z" />
<glyph unicode="6" horiz-adv-x="1171" d="M168 262q0 18 4 49l102 836q39 319 480 319q219 0 316 -77.5t97 -198.5q0 -20 -2 -43l-6 -47q-2 -41 -43 -41h-125q-41 0 -35 41l2 16q2 8 3 33q0 143 -222 143q-242 0 -262 -176l-43 -332q94 88 287 88q197 0 293 -78.5t96 -201.5q0 -18 -4 -57l-27 -224 q-8 -70 -34.5 -126t-80 -103t-147.5 -72.5t-225 -25.5q-221 0 -322.5 76.5t-101.5 201.5zM379 303q0 -147 227 -147q137 0 196.5 46t71.5 136l23 178q4 33 4 37q0 147 -231 147q-244 0 -264 -168l-23 -182q-4 -39 -4 -47z" />
<glyph unicode="7" horiz-adv-x="1171" d="M262 1313l12 94q6 41 45 41h895q45 0 39 -41l-12 -80q-4 -33 -29 -80l-671 -1204q-23 -43 -54 -43h-153q-31 0 -31 19q0 10 8 24l684 1229h-694q-45 0 -39 41z" />
<glyph unicode="8" horiz-adv-x="1171" d="M166 264q0 25 2 47l27 213q10 94 63 151.5t162 86.5q-152 47 -152 194q0 12 4 52l15 129q18 154 115.5 241.5t347.5 87.5q408 0 407 -278q0 -16 -4 -51l-18 -138q-10 -96 -57.5 -151t-151.5 -86q174 -51 174 -205q0 -10 -4 -43l-25 -203q-18 -152 -124.5 -239.5 t-358.5 -87.5q-223 0 -322.5 77.5t-99.5 202.5zM375 301q0 -145 225 -145q137 0 196.5 46t71.5 136l21 145q2 16 2 45q0 147 -229 148q-133 0 -192.5 -45t-74.5 -139l-18 -154q-2 -17 -2 -37zM475 991q0 -76 46 -110.5t163 -34.5q131 0 185.5 46t68.5 138l10 80q2 18 2 41 q0 72 -48 106.5t-165 34.5q-133 0 -185 -44t-65 -138l-10 -80q-2 -19 -2 -39z" />
<glyph unicode="9" horiz-adv-x="1171" d="M176 258q0 20 2 45l6 47q8 39 45 39h125q39 0 33 -39l-2 -18q-2 -14 -2 -31q0 -145 223 -145q133 0 191.5 46t68.5 130l43 332q-94 -88 -282 -89q-201 0 -297.5 79t-96.5 202q0 18 5 57l28 224q18 152 126 240.5t358 88.5q221 0 323.5 -77.5t102.5 -202.5q0 -18 -5 -49 l-100 -834q-39 -319 -475 -319q-221 0 -320.5 77.5t-99.5 196.5zM444 897q0 -150 232 -149q242 0 264 167l21 185q4 37 4 47q0 145 -226 145q-137 0 -197.5 -45t-72.5 -137l-23 -176q-2 -19 -2 -37z" />
<glyph unicode=":" horiz-adv-x="495" d="M150 41l18 170q6 41 47 41h127q39 0 33 -41l-19 -170q-6 -41 -45 -41h-129q-34 0 -33 31q0 4 1 10zM248 844l20 170q6 43 45 43h127q23 0 30 -10.5t5 -32.5l-20 -170q-4 -41 -45 -41h-129q-35 0 -33 41z" />
<glyph unicode=";" horiz-adv-x="591" d="M100 -106q-2 8 -2 14q0 27 33 37q61 20 87 52t32 77l16 137q6 41 45 41h129q39 0 33 -41l-18 -148q-29 -219 -287 -282q-8 -2 -14 -2q-26 0 -33 26zM344 844l21 170q6 43 47 43h127q34 0 33 -32q0 -5 -1 -11l-20 -170q-2 -41 -43 -41h-129q-37 0 -35 41z" />
<glyph unicode="&#x3c;" horiz-adv-x="1132" d="M227 653v140q0 29 39 45l754 333q9 3 15 4q9 0 16 -7q10 -11 10 -35v-119q0 -18 -8.5 -27.5t-32.5 -17.5l-592 -246l592 -244q41 -16 41 -47v-119q0 -25 -10 -34q-6 -6 -15 -6q-7 0 -16 3l-754 332q-39 20 -39 45z" />
<glyph unicode="=" horiz-adv-x="1245" d="M203 449v92q0 39 41 39h862q41 0 41 -39v-92q0 -39 -41 -39h-862q-41 0 -41 39zM203 854v92q0 37 41 37h862q41 0 41 -37v-92q0 -41 -41 -41h-862q-41 0 -41 41z" />
<glyph unicode="&#x3e;" horiz-adv-x="1132" d="M184 311v123q0 23 9.5 31t31.5 16l592 242l-592 242q-41 16 -41 47v123q0 25 12 35q7 7 15 7q6 0 14 -4l754 -333q37 -16 37 -45v-144q0 -29 -37 -45l-754 -334q-8 -3 -14 -3q-9 0 -15 6q-12 11 -12 36z" />
<glyph unicode="?" horiz-adv-x="1204" d="M262 1014l14 123q45 330 498 329q223 0 328.5 -83t105.5 -207q0 -27 -2 -48l-18 -133q-23 -203 -221 -293l-123 -55q-102 -47 -115 -135l-16 -106q-6 -41 -41 -41h-131q-41 0 -37 41l22 157q6 57 37 99.5t56.5 59.5t68.5 38l178 88q100 47 115 149l16 109q2 18 2 41 q0 143 -241 143q-258 0 -281 -184l-12 -92q-6 -43 -43 -43h-125q-36 0 -36 32q0 5 1 11zM463 41l18 168q6 43 45 43h131q37 0 33 -41l-18 -170q-8 -41 -45 -41h-131q-20 0 -27.5 8t-5.5 33z" />
<glyph unicode="@" horiz-adv-x="1904" d="M184 78q0 20 9 78l94 780q10 70 31.5 126t79 112.5t144.5 95.5t231.5 61.5t338.5 22.5q215 0 364.5 -29t227.5 -81t111.5 -112.5t33.5 -138.5q0 -18 -4 -65l-69 -551q-35 -307 -359 -307q-215 0 -258 135q-178 -135 -352 -135q-117 0 -175.5 53t-58.5 149q0 51 9 88 l71 326q33 143 109 216t215 73q152 0 291 -113l14 56q12 41 47 40h109q35 0 34 -26q0 -6 -2 -14l-116 -502q-12 -63 -13 -92q0 -102 101 -103q117 0 141 185l64 514q2 16 2 43q0 111 -123 168t-428 57q-334 0 -467 -65.5t-148 -196.5l-96 -766q-4 -31 -4 -51 q0 -113 123 -169.5t432 -56.5h383q39 0 33 -41l-8 -88q-2 -39 -48 -39h-376q-172 0 -304.5 18.5t-213 52.5t-131 81t-70 98.5t-19.5 112.5zM780 338q0 -84 125 -84q113 0 238 84q0 18 6 35l76 329q-98 92 -203 93q-145 0 -178 -148l-56 -254q-8 -28 -8 -55z" />
<glyph unicode="A" horiz-adv-x="1144" d="M47 41l580 1366q18 41 55 41h131q39 0 45 -41l248 -1366q6 -41 -35 -41h-131q-39 0 -45 41l-57 330h-451l-139 -330q-18 -41 -51 -41h-125q-29 0 -30 21q0 8 5 20zM457 537h354l-70 387q-8 41 -13 119.5t-7 136.5v59q0 -2 -19 -65l-39 -136q-22 -72 -38 -110z" />
<glyph unicode="B" horiz-adv-x="1249" d="M178 43l170 1362q6 43 43 43h371q236 0 345.5 -76t109.5 -201q0 -14 -5 -49l-16 -121q-20 -178 -207 -243q100 -27 156.5 -91.5t56.5 -142.5q0 -29 -2 -43l-22 -170q-39 -311 -519 -311h-444q-41 0 -37 43zM406 172h268q279 0 301 176l16 121q2 14 2 35q0 158 -256 158 h-272zM483 823h224q266 0 286 181l11 90q2 14 2 36q0 145 -254 146h-211z" />
<glyph unicode="C" horiz-adv-x="1189" d="M182 266q0 14 6 53l99 818q41 330 506 329q229 0 333.5 -77.5t104.5 -206.5q0 -14 -4 -54l-10 -96q-6 -41 -43 -41h-125q-41 0 -35 41l8 64q2 12 2 39q0 154 -244 153q-264 0 -288 -184l-91 -748q-4 -16 -4 -41q0 -156 244 -155q268 0 289 184l12 100q2 41 45 41h123 q39 0 33 -41l-15 -133q-35 -328 -505 -327q-231 0 -336 78.5t-105 203.5z" />
<glyph unicode="D" horiz-adv-x="1292" d="M178 43l170 1362q6 43 43 43h436q236 0 346.5 -81t110.5 -208q0 -29 -4 -57l-94 -774q-39 -328 -514 -328h-461q-34 0 -34 32q0 5 1 11zM406 176h276q274 0 297 186l88 707q4 39 4 45q0 158 -256 158h-274z" />
<glyph unicode="E" horiz-adv-x="1103" d="M178 43l170 1362q6 43 43 43h729q43 0 37 -41l-14 -94q-6 -41 -43 -41h-559l-54 -430h523q41 0 34 -41l-12 -92q-6 -39 -43 -39h-522l-61 -494h581q43 0 37 -37l-12 -98q-6 -41 -45 -41h-752q-43 0 -37 43z" />
<glyph unicode="F" horiz-adv-x="1114" d="M178 43l170 1362q6 43 43 43h783q43 0 36 -41l-14 -94q-6 -41 -43 -41h-612l-56 -432h576q43 0 37 -41l-15 -99q-6 -41 -43 -41h-573l-80 -616q-6 -43 -43 -43h-129q-43 0 -37 43z" />
<glyph unicode="G" horiz-adv-x="1218" d="M182 266q0 18 6 53l99 818q41 330 506 329q229 0 333.5 -78.5t104.5 -209.5q0 -12 -4 -52l-8 -82q-2 -41 -45 -40h-123q-39 0 -35 40l6 60q2 12 2 35q0 150 -242 149q-266 0 -290 -184l-91 -748q-6 -31 -6 -43q0 -154 244 -153q266 0 289 182l26 205h-254q-37 0 -32 41 l10 98q2 39 45 39h414q41 0 37 -39l-46 -375q-41 -328 -505 -327q-231 0 -336 78.5t-105 203.5z" />
<glyph unicode="H" horiz-adv-x="1314" d="M178 43l170 1362q6 43 43 43h131q34 0 34 -30q0 -6 -1 -13l-68 -559h553l68 559q6 43 47 43h129q34 0 34 -32q0 -5 -1 -11l-168 -1362q-8 -43 -41 -43h-131q-36 0 -36 33q0 5 1 10l76 627h-551l-80 -627q-6 -43 -43 -43h-129q-43 0 -37 43z" />
<glyph unicode="I" horiz-adv-x="555" d="M178 43l170 1362q6 43 43 43h131q34 0 34 -30q0 -6 -1 -13l-168 -1362q-6 -43 -43 -43h-129q-43 0 -37 43z" />
<glyph unicode="J" horiz-adv-x="1073" d="M84 264q0 25 4 64l10 92q6 43 47 43h125q34 0 34 -32q0 -5 -1 -11l-8 -68q-4 -14 -4 -47q0 -145 209 -145q123 0 175 46t64 138l131 1061q6 43 45 43h132q34 0 33 -32q0 -5 -1 -11l-133 -1094q-20 -152 -119.5 -239.5t-339.5 -87.5q-211 0 -307 77.5t-96 202.5z" />
<glyph unicode="K" horiz-adv-x="1200" d="M176 41l168 1366q8 41 45 41h131q41 0 33 -41l-74 -608h49l521 608q35 41 69 41h146q24 0 24 -16q0 -10 -12 -25l-576 -672l467 -694q10 -16 3 -28.5t-27 -12.5h-166q-27 0 -57 41l-402 602h-57l-76 -602q-6 -41 -43 -41h-129q-43 0 -37 41z" />
<glyph unicode="L" horiz-adv-x="1030" d="M178 43l170 1362q6 43 43 43h131q34 0 34 -30q0 -6 -1 -13l-149 -1229h544q43 0 37 -37l-14 -98q-6 -41 -45 -41h-717q-34 0 -34 32q0 5 1 11z" />
<glyph unicode="M" horiz-adv-x="1562" d="M176 41l168 1366q6 41 45 41h115q29 0 35 -23l264 -856q16 -55 33 -129q20 51 59 127l467 863q10 18 39 18h129q32 0 31 -30v-11l-168 -1366q-6 -41 -41 -41h-125q-43 0 -37 41l123 979q-47 -119 -72 -160l-321 -598q-23 -43 -58 -43h-104q-37 0 -53 43l-185 625 q-18 49 -26 129l-121 -975q-6 -41 -41 -41h-119q-43 0 -37 41z" />
<glyph unicode="N" horiz-adv-x="1314" d="M176 41l168 1366q8 41 45 41h111q29 0 35 -16l405 -897q37 -88 51 -138l123 1010q6 41 45 41h117q41 0 35 -41l-170 -1366q-6 -41 -41 -41h-111q-31 0 -39 18l-395 879q-29 61 -57 156l-125 -1012q-6 -41 -41 -41h-119q-43 0 -37 41z" />
<glyph unicode="O" horiz-adv-x="1269" d="M182 268q0 12 6 51l99 818q41 330 518 329q231 0 343 -79.5t112 -208.5q0 -31 -3 -50l-100 -817q-41 -328 -520 -327q-233 0 -344 78.5t-111 205.5zM395 317q0 -158 258 -157q272 0 297 184l94 750l5 36q0 158 -258 158q-274 0 -299 -184l-91 -748q-6 -31 -6 -39z" />
<glyph unicode="P" horiz-adv-x="1216" d="M178 43l170 1362q6 43 43 43h426q233 0 342 -83t109 -216q0 -6 -4 -55l-27 -238q-16 -154 -135 -235.5t-381 -81.5h-272l-62 -496q-6 -43 -43 -43h-129q-43 0 -37 43zM473 715h262q276 0 299 176l23 174q2 16 2 43q0 82 -58.5 123t-193.5 41h-266z" />
<glyph unicode="Q" horiz-adv-x="1267" d="M182 268q0 12 6 51l99 818q41 330 518 329q231 0 343 -79.5t112 -208.5q0 -31 -3 -50l-100 -817q-35 -262 -348 -315l233 -238q27 -27 -2 -55l-75 -70q-15 -15 -30 -14q-13 0 -26 12l-340 355q-199 12 -293 88.5t-94 193.5zM395 317q0 -158 258 -157q272 0 297 184 l94 750l5 36q0 158 -258 158q-274 0 -299 -184l-91 -748q-6 -31 -6 -39z" />
<glyph unicode="R" horiz-adv-x="1263" d="M178 43l170 1362q6 43 43 43h422q233 0 344 -84t111 -217q0 -31 -2 -47l-25 -211q-25 -227 -285 -293l185 -553q8 -20 -5.5 -31.5t-33.5 -11.5h-131q-25 0 -41 43l-176 530h-299l-68 -530q-6 -43 -43 -43h-129q-41 0 -37 43zM475 750h264q279 0 301 174l17 141q2 14 2 39 q0 168 -252 168h-266z" />
<glyph unicode="S" horiz-adv-x="1208" d="M164 270q0 29 2 49l12 115q6 43 45 43h127q34 0 34 -32q0 -5 -1 -11l-10 -86q-2 -20 -2 -41q0 -152 254 -151q270 0 292 180l17 108q2 16 2 29q0 49 -41 79t-119 62l-303 121q-201 82 -201 252q0 25 2 43l13 107q14 96 56 164.5t151.5 116.5t285.5 48q227 0 329.5 -78.5 t102.5 -205.5q0 -27 -2 -45l-10 -93q-4 -41 -45 -40h-127q-39 0 -33 40l9 68q2 16 2 31q0 150 -240 149q-258 0 -279 -178l-6 -55q-2 -14 -2 -29q0 -41 22.5 -62.5t69.5 -41.5l363 -144q207 -84 207 -264q0 -33 -2 -49l-17 -158q-37 -328 -512 -327q-231 0 -338.5 79.5 t-107.5 206.5z" />
<glyph unicode="T" horiz-adv-x="1036" d="M193 1313l10 94q6 41 45 41h889q43 0 37 -41l-11 -94q-6 -41 -45 -41h-340l-153 -1229q-6 -43 -43 -43h-131q-36 0 -36 33q0 5 1 10l153 1229h-342q-36 0 -36 29q1 5 2 12z" />
<glyph unicode="U" horiz-adv-x="1292" d="M195 272q0 23 4 56l133 1077q6 43 43 43h129q36 0 35 -33v-10l-127 -1030q-4 -51 -4 -58q0 -158 254 -157q276 0 299 184l133 1061q6 43 41 43h131q36 0 36 -30q0 -6 -2 -13l-135 -1094q-41 -328 -516 -327q-229 0 -341.5 80.5t-112.5 207.5z" />
<glyph unicode="V" horiz-adv-x="1144" d="M213 1407q-6 41 37 41h139q37 0 43 -41l156 -883q16 -102 16 -260q37 145 84 256l375 887q16 41 53 41h131q32 0 32 -21q0 -8 -5 -20l-582 -1366q-14 -41 -53 -41h-131q-41 0 -47 41z" />
<glyph unicode="W" horiz-adv-x="1738" d="M213 1407q-6 41 37 41h131q35 0 41 -41l115 -885q12 -115 12 -166l57 166l336 885q12 41 53 41h121q37 0 43 -41l113 -885q12 -96 12 -188l6 24q6 23 15 50l18 59q10 33 18 55l332 885q18 41 53 41h119q28 0 29 -22q0 -8 -4 -19l-514 -1366q-14 -41 -56 -41h-126 q-37 0 -44 41l-114 903q-10 84 -10 168q-2 -4 -10.5 -36t-20.5 -72l-19 -62l-340 -901q-16 -41 -53 -41h-129q-39 0 -45 41z" />
<glyph unicode="X" horiz-adv-x="1193" d="M84 47l483 696l-305 660q-7 15 -6 24q0 21 29 21h147q37 0 55 -41l228 -489l336 489q27 41 65 41h141q26 0 26 -15q0 -10 -11 -26l-475 -668l323 -698q16 -41 -24 -41h-148q-37 0 -55 41l-242 514l-350 -514q-25 -41 -63 -41h-142q-25 0 -25 16q0 11 13 31z" />
<glyph unicode="Y" horiz-adv-x="1126" d="M211 1407q-4 10 -4 17q0 24 39 24h143q35 0 45 -41l199 -561q8 -29 20 -96q27 66 45 96l351 561q25 41 53 41h133q33 0 33 -18q0 -9 -8 -23l-521 -832l-65 -534q-6 -41 -43 -41h-131q-41 0 -35 41l61 510z" />
<glyph unicode="Z" horiz-adv-x="1064" d="M96 41l13 96q2 18 16 39l735 1096h-534q-43 0 -37 41l14 94q6 41 45 41h750q41 0 35 -41l-11 -94q-2 -18 -18 -41l-735 -1096h606q43 0 37 -37l-13 -98q-6 -41 -43 -41h-821q-45 0 -39 41z" />
<glyph unicode="[" horiz-adv-x="804" d="M111 -408l227 1854q6 43 45 43h434q43 0 37 -41l-12 -96q-6 -39 -45 -39h-265l-198 -1585h266q43 0 37 -41l-10 -97q-6 -39 -45 -39h-435q-42 0 -36 41z" />
<glyph unicode="\" horiz-adv-x="782" d="M238 1446q-6 43 36 43h134q37 0 43 -43l231 -1718q6 -43 -37 -43h-131q-37 0 -43 43z" />
<glyph unicode="]" horiz-adv-x="804" d="M76 -410l14 97q6 41 41 41h266l197 1585h-264q-43 0 -35 39l10 96q6 41 45 41h434q36 0 37 -30q0 -6 -2 -13l-229 -1854q-6 -41 -43 -41h-434q-43 0 -37 39z" />
<glyph unicode="^" horiz-adv-x="1202" d="M231 655l334 754q18 39 43 39h140q31 0 45 -39l333 -754q3 -8 4 -14q0 -9 -7 -15q-11 -11 -33 -12h-121q-27 0 -45 41l-246 588l-244 -588q-16 -41 -45 -41h-121q-20 0 -32 12q-7 7 -8 16q0 6 3 13z" />
<glyph unicode="_" horiz-adv-x="942" d="M6 -209q0 39 41 39h768q41 0 41 -39v-92q0 -39 -41 -39h-768q-41 0 -41 39v92z" />
<glyph unicode="`" horiz-adv-x="688" d="M348 1468q-6 12 -6 20q0 19 33 19h127q37 0 51 -37l96 -229q4 -10 4 -17q0 -20 -28 -20h-95q-37 0 -49 25z" />
<glyph unicode="a" d="M156 223q0 14 4 49l63 512q37 289 330 289q201 0 346 -127l12 68q8 43 45 43h113q36 0 36 -33q0 -5 -1 -10l-121 -971q-6 -43 -43 -43h-117q-33 0 -32 43l4 63q-178 -123 -365 -122q-133 0 -203.5 63t-70.5 176zM362 272q0 -109 146 -108q139 0 301 108l63 510 q-129 111 -274 111q-158 0 -176 -139l-57 -451q-3 -13 -3 -31z" />
<glyph unicode="b" d="M156 43l172 1403q6 43 45 43h125q37 0 32 -43l-59 -494q170 121 358 121q131 0 203 -64.5t72 -179.5q0 -31 -2 -45l-66 -512q-35 -289 -334 -288q-193 0 -340 122l-12 -63q-10 -43 -45 -43h-115q-38 0 -34 43zM387 272q131 -109 275 -108q160 0 176 139l57 451q2 12 2 28 q0 111 -143 111q-150 0 -305 -111z" />
<glyph unicode="c" horiz-adv-x="1030" d="M156 233q0 27 2 41l61 508q16 139 118.5 215t321.5 76q377 0 377 -252q0 -23 -2 -43l-4 -35q-6 -41 -43 -41h-117q-35 0 -32 39l2 25q2 18 2 33q0 109 -193 108q-117 0 -168 -34.5t-59 -106.5l-57 -455q-4 -35 -5 -47q0 -57 44.5 -85.5t148.5 -28.5q117 0 167 34.5 t62 104.5l6 43q6 41 43 41h115q37 0 33 -41l-6 -58q-31 -291 -438 -290q-379 -1 -379 249z" />
<glyph unicode="d" d="M156 223q0 14 4 49l63 512q37 289 330 289q197 0 340 -121l59 494q6 43 45 43h125q36 0 36 -33q0 -5 -1 -10l-174 -1403q-6 -43 -43 -43h-117q-33 0 -32 43l2 63q-178 -123 -363 -122q-133 0 -203.5 63t-70.5 176zM362 272q0 -109 146 -108q139 0 301 108l63 510 q-129 111 -274 111q-162 0 -176 -139l-55 -443q-5 -31 -5 -39z" />
<glyph unicode="e" horiz-adv-x="1052" d="M156 233q0 29 2 41l61 508q16 139 118.5 215t321.5 76q193 0 285 -66.5t92 -185.5q0 -27 -2 -39l-30 -260q-2 -39 -43 -39h-580l-23 -180q-4 -43 -4 -45q0 -117 197 -117q213 0 231 135l4 35q6 41 48 41h106q37 0 33 -41l-4 -37q-16 -143 -113.5 -216.5t-316.5 -73.5 q-383 -1 -383 249zM401 635h426l17 127q2 12 2 35q0 119 -199 118q-213 0 -229 -141z" />
<glyph unicode="f" horiz-adv-x="708" d="M164 928l8 76q2 39 45 40l113 9h12l20 153q35 291 453 291h23q36 0 36 -29q0 -6 -2 -12l-10 -88q-6 -43 -47 -43h-14q-221 0 -238 -141l-18 -131h209q45 0 39 -39l-11 -86q-6 -41 -45 -41h-209l-159 -1278q-6 -43 -43 -43h-125q-36 0 -36 32q0 5 1 11l160 1278h-125 q-43 0 -37 41z" />
<glyph unicode="g" d="M156 225q0 18 4 47l63 512q37 289 330 289q201 0 346 -127l12 68q8 43 43 43h115q39 0 35 -43l-141 -1157q-37 -291 -459 -291h-293q-45 0 -39 41l10 88q8 41 47 41h295q219 0 236 143l28 223q-172 -119 -356 -118q-133 0 -204.5 64t-71.5 177zM362 274q0 -111 146 -110 q139 0 301 108l63 510q-129 111 -274 111q-162 0 -176 -139l-55 -439q-5 -31 -5 -41z" />
<glyph unicode="h" horiz-adv-x="1140" d="M156 43l172 1403q6 43 45 43h125q34 0 33 -32q0 -5 -1 -11l-59 -492q160 119 358 119q127 0 201 -64.5t74 -170.5q0 -25 -2 -37l-92 -758q-6 -43 -47 -43h-121q-36 0 -36 33q0 5 1 10l86 709q2 12 2 32q0 109 -143 109q-150 0 -303 -109l-89 -741q-6 -43 -45 -43h-125 q-36 0 -35 33q0 4 1 10z" />
<glyph unicode="i" horiz-adv-x="503" d="M156 43l120 971q6 43 43 43h123q43 0 37 -43l-119 -971q-6 -43 -45 -43h-125q-36 0 -35 33q0 4 1 10zM305 1255l23 191q6 43 45 43h125q34 0 33 -32q0 -5 -1 -11l-22 -191q-8 -41 -43 -41h-127q-34 0 -34 31q0 4 1 10z" />
<glyph unicode="j" horiz-adv-x="501" d="M-172 -393l10 88q6 41 47 41h15q217 0 235 143l139 1135q6 43 45 43h123q36 0 36 -33q0 -5 -1 -10l-143 -1157q-16 -141 -122 -216t-325 -75h-24q-41 0 -35 41zM305 1255l23 191q6 43 45 43h123q36 0 35 -33q0 -5 -1 -10l-22 -191q-4 -41 -43 -41h-125q-41 0 -35 41z" />
<glyph unicode="k" horiz-adv-x="1007" d="M154 41l172 1407q6 41 45 41h125q39 0 32 -41l-94 -778h53l365 346q41 41 70 41h141q20 0 26 -15q1 -3 1 -6q0 -11 -13 -22l-430 -416l352 -557q10 -16 3 -28.5t-29 -12.5h-135q-33 0 -56 41l-305 475h-61l-58 -475q-6 -41 -45 -41h-125q-40 0 -34 41z" />
<glyph unicode="l" horiz-adv-x="503" d="M156 43l172 1403q6 43 45 43h125q34 0 33 -32q0 -5 -1 -11l-170 -1403q-6 -43 -45 -43h-125q-36 0 -35 33q0 4 1 10z" />
<glyph unicode="m" horiz-adv-x="1767" d="M156 43l120 973q6 41 43 41h115q37 0 35 -41l-4 -66q156 123 350 123q98 0 168 -39t92 -106q168 145 377 145q129 0 203 -63.5t74 -167.5q0 -27 -3 -41l-92 -758q-6 -43 -45 -43h-123q-36 0 -35 33q0 5 1 10l84 698q6 35 6 41q0 111 -144 111q-158 0 -295 -111v-28 l-86 -711q-6 -43 -45 -43h-123q-36 0 -35 33q0 5 1 10l86 702q4 35 4 37q0 111 -144 111q-145 0 -292 -109l-89 -741q-6 -43 -45 -43h-125q-36 0 -35 33q0 4 1 10z" />
<glyph unicode="n" horiz-adv-x="1140" d="M156 43l120 973q6 41 43 41h115q39 0 37 -41l-4 -68q162 125 362 125q127 0 201 -64.5t74 -170.5q0 -31 -2 -47l-92 -748q-6 -43 -47 -43h-121q-36 0 -36 33q0 5 1 10l86 698q4 29 4 41q0 111 -143 111q-152 0 -305 -109l-89 -741q-6 -43 -45 -43h-125q-36 0 -35 33 q0 4 1 10z" />
<glyph unicode="o" horiz-adv-x="1105" d="M156 238q0 25 2 36l61 508q37 291 459 291q195 0 295 -66.5t100 -187.5q0 -25 -2 -37l-61 -508q-37 -291 -457 -290q-197 0 -297 67.5t-100 186.5zM360 268q0 -119 209 -118q223 0 240 141l59 473v22q0 121 -206 121q-223 0 -240 -143l-60 -473q-2 -9 -2 -23z" />
<glyph unicode="p" d="M102 -391l174 1405q6 43 43 43h115q39 0 37 -43l-6 -66q182 125 364 125q133 0 204 -64.5t71 -177.5q0 -33 -2 -47l-66 -512q-35 -289 -329 -288q-199 0 -340 118l-60 -493q-6 -43 -45 -43h-123q-41 0 -37 43zM387 272q131 -109 275 -108q160 0 176 139l55 442q4 31 4 39 q0 109 -143 109q-154 0 -303 -111z" />
<glyph unicode="q" d="M156 225q0 18 4 47l63 512q37 289 330 289q195 0 344 -125l12 66q8 43 45 43h115q39 0 35 -43l-174 -1405q-6 -43 -43 -43h-125q-37 0 -33 43l59 493q-172 -119 -356 -118q-133 0 -204.5 64t-71.5 177zM362 274q0 -111 146 -110q139 0 301 108l63 510q-129 111 -274 111 q-162 0 -176 -139l-55 -439q-5 -31 -5 -41z" />
<glyph unicode="r" horiz-adv-x="757" d="M156 43l120 973q6 41 43 41h115q39 0 37 -41l-6 -92q168 147 348 147q45 0 39 -41l-12 -100q-6 -37 -47 -39q-188 -14 -347 -135l-86 -713q-6 -43 -45 -43h-125q-36 0 -35 33q0 4 1 10z" />
<glyph unicode="s" horiz-adv-x="995" d="M127 207q0 12 2 35l8 49q6 39 41 39h113q33 0 31 -39l-5 -39q-2 -16 -2 -29q0 -43 54.5 -67.5t148.5 -24.5q219 0 234 111l6 47q2 25 2 37q0 51 -101 88l-292 104q-154 53 -154 199q0 12 2 35l8 71q29 250 408 250q180 0 272 -66.5t92 -164.5q0 -12 -2 -37l-4 -45 q-2 -37 -43 -37h-112q-37 0 -33 37l4 37q2 14 2 34q0 94 -186 95q-197 0 -211 -105l-4 -30q-2 -20 -3 -25q0 -66 74 -90l309 -107q80 -29 123 -79t43 -109q0 -12 -4 -51l-10 -107q-12 -106 -116.5 -172.5t-311.5 -66.5q-188 0 -285.5 63.5t-97.5 159.5z" />
<glyph unicode="t" horiz-adv-x="753" d="M158 928l8 76q2 37 45 40l117 9h2l28 215q6 43 45 43h123q36 0 36 -33q0 -5 -1 -10l-29 -215h222q39 0 34 -39l-8 -88q-2 -39 -47 -39h-219l-72 -563q-2 -14 -2 -37q0 -115 199 -115h41q36 0 36 -32q0 -5 -1 -11l-8 -88q-2 -41 -48 -41h-69q-193 0 -275 58.5t-82 177.5 q0 37 3 55l73 596h-116q-39 0 -35 41z" />
<glyph unicode="u" horiz-adv-x="1128" d="M164 217q0 25 2 37l94 760q6 43 45 43h123q36 0 36 -33q0 -5 -1 -10l-88 -709q-2 -14 -2 -35q0 -106 143 -106q139 0 291 106l90 744q6 43 45 43h125q36 0 36 -33q0 -5 -1 -10l-123 -973q-6 -41 -43 -41h-115q-37 0 -35 41l5 63q-154 -121 -351 -120q-129 0 -202.5 63.5 t-73.5 169.5z" />
<glyph unicode="v" horiz-adv-x="958" d="M156 1014q-1 5 -1 9q0 12 8 21q11 12 36 13h125q33 0 38 -43l127 -611q18 -78 19 -155q29 104 53 153l285 613q16 43 51 43h119q40 0 39 -24q0 -8 -4 -19l-457 -975q-16 -39 -47 -39h-139q-20 0 -27.5 7t-11.5 32z" />
<glyph unicode="w" horiz-adv-x="1449" d="M150 1014q-6 43 43 43h118q33 0 41 -43l92 -662q10 -66 11 -92q2 18 30 92l267 662q16 43 49 43h125q37 0 41 -43l84 -662l8 -94q0 2 11 36l20 58l260 662q18 43 49 43h104q37 0 37 -24q0 -8 -4 -19l-397 -975q-14 -39 -45 -39h-148q-33 0 -39 39l-80 629q-10 72 -10 102 l-37 -102l-258 -629q-14 -39 -47 -39h-145q-18 0 -24.5 7t-10.5 32z" />
<glyph unicode="x" horiz-adv-x="995" d="M44 19q0 10 9 22l398 500l-261 473q-7 14 -7 23q0 20 32 20h135q29 0 53 -43l191 -334l256 334q33 43 65 43h127q18 0 22 -14q1 -3 1 -5q0 -11 -10 -24l-383 -484l272 -487q8 -18 2 -30.5t-28 -12.5h-134q-31 0 -53 41l-199 350l-274 -350q-33 -41 -65 -41h-125 q-24 0 -24 19z" />
<glyph unicode="y" horiz-adv-x="958" d="M156 1014q-4 18 8 30.5t35 12.5h123q31 0 40 -43l130 -617q18 -94 18 -145q18 68 55 141l285 621q18 43 51 43h115q40 0 39 -24q0 -8 -4 -19l-656 -1407q-20 -41 -47 -41h-96q-38 0 -38 22q0 8 5 19l166 377z" />
<glyph unicode="z" horiz-adv-x="960" d="M98 41l11 86q4 25 20 45l578 717h-435q-43 0 -36 39l12 88q6 41 47 41h641q41 0 35 -39l-10 -88q-4 -20 -21 -41l-582 -723h502q43 0 37 -39l-10 -86q-6 -41 -47 -41h-709q-34 0 -34 31q0 4 1 10z" />
<glyph unicode="{" horiz-adv-x="954" d="M174 485l10 88q8 43 45 43h4q203 0 222 142l55 459q35 291 444 290h27q41 0 37 -39l-10 -90q-2 -43 -45 -43h-15q-117 0 -170 -34.5t-63 -106.5l-58 -457q-10 -88 -53 -136t-125 -71q131 -45 131 -170q0 -12 -4 -51l-55 -434q-4 -43 -4 -53q0 -113 198 -113h17 q39 0 35 -43l-11 -90q-6 -41 -45 -41h-10q-195 0 -295 67.5t-100 192.5q0 31 4 60l55 434q6 35 6 43q0 113 -188 112h-2q-41 0 -37 41z" />
<glyph unicode="|" horiz-adv-x="555" d="M225 -408v1854q0 43 41 43h129q39 0 39 -43v-1854q0 -41 -39 -41h-129q-41 0 -41 41z" />
<glyph unicode="}" horiz-adv-x="954" d="M66 -424l8 90q2 43 47 43h18q115 0 168 35t62 104l57 474q10 86 55 134t125 74q-131 39 -131 172q0 10 6 62l51 422q4 35 5 39q0 111 -199 110h-16q-39 0 -35 43l12 90q6 39 43 39h16q193 0 290 -67.5t97 -192.5q0 -35 -2 -53l-53 -418q-4 -31 -4 -45q0 -115 186 -115h2 q39 0 35 -43l-8 -88q-2 -41 -47 -41h-2q-203 0 -219 -141l-58 -475q-37 -293 -446 -293h-27q-40 0 -36 41z" />
<glyph unicode="~" horiz-adv-x="1050" d="M209 492l6 77q8 92 56 138.5t110 46.5q51 0 102 -23l193 -90q63 -31 90 -31q10 0 16 2t10.5 6.5t6.5 7.5t4 11t3 13t2 19.5t3 22.5l2 15q4 37 43 36h66q37 0 34 -47l-6 -75q-10 -98 -56 -143.5t-103 -45.5q-63 0 -119 29l-197 90q-43 25 -74 24q-29 0 -36 -15t-11 -60 l-2 -19q-2 -37 -45 -37h-63q-39 1 -35 48z" />
<glyph unicode="&#xa1;" horiz-adv-x="561" d="M129 -350l70 575l73 426q6 41 45 41h93q35 0 32 -41l-30 -426l-72 -575q-6 -41 -43 -41h-133q-41 0 -35 41zM279 846l22 170q6 41 43 41h129q43 0 37 -41l-23 -170q-6 -41 -45 -41h-129q-40 0 -34 41z" />
<glyph unicode="&#xa2;" horiz-adv-x="1140" d="M213 430q0 27 2 41l61 506q33 258 342 289l19 139q6 43 45 43h123q36 0 35 -33v-10l-19 -141q274 -33 275 -246q0 -23 -2 -45l-7 -33q-6 -41 -43 -41h-116q-37 0 -33 39l2 25q2 16 2 32q0 109 -192 109q-117 0 -168.5 -36t-59.5 -105l-57 -455q-4 -35 -4 -47 q0 -57 45 -87t147 -30q117 0 168 36t62 105l6 43q6 41 43 41h115q39 0 32 -41l-6 -57q-29 -258 -342 -289l-16 -139q-8 -43 -43 -43h-125q-36 0 -36 33q0 5 1 10l16 139q-272 35 -272 248z" />
<glyph unicode="&#xa3;" horiz-adv-x="1429" d="M166 41l10 90q2 41 45 41h121l61 463h-124q-35 0 -33 41l10 90q6 39 45 39h121l43 344q12 94 52 159.5t146.5 111.5t278.5 46q217 0 315.5 -73.5t98.5 -196.5q0 -14 -4 -47l-9 -68q-6 -41 -43 -41h-120q-41 0 -33 41l4 31q2 14 2 41q0 70 -52 102.5t-175 32.5 q-131 0 -187.5 -42t-68.5 -134l-39 -307h287q41 0 36 -39l-10 -90q-2 -41 -47 -41h-287l-59 -463h377q80 0 136 51t56 156v14q0 43 45 43h117q39 0 35 -43v-14q0 -197 -102.5 -288t-253.5 -91h-760q-39 0 -35 41z" />
<glyph unicode="&#xa4;" horiz-adv-x="1277" d="M188 561l7 53q6 37 47 37h112l17 144h-113q-43 0 -37 41l6 53q2 37 45 37h113l29 211q41 330 504 329q231 0 334.5 -77.5t103.5 -206.5q0 -14 -4 -54l-11 -96q-6 -41 -43 -41h-124q-41 0 -35 41l10 64q2 12 2 39q0 154 -246 153q-265 0 -287 -184l-24 -178h252 q41 0 39 -37l-8 -53q-6 -41 -46 -41h-251l-17 -144h250q39 0 37 -37l-6 -53q-6 -41 -47 -41h-252l-19 -164q-2 -16 -2 -41q0 -156 242 -155q268 0 291 184l10 100q2 41 45 41h123q39 0 35 -41l-15 -133q-37 -328 -507 -327q-229 0 -334 78.5t-105 203.5q0 14 4 53l23 201 h-113q-39 0 -35 41z" />
<glyph unicode="&#xa5;" horiz-adv-x="1144" d="M188 571l7 54q6 39 43 39h254l-52 143h-182q-43 0 -37 41l6 53q6 39 45 39h119l-172 467q-4 10 -4 17q0 24 39 24h143q35 0 45 -41l199 -561q8 -29 21 -96q27 66 45 96l350 561q25 41 53 41h133q33 0 33 -18q0 -9 -8 -23l-295 -467h129q38 0 38 -28q0 -5 -1 -11l-6 -53 q-6 -41 -48 -41h-192l-90 -143h264q20 0 29.5 -8.5t7.5 -30.5l-4 -54q-2 -39 -47 -39h-312l-59 -491q-6 -41 -43 -41h-129q-43 0 -37 41l59 491h-309q-36 0 -36 28q0 5 1 11z" />
<glyph unicode="&#xa6;" horiz-adv-x="503" d="M248 287q0 43 39 43h125q37 0 37 -43v-695q0 -41 -37 -41h-125q-39 0 -39 41v695zM248 711v694q0 43 39 43h125q37 0 37 -43v-694q0 -41 -37 -41h-125q-39 0 -39 41z" />
<glyph unicode="&#xa7;" horiz-adv-x="1171" d="M152 -199q0 6 1 19.5t1 17.5l2 31q2 39 47 39h108q37 0 33 -43l-2 -23q-2 -18 -2 -24q0 -63 47 -93t156 -30q215 0 233 141l17 133q2 12 2 29q0 68 -111 104l-268 82q-166 51 -166 207q0 14 4 51l20 185q6 41 45 41h109q43 0 37 -41l-21 -158q-2 -18 -2 -35q0 -68 88 -98 l275 -84q76 -25 134 -80t58 -143q0 -31 -2 -45l-18 -138q-35 -287 -440 -286q-385 -1 -385 241zM299 997q0 14 4 45l16 136q37 289 441 288q383 0 383 -245q0 -6 -1 -18.5t-1 -16.5l-2 -29q-2 -41 -43 -41h-113q-35 0 -33 41l2 25q0 2 1 12t1 14q0 61 -46 90t-154 29 q-117 0 -171.5 -33.5t-62.5 -105.5l-18 -133q-2 -10 -2 -29q0 -72 110 -104l271 -82q166 -49 166 -207q0 -35 -3 -51l-24 -187q-6 -39 -45 -39h-109q-43 0 -35 39l21 160q2 12 2 35q0 66 -90 96l-272 84q-76 27 -134.5 82t-58.5 145z" />
<glyph unicode="&#xa8;" horiz-adv-x="739" d="M317 1257l23 201q8 41 47 41h74q39 0 33 -41l-25 -201q-6 -41 -43 -40h-74q-41 -1 -35 40zM575 1257l23 201q6 41 45 41h74q41 0 35 -41l-25 -201q-6 -41 -45 -40h-74q-34 0 -33 30q-1 4 0 10z" />
<glyph unicode="&#xa9;" horiz-adv-x="1593" d="M217 416v618q0 92 22.5 161t84 134.5t191.5 101t325 35.5q158 0 272.5 -25.5t182 -64.5t106.5 -98t50 -114.5t11 -129.5v-618q0 -92 -21.5 -160t-84 -135.5t-193.5 -102t-324.5 -34.5t-323.5 34.5t-191.5 102t-84 135.5t-22.5 160zM367 387q0 -272 473 -272 q475 0 475 272v676q0 272 -475 272q-473 0 -473 -274v-674zM512 557v332q0 139 72.5 208.5t257 69.5t257 -69.5t72.5 -208.5v-27q0 -41 -41 -41h-100q-39 0 -39 41v23q0 72 -32.5 106.5t-117.5 34.5t-116 -34t-31 -107v-320q0 -76 31 -109.5t116 -33.5t117.5 35t32.5 108v35 q0 43 39 43h100q41 0 41 -43v-43q0 -139 -72.5 -208.5t-257 -69.5t-257 69.5t-72.5 208.5z" />
<glyph unicode="&#xaa;" horiz-adv-x="755" d="M231 954q0 20 2 37l39 299q10 82 64.5 129t148.5 47q113 0 205 -75l8 36q6 27 31 27h92q27 0 23 -24l-70 -586q-4 -27 -29 -27h-98q-20 0 -20 27v41q-104 -78 -215 -78q-82 0 -131.5 40.5t-49.5 106.5zM391 993q0 -68 82 -67q78 0 164 69l35 281q-70 68 -146 67 q-92 0 -102 -79l-31 -242q-2 -15 -2 -29z" />
<glyph unicode="&#xab;" horiz-adv-x="1284" d="M195 461l14 125q4 31 43 55l428 289q9 8 18 8q5 0 10 -3q13 -7 9 -28l-17 -131q-6 -37 -47 -63l-293 -193l244 -196q39 -33 35 -62l-16 -123q-2 -23 -17 -29q-5 -3 -10 -3q-9 0 -16 8l-357 293q-30 22 -28 53zM651 461l17 125q4 31 41 55l428 289q10 8 19 8q5 0 9 -3 q12 -7 11 -28l-17 -131q-6 -37 -47 -63l-295 -193l246 -196q39 -33 35 -62l-19 -123q-2 -23 -15 -29q-5 -3 -10 -3q-9 0 -18 8l-354 293q-33 22 -31 53z" />
<glyph unicode="&#xac;" horiz-adv-x="825" d="M160 675.5q0 104.5 73.5 177.5t178 73t177.5 -73t73 -177.5t-73 -178t-177.5 -73.5t-178 73.5t-73.5 178z" />
<glyph unicode="&#xad;" horiz-adv-x="952" d="M217 571v88q0 39 41 39h571q39 0 39 -39v-88q0 -39 -39 -39h-571q-41 0 -41 39z" />
<glyph unicode="&#xae;" horiz-adv-x="1345" d="M262 760v387q0 319 500 319t500 -319v-387q0 -319 -500 -319t-500 319zM397 748q0 -184 365 -185q362 0 362 182v414q0 182 -362 182q-365 0 -365 -182v-411zM539 692v514q0 29 28 29h224q219 0 219 -166v-43q0 -106 -92 -143l77 -191q10 -31 -28 -30h-82q-16 0 -29 30 l-70 168h-108v-168q0 -31 -29 -30h-82q-28 -1 -28 30zM678 965h98q39 0 65.5 18t26.5 47v33q0 68 -92 67h-98v-165z" />
<glyph unicode="&#xaf;" horiz-adv-x="876" d="M297 1288l8 78q2 37 47 37h514q39 0 37 -35l-8 -80q-2 -39 -47 -39h-516q-37 0 -35 39z" />
<glyph unicode="&#xb0;" horiz-adv-x="888" d="M252 1010q0 27 2 41l22 194q14 109 88 163t254 54q295 0 295 -186q0 -27 -2 -39l-22 -195q-16 -109 -89 -164t-251 -55q-297 1 -297 187zM426 1036q0 -76 137 -75q143 0 152 90l24 180v16q0 80 -137 80q-141 0 -153 -88l-21 -182q-2 -9 -2 -21z" />
<glyph unicode="&#xb1;" horiz-adv-x="1214" d="M172 197v88q0 41 41 41h834q39 0 38 -41v-88q0 -43 -38 -43h-834q-41 0 -41 43zM172 766v92q0 39 41 39h330v233q0 41 39 41h90q39 0 39 -41v-233h336q39 0 38 -39v-92q0 -39 -38 -39h-336v-235q0 -43 -39 -43h-90q-39 0 -39 43v235h-330q-41 0 -41 39z" />
<glyph unicode="&#xb2;" horiz-adv-x="808" d="M207 616l29 234q10 80 104 115l268 102q61 20 68 76l8 71q4 29 4 41q0 82 -125 82q-129 0 -141 -100l-6 -51q-2 -31 -33 -31h-98q-29 0 -25 31l8 76q27 205 307 204q137 0 204 -53t67 -133q0 -16 -4 -51l-8 -80q-16 -133 -146 -184l-239 -93q-53 -23 -58 -49l-14 -108 h377q29 0 26 -29l-10 -70q-2 -31 -31 -30h-508q-26 -1 -24 30z" />
<glyph unicode="&#xb3;" horiz-adv-x="806" d="M209 750v30l2 35q2 29 35 29h92q29 0 29 -29v-24q0 -88 122 -89q131 0 144 101l8 65q2 12 2 27q0 80 -121 80h-100q-29 0 -27 29l8 67q2 31 33 31h90q72 0 108 22.5t38 75.5l2 35v20q0 43 -25.5 64.5t-91.5 21.5q-68 0 -95.5 -23.5t-35.5 -76.5l-2 -12q-2 -27 -33 -27 h-96q-29 0 -27 27l4 37q27 203 306 202q135 0 197.5 -49t62.5 -125q0 -18 -2 -37l-9 -83q-8 -55 -33.5 -85t-82.5 -45q90 -35 90 -122q0 -14 -2 -37l-13 -111q-25 -197 -307 -196q-141 0 -205.5 49t-64.5 123z" />
<glyph unicode="&#xb4;" horiz-adv-x="688" d="M336 1241l156 229q29 37 57 37h137q29 0 29 -13q0 -9 -15 -26l-188 -239q-18 -25 -55 -25h-103q-27 0 -27 15q0 9 9 22z" />
<glyph unicode="&#xb5;" horiz-adv-x="1128" d="M90 -393l174 1407q6 43 45 43h121q43 0 37 -43l-86 -695q-4 -47 -4 -51q0 -111 142.5 -110.5t289.5 108.5l92 748q6 43 45 43h123q36 0 36 -33q0 -5 -1 -10l-121 -973q-6 -41 -43 -41h-117q-35 0 -32 41l4 65q-162 -123 -326 -122q-102 0 -139 34l-39 -411 q-2 -41 -41 -41h-127q-34 0 -34 30q0 5 1 11z" />
<glyph unicode="&#xb6;" horiz-adv-x="1415" d="M264 842q0 16 4 47l35 280q16 133 112.5 206t332.5 73h245q39 0 35 -41l-221 -1798q-6 -43 -45 -43h-129q-36 0 -36 32q0 5 1 11l123 991h-78q-379 0 -379 242zM971 -391l221 1796q8 43 45 43h131q37 0 33 -43l-221 -1796q-6 -43 -45 -43h-129q-39 0 -35 43z" />
<glyph unicode="&#xb7;" horiz-adv-x="495" d="M203 489l18 170q2 41 45 41h129q34 0 34 -30q0 -5 -1 -11l-20 -170q-6 -41 -43 -40h-129q-34 0 -34 30q0 4 1 10z" />
<glyph unicode="&#xb8;" horiz-adv-x="460" d="M-39 -410l4 43q6 39 43 39h211q76 0 76 54q0 43 -64 43h-139q-53 0 -53 31q0 9 4 20l74 194q18 37 48 37h3l57 -6q28 -4 29 -26q0 -10 -6 -23l-43 -107h71q72 0 117 -39.5t45 -113.5q0 -94 -56 -139.5t-149 -45.5h-239q-37 0 -33 39z" />
<glyph unicode="&#xb9;" horiz-adv-x="798" d="M190 618l9 70q2 27 32 27h179l73 592l-178 -29q-18 -4 -25.5 1t-5.5 21l9 74q2 23 34 29l316 59q5 2 9 2q6 0 10 -4q7 -6 5 -24l-88 -721h174q27 0 25 -27l-8 -70q-2 -31 -31 -30h-512q-29 -1 -27 30z" />
<glyph unicode="&#xba;" horiz-adv-x="774" d="M233 969q0 8 9 47l30 264q25 186 289 186q121 0 188.5 -44t67.5 -119q0 -8 -4 -41l-33 -269q-25 -186 -288 -186q-123 0 -191 44t-68 118zM393 993q0 -66 109 -65q113 0 125 78l30 258q0 4 1 10t1 8q0 61 -108 61q-115 0 -123 -71l-33 -252q-2 -9 -2 -27z" />
<glyph unicode="&#xbb;" horiz-adv-x="1312" d="M195 154l16 131q6 37 47 63l293 193l-244 196q-39 31 -35 62l17 123q2 23 16 29q5 3 10 3q9 0 17 -8l356 -293q33 -23 29 -53l-15 -125q-4 -31 -43 -55l-428 -291q-9 -6 -17 -6q-5 0 -9 2q-12 6 -10 29zM682 154l16 131q6 37 47 63l295 193l-245 196q-39 31 -35 62 l18 123q2 23 16 29q5 3 9 3q8 0 16 -8l357 -293q33 -23 30 -53l-16 -125q-4 -31 -41 -55l-428 -291q-10 -6 -19 -6q-5 0 -10 2q-12 6 -10 29z" />
<glyph unicode="&#xbc;" horiz-adv-x="1830" d="M254 618l8 70q2 27 35 27h176l74 592l-178 -29q-16 -4 -24.5 1t-6.5 21l10 74q2 23 33 29l315 59q12 4 20.5 -2t6.5 -24l-90 -721h174q29 0 27 -27l-11 -70q-2 -31 -30 -30h-512q-29 -1 -27 30zM653 -74l604 1598q12 29 35 28h109q31 0 20 -28l-602 -1598 q-10 -31 -35 -30h-108q-25 0 -25 17q0 6 2 13zM1167 274l4 52q4 27 15 53l205 461q12 29 41 28h104q29 0 16 -28l-202 -467h254l57 467q4 29 35 28h100q29 0 25 -28l-101 -809q-2 -31 -30 -31h-103q-31 0 -26 31l28 215h-397q-27 -1 -25 28z" />
<glyph unicode="&#xbd;" horiz-adv-x="1853" d="M254 618l8 70q2 27 35 27h176l74 592l-178 -29q-16 -4 -24.5 1t-6.5 21l10 74q2 23 33 29l315 59q12 4 20.5 -2t6.5 -24l-90 -721h174q29 0 27 -27l-11 -70q-2 -31 -30 -30h-512q-29 -1 -27 30zM698 -74l602 1598q14 29 37 28h109q31 0 20 -28l-604 -1598 q-10 -31 -35 -30h-106q-25 0 -25 17q0 6 2 13zM1243 31l31 233q8 80 104 115l269 102q59 20 65 76l8 72q4 29 4 41q0 82 -125 82q-127 0 -141 -101l-6 -51q-2 -31 -31 -31h-98q-29 0 -27 31l11 76q25 205 305 205q139 0 204.5 -53.5t65.5 -133.5q0 -16 -4 -51l-8 -80 q-14 -133 -146 -184l-237 -92q-53 -23 -57 -49l-15 -109h377q27 0 25 -29l-9 -69q-2 -31 -32 -31h-506q-29 0 -27 31z" />
<glyph unicode="&#xbe;" horiz-adv-x="1843" d="M270 750v30l2 35q2 29 35 29h94q27 0 27 -29v-24q0 -88 123 -89q131 0 143 101l8 65q2 12 3 27q0 80 -121 80h-101q-27 0 -24 29l6 67q2 31 33 31h90q72 0 107.5 22.5t37.5 75.5l2 35v20q0 43 -25.5 64.5t-88.5 21.5q-70 0 -97.5 -23.5t-36.5 -76.5l-2 -12 q-2 -27 -30 -27h-99q-29 0 -26 27l4 37q27 203 305 202q137 0 198.5 -49t61.5 -125q0 -18 -2 -37l-8 -83q-6 -55 -32 -85t-83 -45q88 -35 88 -122q0 -14 -2 -37l-12 -111q-25 -197 -307 -196q-139 0 -205 49t-66 123zM688 -74l600 1598q12 29 39 28h107q33 0 18 -28 l-600 -1598q-10 -31 -37 -30h-108q-21 0 -22 16q0 6 3 14zM1176 274l6 52q4 27 14 53l205 461q14 29 41 28h102q31 0 17 -28l-199 -467h252l55 467q4 29 35 28h100q29 0 25 -28l-96 -809q-4 -31 -35 -31h-101q-31 0 -24 31l24 215h-393q-30 -1 -28 28z" />
<glyph unicode="&#xbf;" horiz-adv-x="1204" d="M123 -119q0 27 2 47l18 133q23 203 222 293l122 56q102 47 115 135l16 106q6 41 41 41h132q41 0 36 -41l-22 -157q-6 -57 -37 -99.5t-56.5 -60t-68.5 -37.5l-178 -88q-100 -47 -115 -150l-16 -108q-2 -18 -2 -41q0 -143 241 -143q258 0 281 184l12 92q6 43 43 43h125 q36 0 36 -33q0 -5 -1 -10l-14 -125q-45 -328 -498 -328q-223 0 -328.5 82t-105.5 209zM641 846l18 170q8 41 46 41h131q20 0 27 -8.5t5 -32.5l-18 -168q-6 -43 -45 -43h-131q-37 0 -33 41z" />
<glyph unicode="&#xc0;" horiz-adv-x="1144" d="M47 41l580 1366q18 41 55 41h131q39 0 45 -41l248 -1366q6 -41 -35 -41h-131q-39 0 -45 41l-57 330h-451l-139 -330q-18 -41 -51 -41h-125q-29 0 -30 21q0 8 5 20zM457 537h354l-70 387q-8 41 -13 119.5t-7 136.5v59q0 -2 -19 -65l-39 -136q-22 -72 -38 -110zM506 1858 q8 12 29 12h127q35 0 51 -39l98 -227q5 -11 5 -19q0 -20 -30 -20h-96q-37 0 -49 26l-131 238q-7 10 -7 18q0 6 3 11z" />
<glyph unicode="&#xc1;" horiz-adv-x="1144" d="M47 41l580 1366q18 41 55 41h131q39 0 45 -41l248 -1366q6 -41 -35 -41h-131q-39 0 -45 41l-57 330h-451l-139 -330q-18 -41 -51 -41h-125q-29 0 -30 21q0 8 5 20zM457 537h354l-70 387q-8 41 -13 119.5t-7 136.5v59q0 -2 -19 -65l-39 -136q-22 -72 -38 -110zM686 1604 l154 227q27 39 59 39h133q29 0 30 -15q0 -10 -13 -26l-191 -238q-16 -27 -55 -26h-103q-25 0 -24 14q0 10 10 25z" />
<glyph unicode="&#xc2;" horiz-adv-x="1144" d="M47 41l580 1366q18 41 55 41h131q39 0 45 -41l248 -1366q6 -41 -35 -41h-131q-39 0 -45 41l-57 330h-451l-139 -330q-18 -41 -51 -41h-125q-29 0 -30 21q0 8 5 20zM457 537h354l-70 387q-8 41 -13 119.5t-7 136.5v59q0 -2 -19 -65l-39 -136q-22 -72 -38 -110zM478 1577 q-1 3 -1 7q0 9 10 20l189 225q33 41 67 41h74q33 0 57 -41l136 -225q6 -8 6 -17q0 -5 -3 -10q-7 -12 -30 -12h-92q-35 0 -53 39l-72 143l-104 -143q-25 -39 -60 -39h-98q-21 0 -26 12z" />
<glyph unicode="&#xc3;" horiz-adv-x="1144" d="M47 41l580 1366q18 41 55 41h131q39 0 45 -41l248 -1366q6 -41 -35 -41h-131q-39 0 -45 41l-57 330h-451l-139 -330q-18 -41 -51 -41h-125q-29 0 -30 21q0 8 5 20zM393 1630l17 68q37 170 184 170q66 0 129 -39l88 -60q49 -31 70 -30q25 0 35 15t18 63l2 16q6 37 45 37 h68q31 0 30 -30q0 -8 -2 -17l-12 -64q-16 -86 -67.5 -129t-120 -43t-129.5 41l-93 60q-41 27 -64.5 26.5t-32.5 -12.5t-15 -47l-8 -37q-8 -35 -48 -35h-63q-33 0 -33 30q0 8 2 17zM457 537h354l-70 387q-8 41 -13 119.5t-7 136.5v59q0 -2 -19 -65l-39 -136q-22 -72 -38 -110 z" />
<glyph unicode="&#xc4;" horiz-adv-x="1144" d="M47 41l580 1366q18 41 55 41h131q39 0 45 -41l248 -1366q6 -41 -35 -41h-131q-39 0 -45 41l-57 330h-451l-139 -330q-18 -41 -51 -41h-125q-29 0 -30 21q0 8 5 20zM457 537h354l-70 387q-8 41 -13 119.5t-7 136.5v59q0 -2 -19 -65l-39 -136q-22 -72 -38 -110zM547 1614 l24 203q5 43 47 43h72q36 0 36 -33q0 -5 -1 -10l-27 -203q-6 -39 -43 -39h-73q-41 0 -35 39zM805 1614l24 203q6 43 43 43h76q20 0 27.5 -9.5t5.5 -33.5l-25 -203q-6 -39 -43 -39h-73q-41 0 -35 39z" />
<glyph unicode="&#xc5;" horiz-adv-x="1144" d="M47 41l580 1366q18 41 55 41h131q39 0 45 -41l248 -1366q6 -41 -35 -41h-131q-39 0 -45 41l-57 330h-451l-139 -330q-18 -41 -51 -41h-125q-29 0 -30 21q0 8 5 20zM457 537h354l-70 387q-8 41 -13 119.5t-7 136.5v59q0 -2 -19 -65l-39 -136q-22 -72 -38 -110zM553 1651 q0 31 2 45l8 51q18 152 215 151q88 0 140.5 -35.5t52.5 -88.5q0 -4 -2 -27l-6 -72q-14 -147 -209 -147q-98 0 -149.5 34t-51.5 89zM668 1683q0 -55 86 -55q90 0 100 70l2 26v23q0 49 -88 49t-98 -72l-2 -26v-15z" />
<glyph unicode="&#xc6;" horiz-adv-x="1781" d="M46 10q-3 4 -3 10q0 9 6 21l971 1366q31 41 67 41h715q43 0 37 -39l-14 -90q-6 -41 -45 -41h-557l-56 -440h523q43 0 34 -39l-10 -86q-6 -39 -45 -39h-520l-64 -504h582q45 0 39 -39l-12 -90q-6 -41 -45 -41h-738q-47 0 -41 43l41 328h-426l-229 -330q-33 -41 -55 -41 h-127q-21 0 -28 10zM604 537h330l70 575q-14 -27 -89 -135z" />
<glyph unicode="&#xc7;" horiz-adv-x="1189" d="M182 266q0 14 6 53l99 818q41 330 506 329q229 0 333.5 -77.5t104.5 -206.5q0 -14 -4 -54l-10 -96q-6 -41 -43 -41h-125q-41 0 -35 41l8 64q2 12 2 39q0 154 -244 153q-264 0 -288 -184l-91 -748q-4 -16 -4 -41q0 -156 244 -155q268 0 289 184l12 100q2 41 45 41h123 q39 0 33 -41l-15 -133q-35 -326 -501 -327l-37 -95h72q72 0 116.5 -39.5t44.5 -113.5q0 -94 -56 -139.5t-146 -45.5h-242q-37 0 -31 39l4 43q6 39 41 39h211q76 0 76 54q0 43 -62 43h-141q-52 0 -52 32q0 8 3 19l64 172q-310 41 -310 274z" />
<glyph unicode="&#xc8;" horiz-adv-x="1103" d="M178 43l170 1362q6 43 43 43h729q43 0 37 -41l-14 -94q-6 -41 -43 -41h-559l-54 -430h523q41 0 34 -41l-12 -92q-6 -39 -43 -39h-522l-61 -494h581q43 0 37 -37l-12 -98q-6 -41 -45 -41h-752q-43 0 -37 43zM527 1858q7 12 28 12h129q33 0 51 -39l99 -227q4 -10 3 -18 q0 -21 -30 -21h-96q-35 0 -49 26l-132 238q-6 10 -6 18q0 6 3 11z" />
<glyph unicode="&#xc9;" horiz-adv-x="1103" d="M178 43l170 1362q6 43 43 43h729q43 0 37 -41l-14 -94q-6 -41 -43 -41h-559l-54 -430h523q41 0 34 -41l-12 -92q-6 -39 -43 -39h-522l-61 -494h581q43 0 37 -37l-12 -98q-6 -41 -45 -41h-752q-43 0 -37 43zM674 1604l153 227q27 39 60 39h133q29 0 29 -14q0 -10 -15 -27 l-188 -238q-16 -27 -55 -26h-103q-25 0 -25 14q1 10 11 25z" />
<glyph unicode="&#xca;" horiz-adv-x="1103" d="M178 43l170 1362q6 43 43 43h729q43 0 37 -41l-14 -94q-6 -41 -43 -41h-559l-54 -430h523q41 0 34 -41l-12 -92q-6 -39 -43 -39h-522l-61 -494h581q43 0 37 -37l-12 -98q-6 -41 -45 -41h-752q-43 0 -37 43zM490 1577q-1 3 -1 7q0 9 11 20l188 225q35 41 68 41h75 q31 0 58 -41l133 -225q6 -8 6 -17q0 -5 -3 -10q-7 -12 -28 -12h-94q-35 0 -53 39l-70 143l-104 -143q-27 -39 -60 -39h-98q-23 0 -28 12z" />
<glyph unicode="&#xcb;" horiz-adv-x="1103" d="M178 43l170 1362q6 43 43 43h729q43 0 37 -41l-14 -94q-6 -41 -43 -41h-559l-54 -430h523q41 0 34 -41l-12 -92q-6 -39 -43 -39h-522l-61 -494h581q43 0 37 -37l-12 -98q-6 -41 -45 -41h-752q-43 0 -37 43zM571 1614l23 203q6 43 47 43h72q36 0 35 -33v-10l-25 -203 q-8 -39 -43 -39h-76q-39 0 -33 39zM829 1614l23 203q6 43 45 43h74q23 0 30 -9.5t5 -33.5l-27 -203q-6 -39 -41 -39h-76q-34 0 -34 27q0 6 1 12z" />
<glyph unicode="&#xcc;" horiz-adv-x="555" d="M178 43l170 1362q6 43 43 43h131q34 0 34 -30q0 -6 -1 -13l-168 -1362q-6 -43 -43 -43h-129q-43 0 -37 43zM230 1858q7 12 30 12h127q35 0 51 -39l99 -227q5 -11 4 -19q0 -20 -29 -20h-96q-37 0 -49 26l-134 238q-6 10 -6 18q0 6 3 11z" />
<glyph unicode="&#xcd;" horiz-adv-x="555" d="M178 43l170 1362q6 43 43 43h131q34 0 34 -30q0 -6 -1 -13l-168 -1362q-6 -43 -43 -43h-129q-43 0 -37 43zM393 1604l154 227q29 39 59 39h135q29 0 29 -14q0 -10 -14 -27l-189 -238q-18 -27 -55 -26h-102q-26 0 -26 15q0 9 9 24z" />
<glyph unicode="&#xce;" horiz-adv-x="555" d="M178 43l170 1362q6 43 43 43h131q34 0 34 -30q0 -6 -1 -13l-168 -1362q-6 -43 -43 -43h-129q-43 0 -37 43zM200 1577q-1 3 -2 7q0 9 11 20l186 225q35 41 70 41h74q33 0 57 -41l135 -225q6 -8 6 -17q0 -5 -3 -10q-7 -12 -29 -12h-95q-33 0 -53 39l-70 143l-104 -143 q-25 -39 -59 -39h-99q-20 0 -25 12z" />
<glyph unicode="&#xcf;" horiz-adv-x="555" d="M178 43l170 1362q6 43 43 43h131q34 0 34 -30q0 -6 -1 -13l-168 -1362q-6 -43 -43 -43h-129q-43 0 -37 43zM270 1614l25 203q6 43 45 43h74q34 0 34 -30q0 -6 -2 -13l-24 -203q-6 -39 -43 -39h-74q-41 0 -35 39zM528 1614l23 203q6 43 45 43h76q20 0 27.5 -9.5t5.5 -33.5 l-25 -203q-6 -39 -43 -39h-74q-41 0 -35 39z" />
<glyph unicode="&#xd0;" horiz-adv-x="1294" d="M86 692l8 76q6 39 47 39h131l76 598q6 43 43 43h436q236 0 346.5 -81t110.5 -208q0 -29 -4 -57l-94 -774q-39 -328 -514 -328h-461q-34 0 -34 32q0 5 1 11l76 610h-133q-36 0 -36 28q0 5 1 11zM406 176h276q274 0 297 186l88 707q4 39 4 45q0 158 -256 158h-274l-58 -465 h228q39 0 37 -39l-9 -76q-6 -39 -47 -39h-227z" />
<glyph unicode="&#xd1;" horiz-adv-x="1314" d="M176 41l168 1366q8 41 45 41h111q29 0 35 -16l405 -897q37 -88 51 -138l123 1010q6 41 45 41h117q41 0 35 -41l-170 -1366q-6 -41 -41 -41h-111q-31 0 -39 18l-395 879q-29 61 -57 156l-125 -1012q-6 -41 -41 -41h-119q-43 0 -37 41zM526 1630l15 68q39 170 186 170 q66 0 127 -39l90 -60q49 -31 68 -30q25 0 36 15t17 63l2 16q6 37 47 37h66q33 0 32 -30q0 -8 -2 -17l-14 -64q-16 -86 -67.5 -129t-119 -43t-128.5 41l-93 60q-43 27 -66.5 26.5t-31.5 -12.5t-14 -47l-8 -37q-10 -35 -47 -35h-66q-31 0 -31 30q0 7 2 17z" />
<glyph unicode="&#xd2;" horiz-adv-x="1269" d="M182 268q0 12 6 51l99 818q41 330 518 329q231 0 343 -79.5t112 -208.5q0 -31 -3 -50l-100 -817q-41 -328 -520 -327q-233 0 -344 78.5t-111 205.5zM395 317q0 -158 258 -157q272 0 297 184l94 750l5 36q0 158 -258 158q-274 0 -299 -184l-91 -748q-6 -31 -6 -39z M583 1858q7 12 27 12h129q35 0 52 -39l98 -227q4 -10 4 -18q0 -21 -31 -21h-96q-35 0 -49 26l-131 238q-6 10 -6 18q0 6 3 11z" />
<glyph unicode="&#xd3;" horiz-adv-x="1269" d="M182 268q0 12 6 51l99 818q41 330 518 329q231 0 343 -79.5t112 -208.5q0 -31 -3 -50l-100 -817q-41 -328 -520 -327q-233 0 -344 78.5t-111 205.5zM395 317q0 -158 258 -157q272 0 297 184l94 750l5 36q0 158 -258 158q-274 0 -299 -184l-91 -748q-6 -31 -6 -39z M739 1604l154 227q27 39 59 39h133q29 0 30 -15q0 -10 -13 -26l-191 -238q-16 -27 -55 -26h-102q-25 0 -25 14q0 10 10 25z" />
<glyph unicode="&#xd4;" horiz-adv-x="1269" d="M182 268q0 12 6 51l99 818q41 330 518 329q231 0 343 -79.5t112 -208.5q0 -31 -3 -50l-100 -817q-41 -328 -520 -327q-233 0 -344 78.5t-111 205.5zM395 317q0 -158 258 -157q272 0 297 184l94 750l5 36q0 158 -258 158q-274 0 -299 -184l-91 -748q-6 -31 -6 -39z M555 1577q-2 3 -2 7q0 9 12 20l187 225q35 41 67 41h76q31 0 57 -41l133 -225q7 -9 8 -17q0 -5 -3 -10q-8 -12 -29 -12h-94q-33 0 -54 39l-69 143l-105 -143q-27 -39 -59 -39h-98q-21 0 -27 12z" />
<glyph unicode="&#xd5;" horiz-adv-x="1269" d="M182 268q0 12 6 51l99 818q41 330 518 329q231 0 343 -79.5t112 -208.5q0 -31 -3 -50l-100 -817q-41 -328 -520 -327q-233 0 -344 78.5t-111 205.5zM395 317q0 -158 258 -157q272 0 297 184l94 750l5 36q0 158 -258 158q-274 0 -299 -184l-91 -748q-6 -31 -6 -39z M498 1630l16 68q37 170 184 170q68 0 129 -39l88 -60q47 -31 68 -30q27 0 37 15t16 63l4 16q6 37 45 37h68q31 0 31 -30q0 -8 -2 -17l-13 -64q-16 -86 -67 -129t-120 -43t-130 41l-92 60q-39 27 -66 26q-23 0 -32 -12t-15 -47l-8 -37q-8 -35 -47 -35h-64q-33 0 -32 30 q0 8 2 17z" />
<glyph unicode="&#xd6;" horiz-adv-x="1269" d="M182 268q0 12 6 51l99 818q41 330 518 329q231 0 343 -79.5t112 -208.5q0 -31 -3 -50l-100 -817q-41 -328 -520 -327q-233 0 -344 78.5t-111 205.5zM395 317q0 -158 258 -157q272 0 297 184l94 750l5 36q0 158 -258 158q-274 0 -299 -184l-91 -748q-6 -31 -6 -39z M627 1614l22 203q6 43 47 43h72q36 0 36 -33q0 -5 -1 -10l-25 -203q-8 -39 -43 -39h-76q-38 0 -32 39zM885 1614l22 203q6 43 45 43h74q23 0 30 -9.5t5 -33.5l-27 -203q-6 -39 -41 -39h-75q-34 0 -35 27z" />
<glyph unicode="&#xd7;" horiz-adv-x="1155" d="M227 532q-7 12 -7 24q0 19 24 32l286 164l-165 288q-8 13 -8 24q0 18 20 32l78 45q12 8 22 8q18 0 33 -25l166 -286l289 166q35 18 53 -13l45 -80q8 -14 7 -25q0 -19 -21 -32l-291 -166l166 -285q9 -13 8 -24q0 -18 -23 -31l-75 -45q-12 -9 -24 -8q-17 0 -30 22l-166 285 l-288 -164q-13 -7 -24 -7q-19 0 -32 24z" />
<glyph unicode="&#xd8;" horiz-adv-x="1269" d="M182 266q0 12 6 51l99 818q41 328 518 327q168 0 278 -45l33 53q23 41 55 41h52q37 0 10 -41l-64 -104q90 -76 91 -190q0 -33 -3 -50l-100 -817q-41 -328 -520 -327q-168 0 -279 43l-30 -48q-29 -45 -58 -45h-51q-10 0 -14 6.5t-2 16.5t8 22l59 99q-88 73 -88 190z M395 315q0 -20 2 -30l584 962q-63 39 -190 39q-274 0 -299 -184l-91 -748q-6 -31 -6 -39zM461 197q63 -39 192 -39q272 0 297 184l94 748q4 31 5 38q0 23 -2 31z" />
<glyph unicode="&#xd9;" horiz-adv-x="1294" d="M195 272q0 23 4 56l133 1077q6 43 43 43h129q36 0 35 -33v-10l-127 -1030q-4 -51 -4 -58q0 -158 254 -157q276 0 299 184l133 1061q6 43 41 43h131q36 0 36 -30q0 -6 -2 -13l-135 -1094q-41 -328 -516 -327q-229 0 -341.5 80.5t-112.5 207.5zM601 1858q7 12 30 12h127 q35 0 51 -39l98 -227q5 -11 5 -19q0 -20 -29 -20h-97q-37 0 -49 26l-133 238q-6 10 -6 18q0 6 3 11z" />
<glyph unicode="&#xda;" horiz-adv-x="1294" d="M195 272q0 23 4 56l133 1077q6 43 43 43h129q36 0 35 -33v-10l-127 -1030q-4 -51 -4 -58q0 -158 254 -157q276 0 299 184l133 1061q6 43 41 43h131q36 0 36 -30q0 -6 -2 -13l-135 -1094q-41 -328 -516 -327q-229 0 -341.5 80.5t-112.5 207.5zM754 1604l153 227 q29 39 60 39h135q29 0 29 -14q0 -10 -15 -27l-190 -238q-16 -27 -56 -26h-102q-24 0 -24 14q0 10 10 25z" />
<glyph unicode="&#xdb;" horiz-adv-x="1294" d="M195 272q0 23 4 56l133 1077q6 43 43 43h129q36 0 35 -33v-10l-127 -1030q-4 -51 -4 -58q0 -158 254 -157q276 0 299 184l133 1061q6 43 41 43h131q36 0 36 -30q0 -6 -2 -13l-135 -1094q-41 -328 -516 -327q-229 0 -341.5 80.5t-112.5 207.5zM561 1577q-2 3 -2 7 q0 9 12 20l187 225q35 41 69 41h74q33 0 57 -41l136 -225q6 -8 5 -16q0 -6 -3 -11q-8 -12 -29 -12h-94q-33 0 -53 39l-70 143l-105 -143q-25 -39 -59 -39h-98q-21 0 -27 12z" />
<glyph unicode="&#xdc;" horiz-adv-x="1294" d="M195 272q0 23 4 56l133 1077q6 43 43 43h129q36 0 35 -33v-10l-127 -1030q-4 -51 -4 -58q0 -158 254 -157q276 0 299 184l133 1061q6 43 41 43h131q36 0 36 -30q0 -6 -2 -13l-135 -1094q-41 -328 -516 -327q-229 0 -341.5 80.5t-112.5 207.5zM631 1614l22 203q6 43 47 43 h74q34 0 34 -32q0 -5 -1 -11l-25 -203q-6 -39 -43 -39h-75q-39 0 -33 39zM889 1614l22 203q6 43 45 43h74q23 0 30 -9.5t5 -33.5l-25 -203q-8 -39 -43 -39h-75q-39 0 -33 39z" />
<glyph unicode="&#xdd;" horiz-adv-x="1126" d="M211 1407q-4 10 -4 17q0 24 39 24h143q35 0 45 -41l199 -561q8 -29 20 -96q27 66 45 96l351 561q25 41 53 41h133q33 0 33 -18q0 -9 -8 -23l-521 -832l-65 -534q-6 -41 -43 -41h-131q-41 0 -35 41l61 510zM684 1604l154 227q27 39 59 39h133q29 0 30 -15q0 -10 -13 -26 l-191 -238q-16 -27 -55 -26h-103q-25 0 -24 14q0 10 10 25z" />
<glyph unicode="&#xde;" horiz-adv-x="1216" d="M176 41l168 1366q8 41 45 41h131q41 0 33 -41l-41 -350h256q233 0 343 -81t110 -208q0 -29 -2 -41l-27 -201q-39 -324 -516 -323h-268l-23 -162q-6 -41 -43 -41h-129q-43 0 -37 41zM428 375h262q276 0 301 188l17 133v29q0 160 -254 160h-265z" />
<glyph unicode="&#xdf;" horiz-adv-x="1316" d="M164 926l8 78q6 39 45 40l123 9h2l23 164q37 291 477 290q205 0 304 -66.5t99 -183.5q0 -27 -2 -49l-8 -69q-16 -133 -176 -191l-146 -51q-2 0 -15 -5t-19.5 -7t-17.5 -9l-17 -12q-6 -4 -14.5 -11t-11.5 -16.5t-3 -21.5v-24q0 -41 82 -80l238 -105q166 -72 165 -192 q0 -20 -2 -37l-12 -111q-16 -139 -102 -210.5t-291 -71.5q-178 0 -252 57t-74 166q0 27 2 45l2 27q6 43 47 43h84q39 0 35 -43l-2 -25q-2 -18 -2 -29q0 -109 168 -108q102 0 147.5 35.5t51.5 101.5l8 76q2 12 2 35q0 10 -2 18t-7 16.5t-10.5 14.5t-13.5 11t-12 9t-14.5 8 t-14.5 6.5l-14 8.5l-10 4l-224 92q-150 63 -149 195q0 20 2 38l4 33q14 131 174 187l111 38q115 37 121 109l4 43q2 27 2 37q0 129 -228 129q-246 0 -262 -156l-143 -1163q-6 -43 -45 -43h-125q-36 0 -36 33q0 5 1 10l105 844h-125q-37 0 -35 39z" />
<glyph unicode="&#xe0;" d="M156 223q0 14 4 49l63 512q37 289 330 289q201 0 346 -127l12 68q8 43 45 43h113q36 0 36 -33q0 -5 -1 -10l-121 -971q-6 -43 -43 -43h-117q-33 0 -32 43l4 63q-178 -123 -365 -122q-133 0 -203.5 63t-70.5 176zM362 272q0 -109 146 -108q139 0 301 108l63 510 q-129 111 -274 111q-158 0 -176 -139l-57 -451q-3 -13 -3 -31zM471 1468q-6 12 -6 20q0 19 33 19h129q35 0 51 -37l96 -229q4 -10 4 -17q0 -20 -30 -20h-95q-35 0 -49 25z" />
<glyph unicode="&#xe1;" d="M156 223q0 14 4 49l63 512q37 289 330 289q201 0 346 -127l12 68q8 43 45 43h113q36 0 36 -33q0 -5 -1 -10l-121 -971q-6 -43 -43 -43h-117q-33 0 -32 43l4 63q-178 -123 -365 -122q-133 0 -203.5 63t-70.5 176zM362 272q0 -109 146 -108q139 0 301 108l63 510 q-129 111 -274 111q-158 0 -176 -139l-57 -451q-3 -13 -3 -31zM598 1241l156 229q29 37 57 37h137q29 0 29 -13q0 -9 -14 -26l-189 -239q-18 -25 -57 -25h-101q-27 0 -27 15q0 9 9 22z" />
<glyph unicode="&#xe2;" d="M156 223q0 14 4 49l63 512q37 289 330 289q201 0 346 -127l12 68q8 43 45 43h113q36 0 36 -33q0 -5 -1 -10l-121 -971q-6 -43 -43 -43h-117q-33 0 -32 43l4 63q-178 -123 -365 -122q-133 0 -203.5 63t-70.5 176zM362 272q0 -109 146 -108q139 0 301 108l63 510 q-129 111 -274 111q-158 0 -176 -139l-57 -451q-3 -13 -3 -31zM417 1221q0 9 9 20l188 227q33 39 70 39h74q33 0 57 -39l135 -227q6 -8 6 -15q0 -6 -4 -11q-8 -11 -30 -11h-93q-33 0 -51 37l-71 143l-105 -143q-25 -37 -61 -37h-99q-25 0 -25 17z" />
<glyph unicode="&#xe3;" d="M156 223q0 14 4 49l63 512q37 289 330 289q201 0 346 -127l12 68q8 43 45 43h113q36 0 36 -33q0 -5 -1 -10l-121 -971q-6 -43 -43 -43h-117q-33 0 -32 43l4 63q-178 -123 -365 -122q-133 0 -203.5 63t-70.5 176zM362 272q0 -109 146 -108q139 0 301 108l63 510 q-129 111 -274 111q-158 0 -176 -139l-57 -451q-3 -13 -3 -31zM362 1253l15 68q39 170 186 170q68 0 127 -39l90 -59q47 -31 68 -31q25 0 36 15.5t17 62.5l2 16q6 37 47 37h66q33 0 33 -30q0 -8 -2 -17l-15 -64q-16 -86 -67.5 -129t-119 -43t-130.5 39l-90 62q-41 27 -68 26 q-23 0 -31 -12t-14 -47l-10 -37q-8 -35 -45 -35h-66q-31 0 -31 30q0 7 2 17z" />
<glyph unicode="&#xe4;" d="M156 223q0 14 4 49l63 512q37 289 330 289q201 0 346 -127l12 68q8 43 45 43h113q36 0 36 -33q0 -5 -1 -10l-121 -971q-6 -43 -43 -43h-117q-33 0 -32 43l4 63q-178 -123 -365 -122q-133 0 -203.5 63t-70.5 176zM362 272q0 -109 146 -108q139 0 301 108l63 510 q-129 111 -274 111q-158 0 -176 -139l-57 -451q-3 -13 -3 -31zM489 1257l25 201q6 41 47 41h72q41 0 35 -41l-27 -201q-6 -41 -43 -40h-74q-41 -1 -35 40zM748 1257l22 201q8 41 45 41h76q34 0 33 -30v-11l-25 -201q-6 -41 -45 -40h-72q-40 -1 -34 40z" />
<glyph unicode="&#xe5;" d="M156 223q0 14 4 49l63 512q37 289 330 289q201 0 346 -127l12 68q8 43 45 43h113q36 0 36 -33q0 -5 -1 -10l-121 -971q-6 -43 -43 -43h-117q-33 0 -32 43l4 63q-178 -123 -365 -122q-133 0 -203.5 63t-70.5 176zM362 272q0 -109 146 -108q139 0 301 108l63 510 q-129 111 -274 111q-158 0 -176 -139l-57 -451q-3 -13 -3 -31zM516 1294q0 31 2 45l6 52q18 152 215 151q90 0 142.5 -34.5t52.5 -88.5q0 -4 -4 -28l-6 -70q-14 -150 -209 -150q-96 0 -147.5 34t-51.5 89zM629 1327q0 -55 86 -55q90 0 100 69l2 29v21q0 49 -86 49 q-90 0 -100 -70l-2 -29v-14z" />
<glyph unicode="&#xe6;" horiz-adv-x="1675" d="M141 207q0 14 2 35l13 112q12 102 96 174t229 72h334l23 164q4 31 4 37q0 119 -193 119q-115 0 -165 -33t-60 -103l-4 -30q-6 -43 -45 -43h-109q-41 0 -37 43l4 32q20 141 116.5 214t312.5 73q211 0 292 -102q106 102 328 102q375 0 375 -252q0 -27 -2 -39l-29 -260 q-4 -39 -43 -39h-579l-27 -192q0 -6 -1 -11.5t-2 -9.5t-1 -7v-5q1 -117 201 -117q115 0 165 34t62 101l6 35q8 41 45 41h104q37 0 35 -41l-4 -41q-14 -139 -110.5 -212.5t-315.5 -73.5q-285 0 -358 139q-174 -139 -371 -139q-119 0 -205 56t-86 167zM342 258q0 -63 36 -87 t103 -24q133 0 295 117l23 178h-301q-133 0 -148 -120l-6 -39zM1018 635h428l20 139v23q0 119 -196 118q-211 0 -234 -141z" />
<glyph unicode="&#xe7;" horiz-adv-x="1032" d="M156 233q0 27 2 41l61 508q16 139 118.5 215t321.5 76q377 0 377 -252q0 -23 -2 -43l-4 -35q-6 -41 -43 -41h-117q-35 0 -32 39l2 25q2 18 2 33q0 109 -193 108q-117 0 -168 -34.5t-59 -106.5l-57 -455q-4 -35 -5 -47q0 -57 44.5 -85.5t148.5 -28.5q117 0 167 34.5 t62 104.5l6 43q6 41 43 41h115q37 0 33 -41l-6 -58q-14 -135 -109.5 -210.5t-302.5 -79.5l-37 -95h72q72 0 117 -39.5t45 -113.5q0 -94 -56.5 -139.5t-148.5 -45.5h-240q-37 0 -32 39l4 43q6 39 43 39h211q76 0 75 54q0 43 -63 43h-139q-53 0 -53 31q-1 9 3 20l64 170 q-270 32 -270 243z" />
<glyph unicode="&#xe8;" horiz-adv-x="1052" d="M156 233q0 29 2 41l61 508q16 139 118.5 215t321.5 76q193 0 285 -66.5t92 -185.5q0 -27 -2 -39l-30 -260q-2 -39 -43 -39h-580l-23 -180q-4 -43 -4 -45q0 -117 197 -117q213 0 231 135l4 35q6 41 48 41h106q37 0 33 -41l-4 -37q-16 -143 -113.5 -216.5t-316.5 -73.5 q-383 -1 -383 249zM401 635h426l17 127q2 12 2 35q0 119 -199 118q-213 0 -229 -141zM444 1468q-5 11 -5 19q0 20 34 20h127q37 0 51 -37l97 -229q4 -10 3 -17q0 -20 -28 -20h-94q-37 0 -49 25z" />
<glyph unicode="&#xe9;" horiz-adv-x="1052" d="M156 233q0 29 2 41l61 508q16 139 118.5 215t321.5 76q193 0 285 -66.5t92 -185.5q0 -27 -2 -39l-30 -260q-2 -39 -43 -39h-580l-23 -180q-4 -43 -4 -45q0 -117 197 -117q213 0 231 135l4 35q6 41 48 41h106q37 0 33 -41l-4 -37q-16 -143 -113.5 -216.5t-316.5 -73.5 q-383 -1 -383 249zM401 635h426l17 127q2 12 2 35q0 119 -199 118q-213 0 -229 -141zM588 1241l155 229q27 37 58 37h137q29 0 29 -13q0 -9 -15 -26l-190 -239q-16 -25 -55 -25h-103q-26 0 -25 15q0 8 9 22z" />
<glyph unicode="&#xea;" horiz-adv-x="1052" d="M156 233q0 29 2 41l61 508q16 139 118.5 215t321.5 76q193 0 285 -66.5t92 -185.5q0 -27 -2 -39l-30 -260q-2 -39 -43 -39h-580l-23 -180q-4 -43 -4 -45q0 -117 197 -117q213 0 231 135l4 35q6 41 48 41h106q37 0 33 -41l-4 -37q-16 -143 -113.5 -216.5t-316.5 -73.5 q-383 -1 -383 249zM401 635h426l17 127q2 12 2 35q0 119 -199 118q-213 0 -229 -141zM402 1215q-1 3 -1 7q0 9 11 19l186 227q35 39 72 39h73q33 0 58 -39l135 -227q5 -8 5 -14t-4 -12q-9 -11 -30 -11h-94q-31 0 -51 37l-70 143l-104 -143q-25 -37 -62 -37h-98q-21 0 -26 11 z" />
<glyph unicode="&#xeb;" horiz-adv-x="1052" d="M156 233q0 29 2 41l61 508q16 139 118.5 215t321.5 76q193 0 285 -66.5t92 -185.5q0 -27 -2 -39l-30 -260q-2 -39 -43 -39h-580l-23 -180q-4 -43 -4 -45q0 -117 197 -117q213 0 231 135l4 35q6 41 48 41h106q37 0 33 -41l-4 -37q-16 -143 -113.5 -216.5t-316.5 -73.5 q-383 -1 -383 249zM401 635h426l17 127q2 12 2 35q0 119 -199 118q-213 0 -229 -141zM465 1257l22 201q6 41 48 41h71q41 0 35 -41l-25 -201q-8 -41 -43 -40h-75q-34 0 -34 30q0 4 1 10zM723 1257l22 201q6 41 46 41h73q41 0 35 -41l-27 -201q-6 -41 -43 -40h-73 q-34 0 -34 28q0 5 1 12z" />
<glyph unicode="&#xec;" horiz-adv-x="503" d="M156 41l118 973q6 43 45 43h123q36 0 36 -33q0 -5 -1 -10l-119 -973q-6 -41 -45 -41h-123q-40 0 -34 41zM161 1495q7 12 29 12h127q37 0 52 -37l96 -229q4 -10 4 -17q0 -20 -31 -20h-94q-35 0 -47 25l-135 239q-4 8 -5 15q1 6 4 12z" />
<glyph unicode="&#xed;" horiz-adv-x="503" d="M156 41l118 973q6 43 45 43h123q36 0 36 -33q0 -5 -1 -10l-119 -973q-6 -41 -45 -41h-123q-40 0 -34 41zM322 1241l155 229q27 37 58 37h137q29 0 29 -13q0 -9 -15 -26l-190 -239q-16 -25 -56 -25h-102q-26 0 -26 15q1 8 10 22z" />
<glyph unicode="&#xee;" horiz-adv-x="503" d="M132 1215q-1 3 -1 7q0 9 10 19l187 227q35 39 69 39h76q31 0 57 -39l134 -227q7 -8 7 -15q0 -5 -4 -11q-9 -11 -30 -11h-94q-31 0 -51 37l-70 143l-105 -143q-27 -37 -61 -37h-98q-21 0 -26 11zM156 41l118 973q6 43 45 43h123q36 0 36 -33q0 -5 -1 -10l-119 -973 q-6 -41 -45 -41h-123q-40 0 -34 41z" />
<glyph unicode="&#xef;" horiz-adv-x="503" d="M156 41l118 973q6 43 45 43h123q36 0 36 -33q0 -5 -1 -10l-119 -973q-6 -41 -45 -41h-123q-40 0 -34 41zM207 1257l22 201q6 41 47 41h74q39 0 33 -41l-25 -201q-6 -41 -43 -40h-73q-41 -1 -35 40zM465 1257l22 201q6 41 45 41h74q41 0 35 -41l-25 -201q-8 -41 -45 -40 h-73q-34 0 -34 30q0 4 1 10z" />
<glyph unicode="&#xf0;" horiz-adv-x="1193" d="M156 236q0 25 2 36l61 512q37 289 332 289q199 0 340 -123l29 228v14q0 18 -7 35l-129 -53q-39 -14 -51 14l-10 26q-5 10 -5 19q0 21 27 33l140 59q-45 41 -162 41h-199q-37 0 -35 37l7 65q2 39 47 39h198q225 0 318 -90l108 51q37 16 52 -16l12 -25q5 -9 5 -17 q0 -20 -30 -34l-98 -47q10 -23 10 -65q0 -31 -2 -45l-117 -947q-37 -289 -446 -288q-197 0 -297 66.5t-100 185.5zM360 266q0 -121 209 -121q223 0 240 144l61 497q-129 111 -274 111q-160 0 -176 -141l-58 -467q0 -2 -1 -10.5t-1 -12.5z" />
<glyph unicode="&#xf1;" horiz-adv-x="1140" d="M156 43l120 973q6 41 43 41h115q39 0 37 -41l-4 -68q162 125 362 125q127 0 201 -64.5t74 -170.5q0 -31 -2 -47l-92 -748q-6 -43 -47 -43h-121q-36 0 -36 33q0 5 1 10l86 698q4 29 4 41q0 111 -143 111q-152 0 -305 -109l-89 -741q-6 -43 -45 -43h-125q-36 0 -35 33 q0 4 1 10zM391 1253l17 68q37 170 184 170q68 0 129 -39l88 -59q47 -31 68 -31q27 0 37 15.5t16 62.5l4 16q6 37 45 37h68q31 0 30 -30q0 -8 -2 -17l-12 -64q-16 -86 -67.5 -129t-120 -43t-130.5 39l-92 62q-39 27 -65 26q-23 0 -32 -12t-15 -47l-9 -37q-8 -35 -47 -35h-63 q-33 0 -33 30q0 8 2 17z" />
<glyph unicode="&#xf2;" horiz-adv-x="1105" d="M156 238q0 25 2 36l61 508q37 291 459 291q195 0 295 -66.5t100 -187.5q0 -25 -2 -37l-61 -508q-37 -291 -457 -290q-197 0 -297 67.5t-100 186.5zM360 268q0 -119 209 -118q223 0 240 141l59 473v22q0 121 -206 121q-223 0 -240 -143l-60 -473q-2 -9 -2 -23zM459 1468 q-6 12 -6 20q0 19 32 19h129q35 0 50 -37l96 -229q5 -11 4 -18q0 -19 -29 -19h-94q-37 0 -49 25z" />
<glyph unicode="&#xf3;" horiz-adv-x="1105" d="M156 238q0 25 2 36l61 508q37 291 459 291q195 0 295 -66.5t100 -187.5q0 -25 -2 -37l-61 -508q-37 -291 -457 -290q-197 0 -297 67.5t-100 186.5zM360 268q0 -119 209 -118q223 0 240 141l59 473v22q0 121 -206 121q-223 0 -240 -143l-60 -473q-2 -9 -2 -23zM604 1241 l156 229q29 37 57 37h137q29 0 29 -13q0 -9 -14 -26l-189 -239q-18 -25 -55 -25h-102q-27 0 -28 15q0 9 9 22z" />
<glyph unicode="&#xf4;" horiz-adv-x="1105" d="M156 238q0 25 2 36l61 508q37 291 459 291q195 0 295 -66.5t100 -187.5q0 -25 -2 -37l-61 -508q-37 -291 -457 -290q-197 0 -297 67.5t-100 186.5zM360 268q0 -119 209 -118q223 0 240 141l59 473v22q0 121 -206 121q-223 0 -240 -143l-60 -473q-2 -9 -2 -23zM427 1221 q0 9 9 20l189 227q33 39 69 39h74q33 0 59 -39l134 -227q6 -8 5 -15q0 -6 -3 -11q-8 -11 -29 -11h-94q-33 0 -52 37l-71 143l-103 -143q-27 -37 -63 -37h-96q-28 0 -28 17z" />
<glyph unicode="&#xf5;" horiz-adv-x="1105" d="M156 238q0 25 2 36l61 508q37 291 459 291q195 0 295 -66.5t100 -187.5q0 -25 -2 -37l-61 -508q-37 -291 -457 -290q-197 0 -297 67.5t-100 186.5zM344 1253l16 68q37 170 185 170q70 0 129 -39l88 -59q47 -31 69 -31q25 0 35.5 15.5t18.5 62.5l2 16q6 37 47 37h65 q32 0 32 -28q0 -8 -3 -19l-12 -64q-16 -86 -67.5 -129t-120 -43t-130.5 39l-92 62q-39 27 -65 26q-23 0 -32 -12t-15 -47l-9 -37q-8 -35 -47 -35h-63q-33 0 -33 30q0 8 2 17zM360 268q0 -119 209 -118q223 0 240 141l59 473v22q0 121 -206 121q-223 0 -240 -143l-60 -473 q-2 -9 -2 -23z" />
<glyph unicode="&#xf6;" horiz-adv-x="1105" d="M156 238q0 25 2 36l61 508q37 291 459 291q195 0 295 -66.5t100 -187.5q0 -25 -2 -37l-61 -508q-37 -291 -457 -290q-197 0 -297 67.5t-100 186.5zM360 268q0 -119 209 -118q223 0 240 141l59 473v22q0 121 -206 121q-223 0 -240 -143l-60 -473q-2 -9 -2 -23zM492 1257 l24 201q6 41 47 41h72q41 0 35 -41l-27 -201q-6 -41 -43 -40h-74q-40 -1 -34 40zM750 1257l24 201q6 41 43 41h76q34 0 34 -28q0 -6 -1 -13l-25 -201q-6 -41 -45 -40h-72q-40 -1 -34 40z" />
<glyph unicode="&#xf7;" horiz-adv-x="1245" d="M223 616v91q0 39 39 38h864q41 0 41 -38v-91q0 -41 -41 -41h-862q-41 0 -41 41zM592 213v170q0 41 41 41h127q39 0 39 -41v-170q0 -41 -39 -41h-127q-41 0 -41 41zM592 946v170q0 41 41 41h127q39 0 39 -41v-170q0 -41 -39 -41h-127q-41 0 -41 41z" />
<glyph unicode="&#xf8;" horiz-adv-x="1105" d="M156 238q0 25 2 36l61 508q37 291 459 291q129 0 225 -33l31 43q27 43 53 43h49q39 0 11 -43l-60 -86q86 -70 86 -178q0 -25 -2 -37l-61 -508q-37 -291 -457 -290q-133 0 -229 32l-27 -39q-31 -43 -59 -43h-45q-35 0 -11 43l60 84q-86 64 -86 177zM360 268q0 -18 2 -26 l437 645q-49 20 -138 20q-223 0 -239 -143l-60 -473q-2 -9 -2 -23zM426 168q51 -18 143 -18q223 0 240 141l57 459q4 31 4 36q0 12 -4 33z" />
<glyph unicode="&#xf9;" horiz-adv-x="1128" d="M164 217q0 25 2 37l94 760q6 43 45 43h123q36 0 36 -33q0 -5 -1 -10l-88 -709q-2 -14 -2 -35q0 -106 143 -106q139 0 291 106l90 744q6 43 45 43h125q36 0 36 -33q0 -5 -1 -10l-123 -973q-6 -41 -43 -41h-115q-37 0 -35 41l5 63q-154 -121 -351 -120q-129 0 -202.5 63.5 t-73.5 169.5zM467 1468q-6 12 -6 20q0 19 33 19h129q35 0 51 -37l94 -229q5 -11 5 -18q0 -19 -30 -19h-94q-35 0 -49 25z" />
<glyph unicode="&#xfa;" horiz-adv-x="1128" d="M164 217q0 25 2 37l94 760q6 43 45 43h123q36 0 36 -33q0 -5 -1 -10l-88 -709q-2 -14 -2 -35q0 -106 143 -106q139 0 291 106l90 744q6 43 45 43h125q36 0 36 -33q0 -5 -1 -10l-123 -973q-6 -41 -43 -41h-115q-37 0 -35 41l5 63q-154 -121 -351 -120q-129 0 -202.5 63.5 t-73.5 169.5zM616 1241l154 229q29 37 59 37h136q29 0 28 -13q0 -9 -14 -26l-188 -239q-16 -25 -56 -25h-102q-27 0 -27 14q0 9 10 23z" />
<glyph unicode="&#xfb;" horiz-adv-x="1128" d="M164 217q0 25 2 37l94 760q6 43 45 43h123q36 0 36 -33q0 -5 -1 -10l-88 -709q-2 -14 -2 -35q0 -106 143 -106q139 0 291 106l90 744q6 43 45 43h125q36 0 36 -33q0 -5 -1 -10l-123 -973q-6 -41 -43 -41h-115q-37 0 -35 41l5 63q-154 -121 -351 -120q-129 0 -202.5 63.5 t-73.5 169.5zM425 1221q0 9 9 20l189 227q33 39 69 39h74q33 0 57 -39l135 -227q6 -8 6 -15q0 -6 -3 -11q-8 -11 -31 -11h-92q-33 0 -52 37l-71 143l-105 -143q-25 -37 -61 -37h-98q-26 0 -26 17z" />
<glyph unicode="&#xfc;" horiz-adv-x="1128" d="M164 217q0 25 2 37l94 760q6 43 45 43h123q36 0 36 -33q0 -5 -1 -10l-88 -709q-2 -14 -2 -35q0 -106 143 -106q139 0 291 106l90 744q6 43 45 43h125q36 0 36 -33q0 -5 -1 -10l-123 -973q-6 -41 -43 -41h-115q-37 0 -35 41l5 63q-154 -121 -351 -120q-129 0 -202.5 63.5 t-73.5 169.5zM500 1257l24 201q6 41 47 41h72q41 0 35 -41l-27 -201q-6 -41 -43 -40h-73q-41 -1 -35 40zM758 1257l24 201q6 41 45 41h74q41 0 35 -41l-27 -201q-6 -41 -45 -40h-71q-41 -1 -35 40z" />
<glyph unicode="&#xfd;" horiz-adv-x="958" d="M156 1014q-4 18 8 30.5t35 12.5h123q31 0 40 -43l130 -617q18 -94 18 -145q14 57 55 141l285 621q18 43 51 43h115q40 0 39 -24q0 -8 -4 -19l-656 -1407q-20 -41 -47 -41h-96q-38 0 -38 22q0 8 5 19l166 377zM539 1241l155 229q29 37 58 37h137q29 0 29 -13q0 -9 -15 -26 l-190 -239q-16 -25 -56 -25h-102q-26 0 -26 15q1 8 10 22z" />
<glyph unicode="&#xfe;" d="M100 -393l228 1841q6 41 45 41h123q39 0 34 -41l-59 -498q166 123 358 123q131 0 203 -63.5t72 -175.5q0 -23 -4 -56l-66 -508q-35 -287 -329 -286q-201 0 -340 118l-60 -495q-6 -41 -43 -41h-125q-43 0 -37 41zM385 268q133 -111 274 -110q158 0 179 143l55 447 q4 31 4 36q0 113 -145 113q-147 0 -303 -111z" />
<glyph unicode="&#xff;" horiz-adv-x="958" d="M156 1014q-4 18 8 30.5t35 12.5h123q31 0 40 -43l130 -617q18 -94 18 -145q14 57 55 141l285 621q18 43 51 43h115q40 0 39 -24q0 -8 -4 -19l-656 -1407q-20 -41 -47 -41h-96q-38 0 -38 22q0 8 5 19l166 377zM408 1257l22 201q6 41 47 41h72q41 0 35 -41l-27 -201 q-6 -41 -41 -40h-76q-34 0 -33 30q0 4 1 10zM664 1257l24 201q6 41 45 41h74q41 0 35 -41l-27 -201q-6 -41 -45 -40h-72q-40 -1 -34 40z" />
<glyph unicode="&#x100;" horiz-adv-x="1144" d="M47 41l580 1366q18 41 55 41h131q39 0 45 -41l248 -1366q6 -41 -35 -41h-131q-39 0 -45 41l-57 330h-451l-139 -330q-18 -41 -51 -41h-125q-29 0 -30 21q0 8 5 20zM444 1665l7 78q4 37 47 37h516q39 0 37 -35l-7 -80q-2 -39 -47 -39h-516q-39 0 -37 39zM457 537h354 l-70 387q-8 41 -13 119.5t-7 136.5v59q0 -2 -19 -65l-39 -136q-22 -72 -38 -110z" />
<glyph unicode="&#x101;" d="M156 223q0 14 4 49l63 512q37 289 330 289q201 0 346 -127l12 68q8 43 45 43h113q36 0 36 -33q0 -5 -1 -10l-121 -971q-6 -43 -43 -43h-117q-33 0 -32 43l4 63q-178 -123 -365 -122q-133 0 -203.5 63t-70.5 176zM362 272q0 -109 146 -108q139 0 301 108l63 510 q-129 111 -274 111q-158 0 -176 -139l-57 -451q-3 -13 -3 -31zM403 1288l9 78q2 37 47 37h514q39 0 37 -35l-9 -80q-2 -39 -47 -39h-516q-37 0 -35 39z" />
<glyph unicode="&#x102;" horiz-adv-x="1144" d="M47 41l580 1366q18 41 55 41h131q39 0 45 -41l248 -1366q6 -41 -35 -41h-131q-39 0 -45 41l-57 330h-451l-139 -330q-18 -41 -51 -41h-125q-29 0 -30 21q0 8 5 20zM457 537h354l-70 387q-8 41 -13 119.5t-7 136.5v59q0 -2 -19 -65l-39 -136q-22 -72 -38 -110zM489 1774 q0 25 3 43l4 38q2 33 41 33h77q18 0 25.5 -6t5.5 -27l-4 -38q-2 -14 -2 -27q0 -94 113 -94q72 0 100.5 31.5t36.5 97.5l4 30q4 33 41 33h74q39 0 32 -33l-6 -26q-23 -131 -85 -193.5t-206 -62.5q-121 0 -187.5 51.5t-66.5 149.5z" />
<glyph unicode="&#x103;" d="M156 223q0 14 4 49l63 512q37 289 330 289q201 0 346 -127l12 68q8 43 45 43h113q36 0 36 -33q0 -5 -1 -10l-121 -971q-6 -43 -43 -43h-117q-33 0 -32 43l4 63q-178 -123 -365 -122q-133 0 -203.5 63t-70.5 176zM362 272q0 -109 146 -108q139 0 301 108l63 510 q-129 111 -274 111q-158 0 -176 -139l-57 -451q-3 -13 -3 -31zM436 1376q0 6 4 41l4 39q6 35 41 35h76q37 0 31 -35l-4 -43v-24q0 -92 112 -93q70 0 100.5 33t37.5 96l2 31q2 35 41 35h75q35 0 33 -35l-6 -24q-16 -131 -81.5 -194.5t-209.5 -63.5q-121 0 -188.5 52 t-67.5 150z" />
<glyph unicode="&#x104;" horiz-adv-x="1144" d="M47 41l580 1366q18 41 55 41h131q39 0 45 -41l248 -1366q6 -41 -35 -41h-49q-63 0 -91 -38t-28 -91q0 -76 96 -76h58q20 0 31.5 -9t9.5 -30l-8 -59q-2 -39 -50 -39h-98q-78 0 -136 39t-58 131q0 55 30.5 128t108.5 126l-49 289h-451l-139 -330q-18 -41 -51 -41h-125 q-29 0 -30 21q0 8 5 20zM457 537h354l-70 387q-20 121 -20 315q-78 -266 -96 -311z" />
<glyph unicode="&#x105;" d="M156 223q0 14 4 49l63 512q37 289 330 289q197 0 346 -127l12 68q8 43 45 43h113q36 0 36 -33q0 -5 -1 -10l-121 -971q-6 -43 -43 -43h-10q-45 0 -84 -41t-39 -86q0 -78 102 -78h25q20 0 30.5 -9t8.5 -30l-6 -59q-2 -39 -52 -39h-63q-84 0 -141.5 41t-57.5 131 q0 147 140 229l2 47q-178 -123 -365 -122q-133 0 -203.5 63t-70.5 176zM362 272q0 -109 146 -108q139 0 301 108l63 510q-129 111 -274 111q-158 0 -176 -139l-57 -451q-3 -13 -3 -31z" />
<glyph unicode="&#x106;" horiz-adv-x="1189" d="M182 266q0 14 6 53l99 818q41 330 506 329q229 0 333.5 -77.5t104.5 -206.5q0 -14 -4 -54l-10 -96q-6 -41 -43 -41h-125q-41 0 -35 41l8 64q2 12 2 39q0 154 -244 153q-264 0 -288 -184l-91 -748q-4 -16 -4 -41q0 -156 244 -155q268 0 289 184l12 100q2 41 45 41h123 q39 0 33 -41l-15 -133q-35 -328 -505 -327q-231 0 -336 78.5t-105 203.5zM733 1604l154 227q27 39 59 39h133q29 0 30 -15q0 -10 -13 -26l-191 -238q-16 -27 -55 -26h-102q-25 0 -25 14q0 10 10 25z" />
<glyph unicode="&#x107;" horiz-adv-x="1032" d="M156 233q0 27 2 41l61 508q16 139 118.5 215t321.5 76q377 0 377 -252q0 -23 -2 -43l-4 -35q-6 -41 -43 -41h-117q-35 0 -32 39l2 25q2 18 2 33q0 109 -193 108q-117 0 -168 -34.5t-59 -106.5l-57 -455q-4 -35 -5 -47q0 -57 44.5 -85.5t148.5 -28.5q117 0 167 34.5 t62 104.5l6 43q6 41 43 41h115q37 0 33 -41l-6 -58q-31 -291 -438 -290q-379 -1 -379 249zM592 1241l156 229q29 37 57 37h137q29 0 29 -13q0 -9 -15 -26l-190 -239q-16 -25 -55 -25h-103q-26 0 -25 15q0 8 9 22z" />
<glyph unicode="&#x108;" horiz-adv-x="1189" d="M182 266q0 14 6 53l99 818q41 330 506 329q229 0 333.5 -77.5t104.5 -206.5q0 -14 -4 -54l-10 -96q-6 -41 -43 -41h-125q-41 0 -35 41l8 64q2 12 2 39q0 154 -244 153q-264 0 -288 -184l-91 -748q-4 -16 -4 -41q0 -156 244 -155q268 0 289 184l12 100q2 41 45 41h123 q39 0 33 -41l-15 -133q-35 -328 -505 -327q-231 0 -336 78.5t-105 203.5zM536 1577q-1 3 -2 7q0 9 11 20l188 225q33 41 68 41h73q33 0 60 -41l133 -225q6 -8 6 -17q0 -5 -3 -10q-7 -12 -28 -12h-94q-35 0 -53 39l-72 143l-102 -143q-27 -39 -62 -39h-96q-22 0 -27 12z" />
<glyph unicode="&#x109;" horiz-adv-x="1032" d="M156 233q0 27 2 41l61 508q16 139 118.5 215t321.5 76q377 0 377 -252q0 -23 -2 -43l-4 -35q-6 -41 -43 -41h-117q-35 0 -32 39l2 25q2 18 2 33q0 109 -193 108q-117 0 -168 -34.5t-59 -106.5l-57 -455q-4 -35 -5 -47q0 -57 44.5 -85.5t148.5 -28.5q117 0 167 34.5 t62 104.5l6 43q6 41 43 41h115q37 0 33 -41l-6 -58q-31 -291 -438 -290q-379 -1 -379 249zM407 1221q0 9 9 20l186 227q35 39 72 39h74q33 0 57 -39l135 -227q6 -8 6 -15q0 -6 -4 -11q-8 -11 -31 -11h-94q-31 0 -51 37l-70 143l-104 -143q-25 -37 -62 -37h-98q-25 0 -25 17z " />
<glyph unicode="&#x10a;" horiz-adv-x="1189" d="M182 266q0 14 6 53l99 818q41 330 506 329q229 0 333.5 -77.5t104.5 -206.5q0 -14 -4 -54l-10 -96q-6 -41 -43 -41h-125q-41 0 -35 41l8 64q2 12 2 39q0 154 -244 153q-264 0 -288 -184l-91 -748q-4 -16 -4 -41q0 -156 244 -155q268 0 289 184l12 100q2 41 45 41h123 q39 0 33 -41l-15 -133q-35 -328 -505 -327q-231 0 -336 78.5t-105 203.5zM705 1616l22 172q4 39 41 39h131q32 0 32 -27q0 -6 -1 -12l-19 -172q-6 -37 -43 -37h-127q-42 0 -36 37z" />
<glyph unicode="&#x10b;" horiz-adv-x="1032" d="M156 233q0 27 2 41l61 508q16 139 118.5 215t321.5 76q377 0 377 -252q0 -23 -2 -43l-4 -35q-6 -41 -43 -41h-117q-35 0 -32 39l2 25q2 18 2 33q0 109 -193 108q-117 0 -168 -34.5t-59 -106.5l-57 -455q-4 -35 -5 -47q0 -57 44.5 -85.5t148.5 -28.5q117 0 167 34.5 t62 104.5l6 43q6 41 43 41h115q37 0 33 -41l-6 -58q-31 -291 -438 -290q-379 -1 -379 249z" />
<glyph unicode="&#x10c;" horiz-adv-x="1189" d="M182 266q0 14 6 53l99 818q41 330 506 329q229 0 333.5 -77.5t104.5 -206.5q0 -14 -4 -54l-10 -96q-6 -41 -43 -41h-125q-41 0 -35 41l8 64q2 12 2 39q0 154 -244 153q-264 0 -288 -184l-91 -748q-4 -16 -4 -41q0 -156 244 -155q268 0 289 184l12 100q2 41 45 41h123 q39 0 33 -41l-15 -133q-35 -328 -505 -327q-231 0 -336 78.5t-105 203.5zM571 1858q8 12 29 12h96q27 0 49 -41l70 -139l105 139q29 41 61 41h98q23 0 28 -11q1 -3 1 -7q0 -10 -10 -23l-189 -225q-33 -39 -67 -39h-76q-33 0 -59 41l-134 223q-6 9 -5 17q-1 7 3 12z" />
<glyph unicode="&#x10d;" horiz-adv-x="1032" d="M156 233q0 27 2 41l61 508q16 139 118.5 215t321.5 76q377 0 377 -252q0 -23 -2 -43l-4 -35q-6 -41 -43 -41h-117q-35 0 -32 39l2 25q2 18 2 33q0 109 -193 108q-117 0 -168 -34.5t-59 -106.5l-57 -455q-4 -35 -5 -47q0 -57 44.5 -85.5t148.5 -28.5q117 0 167 34.5 t62 104.5l6 43q6 41 43 41h115q37 0 33 -41l-6 -58q-31 -291 -438 -290q-379 -1 -379 249zM441 1496q7 11 30 11h96q25 0 49 -39l70 -141l105 141q31 39 61 39h98q20 0 26 -11q1 -3 1 -6q0 -9 -10 -22l-189 -227q-35 -37 -69 -37h-72q-35 0 -59 39l-136 225q-4 9 -4 16t3 12 z" />
<glyph unicode="&#x10e;" horiz-adv-x="1294" d="M178 43l170 1362q6 43 43 43h436q236 0 346.5 -81t110.5 -208q0 -29 -4 -57l-94 -774q-39 -328 -514 -328h-461q-34 0 -34 32q0 5 1 11zM406 176h276q274 0 297 186l88 707q4 39 4 45q0 158 -256 158h-274zM564 1858q9 12 30 12h96q25 0 49 -41l70 -139l104 139 q29 41 62 41h98q23 0 28 -11q1 -3 1 -6q0 -10 -12 -24l-187 -225q-33 -39 -67 -39h-76q-33 0 -60 41l-133 223q-7 9 -7 17q0 7 4 12z" />
<glyph unicode="&#x10f;" horiz-adv-x="1290" d="M156 223q0 14 4 49l63 512q37 289 330 289q197 0 340 -121l59 494q6 43 45 43h125q36 0 36 -33q0 -5 -1 -10l-174 -1403q-6 -43 -43 -43h-117q-33 0 -32 43l2 63q-178 -123 -363 -122q-133 0 -203.5 63t-70.5 176zM362 272q0 -109 146 -108q139 0 301 108l63 510 q-129 111 -274 111q-162 0 -176 -139l-55 -443q-5 -31 -5 -39zM1219 1223q45 76 60 115.5t24 109.5l10 61q2 41 43 41h94q34 0 34 -30q0 -5 -1 -11l-8 -71q-16 -121 -121 -264q-17 -22 -43 -22q-6 0 -13 1l-67 16q-23 5 -23 23q0 13 11 31z" />
<glyph unicode="&#x110;" horiz-adv-x="1294" d="M86 692l8 76q6 39 47 39h131l76 598q6 43 43 43h436q236 0 346.5 -81t110.5 -208q0 -29 -4 -57l-94 -774q-39 -328 -514 -328h-461q-34 0 -34 32q0 5 1 11l76 610h-133q-36 0 -36 28q0 5 1 11zM406 176h276q274 0 297 186l88 707q4 39 4 45q0 158 -256 158h-274l-58 -465 h228q39 0 37 -39l-9 -76q-6 -39 -47 -39h-227z" />
<glyph unicode="&#x111;" d="M156 223q0 14 4 49l63 512q37 289 330 289q197 0 340 -121l25 224h-259q-37 0 -34 38l6 66q2 39 45 39h260l16 127q6 43 45 43h125q36 0 36 -33q0 -5 -1 -10l-18 -127h82q43 0 36 -39l-10 -66q-6 -39 -43 -38h-82l-139 -1133q-6 -43 -43 -43h-117q-33 0 -32 43l2 63 q-178 -123 -363 -122q-133 0 -203.5 63t-70.5 176zM362 272q0 -109 146 -108q139 0 301 108l63 510q-129 111 -274 111q-162 0 -176 -139l-55 -443q-5 -31 -5 -39z" />
<glyph unicode="&#x112;" horiz-adv-x="1103" d="M178 43l170 1362q6 43 43 43h729q43 0 37 -41l-14 -94q-6 -41 -43 -41h-559l-54 -430h523q41 0 34 -41l-12 -92q-6 -39 -43 -39h-522l-61 -494h581q43 0 37 -37l-12 -98q-6 -41 -45 -41h-752q-43 0 -37 43zM465 1665l6 78q2 37 47 37h514q39 0 37 -35l-6 -80 q-2 -39 -47 -39h-516q-37 0 -35 39z" />
<glyph unicode="&#x113;" horiz-adv-x="1052" d="M156 233q0 29 2 41l61 508q16 139 118.5 215t321.5 76q193 0 285 -66.5t92 -185.5q0 -27 -2 -39l-30 -260q-2 -39 -43 -39h-580l-23 -180q-4 -43 -4 -45q0 -117 197 -117q213 0 231 135l4 35q6 41 48 41h106q37 0 33 -41l-4 -37q-16 -143 -113.5 -216.5t-316.5 -73.5 q-383 -1 -383 249zM385 1288l8 78q2 37 47 37h516q39 0 37 -35l-10 -80q-2 -39 -45 -39h-516q-39 0 -37 39zM401 635h426l17 127q2 12 2 35q0 119 -199 118q-213 0 -229 -141z" />
<glyph unicode="&#x114;" horiz-adv-x="1103" d="M178 43l170 1362q6 43 43 43h729q43 0 37 -41l-14 -94q-6 -41 -43 -41h-559l-54 -430h523q41 0 34 -41l-12 -92q-6 -39 -43 -39h-522l-61 -494h581q43 0 37 -37l-12 -98q-6 -41 -45 -41h-752q-43 0 -37 43zM498 1774q0 25 2 43l4 38q4 33 41 33h78q18 0 25 -6t5 -27 l-4 -38q-2 -14 -2 -27q0 -94 113 -94q74 0 101.5 31.5t35.5 97.5l4 30q4 33 41 33h74q39 0 33 -33l-5 -26q-25 -131 -87 -193.5t-205 -62.5q-121 0 -187.5 51.5t-66.5 149.5z" />
<glyph unicode="&#x115;" horiz-adv-x="1052" d="M156 233q0 29 2 41l61 508q16 139 118.5 215t321.5 76q193 0 285 -66.5t92 -185.5q0 -27 -2 -39l-30 -260q-2 -39 -43 -39h-580l-23 -180q-4 -43 -4 -45q0 -117 197 -117q213 0 231 135l4 35q6 41 48 41h106q37 0 33 -41l-4 -37q-16 -143 -113.5 -216.5t-316.5 -73.5 q-383 -1 -383 249zM401 635h426l17 127q2 12 2 35q0 119 -199 118q-213 0 -229 -141zM422 1376q0 6 4 41l4 39q6 35 41 35h74q39 0 33 -35l-5 -43v-24q0 -92 113 -93q70 0 99.5 33t35.5 96l2 31q4 35 41 35h78q33 0 31 -35l-4 -24q-16 -131 -83 -194.5t-208 -63.5 q-123 0 -189.5 52t-66.5 150z" />
<glyph unicode="&#x116;" horiz-adv-x="1103" d="M178 43l170 1362q6 43 43 43h729q43 0 37 -41l-14 -94q-6 -41 -43 -41h-559l-54 -430h523q41 0 34 -41l-12 -92q-6 -39 -43 -39h-522l-61 -494h581q43 0 37 -37l-12 -98q-6 -41 -45 -41h-752q-43 0 -37 43zM653 1616l23 172q4 39 41 39h131q39 0 33 -39l-21 -172 q-6 -37 -43 -37h-127q-43 0 -37 37z" />
<glyph unicode="&#x117;" horiz-adv-x="1052" d="M156 233q0 29 2 41l61 508q16 139 118.5 215t321.5 76q193 0 285 -66.5t92 -185.5q0 -27 -2 -39l-30 -260q-2 -39 -43 -39h-580l-23 -180q-4 -43 -4 -45q0 -117 197 -117q213 0 231 135l4 35q6 41 48 41h106q37 0 33 -41l-4 -37q-16 -143 -113.5 -216.5t-316.5 -73.5 q-383 -1 -383 249zM401 635h426l17 127q2 12 2 35q0 119 -199 118q-213 0 -229 -141z" />
<glyph unicode="&#x118;" horiz-adv-x="1103" d="M178 43l170 1362q6 43 43 43h729q43 0 37 -41l-14 -94q-2 -41 -43 -41h-559l-54 -430h523q41 0 34 -41l-12 -92q-2 -39 -43 -39h-522l-61 -494h581q43 0 37 -37l-12 -98q-6 -41 -45 -41h-70q-113 -2 -113 -129q0 -76 97 -76h67q20 0 31.5 -9t9.5 -30l-8 -59 q-2 -39 -51 -39h-109q-76 0 -134 38t-58 130q0 106 57 174h-471q-43 0 -37 43z" />
<glyph unicode="&#x119;" horiz-adv-x="1052" d="M156 233q0 29 2 41l61 508q16 139 118.5 215t321.5 76q193 0 285 -66.5t92 -185.5q0 -27 -2 -39l-30 -260q-2 -39 -43 -39h-580l-23 -180q-4 -43 -4 -45q0 -117 197 -117q213 0 231 135l4 35q6 41 48 41h106q37 0 33 -41l-4 -37q-14 -131 -113 -215q-37 -29 -54.5 -46 t-38 -57t-20.5 -81q0 -80 101 -80h55q20 0 31.5 -9t9.5 -30l-6 -59q-8 -39 -53 -39h-95q-82 0 -140 40t-58 130q0 80 49 160q-59 -4 -98 -4q-383 -1 -383 249zM401 635h426l17 127q2 12 2 35q0 119 -199 118q-213 0 -229 -141z" />
<glyph unicode="&#x11a;" horiz-adv-x="1103" d="M178 43l170 1362q6 43 43 43h729q43 0 37 -41l-14 -94q-6 -41 -43 -41h-559l-54 -430h523q41 0 34 -41l-12 -92q-6 -39 -43 -39h-522l-61 -494h581q43 0 37 -37l-12 -98q-6 -41 -45 -41h-752q-43 0 -37 43zM522 1858q8 12 29 12h96q27 0 49 -41l70 -139l104 139 q29 41 64 41h96q23 0 28 -11q1 -3 1 -7q0 -10 -10 -23l-189 -225q-31 -39 -67 -39h-76q-33 0 -60 41l-133 223q-6 9 -5 17q-1 7 3 12z" />
<glyph unicode="&#x11b;" horiz-adv-x="1052" d="M156 233q0 29 2 41l61 508q16 139 118.5 215t321.5 76q193 0 285 -66.5t92 -185.5q0 -27 -2 -39l-30 -260q-2 -39 -43 -39h-580l-23 -180q-4 -43 -4 -45q0 -117 197 -117q213 0 231 135l4 35q6 41 48 41h106q37 0 33 -41l-4 -37q-16 -143 -113.5 -216.5t-316.5 -73.5 q-383 -1 -383 249zM401 635h426l17 127q2 12 2 35q0 119 -199 118q-213 0 -229 -141zM429 1496q7 11 30 11h94q27 0 49 -39l72 -141l104 141q31 39 62 39h98q20 0 26 -11q1 -3 1 -6q0 -9 -11 -22l-190 -227q-33 -37 -68 -37h-71q-35 0 -60 39l-135 225q-4 9 -4 16t3 12z" />
<glyph unicode="&#x11c;" horiz-adv-x="1218" d="M182 266q0 18 6 53l99 818q41 330 506 329q229 0 333.5 -78.5t104.5 -209.5q0 -12 -4 -52l-8 -82q-2 -41 -45 -40h-123q-39 0 -35 40l6 60q2 12 2 35q0 150 -242 149q-266 0 -290 -184l-91 -748q-6 -31 -6 -43q0 -154 244 -153q266 0 289 182l26 205h-254q-37 0 -32 41 l10 98q2 39 45 39h414q41 0 37 -39l-46 -375q-41 -328 -505 -327q-231 0 -336 78.5t-105 203.5zM540 1577q-1 3 -2 7q0 9 11 20l188 225q33 41 68 41h76q31 0 57 -41l133 -225q6 -8 6 -17q0 -5 -3 -10q-7 -12 -27 -12h-95q-35 0 -53 39l-70 143l-104 -143q-27 -39 -61 -39 h-97q-22 0 -27 12z" />
<glyph unicode="&#x11d;" d="M156 225q0 18 4 47l63 512q37 289 330 289q201 0 346 -127l12 68q8 43 43 43h115q39 0 35 -43l-141 -1157q-37 -291 -459 -291h-293q-45 0 -39 41l10 88q8 41 47 41h295q219 0 236 143l28 223q-172 -119 -356 -118q-133 0 -204.5 64t-71.5 177zM362 274q0 -111 146 -110 q139 0 301 108l63 510q-129 111 -274 111q-162 0 -176 -139l-55 -439q-5 -31 -5 -41zM429 1221q0 9 9 20l189 227q33 39 69 39h74q33 0 59 -39l134 -227q6 -8 5 -15q0 -6 -3 -11q-8 -11 -29 -11h-94q-33 0 -51 37l-70 143l-105 -143q-27 -37 -63 -37h-96q-28 0 -28 17z" />
<glyph unicode="&#x11e;" horiz-adv-x="1218" d="M182 266q0 18 6 53l99 818q41 330 506 329q229 0 333.5 -78.5t104.5 -209.5q0 -12 -4 -52l-8 -82q-2 -41 -45 -40h-123q-39 0 -35 40l6 60q2 12 2 35q0 150 -242 149q-266 0 -290 -184l-91 -748q-6 -31 -6 -43q0 -154 244 -153q266 0 289 182l26 205h-254q-37 0 -32 41 l10 98q2 39 45 39h414q41 0 37 -39l-46 -375q-41 -328 -505 -327q-231 0 -336 78.5t-105 203.5zM541 1774q0 25 2 43l4 38q2 33 41 33h76q20 0 27 -6t5 -27l-4 -38q-2 -14 -2 -27q0 -94 113 -94q72 0 99.5 31.5t37.5 97.5l4 30q4 33 39 33h76q32 0 32 -22q0 -5 -1 -11 l-5 -26q-23 -131 -85 -193.5t-205 -62.5q-121 0 -187.5 51.5t-66.5 149.5z" />
<glyph unicode="&#x11f;" d="M156 225q0 18 4 47l63 512q37 289 330 289q201 0 346 -127l12 68q8 43 43 43h115q39 0 35 -43l-141 -1157q-37 -291 -459 -291h-293q-45 0 -39 41l10 88q8 41 47 41h295q219 0 236 143l28 223q-172 -119 -356 -118q-133 0 -204.5 64t-71.5 177zM362 274q0 -111 146 -110 q139 0 301 108l63 510q-129 111 -274 111q-162 0 -176 -139l-55 -439q-5 -31 -5 -41zM430 1376q0 6 4 41l4 39q6 35 41 35h74q39 0 33 -35l-4 -43v-24q0 -92 112 -93q70 0 99.5 33t37.5 96l3 31q2 35 38 35h78q33 0 31 -35l-4 -24q-16 -131 -82 -194.5t-209 -63.5 q-121 0 -188.5 52t-67.5 150z" />
<glyph unicode="&#x120;" horiz-adv-x="1218" d="M182 266q0 18 6 53l99 818q41 330 506 329q229 0 333.5 -78.5t104.5 -209.5q0 -12 -4 -52l-8 -82q-2 -41 -45 -40h-123q-39 0 -35 40l6 60q2 12 2 35q0 150 -242 149q-266 0 -290 -184l-91 -748q-6 -31 -6 -43q0 -154 244 -153q266 0 289 182l26 205h-254q-37 0 -32 41 l10 98q2 39 45 39h414q41 0 37 -39l-46 -375q-41 -328 -505 -327q-231 0 -336 78.5t-105 203.5zM682 1616l20 172q4 39 43 39h129q39 0 33 -39l-18 -172q-6 -37 -43 -37h-129q-41 0 -35 37z" />
<glyph unicode="&#x121;" d="M156 225q0 18 4 47l63 512q37 289 330 289q201 0 346 -127l12 68q8 43 43 43h115q39 0 35 -43l-141 -1157q-37 -291 -459 -291h-293q-45 0 -39 41l10 88q8 41 47 41h295q219 0 236 143l28 223q-172 -119 -356 -118q-133 0 -204.5 64t-71.5 177zM362 274q0 -111 146 -110 q139 0 301 108l63 510q-129 111 -274 111q-162 0 -176 -139l-55 -439q-5 -31 -5 -41z" />
<glyph unicode="&#x122;" horiz-adv-x="1218" d="M182 266q0 18 6 53l99 818q41 330 506 329q229 0 333.5 -78.5t104.5 -209.5q0 -12 -4 -52l-8 -82q-2 -41 -45 -40h-123q-39 0 -35 40l6 60q2 12 2 35q0 150 -242 149q-266 0 -290 -184l-91 -748q-6 -31 -6 -43q0 -154 244 -153q266 0 289 182l26 205h-254q-37 0 -32 41 l10 98q2 39 45 39h414q41 0 37 -39l-46 -375q-41 -328 -505 -327q-231 0 -336 78.5t-105 203.5zM432 -434q45 76 61.5 115.5t24.5 109.5l8 62q2 41 45 41h93q34 0 33 -31q0 -5 -1 -10l-8 -72q-14 -121 -119 -264q-18 -22 -41 -23q-7 0 -14 2l-70 17q-22 5 -22 23q0 12 10 30 z" />
<glyph unicode="&#x123;" d="M156 225q0 18 4 47l63 512q37 289 330 289q201 0 346 -127l12 68q8 43 43 43h115q39 0 35 -43l-141 -1157q-37 -291 -459 -291h-293q-45 0 -39 41l10 88q8 41 47 41h295q219 0 236 143l28 223q-172 -119 -356 -118q-133 0 -204.5 64t-71.5 177zM362 274q0 -111 146 -110 q139 0 301 108l63 510q-129 111 -274 111q-162 0 -176 -139l-55 -439q-5 -31 -5 -41zM592 1257l8 72q16 121 121 264q17 22 43 22q6 0 12 -1l68 -17q23 -5 23 -22q0 -12 -11 -31q-45 -76 -60.5 -115.5t-25.5 -109.5l-8 -62q-2 -41 -45 -40h-92q-34 0 -34 30q0 4 1 10z" />
<glyph unicode="&#x124;" horiz-adv-x="1314" d="M178 43l170 1362q6 43 43 43h131q34 0 34 -30q0 -6 -1 -13l-68 -559h553l68 559q6 43 47 43h129q34 0 34 -32q0 -5 -1 -11l-168 -1362q-8 -43 -41 -43h-131q-36 0 -36 33q0 5 1 10l76 627h-551l-80 -627q-6 -43 -43 -43h-129q-43 0 -37 43zM566 1577q-1 3 -1 7q0 9 10 20 l187 225q35 41 69 41h74q33 0 58 -41l135 -225q6 -8 6 -17q0 -5 -3 -10q-7 -12 -30 -12h-94q-33 0 -53 39l-70 143l-104 -143q-25 -39 -60 -39h-98q-21 0 -26 12z" />
<glyph unicode="&#x125;" horiz-adv-x="1140" d="M156 43l172 1403q6 43 45 43h125q34 0 33 -32q0 -5 -1 -11l-59 -492q160 119 358 119q127 0 201 -64.5t74 -170.5q0 -25 -2 -37l-92 -758q-6 -43 -47 -43h-121q-36 0 -36 33q0 5 1 10l86 709q2 12 2 32q0 109 -143 109q-150 0 -303 -109l-89 -741q-6 -43 -45 -43h-125 q-36 0 -35 33q0 4 1 10zM175 1577q-1 3 -1 7q0 9 10 20l189 225q35 41 67 41h76q31 0 57 -41l134 -225q6 -8 6 -17q0 -5 -3 -10q-7 -12 -28 -12h-94q-35 0 -53 39l-70 143l-105 -143q-27 -39 -59 -39h-98q-23 0 -28 12z" />
<glyph unicode="&#x126;" horiz-adv-x="1314" d="M178 43l123 993h-74q-39 0 -37 39l9 66q6 39 45 39h75l29 225q6 43 43 43h131q34 0 34 -30q0 -6 -1 -13l-27 -225h551l29 225q6 43 47 43h129q34 0 34 -32q0 -5 -1 -11l-29 -225h72q41 0 35 -39l-6 -66q-6 -39 -46 -39h-73l-121 -993q-8 -43 -41 -43h-131q-36 0 -36 33 q0 5 1 10l76 627h-551l-80 -627q-6 -43 -43 -43h-129q-43 0 -37 43zM487 846h553l23 190h-551z" />
<glyph unicode="&#x127;" horiz-adv-x="1140" d="M156 43l139 1133h-86q-45 0 -39 41l8 63q2 20 12.5 29.5t32.5 9.5h88l17 127q6 43 45 43h125q34 0 33 -32q0 -5 -1 -11l-16 -127h252q45 0 39 -39l-8 -63q-6 -41 -45 -41h-256l-25 -222q160 119 358 119q127 0 201 -64.5t74 -170.5q0 -25 -2 -37l-92 -758q-6 -43 -47 -43 h-121q-36 0 -36 33q0 5 1 10l86 709q2 12 2 32q0 109 -143 109q-150 0 -303 -109l-89 -741q-6 -43 -45 -43h-125q-36 0 -35 33q0 4 1 10z" />
<glyph unicode="&#x128;" horiz-adv-x="555" d="M129 1630l16 68q37 170 185 170q66 0 129 -39l88 -60q49 -31 69 -30q25 0 35.5 15t18.5 63l2 16q6 37 45 37h67q31 0 31 -30q0 -8 -2 -17l-12 -64q-16 -86 -67.5 -129t-120 -43t-130.5 41l-92 60q-41 27 -64.5 26.5t-32.5 -12.5t-15 -47l-9 -37q-8 -35 -47 -35h-63 q-33 0 -33 30q0 8 2 17zM178 43l170 1362q6 43 43 43h131q34 0 34 -30q0 -6 -1 -13l-168 -1362q-6 -43 -43 -43h-129q-43 0 -37 43z" />
<glyph unicode="&#x129;" horiz-adv-x="503" d="M70 1253l16 68q37 170 184 170q66 0 127 -39l90 -59q49 -31 68 -31q27 0 37 15.5t16 62.5l2 16q8 37 47 37h68q31 0 31 -30q0 -8 -2 -17l-13 -64q-16 -86 -67 -129t-120 -43t-130 39l-92 62q-43 27 -65.5 26.5t-32 -12.5t-15.5 -47l-8 -37q-8 -35 -47 -35h-64 q-33 0 -32 30q0 8 2 17zM156 41l118 973q6 43 45 43h123q36 0 36 -33q0 -5 -1 -10l-119 -973q-6 -41 -45 -41h-123q-40 0 -34 41z" />
<glyph unicode="&#x12a;" horiz-adv-x="555" d="M176 1665l6 78q2 37 47 37h516q39 0 37 -35l-6 -80q-2 -39 -47 -39h-516q-39 0 -37 39zM178 43l170 1362q6 43 43 43h131q34 0 34 -30q0 -6 -1 -13l-168 -1362q-6 -43 -43 -43h-129q-43 0 -37 43z" />
<glyph unicode="&#x12b;" horiz-adv-x="503" d="M113 1288l8 78q2 37 47 37h516q39 0 37 -35l-10 -80q-2 -39 -47 -39h-514q-39 0 -37 39zM156 41l118 973q6 43 45 43h123q36 0 36 -33q0 -5 -1 -10l-119 -973q-6 -41 -45 -41h-123q-40 0 -34 41z" />
<glyph unicode="&#x12c;" horiz-adv-x="555" d="M178 43l170 1362q6 43 43 43h131q34 0 34 -30q0 -6 -1 -13l-168 -1362q-6 -43 -43 -43h-129q-43 0 -37 43zM209 1774q0 25 2 43l4 38q2 33 41 33h76q20 0 27.5 -6t5.5 -27l-5 -38q-2 -14 -2 -27q0 -94 113 -94q72 0 99.5 31.5t35.5 97.5l4 30q6 33 41 33h76q37 0 31 -33 l-4 -26q-23 -131 -86.5 -193.5t-204.5 -62.5q-123 0 -188.5 51.5t-65.5 149.5z" />
<glyph unicode="&#x12d;" horiz-adv-x="503" d="M145 1376q0 6 5 41l4 39q6 35 41 35h73q39 0 33 -35l-4 -43v-24q0 -92 113 -93q70 0 99.5 33t35.5 96l2 31q2 35 41 35h76q35 0 32 -35l-4 -24q-16 -131 -82.5 -194.5t-208.5 -63.5q-123 0 -189.5 52t-66.5 150zM156 41l118 973q6 43 45 43h123q36 0 36 -33q0 -5 -1 -10 l-119 -973q-6 -41 -45 -41h-123q-40 0 -34 41z" />
<glyph unicode="&#x12e;" horiz-adv-x="555" d="M35 -174q0 160 147 256l166 1323q6 43 43 43h131q34 0 34 -30q0 -6 -1 -13l-168 -1362q-6 -43 -43 -43h-27q-61 -2 -95 -40t-34 -89q0 -76 97 -76h57q23 0 33 -9t8 -30l-6 -59q-2 -39 -51 -39h-99q-72 0 -132 38t-60 130z" />
<glyph unicode="&#x12f;" horiz-adv-x="503" d="M6 -174q0 166 154 260l116 928q6 43 43 43h123q43 0 37 -43l-119 -971q-6 -43 -45 -43h-16q-66 0 -102.5 -42t-36.5 -93q0 -70 98 -70h57q20 0 31.5 -9t9.5 -30l-6 -59q-2 -39 -51 -39h-94q-74 0 -136.5 38t-62.5 130zM305 1255l23 191q6 43 45 43h125q34 0 33 -32 q0 -5 -1 -11l-22 -191q-8 -41 -43 -41h-127q-34 0 -34 31q0 4 1 10z" />
<glyph unicode="&#x130;" horiz-adv-x="555" d="M178 43l170 1362q6 43 43 43h131q34 0 34 -30q0 -6 -1 -13l-168 -1362q-6 -43 -43 -43h-129q-43 0 -37 43zM373 1616l20 172q4 39 43 39h131q32 0 32 -29q0 -5 -1 -10l-18 -172q-6 -37 -43 -37h-127q-43 0 -37 37z" />
<glyph unicode="&#x131;" horiz-adv-x="503" d="M156 41l118 973q6 43 45 43h123q36 0 36 -33q0 -5 -1 -10l-119 -973q-6 -41 -45 -41h-123q-40 0 -34 41z" />
<glyph unicode="&#x132;" horiz-adv-x="1628" d="M178 43l170 1362q6 43 43 43h131q34 0 34 -30q0 -6 -1 -13l-168 -1362q-6 -43 -43 -43h-129q-43 0 -37 43zM639 264q0 25 4 64l10 92q6 43 47 43h127q37 0 31 -43l-8 -68q-2 -14 -2 -47q0 -145 209 -145q121 0 173 46t64 138l133 1061q6 43 46 43h129q36 0 35 -33 q0 -5 -1 -10l-135 -1094q-18 -152 -118.5 -239.5t-338.5 -87.5q-211 0 -308 77.5t-97 202.5z" />
<glyph unicode="&#x133;" horiz-adv-x="1005" d="M156 43l120 971q6 43 43 43h123q43 0 37 -43l-119 -971q-6 -43 -45 -43h-125q-36 0 -35 33q0 4 1 10zM305 1255l23 191q6 43 45 43h125q34 0 33 -32q0 -5 -1 -11l-22 -191q-8 -41 -43 -41h-127q-34 0 -34 31q0 4 1 10zM332 -393l10 88q8 41 47 41h17q217 0 233 143 l141 1135q6 43 43 43h125q34 0 34 -30q0 -6 -1 -13l-141 -1157q-18 -141 -124 -216t-325 -75h-22q-43 0 -37 41zM809 1255l25 191q6 43 43 43h124q34 0 35 -30q0 -6 -2 -13l-22 -191q-2 -41 -43 -41h-123q-43 0 -37 41z" />
<glyph unicode="&#x134;" horiz-adv-x="1073" d="M84 264q0 25 4 64l10 92q6 43 47 43h125q34 0 34 -32q0 -5 -1 -11l-8 -68q-4 -14 -4 -47q0 -145 209 -145q123 0 175 46t64 138l131 1061q6 43 45 43h132q34 0 33 -32q0 -5 -1 -11l-133 -1094q-20 -152 -119.5 -239.5t-339.5 -87.5q-211 0 -307 77.5t-96 202.5zM715 1577 q-2 3 -2 7q0 9 12 20l186 225q35 41 68 41h76q31 0 57 -41l133 -225q7 -9 8 -17q0 -5 -4 -10q-8 -12 -28 -12h-95q-33 0 -53 39l-69 143l-105 -143q-27 -39 -59 -39h-99q-20 0 -26 12z" />
<glyph unicode="&#x135;" horiz-adv-x="501" d="M-174 -395l10 86q6 41 47 41h15q217 0 233 145l141 1137q6 43 45 43h123q36 0 36 -33q0 -5 -1 -10l-143 -1159q-18 -141 -123 -215t-324 -74h-24q-41 0 -35 39zM118 1221q0 9 9 20l188 227q35 39 70 39h76q31 0 57 -39l133 -227q6 -8 6 -15q0 -6 -4 -11q-8 -11 -28 -11 h-95q-33 0 -51 37l-69 143l-105 -143q-27 -37 -61 -37h-99q-27 0 -27 17z" />
<glyph unicode="&#x136;" horiz-adv-x="1200" d="M176 41l168 1366q8 41 45 41h131q41 0 33 -41l-74 -608h49l521 608q35 41 69 41h146q24 0 24 -16q0 -10 -12 -25l-576 -672l467 -694q10 -16 3 -28.5t-27 -12.5h-166q-27 0 -57 41l-402 602h-57l-76 -602q-6 -41 -43 -41h-129q-43 0 -37 41zM412 -434q45 76 60 115.5 t24 109.5l8 62q4 41 45 41h94q34 0 34 -31q0 -5 -1 -10l-8 -72q-16 -121 -121 -264q-16 -22 -41 -23q-7 0 -14 2l-68 17q-23 5 -23 22q0 13 11 31z" />
<glyph unicode="&#x137;" horiz-adv-x="1007" d="M154 41l172 1407q6 41 45 41h125q39 0 32 -41l-94 -778h53l365 346q41 41 70 41h141q20 0 26 -15q1 -3 1 -6q0 -11 -13 -22l-430 -416l352 -557q10 -16 3 -28.5t-29 -12.5h-135q-33 0 -56 41l-305 475h-61l-58 -475q-6 -41 -45 -41h-125q-40 0 -34 41zM348 -434 q43 76 59.5 115.5t24.5 109.5l8 62q2 41 45 41h95q32 0 32 -28q0 -6 -2 -13l-8 -72q-14 -121 -119 -264q-16 -22 -40 -23q-7 0 -15 2l-68 17q-23 5 -23 22q0 13 11 31z" />
<glyph unicode="&#x138;" horiz-adv-x="1007" d="M154 41l120 973q6 43 45 43h123q36 0 36 -33q0 -5 -1 -10l-43 -344h53l365 346q41 41 70 41h141q20 0 26 -15q1 -3 1 -6q0 -11 -13 -22l-430 -416l352 -557q10 -16 3 -28.5t-29 -12.5h-135q-33 0 -56 41l-305 475h-61l-58 -475q-6 -41 -45 -41h-125q-40 0 -34 41z" />
<glyph unicode="&#x139;" horiz-adv-x="1032" d="M178 43l170 1362q6 43 43 43h131q34 0 34 -30q0 -6 -1 -13l-149 -1229h544q43 0 37 -37l-14 -98q-6 -41 -45 -41h-717q-34 0 -34 32q0 5 1 11zM395 1604l154 227q29 39 59 39h135q29 0 29 -14q0 -10 -14 -27l-189 -238q-18 -27 -55 -26h-102q-26 0 -26 15q0 9 9 24z" />
<glyph unicode="&#x13a;" horiz-adv-x="503" d="M156 43l172 1403q6 43 45 43h125q34 0 33 -32q0 -5 -1 -11l-170 -1403q-6 -43 -45 -43h-125q-36 0 -35 33q0 4 1 10zM369 1604l153 227q27 39 60 39h133q29 0 29 -15q0 -10 -13 -26l-190 -238q-16 -27 -56 -26h-102q-25 0 -25 14q1 10 11 25z" />
<glyph unicode="&#x13b;" horiz-adv-x="1032" d="M178 43l170 1362q6 43 43 43h131q34 0 34 -30q0 -6 -1 -13l-149 -1229h544q43 0 37 -37l-14 -98q-6 -41 -45 -41h-717q-34 0 -34 32q0 5 1 11zM365 -434q45 76 60 115.5t24 109.5l10 62q2 41 43 41h94q34 0 34 -31q0 -5 -1 -10l-8 -72q-16 -121 -121 -264 q-16 -22 -41 -23q-7 0 -15 2l-67 17q-23 5 -23 22q0 13 11 31z" />
<glyph unicode="&#x13c;" horiz-adv-x="503" d="M57 -434q45 76 61.5 115.5t24.5 109.5l9 62q2 41 45 41h92q39 0 33 -41l-9 -72q-14 -121 -118 -264q-18 -22 -42 -23q-7 0 -14 2l-69 17q-22 5 -22 23q-1 12 9 30zM156 43l172 1403q6 43 45 43h125q34 0 33 -32q0 -5 -1 -11l-170 -1403q-6 -43 -45 -43h-125q-36 0 -35 33 q0 4 1 10z" />
<glyph unicode="&#x13d;" horiz-adv-x="1032" d="M178 43l170 1362q6 43 43 43h131q34 0 34 -30q0 -6 -1 -13l-149 -1229h544q43 0 37 -37l-14 -98q-6 -41 -45 -41h-717q-34 0 -34 32q0 5 1 11zM758 1204q45 76 61.5 116t24.5 110l8 61q2 41 45 41h94q32 0 32 -30q0 -5 -1 -11l-8 -72q-14 -123 -119 -264q-19 -24 -44 -24 q-5 0 -11 2l-70 18q-22 5 -22 23q0 12 10 30z" />
<glyph unicode="&#x13e;" horiz-adv-x="663" d="M156 43l172 1403q6 43 45 43h125q34 0 33 -32q0 -5 -1 -11l-170 -1403q-6 -43 -45 -43h-125q-36 0 -35 33q0 4 1 10zM592 1223q45 76 61.5 115.5t24.5 109.5l8 61q2 41 45 41h92q34 0 34 -30q0 -5 -1 -11l-8 -71q-14 -121 -119 -264q-18 -22 -43 -22q-6 0 -12 1l-70 16 q-22 5 -22 24q0 12 10 30z" />
<glyph unicode="&#x13f;" horiz-adv-x="1032" d="M178 43l170 1362q6 43 43 43h131q34 0 34 -30q0 -6 -1 -13l-149 -1229h544q43 0 37 -37l-14 -98q-6 -41 -45 -41h-717q-34 0 -34 32q0 5 1 11zM754 670l20 170q2 41 43 41h131q32 0 32 -28q0 -6 -1 -13l-21 -170q-6 -41 -43 -41h-127q-40 0 -34 41z" />
<glyph unicode="&#x140;" horiz-adv-x="720" d="M156 43l172 1403q6 43 45 43h125q34 0 33 -32q0 -5 -1 -11l-170 -1403q-6 -43 -45 -43h-125q-36 0 -35 33q0 4 1 10zM573 670l19 170q2 41 45 41h129q34 0 34 -31q0 -5 -1 -10l-21 -170q-8 -41 -43 -41h-129q-34 0 -33 30q-1 5 0 11z" />
<glyph unicode="&#x141;" horiz-adv-x="1032" d="M84 645q-4 9 -4 17q0 22 31 34l155 60l82 649q6 43 43 43h131q34 0 34 -30q0 -6 -1 -13l-70 -563l107 41q39 12 49 -23l14 -45q3 -8 3 -14q0 -22 -31 -35l-158 -61l-63 -529h544q43 0 37 -37l-14 -98q-6 -41 -45 -41h-717q-34 0 -34 32q0 5 1 11l72 578l-103 -41 q-37 -14 -49 22z" />
<glyph unicode="&#x142;" horiz-adv-x="503" d="M59 645q-2 8 -2 15q0 25 31 36l156 60l84 690q6 43 45 43h125q34 0 33 -32q0 -5 -1 -11l-73 -606l108 43q11 4 21 4q23 0 30 -27l13 -45q2 -7 2 -13q0 -23 -31 -36l-162 -64l-78 -659q-6 -43 -45 -43h-125q-36 0 -35 33q0 5 1 10l69 578l-106 -41q-12 -5 -22 -5 q-22 0 -27 27z" />
<glyph unicode="&#x143;" horiz-adv-x="1314" d="M176 41l168 1366q8 41 45 41h111q29 0 35 -16l405 -897q37 -88 51 -138l123 1010q6 41 45 41h117q41 0 35 -41l-170 -1366q-6 -41 -41 -41h-111q-31 0 -39 18l-395 879q-29 61 -57 156l-125 -1012q-6 -41 -41 -41h-119q-43 0 -37 41zM760 1604l153 227q29 39 60 39h135 q29 0 29 -14q0 -10 -15 -27l-188 -238q-18 -27 -57 -26h-101q-26 0 -25 15q0 9 9 24z" />
<glyph unicode="&#x144;" horiz-adv-x="1140" d="M156 43l120 973q6 41 43 41h115q39 0 37 -41l-4 -68q162 125 362 125q127 0 201 -64.5t74 -170.5q0 -31 -2 -47l-92 -748q-6 -43 -47 -43h-121q-36 0 -36 33q0 5 1 10l86 698q4 29 4 41q0 111 -143 111q-152 0 -305 -109l-89 -741q-6 -43 -45 -43h-125q-36 0 -35 33 q0 4 1 10zM659 1241l156 229q29 37 57 37h138q29 0 28 -13q0 -9 -14 -26l-188 -239q-18 -25 -56 -25h-102q-27 0 -27 15q-1 9 8 22z" />
<glyph unicode="&#x145;" horiz-adv-x="1314" d="M176 41l168 1366q8 41 45 41h111q29 0 35 -16l405 -897q37 -88 51 -138l123 1010q6 41 45 41h117q41 0 35 -41l-170 -1366q-6 -41 -41 -41h-111q-31 0 -39 18l-395 879q-29 61 -57 156l-125 -1012q-6 -41 -41 -41h-119q-43 0 -37 41zM485 -434q45 76 61.5 115.5 t24.5 109.5l9 62q2 41 45 41h92q34 0 33 -31v-10l-9 -72q-14 -121 -118 -264q-18 -22 -42 -23q-7 0 -14 2l-69 17q-22 5 -22 23q-1 12 9 30z" />
<glyph unicode="&#x146;" horiz-adv-x="1140" d="M156 43l120 973q6 41 43 41h115q39 0 37 -41l-4 -68q162 125 362 125q127 0 201 -64.5t74 -170.5q0 -31 -2 -47l-92 -748q-6 -43 -47 -43h-121q-36 0 -36 33q0 5 1 10l86 698q4 29 4 41q0 111 -143 111q-152 0 -305 -109l-89 -741q-6 -43 -45 -43h-125q-36 0 -35 33 q0 4 1 10zM379 -434q45 76 61.5 115.5t24.5 109.5l8 62q2 41 45 41h92q34 0 34 -31q0 -5 -1 -10l-8 -72q-14 -121 -119 -264q-18 -22 -41 -23q-7 0 -14 2l-70 17q-22 5 -22 23q0 12 10 30z" />
<glyph unicode="&#x147;" horiz-adv-x="1314" d="M176 41l168 1366q8 41 45 41h111q29 0 35 -16l405 -897q37 -88 51 -138l123 1010q6 41 45 41h117q41 0 35 -41l-170 -1366q-6 -41 -41 -41h-111q-31 0 -39 18l-395 879q-29 61 -57 156l-125 -1012q-6 -41 -41 -41h-119q-43 0 -37 41zM598 1858q8 12 31 12h96q25 0 49 -41 l70 -139l104 139q27 41 62 41h98q20 0 26 -11q1 -3 1 -7q0 -10 -11 -23l-186 -225q-33 -39 -70 -39h-73q-35 0 -60 41l-135 223q-6 9 -6 17q0 7 4 12z" />
<glyph unicode="&#x148;" horiz-adv-x="1140" d="M156 43l120 973q6 41 43 41h115q39 0 37 -41l-4 -68q162 125 362 125q127 0 201 -64.5t74 -170.5q0 -31 -2 -47l-92 -748q-6 -43 -47 -43h-121q-36 0 -36 33q0 5 1 10l86 698q4 29 4 41q0 111 -143 111q-152 0 -305 -109l-89 -741q-6 -43 -45 -43h-125q-36 0 -35 33 q0 4 1 10zM486 1496q7 11 30 11h94q27 0 49 -39l72 -141l105 141q31 39 61 39h98q20 0 26 -11q1 -3 1 -6q0 -9 -10 -22l-191 -227q-33 -37 -67 -37h-72q-35 0 -59 39l-136 225q-4 9 -4 16t3 12z" />
<glyph unicode="&#x149;" horiz-adv-x="1140" d="M156 43l120 973q6 41 43 41h115q39 0 37 -41l-4 -68q162 125 362 125q127 0 201 -64.5t74 -170.5q0 -31 -2 -47l-92 -748q-6 -43 -47 -43h-121q-36 0 -36 33q0 5 1 10l86 698q4 29 4 41q0 111 -143 111q-152 0 -305 -109l-89 -741q-6 -43 -45 -43h-125q-36 0 -35 33 q0 4 1 10zM227 1223q45 76 61.5 115.5t24.5 109.5l9 61q2 41 45 41h94q32 0 31 -30v-11l-9 -71q-14 -121 -118 -264q-18 -22 -44 -22q-6 0 -12 1l-67 16q-24 5 -24 24q-1 13 9 30z" />
<glyph unicode="&#x14a;" horiz-adv-x="1314" d="M176 41l168 1366q8 41 45 41h111q29 0 35 -16l405 -897q37 -88 51 -138l123 1010q6 41 45 41h117q41 0 35 -41l-193 -1552q-18 -141 -123.5 -215t-324.5 -74h-23q-43 0 -37 39l13 86q2 41 45 41h14q223 0 242 145l20 156l-389 864q-29 61 -57 156l-125 -1012 q-2 -41 -41 -41h-119q-39 0 -37 41z" />
<glyph unicode="&#x14b;" horiz-adv-x="1140" d="M156 41l118 975q6 41 43 41h115q39 0 37 -41l-4 -68q170 125 362 125q127 0 202 -64.5t75 -168.5q0 -18 -4 -47l-117 -938q-16 -141 -120.5 -215t-325.5 -74h-21q-41 0 -39 39l10 86q6 41 48 41h14q217 0 235 145l107 868q4 25 4 39q0 113 -143 113q-162 0 -303 -111 l-91 -745q-6 -41 -45 -41h-123q-40 0 -34 41z" />
<glyph unicode="&#x14c;" horiz-adv-x="1269" d="M182 268q0 12 6 51l99 818q41 330 518 329q231 0 343 -79.5t112 -208.5q0 -31 -3 -50l-100 -817q-41 -328 -520 -327q-233 0 -344 78.5t-111 205.5zM395 317q0 -158 258 -157q272 0 297 184l94 750l5 36q0 158 -258 158q-274 0 -299 -184l-91 -748q-6 -31 -6 -39z M539 1665l6 78q2 37 47 37h516q39 0 35 -35l-6 -80q-2 -39 -47 -39h-515q-38 0 -36 39z" />
<glyph unicode="&#x14d;" horiz-adv-x="1105" d="M156 238q0 25 2 36l61 508q37 291 459 291q195 0 295 -66.5t100 -187.5q0 -25 -2 -37l-61 -508q-37 -291 -457 -290q-197 0 -297 67.5t-100 186.5zM360 268q0 -119 209 -118q223 0 240 141l59 473v22q0 121 -206 121q-223 0 -240 -143l-60 -473q-2 -9 -2 -23zM410 1288 l8 78q2 37 47 37h514q39 0 37 -35l-8 -80q-2 -39 -47 -39h-517q-36 0 -34 39z" />
<glyph unicode="&#x14e;" horiz-adv-x="1269" d="M182 268q0 12 6 51l99 818q41 330 518 329q231 0 343 -79.5t112 -208.5q0 -31 -3 -50l-100 -817q-41 -328 -520 -327q-233 0 -344 78.5t-111 205.5zM395 317q0 -158 258 -157q272 0 297 184l94 750l5 36q0 158 -258 158q-274 0 -299 -184l-91 -748q-6 -31 -6 -39z M584 1774q0 25 2 43l4 38q2 33 41 33h76q20 0 27 -6t5 -27l-4 -38q-2 -14 -2 -27q0 -94 113 -94q72 0 99.5 31.5t35.5 97.5l6 30q4 33 39 33h76q37 0 31 -33l-5 -26q-23 -131 -86 -193.5t-204 -62.5q-123 0 -188.5 51.5t-65.5 149.5z" />
<glyph unicode="&#x14f;" horiz-adv-x="1105" d="M156 238q0 25 2 36l61 508q37 291 459 291q195 0 295 -66.5t100 -187.5q0 -25 -2 -37l-61 -508q-37 -291 -457 -290q-197 0 -297 67.5t-100 186.5zM360 268q0 -119 209 -118q223 0 240 141l59 473v22q0 121 -206 121q-223 0 -240 -143l-60 -473q-2 -9 -2 -23zM446 1376 q0 6 5 41l6 39q6 35 39 35h75q37 0 31 -35l-4 -43v-24q0 -92 113 -93q72 0 101.5 33t35.5 96l2 31q2 35 41 35h76q35 0 32 -35l-4 -24q-18 -131 -83.5 -194.5t-209.5 -63.5q-121 0 -188.5 52t-67.5 150z" />
<glyph unicode="&#x150;" horiz-adv-x="1269" d="M182 268q0 12 6 51l99 818q41 330 518 329q231 0 343 -79.5t112 -208.5q0 -31 -3 -50l-100 -817q-41 -328 -520 -327q-233 0 -344 78.5t-111 205.5zM395 317q0 -158 258 -157q272 0 297 184l94 750l5 36q0 158 -258 158q-274 0 -299 -184l-91 -748q-6 -31 -6 -39z M616 1604l132 225q23 41 61 41h109q33 0 32 -18q0 -9 -8 -23l-154 -225q-29 -39 -59 -39h-92q-28 0 -28 16q-1 10 7 23zM870 1604l164 225q29 41 68 41h110q29 0 29 -14q0 -10 -14 -27l-183 -227q-33 -37 -65 -37h-92q-27 0 -27 15q0 9 10 24z" />
<glyph unicode="&#x151;" horiz-adv-x="1105" d="M156 238q0 25 2 36l61 508q37 291 459 291q195 0 295 -66.5t100 -187.5q0 -25 -2 -37l-61 -508q-37 -291 -457 -290q-197 0 -297 67.5t-100 186.5zM360 268q0 -119 209 -118q223 0 240 141l59 473v22q0 121 -206 121q-223 0 -240 -143l-60 -473q-2 -9 -2 -23zM487 1241 l134 227q23 39 61 39h111q47 0 20 -39l-154 -227q-27 -37 -59 -37h-90q-29 0 -29 17q-1 8 6 20zM743 1241l164 227q29 39 66 39h110q29 0 30 -14q0 -9 -13 -25l-187 -229q-31 -35 -63 -35h-92q-26 0 -26 13q0 9 11 24z" />
<glyph unicode="&#x152;" horiz-adv-x="1841" d="M182 266q0 12 6 51l99 822q20 145 135 237t358 92q184 0 299 -71l2 10q6 41 45 41h729q39 0 37 -39l-14 -92q-2 -41 -45 -41h-557l-53 -436h520q43 0 35 -39l-11 -90q-2 -37 -45 -37h-520l-63 -502h581q43 0 37 -37l-10 -94q-6 -41 -45 -41h-752q-43 0 -37 41v8 q-117 -66 -280 -65q-231 0 -341 78.5t-110 203.5zM397 313q0 -158 256 -157q272 0 297 184l74 606l20 150l3 14v25q0 158 -256 157q-272 0 -297 -186l-93 -752q-4 -16 -4 -41z" />
<glyph unicode="&#x153;" horiz-adv-x="1705" d="M156 236q0 25 2 36l63 510q37 291 447 291q227 0 313 -98q109 98 332 98q190 0 283.5 -65.5t93.5 -184.5q0 -27 -2 -41l-33 -250q-6 -39 -41 -38h-582l-24 -211q-2 -14 -2 -27q0 -119 198 -119q213 0 230 137l4 35q6 41 47 41h104q41 0 33 -41l-6 -39 q-23 -141 -116 -213.5t-310 -72.5q-221 0 -313 84q-96 -84 -324 -84q-197 0 -297 66.5t-100 185.5zM362 266q0 -121 207 -121q223 0 240 144l59 477v22q0 123 -206 123q-221 0 -240 -145l-60 -477v-23zM1051 629h428l16 145q2 8 2 25q0 121 -199 121q-213 0 -229 -146z" />
<glyph unicode="&#x154;" horiz-adv-x="1263" d="M178 43l170 1362q6 43 43 43h422q233 0 344 -84t111 -217q0 -31 -2 -47l-25 -211q-25 -227 -285 -293l185 -553q8 -20 -5.5 -31.5t-33.5 -11.5h-131q-25 0 -41 43l-176 530h-299l-68 -530q-6 -43 -43 -43h-129q-41 0 -37 43zM475 750h264q279 0 301 174l17 141q2 14 2 39 q0 168 -252 168h-266zM682 1604l154 227q27 39 59 39h133q29 0 30 -15q0 -10 -14 -26l-190 -238q-16 -27 -55 -26h-103q-25 0 -25 14q1 10 11 25z" />
<glyph unicode="&#x155;" horiz-adv-x="757" d="M156 43l120 973q6 41 43 41h115q39 0 37 -41l-6 -92q168 147 348 147q45 0 39 -41l-12 -100q-6 -37 -47 -39q-188 -14 -347 -135l-86 -713q-6 -43 -45 -43h-125q-36 0 -35 33q0 4 1 10zM461 1241l155 229q27 37 58 37h135q29 0 29 -13q0 -9 -15 -26l-188 -239 q-16 -25 -55 -25h-103q-27 0 -26 14q0 9 10 23z" />
<glyph unicode="&#x156;" horiz-adv-x="1263" d="M178 43l170 1362q6 43 43 43h422q233 0 344 -84t111 -217q0 -31 -2 -47l-25 -211q-25 -227 -285 -293l185 -553q8 -20 -5.5 -31.5t-33.5 -11.5h-131q-25 0 -41 43l-176 530h-299l-68 -530q-6 -43 -43 -43h-129q-41 0 -37 43zM440 -434q45 76 61.5 115.5t24.5 109.5l9 62 q2 41 45 41h94q37 0 31 -41l-9 -72q-14 -121 -118 -264q-18 -22 -42 -23q-7 0 -14 2l-67 17q-24 5 -24 23q-1 13 9 30zM475 750h264q279 0 301 174l17 141q2 14 2 39q0 168 -252 168h-266z" />
<glyph unicode="&#x157;" horiz-adv-x="757" d="M53 -434q45 76 60.5 115.5t25.5 109.5l8 62q2 41 46 41h92q39 0 32 -41l-8 -72q-14 -121 -119 -264q-18 -22 -41 -23q-7 0 -14 2l-69 17q-22 5 -23 23q0 12 10 30zM156 43l120 973q6 41 43 41h115q39 0 37 -41l-6 -92q168 147 348 147q45 0 39 -41l-12 -100 q-6 -37 -47 -39q-188 -14 -347 -135l-86 -713q-6 -43 -45 -43h-125q-36 0 -35 33q0 4 1 10z" />
<glyph unicode="&#x158;" horiz-adv-x="1263" d="M178 43l170 1362q6 43 43 43h422q233 0 344 -84t111 -217q0 -31 -2 -47l-25 -211q-25 -227 -285 -293l185 -553q8 -20 -5.5 -31.5t-33.5 -11.5h-131q-25 0 -41 43l-176 530h-299l-68 -530q-6 -43 -43 -43h-129q-41 0 -37 43zM475 750h264q279 0 301 174l17 141q2 14 2 39 q0 168 -252 168h-266zM522 1858q8 12 29 12h96q27 0 49 -41l70 -139l104 139q29 41 64 41h96q23 0 28 -11q1 -3 1 -7q0 -10 -10 -23l-189 -225q-31 -39 -67 -39h-76q-33 0 -60 41l-133 223q-6 9 -5 17q-1 7 3 12z" />
<glyph unicode="&#x159;" horiz-adv-x="757" d="M156 43l120 973q6 41 43 41h115q39 0 37 -41l-6 -92q168 147 348 147q45 0 39 -41l-12 -100q-6 -37 -47 -39q-188 -14 -347 -135l-86 -713q-6 -43 -45 -43h-125q-36 0 -35 33q0 4 1 10zM299 1496q8 11 29 11h96q25 0 49 -39l70 -141l104 141q33 39 62 39h98q23 0 28 -11 q1 -3 1 -6q0 -10 -13 -22l-188 -227q-35 -37 -68 -37h-73q-33 0 -60 39l-133 225q-6 9 -6 17q0 6 4 11z" />
<glyph unicode="&#x15a;" horiz-adv-x="1208" d="M164 270q0 29 2 49l12 115q6 43 45 43h127q34 0 34 -32q0 -5 -1 -11l-10 -86q-2 -20 -2 -41q0 -152 254 -151q270 0 292 180l17 108q2 16 2 29q0 49 -41 79t-119 62l-303 121q-201 82 -201 252q0 25 2 43l13 107q14 96 56 164.5t151.5 116.5t285.5 48q227 0 329.5 -78.5 t102.5 -205.5q0 -27 -2 -45l-10 -93q-4 -41 -45 -40h-127q-39 0 -33 40l9 68q2 16 2 31q0 150 -240 149q-258 0 -279 -178l-6 -55q-2 -14 -2 -29q0 -41 22.5 -62.5t69.5 -41.5l363 -144q207 -84 207 -264q0 -33 -2 -49l-17 -158q-37 -328 -512 -327q-231 0 -338.5 79.5 t-107.5 206.5zM711 1604l153 227q29 39 60 39h135q29 0 29 -14q0 -10 -15 -27l-188 -238q-18 -27 -56 -26h-102q-26 0 -26 15q1 9 10 24z" />
<glyph unicode="&#x15b;" horiz-adv-x="995" d="M127 207q0 12 2 35l8 49q6 39 41 39h113q33 0 31 -39l-5 -39q-2 -16 -2 -29q0 -43 54.5 -67.5t148.5 -24.5q219 0 234 111l6 47q2 25 2 37q0 51 -101 88l-292 104q-154 53 -154 199q0 12 2 35l8 71q29 250 408 250q180 0 272 -66.5t92 -164.5q0 -12 -2 -37l-4 -45 q-2 -37 -43 -37h-112q-37 0 -33 37l4 37q2 14 2 34q0 94 -186 95q-197 0 -211 -105l-4 -30q-2 -20 -3 -25q0 -66 74 -90l309 -107q80 -29 123 -79t43 -109q0 -12 -4 -51l-10 -107q-12 -106 -116.5 -172.5t-311.5 -66.5q-188 0 -285.5 63.5t-97.5 159.5zM555 1241l156 229 q29 37 57 37h137q29 0 29 -13q0 -9 -14 -26l-189 -239q-18 -25 -55 -25h-103q-27 0 -27 15q0 9 9 22z" />
<glyph unicode="&#x15c;" horiz-adv-x="1208" d="M164 270q0 29 2 49l12 115q6 43 45 43h127q34 0 34 -32q0 -5 -1 -11l-10 -86q-2 -20 -2 -41q0 -152 254 -151q270 0 292 180l17 108q2 16 2 29q0 49 -41 79t-119 62l-303 121q-201 82 -201 252q0 25 2 43l13 107q14 96 56 164.5t151.5 116.5t285.5 48q227 0 329.5 -78.5 t102.5 -205.5q0 -27 -2 -45l-10 -93q-4 -41 -45 -40h-127q-39 0 -33 40l9 68q2 16 2 31q0 150 -240 149q-258 0 -279 -178l-6 -55q-2 -14 -2 -29q0 -41 22.5 -62.5t69.5 -41.5l363 -144q207 -84 207 -264q0 -33 -2 -49l-17 -158q-37 -328 -512 -327q-231 0 -338.5 79.5 t-107.5 206.5zM517 1577q-1 3 -1 7q0 9 10 20l187 225q35 41 69 41h74q33 0 57 -41l136 -225q6 -8 6 -17q0 -5 -3 -10q-7 -12 -30 -12h-94q-33 0 -54 39l-69 143l-105 -143q-25 -39 -59 -39h-98q-21 0 -26 12z" />
<glyph unicode="&#x15d;" horiz-adv-x="995" d="M127 207q0 12 2 35l8 49q6 39 41 39h113q33 0 31 -39l-5 -39q-2 -16 -2 -29q0 -43 54.5 -67.5t148.5 -24.5q219 0 234 111l6 47q2 25 2 37q0 51 -101 88l-292 104q-154 53 -154 199q0 12 2 35l8 71q29 250 408 250q180 0 272 -66.5t92 -164.5q0 -12 -2 -37l-4 -45 q-2 -37 -43 -37h-112q-37 0 -33 37l4 37q2 14 2 34q0 94 -186 95q-197 0 -211 -105l-4 -30q-2 -20 -3 -25q0 -66 74 -90l309 -107q80 -29 123 -79t43 -109q0 -12 -4 -51l-10 -107q-12 -106 -116.5 -172.5t-311.5 -66.5q-188 0 -285.5 63.5t-97.5 159.5zM366 1221q0 9 9 20 l188 227q33 39 70 39h74q33 0 57 -39l135 -227q6 -8 6 -15q0 -6 -4 -11q-8 -11 -31 -11h-92q-33 0 -51 37l-72 143l-104 -143q-25 -37 -62 -37h-98q-25 0 -25 17z" />
<glyph unicode="&#x15e;" horiz-adv-x="1208" d="M164 270q0 29 2 49l12 115q6 43 45 43h127q34 0 34 -32q0 -5 -1 -11l-10 -86q-2 -20 -2 -41q0 -152 254 -151q270 0 292 180l17 108q2 16 2 29q0 49 -41 79t-119 62l-303 121q-201 82 -201 252q0 25 2 43l13 107q14 96 56 164.5t151.5 116.5t285.5 48q227 0 329.5 -78.5 t102.5 -205.5q0 -27 -2 -45l-10 -93q-4 -41 -45 -40h-127q-39 0 -33 40l9 68q2 16 2 31q0 150 -240 149q-258 0 -279 -178l-6 -55q-2 -14 -2 -29q0 -41 22.5 -62.5t69.5 -41.5l363 -144q207 -84 207 -264q0 -33 -2 -49l-17 -158q-37 -317 -481 -327l-37 -95h74 q70 0 116 -39.5t46 -113.5q0 -94 -56.5 -139.5t-148.5 -45.5h-242q-35 0 -31 39l5 43q6 39 43 39h211q74 0 73 54q0 43 -61 43h-141q-52 0 -53 32q0 8 3 19l66 170q-180 16 -262 91.5t-82 188.5z" />
<glyph unicode="&#x15f;" horiz-adv-x="995" d="M127 207q0 12 2 35l8 49q6 39 41 39h113q33 0 31 -39l-5 -39q-2 -16 -2 -29q0 -43 54.5 -67.5t148.5 -24.5q219 0 234 111l6 47q2 25 2 37q0 51 -101 88l-292 104q-154 53 -154 199q0 12 2 35l8 71q29 250 408 250q180 0 272 -66.5t92 -164.5q0 -12 -2 -37l-4 -45 q-2 -37 -43 -37h-112q-37 0 -33 37l4 37q2 14 2 34q0 94 -186 95q-197 0 -211 -105l-4 -30q-2 -20 -3 -25q0 -66 74 -90l309 -107q80 -29 123 -79t43 -109q0 -12 -4 -51l-10 -107q-12 -104 -108.5 -168.5t-288.5 -68.5l-37 -97h74q70 0 115.5 -39.5t45.5 -113.5 q0 -94 -56 -139.5t-148 -45.5h-240q-37 0 -33 39l4 43q6 39 43 39h211q74 0 74 54q0 43 -62 43h-141q-52 0 -52 32q0 8 3 19l66 170q-139 14 -210 74.5t-71 142.5z" />
<glyph unicode="&#x160;" horiz-adv-x="1208" d="M164 270q0 29 2 49l12 115q6 43 45 43h127q34 0 34 -32q0 -5 -1 -11l-10 -86q-2 -20 -2 -41q0 -152 254 -151q270 0 292 180l17 108q2 16 2 29q0 49 -41 79t-119 62l-303 121q-201 82 -201 252q0 25 2 43l13 107q14 96 56 164.5t151.5 116.5t285.5 48q227 0 329.5 -78.5 t102.5 -205.5q0 -27 -2 -45l-10 -93q-4 -41 -45 -40h-127q-39 0 -33 40l9 68q2 16 2 31q0 150 -240 149q-258 0 -279 -178l-6 -55q-2 -14 -2 -29q0 -41 22.5 -62.5t69.5 -41.5l363 -144q207 -84 207 -264q0 -33 -2 -49l-17 -158q-37 -328 -512 -327q-231 0 -338.5 79.5 t-107.5 206.5zM543 1858q8 12 30 12h97q25 0 47 -41l71 -139l105 139q27 41 61 41h99q20 0 25 -11q1 -3 2 -7q0 -10 -11 -23l-186 -225q-33 -39 -70 -39h-74q-35 0 -59 41l-135 223q-6 9 -6 17q0 7 4 12z" />
<glyph unicode="&#x161;" horiz-adv-x="995" d="M127 207q0 12 2 35l8 49q6 39 41 39h113q33 0 31 -39l-5 -39q-2 -16 -2 -29q0 -43 54.5 -67.5t148.5 -24.5q219 0 234 111l6 47q2 25 2 37q0 51 -101 88l-292 104q-154 53 -154 199q0 12 2 35l8 71q29 250 408 250q180 0 272 -66.5t92 -164.5q0 -12 -2 -37l-4 -45 q-2 -37 -43 -37h-112q-37 0 -33 37l4 37q2 14 2 34q0 94 -186 95q-197 0 -211 -105l-4 -30q-2 -20 -3 -25q0 -66 74 -90l309 -107q80 -29 123 -79t43 -109q0 -12 -4 -51l-10 -107q-12 -106 -116.5 -172.5t-311.5 -66.5q-188 0 -285.5 63.5t-97.5 159.5zM386 1496q7 11 30 11 h96q25 0 49 -39l70 -141l104 141q31 39 62 39h98q20 0 26 -11q1 -3 1 -6q0 -9 -11 -22l-188 -227q-35 -37 -70 -37h-71q-35 0 -60 39l-135 225q-4 9 -4 16t3 12z" />
<glyph unicode="&#x162;" horiz-adv-x="1036" d="M193 1313l10 94q6 41 45 41h889q43 0 37 -41l-11 -94q-6 -41 -45 -41h-340l-153 -1229q-6 -43 -43 -43h-131q-36 0 -36 33q0 5 1 10l153 1229h-342q-36 0 -36 29q1 5 2 12zM313 -434q45 76 60.5 115.5t23.5 109.5l11 62q2 41 43 41h94q34 0 33 -31v-10l-9 -72 q-16 -121 -120 -264q-16 -22 -41 -23q-7 0 -15 2l-67 17q-23 5 -23 22q-1 13 10 31z" />
<glyph unicode="&#x163;" horiz-adv-x="753" d="M143 -434q45 76 60.5 115.5t23.5 109.5l9 62q2 41 45 41h94q39 0 33 -41l-11 -72q-14 -121 -118 -264q-16 -22 -41 -23q-7 0 -15 2l-67 17q-23 5 -23 22q-1 13 10 31zM158 928l8 76q2 37 45 40l117 9h2l28 215q6 43 45 43h123q36 0 36 -33q0 -5 -1 -10l-29 -215h222 q39 0 34 -39l-8 -88q-2 -39 -47 -39h-219l-72 -563q-2 -14 -2 -37q0 -115 199 -115h41q36 0 36 -32q0 -5 -1 -11l-8 -88q-2 -41 -48 -41h-69q-193 0 -275 58.5t-82 177.5q0 37 3 55l73 596h-116q-39 0 -35 41z" />
<glyph unicode="&#x164;" horiz-adv-x="1036" d="M193 1313l10 94q6 41 45 41h889q43 0 37 -41l-11 -94q-6 -41 -45 -41h-340l-153 -1229q-6 -43 -43 -43h-131q-36 0 -36 33q0 5 1 10l153 1229h-342q-36 0 -36 29q1 5 2 12zM460 1858q9 12 29 12h97q25 0 49 -41l70 -139l104 139q29 41 61 41h99q23 0 27 -11q1 -3 2 -7 q0 -10 -11 -23l-188 -225q-33 -39 -68 -39h-76q-33 0 -59 41l-133 223q-7 9 -7 17q0 7 4 12z" />
<glyph unicode="&#x165;" horiz-adv-x="798" d="M158 928l8 76q2 37 45 40l117 9h2l28 215q6 43 45 43h123q36 0 36 -33q0 -5 -1 -10l-29 -215h222q39 0 34 -39l-8 -88q-2 -39 -47 -39h-219l-72 -563q-2 -14 -2 -37q0 -115 199 -115h41q36 0 36 -32q0 -5 -1 -11l-8 -88q-2 -41 -48 -41h-69q-193 0 -275 58.5t-82 177.5 q0 37 3 55l73 596h-116q-39 0 -35 41zM655 1223q45 76 61.5 115.5t24.5 109.5l9 61q2 41 45 41h94q32 0 31 -30v-11l-9 -71q-14 -121 -118 -264q-18 -22 -44 -22q-6 0 -12 1l-67 16q-24 5 -24 24q-1 13 9 30z" />
<glyph unicode="&#x166;" horiz-adv-x="1036" d="M193 1313l10 94q6 41 45 41h889q43 0 37 -41l-11 -94q-6 -41 -45 -41h-340l-43 -342h275q43 0 37 -37l-11 -64q-2 -41 -41 -41h-280l-90 -745q-6 -43 -43 -43h-131q-36 0 -36 33q0 5 1 10l92 745h-264q-45 0 -39 41l8 64q2 37 45 37h268l43 342h-342q-36 0 -36 29 q1 5 2 12z" />
<glyph unicode="&#x167;" horiz-adv-x="753" d="M117 598l8 64q6 39 45 38h115l24 187h-116q-39 0 -35 41l8 76q2 37 45 40l117 9h2l28 215q6 43 45 43h123q36 0 36 -33q0 -5 -1 -10l-29 -215h222q39 0 34 -39l-8 -88q-2 -39 -47 -39h-219l-25 -187h222q43 0 37 -38l-9 -64q-2 -41 -43 -41h-225l-29 -233q-2 -14 -2 -37 q0 -115 199 -115h41q36 0 36 -32q0 -5 -1 -11l-8 -88q-2 -41 -48 -41h-69q-193 0 -275 58.5t-82 177.5q0 37 3 55l32 266h-112q-41 0 -39 41z" />
<glyph unicode="&#x168;" horiz-adv-x="1294" d="M195 272q0 23 4 56l133 1077q6 43 43 43h129q36 0 35 -33v-10l-127 -1030q-4 -51 -4 -58q0 -158 254 -157q276 0 299 184l133 1061q6 43 41 43h131q36 0 36 -30q0 -6 -2 -13l-135 -1094q-41 -328 -516 -327q-229 0 -341.5 80.5t-112.5 207.5zM504 1630l16 68 q37 170 185 170q66 0 129 -39l88 -60q49 -31 69 -30q25 0 35 15t18 63l3 16q6 37 47 37h65q32 0 32 -28q0 -8 -3 -19l-12 -64q-16 -86 -67.5 -129t-120 -43t-130.5 41l-92 60q-41 27 -64.5 26.5t-33 -12.5t-15.5 -47l-8 -37q-8 -35 -47 -35h-63q-33 0 -33 30q0 8 2 17z" />
<glyph unicode="&#x169;" horiz-adv-x="1128" d="M164 217q0 25 2 37l94 760q6 43 45 43h123q36 0 36 -33q0 -5 -1 -10l-88 -709q-2 -14 -2 -35q0 -106 143 -106q139 0 291 106l90 744q6 43 45 43h125q36 0 36 -33q0 -5 -1 -10l-123 -973q-6 -41 -43 -41h-115q-37 0 -35 41l5 63q-154 -121 -351 -120q-129 0 -202.5 63.5 t-73.5 169.5zM369 1253l14 68q39 170 186 170q66 0 127 -39l90 -59q49 -31 68 -31q27 0 37 15.5t16 62.5l2 16q6 37 47 37h66q33 0 33 -30q0 -8 -2 -17l-13 -64q-18 -86 -69 -129t-119 -43t-129 39l-92 62q-43 27 -66.5 26.5t-32 -12.5t-14.5 -47l-8 -37q-10 -35 -47 -35 h-66q-31 0 -30 30q0 7 2 17z" />
<glyph unicode="&#x16a;" horiz-adv-x="1294" d="M195 272q0 23 4 56l133 1077q6 43 43 43h129q36 0 35 -33v-10l-127 -1030q-4 -51 -4 -58q0 -158 254 -157q276 0 299 184l133 1061q6 43 41 43h131q36 0 36 -30q0 -6 -2 -13l-135 -1094q-41 -328 -516 -327q-229 0 -341.5 80.5t-112.5 207.5zM543 1665l6 78q2 37 47 37 h516q39 0 37 -35l-8 -80q-2 -39 -45 -39h-516q-39 0 -37 39z" />
<glyph unicode="&#x16b;" horiz-adv-x="1128" d="M164 217q0 25 2 37l94 760q6 43 45 43h123q36 0 36 -33q0 -5 -1 -10l-88 -709q-2 -14 -2 -35q0 -106 143 -106q139 0 291 106l90 744q6 43 45 43h125q36 0 36 -33q0 -5 -1 -10l-123 -973q-6 -41 -43 -41h-115q-37 0 -35 41l5 63q-154 -121 -351 -120q-129 0 -202.5 63.5 t-73.5 169.5zM403 1288l9 78q2 37 47 37h514q39 0 37 -35l-9 -80q-2 -39 -47 -39h-516q-37 0 -35 39z" />
<glyph unicode="&#x16c;" horiz-adv-x="1294" d="M195 272q0 23 4 56l133 1077q6 43 43 43h129q36 0 35 -33v-10l-127 -1030q-4 -51 -4 -58q0 -158 254 -157q276 0 299 184l133 1061q6 43 41 43h131q36 0 36 -30q0 -6 -2 -13l-135 -1094q-41 -328 -516 -327q-229 0 -341.5 80.5t-112.5 207.5zM582 1774q0 25 2 43l4 38 q2 33 41 33h76q20 0 27 -6t5 -27l-4 -38q-2 -14 -2 -27q0 -94 113 -94q72 0 99.5 31.5t35.5 97.5l4 30q6 33 41 33h76q37 0 30 -33l-4 -26q-23 -131 -86 -193.5t-204 -62.5q-123 0 -188.5 51.5t-65.5 149.5z" />
<glyph unicode="&#x16d;" horiz-adv-x="1128" d="M164 217q0 25 2 37l94 760q6 43 45 43h123q36 0 36 -33q0 -5 -1 -10l-88 -709q-2 -14 -2 -35q0 -106 143 -106q139 0 291 106l90 744q6 43 45 43h125q36 0 36 -33q0 -5 -1 -10l-123 -973q-6 -41 -43 -41h-115q-37 0 -35 41l5 63q-154 -121 -351 -120q-129 0 -202.5 63.5 t-73.5 169.5zM442 1376q0 6 4 41l5 39q8 35 41 35h75q37 0 31 -35l-4 -43v-24q0 -92 113 -93q72 0 101.5 33t35.5 96l2 31q2 35 41 35h76q35 0 32 -35l-4 -24q-18 -131 -83.5 -194.5t-209.5 -63.5q-121 0 -188.5 52t-67.5 150z" />
<glyph unicode="&#x16e;" horiz-adv-x="1294" d="M195 272q0 23 4 56l133 1077q6 43 43 43h129q36 0 35 -33v-10l-127 -1030q-4 -51 -4 -58q0 -158 254 -157q276 0 299 184l133 1061q6 43 41 43h131q36 0 36 -30q0 -6 -2 -13l-135 -1094q-41 -328 -516 -327q-229 0 -341.5 80.5t-112.5 207.5zM637 1651q0 31 2 45l6 51 q18 152 215 151q90 0 142.5 -35.5t52.5 -88.5q0 -4 -2 -27l-6 -72q-16 -147 -209 -147q-98 0 -149.5 34t-51.5 89zM750 1683q0 -55 88 -55t100 70l2 26v23q0 49 -88 49q-90 0 -100 -72l-2 -26v-15z" />
<glyph unicode="&#x16f;" horiz-adv-x="1128" d="M164 217q0 25 2 37l94 760q6 43 45 43h123q36 0 36 -33q0 -5 -1 -10l-88 -709q-2 -14 -2 -35q0 -106 143 -106q139 0 291 106l90 744q6 43 45 43h125q36 0 36 -33q0 -5 -1 -10l-123 -973q-6 -41 -43 -41h-115q-37 0 -35 41l5 63q-154 -121 -351 -120q-129 0 -202.5 63.5 t-73.5 169.5zM510 1294q0 31 2 45l6 52q18 152 215 151q88 0 140.5 -34.5t52.5 -88.5q0 -4 -2 -28l-6 -70q-14 -150 -209 -150q-98 0 -148.5 34t-50.5 89zM623 1327q0 -55 86 -55q90 0 100 69l2 29v21q0 49 -86 49q-90 0 -100 -70l-2 -29v-14z" />
<glyph unicode="&#x170;" horiz-adv-x="1294" d="M195 272q0 23 4 56l133 1077q6 43 43 43h129q36 0 35 -33v-10l-127 -1030q-4 -51 -4 -58q0 -158 254 -157q276 0 299 184l133 1061q6 43 41 43h131q36 0 36 -30q0 -6 -2 -13l-135 -1094q-41 -328 -516 -327q-229 0 -341.5 80.5t-112.5 207.5zM625 1604l131 225 q25 41 61 41h109q33 0 32 -18q0 -9 -8 -23l-153 -225q-29 -39 -60 -39h-92q-28 0 -28 16q0 10 8 23zM881 1604l163 225q27 41 66 41h111q29 0 28 -14q0 -10 -14 -27l-182 -227q-33 -37 -64 -37h-94q-26 0 -26 14q1 9 12 25z" />
<glyph unicode="&#x171;" horiz-adv-x="1128" d="M164 217q0 25 2 37l94 760q6 43 45 43h123q36 0 36 -33q0 -5 -1 -10l-88 -709q-2 -14 -2 -35q0 -106 143 -106q139 0 291 106l90 744q6 43 45 43h125q36 0 36 -33q0 -5 -1 -10l-123 -973q-6 -41 -43 -41h-115q-37 0 -35 41l5 63q-154 -121 -351 -120q-129 0 -202.5 63.5 t-73.5 169.5zM483 1241l133 227q23 39 62 39h110q47 0 21 -39l-154 -227q-27 -37 -59 -37h-92q-27 0 -27 17q-1 8 6 20zM739 1241l164 227q27 39 66 39h110q29 0 30 -14q0 -9 -13 -25l-187 -229q-33 -35 -63 -35h-92q-26 0 -26 13q0 9 11 24z" />
<glyph unicode="&#x172;" horiz-adv-x="1294" d="M195 272q0 23 4 56l133 1077q2 43 43 43h129q36 0 35 -33v-10l-127 -1030q-4 -51 -4 -58q0 -158 254 -157q276 0 299 184l133 1061q2 43 41 43h131q37 0 34 -43l-135 -1094q-16 -133 -92 -200q-10 -8 -41 -36t-46 -44.5t-36.5 -43t-30 -56t-8.5 -62.5q0 -41 23.5 -57.5 t79.5 -16.5h63q23 0 33 -9t8 -30l-6 -59q-2 -39 -53 -39h-105q-82 0 -139 39t-57 129q0 92 53 170q-74 -12 -162 -12q-229 0 -341.5 80.5t-112.5 207.5z" />
<glyph unicode="&#x173;" horiz-adv-x="1128" d="M164 217q0 25 2 37l94 760q6 43 45 43h123q36 0 36 -33q0 -5 -1 -10l-88 -709q-2 -14 -2 -35q0 -106 143 -106q139 0 291 106l90 744q6 43 45 43h125q36 0 36 -33q0 -5 -1 -10l-123 -973q-6 -41 -43 -41h-10q-43 0 -83 -43t-40 -88q0 -74 102 -74h23q23 0 33 -9t8 -30 l-6 -59q-2 -39 -52 -39h-63q-84 0 -141.5 41t-57.5 131q0 150 142 229v45q-154 -121 -351 -120q-129 0 -202.5 63.5t-73.5 169.5z" />
<glyph unicode="&#x174;" horiz-adv-x="1738" d="M213 1407q-6 41 37 41h131q35 0 41 -41l115 -885q12 -115 12 -166l57 166l336 885q12 41 53 41h121q37 0 43 -41l113 -885q12 -96 12 -188l6 24q6 23 15 50l18 59q10 33 18 55l332 885q18 41 53 41h119q28 0 29 -22q0 -8 -4 -19l-514 -1366q-14 -41 -56 -41h-126 q-37 0 -44 41l-114 903q-10 84 -10 168q-2 -4 -10.5 -36t-20.5 -72l-19 -62l-340 -901q-16 -41 -53 -41h-129q-39 0 -45 41zM790 1577q-1 3 -2 7q0 9 11 20l188 225q33 41 68 41h73q33 0 58 -41l135 -225q6 -8 6 -17q0 -5 -3 -10q-7 -12 -30 -12h-92q-35 0 -53 39l-72 143 l-104 -143q-25 -39 -60 -39h-98q-20 0 -25 12z" />
<glyph unicode="&#x175;" horiz-adv-x="1449" d="M145 1014q-6 43 43 43h119q33 0 41 -43l92 -662q8 -66 9 -90q2 14 32 90l267 662q16 43 49 43h125q37 0 41 -43l84 -662l8 -94q0 2 11 36l19 58l261 662q18 43 49 43h104q37 0 37 -24q0 -8 -4 -19l-397 -975q-14 -39 -48 -39h-145q-33 0 -39 39l-82 629q-8 72 -8 102 l-37 -102l-258 -629q-16 -39 -47 -39h-145q-18 0 -24.5 7t-12.5 32zM591 1221q0 9 9 20l188 227q33 39 70 39h76q31 0 57 -39l133 -227q6 -8 6 -15q0 -6 -4 -11q-8 -11 -28 -11h-94q-33 0 -52 37l-69 143l-105 -143q-27 -37 -63 -37h-97q-27 0 -27 17z" />
<glyph unicode="&#x176;" horiz-adv-x="1126" d="M211 1407q-4 10 -4 17q0 24 39 24h143q35 0 45 -41l199 -561q8 -29 20 -96q27 66 45 96l351 561q25 41 53 41h133q33 0 33 -18q0 -9 -8 -23l-521 -832l-65 -534q-6 -41 -43 -41h-131q-41 0 -35 41l61 510zM484 1577q-1 3 -1 7q0 9 11 20l188 225q33 41 68 41h73 q33 0 60 -41l133 -225q6 -8 6 -17q0 -5 -3 -10q-7 -12 -28 -12h-94q-35 0 -53 39l-70 143l-104 -143q-27 -39 -62 -39h-96q-23 0 -28 12z" />
<glyph unicode="&#x177;" horiz-adv-x="958" d="M156 1014q-4 18 8 30.5t35 12.5h123q31 0 40 -43l130 -617q18 -94 18 -145q14 57 55 141l285 621q18 43 51 43h115q40 0 39 -24q0 -8 -4 -19l-656 -1407q-20 -41 -47 -41h-96q-38 0 -38 22q0 8 5 19l166 377zM347 1215q-1 3 -1 7q0 9 10 19l187 227q35 39 71 39h74 q33 0 57 -39l136 -227q5 -8 5 -14t-4 -12q-9 -11 -30 -11h-94q-31 0 -51 37l-70 143l-105 -143q-25 -37 -61 -37h-98q-21 0 -26 11z" />
<glyph unicode="&#x178;" horiz-adv-x="1126" d="M211 1407q-4 10 -4 17q0 24 39 24h143q35 0 45 -41l199 -561q8 -29 20 -96q27 66 45 96l351 561q25 41 53 41h133q33 0 33 -18q0 -9 -8 -23l-521 -832l-65 -534q-6 -41 -43 -41h-131q-41 0 -35 41l61 510zM539 1614l24 203q6 43 45 43h74q34 0 34 -30q0 -6 -1 -13 l-25 -203q-6 -39 -43 -39h-74q-40 0 -34 39zM797 1614l22 203q8 43 45 43h76q20 0 27.5 -9.5t5.5 -33.5l-25 -203q-6 -39 -43 -39h-74q-40 0 -34 39z" />
<glyph unicode="&#x179;" horiz-adv-x="1064" d="M96 41l13 96q2 18 16 39l735 1096h-534q-43 0 -37 41l14 94q6 41 45 41h750q41 0 35 -41l-11 -94q-2 -18 -18 -41l-735 -1096h606q43 0 37 -37l-13 -98q-6 -41 -43 -41h-821q-45 0 -39 41zM639 1604l154 227q27 39 59 39h135q28 0 28 -14q0 -10 -14 -27l-190 -238 q-16 -27 -55 -26h-103q-24 0 -24 14q0 10 10 25z" />
<glyph unicode="&#x17a;" horiz-adv-x="960" d="M92 41l10 86q4 25 21 45l577 717h-434q-43 0 -37 39l13 88q6 41 45 41h641q43 0 37 -39l-11 -88q-4 -20 -20 -41l-582 -723h502q43 0 37 -39l-10 -86q-8 -41 -47 -41h-709q-34 0 -34 31q0 4 1 10zM524 1241l156 229q27 37 57 37h135q29 0 30 -14q0 -9 -13 -25l-191 -239 q-16 -25 -55 -25h-102q-27 0 -27 14q0 9 10 23z" />
<glyph unicode="&#x17b;" horiz-adv-x="1064" d="M96 41l13 96q2 18 16 39l735 1096h-534q-43 0 -37 41l14 94q6 41 45 41h750q41 0 35 -41l-11 -94q-2 -18 -18 -41l-735 -1096h606q43 0 37 -37l-13 -98q-6 -41 -43 -41h-821q-45 0 -39 41zM627 1616l20 172q4 39 43 39h129q39 0 33 -39l-18 -172q-6 -37 -43 -37h-129 q-41 0 -35 37z" />
<glyph unicode="&#x17c;" horiz-adv-x="960" d="M92 41l10 86q4 25 21 45l577 717h-434q-43 0 -37 39l13 88q6 41 45 41h641q43 0 37 -39l-11 -88q-4 -20 -20 -41l-582 -723h502q43 0 37 -39l-10 -86q-8 -41 -47 -41h-709q-34 0 -34 31q0 4 1 10z" />
<glyph unicode="&#x17d;" horiz-adv-x="1064" d="M96 41l13 96q2 18 16 39l735 1096h-534q-43 0 -37 41l14 94q6 41 45 41h750q41 0 35 -41l-11 -94q-2 -18 -18 -41l-735 -1096h606q43 0 37 -37l-13 -98q-6 -41 -43 -41h-821q-45 0 -39 41zM487 1858q8 12 31 12h96q25 0 48 -41l71 -139l105 139q27 41 61 41h98 q20 0 26 -11q1 -3 1 -7q0 -10 -10 -23l-187 -225q-33 -39 -69 -39h-74q-35 0 -59 41l-136 223q-6 9 -5 17q-1 7 3 12z" />
<glyph unicode="&#x17e;" horiz-adv-x="960" d="M92 41l10 86q4 25 21 45l577 717h-434q-43 0 -37 39l13 88q6 41 45 41h641q43 0 37 -39l-11 -88q-4 -20 -20 -41l-582 -723h502q43 0 37 -39l-10 -86q-8 -41 -47 -41h-709q-34 0 -34 31q0 4 1 10zM364 1496q7 11 27 11h96q27 0 50 -39l69 -141l105 141q33 39 63 39h96 q23 0 28 -11q1 -3 1 -6q0 -9 -10 -22l-191 -227q-35 -37 -67 -37h-74q-33 0 -59 39l-133 225q-4 9 -5 16q1 7 4 12z" />
<glyph unicode="&#x17f;" horiz-adv-x="708" d="M172 930l8 74q8 39 45 40l113 9h14l21 155q39 289 450 289h23q43 0 37 -41l-13 -84q-6 -41 -47 -41h-14q-219 0 -236 -145l-196 -1579q-6 -41 -43 -41h-123q-43 0 -37 41l160 1284h-125q-43 0 -37 39z" />
<glyph unicode="&#x192;" horiz-adv-x="1196" d="M57 -414l11 88q2 43 45 43h30q219 0 252 142l211 878h-166q-35 0 -32 41l8 84q2 41 45 41h182l74 314q70 291 465 290h41q39 0 37 -39l-13 -90q-6 -43 -45 -43h-33q-217 0 -251 -141l-72 -291h182q43 0 37 -41l-10 -84q-6 -41 -45 -41h-201l-213 -899q-68 -293 -467 -293 h-37q-41 0 -35 41z" />
<glyph unicode="&#x1fa;" horiz-adv-x="1144" d="M47 41l580 1366q18 41 55 41h131q39 0 45 -41l248 -1366q6 -41 -35 -41h-131q-39 0 -45 41l-57 330h-451l-139 -330q-18 -41 -51 -41h-125q-29 0 -30 21q0 8 5 20zM457 537h354l-70 387q-8 41 -13 119.5t-7 136.5v59q0 -2 -19 -65l-39 -136q-22 -72 -38 -110zM553 1651 q0 31 2 45l8 51q14 117 144 145l79 123q23 39 60 39h133q29 0 29 -15q0 -10 -13 -26l-106 -135q82 -33 82 -104q0 -4 -2 -27l-6 -72q-14 -147 -209 -147q-98 0 -149.5 34t-51.5 89zM668 1683q0 -55 86 -55q90 0 100 70l2 26v23q0 49 -88 49t-98 -72l-2 -26v-15z" />
<glyph unicode="&#x1fb;" d="M156 223q0 14 4 49l63 512q37 289 330 289q201 0 346 -127l12 68q8 43 45 43h113q36 0 36 -33q0 -5 -1 -10l-121 -971q-6 -43 -43 -43h-117q-33 0 -32 43l4 63q-178 -123 -365 -122q-133 0 -203.5 63t-70.5 176zM362 272q0 -109 146 -108q139 0 301 108l63 510 q-129 111 -274 111q-158 0 -176 -139l-57 -451q-3 -13 -3 -31zM516 1294q0 31 2 45l6 52q14 121 156 147l117 170q27 39 57 39h137q29 0 29 -14q0 -10 -14 -27l-148 -184q76 -37 76 -103q0 -4 -4 -28l-6 -70q-14 -150 -209 -150q-96 0 -147.5 34t-51.5 89zM629 1327 q0 -55 86 -55q90 0 100 69l2 29v21q0 49 -86 49q-90 0 -100 -70l-2 -29v-14z" />
<glyph unicode="&#x1fc;" horiz-adv-x="1781" d="M46 10q-3 4 -3 10q0 9 6 21l971 1366q31 41 67 41h715q43 0 37 -39l-14 -90q-6 -41 -45 -41h-557l-56 -440h523q43 0 34 -39l-10 -86q-6 -39 -45 -39h-520l-64 -504h582q45 0 39 -39l-12 -90q-6 -41 -45 -41h-738q-47 0 -41 43l41 328h-426l-229 -330q-33 -41 -55 -41 h-127q-21 0 -28 10zM604 537h330l70 575q-14 -27 -89 -135zM1143 1604l153 227q29 39 60 39h135q29 0 29 -14q0 -10 -15 -27l-188 -238q-18 -27 -55 -26h-103q-26 0 -25 15q0 9 9 24z" />
<glyph unicode="&#x1fd;" horiz-adv-x="1675" d="M141 207q0 14 2 35l13 112q12 102 96 174t229 72h334l23 164q4 31 4 37q0 119 -193 119q-115 0 -165 -33t-60 -103l-4 -30q-6 -43 -45 -43h-109q-41 0 -37 43l4 32q20 141 116.5 214t312.5 73q211 0 292 -102q106 102 328 102q375 0 375 -252q0 -27 -2 -39l-29 -260 q-4 -39 -43 -39h-579l-27 -192q0 -6 -1 -11.5t-2 -9.5t-1 -7v-5q0 -117 201 -117q115 0 165 34t62 101l6 35q8 41 45 41h104q37 0 35 -41l-4 -41q-14 -139 -110.5 -212.5t-315.5 -73.5q-285 0 -358 139q-174 -139 -371 -139q-119 0 -205 56t-86 167zM342 258q0 -63 36 -87 t103 -24q133 0 295 117l23 178h-301q-133 0 -148 -120l-6 -39zM909 1241l156 229q29 37 57 37h138q29 0 28 -13q0 -9 -14 -26l-191 -239q-16 -25 -55 -25h-102q-26 0 -26 15q0 8 9 22zM1018 635h428l20 139v23q0 119 -196 118q-211 0 -234 -141z" />
<glyph unicode="&#x1fe;" horiz-adv-x="1269" d="M182 266q0 12 6 51l99 818q41 328 518 327q168 0 278 -45l33 53q23 41 55 41h52q37 0 10 -41l-64 -104q90 -76 91 -190q0 -33 -3 -50l-100 -817q-41 -328 -520 -327q-168 0 -279 43l-30 -48q-29 -45 -58 -45h-51q-10 0 -14 6.5t-2 16.5t8 22l59 99q-88 73 -88 190z M395 315q0 -20 2 -30l584 962q-63 39 -190 39q-274 0 -299 -184l-91 -748q-6 -31 -6 -39zM461 197q63 -39 192 -39q272 0 297 184l94 748q4 31 5 38q0 23 -2 31zM754 1604l153 227q29 39 60 39h135q29 0 29 -14q0 -10 -15 -27l-190 -238q-16 -27 -56 -26h-102q-24 0 -24 14 q0 10 10 25z" />
<glyph unicode="&#x1ff;" horiz-adv-x="1105" d="M156 238q0 25 2 36l61 508q37 291 459 291q129 0 225 -33l31 43q27 43 53 43h49q39 0 11 -43l-60 -86q86 -70 86 -178q0 -25 -2 -37l-61 -508q-37 -291 -457 -290q-133 0 -229 32l-27 -39q-31 -43 -59 -43h-45q-35 0 -11 43l60 84q-86 64 -86 177zM360 268q0 -18 2 -26 l437 645q-49 20 -138 20q-223 0 -239 -143l-60 -473q-2 -9 -2 -23zM426 168q51 -18 143 -18q223 0 240 141l57 459q4 31 4 36q0 12 -4 33zM610 1241l156 229q29 37 57 37h138q29 0 28 -13q0 -9 -14 -26l-189 -239q-18 -25 -55 -25h-102q-27 0 -28 15q0 9 9 22z" />
<glyph unicode="&#x218;" horiz-adv-x="1208" d="M164 270q0 29 2 49l12 115q6 43 45 43h127q34 0 34 -32q0 -5 -1 -11l-10 -86q-2 -20 -2 -41q0 -152 254 -151q270 0 292 180l17 108q2 16 2 29q0 49 -41 79t-119 62l-303 121q-201 82 -201 252q0 25 2 43l13 107q14 96 56 164.5t151.5 116.5t285.5 48q227 0 329.5 -78.5 t102.5 -205.5q0 -27 -2 -45l-10 -93q-4 -41 -45 -40h-127q-39 0 -33 40l9 68q2 16 2 31q0 150 -240 149q-258 0 -279 -178l-6 -55q-2 -14 -2 -29q0 -41 22.5 -62.5t69.5 -41.5l363 -144q207 -84 207 -264q0 -33 -2 -49l-17 -158q-37 -328 -512 -327q-231 0 -338.5 79.5 t-107.5 206.5zM430 -434q45 76 61.5 115.5t24.5 109.5l8 62q2 41 45 41h93q34 0 33 -31q0 -5 -1 -10l-8 -72q-14 -121 -119 -264q-18 -22 -41 -23q-7 0 -14 2l-70 17q-22 5 -22 23q0 12 10 30z" />
<glyph unicode="&#x219;" horiz-adv-x="995" d="M127 207q0 12 2 35l8 49q6 39 41 39h113q33 0 31 -39l-5 -39q-2 -16 -2 -29q0 -43 54.5 -67.5t148.5 -24.5q219 0 234 111l6 47q2 25 2 37q0 51 -101 88l-292 104q-154 53 -154 199q0 12 2 35l8 71q29 250 408 250q180 0 272 -66.5t92 -164.5q0 -12 -2 -37l-4 -45 q-2 -37 -43 -37h-112q-37 0 -33 37l4 37q2 14 2 34q0 94 -186 95q-197 0 -211 -105l-4 -30q-2 -20 -3 -25q0 -66 74 -90l309 -107q80 -29 123 -79t43 -109q0 -12 -4 -51l-10 -107q-12 -106 -116.5 -172.5t-311.5 -66.5q-188 0 -285.5 63.5t-97.5 159.5zM330 -432 q45 76 61.5 116t24.5 109l8 62q2 41 45 41h94q32 0 32 -31q0 -5 -1 -10l-8 -72q-14 -121 -119 -264q-18 -22 -41 -23q-7 0 -14 2l-70 17q-22 5 -22 23q0 12 10 30z" />
<glyph unicode="&#x237;" horiz-adv-x="501" d="M-174 -395l10 86q6 41 47 41h15q217 0 233 145l141 1137q6 43 45 43h123q36 0 36 -33q0 -5 -1 -10l-143 -1159q-18 -141 -123 -215t-324 -74h-24q-41 0 -35 39z" />
<glyph unicode="&#x2c6;" horiz-adv-x="745" d="M251 1221q0 9 9 20l186 227q35 39 72 39h74q33 0 57 -39l135 -227q6 -8 6 -15q0 -6 -4 -11q-8 -11 -30 -11h-94q-31 0 -52 37l-69 143l-105 -143q-25 -37 -61 -37h-99q-25 0 -25 17z" />
<glyph unicode="&#x2c7;" horiz-adv-x="745" d="M289 1468q-4 8 -4 15t4 13q8 11 28 11h97q25 0 49 -39l69 -141l105 141q33 39 61 39h99q20 0 26 -11q2 -3 2 -6q0 -9 -12 -22l-188 -227q-35 -37 -70 -37h-72q-35 0 -59 39z" />
<glyph unicode="&#x2d8;" horiz-adv-x="866" d="M244 1376q0 6 4 41l4 39q6 35 39 35h76q39 0 30 -35l-4 -43v-24q0 -92 115 -93q70 0 99.5 33t35.5 96l2 31q2 35 41 35h76q35 0 33 -35l-4 -24q-16 -131 -83 -194.5t-210 -63.5q-121 0 -187.5 52t-66.5 150z" />
<glyph unicode="&#x2d9;" horiz-adv-x="518" d="M313 1272l19 168q2 41 45 41h131q32 0 32 -30q0 -5 -1 -11l-19 -168q-6 -41 -45 -41h-127q-41 0 -35 41z" />
<glyph unicode="&#x2da;" horiz-adv-x="778" d="M354 1294q0 31 2 45l6 52q18 152 216 151q90 0 141 -34.5t51 -88.5q0 -4 -2 -28l-6 -70q-14 -150 -209 -150q-96 0 -147.5 34t-51.5 89zM467 1327q0 -55 86 -55q90 0 100 69l2 29v21q0 49 -86 49q-90 0 -100 -70l-2 -29v-14z" />
<glyph unicode="&#x2db;" horiz-adv-x="487" d="M20 -223q0 158 152 284q27 20 44 21q7 0 13 -4l66 -33q37 -23 8 -49q-70 -66 -87 -98.5t-17 -71.5q0 -49 65 -49h101q43 0 38 -39l-12 -74q-6 -41 -47 -41h-143q-76 0 -128.5 41t-52.5 113z" />
<glyph unicode="&#x2dc;" horiz-adv-x="884" d="M262 1253l14 68q39 170 187 170q66 0 127 -39l90 -59q49 -31 68 -31q27 0 37 15.5t16 62.5l2 16q6 37 47 37h65q33 0 33 -30q0 -8 -2 -17l-12 -64q-18 -86 -69.5 -129t-119 -43t-129.5 39l-92 62q-43 27 -66.5 26.5t-31.5 -12.5t-14 -47l-9 -37q-10 -35 -47 -35h-65 q-31 0 -31 30q0 7 2 17z" />
<glyph unicode="&#x2dd;" horiz-adv-x="813" d="M264 1241l131 227q25 39 64 39h110q47 0 21 -39l-154 -227q-27 -37 -59 -37h-92q-27 0 -28 17q0 8 7 20zM520 1241l164 227q27 39 66 39h110q29 0 29 -13q0 -9 -15 -26l-184 -229q-33 -35 -63 -35h-92q-26 0 -26 13q0 9 11 24z" />
<glyph unicode="&#x394;" horiz-adv-x="825" d="M180 496v362q0 49 51 49h363q49 0 49 -49v-362q0 -51 -49 -52h-363q-51 1 -51 52z" />
<glyph unicode="&#x3a9;" horiz-adv-x="825" d="M141 675.5q0 112.5 80 192.5t191 80q113 0 192.5 -80t79.5 -192q0 -111 -80 -190.5t-192.5 -79.5t-191.5 78.5t-79 191zM178 676q0 -98 67.5 -166t166.5 -68q96 0 163.5 68t67.5 166q0 94 -67.5 162.5t-163.5 68.5q-98 0 -166 -68.5t-68 -162.5z" />
<glyph unicode="&#x3bc;" horiz-adv-x="1128" d="M90 -393l174 1407q6 43 45 43h121q43 0 37 -43l-86 -695q-4 -47 -4 -51q0 -111 142.5 -110.5t289.5 108.5l92 748q6 43 45 43h123q36 0 36 -33q0 -5 -1 -10l-121 -973q-6 -41 -43 -41h-117q-35 0 -32 41l4 65q-162 -123 -349 -122q-90 0 -114 53l-41 -430q-2 -41 -41 -41 h-127q-34 0 -34 30q0 5 1 11z" />
<glyph unicode="&#x3c0;" horiz-adv-x="825" d="M108 906q0 11 5 20q6 12 24 12h547q16 0 24 -11q6 -10 6 -23v-4q-1 -15 -12 -34l-256 -411q-12 -23 -34.5 -23t-34.5 23l-256 411q-13 21 -13 40z" />
<glyph unicode="&#x1e80;" horiz-adv-x="1738" d="M213 1407q-6 41 37 41h131q35 0 41 -41l115 -885q12 -115 12 -166l57 166l336 885q12 41 53 41h121q37 0 43 -41l113 -885q12 -96 12 -188l6 24q6 23 15 50l18 59q10 33 18 55l332 885q18 41 53 41h119q28 0 29 -22q0 -8 -4 -19l-514 -1366q-14 -41 -56 -41h-126 q-37 0 -44 41l-114 903q-10 84 -10 168q-2 -4 -10.5 -36t-20.5 -72l-19 -62l-340 -901q-16 -41 -53 -41h-129q-39 0 -45 41zM819 1858q8 12 29 12h127q35 0 51 -39l98 -227q5 -11 5 -19q0 -20 -29 -20h-96q-37 0 -50 26l-133 238q-6 9 -5 17q-1 7 3 12z" />
<glyph unicode="&#x1e81;" horiz-adv-x="1449" d="M150 1014q-6 43 43 43h118q33 0 41 -43l92 -662q10 -66 11 -90q2 14 30 90l267 662q16 43 49 43h125q37 0 41 -43l84 -662l8 -94q0 2 11 36l20 58l260 662q18 43 49 43h104q37 0 37 -24q0 -8 -4 -19l-397 -975q-14 -39 -45 -39h-148q-33 0 -39 39l-80 629q-10 72 -10 102 l-37 -102l-258 -629q-14 -39 -47 -39h-145q-18 0 -24.5 7t-10.5 32zM626 1495q7 12 27 12h129q35 0 52 -37l94 -229q5 -11 4 -18q0 -19 -29 -19h-94q-35 0 -49 25l-133 239q-4 8 -5 15q1 6 4 12z" />
<glyph unicode="&#x1e82;" horiz-adv-x="1738" d="M213 1407q-6 41 37 41h131q35 0 41 -41l115 -885q12 -115 12 -166l57 166l336 885q12 41 53 41h121q37 0 43 -41l113 -885q12 -96 12 -188l6 24q6 23 15 50l18 59q10 33 18 55l332 885q18 41 53 41h119q28 0 29 -22q0 -8 -4 -19l-514 -1366q-14 -41 -56 -41h-126 q-37 0 -44 41l-114 903q-10 84 -10 168q-2 -4 -10.5 -36t-20.5 -72l-19 -62l-340 -901q-16 -41 -53 -41h-129q-39 0 -45 41zM993 1604l154 227q27 39 59 39h133q29 0 29 -14q0 -10 -14 -27l-189 -238q-16 -27 -55 -26h-102q-25 0 -25 14q0 10 10 25z" />
<glyph unicode="&#x1e83;" horiz-adv-x="1449" d="M150 1014q-6 43 43 43h118q33 0 41 -43l92 -662q10 -66 11 -90q2 14 30 90l267 662q16 43 49 43h125q37 0 41 -43l84 -662l8 -94q0 2 11 36l20 58l260 662q18 43 49 43h104q37 0 37 -24q0 -8 -4 -19l-397 -975q-14 -39 -45 -39h-148q-33 0 -39 39l-80 629q-10 72 -10 102 l-37 -102l-258 -629q-14 -39 -47 -39h-145q-18 0 -24.5 7t-10.5 32zM797 1241l155 229q27 37 58 37h137q28 0 28 -13q0 -9 -14 -26l-190 -239q-16 -25 -56 -25h-102q-27 0 -27 14q1 9 11 23z" />
<glyph unicode="&#x1e84;" horiz-adv-x="1738" d="M213 1407q-6 41 37 41h131q35 0 41 -41l115 -885q12 -115 12 -166l57 166l336 885q12 41 53 41h121q37 0 43 -41l113 -885q12 -96 12 -188l6 24q6 23 15 50l18 59q10 33 18 55l332 885q18 41 53 41h119q28 0 29 -22q0 -8 -4 -19l-514 -1366q-14 -41 -56 -41h-126 q-37 0 -44 41l-114 903q-10 84 -10 168q-2 -4 -10.5 -36t-20.5 -72l-19 -62l-340 -901q-16 -41 -53 -41h-129q-39 0 -45 41zM852 1614l22 203q8 43 48 43h73q34 0 34 -32q0 -5 -1 -11l-24 -203q-6 -39 -43 -39h-74q-41 0 -35 39zM1110 1614l23 203q6 43 45 43h75 q20 0 27.5 -9.5t5.5 -33.5l-24 -203q-6 -39 -43 -39h-76q-39 0 -33 39z" />
<glyph unicode="&#x1e85;" horiz-adv-x="1449" d="M150 1014q-6 43 43 43h118q33 0 41 -43l92 -662q10 -66 11 -90q2 14 30 90l267 662q16 43 49 43h125q37 0 41 -43l84 -662l8 -94q0 2 11 36l20 58l260 662q18 43 49 43h104q37 0 37 -24q0 -8 -4 -19l-397 -975q-14 -39 -45 -39h-148q-33 0 -39 39l-80 629q-10 72 -10 102 l-37 -102l-258 -629q-14 -39 -47 -39h-145q-18 0 -24.5 7t-10.5 32zM657 1257l25 201q6 41 47 41h72q41 0 35 -41l-27 -201q-6 -41 -43 -40h-74q-41 -1 -35 40zM915 1257l25 201q6 41 43 41h76q41 0 35 -41l-27 -201q-6 -41 -45 -40h-72q-41 -1 -35 40z" />
<glyph unicode="&#x1ef2;" horiz-adv-x="1126" d="M211 1407q-4 10 -4 17q0 24 39 24h143q35 0 45 -41l199 -561q8 -29 20 -96q27 66 45 96l351 561q25 41 53 41h133q33 0 33 -18q0 -9 -8 -23l-521 -832l-65 -534q-6 -41 -43 -41h-131q-41 0 -35 41l61 510zM517 1858q7 12 28 12h129q33 0 51 -39l96 -227q6 -12 6 -20 q0 -19 -30 -19h-97q-37 0 -49 26l-131 238q-6 10 -6 18q0 6 3 11z" />
<glyph unicode="&#x1ef3;" horiz-adv-x="958" d="M156 1014q-4 18 8 30.5t35 12.5h123q31 0 40 -43l130 -617q18 -94 18 -145q14 57 55 141l285 621q18 43 51 43h115q40 0 39 -24q0 -8 -4 -19l-656 -1407q-20 -41 -47 -41h-96q-38 0 -38 22q0 8 5 19l166 377zM373 1468q-5 11 -5 19q0 20 33 20h127q37 0 52 -37l96 -229 q4 -10 4 -17q0 -20 -31 -20h-94q-35 0 -47 25z" />
<glyph unicode="&#x2000;" horiz-adv-x="1026" />
<glyph unicode="&#x2001;" horiz-adv-x="2052" />
<glyph unicode="&#x2002;" horiz-adv-x="1026" />
<glyph unicode="&#x2003;" horiz-adv-x="2052" />
<glyph unicode="&#x2004;" horiz-adv-x="684" />
<glyph unicode="&#x2005;" horiz-adv-x="512" />
<glyph unicode="&#x2006;" horiz-adv-x="342" />
<glyph unicode="&#x2007;" horiz-adv-x="342" />
<glyph unicode="&#x2008;" horiz-adv-x="256" />
<glyph unicode="&#x2009;" horiz-adv-x="409" />
<glyph unicode="&#x200a;" horiz-adv-x="112" />
<glyph unicode="&#x2010;" horiz-adv-x="952" d="M217 571v88q0 39 41 39h571q39 0 39 -39v-88q0 -39 -39 -39h-571q-41 0 -41 39z" />
<glyph unicode="&#x2011;" horiz-adv-x="952" d="M217 571v88q0 39 41 39h571q39 0 39 -39v-88q0 -39 -39 -39h-571q-41 0 -41 39z" />
<glyph unicode="&#x2012;" horiz-adv-x="952" d="M217 571v88q0 39 41 39h571q39 0 39 -39v-88q0 -39 -39 -39h-571q-41 0 -41 39z" />
<glyph unicode="&#x2013;" horiz-adv-x="1150" d="M217 571v88q0 39 41 39h768q41 0 41 -39v-88q0 -39 -41 -39h-768q-41 0 -41 39z" />
<glyph unicode="&#x2014;" horiz-adv-x="1810" d="M217 571v88q0 39 41 39h1430q39 0 38 -39v-88q0 -39 -38 -39h-1430q-41 0 -41 39z" />
<glyph unicode="&#x2018;" horiz-adv-x="548" d="M291 1143l20 147q27 219 287 285q7 2 14 1q27 0 33 -28l23 -88q1 -6 1 -10q0 -27 -36 -41q-59 -23 -85 -52.5t-32 -76.5l-18 -137q-6 -39 -43 -39h-129q-41 0 -35 39z" />
<glyph unicode="&#x2019;" horiz-adv-x="548" d="M223 1217q-1 6 -1 11q0 28 36 40q59 23 85 52.5t32 76.5l16 137q6 41 45 41h129q34 0 34 -31q0 -5 -1 -10l-18 -148q-29 -219 -289 -282q-7 -2 -14 -2q-25 0 -31 26z" />
<glyph unicode="&#x201a;" horiz-adv-x="548" d="M53 -106q-1 6 -1 11q0 28 36 40q59 23 85 53.5t32 75.5l16 137q6 41 45 41h127q41 0 35 -41l-18 -148q-29 -219 -289 -282q-7 -2 -14 -2q-25 0 -33 26z" />
<glyph unicode="&#x201c;" horiz-adv-x="937" d="M291 1143l20 147q27 219 287 285q7 2 14 1q27 0 33 -28l23 -88q1 -6 1 -10q0 -27 -36 -41q-59 -23 -85 -52.5t-32 -76.5l-18 -137q-6 -39 -43 -39h-129q-41 0 -35 39zM682 1143l18 147q29 219 289 285q7 2 13 1q25 0 32 -28l23 -88q1 -6 1 -10q0 -27 -36 -41 q-59 -23 -85 -52.5t-32 -76.5l-16 -137q-6 -39 -45 -39h-129q-39 0 -33 39z" />
<glyph unicode="&#x201d;" horiz-adv-x="937" d="M223 1217q-1 6 -1 11q0 28 36 40q59 23 85 52.5t32 76.5l16 137q6 41 45 41h129q39 0 33 -41l-18 -148q-29 -219 -289 -282q-7 -2 -14 -2q-25 0 -31 26zM614 1217q-2 7 -2 13q0 26 35 38q59 23 85 52.5t32 76.5l18 137q6 41 45 41h127q41 0 35 -41l-20 -148 q-27 -219 -287 -282q-8 -2 -14 -2q-26 0 -33 26z" />
<glyph unicode="&#x201e;" horiz-adv-x="937" d="M53 -106q-1 6 -1 11q0 28 36 40q59 23 85 53.5t32 75.5l16 137q6 41 45 41h127q41 0 35 -41l-18 -148q-29 -219 -289 -282q-7 -2 -14 -2q-25 0 -33 26zM442 -106q-1 6 -1 11q0 28 36 40q59 23 85 53.5t32 75.5l16 137q8 41 45 41h129q34 0 34 -31q0 -5 -1 -10l-18 -148 q-29 -219 -287 -282q-8 -2 -14 -2q-26 0 -33 26z" />
<glyph unicode="&#x2020;" horiz-adv-x="1320" d="M289 950l12 92q6 37 43 37h254q39 0 37 -37l-8 -92q-2 -41 -45 -41h-256q-43 0 -37 41zM565 43l170 1403q6 43 47 43h123q36 0 36 -33q0 -5 -1 -10l-174 -1403q-6 -43 -43 -43h-125q-34 0 -34 30q0 6 1 13zM930 950l10 92q2 37 43 37h256q43 0 37 -37l-10 -92 q-6 -41 -45 -41h-254q-20 0 -29.5 8t-7.5 33z" />
<glyph unicode="&#x2021;" horiz-adv-x="1320" d="M227 446l9 91q8 41 47 41h254q43 0 36 -41l-10 -91q-8 -41 -45 -40h-254q-39 -1 -37 40zM289 950l12 92q2 37 43 37h254q39 0 37 -37l-8 -92q-2 -41 -45 -41h-256q-43 0 -37 41zM565 43l170 1403q6 43 47 43h123q36 0 36 -33q0 -5 -1 -10l-174 -1403q-6 -43 -43 -43h-125 q-34 0 -34 30q0 6 1 13zM866 446l11 91q8 41 45 41h256q43 0 36 -41l-10 -91q-8 -41 -45 -40h-256q-43 -1 -37 40zM930 950l10 92q2 37 43 37h256q43 0 37 -37l-10 -92q-6 -41 -45 -41h-254q-20 0 -29.5 8t-7.5 33z" />
<glyph unicode="&#x2022;" horiz-adv-x="552" d="M225 422l37 291q6 41 45 41h127q37 0 35 -41l-37 -291q-6 -41 -45 -41h-127q-41 0 -35 41z" />
<glyph unicode="&#x2026;" horiz-adv-x="1550" d="M150 41l18 170q2 41 45 41h129q39 0 33 -41l-21 -170q-6 -41 -43 -41h-129q-34 0 -33 31q0 4 1 10zM678 41l18 170q2 41 45 41h129q39 0 33 -41l-20 -170q-8 -41 -43 -41h-129q-34 0 -34 31q0 4 1 10zM1204 41l19 170q2 41 45 41h129q34 0 33 -31v-10l-23 -170 q-6 -41 -41 -41h-129q-34 0 -34 28q0 6 1 13z" />
<glyph unicode="&#x202f;" horiz-adv-x="409" />
<glyph unicode="&#x2030;" horiz-adv-x="2463" d="M283 991q0 12 4 37l26 215q12 106 88 162.5t240 56.5q143 0 215 -48t72 -134q0 -27 -2 -43l-27 -215q-12 -106 -88 -161.5t-238 -55.5q-290 0 -290 186zM444 43l828 1362q27 43 63 43h115q20 0 23.5 -12.5t-7.5 -30.5l-829 -1362q-23 -43 -62 -43h-114q-14 0 -20 7 q-4 6 -4 14q0 12 7 22zM455 1016q0 -74 131 -74q139 0 147 88l21 187q4 29 4 36q0 72 -129 72q-137 0 -148 -86l-22 -186q0 -8 -1 -16.5t-2 -13.5t-1 -7zM979 166q0 12 4 39l27 215q12 106 88 162.5t239 56.5q143 0 216 -49t73 -133q0 -29 -4 -43l-27 -215 q-12 -106 -87.5 -161.5t-237.5 -55.5q-291 0 -291 184zM1151 193q0 -76 131 -76q137 0 148 90l20 184q4 31 4 37q0 72 -129 72q-137 0 -147 -84l-23 -189q0 -8 -1 -15t-2 -12t-1 -7zM1708 166q0 12 4 39l27 215q12 106 88 162.5t239 56.5q141 0 214 -49t73 -133 q0 -29 -2 -43l-27 -215q-14 -106 -88.5 -161.5t-236.5 -55.5q-291 0 -291 184zM1878 193q0 -76 133 -76q135 0 148 90l20 184q4 31 4 37q0 72 -129 72q-137 0 -147 -84l-25 -189q0 -8 -1 -15t-2 -12t-1 -7z" />
<glyph unicode="&#x2039;" horiz-adv-x="825" d="M195 461l14 125q4 31 43 55l428 289q9 8 18 8q5 0 10 -3q13 -7 9 -28l-17 -131q-6 -37 -47 -63l-293 -193l244 -196q39 -33 35 -62l-16 -123q-2 -23 -17 -29q-5 -3 -10 -3q-9 0 -16 8l-357 293q-30 22 -28 53z" />
<glyph unicode="&#x203a;" horiz-adv-x="825" d="M195 139l16 131q6 37 47 62l293 194l-244 197q-39 31 -35 61l17 123q2 20 16 29q5 3 10 3q9 0 17 -9l356 -291q33 -23 29 -53l-15 -125q-4 -31 -43 -55l-428 -291q-9 -6 -17 -7q-5 0 -9 3q-12 5 -10 28z" />
<glyph unicode="&#x2044;" horiz-adv-x="944" d="M53 43l828 1362q27 43 63 43h115q18 0 21 -12q1 -3 1 -6q0 -11 -8 -25l-827 -1362q-25 -43 -64 -43h-114q-12 0 -18 7q-4 6 -4 14q0 12 7 22z" />
<glyph unicode="&#x205f;" horiz-adv-x="512" />
<glyph unicode="&#x20ac;" horiz-adv-x="1277" d="M188 561l7 53q6 37 47 37h112l17 144h-113q-43 0 -37 41l6 53q2 37 45 37h113l29 211q41 330 504 329q231 0 334.5 -77.5t103.5 -206.5q0 -14 -4 -54l-11 -96q-6 -41 -43 -41h-124q-41 0 -35 41l10 64q2 12 2 39q0 154 -246 153q-265 0 -287 -184l-24 -178h252 q41 0 39 -37l-8 -53q-6 -41 -46 -41h-251l-17 -144h250q39 0 37 -37l-6 -53q-6 -41 -47 -41h-252l-19 -164q-2 -16 -2 -41q0 -156 242 -155q268 0 291 184l10 100q2 41 45 41h123q39 0 35 -41l-15 -133q-37 -328 -507 -327q-229 0 -334 78.5t-105 203.5q0 14 4 53l23 201 h-113q-39 0 -35 41z" />
<glyph unicode="&#x2113;" horiz-adv-x="1157" d="M90 485q-4 10 -4 20q0 24 29 34q170 68 235 100l62 491q16 145 115.5 235.5t289.5 90.5q182 0 263 -78t81 -198q0 -37 -2 -56q-10 -98 -67.5 -186t-151.5 -162t-185 -126t-214 -111l-23 -195q-4 -33 -4 -41q0 -137 191 -137h221q43 0 37 -39l-11 -86q-6 -41 -45 -41h-223 q-377 0 -377 258v21l19 159l-72 -31q-35 -15 -59.5 -24.5t-26.5 -9.5q-39 -14 -49 18zM565 739q375 199 400 379q2 10 2 39q0 133 -160 133q-94 0 -138 -47t-59 -137z" />
<glyph unicode="&#x2122;" horiz-adv-x="1927" d="M287 1337l12 80q2 31 37 31h579q35 0 33 -31l-10 -80q-2 -31 -39 -30h-205l-84 -693q-2 -35 -35 -34h-108q-33 0 -31 34l86 693h-203q-18 0 -26 6t-6 24zM948 614l99 801q2 33 36 33h95q23 0 28 -18l172 -467l19 -64q12 29 33 62l282 471q10 16 35 16h102q31 0 29 -33 l-100 -801q-2 -35 -35 -34h-101q-33 0 -30 34l63 514q-18 -45 -26 -59l-189 -326q-16 -33 -47 -32h-74q-31 0 -43 32l-112 330q-6 23 -10 62l-66 -521q-2 -35 -35 -34h-96q-31 -1 -29 34z" />
<glyph unicode="&#x2126;" horiz-adv-x="825" d="M141 675.5q0 112.5 80 192.5t191 80q113 0 192.5 -80t79.5 -192q0 -111 -80 -190.5t-192.5 -79.5t-191.5 78.5t-79 191zM178 676q0 -98 67.5 -166t166.5 -68q96 0 163.5 68t67.5 166q0 94 -67.5 162.5t-163.5 68.5q-98 0 -166 -68.5t-68 -162.5z" />
<glyph unicode="&#x212e;" horiz-adv-x="1773" d="M221 725q0 305 217 523t525 218q305 0 522 -218t217 -523q0 -35 -39 -35h-1190v-424q195 -221 490 -221q299 0 516 236q10 10 22 10q27 0 27 -29q0 -14 -17 -35q-96 -113 -241.5 -178t-306.5 -65q-311 0 -526.5 212t-215.5 529zM473 745h979v431q-88 104 -217 165.5 t-272 61.5q-293 0 -490 -223v-435z" />
<glyph unicode="&#x2202;" horiz-adv-x="825" d="M182 408v546q0 25 23.5 30t48.5 -11l416 -258q18 -12 18 -34t-18 -34l-416 -256q-25 -14 -48.5 -12t-23.5 29z" />
<glyph unicode="&#x2206;" horiz-adv-x="825" d="M180 496v362q0 49 51 49h363q49 0 49 -49v-362q0 -51 -49 -52h-363q-51 1 -51 52z" />
<glyph unicode="&#x220f;" horiz-adv-x="825" d="M123 496l256 413q12 20 33.5 20.5t33.5 -20.5l256 -413q10 -14 13 -31q1 -4 0 -8q0 -11 -4 -20q-6 -11 -23 -11h-547q-18 0 -25 10q-6 8 -6 20q0 20 13 40z" />
<glyph unicode="&#x2211;" horiz-adv-x="825" d="M137 680.5q0 21.5 21 34.5l413 258q14 10 31 13q4 1 8 1q11 0 20 -7q11 -9 11 -26v-546q0 -27 -25 -29h-6q-21 0 -39 12l-413 256q-21 12 -21 33.5z" />
<glyph unicode="&#x2212;" horiz-adv-x="1245" d="M229 659v91q0 41 41 41h863q41 0 41 -41v-91q0 -41 -41 -41h-863q-41 0 -41 41z" />
<glyph unicode="&#x221a;" horiz-adv-x="825" d="M162 496v362q0 37 16.5 52.5t52.5 15.5h363q37 0 52.5 -15.5t15.5 -52.5v-362q0 -37 -15.5 -53.5t-52.5 -16.5h-363q-37 0 -53 16.5t-16 53.5zM201 496q0 -31 30 -31h363q31 0 31 31v362q0 29 -31 29h-363q-31 0 -30 -29v-362z" />
<glyph unicode="&#x221e;" horiz-adv-x="825" d="M82 678q0 20 24 47l259 256q25 27 49 27t49 -27l254 -256q27 -27 26 -47q0 -25 -26 -49l-254 -258q-25 -27 -49.5 -27t-48.5 27l-259 258q-24 24 -24 49zM125 675q0 -11 10 -20l256 -258q12 -10 23 -10q8 0 18 10l258 258q10 12 10 21q0 10 -10 20l-258 258q-8 8 -18 9 q-12 0 -23 -9l-254 -258q-12 -10 -12 -21z" />
<glyph unicode="&#x222b;" horiz-adv-x="825" d="M55 676q0 145 104.5 250.5t251 105.5t252 -105.5t105.5 -252t-105.5 -251t-250.5 -104.5q-150 0 -253.5 103.5t-103.5 253.5z" />
<glyph unicode="&#x2248;" horiz-adv-x="1050" d="M209 369l6 75q8 94 56 140.5t110 46.5q51 0 102 -25l193 -88q63 -31 90 -31q10 0 16 1t10.5 5.5t6.5 7.5t4 12t3 14t2 19.5t3 22.5l2 15q4 37 43 37h66q37 0 34 -48l-6 -77q-10 -98 -56 -142.5t-103 -44.5q-63 0 -119 27l-197 92q-43 23 -74 23q-29 0 -36 -14.5 t-11 -59.5l-2 -19q-2 -37 -45 -36h-63q-39 0 -35 47zM209 735l6 76q8 94 56 140t110 46q51 0 102 -24l193 -88q63 -31 90 -31q10 0 16 1t10.5 5t6.5 7t4 12.5l3 14.5t2 18.5t3 23.5l2 14q4 37 43 37h66q37 0 34 -47l-6 -78q-10 -98 -56 -142t-103 -44q-63 0 -119 26l-197 93 q-43 23 -74 22q-29 0 -36 -14.5t-11 -59.5l-2 -18q-2 -37 -45 -37h-63q-39 0 -35 47z" />
<glyph unicode="&#x2260;" horiz-adv-x="1245" d="M203 449v92q0 39 41 39h288l91 233h-379q-41 0 -41 41v92q0 37 41 37h442l51 135q16 43 51 43h117q32 0 32 -25q0 -8 -3 -18l-51 -135h223q41 0 41 -37v-92q0 -41 -41 -41h-289l-88 -233h377q41 0 41 -39v-92q0 -39 -41 -39h-442l-50 -136q-16 -41 -53 -41h-119 q-37 0 -24 41l51 136h-225q-41 0 -41 39z" />
<glyph unicode="&#x2264;" horiz-adv-x="1132" d="M178 242v86q0 39 41 39h750q41 0 41 -39v-86q0 -41 -41 -41h-750q-41 0 -41 41zM178 811v139q0 29 37 45l754 291q9 3 16 3q25 0 25 -40v-121q0 -31 -41 -45l-592 -200l592 -203q41 -12 41 -45v-121q0 -40 -25 -40q-7 0 -16 3l-754 291q-37 16 -37 43z" />
<glyph unicode="&#x2265;" horiz-adv-x="1132" d="M176 236v92q0 41 41 41h750q41 0 41 -41v-92q0 -39 -41 -39h-750q-41 0 -41 39zM176 514v123q0 35 41 47l592 199l-592 198q-41 14 -41 47v125q0 41 24 41q7 0 17 -4l754 -289q37 -14 37 -47v-143q0 -29 -37 -45l-754 -291q-9 -3 -15 -3q-26 0 -26 42z" />
<glyph unicode="&#x25ca;" horiz-adv-x="825" d="M102 678q0 14 19 33l258 258q16 18 35 18q12 0 32 -18l259 -258q18 -20 18 -33q0 -18 -18 -35l-259 -258q-18 -18 -32 -18q-18 0 -35 18l-258 258q-19 17 -19 35z" />
<glyph unicode="&#xe000;" horiz-adv-x="1055" d="M0 1055h1055v-1055h-1055v1055z" />
<glyph horiz-adv-x="0" />
<glyph horiz-adv-x="452" d="M90 -78q45 76 60.5 115t23.5 110l8 62q2 41 45 41h95q34 0 33 -31q0 -5 -1 -10l-10 -72q-14 -123 -119 -264q-17 -24 -43 -24q-6 0 -12 1l-68 19q-23 5 -23 23q0 12 11 30z" />
<glyph horiz-adv-x="450" d="M43 1604l154 227q27 39 59 39h133q29 0 30 -15q0 -10 -13 -26l-191 -238q-16 -27 -55 -26h-103q-25 0 -24 14q0 10 10 25z" />
<glyph horiz-adv-x="450" d="M-76 1665l6 78q2 37 47 37h515q39 0 36 -35l-6 -80q-2 -39 -47 -39h-516q-37 0 -35 39z" />
<glyph horiz-adv-x="450" d="M-53 1774q0 25 2 43l4 38q2 33 41 33h76q20 0 27 -6t5 -27l-4 -38q-2 -14 -2 -27q0 -94 113 -94q72 0 99.5 31.5t35.5 97.5l6 30q4 33 39 33h76q37 0 31 -33l-4 -26q-23 -131 -86.5 -193.5t-204.5 -62.5q-123 0 -188.5 51.5t-65.5 149.5z" />
<glyph horiz-adv-x="450" d="M-43 1858q8 12 31 12h96q25 0 47 -41l72 -139l104 139q27 41 62 41h98q20 0 26 -11q1 -3 1 -7q0 -10 -11 -23l-186 -225q-33 -39 -70 -39h-73q-35 0 -60 41l-135 223q-6 9 -6 17q0 7 4 12z" />
<glyph horiz-adv-x="450" d="M16 1651q0 31 2 45l7 51q20 152 217 151q88 0 140 -35.5t52 -88.5q0 -4 -2 -27l-6 -72q-14 -147 -209 -147q-98 0 -149.5 34t-51.5 89zM129 1683q0 -55 88 -55q90 0 100 70l2 26v23q0 49 -88 49t-100 -72l-2 -26v-15z" />
<glyph horiz-adv-x="450" d="M-44 1577q-1 3 -1 7q0 9 10 20l189 225q35 41 67 41h76q31 0 57 -41l133 -225q6 -8 6 -17q0 -5 -3 -10q-7 -12 -27 -12h-94q-35 0 -54 39l-69 143l-105 -143q-27 -39 -59 -39h-98q-23 0 -28 12z" />
<glyph horiz-adv-x="450" d="M-115 1630l15 68q39 170 186 170q68 0 127 -39l90 -60q47 -31 68 -30q25 0 36 15t17 63l2 16q6 37 47 37h66q33 0 32 -30q0 -8 -2 -17l-14 -64q-16 -86 -67.5 -129t-119 -43t-130.5 41l-91 60q-41 27 -65.5 26.5t-32.5 -12.5t-14 -47l-10 -37q-8 -35 -45 -35h-66 q-31 0 -31 30q0 7 2 17z" />
<glyph horiz-adv-x="450" d="M8 1614l25 203q6 43 45 43h74q34 0 34 -30q0 -6 -2 -13l-24 -203q-6 -39 -43 -39h-74q-41 0 -35 39zM266 1614l23 203q8 43 45 43h76q20 0 27 -9.5t5 -33.5l-24 -203q-6 -39 -43 -39h-74q-41 0 -35 39z" />
<glyph horiz-adv-x="450" d="M113 1616l22 172q4 39 41 39h131q32 0 32 -29q0 -5 -1 -10l-19 -172q-6 -37 -43 -37h-126q-43 0 -37 37z" />
<glyph horiz-adv-x="450" d="M74 1858q8 12 28 12h127q35 0 52 -39l98 -227q5 -11 5 -19q0 -20 -30 -20h-96q-37 0 -49 26l-133 238q-6 9 -6 17q0 7 4 12z" />
<glyph horiz-adv-x="450" d="M-84 1604l133 225q23 41 62 41h108q33 0 33 -18q0 -9 -8 -23l-154 -225q-29 -39 -59 -39h-92q-29 0 -30 18q0 8 7 21zM172 1604l164 225q29 41 67 41h111q29 0 29 -14q0 -10 -15 -27l-184 -227q-31 -37 -63 -37h-93q-27 0 -26 15q0 9 10 24z" />
<glyph horiz-adv-x="3155" d="M147 539q0 57 39 101t109 44q39 0 62.5 -20.5t23.5 -45.5q0 -51 -53 -69q-33 -12 -95 -12q4 -47 56 -48q37 0 69 21q16 -12 17 -35q0 -8 -5 -18.5t-30 -20.5t-66 -10q-59 0 -93 31t-34 82zM156 0v16h2848v-16h-2848zM156 1126v17h2848v-17h-2848zM231 563q80 0 80 43 q0 29 -28 29q-42 0 -52 -72zM414 668q51 16 67 16q23 0 23 -20v-84l17 40q9 22 31.5 43t47.5 21q61 0 62 -68v-36q31 104 96 104q59 0 59 -68v-104l6 -70q-49 -16 -65 -16q-23 0 -23 16v142q0 35 -18 34q-12 0 -33.5 -37.5t-21.5 -64.5l6 -74q-51 -16 -68 -16q-23 0 -22 16 v142q0 35 -16.5 34.5t-37 -38t-20.5 -64.5l8 -74q-51 -16 -70 -16q-23 0 -22 16v148zM807 702v9q0 43 27 43h34l-6 63q51 18 68 19q25 0 24 -19v-61h101v-6q0 -45 -27 -45h-74v-183q0 -35 27 -35q20 0 41.5 17.5t21.5 38.5v53l-8 72q51 16 70 16q23 0 22 -20v-140 q0 -33 15 -32q18 0 38.5 37.5t18.5 64.5l-6 74q51 16 68 16q23 0 22 -20v-209l53 6v129l-6 78q51 16 68 16q25 0 24 -20v-84q35 102 101 102q35 0 59.5 -28.5t24.5 -80.5q0 -145 -185 -145v-86l7 -68q-51 -16 -68 -16q-25 0 -25 16v160l-53 -6v-6q0 -168 -145 -168 q-43 0 -64.5 22.5t-21.5 49.5q0 78 149 112v90q-37 -102 -98 -102q-59 0 -60 66v6q-41 -70 -114 -70q-61 0 -62 64v215zM1112 344q0 -29 29 -29q53 0 59 99q-88 -21 -88 -70zM1423 467q96 12 97 108q0 43 -29 43t-48.5 -39.5t-19.5 -62.5v-49zM1636 539q0 57 39 101t107 44 q41 0 64.5 -20.5t23.5 -45.5q0 -51 -53 -69q-35 -12 -95 -12q4 -47 56 -48q37 0 69 21q16 -12 17 -35q0 -8 -5.5 -18.5t-30 -20.5t-65.5 -10q-59 0 -93 31t-34 82zM1720 563q80 0 80 43q0 29 -28 29q-44 0 -52 -72zM1903 481.5q0 20.5 14 35.5t37.5 15t40 -15t16.5 -35.5 t-16.5 -35t-40 -14.5t-37.5 14.5t-14 35zM2040 668q51 16 69 16q23 0 23 -20v-84q37 104 96 104q61 0 62 -68v-104l4 -70q-51 -16 -66 -16q-25 0 -24 16v144q0 33 -17 32q-14 0 -34.5 -37.5t-20.5 -64.5l6 -74q-51 -16 -67 -16q-25 0 -25 16v148zM2324 539q0 57 39 101 t107 44q41 0 64.5 -20.5t23.5 -45.5q0 -51 -53 -69q-35 -12 -95 -12q4 -47 56 -48q37 0 69 21q16 -12 17 -35q0 -8 -5 -18.5t-30 -20.5t-66 -10q-59 0 -93 31t-34 82zM2408 563q80 0 80 43q0 29 -28 29q-44 0 -52 -72zM2531 702v9q0 43 25 43h37l-6 63q51 18 67 19 q23 0 23 -19v-61h100v-6q0 -45 -24 -45h-76v-191q0 -33 35 -33q23 0 82 11.5t98 11.5q37 0 85 -12.5t48 -36.5q0 -31 -20.5 -46.5t-36.5 -15.5q-4 0 -56.5 25.5t-95.5 25.5q-14 0 -67.5 -8t-94.5 -8t-49 26.5t-10 139.5q0 68 -2 113z" />
</font>
</defs>
</svg>
