<?xml version="1.0" standalone="no"?>
<!DOCTYPE svg PUBLIC "-//W3C//DTD SVG 1.1//EN" "http://www.w3.org/Graphics/SVG/1.1/DTD/svg11.dtd" >
<svg xmlns="http://www.w3.org/2000/svg">
<metadata>
This is a custom SVG webfont generated by Font Squirrel.
Copyright   : Copyright c 2009 by Eduardo Manso All rights reserved
Designer    : Eduardo Manso
Foundry     : Eduardo Manso
Foundry URL : httpwwwemtypenet
</metadata>
<defs>
<font id="GeogrotesqueBoldItalic" horiz-adv-x="1165" >
<font-face units-per-em="2048" ascent="1536" descent="-512" />
<missing-glyph horiz-adv-x="382" />
<glyph unicode="&#xfb00;" horiz-adv-x="1433" d="M137 856l17 131q4 31 19 44t48 18l107 12h2l12 104q43 332 514 332h35q58 0 58 -48q0 -6 -1 -13l-20 -152q-8 -63 -72 -63h-22q-143 0 -154 -95l-8 -65h323l13 104q43 332 514 332h32q58 0 59 -48q0 -6 -1 -13l-19 -152q-8 -63 -71 -63h-25q-143 0 -154 -95l-8 -65h152 q58 0 58 -47q0 -6 -1 -13l-18 -145q-10 -61 -72 -61h-151l-142 -1155q-8 -63 -65 -64h-222q-56 0 -56 50q0 6 1 14l144 1155h-324l-143 -1155q-8 -63 -66 -64h-219q-56 0 -56 50q0 6 1 14l143 1155h-106q-57 0 -57 46q0 7 1 15z" />
<glyph unicode="&#xfb01;" horiz-adv-x="1312" d="M137 856l15 131q2 31 17 44t52 18l105 12h2l12 96q20 158 144 245t360 87h481q56 0 56 -48q0 -6 -1 -14l-16 -151q-10 -63 -74 -64h-459q-143 0 -153 -94l-8 -57h602q58 0 58 -47q0 -6 -1 -13l-115 -938q-8 -63 -67 -63h-221q-54 0 -55 49q0 7 1 14l91 732h-326 l-143 -1155q-8 -63 -66 -64h-219q-56 0 -56 50q0 6 1 14l143 1155h-107q-35 0 -47 13q-8 9 -8 27q0 9 2 21z" />
<glyph unicode="&#xfb02;" horiz-adv-x="1312" d="M137 856l15 131q4 31 18 44t51 18l105 12h2l12 96q20 158 144 245t360 87h481q56 0 56 -48q0 -6 -1 -14l-166 -1364q-8 -63 -67 -63h-221q-54 0 -55 49q0 7 1 14l142 1149h-183q-143 0 -153 -94l-8 -57h149q35 0 48.5 -13.5t9.5 -46.5l-17 -145q-8 -61 -72 -61h-151 l-143 -1155q-8 -63 -66 -64h-219q-56 0 -56 50q0 6 1 14l143 1155h-107q-35 0 -47 13q-8 9 -8 27q0 9 2 21z" />
<glyph unicode="&#xfb03;" horiz-adv-x="1980" d="M137 856l17 131q4 31 19 44t48 18l107 12h2l12 104q43 332 514 332h35q58 0 58 -48q0 -6 -1 -13l-20 -152q-8 -63 -72 -63h-22q-143 0 -154 -95l-8 -65h323l13 96q18 158 143 245t358 87h482q57 0 56 -46q0 -7 -1 -16l-16 -151q-8 -63 -72 -64h-461q-143 0 -154 -94 l-8 -57h602q59 0 59 -45q0 -7 -1 -15l-115 -938q-8 -63 -68 -63h-219q-54 0 -54 49q0 7 1 14l90 732h-327l-142 -1155q-8 -63 -65 -64h-222q-56 0 -56 50q0 6 1 14l144 1155h-324l-143 -1155q-8 -63 -66 -64h-219q-56 0 -56 50q0 6 1 14l143 1155h-106q-57 0 -57 46 q0 7 1 15z" />
<glyph unicode="&#xfb04;" horiz-adv-x="1980" d="M135 856l17 131q4 31 18 44t49 18l107 12h2l12 104q43 332 514 332h35q58 0 58 -48q0 -6 -1 -13l-20 -152q-8 -63 -72 -63h-23q-143 0 -153 -95l-8 -65h325l13 96q18 158 143 245t358 87h482q57 0 56 -46q0 -7 -1 -16l-166 -1364q-8 -63 -68 -63h-219q-54 0 -54 49 q0 7 1 14l141 1149h-184q-143 0 -154 -94l-8 -57h152q35 0 47 -13.5t10 -46.5l-16 -145q-8 -61 -74 -61h-151l-142 -1155q-8 -63 -65 -64h-221q-56 0 -57 50q0 6 1 14l144 1155h-326l-143 -1155q-8 -63 -66 -64h-219q-56 0 -56 50q0 6 1 14l143 1155h-107q-57 0 -56 46 q0 7 1 15z" />
<glyph unicode=" "  horiz-adv-x="382" />
<glyph unicode="&#x09;" horiz-adv-x="382" />
<glyph unicode="&#xa0;" horiz-adv-x="382" />
<glyph unicode="!" horiz-adv-x="612" d="M135 61l21 177q8 66 69 65h232q33 0 44 -15.5t7 -49.5l-23 -177q-4 -33 -19 -47t-46 -14h-230q-57 0 -56 46q0 7 1 15zM221 469l10 362l68 553q8 63 70 64h231q35 0 45 -14q7 -10 7 -31q0 -8 -1 -19l-65 -553l-78 -362q-10 -37 -23.5 -50t-46.5 -13h-164q-31 0 -43 14 t-10 49z" />
<glyph unicode="&#x22;" horiz-adv-x="968" d="M264 1044l12 340q2 63 72 64h209q54 0 54 -43q0 -9 -3 -21l-67 -340q-6 -35 -21.5 -50t-46.5 -15h-156q-33 0 -44 15q-10 13 -9 40v10zM684 1044l12 340q2 63 70 64h211q54 0 54 -43q0 -9 -3 -21l-67 -340q-6 -35 -21.5 -50t-46.5 -15h-156q-33 0 -44 15q-10 13 -9 40v10 z" />
<glyph unicode="#" horiz-adv-x="1468" d="M176 410l14 112q8 59 70 60h133l53 125h-63q-58 0 -58 51q0 5 1 10l14 115q8 59 72 59h131l61 148q27 66 86 65h160q44 0 44 -33q0 -13 -7 -32l-64 -148h234l61 148q25 66 86 65h160q43 0 43 -32q0 -14 -8 -33l-62 -148h62q35 0 47 -13.5t10 -45.5l-14 -115 q-6 -61 -70 -61h-131l-53 -125h59q60 0 61 -48q0 -6 -1 -12l-15 -112q-8 -61 -71 -62h-127l-64 -151q-25 -66 -82 -66h-160q-31 0 -41 16.5t3 49.5l61 151h-231l-62 -151q-27 -66 -84 -66h-160q-47 0 -46 33q0 13 8 33l63 151h-68q-56 0 -56 48q0 7 1 14zM676 582h231 l54 125h-232z" />
<glyph unicode="$" horiz-adv-x="1148" d="M180 428q0 18 2 37l6 45q6 57 66 57h195q31 0 41 -13t8 -44l-2 -31v-6q0 -61 127 -61q135 0 143 67l2 19v6q0 29 -74 61l-286 115q-63 23 -101.5 78t-38.5 125q0 23 2 41l6 59q27 229 299 279l15 122q8 63 69 64h222q33 0 44 -14.5t5 -49.5l-17 -137q106 -33 160.5 -99.5 t54.5 -143.5q0 -10 -2 -33l-4 -29q-8 -59 -65 -59h-195q-52 0 -52 46q0 6 1 13l2 14q2 12 2 27q0 57 -108 57q-111 0 -123 -63l-2 -10l-2 -14q0 -37 41 -50l284 -106q188 -68 189 -205q0 -8 -4 -25l-15 -118q-27 -205 -291 -259l-16 -127q-6 -63 -66 -63h-219q-56 0 -56 52 q0 5 1 11l14 127q-129 25 -195.5 89.5t-66.5 148.5z" />
<glyph unicode="%" horiz-adv-x="1941" d="M248 977q0 23 2 35l24 200q14 123 102.5 188.5t270.5 65.5q162 0 248 -58t86 -155q0 -31 -2 -41l-25 -200q-33 -254 -372 -254q-166 0 -250 57.5t-84 161.5zM464 23q-1 6 -1 11q0 16 10 29l858 1321q41 63 101 64h200q27 0 33 -19.5t-12 -44.5l-860 -1321 q-41 -63 -99 -63h-198q-27 0 -32 23zM528 1016q0 -41 72 -41q76 0 80 49l20 178v6q0 39 -73.5 39t-77.5 -45l-21 -178v-8zM1133 199q0 20 2 32l26 201q14 123 101.5 188.5t271.5 65.5q162 0 248 -57.5t86 -155.5q0 -31 -2 -41l-25 -201q-33 -252 -373 -251 q-168 0 -251.5 57.5t-83.5 161.5zM1415 236q0 -39 72 -39q74 0 78 49l22 176v6q0 41 -76 41q-72 0 -75 -47l-21 -176v-10z" />
<glyph unicode="&#x26;" horiz-adv-x="1507" d="M143 299q0 12 4 55l19 150q10 90 57 146.5t144 97.5q-125 47 -125 176q0 27 2 37l18 149q18 162 136 259t397 97q250 0 362.5 -90t112.5 -227q0 -25 -2 -47l-8 -78q-10 -63 -70 -63h-219q-33 0 -45.5 16t-7.5 47l2 27q2 20 2 30q0 106 -152 107q-156 0 -172 -137l-4 -37 q-2 -16 -2 -27q0 -113 162 -113h731q63 0 57 -59l-18 -156q-10 -61 -74 -61h-109l-28 -250q-47 -365 -621 -364q-295 0 -422 87t-127 228zM496 369q0 -109 229 -109q236 0 252 137l24 201h-303q-178 0 -194 -135l-6 -62q-2 -20 -2 -32z" />
<glyph unicode="'" horiz-adv-x="548" d="M264 1044l12 340q2 63 72 64h209q54 0 54 -43q0 -9 -3 -21l-67 -340q-6 -35 -21.5 -50t-46.5 -15h-156q-33 0 -44 15q-10 13 -9 40v10z" />
<glyph unicode="(" horiz-adv-x="761" d="M86 -152q0 14 4 46l158 1282q20 180 129.5 255.5t351.5 75.5h66q58 0 58 -48q0 -6 -1 -13l-18 -152q-10 -63 -74 -63h-23q-133 0 -143 -94l-152 -1231q0 -4 -1 -8t-1 -9q0 -78 125 -77h23q56 0 56 -50q0 -6 -1 -14l-18 -151q-8 -61 -72 -62h-18q-209 0 -329 84t-120 229z " />
<glyph unicode=")" horiz-adv-x="761" d="M35 -403l18 151q8 63 72 64h25q131 0 141 94l151 1231q0 4 1 9t1 9q0 76 -122 76h-23q-57 0 -57 47q0 7 2 16l18 152q8 61 70 61h20q209 0 329 -84t120 -229q0 -14 -4 -43l-158 -1282q-20 -182 -131 -258t-350 -76h-66q-59 0 -59 46z" />
<glyph unicode="*" horiz-adv-x="1181" d="M244 844q-7 16 -7 30q0 34 44 52l223 90l-199 92q-34 15 -34 42q0 17 14 40l63 98q23 37 52 38q17 0 36 -13l205 -146l12 277q2 63 72 63h117q53 0 53 -44q0 -9 -2 -19l-55 -266l223 137q21 13 37 13q27 0 43 -36l47 -102q8 -17 8 -32q0 -33 -43 -50l-231 -94l204 -90 q31 -13 32 -40q0 -18 -15 -42l-62 -101q-21 -36 -48 -36q-18 0 -40 16l-194 133l-8 -240q-2 -66 -68 -65h-119q-55 0 -55 46q0 9 2 19l53 248l-239 -145q-22 -13 -39 -13q-29 0 -43 37z" />
<glyph unicode="+" horiz-adv-x="1173" d="M182 643v156q0 59 66 59h276v279q0 66 60 65h155q61 0 62 -65v-279h278q63 0 64 -59v-156q0 -61 -64 -61h-278v-277q0 -63 -62 -63h-155q-59 0 -60 63v277h-276q-66 0 -66 61z" />
<glyph unicode="," horiz-adv-x="622" d="M23 -84q-2 10 -2 18q0 46 55 62q53 14 75.5 35.5t26.5 58.5l21 148q8 66 69 65h226q35 0 45 -15q7 -11 7 -32q0 -8 -1 -18l-21 -168q-16 -139 -113.5 -220t-279.5 -120q-14 -3 -25 -3q-15 0 -24 5q-16 8 -25 41z" />
<glyph unicode="-" horiz-adv-x="909" d="M168 537v155q0 59 63 60h570q63 0 63 -60v-155q0 -61 -63 -62h-570q-63 1 -63 62z" />
<glyph unicode="." horiz-adv-x="559" d="M113 61l22 177q6 66 70 65h225q35 0 45 -15q7 -11 7 -32q0 -8 -1 -18l-20 -177q-10 -61 -70 -61h-225q-35 0 -46 14q-8 11 -8 31q0 7 1 16z" />
<glyph unicode="/" horiz-adv-x="776" d="M-25 -252l611 1677q23 63 78 64h247q49 0 49 -35q0 -12 -6 -29l-614 -1677q-20 -63 -80 -63h-246q-45 0 -45 34q0 12 6 29z" />
<glyph unicode="0" horiz-adv-x="1214" d="M123 309q0 20 4 56l90 737q18 158 148.5 261t402.5 103q246 0 372 -94t126 -233q0 -12 -4 -56l-91 -735q-18 -158 -149 -261t-404 -103q-246 0 -370.5 93t-124.5 232zM481 387q0 -117 162 -117q166 0 184 140l76 612q4 39 4 41q0 115 -157 115q-170 0 -187 -138l-76 -600 q-6 -51 -6 -53z" />
<glyph unicode="1" horiz-adv-x="1214" d="M137 61l21 166q8 59 69 60h265l104 841l-270 -38q-9 -1 -17 -2q-42 0 -41 44v11l21 168q8 57 73 67l566 88q7 1 12 1q18 0 31 -9q16 -12 8 -53l-135 -1118h254q58 0 58 -47q0 -6 -1 -13l-22 -166q-8 -61 -72 -61h-868q-57 0 -57 46q0 7 1 15z" />
<glyph unicode="2" horiz-adv-x="1214" d="M125 61l47 390q8 84 44 121.5t112 68.5l475 180q66 27 80 113l14 96q4 35 4 43q0 111 -160 111q-168 0 -186 -137l-10 -78q-8 -63 -66 -64h-219q-56 0 -56 53q0 5 1 11l16 133q23 160 148 262t393 102q246 0 369.5 -94t123.5 -233q0 -12 -6 -56l-18 -143 q-37 -279 -250 -354l-377 -140q-55 -20 -71.5 -39.5t-20.5 -66.5l-8 -53h596q63 0 57 -60l-22 -166q-8 -61 -72 -61h-883q-56 0 -56 51q0 4 1 10z" />
<glyph unicode="3" horiz-adv-x="1214" d="M123 305q0 20 2 43l10 76q8 63 68 63h219q37 0 46 -15t7 -48l-2 -27q-2 -16 -2 -30q0 -53 46 -80t120 -27q170 0 186 137l8 66q2 23 3 29q0 106 -162 106h-152q-56 0 -56 51q0 5 1 10l18 156q6 59 70 59h131q176 0 193 140l6 37q2 20 2 28q0 109 -150 109 q-162 0 -174 -137l-4 -27q-6 -63 -70 -63h-219q-52 0 -52 51q0 6 1 12l8 78q43 365 541 364q248 0 359.5 -90t111.5 -227q0 -18 -4 -62l-16 -133q-10 -80 -51.5 -128t-123.5 -78q141 -66 142 -211q0 -20 -4 -56l-19 -149q-45 -348 -547 -348q-254 0 -372.5 90t-118.5 231z " />
<glyph unicode="4" horiz-adv-x="1214" d="M106 426l19 152q4 25 20 67l301 739q29 63 86 64h230q46 0 45 -31q0 -13 -8 -33l-295 -733h323l88 733q8 63 72 64h230q33 0 44 -14q8 -11 8 -32q0 -8 -1 -18l-162 -1321q-8 -63 -66 -63h-231q-56 0 -56 50q0 6 1 13l39 302h-629q-58 0 -58 48q-1 6 0 13z" />
<glyph unicode="5" horiz-adv-x="1214" d="M119 305q0 18 2 39l8 78q8 63 70 63h219q31 0 43 -13t10 -50l-2 -21q-2 -20 -2 -30q0 -55 45 -84t123 -29q172 0 188 137l15 107q4 37 4 59q0 115 -160 115h-395q-52 0 -52 52q0 6 1 11l79 645q8 63 66 64h811q59 0 59 -45q0 -7 -2 -14l-20 -166q-8 -61 -70 -62h-520 l-25 -209h103q248 0 366.5 -92t118.5 -231q0 -20 -6 -58l-27 -227q-47 -362 -559 -362q-252 0 -371.5 91t-119.5 232z" />
<glyph unicode="6" horiz-adv-x="1214" d="M139 307q0 20 2 41l90 754q43 365 535 364q240 0 354.5 -91t114.5 -224q0 -31 -2 -49l-8 -66q-8 -63 -68 -63h-219q-55 0 -55 45q0 8 2 18l2 15q2 10 2 30q0 106 -146 107q-154 0 -170 -137l-26 -203q109 47 215 47q201 0 309.5 -94t108.5 -228q0 -25 -4 -61l-19 -164 q-43 -365 -539 -364q-244 0 -361.5 92t-117.5 231zM492 373q0 -113 149 -113q160 0 174 137l8 82q4 20 4 29q0 111 -151 110q-156 0 -172 -126l-8 -76q-4 -35 -4 -43z" />
<glyph unicode="7" horiz-adv-x="1214" d="M227 1223l23 166q8 59 69 59h951q58 0 58 -47q0 -6 -1 -12l-20 -162q-4 -25 -25 -62l-635 -1102q-39 -63 -84 -63h-266q-49 0 -49 28q0 14 12 35l637 1098h-612q-58 0 -59 49q0 6 1 13z" />
<glyph unicode="8" horiz-adv-x="1214" d="M141 309q0 16 2 39l21 176q16 145 194 219q-117 66 -116 191q0 8 4 41l14 127q8 76 33.5 134t79 113.5t154 86t239.5 30.5q240 0 348.5 -91t108.5 -228q0 -31 -2 -45l-17 -141q-18 -145 -174 -218q72 -33 110 -85t38 -113q0 -8 -4 -37l-19 -160q-43 -365 -534 -364 q-246 0 -363 92t-117 233zM492 369q0 -109 149 -109q160 0 174 137l6 58q6 29 6 39q0 109 -149 108q-158 0 -176 -133l-8 -72q-2 -16 -2 -28zM588 987q0 -111 123 -110q141 0 157 139l4 35q2 18 2 28q0 109 -129 109q-70 0 -106.5 -33t-44.5 -104l-4 -35q-2 -19 -2 -29z" />
<glyph unicode="9" horiz-adv-x="1214" d="M154 299q0 31 2 49l8 64q8 63 67 63h220q55 0 55 -45q0 -8 -2 -18l-2 -15q-2 -12 -2 -30q0 -106 145 -107q154 0 170 137l27 203q-109 -47 -215 -47q-201 0 -309.5 94t-108.5 227q0 20 4 64l18 164q43 365 535 364q244 0 363.5 -93t119.5 -232q0 -20 -2 -39l-90 -754 q-43 -365 -530 -364q-240 0 -356.5 90t-116.5 225zM563 942q0 -111 150 -111q156 0 172 125l8 76q0 10 1 19.5t2 15.5t1 8q0 113 -149 113q-160 0 -175 -137l-8 -82q-2 -17 -2 -27z" />
<glyph unicode=":" horiz-adv-x="559" d="M113 61l22 177q8 66 70 65h225q35 0 45 -15.5t6 -49.5l-20 -177q-10 -61 -70 -61h-225q-35 0 -46 14q-8 11 -8 31q0 7 1 16zM207 823l20 178q8 63 72 64h225q33 0 44 -15q8 -11 9 -32q0 -7 -2 -17l-22 -178q-8 -61 -68 -61h-225q-35 0 -46 14q-8 11 -8 31q0 7 1 16z" />
<glyph unicode=";" horiz-adv-x="634" d="M37 -84q-3 11 -3 20q0 44 56 60q53 14 75.5 35.5t27.5 58.5l18 148q8 66 70 65h227q33 0 44 -15.5t5 -49.5l-20 -168q-16 -139 -113.5 -220t-278.5 -120q-15 -3 -26 -3q-15 0 -25 5q-16 8 -24 41zM283 823l22 178q6 63 70 64h225q33 0 44 -15q8 -11 8 -32q0 -7 -1 -17 l-20 -178q-8 -61 -68 -61h-227q-33 0 -45 14q-9 11 -9 32q0 7 1 15z" />
<glyph unicode="&#x3c;" horiz-adv-x="1095" d="M176 598v246q0 20 9.5 34.5t18.5 19.5t29 13l764 322q11 5 22 5q14 0 24 -11q17 -18 18 -56v-208q0 -29 -15.5 -44.5t-48.5 -25.5l-489 -172l489 -172q33 -10 48.5 -24.5t15.5 -45.5v-209q0 -37 -18 -55q-10 -11 -24 -11q-10 0 -22 5l-764 321q-20 8 -29 13.5t-18.5 20 t-9.5 34.5z" />
<glyph unicode="=" horiz-adv-x="1228" d="M150 369v155q0 59 63 60h889q63 0 63 -60v-155q0 -61 -63 -62h-889q-63 1 -63 62zM150 829v154q0 61 63 61h889q63 0 63 -61v-154q0 -63 -63 -63h-889q-63 0 -63 63z" />
<glyph unicode="&#x3e;" horiz-adv-x="1095" d="M137 270v209q0 31 14.5 45.5t49.5 24.5l489 172l-489 172q-35 10 -49.5 25.5t-14.5 44.5v208q0 37 17 56q10 11 24 11q10 0 23 -5l762 -322q20 -8 30.5 -13t18.5 -19.5t8 -34.5v-246q0 -20 -8 -34.5t-18.5 -19.5l-30.5 -14l-762 -321q-12 -5 -23 -5q-15 0 -24 11 q-17 18 -17 55z" />
<glyph unicode="?" horiz-adv-x="1200" d="M203 969l16 133q23 160 148 262t397 102q244 0 366.5 -98t122.5 -235q0 -23 -4 -48l-8 -71q-16 -147 -85 -223t-165 -115l-133 -55q-53 -25 -70.5 -42.5t-23.5 -64.5l-6 -47q-4 -35 -18.5 -48t-47.5 -13h-229q-56 0 -56 50q0 5 1 11l16 137q10 80 47 118t107 71l231 110 q72 35 84 113l4 31q2 20 2 34q0 49 -44 76t-114 27q-170 0 -188 -137l-10 -78q-8 -63 -66 -64h-219q-56 0 -56 50q0 7 1 14zM358 61l21 177q8 66 70 65h231q33 0 44 -15q8 -11 8 -33q0 -8 -1 -17l-22 -177q-8 -61 -68 -61h-229q-31 0 -44 12q-10 9 -11 33q0 7 1 16z" />
<glyph unicode="@" horiz-adv-x="2134" d="M143 106q0 37 4 74l84 709q12 86 36 152.5t89.5 141t169 121t282.5 79t419 32.5q213 0 372.5 -25.5t257 -67.5t157 -101.5t81 -122t21.5 -135.5q0 -27 -5 -74l-55 -451q-45 -369 -489 -368q-260 0 -342 131q-166 -131 -338 -131q-123 0 -187.5 61.5t-64.5 169.5 q0 51 10 96l51 250q35 164 116 246t220 82q143 0 281 -98l6 18q14 35 28.5 49t45.5 14h194q52 0 52 -42q0 -10 -3 -21l-90 -387q-16 -82 -16 -113q0 -82 80 -82q61 0 85.5 45t37.5 127l45 387q2 16 2 43q0 117 -123 172.5t-453 55.5q-248 0 -388 -34t-192.5 -89t-62.5 -150 l-82 -671q-2 -16 -2 -45q0 -117 124 -172.5t454 -55.5h364q56 0 56 -54v-11l-19 -144q-6 -61 -72 -61h-354q-213 0 -372.5 24.5t-256 66.5t-157 101.5t-81 121.5t-20.5 136zM983 434q0 -57 78 -57q63 0 135 33v2l47 215q-61 53 -125 53q-88 0 -106 -100l-21 -103 q-8 -27 -8 -43z" />
<glyph unicode="A" horiz-adv-x="1204" d="M31 63l544 1321q27 63 87 64h231q61 0 70 -64l223 -1321q1 -9 1 -16q0 -47 -54 -47h-232q-57 0 -67 63l-31 205h-354l-80 -205q-25 -63 -82 -63h-219q-46 0 -46 31q0 13 9 32zM561 545h199l-15 114q-12 98 -12 447q0 -2 -10 -40l-22.5 -90t-28.5 -111l-34 -114 q-17 -56 -32 -92z" />
<glyph unicode="B" horiz-adv-x="1273" d="M135 63l162 1321q8 63 70 64h389q256 0 384 -86t128 -221q0 -14 -4 -54l-15 -98q-18 -150 -172 -229q86 -33 138.5 -101.5t52.5 -140.5q0 -8 -4 -43l-19 -139q-41 -336 -573 -336h-482q-57 0 -56 47q0 7 1 16zM514 276h180q195 0 211 125l6 54q2 14 2 30q0 55 -45 87 t-129 32h-188zM584 864h110q199 0 211 131l4 39q2 27 2 37q0 100 -172 100h-116z" />
<glyph unicode="C" horiz-adv-x="1228" d="M145 307q0 10 5 58l88 737q43 365 559 364q254 0 372.5 -92t118.5 -231q0 -10 -4 -58l-10 -81q-8 -63 -66 -64h-219q-57 0 -57 45q0 8 2 19l4 22q4 27 4 41q0 111 -164 111q-178 0 -194 -138l-76 -612q-6 -35 -6 -41q0 -117 168 -117q174 0 190 140l8 67q8 63 72 64h219 q52 0 52 -49q0 -7 -1 -15l-16 -129q-41 -365 -557 -364q-254 0 -373 91t-119 232z" />
<glyph unicode="D" horiz-adv-x="1320" d="M135 63l162 1321q8 63 70 64h464q258 0 388.5 -94t130.5 -236q0 -23 -7 -67l-81 -686q-20 -158 -152.5 -261.5t-419.5 -103.5h-510q-47 0 -46 45q-1 8 1 18zM514 287h195q84 0 141 34.5t65 104.5l72 567q4 20 4 51q0 117 -178 117h-190z" />
<glyph unicode="E" horiz-adv-x="1077" d="M135 63l162 1321q8 63 70 64h729q58 0 58 -47q0 -6 -1 -12l-23 -166q-8 -61 -69 -62h-438l-35 -276h405q33 0 46.5 -14.5t9.5 -47.5l-21 -153q-8 -63 -70 -64h-405l-39 -319h459q59 0 58 -45q0 -7 -1 -15l-20 -166q-8 -61 -70 -61h-750q-57 0 -56 47q0 7 1 16z" />
<glyph unicode="F" horiz-adv-x="1093" d="M135 63l162 1321q8 63 70 64h776q60 0 60 -47q0 -6 -1 -12l-22 -166q-8 -61 -70 -62h-487l-35 -276h454q33 0 46.5 -14.5t9.5 -47.5l-23 -166q-8 -61 -71 -61h-453l-66 -533q-8 -63 -65 -63h-230q-57 0 -56 47q0 7 1 16z" />
<glyph unicode="G" horiz-adv-x="1249" d="M145 307q0 18 5 58l88 737q43 365 559 364q254 0 372.5 -93t118.5 -234q0 -10 -4 -58l-6 -57q-6 -63 -68 -63h-219q-55 0 -55 45q0 8 2 18l2 16q2 14 2 33q0 104 -160 105q-82 0 -136 -34t-62 -104l-76 -614q-6 -31 -6 -43q0 -113 162 -113q182 0 196 140l10 90h-174 q-56 0 -56 50q0 6 1 13l21 166q8 59 71 59h451q63 0 57 -59l-47 -381q-45 -365 -557 -364q-254 0 -373 91t-119 232z" />
<glyph unicode="H" horiz-adv-x="1343" d="M135 63l162 1321q8 63 70 64h229q35 0 45 -14.5t6 -49.5l-61 -507h385l61 507q10 63 72 64h229q35 0 45 -14q7 -10 8 -31q0 -8 -2 -19l-161 -1321q-8 -63 -66 -63h-231q-57 0 -57 47q0 7 1 16l68 527h-387l-66 -527q-8 -63 -65 -63h-230q-57 0 -56 47q0 7 1 16z" />
<glyph unicode="I" horiz-adv-x="606" d="M135 63l162 1321q8 63 70 64h229q35 0 45 -14q7 -10 7 -31q0 -8 -1 -19l-162 -1321q-8 -63 -65 -63h-230q-57 0 -56 47q0 7 1 16z" />
<glyph unicode="J" horiz-adv-x="1112" d="M59 307q0 27 4 58l15 122q10 63 72 64h223q52 0 52 -52q0 -6 -1 -12l-8 -67q-4 -39 -4 -43q0 -106 135 -107q70 0 102.5 32t42.5 108l121 974q8 63 70 64h229q54 0 54 -52q0 -5 -1 -12l-129 -1036q-10 -78 -36.5 -136t-81 -113.5t-152.5 -85t-238 -29.5q-240 0 -354.5 92 t-114.5 231z" />
<glyph unicode="K" horiz-adv-x="1277" d="M135 63l162 1321q8 63 70 64h229q35 0 45 -14.5t6 -49.5l-65 -542h14l393 542q43 63 109 64h250q41 0 40 -23q0 -15 -18 -41l-483 -647l375 -674q14 -23 3.5 -43t-42.5 -20h-293q-47 0 -82 63l-273 523h-26l-64 -523q-6 -63 -65 -63h-230q-57 0 -56 47q0 7 1 16z" />
<glyph unicode="L" horiz-adv-x="1001" d="M135 63l162 1321q8 63 70 64h229q35 0 45 -14.5t6 -49.5l-133 -1097h416q60 0 60 -48q0 -6 -1 -12l-22 -166q-8 -61 -70 -61h-717q-46 0 -46 48q0 7 1 15z" />
<glyph unicode="M" horiz-adv-x="1609" d="M135 63l162 1321q8 63 70 64h206q41 0 52 -33l209 -653q8 -29 18 -70t16 -68.5t6 -29.5l7 10q4 12 11 29l16 37q9 20 21.5 43.5l24.5 44.5l361 661q16 29 61 29h223q35 0 46 -14q7 -10 7 -31q0 -8 -1 -19l-162 -1321q-8 -63 -66 -63h-219q-57 0 -56 47q0 7 1 16l82 678 q-57 -156 -96 -225l-121 -233q-33 -63 -92 -64h-174q-61 0 -84 64l-82 270q-14 53 -35 182l-82 -672q-8 -63 -68 -63h-207q-57 0 -56 47q0 7 1 16z" />
<glyph unicode="N" horiz-adv-x="1343" d="M135 63l162 1321q8 63 70 64h200q39 0 54 -25l284 -604q35 -74 56 -160l88 725q8 63 69 64h209q35 0 45 -14q7 -10 7 -31q0 -8 -1 -19l-161 -1321q-8 -63 -66 -63h-201q-45 0 -57 31l-270 565q-39 82 -70 192l-88 -725q-8 -63 -68 -63h-207q-57 0 -56 47q0 7 1 16z" />
<glyph unicode="O" horiz-adv-x="1300" d="M145 309q0 12 5 56l88 737q20 158 156 261t421 103q256 0 385 -94t129 -233q0 -16 -4 -56l-90 -735q-18 -158 -155.5 -261t-424.5 -103q-254 0 -382 93t-128 232zM502 387q0 -117 184 -117q82 0 139.5 34t65.5 106l76 610q4 39 4 41q0 117 -180 117q-80 0 -139.5 -35 t-67.5 -103l-76 -612q-6 -35 -6 -41z" />
<glyph unicode="P" horiz-adv-x="1247" d="M135 63l162 1321q8 63 70 64h446q258 0 383 -96.5t125 -245.5q0 -29 -4 -66l-23 -196q-18 -168 -150 -260t-423 -92h-182l-54 -429q-8 -63 -65 -63h-230q-56 0 -56 50q0 6 1 13zM575 780h170q195 0 211 125l11 88q2 18 2 37q0 68 -39 99.5t-131 31.5h-176z" />
<glyph unicode="Q" horiz-adv-x="1300" d="M145 309q0 12 5 56l88 737q20 158 156 261t421 103q256 0 385 -94t129 -233q0 -16 -4 -56l-90 -735q-31 -258 -326 -338l176 -174q22 -22 22 -43q0 -23 -24 -45l-129 -123q-27 -25 -50 -24q-21 0 -40 20l-356 373q-182 25 -272.5 111.5t-90.5 203.5zM502 387 q0 -117 184 -117q82 0 139.5 34t65.5 106l76 610q4 39 4 41q0 117 -180 117q-80 0 -139.5 -35t-67.5 -103l-76 -612q-6 -35 -6 -41z" />
<glyph unicode="R" horiz-adv-x="1286" d="M135 63l162 1321q8 63 70 64h440q258 0 387 -96.5t129 -245.5q0 -18 -4 -51l-21 -166q-29 -227 -256 -307l142 -519q8 -29 -11.5 -46t-54.5 -17h-227q-18 0 -29.5 9t-15.5 21.5l-10 32.5l-131 472h-162l-58 -472q-6 -63 -65 -63h-230q-57 0 -56 47q0 7 1 16zM580 821h170 q193 0 211 131l6 45q2 16 2 35q0 129 -170 129h-176z" />
<glyph unicode="S" horiz-adv-x="1224" d="M123 311q0 23 4 54l16 124q6 63 70 64h221q53 0 53 -47q0 -8 -2 -17l-10 -77q-2 -16 -2 -39q0 -113 176 -113q180 0 201 133l4 29q2 14 2 24q0 33 -31.5 61t-58.5 41t-76 32l-293 114q-68 27 -117 93.5t-49 154.5q0 10 5 53l14 107q41 365 536 364q248 0 366 -92 t118 -231q0 -16 -2 -41l-8 -80q-6 -63 -72 -64h-221q-31 0 -42.5 14.5t-9.5 49.5l3 33v12q0 121 -154 121q-164 0 -180 -133l-2 -23v-12q0 -55 57 -78l342 -123q104 -35 166.5 -111.5t62.5 -175.5q0 -6 -4 -53l-16 -131q-18 -158 -150.5 -261t-410.5 -103q-256 0 -381 93 t-125 234z" />
<glyph unicode="T" horiz-adv-x="1056" d="M166 1223l22 166q6 59 70 59h897q58 0 58 -47q0 -6 -1 -12l-22 -166q-6 -61 -70 -62h-272l-137 -1098q-8 -63 -66 -63h-229q-56 0 -56 50v13l136 1098h-273q-58 0 -58 49q0 6 1 13z" />
<glyph unicode="U" horiz-adv-x="1320" d="M156 313q0 8 6 66l123 1005q10 63 69 64h230q54 0 54 -49q0 -7 -1 -15l-115 -923q-6 -51 -6 -72q0 -59 50 -89t128 -30q84 0 141.5 34t65.5 106l121 974q8 63 68 64h231q54 0 54 -49q0 -7 -1 -15l-129 -1036q-20 -160 -153.5 -262t-417.5 -102q-252 0 -385 95t-133 234z " />
<glyph unicode="V" horiz-adv-x="1204" d="M193 1384q-2 10 -2 18q0 45 57 46h246q55 0 67 -64l86 -596q10 -78 10 -346q0 2 9 32l18 69q10 39 23.5 84l28 89l24.5 72l235 596q27 63 82 64h236q46 0 45 -31q0 -13 -8 -33l-547 -1321q-25 -63 -86 -63h-230q-61 0 -71 63z" />
<glyph unicode="W" horiz-adv-x="1820" d="M190 1384q-1 7 0 14q0 50 56 50h231q59 0 66 -64l73 -596q10 -84 11 -190q10 55 61 190l223 596q25 63 84 64h215q59 0 66 -64l72 -593q8 -78 8 -234q16 94 67 231l222 596q23 63 81 64h203q45 0 45 -34q0 -12 -6 -30l-493 -1321q-25 -63 -86 -63h-224q-57 0 -63 63 l-78 615q-4 29 -4 217q0 -2 -9.5 -45t-23.5 -93t-24 -81l-230 -613q-25 -63 -86 -63h-223q-57 0 -64 63z" />
<glyph unicode="X" horiz-adv-x="1243" d="M37 32q0 21 16 42l461 680l-281 624q-14 27 -5.5 48.5t40.5 21.5h260q53 0 82 -64l152 -337l225 337q41 63 98 64h248q39 0 39 -22q0 -15 -18 -42l-457 -636l309 -685q12 -23 3 -43t-42 -20h-260q-55 0 -84 63l-172 377l-233 -377q-41 -63 -96 -63h-252q-33 0 -33 32z " />
<glyph unicode="Y" horiz-adv-x="1187" d="M195 1384q-5 14 -6 25q0 14 9 23q15 16 50 16h254q53 0 69 -64l101 -423q4 -20 9 -50t8 -52.5t3 -24.5l10 22q8 25 22.5 55.5t25.5 49.5l229 423q35 63 84 64h229q51 0 51 -29q0 -14 -12 -35l-493 -847l-60 -474q-10 -63 -67 -63h-230q-56 0 -56 50q0 6 1 13l53 431z" />
<glyph unicode="Z" horiz-adv-x="1050" d="M59 61l23 166q2 27 24 58l590 876h-399q-60 0 -60 49q0 6 1 13l22 166q8 59 70 59h766q58 0 58 -47q0 -6 -1 -12l-20 -150q-4 -33 -29 -76l-588 -876h475q58 0 58 -47v-13l-23 -166q-8 -61 -70 -61h-839q-58 0 -59 49q0 5 1 12z" />
<glyph unicode="[" horiz-adv-x="866" d="M57 -385l224 1810q8 63 69 64h527q68 0 59 -59l-23 -166q-8 -61 -69 -62h-240l-168 -1364h240q66 0 57 -61l-22 -166q-8 -59 -70 -60h-528q-64 1 -56 64z" />
<glyph unicode="\" horiz-adv-x="776" d="M178 1425q-1 6 0 11q0 52 55 53h236q59 0 66 -64l200 -1677q1 -6 1 -11q0 -53 -58 -52h-236q-31 0 -45 15t-18 48z" />
<glyph unicode="]" horiz-adv-x="866" d="M57 -389l21 166q8 61 72 61h237l168 1364h-238q-58 0 -58 49q0 6 1 13l21 166q8 59 71 59h529q56 0 56 -50q0 -6 -1 -14l-225 -1810q-8 -63 -68 -64h-528q-58 0 -59 47q0 6 1 13z" />
<glyph unicode="^" horiz-adv-x="1247" d="M184 629l324 762q8 23 13 32t18.5 17t35.5 8h244q23 0 36 -8t19.5 -17.5t14.5 -31.5l321 -762q5 -12 5 -22q0 -15 -12 -25q-19 -16 -54 -17h-209q-31 0 -45 14.5t-27 49.5l-172 489l-170 -489q-10 -35 -25.5 -49.5t-43.5 -14.5h-209q-37 0 -57 17q-12 10 -11 25 q-1 10 4 22z" />
<glyph unicode="_" horiz-adv-x="993" d="M-2 -207q0 59 63 60h783q63 0 63 -60v-155q0 -61 -63 -62h-783q-63 0 -63 62v155z" />
<glyph unicode="`" horiz-adv-x="651" d="M265 1490q11 17 46 17h224q57 0 79 -63l62 -197q4 -13 3 -23q0 -38 -46 -38h-164q-53 0 -78 43l-121 215q-10 17 -9 30q-1 9 4 16z" />
<glyph unicode="a" d="M117 254q0 14 4 57l55 443q41 328 346 327q184 0 316 -110l8 30q10 35 23.5 49.5t43.5 14.5h215q54 0 55 -49q0 -7 -1 -15l-115 -938q-8 -63 -70 -63h-204q-53 0 -54 63v37q-51 -37 -79.5 -54t-101.5 -39.5t-150 -22.5q-139 0 -215 70.5t-76 199.5zM467 334q0 -59 74 -60 q88 0 221 88l43 340q-111 88 -201 89q-35 0 -56.5 -15.5t-26.5 -31t-9 -44.5l-43 -335q-2 -17 -2 -31z" />
<glyph unicode="b" d="M113 63l166 1362q8 63 71 64h219q52 0 53 -49q0 -7 -1 -15l-56 -454q156 111 324 110q135 0 212 -71.5t77 -200.5q0 -16 -4 -55l-56 -443q-41 -328 -352 -327q-182 0 -317 116l-9 -37q-8 -33 -22.5 -48t-46.5 -15h-205q-54 0 -54 52q0 5 1 11zM489 362q104 -88 201 -88 q39 0 59.5 16.5t25.5 30t9 44.5l43 335q2 16 2 29q0 61 -75 62q-94 0 -222 -89z" />
<glyph unicode="c" horiz-adv-x="1058" d="M119 272q0 16 2 43l53 435q43 332 496 331q213 0 320.5 -78.5t107.5 -211.5q0 -16 -2 -46l-2 -28q-8 -61 -72 -62h-201q-53 0 -53 58v30q0 41 -27.5 56.5t-89.5 15.5q-68 0 -99.5 -19.5t-37.5 -70.5l-43 -346q-6 -47 -6 -55q0 -74 119 -74q68 0 99.5 20.5t39.5 71.5l2 27 q6 61 68 61h202q57 0 54 -61l-5 -54q-29 -332 -493 -331q-213 0 -322.5 76.5t-109.5 211.5z" />
<glyph unicode="d" d="M117 252q0 16 4 59l55 443q41 328 346 327q184 0 316 -110l55 454q8 63 68 64h219q54 0 53 -52v-12l-166 -1362q-8 -63 -70 -63h-204q-33 0 -43.5 14.5t-10.5 48.5v37q-47 -37 -77.5 -54t-102.5 -39.5t-151 -22.5q-139 0 -215 70.5t-76 197.5zM467 334q0 -59 74 -60 q88 0 221 88l43 340q-111 88 -201 89q-53 0 -69.5 -24t-22.5 -67l-41 -321q-4 -35 -4 -45z" />
<glyph unicode="e" horiz-adv-x="1071" d="M119 272q0 18 2 43l53 435q43 332 490 331q205 0 312 -75.5t107 -210.5q0 -31 -2 -45l-26 -236q-6 -57 -66 -57h-518l-10 -92q-4 -31 -4 -54q0 -78 116 -78q125 0 138 84l2 13q10 61 71 61h183q55 0 54 -45q0 -7 -1 -16l-2 -15q-23 -166 -125 -248.5t-342 -82.5 q-213 0 -322.5 76.5t-109.5 211.5zM498 674h258l6 43q2 12 2 35q0 80 -119 79q-125 0 -137 -96z" />
<glyph unicode="f" horiz-adv-x="770" d="M137 856l17 131q4 31 19 44t48 18l107 12h2l12 104q43 332 514 332h35q58 0 58 -48q0 -6 -1 -13l-20 -152q-8 -63 -72 -63h-22q-143 0 -154 -95l-8 -65h149q60 0 61 -47q0 -6 -1 -13l-21 -145q-8 -61 -69 -61h-152l-143 -1155q-8 -63 -66 -64h-219q-56 0 -56 50q0 6 1 14 l143 1155h-106q-57 0 -57 46q0 7 1 15z" />
<glyph unicode="g" d="M117 254q0 18 4 57l55 443q23 160 102.5 243.5t241.5 83.5q186 0 328 -118l8 38q8 35 21.5 49.5t46.5 14.5h202q56 0 56 -53v-11l-133 -1093q-43 -332 -525 -332h-305q-58 0 -58 51q0 5 1 11l18 151q10 63 74 64h303q143 0 154 94l18 145q-47 -33 -77.5 -51t-98.5 -37.5 t-145 -19.5q-139 0 -215 70.5t-76 199.5zM467 334q0 -59 74 -60q88 0 221 88l43 340q-117 88 -201 89q-37 0 -58.5 -15.5t-27.5 -32t-8 -43.5l-39 -313q-4 -43 -4 -53z" />
<glyph unicode="h" horiz-adv-x="1177" d="M113 63l166 1362q8 63 71 64h219q52 0 52 -52v-12l-56 -450q147 106 324 106q125 0 207 -71.5t82 -188.5q0 -14 -2 -35l-89 -723q-8 -63 -69 -63h-215q-56 0 -56 52q0 5 1 11l75 635q4 23 4 33q0 31 -16 45.5t-57 14.5q-96 0 -222 -86l-77 -642q-10 -63 -70 -63h-219 q-54 0 -54 52q0 5 1 11z" />
<glyph unicode="i" horiz-adv-x="552" d="M113 63l114 938q6 63 70 64h219q54 0 54 -49q0 -7 -1 -15l-114 -938q-10 -63 -70 -63h-219q-54 0 -54 49q0 7 1 14zM258 1247l21 178q8 63 71 64h219q33 0 44 -15q8 -11 9 -32q0 -7 -1 -17l-23 -178q-8 -61 -68 -61h-219q-35 0 -46 14q-8 11 -8 31q0 7 1 16z" />
<glyph unicode="j" horiz-adv-x="552" d="M-166 -362l19 151q8 63 73 64h23q141 0 151 94l129 1054q8 63 70 64h219q54 0 54 -49q0 -7 -1 -15l-135 -1093q-20 -166 -144 -249t-366 -83h-35q-58 0 -58 49q0 6 1 13zM260 1247l21 178q8 63 71 64h219q33 0 44 -15q8 -11 9 -32q0 -7 -1 -17l-23 -178q-4 -33 -17.5 -47 t-47.5 -14h-220q-56 0 -55 51q-1 4 0 10z" />
<glyph unicode="k" horiz-adv-x="1087" d="M113 63l166 1362q8 63 71 64h219q33 0 44.5 -15.5t7.5 -48.5l-86 -702h28l252 278q59 63 107 64h243q31 0 39 -21q2 -5 2 -10q0 -16 -18 -33l-365 -397l271 -541q14 -23 1.5 -43t-42.5 -20h-238q-47 0 -80 63l-198 404h-35l-47 -404q-10 -63 -70 -63h-219q-54 0 -54 49 q0 7 1 14z" />
<glyph unicode="l" horiz-adv-x="552" d="M113 63l166 1362q8 63 71 64h219q33 0 44 -15q8 -11 9 -32q0 -7 -1 -17l-166 -1362q-10 -63 -70 -63h-219q-54 0 -54 49q0 7 1 14z" />
<glyph unicode="m" horiz-adv-x="1785" d="M113 63l114 941q8 61 70 61h203q33 0 43 -14.5t10 -46.5v-37q43 35 73.5 54t99 39.5t148.5 20.5q90 0 165 -37.5t102 -101.5q2 2 36.5 29.5t56.5 39.5l62 32q41 22 91.5 30t109.5 8q125 0 208 -70.5t83 -181.5q0 -23 -2 -43l-88 -723q-8 -63 -70 -63h-215q-58 0 -58 53 q0 5 1 10l76 619q4 39 4 49q0 59 -72 60q-104 0 -211 -86v-5l-78 -637q-8 -63 -69 -63h-215q-56 0 -56 52v11l76 635q2 23 2 33q0 59 -72 60q-102 0 -209 -86l-77 -642q-10 -63 -70 -63h-219q-54 0 -54 52q0 5 1 11z" />
<glyph unicode="n" horiz-adv-x="1177" d="M113 63l114 941q6 61 70 61h203q33 0 44 -14.5t11 -46.5v-37q150 115 334 114q125 0 207 -71.5t82 -188.5q0 -14 -4 -55l-87 -703q-8 -63 -69 -63h-215q-56 0 -56 50q0 6 1 13l73 619q6 39 6 49q0 31 -16 45.5t-57 14.5q-102 0 -222 -86l-77 -642q-10 -63 -70 -63h-219 q-54 0 -54 49q0 7 1 14z" />
<glyph unicode="o" horiz-adv-x="1144" d="M119 279q0 18 2 36l53 435q20 158 148.5 244.5t371.5 86.5q215 0 337 -78.5t122 -211.5q0 -20 -2 -41l-53 -435q-43 -332 -518 -331q-217 0 -339 80t-122 215zM467 328q0 -78 135 -78q147 0 158 94l47 379v12q0 80 -135 80q-147 0 -158 -92l-47 -379v-16z" />
<glyph unicode="p" d="M61 -360l168 1361q8 63 70 64h203q33 0 44 -15.5t11 -48.5v-36q170 117 332 116q137 0 214 -71.5t77 -200.5q0 -23 -4 -55l-56 -443q-41 -328 -344 -327q-184 0 -317 108l-56 -452q-10 -63 -67 -64h-219q-56 0 -56 50q-1 7 0 14zM492 362q104 -88 200 -88q39 0 60.5 15.5 t26.5 31t7 44.5l37 321q6 35 6 47q0 57 -73 58q-100 0 -221 -89z" />
<glyph unicode="q" d="M117 254q0 18 4 57l55 443q23 160 102.5 243.5t241.5 83.5q180 0 326 -116l8 36q8 35 22.5 49.5t45.5 14.5h204q56 0 56 -53v-11l-168 -1361q-8 -63 -68 -64h-219q-55 0 -55 47q0 8 2 17l55 452l-79 -51q-30 -18 -99.5 -37.5t-142.5 -19.5q-139 0 -215 70.5t-76 199.5z M467 334q0 -59 74 -60q88 0 221 88l43 340q-117 88 -201 89q-37 0 -58.5 -15.5t-27.5 -32t-8 -43.5l-39 -315q-4 -37 -4 -51z" />
<glyph unicode="r" horiz-adv-x="815" d="M113 63l114 941q8 61 70 61h203q33 0 44 -14.5t11 -46.5l-2 -60q139 137 311 137q58 0 59 -48q0 -6 -1 -13l-21 -166q-4 -33 -20.5 -46t-51.5 -17q-186 -23 -301 -117l-73 -611q-10 -63 -70 -63h-219q-54 0 -54 49q0 7 1 14z" />
<glyph unicode="s" horiz-adv-x="1011" d="M94 236q0 20 2 36l4 45q6 57 66 58h196q29 0 40.5 -12.5t9.5 -45.5l-2 -30v-6q0 -61 125 -62q137 0 145 68l2 20v6q0 27 -76 60l-287 114q-61 25 -100 80.5t-39 122.5q0 23 2 43l8 60q12 123 116 205.5t329 82.5q203 0 305 -79.5t102 -190.5q0 -10 -2 -31l-6 -30 q-8 -59 -65 -60h-193q-53 0 -52 44q0 7 1 16l2 14q2 14 2 29q0 55 -108 55q-111 0 -125 -62l-2 -10l-2 -14q0 -38 40 -51l285 -107q188 -68 189 -203q0 -10 -2 -26l-15 -117q-16 -119 -127.5 -196.5t-339.5 -77.5q-213 0 -320.5 73t-107.5 179z" />
<glyph unicode="t" horiz-adv-x="788" d="M125 856l16 131q2 31 17.5 44t52.5 18l94 12h2l23 194q6 63 71 64h220q52 0 51 -52v-12l-25 -194h172q56 0 56 -47q0 -6 -1 -13l-16 -145q-6 -61 -72 -61h-172l-49 -408q-2 -18 -2 -35q0 -41 29 -58.5t94 -17.5h51q58 0 58 -52v-11l-19 -152q-10 -61 -71 -61h-107 q-205 0 -295 63.5t-90 200.5q0 20 4 68l55 463h-94q-54 0 -54 50q0 5 1 11z" />
<glyph unicode="u" horiz-adv-x="1163" d="M125 242q0 18 2 37l90 722q8 63 70 64h215q57 0 56 -48q0 -7 -1 -16l-76 -634q-2 -18 -2 -37q0 -31 15.5 -43.5t54.5 -12.5q94 0 211 84l80 643q8 63 67 64h219q35 0 46 -16q8 -12 9 -32q0 -7 -1 -16l-115 -940q-8 -61 -70 -61h-204q-33 0 -43.5 12.5t-10.5 48.5v35 q-150 -113 -321 -112q-131 0 -211 71.5t-80 186.5z" />
<glyph unicode="v" horiz-adv-x="1050" d="M137 1001q-3 10 -3 19q0 18 14 29q22 16 59 16h217q33 0 44 -16.5t17 -47.5l68 -378q18 -98 18 -230q37 150 72 228l174 380q29 63 80 64h209q35 0 50 -17q9 -10 9 -23q0 -11 -6 -24l-438 -944q-12 -25 -18.5 -35t-18.5 -16t-35 -6h-252q-31 0 -40 10t-17 47z" />
<glyph unicode="w" horiz-adv-x="1583" d="M127 1001q-1 6 -1 11q0 23 15 37q18 16 56 16h204q57 0 64 -64l63 -473q4 -35 4 -110q0 14 39 110l191 473q27 63 78 64h207q57 0 63 -64l43 -473q6 -70 6 -110q0 20 35 110l180 473q25 63 76 64h178q35 0 51 -16q9 -9 10 -24q0 -11 -6 -24l-389 -944q-14 -35 -25.5 -46 t-43.5 -11h-262q-33 0 -43.5 12.5t-14.5 44.5l-37 408q-6 63 -6 117l-6 -19l-15 -49q-9 -29 -20 -49l-172 -408q-10 -23 -15 -33t-19.5 -17t-34.5 -7h-256q-33 0 -43.5 11.5t-14.5 45.5z" />
<glyph unicode="x" horiz-adv-x="1021" d="M-5 28q0 17 15 35l381 486l-241 452q-14 25 -4 44.5t42 19.5h234q49 0 82 -64l123 -223l159 223q45 63 101 64h215q31 0 36 -19q1 -4 1 -8q0 -16 -17 -37l-366 -469l254 -469q14 -23 2.5 -43t-43.5 -20h-234q-47 0 -82 63l-129 242l-180 -242q-45 -63 -96 -63h-215 q-38 0 -38 28z" />
<glyph unicode="y" horiz-adv-x="1050" d="M137 1001q-3 9 -3 18q0 17 14 29q22 17 59 17h215q29 0 41 -15.5t20 -48.5l74 -385q18 -88 18 -206q41 121 72 194l180 397q27 63 78 64h201q35 0 50 -17q9 -10 9 -23q0 -11 -6 -24l-629 -1361q-31 -63 -79 -64h-162q-33 0 -49.5 17.5t-3.5 46.5l133 323z" />
<glyph unicode="z" horiz-adv-x="942" d="M59 61l19 156q6 33 18 45l453 526h-297q-59 0 -59 47q0 7 2 15l18 156q8 59 72 59h651q33 0 46 -14q10 -11 10 -32q0 -6 -1 -13l-20 -154q-4 -33 -17 -47l-458 -529h385q58 0 58 -46q0 -6 -1 -13l-20 -156q-8 -61 -72 -61h-731q-56 0 -57 48q0 6 1 13z" />
<glyph unicode="{" horiz-adv-x="960" d="M162 457l16 147q6 66 74 66h2q131 0 141 92l51 414q43 332 504 331h45q58 0 58 -51v-10l-21 -152q-6 -63 -71 -63h-23q-133 0 -143 -94l-52 -410q-16 -141 -135 -197q90 -51 90 -157q0 -18 -2 -39l-49 -393q-4 -33 -4 -60q0 -70 121 -69h24q56 0 56 -53v-11l-21 -151 q-8 -61 -69 -62h-15q-213 0 -332.5 79t-119.5 226q0 31 4 64l49 395q2 16 2 27q0 66 -123 65h-2q-56 0 -56 54q0 6 1 12z" />
<glyph unicode="|" horiz-adv-x="606" d="M225 -385v1810q0 63 62 64h231q59 0 60 -64v-1810q0 -63 -60 -64h-231q-62 1 -62 64z" />
<glyph unicode="}" horiz-adv-x="960" d="M35 -403l18 151q8 63 72 64h25q131 0 141 94l53 428q10 78 43 122t92 74q-90 49 -90 162q0 14 6 66l47 379q2 18 2 30q0 63 -122 64h-23q-56 0 -56 50q0 6 1 13l18 152q6 61 70 61h24q209 0 326 -79.5t117 -225.5q0 -35 -2 -51l-47 -369q-4 -35 -5 -43q0 -70 123 -69h2 q56 0 57 -52q0 -7 -1 -14l-17 -147q-6 -66 -71 -66h-2q-133 0 -144 -92l-53 -430q-43 -334 -502 -334h-45q-58 0 -58 51q0 6 1 11z" />
<glyph unicode="~" horiz-adv-x="1089" d="M166 489l10 119q8 96 64.5 143.5t124.5 47.5q74 0 127 -23l190 -86q57 -23 82 -22q29 0 41 49l2 10q8 31 22.5 43t44.5 12h113q55 0 55 -54q0 -9 -2 -19l-14 -99q-12 -100 -64.5 -153.5t-121.5 -53.5q-76 0 -140 29l-188 88q-41 18 -68 19q-35 0 -47 -58l-2 -8 q-8 -33 -21.5 -44t-45.5 -11h-111q-52 0 -52 58q0 6 1 13z" />
<glyph unicode="&#xa1;" horiz-adv-x="612" d="M90 -319l66 552l77 363q10 37 23.5 50t46.5 13h164q31 0 43 -14t10 -49l-10 -363l-68 -552q-8 -63 -69 -64h-232q-35 0 -45 14q-7 10 -7 31q0 9 1 19zM233 827l23 177q4 33 18.5 47t47.5 14h229q57 0 57 -46q0 -7 -2 -15l-20 -177q-8 -66 -70 -65h-231q-33 0 -44 15 q-8 11 -9 33q0 8 1 17z" />
<glyph unicode="&#xa2;" horiz-adv-x="1177" d="M184 465q0 16 4 43l54 434q33 274 346 322l14 120q8 63 72 64h219q33 0 44 -14.5t7 -49.5l-18 -131q238 -63 237 -272q0 -16 -2 -43l-2 -29q-6 -61 -72 -61h-198q-53 0 -53 57v31q0 39 -28 55.5t-91 16.5q-68 0 -99.5 -20.5t-37.5 -72.5l-43 -344l-7 -55q0 -76 119 -76 q68 0 100.5 21.5t38.5 73.5l3 26q6 61 67 62h203q57 0 53 -62l-4 -53q-25 -264 -313 -318l-15 -127q-6 -63 -67 -63h-219q-56 0 -56 52v11l17 125q-135 27 -204 99t-69 178z" />
<glyph unicode="&#xa3;" horiz-adv-x="1486" d="M135 61l19 156q8 59 69 59h115l37 293h-115q-56 0 -56 51q0 5 1 11l18 155q8 59 72 60h115l30 256q8 74 41 134t92.5 114.5t162 85t239.5 30.5q236 0 353.5 -92t117.5 -231q0 -27 -2 -41l-10 -78q-8 -63 -66 -63h-213q-57 0 -57 45q0 8 2 18l2 16q2 10 2 27 q0 111 -150 111q-154 0 -170 -138l-24 -194h188q63 0 58 -60l-19 -155q-10 -61 -74 -62h-186l-37 -293h277q98 0 112 144l2 22q6 66 74 66h207q54 0 54 -54q0 -6 -1 -12l-2 -22q-23 -229 -120 -324.5t-267 -95.5h-836q-56 0 -56 48q0 6 1 13z" />
<glyph unicode="&#xa4;" horiz-adv-x="1415" d="M231 522l13 92q8 59 71 60h45l13 92h-47q-56 0 -57 50q0 6 1 13l11 91q6 59 71 59h45l17 123q43 365 557 364q254 0 372.5 -92t118.5 -231q0 -10 -4 -58l-10 -81q-8 -63 -66 -64h-219q-57 0 -56 48q0 7 1 16l4 22q4 27 4 41q0 111 -164 111q-176 0 -194 -138l-8 -61h157 q35 0 47.5 -12.5t10.5 -46.5l-11 -91q-8 -63 -71 -63h-158l-14 -92h159q35 0 47.5 -14.5t8.5 -45.5l-11 -92q-8 -61 -71 -61h-158l-4 -33q-4 -35 -4 -41q0 -117 166 -117q174 0 190 140l10 67q8 63 70 64h219q52 0 52 -49q0 -7 -1 -15l-14 -129q-43 -365 -559 -364 q-254 0 -373 91t-119 232q0 10 5 58l10 96h-47q-56 0 -57 48q0 6 1 13z" />
<glyph unicode="&#xa5;" horiz-adv-x="1224" d="M164 522l10 92q8 59 74 60h190l-28 92h-152q-56 0 -56 50q0 6 1 13l10 91q6 59 70 59h57l-129 405q-10 31 4 47.5t49 16.5h256q53 0 68 -64l100 -423q4 -20 9 -50l8.5 -52.5t3.5 -24.5l12 22q8 25 21.5 55.5t23.5 49.5l231 423q33 63 82 64h232q49 0 49 -28 q0 -14 -12 -36l-236 -405h68q35 0 47 -12.5t10 -46.5l-10 -91q-8 -63 -72 -63h-166l-55 -92h209q35 0 48 -14.5t9 -45.5l-12 -92q-8 -61 -72 -61h-272l-49 -398q-8 -63 -66 -63h-231q-56 0 -57 50q0 6 1 13l50 398h-273q-56 0 -56 48q0 6 1 13z" />
<glyph unicode="&#xa6;" horiz-adv-x="552" d="M182 266q0 63 64 64h219q59 0 59 -64v-651q0 -63 -59 -64h-219q-63 0 -64 64v651zM182 733v651q0 63 64 64h219q59 0 59 -64v-651q0 -63 -59 -63h-219q-64 0 -64 63z" />
<glyph unicode="&#xa7;" horiz-adv-x="1177" d="M111 -125l2 37q2 63 69 63h193q33 0 44 -13t9 -50l-2 -31v-8q0 -47 28.5 -63.5t96.5 -16.5q72 0 105.5 19.5t39.5 70.5l13 107v10q0 51 -72 72l-252 84q-174 59 -174 227q0 14 4 53l16 144q10 61 70 61h191q56 0 56 -48q0 -6 -1 -13l-12 -109v-16q0 -41 51 -60l260 -84 q84 -29 144.5 -96.5t60.5 -165.5q0 -25 -2 -37l-17 -110q-39 -326 -489 -326q-432 0 -432 277v22zM250 993q0 23 2 35l14 111q41 328 490 327q432 0 432 -278v-21l-2 -39q-2 -61 -70 -61h-192q-31 0 -43.5 13.5t-10.5 47.5l2 33v8q0 47 -28.5 62.5t-95.5 15.5 q-70 0 -105 -18.5t-41 -69.5l-12 -106v-11q0 -51 72 -73l251 -82q174 -59 174 -230q0 -14 -4 -53l-16 -141q-8 -61 -68 -62h-192q-56 0 -56 49q0 6 1 13l12 108v17q0 41 -51 57l-258 86q-86 27 -145.5 95.5t-59.5 166.5z" />
<glyph unicode="&#xa8;" horiz-adv-x="866" d="M295 1247l22 197q8 63 70 63h129q33 0 44 -14t7 -49l-24 -197q-8 -61 -68 -61h-127q-35 0 -47 14q-8 10 -8 27q0 9 2 20zM625 1247l22 197q8 63 70 63h129q35 0 45 -14q7 -10 7 -31q0 -8 -1 -18l-25 -197q-8 -61 -67 -61h-127q-35 0 -46 14q-8 11 -8 31q0 7 1 16z" />
<glyph unicode="&#xa9;" horiz-adv-x="1708" d="M182 530v390q0 88 13.5 155.5t57.5 144t118.5 127t213 85t326 34.5t324.5 -34.5t213 -85t119 -127t56 -144t13 -155.5v-390q0 -72 -10 -130t-34.5 -123.5t-77 -115.5t-128 -91t-197.5 -63.5t-279.5 -22.5t-278.5 22.5t-198 63.5t-129 91t-76.5 115.5t-35 123.5t-10.5 130 zM428 483q0 -135 118 -214t363.5 -79t363.5 77t118 214v488q0 137 -118 215t-363.5 78t-363.5 -79t-118 -216v-484zM526 596v254q0 158 90.5 234.5t297 76.5t295.5 -76.5t89 -234.5v-12q0 -35 -13 -48.5t-48 -13.5h-176q-35 0 -48.5 13.5t-13.5 48.5v6q0 92 -85 92t-85 -92 v-238q0 -92 85 -92t85 92v21q0 33 13.5 47t48.5 14h176q35 0 48 -14.5t13 -46.5v-31q0 -158 -89 -234.5t-298 -76.5q-207 0 -296 76.5t-89 234.5z" />
<glyph unicode="&#xaa;" horiz-adv-x="770" d="M201 965q0 23 2 34l33 269q12 92 72.5 145t160.5 53q106 0 182 -67l6 18q16 37 43 37h181q37 0 30 -37l-67 -567q-6 -39 -43 -39h-174q-35 0 -35 39v20q-98 -70 -195 -69q-84 0 -140 45t-56 119zM469 1028q0 -39 43 -39t96 53l23 177q-37 53 -86 53q-51 0 -56 -53 l-20 -177v-14z" />
<glyph unicode="&#xab;" horiz-adv-x="1398" d="M172 418l27 211q4 47 67 84l436 280q14 9 27 9q10 0 19 -7q18 -14 14 -47l-25 -217q-6 -45 -75 -88l-207 -123l176 -127q57 -41 53 -86l-27 -209q-4 -35 -25 -48q-10 -6 -20 -6q-12 0 -24 9l-369 279q-51 39 -47 86zM723 418l25 211q4 47 67 84l438 280q13 9 25 9 q10 0 19 -7q16 -12 16 -36v-11l-27 -217q-6 -45 -74 -88l-208 -123l176 -127q57 -41 53 -86l-25 -209q-4 -35 -25 -48q-10 -6 -20 -6q-13 0 -26 9l-369 279q-51 39 -45 86z" />
<glyph unicode="&#xac;" horiz-adv-x="872" d="M156 688q0 117 80.5 199t197.5 82t199 -82t82 -199t-82 -197.5t-199 -80.5t-197.5 80.5t-80.5 197.5z" />
<glyph unicode="&#xad;" horiz-adv-x="909" d="M168 537v155q0 59 63 60h570q63 0 63 -60v-155q0 -61 -63 -62h-570q-63 1 -63 62z" />
<glyph unicode="&#xae;" horiz-adv-x="1398" d="M207 688v399q0 55 9 101.5t45 99.5t95.5 91t168 62.5t255.5 24.5q123 0 220.5 -16t157 -47t99 -67t59 -81t27 -83.5t7.5 -84.5v-399q0 -45 -7.5 -83t-27 -84t-59 -80.5t-99 -66.5t-157 -47.5t-220.5 -15.5q-147 0 -255.5 24.5t-168 61.5t-95.5 90.5t-45 99.5t-9 101z M428 670q0 -82 79 -125t273.5 -43t271 42t76.5 124v442q0 80 -76.5 122t-271 42t-273.5 -43t-79 -123v-438zM518 641v498q0 43 43 43h256q244 0 244 -185v-32q0 -102 -68 -150l66 -174q2 -7 2 -12q0 -11 -7 -20q-11 -13 -38 -13h-139q-16 0 -23.5 9t-15.5 36l-54 137h-41 v-137q0 -45 -43 -45h-139q-43 0 -43 45zM743 940h50q41 4 41 31v18q0 33 -41 33h-50v-82z" />
<glyph unicode="&#xaf;" horiz-adv-x="854" d="M281 1255l16 134q6 59 72 59h471q33 0 45 -12.5t10 -46.5l-14 -134q-8 -63 -74 -63h-471q-56 0 -56 52q0 5 1 11z" />
<glyph unicode="&#xb0;" horiz-adv-x="954" d="M225 975q0 20 2 37l25 200q14 127 100 190.5t293 63.5q352 0 352 -219q0 -10 -2 -35l-24 -200q-14 -127 -99.5 -190.5t-291.5 -63.5q-355 0 -355 217zM516 1020q0 -45 82 -45q86 0 90 49l21 178v4q0 41 -84 41t-88 -45l-21 -178v-4z" />
<glyph unicode="&#xb1;" horiz-adv-x="1173" d="M117 111v155q0 59 63 60h834q63 0 63 -60v-155q0 -61 -63 -62h-834q-63 1 -63 62zM117 737v156q0 59 63 59h279v172q0 63 59 64h156q61 0 61 -64v-172h279q63 0 63 -59v-156q0 -61 -63 -61h-279v-172q0 -63 -61 -64h-156q-59 0 -59 64v172h-279q-63 0 -63 61z" />
<glyph unicode="&#xb2;" horiz-adv-x="839" d="M184 631l29 221q6 49 22.5 71.5t59.5 41.5l301 139q29 12 35 59l4 31v12q0 57 -72 58q-68 0 -76 -70l-4 -39q-6 -47 -49 -47h-168q-43 0 -39 47l9 80q10 96 94 163.5t256 67.5q152 0 232.5 -65.5t80.5 -153.5v-18l-6 -60q-6 -68 -34 -116.5t-54.5 -69t-69.5 -41.5 l-250 -121q-10 -4 -12 -14l-2 -14h336q45 0 41 -43l-14 -119q-6 -45 -52 -45h-555q-47 0 -43 45z" />
<glyph unicode="&#xb3;" horiz-adv-x="835" d="M180 778q0 10 2 29l6 47q6 45 50 45h168q25 0 31.5 -9t6.5 -36v-10q0 -66 74 -66q29 0 53.5 16.5t24.5 51.5v14q0 63 -72 64h-80q-43 0 -38 43l12 112q6 45 53 45h64q88 0 88 68v10q0 66 -65.5 66t-65.5 -68v-10q-6 -43 -52 -43h-168q-43 0 -39 43l5 47q23 231 348 231 q156 0 231.5 -60t75.5 -142q0 -10 -2 -31l-10 -86q-8 -47 -30 -71.5t-67 -45.5q76 -49 76 -125q0 -4 -1 -12t-1 -12l-10 -86q-27 -219 -348 -219q-162 0 -241 59t-79 141z" />
<glyph unicode="&#xb4;" horiz-adv-x="651" d="M276 1247l109 197q37 63 96 63h234q35 0 41 -17q1 -4 1 -8q0 -16 -18 -38l-172 -215q-39 -43 -90 -43h-174q-39 0 -39 25q-1 14 12 36z" />
<glyph unicode="&#xb5;" horiz-adv-x="1163" d="M51 -360l168 1361q8 63 70 64h215q58 0 58 -50q0 -6 -1 -14l-78 -634q-2 -14 -2 -37q0 -31 15.5 -43.5t54.5 -12.5q94 0 211 84l80 643q8 63 67 64h219q35 0 47 -16q8 -12 8 -32q0 -7 -1 -16l-115 -940q-8 -61 -70 -61h-204q-33 0 -43.5 12.5t-10.5 48.5v35 q-150 -113 -315 -112h-8l-25 -344q-6 -63 -67 -64h-220q-54 0 -54 49q0 8 1 15z" />
<glyph unicode="&#xb6;" horiz-adv-x="1523" d="M229 846q0 20 2 35l37 288q8 63 29.5 109.5t69 87.5t133.5 61.5t213 20.5h317q58 0 58 -50q0 -6 -1 -14l-215 -1744q-8 -63 -67 -64h-230q-54 0 -54 49q0 7 1 15l117 960h-31q-188 0 -283.5 66.5t-95.5 179.5zM999 -360l215 1744q8 63 68 64h229q54 0 55 -49q0 -7 -1 -15 l-215 -1744q-8 -63 -68 -64h-229q-54 0 -55 49q0 8 1 15z" />
<glyph unicode="&#xb7;" horiz-adv-x="559" d="M166 512l22 176q6 63 70 64h225q35 0 45 -15q7 -10 8 -31q0 -8 -1 -18l-21 -176q-10 -63 -70 -63h-225q-35 0 -46 14q-8 11 -8 32q0 8 1 17z" />
<glyph unicode="&#xb8;" horiz-adv-x="630" d="M6 -387l6 45q8 59 72 59h205q23 0 22 23q0 18 -22 18h-166q-73 0 -73 47q0 17 9 39l82 195q21 54 73 53h7l96 -6q27 -2 37.5 -26.5t-0.5 -47.5l-37 -96h58q80 0 124 -42t44 -112q0 -102 -57.5 -156.5t-155.5 -54.5h-267q-59 0 -58 47q0 7 1 15z" />
<glyph unicode="&#xb9;" horiz-adv-x="794" d="M162 627l14 118q2 25 14.5 34t38.5 9h138l55 435l-141 -11q-25 -2 -35 6.5t-8 30.5l16 121q6 37 53 45l365 47q7 2 12 3q4 0 8 -2q8 -3 13.5 -12t3.5 -30l-78 -633h131q27 0 35 -9t6 -34l-15 -118q-6 -45 -49 -45h-532q-51 0 -45 45z" />
<glyph unicode="&#xba;" horiz-adv-x="804" d="M207 991q0 12 4 37l27 221q29 217 333 217q135 0 219 -52t84 -140q0 -4 -4 -43l-26 -217q-29 -213 -332 -213q-137 0 -221 51t-84 139zM471 1028q0 -35 57 -35q51 0 60 41l22 199v6q0 33 -55 33q-57 0 -61 -39l-23 -199v-6z" />
<glyph unicode="&#xbb;" horiz-adv-x="1394" d="M172 113l27 217q6 45 73 88l209 123l-176 127q-57 41 -53 86l24 209q4 35 26 48q10 6 20 6q13 0 26 -9l367 -279q51 -39 47 -86l-25 -211q-4 -47 -67 -84l-439 -280q-14 -9 -25 -9q-10 0 -19 6q-16 11 -16 36q0 6 1 12zM717 113l26 217q6 45 74 88l209 123l-176 127 q-57 41 -53 86l24 209q6 35 27 48q9 6 19 6q12 0 26 -9l369 -279q51 -39 47 -86l-27 -211q-4 -47 -68 -84l-436 -280q-15 -9 -27 -9q-10 0 -19 6q-16 11 -16 36q0 6 1 12z" />
<glyph unicode="&#xbc;" horiz-adv-x="1964" d="M225 627l17 118q2 25 13 34t40 9h135l55 435l-141 -11q-25 -2 -34 6.5t-7 30.5l14 121q6 37 54 45l364 47q12 4 20.5 1t14.5 -12t4 -30l-80 -633h133q25 0 33 -9t6 -34l-14 -118q-6 -45 -49 -45h-533q-51 0 -45 45zM700 -59l562 1566q8 25 19 35t38 10h184q37 0 37 -25 q0 -8 -4 -20l-561 -1566q-16 -45 -55 -45h-187q-36 0 -36 26q0 8 3 19zM1235 244l10 88q2 33 23 80l153 411q16 45 62 45h176q33 0 33 -24q0 -9 -4 -21l-148 -417h125l51 417q6 45 51 45h175q45 0 38 -45l-96 -778q-6 -45 -49 -45h-174q-47 0 -41 45l20 154h-362 q-49 0 -43 45z" />
<glyph unicode="&#xbd;" horiz-adv-x="1959" d="M225 627l17 118q2 25 13 34t40 9h135l55 435l-141 -11q-25 -2 -34 6.5t-7 30.5l14 121q6 37 54 45l364 47q12 4 20.5 1t14.5 -12t4 -30l-80 -633h133q25 0 33 -9t6 -34l-14 -118q-6 -45 -49 -45h-533q-51 0 -45 45zM705 -59l561 1566q8 25 19 35t38 10h184q37 0 37 -25 q0 -8 -4 -20l-561 -1566q-16 -45 -55 -45h-187q-36 0 -36 26q1 8 4 19zM1296 45l29 221q6 49 22.5 71.5t57.5 41.5l303 139q29 12 35 60l4 30v13q0 57 -74 57q-66 0 -74 -70l-4 -39q-6 -47 -49 -47h-168q-43 0 -39 47l9 80q8 96 93 164t257 68q152 0 232.5 -65.5 t80.5 -153.5v-19l-6 -59q-6 -68 -35 -117t-55.5 -69.5t-67.5 -41.5l-250 -120q-10 -4 -12 -15l-2 -14h336q45 0 41 -43l-14 -119q-8 -45 -52 -45h-555q-47 0 -43 45z" />
<glyph unicode="&#xbe;" horiz-adv-x="1996" d="M244 778q0 10 2 29l4 47q6 45 51 45h166q25 0 33 -9t8 -36v-10q0 -66 72 -66q29 0 53 16.5t24 51.5v14q0 63 -71 64h-78q-47 0 -41 43l12 112q6 45 53 45h64q88 0 88 68v10q0 66 -63 66q-68 0 -68 -68v-10q-6 -43 -51 -43h-168q-43 0 -37 43l4 47q20 231 346 231 q156 0 231.5 -60t75.5 -142q0 -10 -2 -31l-10 -86q-6 -47 -28.5 -71.5t-67.5 -45.5q76 -49 76 -125q0 -4 -1 -12t-1 -12l-11 -86q-25 -219 -346 -219q-162 0 -240.5 59t-78.5 141zM731 -59l559 1566q8 25 20.5 35t37.5 10h186q36 0 36 -23q0 -9 -5 -22l-559 -1566 q-16 -45 -56 -45h-188q-35 0 -35 24q0 9 4 21zM1266 244l10 88q2 33 20 80l154 411q18 45 61 45h179q32 0 32 -22q0 -9 -6 -23l-147 -417h127l51 417q6 45 51 45h174q45 0 39 -45l-96 -778q-6 -45 -49 -45h-174q-47 0 -41 45l18 154h-360q-49 0 -43 45z" />
<glyph unicode="&#xbf;" horiz-adv-x="1200" d="M76 -68q0 23 2 48l10 71q16 147 85 223t165 115l133 55q53 25 69.5 42.5t24.5 64.5l6 47q4 35 18.5 48t47.5 13h229q56 0 56 -50v-11l-17 -137q-10 -80 -47 -118t-106 -71l-232 -110q-72 -35 -84 -113l-4 -31q-2 -20 -2 -34q0 -49 44 -76t114 -27q170 0 188 137l10 78 q8 63 66 64h219q56 0 56 -50q0 -6 -1 -14l-16 -133q-23 -160 -147.5 -262t-397.5 -102q-244 0 -366.5 98t-122.5 235zM598 827l23 177q8 61 67 61h230q31 0 44 -12q10 -9 10 -33q0 -7 -1 -16l-21 -177q-8 -66 -69 -65h-232q-33 0 -44 15q-8 11 -8 33q0 8 1 17z" />
<glyph unicode="&#xc0;" horiz-adv-x="1204" d="M31 63l544 1321q27 63 87 64h231q61 0 70 -64l223 -1321q1 -9 1 -16q0 -47 -54 -47h-232q-57 0 -67 63l-31 205h-354l-80 -205q-25 -63 -82 -63h-219q-46 0 -46 31q0 13 9 32zM488 1851q11 18 47 19h223q57 0 80 -64l61 -196q4 -13 4 -24q0 -38 -47 -38h-164 q-53 0 -76 43l-122 215q-10 16 -10 29q-1 8 4 16zM561 545h199l-15 114q-12 98 -12 447q0 -2 -10 -40l-22.5 -90t-28.5 -111l-34 -114q-17 -56 -32 -92z" />
<glyph unicode="&#xc1;" horiz-adv-x="1204" d="M31 63l544 1321q27 63 87 64h231q61 0 70 -64l223 -1321q1 -9 1 -16q0 -47 -54 -47h-232q-57 0 -67 63l-31 205h-354l-80 -205q-25 -63 -82 -63h-219q-46 0 -46 31q0 13 9 32zM561 545h199l-15 114q-12 98 -12 447q0 -2 -10 -40l-22.5 -90t-28.5 -111l-34 -114 q-17 -56 -32 -92zM678 1610l108 196q35 63 97 64h233q35 0 41 -19q1 -4 1 -7q0 -16 -19 -38l-172 -215q-39 -43 -90 -43h-175q-38 0 -38 24q0 15 14 38z" />
<glyph unicode="&#xc2;" horiz-adv-x="1204" d="M31 63l544 1321q27 63 87 64h231q61 0 70 -64l223 -1321q1 -9 1 -16q0 -47 -54 -47h-232q-57 0 -67 63l-31 205h-354l-80 -205q-25 -63 -82 -63h-219q-46 0 -46 31q0 13 9 32zM446 1567q-2 5 -2 9q0 15 19 34l174 196q55 63 108 64h123q51 0 93 -64l126 -196 q9 -14 10 -26q0 -9 -5 -17q-12 -18 -45 -19h-164q-59 0 -80 62l-19 59l-32 -59q-37 -61 -97 -62h-168q-33 1 -41 19zM561 545h199l-15 114q-12 98 -12 447q0 -2 -10 -40l-22.5 -90t-28.5 -111l-34 -114q-17 -56 -32 -92z" />
<glyph unicode="&#xc3;" horiz-adv-x="1204" d="M31 63l544 1321q27 63 87 64h231q61 0 70 -64l223 -1321q1 -9 1 -16q0 -47 -54 -47h-232q-57 0 -67 63l-31 205h-354l-80 -205q-25 -63 -82 -63h-219q-46 0 -46 31q0 13 9 32zM348 1620l25 104q18 76 78.5 119t136.5 43q70 0 125 -22l86 -35q63 -25 69 -25q31 0 43 27 l4 10q14 31 30 43t46 12h115q49 0 48 -46q0 -12 -3 -27l-23 -97q-16 -78 -67 -119.5t-123 -41.5q-84 0 -152 22l-92 31q-64 23 -76 22q-31 0 -40 -28l-5 -10q-12 -33 -27.5 -43.5t-47.5 -10.5h-109q-46 0 -46 41q0 13 5 31zM561 545h199l-15 114q-12 98 -12 447 q0 -2 -10 -40l-22.5 -90t-28.5 -111l-34 -114q-17 -56 -32 -92z" />
<glyph unicode="&#xc4;" horiz-adv-x="1204" d="M31 63l544 1321q27 63 87 64h231q61 0 70 -64l223 -1321q1 -9 1 -16q0 -47 -54 -47h-232q-57 0 -67 63l-31 205h-354l-80 -205q-25 -63 -82 -63h-219q-46 0 -46 31q0 13 9 32zM489 1610l25 196q8 63 70 64h127q35 0 45 -14.5t6 -49.5l-23 -196q-8 -61 -67 -62h-129 q-33 0 -45 15q-9 11 -10 31q0 8 1 16zM561 545h199l-15 114q-12 98 -12 447q0 -2 -10 -40l-22.5 -90t-28.5 -111l-34 -114q-17 -56 -32 -92zM819 1610l25 196q8 63 69 64h129q33 0 44 -15q8 -11 9 -32q0 -8 -1 -17l-25 -196q-8 -61 -68 -62h-129q-33 0 -45 15q-9 11 -9 31 q0 8 1 16z" />
<glyph unicode="&#xc5;" horiz-adv-x="1204" d="M31 63l544 1321q27 63 87 64h231q61 0 70 -64l223 -1321q1 -9 1 -16q0 -47 -54 -47h-232q-57 0 -67 63l-31 205h-354l-80 -205q-25 -63 -82 -63h-219q-46 0 -46 31q0 13 9 32zM530 1669q0 20 2 33l9 57q27 170 272 170q123 0 185.5 -43t62.5 -110q0 -18 -2 -31l-8 -57 q-27 -172 -267 -172q-123 0 -188.5 45t-65.5 108zM561 545h199l-15 114q-12 98 -12 447q0 -2 -10 -40l-22.5 -90t-28.5 -111l-34 -114q-17 -56 -32 -92zM711 1696q0 -49 76.5 -49t84.5 59l5 35v10q0 47 -76 47t-86 -57l-4 -35v-10z" />
<glyph unicode="&#xc6;" horiz-adv-x="1773" d="M27 17q-5 7 -5 15q0 14 13 31l956 1323q41 61 99 62h708q58 0 58 -47q0 -6 -1 -12l-22 -162q-8 -61 -70 -62h-438l-37 -282h406q58 0 58 -49q0 -6 -1 -13l-18 -149q-10 -63 -72 -64h-404l-40 -325h458q60 0 61 -48q0 -6 -1 -12l-23 -162q-8 -61 -70 -61h-731 q-56 0 -56 50q0 6 1 13l27 205h-361l-145 -205q-45 -63 -82 -63h-223q-33 0 -45 17zM721 545h194l43 350q-41 -68 -92 -143z" />
<glyph unicode="&#xc7;" horiz-adv-x="1228" d="M145 307q0 10 5 58l88 737q43 365 559 364q254 0 372.5 -92t118.5 -231q0 -10 -4 -58l-10 -81q-8 -63 -66 -64h-219q-57 0 -57 45q0 8 2 19l4 22q4 27 4 41q0 111 -164 111q-178 0 -194 -138l-76 -612q-6 -35 -6 -41q0 -117 168 -117q174 0 190 140l8 67q8 63 72 64h219 q52 0 52 -49q0 -7 -1 -15l-16 -129q-41 -340 -485 -362l-25 -70h57q78 0 123 -42t45 -112q0 -102 -57 -156.5t-156 -54.5h-266q-59 0 -59 47q0 7 2 15l6 45q8 59 70 59h206q23 0 23 23q0 18 -23 18h-166q-73 0 -72 47q0 17 9 39l61 150q-176 25 -259 110.5t-83 202.5z" />
<glyph unicode="&#xc8;" horiz-adv-x="1077" d="M135 63l162 1321q8 63 70 64h729q58 0 58 -47q0 -6 -1 -12l-23 -166q-8 -61 -69 -62h-438l-35 -276h405q33 0 46.5 -14.5t9.5 -47.5l-21 -153q-8 -63 -70 -64h-405l-39 -319h459q59 0 58 -45q0 -7 -1 -15l-20 -166q-8 -61 -70 -61h-750q-57 0 -56 47q0 7 1 16zM451 1851 q12 18 45 19h225q57 0 78 -64l61 -196q4 -13 4 -24q0 -38 -47 -38h-164q-53 0 -75 43l-121 215q-11 16 -11 29q0 9 5 16z" />
<glyph unicode="&#xc9;" horiz-adv-x="1077" d="M135 63l162 1321q8 63 70 64h729q58 0 58 -47q0 -6 -1 -12l-23 -166q-8 -61 -69 -62h-438l-35 -276h405q33 0 46.5 -14.5t9.5 -47.5l-21 -153q-8 -63 -70 -64h-405l-39 -319h459q59 0 58 -45q0 -7 -1 -15l-20 -166q-8 -61 -70 -61h-750q-57 0 -56 47q0 7 1 16zM600 1610 l109 196q37 63 96 64h235q33 0 39 -19l2 -8q0 -16 -18 -37l-172 -215q-39 -43 -90 -43h-174q-39 0 -40 25q0 15 13 37z" />
<glyph unicode="&#xca;" horiz-adv-x="1077" d="M135 63l162 1321q8 63 70 64h729q58 0 58 -47q0 -6 -1 -12l-23 -166q-8 -61 -69 -62h-438l-35 -276h405q33 0 46.5 -14.5t9.5 -47.5l-21 -153q-8 -63 -70 -64h-405l-39 -319h459q59 0 58 -45q0 -7 -1 -15l-20 -166q-8 -61 -70 -61h-750q-57 0 -56 47q0 7 1 16zM411 1567 q-2 4 -2 9q0 15 17 34l174 196q55 63 109 64h125q51 0 90 -64l129 -196q8 -14 8 -26q0 -9 -5 -17q-11 -18 -46 -19h-164q-57 0 -80 62l-18 59l-33 -59q-35 -61 -94 -62h-170q-33 1 -40 19z" />
<glyph unicode="&#xcb;" horiz-adv-x="1077" d="M135 63l162 1321q8 63 70 64h729q58 0 58 -47q0 -6 -1 -12l-23 -166q-8 -61 -69 -62h-438l-35 -276h405q33 0 46.5 -14.5t9.5 -47.5l-21 -153q-8 -63 -70 -64h-405l-39 -319h459q59 0 58 -45q0 -7 -1 -15l-20 -166q-8 -61 -70 -61h-750q-57 0 -56 47q0 7 1 16zM457 1610 l22 196q8 63 70 64h129q33 0 44 -14.5t7 -49.5l-24 -196q-8 -61 -68 -62h-127q-35 0 -47 15q-8 10 -8 27q0 9 2 20zM786 1610l23 196q8 63 72 64h127q35 0 45 -15q7 -10 7 -30q0 -8 -1 -19l-25 -196q-8 -61 -67 -62h-127q-35 0 -46 15q-8 11 -9 31q0 7 1 16z" />
<glyph unicode="&#xcc;" horiz-adv-x="606" d="M135 63l162 1321q8 63 70 64h229q35 0 45 -14q7 -10 7 -31q0 -8 -1 -19l-162 -1321q-8 -63 -65 -63h-230q-57 0 -56 47q0 7 1 16zM200 1851q11 18 46 19h223q57 0 78 -64l61 -196q4 -15 5 -26q0 -36 -46 -36h-164q-53 0 -77 43l-121 215q-10 16 -10 29q0 8 5 16z" />
<glyph unicode="&#xcd;" horiz-adv-x="606" d="M135 63l162 1321q8 63 70 64h229q35 0 45 -14.5t6 -49.5l-162 -1321q-8 -63 -65 -63h-230q-57 0 -56 47q0 7 1 16zM369 1610l108 196q37 63 96 64h234q35 0 41 -19q1 -4 1 -8q0 -16 -18 -37l-174 -215q-37 -43 -88 -43h-176q-38 0 -38 24q0 15 14 38z" />
<glyph unicode="&#xce;" horiz-adv-x="606" d="M135 63l162 1321q8 63 70 64h229q35 0 45 -14.5t6 -49.5l-162 -1321q-8 -63 -65 -63h-230q-57 0 -56 47q0 7 1 16zM167 1567q-2 4 -2 9q0 15 17 34l176 196q55 63 109 64h123q51 0 92 -64l127 -196q8 -14 8 -26q0 -9 -5 -17q-11 -18 -46 -19h-164q-57 0 -78 62l-20 59 l-31 -59q-37 -61 -96 -62h-168q-35 1 -42 19z" />
<glyph unicode="&#xcf;" horiz-adv-x="606" d="M135 63l162 1321q8 63 70 64h229q35 0 45 -14.5t6 -49.5l-162 -1321q-8 -63 -65 -63h-230q-57 0 -56 47q0 7 1 16zM209 1610l22 196q10 63 72 64h127q35 0 45 -14.5t6 -49.5l-22 -196q-10 -61 -70 -62h-127q-35 0 -46 15q-8 11 -8 31q0 7 1 16zM539 1610l24 196 q8 63 70 64h127q35 0 45 -15q7 -10 7 -30q0 -8 -1 -19l-23 -196q-8 -61 -67 -62h-129q-35 0 -46 15q-8 11 -8 31q0 7 1 16z" />
<glyph unicode="&#xd0;" horiz-adv-x="1320" d="M55 659l15 136q8 59 73 59h86l68 530q8 63 70 64h464q258 0 388.5 -94t130.5 -236q0 -23 -7 -67l-81 -686q-20 -158 -152.5 -261.5t-419.5 -103.5h-510q-47 0 -46 45q0 8 1 18l66 535h-90q-56 0 -57 48q0 6 1 13zM514 287h195q84 0 141 34.5t65 104.5l72 567q4 20 4 51 q0 117 -178 117h-190l-39 -307h127q35 0 47 -13.5t8 -45.5l-14 -136q-8 -61 -72 -61h-129z" />
<glyph unicode="&#xd1;" horiz-adv-x="1343" d="M135 63l162 1321q8 63 70 64h200q39 0 54 -25l284 -604q35 -74 56 -160l88 725q8 63 69 64h209q35 0 45 -14q7 -10 7 -31q0 -8 -1 -19l-161 -1321q-8 -63 -66 -63h-201q-45 0 -57 31l-270 565q-39 82 -70 192l-88 -725q-8 -63 -68 -63h-207q-57 0 -56 47q0 7 1 16z M483 1620l27 104q18 76 77.5 119t137.5 43q70 0 125 -22l86 -35q63 -25 70 -25q29 0 43 27l4 10q14 31 29.5 43t43.5 12h115q49 0 49 -46q0 -12 -4 -27l-20 -97q-18 -78 -68.5 -119.5t-124.5 -41.5q-82 0 -151 22l-91 31q-66 23 -77 22q-29 0 -41 -28l-4 -10 q-12 -33 -26.5 -43.5t-47.5 -10.5h-109q-47 0 -47 43q0 12 4 29z" />
<glyph unicode="&#xd2;" horiz-adv-x="1300" d="M145 309q1 12 5 56l88 737q20 158 156 261t421 103q256 0 385 -94t129 -233q0 -16 -4 -56l-90 -735q-18 -158 -155.5 -261t-424.5 -103q-254 0 -382 93t-128 232zM502 387q0 -117 184 -117q82 0 139.5 34t65.5 106l76 610q4 39 4 41q0 117 -180 117q-80 0 -139.5 -35 t-67.5 -103l-76 -612q-6 -35 -6 -41zM529 1851q11 18 46 19h224q57 0 78 -64l63 -196q4 -13 4 -24q0 -38 -47 -38h-164q-53 0 -78 43l-120 215q-10 16 -10 29q-1 8 4 16z" />
<glyph unicode="&#xd3;" horiz-adv-x="1300" d="M145 309q0 12 5 56l88 737q20 158 156 261t421 103q256 0 385 -94t129 -233q0 -16 -4 -56l-90 -735q-18 -158 -155.5 -261t-424.5 -103q-254 0 -382 93t-128 232zM502 387q0 -117 184 -117q82 0 139.5 34t65.5 106l76 610q4 39 4 41q0 117 -180 117q-80 0 -139.5 -35 t-67.5 -103l-76 -612q-6 -35 -6 -41zM694 1610l109 196q37 63 96 64h234q35 0 41 -19q1 -4 1 -8q0 -16 -18 -37l-174 -215q-37 -43 -88 -43h-174q-40 0 -40 25q-1 14 13 37z" />
<glyph unicode="&#xd4;" horiz-adv-x="1300" d="M145 309q1 12 5 56l88 737q20 158 156 261t421 103q256 0 385 -94t129 -233q0 -16 -4 -56l-90 -735q-18 -158 -155.5 -261t-424.5 -103q-254 0 -382 93t-128 232zM502 387q0 -117 184 -117q82 0 139.5 34t65.5 106l76 610q4 39 4 41q0 117 -180 117q-80 0 -139.5 -35 t-67.5 -103l-76 -612q-6 -35 -6 -41zM517 1567q-2 4 -2 9q0 15 17 34l175 196q55 63 108 64h125q51 0 90 -64l129 -196q8 -14 8 -26q0 -9 -5 -17q-11 -18 -46 -19h-164q-57 0 -80 62l-18 59l-33 -59q-35 -61 -94 -62h-170q-33 1 -40 19z" />
<glyph unicode="&#xd5;" horiz-adv-x="1300" d="M145 309q0 12 5 56l88 737q20 158 156 261t421 103q256 0 385 -94t129 -233q0 -16 -4 -56l-90 -735q-18 -158 -155.5 -261t-424.5 -103q-254 0 -382 93t-128 232zM451 1620l26 104q18 76 78.5 119t136.5 43q70 0 125 -22l86 -35q63 -25 70 -25q29 0 43 27l4 10 q14 31 29.5 43t46.5 12h114q49 0 49 -46q0 -12 -4 -27l-22 -97q-16 -78 -67.5 -119.5t-123.5 -41.5q-84 0 -151 22l-92 31q-63 23 -76 22q-31 0 -41 -28l-4 -10q-14 -33 -28.5 -43.5t-47.5 -10.5h-108q-47 0 -47 44q0 13 4 28zM502 387q0 -117 184 -117q82 0 139.5 34 t65.5 106l76 610q4 39 4 41q0 117 -180 117q-80 0 -139.5 -35t-67.5 -103l-76 -612q-6 -35 -6 -41z" />
<glyph unicode="&#xd6;" horiz-adv-x="1300" d="M145 309q0 12 5 56l88 737q20 158 156 261t421 103q256 0 385 -94t129 -233q0 -16 -4 -56l-90 -735q-18 -158 -155.5 -261t-424.5 -103q-254 0 -382 93t-128 232zM502 387q0 -117 184 -117q82 0 139.5 34t65.5 106l76 610q4 39 4 41q0 117 -180 117q-80 0 -139.5 -35 t-67.5 -103l-76 -612q-6 -35 -6 -41zM557 1610l25 196q8 63 69 64h129q33 0 44.5 -14.5t6.5 -49.5l-24 -196q-8 -61 -68 -62h-129q-33 0 -45 15q-9 11 -9 31q0 8 1 16zM889 1610l22 196q8 63 70 64h129q33 0 44 -15q8 -11 8 -32q0 -8 -1 -17l-24 -196q-8 -61 -68 -62h-127 q-35 0 -46 15q-8 11 -8 31q0 7 1 16z" />
<glyph unicode="&#xd7;" horiz-adv-x="1148" d="M193 549q-12 19 -12 36q0 29 36 48l240 137l-140 242q-13 22 -12 39q0 28 31 47l135 78q20 11 36 11q30 0 50 -36l139 -242l242 140q21 12 38 11q28 0 46 -32l80 -133q10 -19 10 -35q0 -31 -37 -53l-239 -137l137 -242q12 -21 12 -38q0 -29 -35 -48l-135 -76 q-19 -12 -35 -12q-28 0 -47 37l-139 239l-240 -139q-20 -11 -36 -11q-30 0 -50 36z" />
<glyph unicode="&#xd8;" horiz-adv-x="1300" d="M145 307q0 12 5 55l88 738q20 158 156 260t421 102q152 0 270 -37l27 37q41 66 84 66h78q30 0 30 -21q0 -16 -18 -45l-67 -108q111 -84 110 -217q0 -16 -4 -56l-90 -737q-18 -156 -155.5 -259t-424.5 -103q-154 0 -272 36l-23 -34q-25 -37 -41 -51.5t-49 -14.5h-71 q-25 0 -28 19.5t13 46.5l68 106q-107 84 -107 217zM518 514l397 637q-47 25 -125.5 25t-138 -35t-67.5 -105zM553 295q43 -27 133 -27q82 0 139.5 34t65.5 106l65 530z" />
<glyph unicode="&#xd9;" horiz-adv-x="1320" d="M156 313q0 8 6 66l123 1005q10 63 69 64h230q54 0 54 -49q0 -7 -1 -15l-115 -923q-6 -51 -6 -72q0 -59 50 -89t128 -30q84 0 141.5 34t65.5 106l121 974q8 63 68 64h231q54 0 54 -49q0 -7 -1 -15l-129 -1036q-20 -160 -153.5 -262t-417.5 -102q-252 0 -385 95t-133 234z M563 1851q12 18 45 19h226q57 0 77 -64l62 -196q4 -14 4 -25q0 -36 -47 -37h-164q-53 0 -76 43l-121 215q-11 16 -11 29q0 9 5 16z" />
<glyph unicode="&#xda;" horiz-adv-x="1320" d="M156 313q0 8 6 66l123 1005q10 63 69 64h230q54 0 54 -49q0 -7 -1 -15l-115 -923q-6 -51 -6 -72q0 -59 50 -89t128 -30q84 0 141.5 34t65.5 106l121 974q8 63 68 64h231q54 0 54 -49q0 -7 -1 -15l-129 -1036q-20 -160 -153.5 -262t-417.5 -102q-252 0 -385 95t-133 234z M717 1610l110 196q35 63 95 64h235q33 0 40 -19q2 -4 2 -8q0 -16 -19 -37l-172 -215q-39 -43 -90 -43h-175q-39 0 -39 25q0 15 13 37z" />
<glyph unicode="&#xdb;" horiz-adv-x="1320" d="M156 313q0 8 6 66l123 1005q10 63 69 64h230q54 0 54 -49q0 -7 -1 -15l-115 -923q-6 -51 -6 -72q0 -59 50 -89t128 -30q84 0 141.5 34t65.5 106l121 974q8 63 68 64h231q54 0 54 -49q0 -7 -1 -15l-129 -1036q-20 -160 -153.5 -262t-417.5 -102q-252 0 -385 95t-133 234z M512 1567q-2 5 -2 9q0 15 18 34l174 196q55 63 109 64h125q51 0 90 -64l129 -196q8 -14 8 -26q0 -9 -5 -17q-11 -18 -46 -19h-164q-57 0 -80 62l-18 59l-33 -59q-35 -61 -94 -62h-170q-33 1 -41 19z" />
<glyph unicode="&#xdc;" horiz-adv-x="1320" d="M156 313q0 8 6 66l123 1005q10 63 69 64h230q54 0 54 -49q0 -7 -1 -15l-115 -923q-6 -51 -6 -72q0 -59 50 -89t128 -30q84 0 141.5 34t65.5 106l121 974q8 63 68 64h231q54 0 54 -49q0 -7 -1 -15l-129 -1036q-20 -160 -153.5 -262t-417.5 -102q-252 0 -385 95t-133 234z M561 1610l23 196q8 63 69 64h129q33 0 44.5 -14.5t7.5 -49.5l-25 -196q-8 -61 -68 -62h-127q-35 0 -47 15q-8 10 -8 27q0 9 2 20zM891 1610l22 196q8 63 70 64h129q35 0 45 -15q7 -10 7 -30q0 -8 -1 -19l-24 -196q-8 -61 -68 -62h-127q-35 0 -46 15q-8 11 -8 31q0 7 1 16z " />
<glyph unicode="&#xdd;" horiz-adv-x="1187" d="M195 1384q-5 14 -6 25q0 14 9 23q15 16 50 16h254q53 0 69 -64l101 -423q4 -20 9 -50t8 -52.5t3 -24.5l10 22q8 25 22.5 55.5t25.5 49.5l229 423q35 63 84 64h229q51 0 51 -29q0 -14 -12 -35l-493 -847l-60 -474q-10 -63 -67 -63h-230q-56 0 -56 50q0 6 1 13l53 431z M676 1610l108 196q35 63 97 64h233q35 0 41 -19q1 -4 1 -7q0 -16 -19 -38l-172 -215q-39 -43 -91 -43h-174q-38 0 -38 24q0 15 14 38z" />
<glyph unicode="&#xde;" horiz-adv-x="1247" d="M135 63l162 1321q8 63 70 64h229q52 0 52 -52q0 -6 -1 -12l-39 -319h160q256 0 383 -95.5t127 -230.5q0 -33 -2 -43l-19 -164q-20 -158 -155 -259t-420 -101h-182l-15 -109q-8 -63 -65 -63h-230q-57 0 -56 47q0 7 1 16zM535 461h170q86 0 144 33.5t66 103.5l5 41v20 q0 119 -177 119h-170z" />
<glyph unicode="&#xdf;" horiz-adv-x="1402" d="M137 856l17 131q4 31 19 44t48 18l107 12h2l14 115q20 158 156.5 244.5t394.5 86.5q225 0 347 -75.5t122 -208.5q0 -16 -4 -47l-12 -74q-20 -143 -162 -207l-156 -72q-35 -14 -35 -37v-4q0 -25 37 -43l232 -118q70 -37 113.5 -92.5t43.5 -116.5q0 -16 -2 -35l-10 -76 q-18 -156 -111.5 -236.5t-306.5 -80.5q-348 0 -348 247q0 25 2 43l2 25q6 61 70 61h149q35 0 46.5 -15t7.5 -46l-2 -23v-14q0 -68 83 -67q88 0 99 84l6 49v6q0 33 -49 59l-211 101q-139 63 -139 213q0 29 2 45l6 43q20 131 149 192l94 41q70 33 78 94l6 37v15 q0 100 -170 100q-174 0 -188 -115l-135 -1096q-8 -63 -68 -63h-219q-54 0 -54 52q0 5 1 11l90 732h-106q-57 0 -57 46q0 7 1 15z" />
<glyph unicode="&#xe0;" d="M117 254q0 14 4 57l55 443q41 328 346 327q184 0 316 -110l8 30q10 35 23.5 49.5t43.5 14.5h215q54 0 55 -49q0 -7 -1 -15l-115 -938q-8 -63 -70 -63h-204q-53 0 -54 63v37q-51 -37 -79.5 -54t-101.5 -39.5t-150 -22.5q-139 0 -215 70.5t-76 199.5zM442 1490q12 17 45 17 h224q57 0 80 -63l61 -197q4 -13 4 -23q0 -38 -47 -38h-164q-53 0 -76 43l-123 215q-9 16 -9 29q0 10 5 17zM467 334q0 -59 74 -60q88 0 221 88l43 340q-111 88 -201 89q-35 0 -56.5 -15.5t-26.5 -31t-9 -44.5l-43 -335q-2 -17 -2 -31z" />
<glyph unicode="&#xe1;" d="M117 254q0 14 4 57l55 443q41 328 346 327q184 0 316 -110l8 30q10 35 23.5 49.5t43.5 14.5h215q54 0 55 -49q0 -7 -1 -15l-115 -938q-8 -63 -70 -63h-204q-53 0 -54 63v37q-51 -37 -79.5 -54t-101.5 -39.5t-150 -22.5q-139 0 -215 70.5t-76 199.5zM467 334q0 -59 74 -60 q88 0 221 88l43 340q-111 88 -201 89q-35 0 -56.5 -15.5t-26.5 -31t-9 -44.5l-43 -335q-2 -17 -2 -31zM578 1247l108 197q37 63 96 63h234q35 0 41 -17q1 -4 1 -8q0 -16 -18 -38l-174 -215q-37 -43 -88 -43h-176q-38 0 -38 24q0 14 14 37z" />
<glyph unicode="&#xe2;" d="M117 254q0 14 4 57l55 443q41 328 346 327q184 0 316 -110l8 30q10 35 23.5 49.5t43.5 14.5h215q54 0 55 -49q0 -7 -1 -15l-115 -938q-8 -63 -70 -63h-204q-53 0 -54 63v37q-51 -37 -79.5 -54t-101.5 -39.5t-150 -22.5q-139 0 -215 70.5t-76 199.5zM395 1204q-2 5 -2 10 q0 15 19 33l174 197q55 63 108 63h123q51 0 92 -63l127 -197q9 -14 10 -26q0 -9 -6 -17q-12 -18 -45 -18h-164q-57 0 -79 61l-19 62l-33 -62q-37 -61 -96 -61h-168q-33 0 -41 18zM467 334q0 -59 74 -60q88 0 221 88l43 340q-111 88 -201 89q-35 0 -56.5 -15.5t-26.5 -31 t-9 -44.5l-43 -335q-2 -17 -2 -31z" />
<glyph unicode="&#xe3;" d="M117 254q0 14 4 57l55 443q41 328 346 327q184 0 316 -110l8 30q10 35 23.5 49.5t43.5 14.5h215q54 0 55 -49q0 -7 -1 -15l-115 -938q-8 -63 -70 -63h-204q-53 0 -54 63v37q-51 -37 -79.5 -54t-101.5 -39.5t-150 -22.5q-139 0 -215 70.5t-76 199.5zM338 1237l27 104 q18 76 77.5 119t137.5 43q70 0 125 -22l86 -35q63 -25 69 -25q31 0 43 27l4 8q14 33 29.5 44t44.5 11h117q47 0 47 -42q0 -13 -4 -29l-21 -97q-16 -78 -67.5 -119.5t-124.5 -41.5q-82 0 -150 22l-92 31q-63 23 -78 22q-29 0 -39 -28l-4 -10q-14 -33 -28.5 -43.5t-47.5 -10.5 h-108q-47 0 -47 43q0 12 4 29zM467 334q0 -59 74 -60q88 0 221 88l43 340q-111 88 -201 89q-35 0 -56.5 -15.5t-26.5 -31t-9 -44.5l-43 -335q-2 -17 -2 -31z" />
<glyph unicode="&#xe4;" d="M117 254q0 14 4 57l55 443q41 328 346 327q184 0 316 -110l8 30q10 35 23.5 49.5t43.5 14.5h215q54 0 55 -49q0 -7 -1 -15l-115 -938q-8 -63 -70 -63h-204q-53 0 -54 63v37q-51 -37 -79.5 -54t-101.5 -39.5t-150 -22.5q-139 0 -215 70.5t-76 199.5zM442 1247l25 197 q8 63 70 63h127q35 0 46 -14t5 -49l-23 -197q-8 -61 -67 -61h-129q-33 0 -45 14q-9 11 -10 32q0 7 1 15zM467 334q0 -59 74 -60q88 0 221 88l43 340q-111 88 -201 89q-35 0 -56.5 -15.5t-26.5 -31t-9 -44.5l-43 -335q-2 -17 -2 -31zM774 1247l23 197q8 63 69 63h129 q33 0 44 -14q8 -11 9 -32q0 -8 -1 -17l-25 -197q-8 -61 -68 -61h-127q-35 0 -47 14q-8 10 -8 27q0 9 2 20z" />
<glyph unicode="&#xe5;" d="M117 254q0 14 4 57l55 443q41 328 346 327q184 0 316 -110l8 30q10 35 23.5 49.5t43.5 14.5h215q54 0 55 -49q0 -7 -1 -15l-115 -938q-8 -63 -70 -63h-204q-53 0 -54 63v37q-51 -37 -79.5 -54t-101.5 -39.5t-150 -22.5q-139 0 -215 70.5t-76 199.5zM467 334q0 -59 74 -60 q88 0 221 88l43 340q-111 88 -201 89q-35 0 -56.5 -15.5t-26.5 -31t-9 -44.5l-43 -335q-2 -17 -2 -31zM479 1303q0 20 2 32l8 58q27 170 273 170q123 0 185.5 -43t62.5 -111q0 -18 -2 -31l-9 -57q-27 -170 -266 -170q-123 0 -188.5 44.5t-65.5 107.5zM659 1329q0 -49 77 -49 t85 59l6 35v10q0 47 -76.5 47.5t-86.5 -57.5l-5 -35v-10z" />
<glyph unicode="&#xe6;" horiz-adv-x="1667" d="M106 217q0 20 3 39l10 92q12 123 106 199t269 76h258l12 100q4 29 4 35q0 80 -113 80q-70 0 -99.5 -17.5t-33.5 -66.5l-2 -19q-6 -61 -71 -61h-193q-31 0 -43 12t-10 49l2 25q27 322 471 321q186 0 276 -84q115 84 310 84q205 0 311 -75.5t106 -210.5q0 -31 -4 -45 l-26 -236q-6 -57 -66 -57h-518l-14 -125q-2 -14 -2 -21q0 -78 120 -78q123 0 138 84l2 13q8 61 69 61h183q54 0 53 -50v-11l-2 -21q-14 -158 -120 -241.5t-341 -83.5q-274 0 -383 127q-154 -127 -342 -127q-154 0 -237 65.5t-83 167.5zM446 295q0 -47 66 -47q84 0 203 76 l10 71h-195q-76 0 -81 -65l-3 -27v-8zM1094 674h256l10 61v17q0 80 -121 79q-125 0 -137 -96z" />
<glyph unicode="&#xe7;" horiz-adv-x="1058" d="M119 272q0 16 2 43l53 435q43 332 496 331q213 0 320.5 -78.5t107.5 -211.5q0 -16 -2 -46l-2 -28q-8 -61 -72 -62h-201q-53 0 -53 58v30q0 41 -27.5 56.5t-89.5 15.5q-68 0 -99.5 -19.5t-37.5 -70.5l-43 -346q-6 -47 -6 -55q0 -74 119 -74q68 0 99.5 20.5t39.5 71.5l2 27 q6 61 68 61h202q57 0 54 -61l-5 -54q-29 -307 -419 -329l-27 -70h57q80 0 124 -42t44 -112q0 -102 -57 -156.5t-156 -54.5h-266q-59 0 -59 47q0 7 2 15l8 45q8 59 70 59h206q20 0 21 23q0 18 -21 18h-165q-74 0 -74 49q0 16 8 37l63 152q-141 23 -212.5 94t-71.5 182z" />
<glyph unicode="&#xe8;" horiz-adv-x="1071" d="M119 272q0 18 2 43l53 435q43 332 490 331q205 0 312 -75.5t107 -210.5q0 -31 -2 -45l-26 -236q-6 -57 -66 -57h-518l-10 -92q-4 -31 -4 -54q0 -78 116 -78q125 0 138 84l2 13q10 61 71 61h183q55 0 54 -45q0 -7 -1 -16l-2 -15q-23 -166 -125 -248.5t-342 -82.5 q-213 0 -322.5 76.5t-109.5 211.5zM384 1490q11 17 46 17h223q57 0 80 -63l62 -197q4 -13 3 -23q0 -38 -46 -38h-164q-53 0 -76 43l-123 215q-10 17 -10 30q0 9 5 16zM498 674h258l6 43q2 12 2 35q0 80 -119 79q-125 0 -137 -96z" />
<glyph unicode="&#xe9;" horiz-adv-x="1071" d="M119 272q0 18 2 43l53 435q43 332 490 331q205 0 312 -75.5t107 -210.5q0 -31 -2 -45l-26 -236q-6 -57 -66 -57h-518l-10 -92q-4 -31 -4 -54q0 -78 116 -78q125 0 138 84l2 13q10 61 71 61h183q55 0 54 -45q0 -7 -1 -16l-2 -15q-23 -166 -125 -248.5t-342 -82.5 q-213 0 -322.5 76.5t-109.5 211.5zM498 674h258l6 43q2 12 2 35q0 80 -119 79q-125 0 -137 -96zM535 1247l108 197q37 63 96 63h234q35 0 41 -17q1 -4 1 -8q0 -16 -18 -38l-174 -215q-37 -43 -88 -43h-174q-40 0 -40 24q0 14 14 37z" />
<glyph unicode="&#xea;" horiz-adv-x="1071" d="M119 272q0 18 2 43l53 435q43 332 490 331q205 0 312 -75.5t107 -210.5q0 -31 -2 -45l-26 -236q-6 -57 -66 -57h-518l-10 -92q-4 -31 -4 -54q0 -78 116 -78q125 0 138 84l2 13q10 61 71 61h183q55 0 54 -45q0 -7 -1 -16l-2 -15q-23 -166 -125 -248.5t-342 -82.5 q-213 0 -322.5 76.5t-109.5 211.5zM350 1204q-2 5 -2 10q0 15 19 33l174 197q55 63 108 63h125q49 0 90 -63l129 -197q8 -13 8 -24q0 -10 -6 -19q-12 -18 -45 -18h-164q-57 0 -79 61l-19 62l-33 -62q-35 -61 -94 -61h-170q-33 0 -41 18zM498 674h258l6 43q2 12 2 35 q0 80 -119 79q-125 0 -137 -96z" />
<glyph unicode="&#xeb;" horiz-adv-x="1071" d="M119 272q0 18 2 43l53 435q43 332 490 331q205 0 312 -75.5t107 -210.5q0 -31 -2 -45l-26 -236q-6 -57 -66 -57h-518l-10 -92q-4 -31 -4 -54q0 -78 116 -78q125 0 138 84l2 13q10 61 71 61h183q55 0 54 -45q0 -7 -1 -16l-2 -15q-23 -166 -125 -248.5t-342 -82.5 q-213 0 -322.5 76.5t-109.5 211.5zM379 1247l24 197q8 63 70 63h127q35 0 45 -14t6 -49l-22 -197q-8 -61 -68 -61h-129q-35 0 -46 14q-8 11 -8 31q0 7 1 16zM498 674h258l6 43q2 12 2 35q0 80 -119 79q-125 0 -137 -96zM709 1247l24 197q8 63 70 63h127q35 0 46 -14 q7 -9 7 -27q0 -10 -2 -22l-23 -197q-8 -61 -67 -61h-129q-33 0 -45 14q-9 11 -9 32q0 7 1 15z" />
<glyph unicode="&#xec;" horiz-adv-x="552" d="M113 63l114 938q8 63 72 64h219q33 0 44 -15q8 -11 8 -32q0 -7 -1 -17l-114 -938q-10 -63 -70 -63h-219q-54 0 -54 49q0 7 1 14zM129 1490q12 17 45 17h223q59 0 80 -63l62 -197q4 -13 3 -23q0 -38 -46 -38h-164q-53 0 -76 43l-121 215q-11 17 -11 30q0 9 5 16z" />
<glyph unicode="&#xed;" horiz-adv-x="552" d="M113 63l114 938q8 63 72 64h219q33 0 44 -15.5t7 -48.5l-114 -938q-10 -63 -70 -63h-219q-54 0 -54 49q0 7 1 14zM297 1247l109 197q35 63 94 63h235q33 0 40 -17q2 -4 2 -9q0 -15 -19 -37l-172 -215q-39 -43 -90 -43h-174q-38 0 -39 24q0 14 14 37z" />
<glyph unicode="&#xee;" horiz-adv-x="552" d="M101 1204q-2 4 -1 9q0 15 17 34l174 197q57 63 110 63h123q51 0 92 -63l127 -197q8 -14 8 -25q0 -9 -5 -18q-11 -18 -46 -18h-163q-57 0 -78 61l-21 62l-30 -62q-37 -61 -97 -61h-168q-35 0 -42 18zM113 63l114 938q8 63 72 64h219q33 0 44 -15q8 -11 8 -32q0 -7 -1 -17 l-114 -938q-10 -63 -70 -63h-219q-54 0 -54 49q0 7 1 14z" />
<glyph unicode="&#xef;" horiz-adv-x="552" d="M113 63l114 938q8 63 72 64h219q33 0 44 -15.5t7 -48.5l-114 -938q-10 -63 -70 -63h-219q-54 0 -54 49q0 7 1 14zM145 1247l23 197q8 63 70 63h129q35 0 45 -14t6 -49l-25 -197q-8 -61 -67 -61h-127q-35 0 -46 14q-8 11 -9 31q0 7 1 16zM475 1247l23 197q10 63 71 63h127 q35 0 45 -14q7 -10 8 -31q0 -8 -1 -18l-23 -197q-10 -61 -70 -61h-127q-35 0 -46 14q-8 11 -8 31q0 7 1 16z" />
<glyph unicode="&#xf0;" horiz-adv-x="1220" d="M119 279q0 25 2 36l53 439q41 328 346 327q186 0 318 -110l16 131v4l-45 -25q-20 -9 -36 -9q-29 0 -44 32l-20 37q-6 14 -7 26q0 33 43 58l68 39q-25 10 -82 10h-215q-57 0 -57 47q0 7 2 16l12 109q6 61 72 61h215q229 0 342 -90l90 51q19 11 35 11q29 0 49 -35l18 -37 q8 -14 8 -27q0 -30 -42 -55l-80 -45q4 -16 4 -55q0 -33 -2 -49l-107 -861q-39 -332 -495 -331q-217 0 -339 80t-122 215zM465 330q0 -80 135 -80q150 0 160 94l45 358q-117 88 -201 89q-37 0 -58.5 -15.5t-26.5 -31t-9 -44.5l-43 -356q0 -2 -1 -7t-1 -7z" />
<glyph unicode="&#xf1;" horiz-adv-x="1177" d="M113 63l114 941q6 61 70 61h203q33 0 44 -14.5t11 -46.5v-37q150 115 334 114q125 0 207 -71.5t82 -188.5q0 -14 -4 -55l-87 -703q-8 -63 -69 -63h-215q-56 0 -56 50q0 6 1 13l73 619q6 39 6 49q0 31 -16 45.5t-57 14.5q-102 0 -222 -86l-77 -642q-10 -63 -70 -63h-219 q-54 0 -54 49q0 7 1 14zM354 1237l25 104q18 76 78.5 119t136.5 43q70 0 127 -22l84 -35q63 -25 69 -25q29 0 43 27l5 8q16 33 30.5 44t44.5 11h115q49 0 49 -44q0 -12 -4 -27l-22 -97q-16 -78 -67.5 -119.5t-123.5 -41.5q-84 0 -151 22l-93 31q-63 23 -75 22q-31 0 -41 -28 l-4 -10q-12 -33 -27.5 -43.5t-48.5 -10.5h-109q-45 0 -45 42q0 13 4 30z" />
<glyph unicode="&#xf2;" horiz-adv-x="1144" d="M119 279q0 18 2 36l53 435q20 158 148.5 244.5t371.5 86.5q215 0 337 -78.5t122 -211.5q0 -20 -2 -41l-53 -435q-43 -332 -518 -331q-217 0 -339 80t-122 215zM431 1490q11 17 46 17h223q57 0 80 -63l62 -197q4 -13 3 -23q0 -38 -46 -38h-164q-53 0 -78 43l-121 215 q-10 17 -9 30q-1 9 4 16zM467 328q0 -78 135 -78q147 0 158 94l47 379v12q0 80 -135 80q-147 0 -158 -92l-47 -379v-16z" />
<glyph unicode="&#xf3;" horiz-adv-x="1144" d="M119 279q0 18 2 36l53 435q20 158 148.5 244.5t371.5 86.5q215 0 337 -78.5t122 -211.5q0 -20 -2 -41l-53 -435q-43 -332 -518 -331q-217 0 -339 80t-122 215zM467 328q0 -78 135 -78q147 0 158 94l47 379v12q0 80 -135 80q-147 0 -158 -92l-47 -379v-16zM569 1247 l109 197q35 63 96 63h234q35 0 41 -17q1 -3 1 -7q0 -16 -20 -39l-172 -215q-39 -43 -90 -43h-174q-38 0 -38 24q-1 14 13 37z" />
<glyph unicode="&#xf4;" horiz-adv-x="1144" d="M119 279q0 18 2 36l53 435q20 158 148.5 244.5t371.5 86.5q215 0 337 -78.5t122 -211.5q0 -20 -2 -41l-53 -435q-43 -332 -518 -331q-217 0 -339 80t-122 215zM393 1204q-2 5 -2 10q0 15 19 33l174 197q55 63 108 63h123q51 0 92 -63l127 -197q9 -14 10 -26q0 -9 -6 -17 q-12 -18 -45 -18h-164q-59 0 -79 61l-19 62l-33 -62q-37 -61 -96 -61h-168q-33 0 -41 18zM467 328q0 -78 135 -78q147 0 158 94l47 379v12q0 80 -135 80q-147 0 -158 -92l-47 -379v-16z" />
<glyph unicode="&#xf5;" horiz-adv-x="1144" d="M119 279q0 18 2 36l53 435q20 158 148.5 244.5t371.5 86.5q215 0 337 -78.5t122 -211.5q0 -20 -2 -41l-53 -435q-43 -332 -518 -331q-217 0 -339 80t-122 215zM297 1237l25 104q18 76 78.5 119t136.5 43q70 0 125 -22l86 -35q63 -25 69 -25q31 0 43 27l4 8q16 33 30.5 44 t45.5 11h115q49 0 48 -44q0 -12 -3 -27l-23 -97q-16 -78 -67.5 -119.5t-122.5 -41.5q-84 0 -152 22l-92 31q-63 23 -76 22q-31 0 -41 -28l-4 -10q-12 -33 -27.5 -43.5t-48.5 -10.5h-108q-46 0 -46 41q0 13 5 31zM467 328q0 -78 135 -78q147 0 158 94l47 379v12q0 80 -135 80 q-147 0 -158 -92l-47 -379v-16z" />
<glyph unicode="&#xf6;" horiz-adv-x="1144" d="M119 279q0 18 2 36l53 435q20 158 148.5 244.5t371.5 86.5q215 0 337 -78.5t122 -211.5q0 -20 -2 -41l-53 -435q-43 -332 -518 -331q-217 0 -339 80t-122 215zM432 1247l25 197q8 63 69 63h127q35 0 45.5 -14t6.5 -49l-23 -197q-8 -61 -68 -61h-129q-35 0 -46 14 q-8 11 -8 31q0 7 1 16zM467 328q0 -78 135 -78q147 0 158 94l47 379v12q0 80 -135 80q-147 0 -158 -92l-47 -379v-16zM762 1247l24 197q8 63 70 63h127q35 0 46 -14q7 -9 7 -27q0 -10 -2 -22l-22 -197q-8 -61 -68 -61h-129q-33 0 -45 14q-9 11 -9 32q0 7 1 15z" />
<glyph unicode="&#xf7;" horiz-adv-x="1228" d="M168 537v155q0 59 63 60h889q63 0 64 -60v-155q0 -61 -64 -62h-889q-63 1 -63 62zM502 135v176q0 63 63 64h226q59 0 59 -64v-176q0 -35 -13.5 -49t-45.5 -14h-226q-35 0 -49 14t-14 49zM502 913v177q0 66 63 65h226q59 0 59 -65v-177q0 -33 -13.5 -47t-45.5 -14h-226 q-35 0 -49 14t-14 47z" />
<glyph unicode="&#xf8;" horiz-adv-x="1144" d="M119 279q0 25 2 36l53 435q20 158 148.5 244.5t371.5 86.5q113 0 203 -22l16 24q43 66 84 66h74q30 0 31 -20q0 -16 -21 -46l-53 -79q125 -80 125 -213q0 -29 -2 -41l-53 -435q-43 -332 -518 -331q-111 0 -205 22l-13 -20q-25 -37 -42 -50.5t-50 -13.5h-67 q-18 0 -23.5 10.5t-0.5 23.5t16 30l49 73q-125 81 -125 220zM475 416l258 393q-31 6 -61 6q-147 0 -158 -92zM539 254q35 -4 63 -4q147 0 158 94l39 305z" />
<glyph unicode="&#xf9;" horiz-adv-x="1163" d="M125 242q0 18 2 37l90 722q8 63 70 64h215q57 0 56 -48q0 -7 -1 -16l-76 -634q-2 -18 -2 -37q0 -31 15.5 -43.5t54.5 -12.5q94 0 211 84l80 643q8 63 67 64h219q35 0 46 -16q8 -12 9 -32q0 -7 -1 -16l-115 -940q-8 -61 -70 -61h-204q-33 0 -43.5 12.5t-10.5 48.5v35 q-150 -113 -321 -112q-131 0 -211 71.5t-80 186.5zM429 1490q11 17 46 17h223q57 0 80 -63l62 -197q4 -13 3 -23q0 -38 -46 -38h-164q-53 0 -78 43l-121 215q-10 17 -10 30q0 9 5 16z" />
<glyph unicode="&#xfa;" horiz-adv-x="1163" d="M125 242q0 18 2 37l90 722q8 63 70 64h215q57 0 56 -48q0 -7 -1 -16l-76 -634q-2 -18 -2 -37q0 -31 15.5 -43.5t54.5 -12.5q94 0 211 84l80 643q8 63 67 64h219q35 0 46 -16q8 -12 9 -32q0 -7 -1 -16l-115 -940q-8 -61 -70 -61h-204q-33 0 -43.5 12.5t-10.5 48.5v35 q-150 -113 -321 -112q-131 0 -211 71.5t-80 186.5zM594 1247l108 197q37 63 97 63h233q35 0 41 -17q1 -4 1 -8q0 -16 -17 -38l-172 -215q-39 -43 -90 -43h-174q-40 0 -41 24q0 14 14 37z" />
<glyph unicode="&#xfb;" horiz-adv-x="1163" d="M125 242q0 18 2 37l90 722q8 63 70 64h215q57 0 56 -48q0 -7 -1 -16l-76 -634q-2 -18 -2 -37q0 -31 15.5 -43.5t54.5 -12.5q94 0 211 84l80 643q8 63 67 64h219q35 0 46 -16q8 -12 9 -32q0 -7 -1 -16l-115 -940q-8 -61 -70 -61h-204q-33 0 -43.5 12.5t-10.5 48.5v35 q-150 -113 -321 -112q-131 0 -211 71.5t-80 186.5zM393 1204q-2 5 -2 10q0 15 19 33l174 197q55 63 108 63h123q51 0 92 -63l127 -197q9 -14 10 -26q0 -9 -6 -17q-12 -18 -45 -18h-164q-59 0 -79 61l-19 62l-33 -62q-37 -61 -96 -61h-168q-33 0 -41 18z" />
<glyph unicode="&#xfc;" horiz-adv-x="1163" d="M125 242q0 18 2 37l90 722q8 63 70 64h215q57 0 56 -48q0 -7 -1 -16l-76 -634q-2 -18 -2 -37q0 -31 15.5 -43.5t54.5 -12.5q94 0 211 84l80 643q8 63 67 64h219q35 0 46 -16q8 -12 9 -32q0 -7 -1 -16l-115 -940q-8 -61 -70 -61h-204q-33 0 -43.5 12.5t-10.5 48.5v35 q-150 -113 -321 -112q-131 0 -211 71.5t-80 186.5zM434 1247l25 197q8 63 69 63h127q35 0 45.5 -14t6.5 -49l-23 -197q-8 -61 -68 -61h-129q-33 0 -45 14q-9 11 -9 32q0 7 1 15zM764 1247l24 197q8 63 70 63h129q33 0 44 -14q7 -9 7 -27q0 -10 -2 -22l-22 -197 q-8 -61 -68 -61h-129q-33 0 -45 14q-9 11 -9 32q0 7 1 15z" />
<glyph unicode="&#xfd;" horiz-adv-x="1050" d="M137 1001q-3 9 -3 18q0 17 14 29q22 17 59 17h215q29 0 41 -15.5t20 -48.5l74 -385q18 -88 18 -206q41 121 72 194l180 397q27 63 78 64h201q35 0 50 -17q9 -10 9 -23q0 -11 -6 -24l-629 -1361q-31 -63 -79 -64h-162q-33 0 -49.5 17.5t-3.5 46.5l133 323zM549 1247 l108 197q37 63 97 63h235q33 0 39 -17q1 -4 1 -8q0 -16 -17 -38l-172 -215q-39 -43 -90 -43h-175q-39 0 -39 25q0 14 13 36z" />
<glyph unicode="&#xfe;" d="M61 -360l220 1785q8 63 71 64h217q54 0 54 -52v-12l-56 -454q156 111 324 110q135 0 212 -71.5t77 -198.5q0 -18 -4 -57l-56 -443q-41 -328 -344 -327q-184 0 -317 108l-56 -452q-8 -63 -67 -64h-219q-56 0 -56 50q-1 7 0 14zM492 362q104 -88 200 -88q39 0 60.5 16.5 t25.5 30t8 44.5l43 335q0 4 1 14.5t1 14.5q0 61 -75 62q-94 0 -221 -89z" />
<glyph unicode="&#xff;" horiz-adv-x="1050" d="M137 1001q-3 9 -3 18q0 17 14 29q22 17 59 17h215q29 0 41 -15.5t20 -48.5l74 -385q18 -88 18 -206q41 121 72 194l180 397q27 63 78 64h201q35 0 50 -17q9 -10 9 -23q0 -11 -6 -24l-629 -1361q-31 -63 -79 -64h-162q-33 0 -49.5 17.5t-3.5 46.5l133 323zM371 1247 l22 197q10 63 72 63h127q35 0 45 -14t6 -49l-22 -197q-10 -61 -70 -61h-127q-35 0 -46 14q-8 11 -8 31q0 7 1 16zM700 1247l25 197q8 63 70 63h127q35 0 45 -14q7 -10 7 -31q0 -8 -1 -18l-23 -197q-8 -61 -67 -61h-129q-33 0 -45 14q-9 11 -10 32q0 7 1 15z" />
<glyph unicode="&#x100;" horiz-adv-x="1204" d="M31 63l544 1321q27 63 87 64h231q61 0 70 -64l223 -1321q1 -9 1 -16q0 -47 -54 -47h-232q-57 0 -67 63l-31 205h-354l-80 -205q-25 -63 -82 -63h-219q-46 0 -46 31q0 13 9 32zM473 1638l14 134q6 59 74 59h469q35 0 46 -12.5t9 -46.5l-14 -134q-6 -61 -72 -61h-471 q-56 0 -55 51q-1 4 0 10zM561 545h199l-15 114q-12 98 -12 447q0 -2 -10 -40l-22.5 -90t-28.5 -111l-34 -114q-17 -56 -32 -92z" />
<glyph unicode="&#x101;" d="M117 254q0 14 4 57l55 443q41 328 346 327q184 0 316 -110l8 30q10 35 23.5 49.5t43.5 14.5h215q54 0 55 -49q0 -7 -1 -15l-115 -938q-8 -63 -70 -63h-204q-53 0 -54 63v37q-51 -37 -79.5 -54t-101.5 -39.5t-150 -22.5q-139 0 -215 70.5t-76 199.5zM426 1255l14 134 q6 59 74 59h469q35 0 47 -12.5t10 -46.5l-16 -134q-6 -63 -72 -63h-471q-56 0 -56 52q0 5 1 11zM467 334q0 -59 74 -60q88 0 221 88l43 340q-111 88 -201 89q-35 0 -56.5 -15.5t-26.5 -31t-9 -44.5l-43 -335q-2 -17 -2 -31z" />
<glyph unicode="&#x102;" horiz-adv-x="1204" d="M31 63l544 1321q27 63 87 64h231q61 0 70 -64l223 -1321q1 -9 1 -16q0 -47 -54 -47h-232q-57 0 -67 63l-31 205h-354l-80 -205q-25 -63 -82 -63h-219q-46 0 -46 31q0 13 9 32zM473 1782q0 16 4 45l4 28q8 51 62 52h131q29 0 40 -12.5t9 -39.5l-6 -36v-11q0 -59 69 -59 q74 0 80 70l4 36q6 51 64 52h129q33 0 43 -13q7 -9 7 -24q0 -6 -1 -15l-4 -28q-43 -276 -334 -277q-135 0 -218 61.5t-83 170.5zM561 545h199l-15 114q-12 98 -12 447q0 -2 -10 -40l-22.5 -90t-28.5 -111l-34 -114q-17 -56 -32 -92z" />
<glyph unicode="&#x103;" d="M117 254q0 14 4 57l55 443q41 328 346 327q184 0 316 -110l8 30q10 35 23.5 49.5t43.5 14.5h215q54 0 55 -49q0 -7 -1 -15l-115 -938q-8 -63 -70 -63h-204q-53 0 -54 63v37q-51 -37 -79.5 -54t-101.5 -39.5t-150 -22.5q-139 0 -215 70.5t-76 199.5zM426 1389q0 14 4 45 l4 26q8 51 62 51h131q29 0 40 -11t9 -40l-4 -35v-10q0 -61 67 -61q74 0 80 71l4 35q8 51 64 51h129q33 0 43 -11q7 -8 7 -25q0 -7 -1 -15l-4 -26q-43 -276 -334 -277q-135 0 -218 61.5t-83 170.5zM467 334q0 -59 74 -60q88 0 221 88l43 340q-111 88 -201 89 q-35 0 -56.5 -15.5t-26.5 -31t-9 -44.5l-43 -335q-2 -17 -2 -31z" />
<glyph unicode="&#x104;" horiz-adv-x="1204" d="M31 63l544 1321q27 63 87 64h231q61 0 70 -64l223 -1321q1 -9 1 -16q0 -47 -54 -47h-84q-88 0 -88 -121q0 -53 63 -53h49q37 0 52.5 -14.5t11.5 -44.5l-11 -86q-8 -61 -84 -62h-124q-45 0 -87.5 11.5t-83 55.5t-40.5 115q0 152 122 287l-26 180h-354l-80 -205 q-25 -63 -82 -63h-219q-46 0 -46 31q0 13 9 32zM561 545h199l-15 114q-12 98 -12 445q0 -2 -10 -40l-24 -90l-29 -111l-33 -114q-16 -56 -31 -90z" />
<glyph unicode="&#x105;" d="M117 254q0 14 4 57l55 443q41 328 346 327q184 0 316 -110l8 30q10 35 23.5 49.5t43.5 14.5h215q54 0 55 -49q0 -7 -1 -15l-115 -938q-8 -63 -70 -63h-22q-82 -6 -82 -117q0 -57 68 -57h10q37 0 53 -14.5t10 -44.5l-10 -86q-8 -61 -84 -62h-86q-45 0 -87 11.5t-83 55.5 t-41 115q0 125 96 242v57q-51 -37 -79.5 -54t-101.5 -39.5t-150 -22.5q-139 0 -215 70.5t-76 199.5zM467 334q0 -59 74 -60q88 0 221 88l43 340q-111 88 -201 89q-35 0 -56.5 -15.5t-26.5 -31t-9 -44.5l-43 -335q-2 -11 -2 -31z" />
<glyph unicode="&#x106;" horiz-adv-x="1228" d="M145 307q0 10 5 58l88 737q43 365 559 364q254 0 372.5 -92t118.5 -231q0 -10 -4 -58l-10 -81q-8 -63 -66 -64h-219q-57 0 -57 45q0 8 2 19l4 22q4 27 4 41q0 111 -164 111q-178 0 -194 -138l-76 -612q-6 -35 -6 -41q0 -117 168 -117q174 0 190 140l8 67q8 63 72 64h219 q52 0 52 -49q0 -7 -1 -15l-16 -129q-41 -365 -557 -364q-254 0 -373 91t-119 232zM692 1610l109 196q37 63 96 64h233q35 0 41 -19l2 -8q0 -16 -18 -37l-174 -215q-37 -43 -88 -43h-176q-38 0 -39 24q0 15 14 38z" />
<glyph unicode="&#x107;" horiz-adv-x="1058" d="M119 272q0 16 2 43l53 435q43 332 496 331q213 0 320.5 -78.5t107.5 -211.5q0 -16 -2 -46l-2 -28q-8 -61 -72 -62h-201q-53 0 -53 58v30q0 41 -27.5 56.5t-89.5 15.5q-68 0 -99.5 -19.5t-37.5 -70.5l-43 -346q-6 -47 -6 -55q0 -74 119 -74q68 0 99.5 20.5t39.5 71.5l2 27 q6 61 68 61h202q57 0 54 -61l-5 -54q-29 -332 -493 -331q-213 0 -322.5 76.5t-109.5 211.5zM561 1247l109 197q35 63 94 63h235q33 0 40 -17q2 -4 2 -9q0 -15 -19 -37l-172 -215q-39 -43 -90 -43h-174q-38 0 -39 24q0 14 14 37z" />
<glyph unicode="&#x108;" horiz-adv-x="1228" d="M145 307q0 10 5 58l88 737q43 365 559 364q254 0 372.5 -92t118.5 -231q0 -10 -4 -58l-10 -81q-8 -63 -66 -64h-219q-57 0 -57 45q0 8 2 19l4 22q4 27 4 41q0 111 -164 111q-178 0 -194 -138l-76 -612q-6 -35 -6 -41q0 -117 168 -117q174 0 190 140l8 67q8 63 72 64h219 q52 0 52 -49q0 -7 -1 -15l-16 -129q-41 -365 -557 -364q-254 0 -373 91t-119 232zM488 1567q-2 4 -1 9q0 15 17 34l176 196q55 63 108 64h123q51 0 93 -64l126 -196q9 -14 10 -26q0 -9 -5 -17q-12 -18 -48 -19h-163q-57 0 -78 62l-19 59l-32 -59q-37 -61 -97 -62h-168 q-35 1 -42 19z" />
<glyph unicode="&#x109;" horiz-adv-x="1058" d="M119 272q0 16 2 43l53 435q43 332 496 331q213 0 320.5 -78.5t107.5 -211.5q0 -16 -2 -46l-2 -28q-8 -61 -72 -62h-201q-53 0 -53 58v30q0 41 -27.5 56.5t-89.5 15.5q-68 0 -99.5 -19.5t-37.5 -70.5l-43 -346q-6 -47 -6 -55q0 -74 119 -74q68 0 99.5 20.5t39.5 71.5l2 27 q6 61 68 61h202q57 0 54 -61l-5 -54q-29 -332 -493 -331q-213 0 -322.5 76.5t-109.5 211.5zM374 1204q-2 4 -2 9q0 15 17 34l176 197q55 63 109 63h123q51 0 92 -63l127 -197q8 -14 8 -25q0 -9 -5 -18q-11 -18 -46 -18h-164q-57 0 -78 61l-20 62l-31 -62q-37 -61 -96 -61 h-168q-35 0 -42 18z" />
<glyph unicode="&#x10a;" horiz-adv-x="1228" d="M145 307q0 10 5 58l88 737q43 365 559 364q254 0 372.5 -92t118.5 -231q0 -10 -4 -58l-10 -81q-8 -63 -66 -64h-219q-57 0 -57 45q0 8 2 19l4 22q4 27 4 41q0 111 -164 111q-178 0 -194 -138l-76 -612q-6 -35 -6 -41q0 -117 168 -117q174 0 190 140l8 67q8 63 72 64h219 q52 0 52 -49q0 -7 -1 -15l-16 -129q-41 -365 -557 -364q-254 0 -373 91t-119 232zM633 1610l20 178q6 63 72 63h225q33 0 44 -15q8 -11 9 -32q0 -7 -2 -16l-22 -178q-8 -61 -68 -62h-225q-35 0 -46 15q-8 11 -8 31q0 7 1 16z" />
<glyph unicode="&#x10b;" horiz-adv-x="1058" d="M119 272q0 16 2 43l53 435q43 332 496 331q213 0 320.5 -78.5t107.5 -211.5q0 -16 -2 -46l-2 -28q-8 -61 -72 -62h-201q-53 0 -53 58v30q0 41 -27.5 56.5t-89.5 15.5q-68 0 -99.5 -19.5t-37.5 -70.5l-43 -346q-6 -47 -6 -55q0 -74 119 -74q68 0 99.5 20.5t39.5 71.5l2 27 q6 61 68 61h202q57 0 54 -61l-5 -54q-29 -332 -493 -331q-213 0 -322.5 76.5t-109.5 211.5z" />
<glyph unicode="&#x10c;" horiz-adv-x="1228" d="M145 307q0 10 5 58l88 737q43 365 559 364q254 0 372.5 -92t118.5 -231q0 -10 -4 -58l-10 -81q-8 -63 -66 -64h-219q-57 0 -57 45q0 8 2 19l4 22q4 27 4 41q0 111 -164 111q-178 0 -194 -138l-76 -612q-6 -35 -6 -41q0 -117 168 -117q174 0 190 140l8 67q8 63 72 64h219 q52 0 52 -49q0 -7 -1 -15l-16 -129q-41 -365 -557 -364q-254 0 -373 91t-119 232zM527 1851q11 18 46 19h164q61 0 78 -62l21 -59l30 59q37 61 97 62h167q35 0 42 -19q2 -4 2 -9q0 -15 -17 -34l-176 -196q-55 -63 -109 -64h-122q-51 0 -93 64l-127 196q-8 14 -8 26q0 9 5 17 z" />
<glyph unicode="&#x10d;" horiz-adv-x="1058" d="M119 272q0 16 2 43l53 435q43 332 496 331q213 0 320.5 -78.5t107.5 -211.5q0 -16 -2 -46l-2 -28q-8 -61 -72 -62h-201q-53 0 -53 58v30q0 41 -27.5 56.5t-89.5 15.5q-68 0 -99.5 -19.5t-37.5 -70.5l-43 -346q-6 -47 -6 -55q0 -74 119 -74q68 0 99.5 20.5t39.5 71.5l2 27 q6 61 68 61h202q57 0 54 -61l-5 -54q-29 -332 -493 -331q-213 0 -322.5 76.5t-109.5 211.5zM395 1490q12 17 45 17h164q63 0 80 -61l18 -60l33 60q35 61 96 61h168q33 0 41 -17q2 -4 2 -9q0 -15 -18 -35l-174 -197q-55 -63 -109 -63h-123q-51 0 -92 63l-129 197q-8 14 -7 26 q-1 10 5 18z" />
<glyph unicode="&#x10e;" horiz-adv-x="1320" d="M135 63l162 1321q8 63 70 64h464q258 0 388.5 -94t130.5 -236q0 -23 -7 -67l-81 -686q-20 -158 -152.5 -261.5t-419.5 -103.5h-510q-47 0 -46 45q-1 8 1 18zM508 1851q12 18 45 19h164q63 0 80 -62l18 -59l33 59q37 61 96 62h168q35 0 42 -19q2 -4 2 -8q0 -15 -19 -35 l-174 -196q-55 -63 -109 -64h-123q-51 0 -92 64l-127 196q-9 14 -9 26q0 9 5 17zM514 287h195q84 0 141 34.5t65 104.5l72 567q4 20 4 51q0 117 -178 117h-190z" />
<glyph unicode="&#x10f;" horiz-adv-x="1458" d="M117 252q0 16 4 59l55 443q41 328 346 327q184 0 316 -110l55 454q8 63 68 64h219q54 0 53 -52v-12l-166 -1362q-8 -63 -70 -63h-204q-33 0 -43.5 14.5t-10.5 48.5v37q-47 -37 -77.5 -54t-102.5 -39.5t-151 -22.5q-139 0 -215 70.5t-76 197.5zM467 334q0 -59 74 -60 q88 0 221 88l43 340q-111 88 -201 89q-53 0 -69.5 -24t-22.5 -67l-41 -321q-4 -35 -4 -45zM1255 1180q-1 6 -1 11q0 19 16 40q43 76 56 114.5t24 124.5l10 68q8 63 70 64h161q35 0 45 -15q7 -10 8 -31q0 -8 -2 -18l-10 -88q-12 -94 -42.5 -154.5t-94.5 -142.5 q-26 -35 -66 -35q-9 0 -20 2l-119 29q-29 6 -35 31z" />
<glyph unicode="&#x110;" horiz-adv-x="1320" d="M55 659l15 136q8 59 73 59h86l68 530q8 63 70 64h464q258 0 388.5 -94t130.5 -236q0 -23 -7 -67l-81 -686q-20 -158 -152.5 -261.5t-419.5 -103.5h-510q-47 0 -46 45q0 8 1 18l66 535h-90q-56 0 -57 48q0 6 1 13zM514 287h195q84 0 141 34.5t65 104.5l72 567q4 20 4 51 q0 117 -178 117h-190l-39 -307h127q35 0 47 -13.5t8 -45.5l-14 -136q-8 -61 -72 -61h-129z" />
<glyph unicode="&#x111;" d="M117 252q0 16 4 59l55 443q41 328 346 327q184 0 316 -110l18 162h-117q-58 0 -58 48q0 6 1 13l14 115q8 59 70 59h119l8 57q8 63 68 64h219q54 0 53 -52v-12l-8 -57h61q58 0 58 -47q0 -6 -1 -12l-14 -115q-8 -61 -69 -61h-64l-129 -1070q-8 -63 -70 -63h-204 q-33 0 -43.5 14.5t-10.5 48.5v37q-47 -37 -77.5 -54t-102.5 -39.5t-151 -22.5q-139 0 -215 70.5t-76 197.5zM467 334q0 -59 74 -60q88 0 221 88l43 340q-111 88 -201 89q-53 0 -69.5 -24t-22.5 -67l-41 -321q-4 -35 -4 -45z" />
<glyph unicode="&#x112;" horiz-adv-x="1077" d="M135 63l162 1321q8 63 70 64h729q58 0 58 -47q0 -6 -1 -12l-23 -166q-8 -61 -69 -62h-438l-35 -276h405q33 0 46.5 -14.5t9.5 -47.5l-21 -153q-8 -63 -70 -64h-405l-39 -319h459q59 0 58 -45q0 -7 -1 -15l-20 -166q-8 -61 -70 -61h-750q-57 0 -56 47q0 7 1 16zM444 1638 l17 134q6 59 71 59h472q33 0 45 -12.5t10 -46.5l-15 -134q-8 -61 -73 -61h-471q-56 0 -56 51q-1 4 0 10z" />
<glyph unicode="&#x113;" horiz-adv-x="1071" d="M119 272q0 18 2 43l53 435q43 332 490 331q205 0 312 -75.5t107 -210.5q0 -31 -2 -45l-26 -236q-6 -57 -66 -57h-518l-10 -92q-4 -31 -4 -54q0 -78 116 -78q125 0 138 84l2 13q10 61 71 61h183q55 0 54 -45q0 -7 -1 -16l-2 -15q-23 -166 -125 -248.5t-342 -82.5 q-213 0 -322.5 76.5t-109.5 211.5zM397 1255l17 134q6 59 71 59h471q35 0 46.5 -12.5t9.5 -46.5l-15 -134q-6 -63 -73 -63h-469q-58 0 -58 53q-1 4 0 10zM498 674h258l6 43q2 12 2 35q0 80 -119 79q-125 0 -137 -96z" />
<glyph unicode="&#x114;" horiz-adv-x="1077" d="M135 63l162 1321q8 63 70 64h729q58 0 58 -47q0 -6 -1 -12l-23 -166q-8 -61 -69 -62h-438l-35 -276h405q33 0 46.5 -14.5t9.5 -47.5l-21 -153q-8 -63 -70 -64h-405l-39 -319h459q59 0 58 -45q0 -7 -1 -15l-20 -166q-8 -61 -70 -61h-750q-57 0 -56 47q0 7 1 16zM426 1782 q0 16 4 45l4 28q8 51 62 52h131q29 0 40 -12.5t9 -39.5l-4 -36v-11q0 -59 67 -59q74 0 80 70l4 36q8 51 64 52h129q33 0 43 -13q7 -9 7 -24q0 -6 -1 -15l-4 -28q-43 -276 -334 -277q-135 0 -218 61.5t-83 170.5z" />
<glyph unicode="&#x115;" horiz-adv-x="1071" d="M119 272q0 18 2 43l53 435q43 332 490 331q205 0 312 -75.5t107 -210.5q0 -31 -2 -45l-26 -236q-6 -57 -66 -57h-518l-10 -92q-4 -31 -4 -54q0 -78 116 -78q125 0 138 84l2 13q10 61 71 61h183q55 0 54 -45q0 -7 -1 -16l-2 -15q-23 -166 -125 -248.5t-342 -82.5 q-213 0 -322.5 76.5t-109.5 211.5zM391 1389q0 14 4 45l6 26q8 51 62 51h129q31 0 41 -11t8 -40l-4 -35v-10q0 -61 68 -61q76 0 81 71l5 35q6 51 61 51h129q33 0 43 -11q7 -8 7 -25q0 -7 -1 -15l-4 -26q-43 -276 -334 -277q-135 0 -218 61.5t-83 170.5zM498 674h258l6 43 q2 12 2 35q0 80 -119 79q-125 0 -137 -96z" />
<glyph unicode="&#x116;" horiz-adv-x="1077" d="M135 63l162 1321q8 63 70 64h729q58 0 58 -47q0 -6 -1 -12l-23 -166q-8 -61 -69 -62h-438l-35 -276h405q33 0 46.5 -14.5t9.5 -47.5l-21 -153q-8 -63 -70 -64h-405l-39 -319h459q59 0 58 -45q0 -7 -1 -15l-20 -166q-8 -61 -70 -61h-750q-57 0 -56 47q0 7 1 16zM563 1610 l21 178q6 63 69 63h228q33 0 44 -15q7 -10 7 -27q0 -9 -2 -21l-21 -178q-8 -61 -67 -62h-226q-35 0 -47 15q-8 10 -8 27q0 9 2 20z" />
<glyph unicode="&#x117;" horiz-adv-x="1071" d="M119 272q0 18 2 43l53 435q43 332 490 331q205 0 312 -75.5t107 -210.5q0 -31 -2 -45l-26 -236q-6 -57 -66 -57h-518l-10 -92q-4 -31 -4 -54q0 -78 116 -78q125 0 138 84l2 13q10 61 71 61h183q55 0 54 -45q0 -7 -1 -16l-2 -15q-23 -166 -125 -248.5t-342 -82.5 q-213 0 -322.5 76.5t-109.5 211.5zM498 674h258l6 43q2 12 2 35q0 80 -119 79q-125 0 -137 -96z" />
<glyph unicode="&#x118;" horiz-adv-x="1077" d="M135 63l162 1321q8 63 70 64h729q58 0 58 -47q0 -6 -1 -12l-23 -166q-8 -61 -69 -62h-438l-35 -276h405q33 0 46.5 -14.5t9.5 -47.5l-21 -153q-8 -63 -70 -64h-405l-39 -319h459q59 0 58 -45q0 -7 -1 -15l-20 -166q-8 -61 -70 -61h-68q-78 0 -77 -121q0 -53 63 -53h49 q37 0 52.5 -14.5t11.5 -44.5l-10 -86q-9 -61 -87 -62h-122q-45 0 -87 11.5t-83 55.5t-41 115q0 104 55 199h-406q-57 0 -56 47q0 7 1 16z" />
<glyph unicode="&#x119;" horiz-adv-x="1071" d="M119 272q0 29 2 43l53 435q43 332 490 331q205 0 312 -75.5t107 -210.5q0 -31 -2 -45l-26 -236q-6 -57 -66 -57h-518l-10 -92q-6 -45 -6 -54q0 -78 118 -78q125 0 138 84l2 13q10 61 71 61h183q55 0 54 -45q0 -7 -1 -16l-2 -15q-20 -147 -105 -229q-41 -41 -58 -63.5 t-34.5 -60.5t-17.5 -83q0 -53 63 -53h33q37 0 52.5 -14.5t11.5 -44.5l-11 -86q-8 -61 -86 -62h-106q-45 0 -87 11.5t-83 55.5t-41 115q0 94 47 185q-14 -2 -45 -2q-213 0 -322.5 76.5t-109.5 211.5zM498 674h258l6 43q2 12 2 35q0 80 -119 79q-125 0 -137 -96z" />
<glyph unicode="&#x11a;" horiz-adv-x="1077" d="M135 63l162 1321q8 63 70 64h729q58 0 58 -47q0 -6 -1 -12l-23 -166q-8 -61 -69 -62h-438l-35 -276h405q33 0 46.5 -14.5t9.5 -47.5l-21 -153q-8 -63 -70 -64h-405l-39 -319h459q59 0 58 -45q0 -7 -1 -15l-20 -166q-8 -61 -70 -61h-750q-57 0 -56 47q0 7 1 16zM449 1851 q12 18 45 19h163q63 0 80 -62l19 -59l32 59q35 61 97 62h168q33 0 41 -19q2 -5 2 -9q0 -15 -19 -34l-174 -196q-55 -63 -108 -64h-123q-51 0 -92 64l-129 196q-8 13 -8 25q0 9 6 18z" />
<glyph unicode="&#x11b;" horiz-adv-x="1071" d="M119 272q0 18 2 43l53 435q43 332 490 331q205 0 312 -75.5t107 -210.5q0 -31 -2 -45l-26 -236q-6 -57 -66 -57h-518l-10 -92q-4 -31 -4 -54q0 -78 116 -78q125 0 138 84l2 13q10 61 71 61h183q55 0 54 -45q0 -7 -1 -16l-2 -15q-23 -166 -125 -248.5t-342 -82.5 q-213 0 -322.5 76.5t-109.5 211.5zM378 1490q11 17 46 17h164q61 0 80 -61l18 -60l31 60q37 61 96 61h168q35 0 42 -17q2 -4 2 -9q0 -15 -17 -35l-174 -197q-55 -63 -109 -63h-125q-51 0 -90 63l-129 197q-8 15 -8 27q0 9 5 17zM498 674h258l6 43q2 12 2 35q0 80 -119 79 q-125 0 -137 -96z" />
<glyph unicode="&#x11c;" horiz-adv-x="1249" d="M145 307q0 18 5 58l88 737q43 365 559 364q254 0 372.5 -93t118.5 -234q0 -10 -4 -58l-6 -57q-6 -63 -68 -63h-219q-55 0 -55 45q0 8 2 18l2 16q2 14 2 33q0 104 -160 105q-82 0 -136 -34t-62 -104l-76 -614q-6 -31 -6 -43q0 -113 162 -113q182 0 196 140l10 90h-174 q-56 0 -56 50q0 6 1 13l21 166q8 59 71 59h451q63 0 57 -59l-47 -381q-45 -365 -557 -364q-254 0 -373 91t-119 232zM486 1567q-2 4 -1 9q0 15 17 34l176 196q55 63 108 64h123q51 0 92 -64l127 -196q8 -14 8 -26q0 -9 -4 -17q-11 -18 -47 -19h-163q-57 0 -78 62l-21 59 l-30 -59q-37 -61 -97 -62h-168q-35 1 -42 19z" />
<glyph unicode="&#x11d;" d="M117 254q0 18 4 57l55 443q23 160 102.5 243.5t241.5 83.5q186 0 328 -118l8 38q8 35 21.5 49.5t46.5 14.5h202q56 0 56 -53v-11l-133 -1093q-43 -332 -525 -332h-305q-58 0 -58 51q0 5 1 11l18 151q10 63 74 64h303q143 0 154 94l18 145q-47 -33 -77.5 -51t-98.5 -37.5 t-145 -19.5q-139 0 -215 70.5t-76 199.5zM390 1204q-2 4 -1 9q0 15 19 34l174 197q55 63 108 63h123q51 0 92 -63l127 -197q9 -14 10 -26q0 -9 -6 -17q-12 -18 -45 -18h-164q-59 0 -79 61l-19 62l-33 -62q-37 -61 -96 -61h-168q-35 0 -42 18zM467 334q0 -59 74 -60 q88 0 221 88l43 340q-117 88 -201 89q-37 0 -58.5 -15.5t-27.5 -32t-8 -43.5l-39 -313q-4 -43 -4 -53z" />
<glyph unicode="&#x11e;" horiz-adv-x="1249" d="M145 307q0 18 5 58l88 737q43 365 559 364q254 0 372.5 -93t118.5 -234q0 -10 -4 -58l-6 -57q-6 -63 -68 -63h-219q-55 0 -55 45q0 8 2 18l2 16q2 14 2 33q0 104 -160 105q-82 0 -136 -34t-62 -104l-76 -614q-6 -31 -6 -43q0 -113 162 -113q182 0 196 140l10 90h-174 q-56 0 -56 50q0 6 1 13l21 166q8 59 71 59h451q63 0 57 -59l-47 -381q-45 -365 -557 -364q-254 0 -373 91t-119 232zM502 1782q0 16 6 45l4 28q8 51 61 52h129q31 0 41.5 -12.5t8.5 -39.5l-4 -36v-11q0 -59 67 -59q76 0 82 70l4 36q6 51 62 52h131q31 0 42 -13q7 -8 7 -22 q0 -8 -2 -17l-4 -28q-41 -276 -334 -277q-133 0 -217 61.5t-84 170.5z" />
<glyph unicode="&#x11f;" d="M117 254q0 18 4 57l55 443q23 160 102.5 243.5t241.5 83.5q186 0 328 -118l8 38q8 35 21.5 49.5t46.5 14.5h202q56 0 56 -53v-11l-133 -1093q-43 -332 -525 -332h-305q-58 0 -58 51q0 5 1 11l18 151q10 63 74 64h303q143 0 154 94l18 145q-47 -33 -77.5 -51t-98.5 -37.5 t-145 -19.5q-139 0 -215 70.5t-76 199.5zM408 1389q0 14 4 45l4 26q8 51 61 51h129q31 0 41 -11t8 -40l-4 -35v-10q0 -61 70 -61q74 0 80 71l4 35q6 51 61 51h131q29 0 41 -11q9 -8 10 -27q0 -6 -1 -13l-5 -26q-43 -276 -335 -277q-133 0 -216 61.5t-83 170.5zM467 334 q0 -59 74 -60q88 0 221 88l43 340q-117 88 -201 89q-37 0 -58.5 -15.5t-27.5 -32t-8 -43.5l-39 -313q-4 -43 -4 -53z" />
<glyph unicode="&#x120;" horiz-adv-x="1249" d="M145 305q0 18 5 57l88 738q43 362 559 362q254 0 372.5 -92t118.5 -233q0 -10 -4 -58l-6 -57q-6 -63 -68 -64h-219q-55 0 -55 45q0 8 2 19l2 14q2 16 2 35q0 104 -160 105q-82 0 -136 -34t-62 -106l-76 -612q-6 -31 -6 -43q0 -113 162 -113q182 0 196 140l10 90h-174 q-56 0 -56 49q0 6 1 14l21 166q8 59 71 59h451q63 0 57 -59l-47 -383q-45 -362 -557 -362q-254 0 -373 91t-119 232zM623 1608l20 178q6 63 70 63h227q33 0 44 -15q8 -11 8 -32q0 -7 -1 -16l-22 -178q-8 -61 -68 -62h-225q-35 0 -46 15q-8 11 -9 31q1 7 2 16z" />
<glyph unicode="&#x121;" d="M117 254q0 18 4 57l55 443q23 160 102.5 243.5t241.5 83.5q186 0 328 -118l8 38q8 35 21.5 49.5t46.5 14.5h202q56 0 56 -53v-11l-133 -1093q-43 -332 -525 -332h-305q-58 0 -58 51q0 5 1 11l18 151q10 63 74 64h303q143 0 154 94l18 145q-47 -33 -77.5 -51t-98.5 -37.5 t-145 -19.5q-139 0 -215 70.5t-76 199.5zM467 334q0 -59 74 -60q88 0 221 88l43 340q-117 88 -201 89q-37 0 -58.5 -15.5t-27.5 -32t-8 -43.5l-39 -313q-4 -43 -4 -53z" />
<glyph unicode="&#x122;" horiz-adv-x="1249" d="M145 307q0 18 5 58l88 737q43 365 559 364q254 0 372.5 -93t118.5 -234q0 -10 -4 -58l-6 -57q-6 -63 -68 -63h-219q-55 0 -55 45q0 8 2 18l2 16q2 14 2 33q0 104 -160 105q-82 0 -136 -34t-62 -104l-76 -614q-6 -31 -6 -43q0 -113 162 -113q182 0 196 140l10 90h-174 q-56 0 -56 50q0 6 1 13l21 166q8 59 71 59h451q63 0 57 -59l-47 -381q-45 -365 -557 -364q-254 0 -373 91t-119 232zM370 -528q-1 5 -1 10q0 20 14 41q43 74 57.5 113.5t24.5 125.5l8 68q8 63 70 64h162q35 0 45 -16q7 -11 7 -31q0 -8 -1 -17l-11 -88q-10 -94 -40.5 -154.5 t-96.5 -142.5q-25 -35 -64 -35q-9 0 -20 2l-118 27q-31 8 -36 33z" />
<glyph unicode="&#x123;" d="M117 254q0 18 4 57l55 443q23 160 102.5 243.5t241.5 83.5q186 0 328 -118l8 38q8 35 21.5 49.5t46.5 14.5h202q56 0 56 -53v-11l-133 -1093q-43 -332 -525 -332h-305q-58 0 -58 51q0 5 1 11l18 151q10 63 74 64h303q143 0 154 94l18 145q-47 -33 -77.5 -51t-98.5 -37.5 t-145 -19.5q-139 0 -215 70.5t-76 199.5zM467 334q0 -59 74 -60q88 0 221 88l43 340q-117 88 -201 89q-37 0 -58.5 -15.5t-27.5 -32t-8 -43.5l-39 -313q-4 -43 -4 -53zM553 1270l12 86q10 94 41 155.5t94 143.5q26 35 67 35q9 0 19 -2l119 -29q31 -6 36 -31q1 -5 1 -10 q0 -20 -16 -41q-41 -76 -55.5 -115t-24.5 -125l-8 -67q-8 -63 -72 -64h-162q-33 0 -44 15q-8 11 -8 32q0 8 1 17z" />
<glyph unicode="&#x124;" horiz-adv-x="1343" d="M135 63l162 1321q8 63 70 64h229q35 0 45 -14.5t6 -49.5l-61 -507h385l61 507q10 63 72 64h229q35 0 45 -14q7 -10 8 -31q0 -8 -2 -19l-161 -1321q-8 -63 -66 -63h-231q-57 0 -57 47q0 7 1 16l68 527h-387l-66 -527q-8 -63 -65 -63h-230q-57 0 -56 47q0 7 1 16zM515 1567 q-2 4 -2 9q0 15 17 34l175 196q55 63 108 64h125q51 0 90 -64l129 -196q8 -14 8 -26q0 -9 -5 -17q-11 -18 -46 -19h-164q-57 0 -80 62l-18 59l-33 -59q-35 -61 -94 -62h-170q-33 1 -40 19z" />
<glyph unicode="&#x125;" horiz-adv-x="1177" d="M113 63l166 1362q8 63 71 64h219q52 0 52 -52v-12l-56 -450q147 106 324 106q125 0 207 -71.5t82 -188.5q0 -14 -2 -35l-89 -723q-8 -63 -69 -63h-215q-56 0 -56 52q0 5 1 11l75 635q4 23 4 33q0 31 -16 45.5t-57 14.5q-96 0 -222 -86l-77 -642q-10 -63 -70 -63h-219 q-54 0 -54 52q0 5 1 11zM146 1567q-2 4 -1 9q0 15 17 34l174 196q55 63 108 64h125q51 0 90 -64l129 -196q8 -14 9 -26q0 -9 -5 -17q-11 -18 -47 -19h-163q-57 0 -80 62l-19 59l-32 -59q-35 -61 -95 -62h-168q-35 1 -42 19z" />
<glyph unicode="&#x126;" horiz-adv-x="1343" d="M125 1053l16 112q8 59 70 60h65l21 159q8 63 70 64h229q35 0 45 -14.5t6 -49.5l-18 -159h385l18 159q10 63 72 64h229q35 0 45.5 -14.5t5.5 -49.5l-18 -159h57q58 0 59 -47q0 -6 -1 -13l-15 -112q-10 -61 -71 -62h-60l-112 -928q-8 -63 -66 -63h-231q-57 0 -57 47 q0 7 1 16l68 527h-387l-66 -527q-8 -63 -65 -63h-230q-57 0 -56 47q0 7 1 16l113 928h-66q-58 0 -58 49q0 6 1 13zM586 877h385l12 114h-385z" />
<glyph unicode="&#x127;" horiz-adv-x="1177" d="M113 63l131 1070h-72q-58 0 -58 48q0 6 1 13l14 115q10 59 72 59h69l9 57q8 63 71 64h219q52 0 52 -52v-12l-11 -57h111q58 0 58 -47q0 -6 -1 -12l-16 -115q-8 -61 -70 -61h-108l-19 -158q147 106 324 106q125 0 207 -71.5t82 -188.5q0 -14 -2 -35l-89 -723 q-8 -63 -69 -63h-215q-56 0 -56 52q0 5 1 11l75 635q4 23 4 33q0 31 -16 45.5t-57 14.5q-96 0 -222 -86l-77 -642q-10 -63 -70 -63h-219q-54 0 -54 52q0 5 1 11z" />
<glyph unicode="&#x128;" horiz-adv-x="606" d="M84 1620l25 104q18 76 78.5 119t136.5 43q70 0 125 -22l86 -35q63 -25 69 -25q31 0 43 27l4 10q16 31 30.5 43t45.5 12h115q49 0 48 -46q0 -12 -3 -27l-23 -97q-16 -78 -67.5 -119.5t-122.5 -41.5q-84 0 -152 22l-92 31q-63 23 -76 22q-31 0 -41 -28l-4 -10 q-12 -33 -27.5 -43.5t-48.5 -10.5h-108q-46 0 -46 41q0 13 5 31zM135 63l162 1321q8 63 70 64h229q35 0 45 -14q7 -10 7 -31q0 -8 -1 -19l-162 -1321q-8 -63 -65 -63h-230q-57 0 -56 47q0 7 1 16z" />
<glyph unicode="&#x129;" horiz-adv-x="552" d="M41 1237l25 104q20 76 79.5 119t135.5 43q72 0 127 -22l84 -35q63 -25 71 -25q29 0 41 27l4 8q16 33 30.5 44t45.5 11h115q49 0 48 -44q0 -12 -3 -27l-23 -97q-16 -78 -67.5 -119.5t-122.5 -41.5q-84 0 -152 22l-92 31q-63 23 -76 22q-31 0 -41 -28l-4 -10 q-12 -33 -27.5 -43.5t-45.5 -10.5h-109q-48 0 -48 41q0 14 5 31zM113 63l114 938q8 63 72 64h219q33 0 44 -15q8 -11 8 -32q0 -7 -1 -17l-114 -938q-10 -63 -70 -63h-219q-54 0 -54 49q0 7 1 14z" />
<glyph unicode="&#x12a;" horiz-adv-x="606" d="M135 63l162 1321q8 63 70 64h229q35 0 45 -14.5t6 -49.5l-162 -1321q-8 -63 -65 -63h-230q-57 0 -56 47q0 7 1 16zM197 1638l14 134q6 59 72 59h471q35 0 46 -12.5t9 -46.5l-14 -134q-6 -61 -72 -61h-471q-56 0 -56 51q0 4 1 10z" />
<glyph unicode="&#x12b;" horiz-adv-x="552" d="M113 63l114 938q8 63 72 64h219q33 0 44 -15.5t7 -48.5l-114 -938q-10 -63 -70 -63h-219q-54 0 -54 49q0 7 1 14zM131 1255l16 134q6 59 72 59h471q35 0 46.5 -12.5t8.5 -46.5l-14 -134q-6 -63 -74 -63h-469q-58 0 -57 53q-1 4 0 10z" />
<glyph unicode="&#x12c;" horiz-adv-x="606" d="M135 63l162 1321q8 63 70 64h229q35 0 45 -14.5t6 -49.5l-162 -1321q-8 -63 -65 -63h-230q-57 0 -56 47q0 7 1 16zM182 1782q0 16 6 45l5 28q8 51 61 52h129q31 0 41 -12.5t8 -39.5l-4 -36v-11q0 -59 68 -59q76 0 82 70l4 36q6 51 61 52h131q31 0 42 -13q7 -8 7 -22 q0 -8 -2 -17l-4 -28q-41 -276 -334 -277q-133 0 -217 61.5t-84 170.5z" />
<glyph unicode="&#x12d;" horiz-adv-x="552" d="M113 63l114 938q8 63 72 64h219q33 0 44 -15.5t7 -48.5l-114 -938q-10 -63 -70 -63h-219q-54 0 -54 49q0 7 1 14zM125 1389q0 14 4 45l6 26q8 51 62 51h129q31 0 41 -11t8 -40l-4 -35v-10q0 -61 67 -61q76 0 82 71l4 35q6 51 62 51h129q31 0 42 -11q8 -8 8 -26 q0 -6 -1 -14l-4 -26q-43 -276 -334 -277q-135 0 -218 61.5t-83 170.5z" />
<glyph unicode="&#x12e;" horiz-adv-x="606" d="M18 -199q0 152 119 281l160 1302q8 63 70 64h229q35 0 45 -14q7 -10 7 -31q0 -8 -1 -19l-162 -1321q-8 -63 -65 -63h-68q-80 -6 -80 -121q0 -53 64 -53h49q37 0 53.5 -14.5t10.5 -44.5l-11 -86q-8 -61 -84 -62h-125q-45 0 -87 11.5t-83 55t-41 115.5z" />
<glyph unicode="&#x12f;" horiz-adv-x="552" d="M-12 -199q0 158 129 295l110 905q6 63 70 64h219q54 0 54 -49q0 -7 -1 -15l-114 -938q-10 -63 -70 -63h-68q-76 0 -75 -121q0 -53 63 -53h49q35 0 51.5 -14.5t12.5 -44.5l-10 -86q-10 -61 -86 -62h-123q-45 0 -88 11.5t-83 55t-40 115.5zM258 1247l21 178q8 63 71 64h219 q33 0 44 -15q8 -11 9 -32q0 -7 -1 -17l-23 -178q-8 -61 -68 -61h-219q-35 0 -46 14q-8 11 -8 31q0 7 1 16z" />
<glyph unicode="&#x130;" horiz-adv-x="606" d="M135 63l162 1321q8 63 70 64h229q35 0 45 -14.5t6 -49.5l-162 -1321q-8 -63 -65 -63h-230q-57 0 -56 47q0 7 1 16zM326 1610l22 178q6 63 70 63h225q35 0 45 -15q7 -11 7 -31q0 -8 -1 -17l-20 -178q-10 -61 -70 -62h-225q-35 0 -46 15q-8 11 -8 31q0 7 1 16z" />
<glyph unicode="&#x131;" horiz-adv-x="552" d="M113 63l114 938q8 63 72 64h219q33 0 44 -15q8 -11 8 -32q0 -7 -1 -17l-114 -938q-10 -63 -70 -63h-219q-54 0 -54 49q0 7 1 14z" />
<glyph unicode="&#x132;" horiz-adv-x="1720" d="M135 63l162 1321q8 63 70 64h229q35 0 45 -14.5t6 -49.5l-162 -1321q-8 -63 -65 -63h-230q-57 0 -56 47q0 7 1 16zM668 307q0 27 4 58l14 122q8 63 70 64h223q52 0 52 -52q0 -6 -1 -12l-8 -67q-4 -39 -4 -43q0 -106 137 -107q68 0 100.5 32t42.5 108l123 974q8 63 68 64 h229q54 0 54 -52v-12l-127 -1036q-10 -78 -37 -136t-81 -113.5t-153.5 -85t-238.5 -29.5q-238 0 -352.5 92t-114.5 231z" />
<glyph unicode="&#x133;" horiz-adv-x="1105" d="M113 63l114 938q6 63 70 64h219q54 0 54 -49q0 -7 -1 -15l-114 -938q-10 -63 -70 -63h-219q-54 0 -54 49q0 7 1 14zM258 1247l21 178q8 63 71 64h219q33 0 44.5 -15.5t7.5 -48.5l-23 -178q-8 -61 -68 -61h-219q-35 0 -46 14q-8 11 -8 31q0 7 1 16zM387 -362l21 151 q8 63 71 64h23q141 0 151 94l131 1054q8 63 68 64h219q54 0 54 -49q0 -7 -1 -15l-133 -1093q-23 -166 -145.5 -249t-366.5 -83h-35q-58 0 -58 49q0 6 1 13zM813 1247l23 178q8 63 69 64h219q35 0 45 -15q7 -11 8 -31q0 -8 -1 -18l-21 -178q-4 -33 -18.5 -47t-49.5 -14h-219 q-56 0 -56 51q0 4 1 10z" />
<glyph unicode="&#x134;" horiz-adv-x="1112" d="M59 307q0 27 4 58l15 122q10 63 72 64h223q52 0 52 -52q0 -6 -1 -12l-8 -67q-4 -39 -4 -43q0 -106 135 -107q70 0 102.5 32t42.5 108l121 974q8 63 70 64h229q54 0 54 -52q0 -5 -1 -12l-129 -1036q-10 -78 -36.5 -136t-81 -113.5t-152.5 -85t-238 -29.5q-240 0 -354.5 92 t-114.5 231zM670 1567q-2 5 -2 9q0 15 18 34l174 196q55 63 109 64h125q49 0 90 -64l129 -196q8 -13 7 -25q0 -10 -5 -18q-12 -18 -45 -19h-164q-57 0 -80 62l-18 59l-33 -59q-35 -61 -94 -62h-170q-33 1 -41 19z" />
<glyph unicode="&#x135;" horiz-adv-x="552" d="M-166 -362l19 151q8 63 73 64h23q141 0 151 94l129 1054q6 63 70 64h219q54 0 54 -49q0 -7 -1 -15l-135 -1093q-20 -166 -144 -249t-366 -83h-35q-58 0 -58 49q0 6 1 13zM97 1204q-2 4 -1 9q0 15 17 34l174 197q55 63 108 63h125q51 0 90 -63l129 -197q8 -14 8 -25 q0 -9 -5 -18q-11 -18 -46 -18h-164q-57 0 -77 61l-21 62l-31 -62q-37 -61 -96 -61h-168q-35 0 -42 18z" />
<glyph unicode="&#x136;" horiz-adv-x="1277" d="M135 63l162 1321q8 63 70 64h229q35 0 45 -14.5t6 -49.5l-65 -542h14l393 542q43 63 109 64h250q41 0 40 -23q0 -15 -18 -41l-483 -647l375 -674q14 -23 3.5 -43t-42.5 -20h-293q-47 0 -82 63l-273 523h-26l-64 -523q-6 -63 -65 -63h-230q-57 0 -56 47q0 7 1 16z M380 -528q-1 5 -1 10q0 20 14 41q43 74 57.5 113.5t24.5 125.5l8 68q8 63 70 64h162q35 0 45 -16q7 -11 7 -31q0 -8 -1 -17l-10 -88q-10 -94 -41 -154.5t-94 -142.5q-26 -35 -67 -35q-9 0 -19 2l-119 27q-31 8 -36 33z" />
<glyph unicode="&#x137;" horiz-adv-x="1087" d="M113 63l166 1362q8 63 71 64h219q33 0 44.5 -15.5t7.5 -48.5l-86 -702h28l252 278q59 63 107 64h243q31 0 39 -21q2 -5 2 -10q0 -16 -18 -33l-365 -397l271 -541q14 -23 1.5 -43t-42.5 -20h-238q-47 0 -80 63l-198 404h-35l-47 -404q-10 -63 -70 -63h-219q-54 0 -54 49 q0 7 1 14zM316 -528q-1 5 -1 10q0 20 15 41q43 74 57 113.5t25 125.5l8 68q8 63 69 64h162q35 0 45 -16q7 -11 8 -31q0 -8 -2 -17l-10 -88q-10 -94 -40.5 -154.5t-96.5 -142.5q-25 -35 -64 -35q-9 0 -20 2l-119 27q-31 8 -36 33z" />
<glyph unicode="&#x138;" horiz-adv-x="1087" d="M113 63l114 938q8 63 72 64h219q33 0 44 -15.5t7 -48.5l-34 -278h28l252 278q59 63 107 64h243q31 0 39 -21q2 -5 2 -10q0 -16 -18 -33l-365 -397l271 -541q14 -23 1.5 -43t-42.5 -20h-238q-47 0 -80 63l-198 404h-35l-47 -404q-10 -63 -70 -63h-219q-54 0 -54 49 q0 7 1 14z" />
<glyph unicode="&#x139;" horiz-adv-x="1001" d="M135 63l162 1321q8 63 70 64h229q35 0 45 -14.5t6 -49.5l-133 -1097h416q60 0 60 -48q0 -6 -1 -12l-22 -166q-8 -61 -70 -61h-717q-46 0 -46 48q0 7 1 15zM371 1610l108 196q37 63 96 64h234q35 0 41 -19q1 -4 1 -8q0 -16 -17 -37l-175 -215q-37 -43 -88 -43h-176 q-38 0 -38 24q0 15 14 38z" />
<glyph unicode="&#x13a;" horiz-adv-x="552" d="M113 63l166 1362q8 63 71 64h219q33 0 44.5 -15.5t7.5 -48.5l-166 -1362q-10 -63 -70 -63h-219q-54 0 -54 49q0 7 1 14zM340 1610l109 196q37 63 96 64h235q33 0 40 -19q2 -4 2 -8q0 -16 -19 -37l-172 -215q-39 -43 -90 -43h-174q-39 0 -40 25q0 15 13 37z" />
<glyph unicode="&#x13b;" horiz-adv-x="1001" d="M135 63l162 1321q8 63 70 64h229q35 0 45 -14.5t6 -49.5l-133 -1097h416q60 0 60 -48q0 -6 -1 -12l-22 -166q-8 -61 -70 -61h-717q-46 0 -46 48q0 7 1 15zM269 -526q-1 5 -1 10q0 20 15 41q43 74 57 113.5t25 125.5l8 68q8 63 69 64h162q35 0 45 -16q7 -11 8 -31 q0 -8 -2 -17l-10 -88q-10 -94 -41 -154.5t-94 -142.5q-26 -35 -66 -35q-9 0 -20 2l-119 29q-31 6 -36 31z" />
<glyph unicode="&#x13c;" horiz-adv-x="552" d="M15 -528q-1 5 -1 10q0 20 17 41q41 74 55 113.5t25 125.5l8 68q8 63 71 64h162q33 0 44.5 -15.5t6.5 -48.5l-12 -88q-10 -94 -41 -154.5t-94 -142.5q-26 -35 -66 -35q-9 0 -20 2l-119 27q-31 8 -36 33zM113 63l166 1362q8 63 71 64h219q33 0 44 -15q8 -11 9 -32 q0 -7 -1 -17l-166 -1362q-10 -63 -70 -63h-219q-54 0 -54 49q0 7 1 14z" />
<glyph unicode="&#x13d;" horiz-adv-x="1001" d="M135 63l162 1321q8 63 70 64h229q35 0 45 -14.5t6 -49.5l-133 -1097h416q60 0 60 -48q0 -6 -1 -12l-22 -166q-8 -61 -70 -61h-717q-46 0 -46 48q0 7 1 15zM740 1180q-1 5 -1 10q0 20 15 41q43 76 56 114.5t26 124.5l8 68q8 63 69 64h162q35 0 45 -15q7 -10 8 -31 q0 -8 -2 -18l-10 -88q-10 -94 -41 -154.5t-96 -142.5q-25 -35 -64 -35q-9 0 -20 2l-119 29q-31 6 -36 31z" />
<glyph unicode="&#x13e;" horiz-adv-x="843" d="M113 63l166 1362q8 63 71 64h219q33 0 44.5 -15.5t7.5 -48.5l-166 -1362q-10 -63 -70 -63h-219q-54 0 -54 49q0 7 1 14zM642 1180q-1 5 -1 10q0 20 14 41q43 76 57.5 114.5t24.5 124.5l8 68q8 63 70 64h162q35 0 45 -15q7 -10 7 -31q0 -8 -1 -18l-10 -88 q-10 -94 -41 -154.5t-94 -142.5q-26 -35 -67 -35q-9 0 -19 2l-119 29q-31 6 -36 31z" />
<glyph unicode="&#x13f;" horiz-adv-x="1001" d="M135 63l162 1321q8 63 70 64h229q35 0 45 -14.5t6 -49.5l-133 -1097h416q60 0 60 -48q0 -6 -1 -12l-22 -166q-8 -61 -70 -61h-717q-46 0 -46 48q0 7 1 15zM694 659l21 179q8 63 71 63h226q35 0 45 -15q7 -11 7 -31q0 -8 -1 -17l-21 -179q-10 -61 -69 -61h-225 q-35 0 -47 14q-8 11 -8 31q0 7 1 16z" />
<glyph unicode="&#x140;" horiz-adv-x="905" d="M113 63l166 1362q8 63 71 64h219q33 0 44.5 -15.5t7.5 -48.5l-166 -1362q-10 -63 -70 -63h-219q-54 0 -54 49q0 7 1 14zM621 659l20 179q6 63 70 63h227q33 0 44 -15q8 -11 8 -32q0 -7 -1 -16l-22 -179q-8 -61 -68 -61h-225q-35 0 -46 14q-8 11 -9 31q1 7 2 16z" />
<glyph unicode="&#x141;" horiz-adv-x="1001" d="M45 645q-5 13 -5 24q0 36 50 56l131 51l76 608q8 63 70 64h229q35 0 45 -14.5t6 -49.5l-57 -466l55 22q17 7 31 7q34 0 49 -44l23 -72q4 -12 4 -22q0 -37 -50 -57l-139 -54l-49 -411h416q60 0 60 -48q0 -6 -1 -12l-22 -166q-8 -61 -70 -61h-717q-46 0 -46 48q0 7 1 15 l60 492l-48 -16q-15 -5 -27 -5q-36 0 -50 39z" />
<glyph unicode="&#x142;" horiz-adv-x="552" d="M29 647q-6 14 -6 27q0 35 47 53l131 49l78 649q8 63 71 64h219q33 0 44.5 -15.5t7.5 -48.5l-66 -512l68 27q19 8 34 8q35 0 43 -45l25 -72q4 -12 4 -21q0 -36 -49 -58l-150 -58l-75 -631q-10 -63 -70 -63h-219q-54 0 -54 49q0 7 1 14l59 494l-49 -18q-16 -6 -29 -6 q-35 0 -47 40z" />
<glyph unicode="&#x143;" horiz-adv-x="1343" d="M135 63l162 1321q8 63 70 64h200q39 0 54 -25l284 -604q35 -74 56 -160l88 725q8 63 69 64h209q35 0 45 -14q7 -10 7 -31q0 -8 -1 -19l-161 -1321q-8 -63 -66 -63h-201q-45 0 -57 31l-270 565q-39 82 -70 192l-88 -725q-8 -63 -68 -63h-207q-57 0 -56 47q0 7 1 16z M709 1610l108 196q37 63 96 64h236q33 0 39 -19q1 -4 1 -8q0 -16 -18 -37l-172 -215q-39 -43 -90 -43h-174q-39 0 -39 25q0 15 13 37z" />
<glyph unicode="&#x144;" horiz-adv-x="1177" d="M113 63l114 941q6 61 70 61h203q33 0 44 -14.5t11 -46.5v-37q150 115 334 114q125 0 207 -71.5t82 -188.5q0 -14 -4 -55l-87 -703q-8 -63 -69 -63h-215q-56 0 -56 50q0 6 1 13l73 619q6 39 6 49q0 31 -16 45.5t-57 14.5q-102 0 -222 -86l-77 -642q-10 -63 -70 -63h-219 q-54 0 -54 49q0 7 1 14zM608 1247l109 197q37 63 96 63h236q33 0 40 -17q2 -4 1 -9q0 -15 -19 -37l-172 -215q-39 -43 -90 -43h-174q-39 0 -39 25q-1 14 12 36z" />
<glyph unicode="&#x145;" horiz-adv-x="1343" d="M135 63l162 1321q8 63 70 64h200q39 0 54 -25l284 -604q35 -74 56 -160l88 725q8 63 69 64h209q35 0 45 -14q7 -10 7 -31q0 -8 -1 -19l-161 -1321q-8 -63 -66 -63h-201q-45 0 -57 31l-270 565q-39 82 -70 192l-88 -725q-8 -63 -68 -63h-207q-57 0 -56 47q0 7 1 16z M449 -528q-1 6 -2 11q0 19 16 40q41 74 55 113.5t25 125.5l8 68q10 63 72 64h161q33 0 44 -16q8 -11 9 -32q0 -7 -1 -16l-13 -88q-10 -94 -40.5 -154.5t-94.5 -142.5q-26 -35 -66 -35q-9 0 -20 2l-119 27q-28 8 -34 33z" />
<glyph unicode="&#x146;" horiz-adv-x="1177" d="M113 63l114 941q6 61 70 61h203q33 0 44 -14.5t11 -46.5v-37q150 115 334 114q125 0 207 -71.5t82 -188.5q0 -14 -4 -55l-87 -703q-8 -63 -69 -63h-215q-56 0 -56 50q0 6 1 13l73 619q6 39 6 49q0 31 -16 45.5t-57 14.5q-102 0 -222 -86l-77 -642q-10 -63 -70 -63h-219 q-54 0 -54 49q0 7 1 14zM316 -528q-1 5 -1 10q0 20 15 41q43 74 57 113.5t25 125.5l8 68q8 63 69 64h162q35 0 45 -16q7 -11 8 -31q0 -8 -2 -17l-10 -88q-10 -94 -40.5 -154.5t-96.5 -142.5q-25 -35 -64 -35q-9 0 -20 2l-119 27q-31 8 -36 33z" />
<glyph unicode="&#x147;" horiz-adv-x="1343" d="M135 63l162 1321q8 63 70 64h200q39 0 54 -25l284 -604q35 -74 56 -160l88 725q8 63 69 64h209q35 0 45 -14q7 -10 7 -31q0 -8 -1 -19l-161 -1321q-8 -63 -66 -63h-201q-45 0 -57 31l-270 565q-39 82 -70 192l-88 -725q-8 -63 -68 -63h-207q-57 0 -56 47q0 7 1 16z M557 1851q12 18 45 19h164q63 0 80 -62l18 -59l33 59q37 61 96 62h168q33 0 41 -19q2 -5 2 -9q0 -15 -18 -34l-174 -196q-55 -63 -109 -64h-123q-51 0 -92 64l-127 196q-9 14 -9 26q0 9 5 17z" />
<glyph unicode="&#x148;" horiz-adv-x="1177" d="M113 63l114 941q6 61 70 61h203q33 0 44 -14.5t11 -46.5v-37q150 115 334 114q125 0 207 -71.5t82 -188.5q0 -14 -4 -55l-87 -703q-8 -63 -69 -63h-215q-56 0 -56 50q0 6 1 13l73 619q6 39 6 49q0 31 -16 45.5t-57 14.5q-102 0 -222 -86l-77 -642q-10 -63 -70 -63h-219 q-54 0 -54 49q0 7 1 14zM437 1490q11 17 46 17h164q61 0 80 -61l18 -60l33 60q35 61 94 61h170q33 0 40 -17q2 -4 2 -9q0 -15 -17 -35l-174 -197q-55 -63 -109 -63h-125q-51 0 -90 63l-129 197q-8 15 -8 27q0 9 5 17z" />
<glyph unicode="&#x149;" horiz-adv-x="1177" d="M113 63l114 941q6 61 70 61h203q33 0 44 -14.5t11 -46.5v-37q150 115 334 114q125 0 207 -71.5t82 -188.5q0 -14 -4 -55l-87 -703q-8 -63 -69 -63h-215q-56 0 -56 50q0 6 1 13l73 619q6 39 6 49q0 31 -16 45.5t-57 14.5q-102 0 -222 -86l-77 -642q-10 -63 -70 -63h-219 q-54 0 -54 49q0 7 1 14zM167 1180q-1 5 -1 10q0 20 14 41q43 76 57.5 114.5t24.5 124.5l8 68q8 63 70 64h162q35 0 45 -15q7 -10 7 -31q0 -8 -1 -18l-10 -88q-10 -94 -41 -154.5t-94 -142.5q-26 -35 -67 -35q-9 0 -19 2l-119 29q-31 6 -36 31z" />
<glyph unicode="&#x14a;" horiz-adv-x="1343" d="M135 63l162 1321q8 63 70 64h200q39 0 54 -25l284 -604q37 -76 56 -160l88 725q8 63 69 64h209q35 0 45 -14q7 -10 7 -31q0 -8 -1 -19l-184 -1476q-20 -166 -144 -249t-366 -83h-35q-58 0 -58 49q0 6 1 13l18 151q10 63 74 64h23q152 0 161 94l15 102l-260 547 q-45 94 -70 192l-88 -725q-6 -63 -68 -63h-207q-56 0 -56 50q0 6 1 13z" />
<glyph unicode="&#x14b;" horiz-adv-x="1177" d="M113 63l114 941q6 61 70 61h203q33 0 44 -14.5t11 -46.5v-37q150 115 334 114q125 0 207 -71.5t82 -188.5q0 -16 -4 -55l-105 -858q-20 -166 -144 -249t-368 -83h-33q-58 0 -58 49q0 6 1 13l18 151q8 63 72 64h25q141 0 151 94l88 735q6 33 6 49q0 31 -16 45.5t-57 14.5 q-102 0 -222 -86l-77 -642q-10 -63 -70 -63h-219q-54 0 -54 49q0 7 1 14z" />
<glyph unicode="&#x14c;" horiz-adv-x="1300" d="M145 309q0 12 5 56l88 737q20 158 156 261t421 103q256 0 385 -94t129 -233q0 -16 -4 -56l-90 -735q-18 -158 -155.5 -261t-424.5 -103q-254 0 -382 93t-128 232zM502 387q0 -117 184 -117q82 0 139.5 34t65.5 106l76 610q4 39 4 41q0 117 -180 117q-80 0 -139.5 -35 t-67.5 -103l-76 -612q-6 -35 -6 -41zM551 1638l16 134q6 59 72 59h471q33 0 45 -12.5t10 -46.5l-14 -134q-8 -61 -74 -61h-471q-56 0 -56 51q0 4 1 10z" />
<glyph unicode="&#x14d;" horiz-adv-x="1144" d="M119 279q0 18 2 36l53 435q20 158 148.5 244.5t371.5 86.5q215 0 337 -78.5t122 -211.5q0 -20 -2 -41l-53 -435q-43 -332 -518 -331q-217 0 -339 80t-122 215zM426 1255l14 134q6 59 74 59h469q35 0 47 -12.5t10 -46.5l-16 -134q-6 -63 -72 -63h-471q-56 0 -56 52 q0 5 1 11zM467 328q0 -78 135 -78q147 0 158 94l47 379v12q0 80 -135 80q-147 0 -158 -92l-47 -379v-16z" />
<glyph unicode="&#x14e;" horiz-adv-x="1300" d="M145 309q0 12 5 56l88 737q20 158 156 261t421 103q256 0 385 -94t129 -233q0 -16 -4 -56l-90 -735q-18 -158 -155.5 -261t-424.5 -103q-254 0 -382 93t-128 232zM502 387q0 -117 184 -117q82 0 139.5 34t65.5 106l76 610q4 39 4 41q0 117 -180 117q-80 0 -139.5 -35 t-67.5 -103l-76 -612q-6 -35 -6 -41zM547 1782q0 16 4 45l4 28q10 51 63 52h130q31 0 41 -12.5t8 -39.5l-4 -36v-11q0 -59 67 -59q76 0 82 70l4 36q6 51 62 52h129q31 0 42 -13q8 -9 8 -25q0 -6 -1 -14l-4 -28q-43 -276 -334 -277q-135 0 -218 61.5t-83 170.5z" />
<glyph unicode="&#x14f;" horiz-adv-x="1144" d="M119 279q0 18 2 36l53 435q20 158 148.5 244.5t371.5 86.5q215 0 337 -78.5t122 -211.5q0 -20 -2 -41l-53 -435q-43 -332 -518 -331q-217 0 -339 80t-122 215zM426 1389q0 14 4 45l4 26q8 51 62 51h131q29 0 40 -11t9 -40l-4 -35v-10q0 -61 67 -61q74 0 80 71l4 35 q8 51 64 51h129q33 0 43 -11q7 -8 7 -25q0 -7 -1 -15l-4 -26q-43 -276 -334 -277q-135 0 -218 61.5t-83 170.5zM467 328q0 -78 135 -78q147 0 158 94l47 379v12q0 80 -135 80q-147 0 -158 -92l-47 -379v-16z" />
<glyph unicode="&#x150;" horiz-adv-x="1300" d="M145 309q0 12 5 56l88 737q20 158 156 261t421 103q256 0 385 -94t129 -233q0 -16 -4 -56l-90 -735q-18 -158 -155.5 -261t-424.5 -103q-254 0 -382 93t-128 232zM502 387q0 -117 184 -117q82 0 139.5 34t65.5 106l76 610q4 39 4 41q0 117 -180 117q-80 0 -139.5 -35 t-67.5 -103l-76 -612q-6 -35 -6 -41zM522 1610l101 196q33 63 92 64h192q35 0 43 -18.5t-8 -45.5l-133 -196q-45 -61 -92 -62h-160q-46 0 -45 28q-1 14 10 34zM877 1610l133 196q45 63 104 64h193q33 0 39 -19q1 -4 1 -8q0 -16 -18 -37l-164 -196q-53 -61 -102 -62h-160 q-42 0 -42 24q1 15 16 38z" />
<glyph unicode="&#x151;" horiz-adv-x="1144" d="M119 279q0 18 2 36l53 435q20 158 148.5 244.5t371.5 86.5q215 0 337 -78.5t122 -211.5q0 -20 -2 -41l-53 -435q-43 -332 -518 -331q-217 0 -339 80t-122 215zM401 1247l99 197q35 63 94 63h192q33 0 42.5 -17t-9.5 -46l-131 -197q-45 -61 -92 -61h-160q-46 0 -45 28 q-1 13 10 33zM467 328q0 -78 135 -78q147 0 158 94l47 379v12q0 80 -135 80q-147 0 -158 -92l-47 -379v-16zM756 1247l133 197q45 63 104 63h191q35 0 41 -17q1 -4 1 -8q0 -16 -18 -38l-164 -197q-53 -61 -102 -61h-160q-43 0 -43 23q1 15 17 38z" />
<glyph unicode="&#x152;" horiz-adv-x="1792" d="M145 309q0 12 5 56l88 737q20 154 147 260t381 106q137 0 254 -49q14 29 59 29h729q58 0 59 -47q0 -6 -1 -12l-21 -166q-10 -61 -71 -62h-439l-35 -276h406q35 0 47 -14.5t8 -47.5l-18 -153q-8 -63 -72 -64h-403l-41 -319h461q58 0 58 -47q0 -6 -1 -13l-23 -166 q-8 -61 -69 -61h-750q-41 0 -51 18q-98 -35 -203 -34q-256 0 -380 92t-124 233zM502 387q0 -117 184 -117q82 0 138.5 34t64.5 106l76 610q4 39 4 41q0 117 -178 117q-80 0 -139.5 -35t-67.5 -103l-76 -612q-6 -35 -6 -41z" />
<glyph unicode="&#x153;" horiz-adv-x="1705" d="M119 279q0 25 2 36l53 435q43 332 500 331q211 0 315 -77q115 78 311 77q205 0 311.5 -75.5t106.5 -210.5q0 -31 -2 -45l-26 -236q-6 -57 -68 -57h-516l-16 -125l-3 -21q0 -78 123 -78t136 84l2 13q8 61 71 61h183q54 0 53 -50v-11l-2 -21q-14 -158 -120 -241.5 t-343 -83.5q-188 0 -303 63q-109 -63 -307 -63q-217 0 -339 80t-122 215zM467 328q0 -78 135 -78q145 0 156 94l47 379v12q0 80 -133 80q-147 0 -158 -92l-47 -379v-16zM1133 674h258l8 61v17q0 80 -119 79q-125 0 -139 -96z" />
<glyph unicode="&#x154;" horiz-adv-x="1286" d="M135 63l162 1321q8 63 70 64h440q258 0 387 -96.5t129 -245.5q0 -18 -4 -51l-21 -166q-29 -227 -256 -307l142 -519q8 -29 -11.5 -46t-54.5 -17h-227q-18 0 -29.5 9t-15.5 21.5l-10 32.5l-131 472h-162l-58 -472q-6 -63 -65 -63h-230q-57 0 -56 47q0 7 1 16zM580 821h170 q193 0 211 131l6 45q2 16 2 35q0 129 -170 129h-176zM623 1610l108 196q35 63 96 64h234q35 0 41 -19q1 -4 1 -7q0 -16 -20 -38l-172 -215q-39 -43 -90 -43h-174q-38 0 -38 24q0 15 14 38z" />
<glyph unicode="&#x155;" horiz-adv-x="815" d="M113 63l114 941q8 61 70 61h203q33 0 44 -14.5t11 -46.5l-2 -60q139 137 311 137q58 0 59 -48q0 -6 -1 -13l-21 -166q-4 -33 -20.5 -46t-51.5 -17q-186 -23 -301 -117l-73 -611q-10 -63 -70 -63h-219q-54 0 -54 49q0 7 1 14zM430 1247l109 197q37 63 96 63h233 q35 0 41 -17l2 -8q0 -16 -18 -38l-172 -215q-39 -43 -90 -43h-174q-40 0 -40 24q-1 14 13 37z" />
<glyph unicode="&#x156;" horiz-adv-x="1286" d="M135 63l162 1321q8 63 70 64h440q258 0 387 -96.5t129 -245.5q0 -18 -4 -51l-21 -166q-29 -227 -256 -307l142 -519q8 -29 -11.5 -46t-54.5 -17h-227q-18 0 -29.5 9t-15.5 21.5l-10 32.5l-131 472h-162l-58 -472q-6 -63 -65 -63h-230q-57 0 -56 47q0 7 1 16zM382 -528 q-1 5 -1 10q0 20 14 41q43 74 57.5 113.5t24.5 125.5l8 68q8 63 70 64h162q35 0 46 -15.5t5 -48.5l-10 -88q-10 -94 -41 -154.5t-94 -142.5q-26 -35 -67 -35q-9 0 -19 2l-119 27q-31 8 -36 33zM580 821h170q193 0 211 131l6 45q2 16 2 35q0 129 -170 129h-176z" />
<glyph unicode="&#x157;" horiz-adv-x="815" d="M7 -528q-1 5 -1 10q0 20 14 41q43 74 57.5 113.5t24.5 125.5l9 68q8 63 69 64h162q35 0 45 -15.5t6 -48.5l-10 -88q-10 -94 -41 -154.5t-94 -142.5q-26 -35 -66 -35q-9 0 -20 2l-119 27q-31 8 -36 33zM113 63l114 941q8 61 70 61h203q33 0 44 -14.5t11 -46.5l-2 -60 q139 137 311 137q58 0 59 -48q0 -6 -1 -13l-21 -166q-4 -33 -20.5 -46t-51.5 -17q-186 -23 -301 -117l-73 -611q-10 -63 -70 -63h-219q-54 0 -54 49q0 7 1 14z" />
<glyph unicode="&#x158;" horiz-adv-x="1286" d="M135 63l162 1321q8 63 70 64h440q258 0 387 -96.5t129 -245.5q0 -18 -4 -51l-21 -166q-29 -227 -256 -307l142 -519q8 -29 -11.5 -46t-54.5 -17h-227q-18 0 -29.5 9t-15.5 21.5l-10 32.5l-131 472h-162l-58 -472q-6 -63 -65 -63h-230q-57 0 -56 47q0 7 1 16zM451 1851 q12 18 45 19h163q63 0 80 -62l19 -59l33 59q37 61 96 62h168q33 0 41 -19q2 -5 2 -9q0 -15 -19 -34l-174 -196q-55 -63 -108 -64h-123q-51 0 -92 64l-127 196q-9 14 -10 26q1 9 6 17zM580 821h170q193 0 211 131l6 45q2 16 2 35q0 129 -170 129h-176z" />
<glyph unicode="&#x159;" horiz-adv-x="815" d="M113 63l114 941q8 61 70 61h203q33 0 44 -14.5t11 -46.5l-2 -60q139 137 311 137q58 0 59 -48q0 -6 -1 -13l-21 -166q-4 -33 -20.5 -46t-51.5 -17q-186 -23 -301 -117l-73 -611q-10 -63 -70 -63h-219q-54 0 -54 49q0 7 1 14zM257 1490q11 17 46 17h164q61 0 78 -61 l20 -60l31 60q37 61 96 61h168q35 0 42 -17q2 -4 2 -9q0 -15 -17 -35l-176 -197q-55 -63 -109 -63h-123q-51 0 -92 63l-127 197q-8 15 -8 27q0 9 5 17z" />
<glyph unicode="&#x15a;" horiz-adv-x="1224" d="M123 311q0 23 4 54l16 124q6 63 70 64h221q53 0 53 -47q0 -8 -2 -17l-10 -77q-2 -16 -2 -39q0 -113 176 -113q180 0 201 133l4 29q2 14 2 24q0 33 -31.5 61t-58.5 41t-76 32l-293 114q-68 27 -117 93.5t-49 154.5q0 10 5 53l14 107q41 365 536 364q248 0 366 -92 t118 -231q0 -16 -2 -41l-8 -80q-6 -63 -72 -64h-221q-31 0 -42.5 14.5t-9.5 49.5l3 33v12q0 121 -154 121q-164 0 -180 -133l-2 -23v-12q0 -55 57 -78l342 -123q104 -35 166.5 -111.5t62.5 -175.5q0 -6 -4 -53l-16 -131q-18 -158 -150.5 -261t-410.5 -103q-256 0 -381 93 t-125 234zM668 1610l108 196q35 63 94 64h236q33 0 40 -19q2 -4 1 -8q0 -16 -19 -37l-172 -215q-39 -43 -90 -43h-174q-38 0 -38 24q0 15 14 38z" />
<glyph unicode="&#x15b;" horiz-adv-x="1011" d="M94 236q0 20 2 36l4 45q6 57 66 58h196q29 0 40.5 -12.5t9.5 -45.5l-2 -30v-6q0 -61 125 -62q137 0 145 68l2 20v6q0 27 -76 60l-287 114q-61 25 -100 80.5t-39 122.5q0 23 2 43l8 60q12 123 116 205.5t329 82.5q203 0 305 -79.5t102 -190.5q0 -10 -2 -31l-6 -30 q-8 -59 -65 -60h-193q-53 0 -52 44q0 7 1 16l2 14q2 14 2 29q0 55 -108 55q-111 0 -125 -62l-2 -10l-2 -14q0 -38 40 -51l285 -107q188 -68 189 -203q0 -10 -2 -26l-15 -117q-16 -119 -127.5 -196.5t-339.5 -77.5q-213 0 -320.5 73t-107.5 179zM520 1247l109 197 q35 63 96 63h233q35 0 41 -17q1 -3 2 -7q0 -16 -20 -39l-172 -215q-39 -43 -88 -43h-176q-38 0 -39 24q0 14 14 37z" />
<glyph unicode="&#x15c;" horiz-adv-x="1224" d="M123 311q0 23 4 54l16 124q6 63 70 64h221q53 0 53 -47q0 -8 -2 -17l-10 -77q-2 -16 -2 -39q0 -113 176 -113q180 0 201 133l4 29q2 14 2 24q0 33 -31.5 61t-58.5 41t-76 32l-293 114q-68 27 -117 93.5t-49 154.5q0 10 5 53l14 107q41 365 536 364q248 0 366 -92 t118 -231q0 -16 -2 -41l-8 -80q-6 -63 -72 -64h-221q-31 0 -42.5 14.5t-9.5 49.5l3 33v12q0 121 -154 121q-164 0 -180 -133l-2 -23v-12q0 -55 57 -78l342 -123q104 -35 166.5 -111.5t62.5 -175.5q0 -6 -4 -53l-16 -131q-18 -158 -150.5 -261t-410.5 -103q-256 0 -381 93 t-125 234zM470 1567q-2 4 -2 9q0 15 17 34l174 196q55 63 109 64h125q51 0 90 -64l129 -196q8 -14 8 -26q0 -9 -5 -17q-11 -18 -46 -19h-164q-57 0 -78 62l-20 59l-31 -59q-37 -61 -96 -62h-168q-35 1 -42 19z" />
<glyph unicode="&#x15d;" horiz-adv-x="1011" d="M94 236q0 20 2 36l4 45q6 57 66 58h196q29 0 40.5 -12.5t9.5 -45.5l-2 -30v-6q0 -61 125 -62q137 0 145 68l2 20v6q0 27 -76 60l-287 114q-61 25 -100 80.5t-39 122.5q0 23 2 43l8 60q12 123 116 205.5t329 82.5q203 0 305 -79.5t102 -190.5q0 -10 -2 -31l-6 -30 q-8 -59 -65 -60h-193q-53 0 -52 44q0 7 1 16l2 14q2 14 2 29q0 55 -108 55q-111 0 -125 -62l-2 -10l-2 -14q0 -38 40 -51l285 -107q188 -68 189 -203q0 -10 -2 -26l-15 -117q-16 -119 -127.5 -196.5t-339.5 -77.5q-213 0 -320.5 73t-107.5 179zM323 1204q-2 4 -2 9 q0 15 17 34l176 197q55 63 109 63h122q51 0 93 -63l127 -197q8 -14 8 -25q0 -9 -5 -18q-11 -18 -46 -18h-164q-57 0 -78 61l-21 62l-30 -62q-37 -61 -97 -61h-167q-35 0 -42 18z" />
<glyph unicode="&#x15e;" horiz-adv-x="1224" d="M123 311q0 23 4 54l16 124q6 63 70 64h221q53 0 53 -47q0 -8 -2 -17l-10 -77q-2 -16 -2 -39q0 -113 176 -113q180 0 201 133l4 29q2 14 2 24q0 33 -31.5 61t-58.5 41t-76 32l-293 114q-68 27 -117 93.5t-49 154.5q0 10 5 53l14 107q41 365 536 364q248 0 366 -92 t118 -231q0 -16 -2 -41l-8 -80q-6 -63 -72 -64h-221q-31 0 -42.5 14.5t-9.5 49.5l3 33v12q0 121 -154 121q-164 0 -180 -133l-2 -23v-12q0 -55 57 -78l342 -123q104 -35 166.5 -111.5t62.5 -175.5q0 -6 -4 -53l-16 -131q-16 -143 -128 -243.5t-345 -116.5l-25 -72h58 q80 0 123.5 -42t43.5 -112q0 -102 -57 -156.5t-155 -54.5h-267q-59 0 -58 47q0 7 1 15l6 45q8 59 72 59h205q23 0 22 23q0 18 -22 18h-166q-72 0 -72 48q0 16 8 38l62 148q-188 23 -280.5 110.5t-92.5 208.5z" />
<glyph unicode="&#x15f;" horiz-adv-x="1011" d="M94 236q0 20 2 36l4 45q6 57 66 58h196q29 0 40.5 -12.5t9.5 -45.5l-2 -30v-6q0 -61 125 -62q137 0 145 68l2 20v6q0 27 -76 60l-287 114q-61 25 -100 80.5t-39 122.5q0 23 2 43l8 60q12 123 116 205.5t329 82.5q203 0 305 -79.5t102 -190.5q0 -10 -2 -31l-6 -30 q-8 -59 -65 -60h-193q-53 0 -52 44q0 7 1 16l2 14q2 14 2 29q0 55 -108 55q-111 0 -125 -62l-2 -10l-2 -14q0 -38 40 -51l285 -107q188 -68 189 -203q0 -10 -2 -26l-15 -117q-14 -106 -104 -181t-275 -89l-24 -72h57q80 0 124 -42t44 -112q0 -102 -57.5 -156.5t-155.5 -54.5 h-266q-59 0 -59 47q0 7 1 15l7 45q8 59 71 59h205q23 0 23 23q0 18 -23 18h-166q-72 0 -72 48q0 16 9 38l61 150q-147 20 -221 88t-74 154z" />
<glyph unicode="&#x160;" horiz-adv-x="1224" d="M123 311q0 23 4 54l16 124q6 63 70 64h221q53 0 53 -47q0 -8 -2 -17l-10 -77q-2 -16 -2 -39q0 -113 176 -113q180 0 201 133l4 29q2 14 2 24q0 33 -31.5 61t-58.5 41t-76 32l-293 114q-68 27 -117 93.5t-49 154.5q0 10 5 53l14 107q41 365 536 364q248 0 366 -92 t118 -231q0 -16 -2 -41l-8 -80q-6 -63 -72 -64h-221q-31 0 -42.5 14.5t-9.5 49.5l3 33v12q0 121 -154 121q-164 0 -180 -133l-2 -23v-12q0 -55 57 -78l342 -123q104 -35 166.5 -111.5t62.5 -175.5q0 -6 -4 -53l-16 -131q-18 -158 -150.5 -261t-410.5 -103q-256 0 -381 93 t-125 234zM496 1851q12 18 45 19h164q61 0 79 -62l19 -59l33 59q35 61 94 62h170q33 0 41 -19q2 -5 2 -9q0 -15 -19 -34l-174 -196q-55 -63 -108 -64h-125q-49 0 -90 64l-129 196q-8 13 -8 25q0 9 6 18z" />
<glyph unicode="&#x161;" horiz-adv-x="1011" d="M94 236q0 20 2 36l4 45q6 57 66 58h196q29 0 40.5 -12.5t9.5 -45.5l-2 -30v-6q0 -61 125 -62q137 0 145 68l2 20v6q0 27 -76 60l-287 114q-61 25 -100 80.5t-39 122.5q0 23 2 43l8 60q12 123 116 205.5t329 82.5q203 0 305 -79.5t102 -190.5q0 -10 -2 -31l-6 -30 q-8 -59 -65 -60h-193q-53 0 -52 44q0 7 1 16l2 14q2 14 2 29q0 55 -108 55q-111 0 -125 -62l-2 -10l-2 -14q0 -38 40 -51l285 -107q188 -68 189 -203q0 -10 -2 -26l-15 -117q-16 -119 -127.5 -196.5t-339.5 -77.5q-213 0 -320.5 73t-107.5 179zM338 1490q12 17 45 17h164 q61 0 80 -61l18 -60l33 60q35 61 96 61h168q33 0 41 -17q2 -4 2 -9q0 -15 -18 -35l-174 -197q-55 -63 -109 -63h-123q-51 0 -92 63l-129 197q-8 14 -8 26q0 10 6 18z" />
<glyph unicode="&#x162;" horiz-adv-x="1056" d="M166 1223l22 166q6 59 70 59h897q58 0 58 -47q0 -6 -1 -12l-22 -166q-6 -61 -70 -62h-272l-137 -1098q-8 -63 -66 -63h-229q-56 0 -56 50v13l136 1098h-273q-58 0 -58 49q0 6 1 13zM253 -528q-1 5 -1 10q0 20 14 41q43 74 56.5 113.5t25.5 125.5l8 68q8 63 70 64h162 q35 0 45 -16q7 -11 7 -31q0 -8 -1 -17l-10 -88q-10 -94 -42 -154.5t-95 -142.5q-25 -35 -65 -35q-9 0 -19 2l-121 27q-29 8 -34 33z" />
<glyph unicode="&#x163;" horiz-adv-x="788" d="M125 856l16 131q2 31 17.5 44t52.5 18l94 12h2l23 194q6 63 71 64h220q52 0 51 -52v-12l-25 -194h172q56 0 56 -47q-1 -6 -1 -13l-16 -145q-6 -61 -72 -61h-172l-49 -408q-2 -18 -2 -35q0 -41 29 -58.5t94 -17.5h51q58 0 58 -52v-11l-19 -152q-10 -61 -71 -61h-107 q-205 0 -295 63.5t-90 200.5q0 20 4 68l55 463h-94q-54 0 -54 50q0 5 1 11zM137 -528q-1 6 -1 11q0 19 16 40q43 74 56 113.5t23 125.5l11 68q8 63 69 64h162q35 0 45 -16q7 -11 7 -31q0 -8 -1 -17l-10 -88q-12 -94 -43 -154.5t-94 -142.5q-26 -35 -66 -35q-9 0 -20 2 l-119 27q-29 8 -35 33z" />
<glyph unicode="&#x164;" horiz-adv-x="1056" d="M166 1223l22 166q6 59 70 59h897q58 0 58 -47q0 -6 -1 -12l-22 -166q-6 -61 -70 -62h-272l-137 -1098q-8 -63 -66 -63h-229q-56 0 -56 50v13l136 1098h-273q-58 0 -58 49q0 6 1 13zM408 1851q12 18 47 19h163q61 0 78 -62l19 -59l33 59q37 61 96 62h168q35 0 42 -19 q2 -4 1 -8q0 -15 -19 -35l-174 -196q-55 -63 -108 -64h-123q-51 0 -92 64l-127 196q-9 14 -10 26q1 9 6 17z" />
<glyph unicode="&#x165;" horiz-adv-x="870" d="M125 856l16 131q2 31 17.5 44t52.5 18l94 12h2l23 194q6 63 71 64h220q52 0 51 -52v-12l-25 -194h172q56 0 56 -47q0 -6 -1 -13l-16 -145q-6 -61 -72 -61h-172l-49 -408q-2 -18 -2 -35q0 -41 29 -58.5t94 -17.5h51q58 0 58 -52v-11l-19 -152q-10 -61 -71 -61h-107 q-205 0 -295 63.5t-90 200.5q0 20 4 68l55 463h-94q-54 0 -54 50q0 5 1 11zM728 1180q-1 5 -1 10q0 20 14 41q43 76 56.5 114.5t23.5 124.5l10 68q8 63 70 64h162q35 0 45 -15q7 -10 7 -31q0 -8 -1 -18l-10 -88q-10 -94 -42 -154.5t-95 -142.5q-25 -35 -65 -35q-9 0 -19 2 l-121 29q-29 6 -34 31z" />
<glyph unicode="&#x166;" horiz-adv-x="1056" d="M166 1223l22 166q6 59 70 59h897q58 0 58 -47q0 -6 -1 -12l-22 -166q-6 -61 -70 -62h-272l-37 -284h193q58 0 58 -47q0 -6 -1 -13l-14 -112q-10 -61 -72 -62h-191l-73 -580q-8 -63 -66 -63h-229q-56 0 -56 50v13l72 580h-180q-59 0 -59 46q0 7 2 16l14 112q8 59 70 60 h182l35 284h-273q-58 0 -58 49q0 6 1 13z" />
<glyph unicode="&#x167;" horiz-adv-x="788" d="M84 514l14 113q8 59 70 59h92l12 109h-94q-54 0 -54 50q0 5 1 11l16 131q2 31 17.5 44t52.5 18l94 12h2l23 194q6 63 71 64h220q52 0 51 -52v-12l-25 -194h172q56 0 56 -47q0 -6 -1 -13l-16 -145q-6 -61 -72 -61h-172l-14 -109h174q58 0 58 -47q0 -6 -1 -12l-16 -113 q-8 -63 -70 -63h-174l-6 -64q-2 -18 -2 -35q0 -41 29 -58.5t94 -17.5h51q58 0 58 -52v-11l-19 -152q-10 -61 -71 -61h-107q-205 0 -295 63.5t-90 200.5q0 20 4 68l12 119h-88q-59 0 -58 47q0 8 1 16z" />
<glyph unicode="&#x168;" horiz-adv-x="1320" d="M156 313q0 8 6 66l123 1005q10 63 69 64h230q54 0 54 -49q0 -7 -1 -15l-115 -923q-6 -51 -6 -72q0 -59 50 -89t128 -30q84 0 141.5 34t65.5 106l121 974q8 63 68 64h231q54 0 54 -49q0 -7 -1 -15l-129 -1036q-20 -160 -153.5 -262t-417.5 -102q-252 0 -385 95t-133 234z M459 1620l24 104q18 76 79 119t136 43q70 0 125 -22l86 -35q63 -25 70 -25q31 0 43 27l4 10q16 31 30.5 43t45.5 12h115q49 0 48 -46q0 -12 -3 -27l-23 -97q-16 -78 -67.5 -119.5t-122.5 -41.5q-84 0 -152 22l-92 31q-63 23 -76 22q-31 0 -41 -28l-4 -10 q-12 -33 -27.5 -43.5t-48.5 -10.5h-108q-46 0 -46 41q0 13 5 31z" />
<glyph unicode="&#x169;" horiz-adv-x="1163" d="M125 242q0 18 2 37l90 722q8 63 70 64h215q57 0 56 -48q0 -7 -1 -16l-76 -634q-2 -18 -2 -37q0 -31 15.5 -43.5t54.5 -12.5q94 0 211 84l80 643q8 63 67 64h219q35 0 46 -16q8 -12 9 -32q0 -7 -1 -16l-115 -940q-8 -61 -70 -61h-204q-33 0 -43.5 12.5t-10.5 48.5v35 q-150 -113 -321 -112q-131 0 -211 71.5t-80 186.5zM330 1237l26 104q18 76 78 119t137 43q70 0 125 -22l86 -35q63 -25 70 -25q31 0 43 27l4 8q14 33 29.5 44t44.5 11h114q49 0 50 -43q0 -12 -4 -28l-21 -97q-16 -78 -67.5 -119.5t-124.5 -41.5q-82 0 -152 22l-90 31 q-63 23 -78 22q-29 0 -39 -28l-6 -10q-12 -33 -26.5 -43.5t-47.5 -10.5h-108q-47 0 -48 43q1 12 5 29z" />
<glyph unicode="&#x16a;" horiz-adv-x="1320" d="M156 313q0 8 6 66l123 1005q10 63 69 64h230q54 0 54 -49q0 -7 -1 -15l-115 -923q-6 -51 -6 -72q0 -59 50 -89t128 -30q84 0 141.5 34t65.5 106l121 974q8 63 68 64h231q54 0 54 -49q0 -7 -1 -15l-129 -1036q-20 -160 -153.5 -262t-417.5 -102q-252 0 -385 95t-133 234z M555 1638l16 134q6 59 72 59h471q35 0 46 -12.5t9 -46.5l-14 -134q-6 -61 -74 -61h-471q-56 0 -56 51q0 4 1 10z" />
<glyph unicode="&#x16b;" horiz-adv-x="1163" d="M125 242q0 18 2 37l90 722q8 63 70 64h215q57 0 56 -48q0 -7 -1 -16l-76 -634q-2 -18 -2 -37q0 -31 15.5 -43.5t54.5 -12.5q94 0 211 84l80 643q8 63 67 64h219q35 0 46 -16q8 -12 9 -32q0 -7 -1 -16l-115 -940q-8 -61 -70 -61h-204q-33 0 -43.5 12.5t-10.5 48.5v35 q-150 -113 -321 -112q-131 0 -211 71.5t-80 186.5zM426 1255l14 134q6 59 74 59h469q35 0 47 -12.5t10 -46.5l-16 -134q-6 -63 -72 -63h-471q-56 0 -56 52q0 5 1 11z" />
<glyph unicode="&#x16c;" horiz-adv-x="1320" d="M156 313q0 8 6 66l123 1005q10 63 69 64h230q54 0 54 -49q0 -7 -1 -15l-115 -923q-6 -51 -6 -72q0 -59 50 -89t128 -30q84 0 141.5 34t65.5 106l121 974q8 63 68 64h231q54 0 54 -49q0 -7 -1 -15l-129 -1036q-20 -160 -153.5 -262t-417.5 -102q-252 0 -385 95t-133 234z M549 1782q0 16 4 45l4 28q10 51 64 52h129q31 0 41 -12.5t8 -39.5l-4 -36v-11q0 -59 67 -59q76 0 82 70l4 36q6 51 62 52h129q33 0 43 -13q7 -9 7 -24q0 -6 -1 -15l-4 -28q-43 -276 -334 -277q-135 0 -218 61.5t-83 170.5z" />
<glyph unicode="&#x16d;" horiz-adv-x="1163" d="M125 242q0 18 2 37l90 722q8 63 70 64h215q57 0 56 -48q0 -7 -1 -16l-76 -634q-2 -18 -2 -37q0 -31 15.5 -43.5t54.5 -12.5q94 0 211 84l80 643q8 63 67 64h219q35 0 46 -16q8 -12 9 -32q0 -7 -1 -16l-115 -940q-8 -61 -70 -61h-204q-33 0 -43.5 12.5t-10.5 48.5v35 q-150 -113 -321 -112q-131 0 -211 71.5t-80 186.5zM420 1389q0 14 4 45l4 26q8 51 61 51h132q29 0 40 -11t9 -40l-6 -35v-10q0 -61 69 -61q74 0 80 71l4 35q6 51 64 51h129q31 0 42 -11q8 -8 8 -26q0 -6 -1 -14l-4 -26q-43 -276 -334 -277q-135 0 -218 61.5t-83 170.5z" />
<glyph unicode="&#x16e;" horiz-adv-x="1320" d="M156 313q0 8 6 66l123 1005q10 63 69 64h230q54 0 54 -49q0 -7 -1 -15l-115 -923q-6 -51 -6 -72q0 -59 50 -89t128 -30q84 0 141.5 34t65.5 106l121 974q8 63 68 64h231q54 0 54 -49q0 -7 -1 -15l-129 -1036q-20 -160 -153.5 -262t-417.5 -102q-252 0 -385 95t-133 234z M596 1669q0 20 2 33l8 57q27 170 275 170q121 0 183 -43t62 -110q0 -18 -2 -31l-8 -57q-27 -172 -266 -172q-121 0 -187.5 45t-66.5 108zM778 1696q0 -49 76 -49t86 59l4 35v10q0 47 -76.5 47t-85.5 -57l-4 -35v-10z" />
<glyph unicode="&#x16f;" horiz-adv-x="1163" d="M125 242q0 18 2 37l90 722q8 63 70 64h215q57 0 56 -48q0 -7 -1 -16l-76 -634q-2 -18 -2 -37q0 -31 15.5 -43.5t54.5 -12.5q94 0 211 84l80 643q8 63 67 64h219q35 0 46 -16q8 -12 9 -32q0 -7 -1 -16l-115 -940q-8 -61 -70 -61h-204q-33 0 -43.5 12.5t-10.5 48.5v35 q-150 -113 -321 -112q-131 0 -211 71.5t-80 186.5zM469 1303q0 20 2 32l8 58q25 170 273 170q121 0 184 -43t63 -111q0 -18 -2 -31l-8 -57q-27 -170 -266 -170q-123 0 -188.5 44.5t-65.5 107.5zM649 1329q0 -49 77 -49t85 59l4 35v10q0 47 -76.5 47.5t-85.5 -57.5l-4 -35 v-10z" />
<glyph unicode="&#x170;" horiz-adv-x="1320" d="M156 313q0 8 6 66l123 1005q10 63 69 64h230q54 0 54 -49q0 -7 -1 -15l-115 -923q-6 -51 -6 -72q0 -59 50 -89t128 -30q84 0 141.5 34t65.5 106l121 974q8 63 68 64h231q54 0 54 -49q0 -7 -1 -15l-129 -1036q-20 -160 -153.5 -262t-417.5 -102q-252 0 -385 95t-133 234z M530 1610l101 196q33 63 94 64h190q35 0 43.5 -18.5t-8.5 -45.5l-133 -196q-43 -61 -90 -62h-160q-47 0 -47 29q0 13 10 33zM887 1610l131 196q45 63 104 64h193q33 0 40 -19q2 -4 1 -8q0 -16 -19 -37l-163 -196q-53 -61 -103 -62h-160q-41 0 -41 23q0 15 17 39z" />
<glyph unicode="&#x171;" horiz-adv-x="1163" d="M125 242q0 18 2 37l90 722q8 63 70 64h215q57 0 56 -48q0 -7 -1 -16l-76 -634q-2 -18 -2 -37q0 -31 15.5 -43.5t54.5 -12.5q94 0 211 84l80 643q8 63 67 64h219q35 0 46.5 -16.5t7.5 -47.5l-115 -940q-8 -61 -70 -61h-204q-33 0 -43.5 12.5t-10.5 48.5v35 q-150 -113 -321 -112q-131 0 -211 71.5t-80 186.5zM408 1247l100 197q33 63 92 63h193q35 0 43 -17t-9 -46l-133 -197q-45 -61 -92 -61h-160q-46 0 -45 28q0 13 11 33zM762 1247l133 197q45 63 104 63h191q35 0 41 -17q1 -4 1 -8q0 -16 -18 -38l-163 -197q-53 -61 -103 -61 h-160q-42 0 -42 24q1 14 16 37z" />
<glyph unicode="&#x172;" horiz-adv-x="1320" d="M156 313q0 8 6 66l123 1005q10 63 69 64h230q54 0 54 -49q0 -7 -1 -15l-115 -923q-6 -51 -6 -72q0 -59 50 -89t128 -30q84 0 141.5 34t65.5 106l121 974q8 63 68 64h231q54 0 54 -49q0 -7 -1 -15l-129 -1036q-18 -143 -112 -231q-135 -125 -136 -238q0 -53 64 -53h49 q37 0 52.5 -14.5t11.5 -44.5l-11 -86q-8 -61 -86 -62h-123q-45 0 -88 11.5t-83 55.5t-40 115q0 100 50 189q-109 -6 -119 -6q-252 0 -385 95t-133 234z" />
<glyph unicode="&#x173;" horiz-adv-x="1163" d="M125 242q0 25 2 37l90 722q8 63 70 64h215q57 0 56 -48q0 -7 -1 -16l-76 -634q-2 -14 -2 -37q0 -31 15.5 -43.5t54.5 -12.5q94 0 211 84l80 643q8 63 67 64h219q35 0 46 -16q8 -12 9 -32q0 -7 -1 -16l-115 -940q-8 -61 -70 -61h-18q-90 0 -90 -117q0 -57 67 -57h11 q37 0 52 -14.5t11 -44.5l-10 -86q-8 -61 -84 -62h-86q-45 0 -88 11.5t-83 55.5t-40 115q0 127 100 246v49q-150 -113 -321 -112q-131 0 -211 71.5t-80 186.5z" />
<glyph unicode="&#x174;" horiz-adv-x="1820" d="M190 1384q-1 7 0 14q0 50 56 50h231q59 0 66 -64l73 -596q10 -84 11 -188q20 88 61 188l223 596q25 63 84 64h215q59 0 66 -64l72 -593q8 -76 8 -230q18 90 67 227l222 596q23 63 81 64h203q45 0 45 -34q0 -12 -6 -30l-493 -1321q-25 -63 -86 -63h-224q-57 0 -63 63 l-78 615q-4 29 -4 217q0 -2 -9.5 -45t-23.5 -93t-24 -81l-230 -613q-25 -63 -86 -63h-223q-57 0 -64 63zM787 1567q-2 4 -1 9q0 15 17 34l174 196q55 63 108 64h125q51 0 90 -64l130 -196q8 -14 8 -26q0 -9 -5 -17q-11 -18 -47 -19h-163q-57 0 -80 62l-19 59l-30 -59 q-37 -61 -97 -62h-168q-35 1 -42 19z" />
<glyph unicode="&#x175;" horiz-adv-x="1583" d="M119 1001q-1 6 -1 11q0 23 15 37q18 16 55 16h203q57 0 66 -64l63 -473q4 -35 4 -108q10 43 39 108l191 473q27 63 77 64h205q59 0 66 -64l41 -473q8 -68 8 -108q14 55 35 108l180 473q25 63 76 64h176q37 0 53 -16q9 -9 9 -22q0 -11 -7 -26l-387 -944q-14 -35 -26.5 -46 t-42.5 -11h-263q-33 0 -43 12.5t-14 44.5l-37 408q-6 63 -6 117l-6 -19q-6 -20 -16.5 -49t-18.5 -49l-172 -408q-10 -23 -15 -33t-19.5 -17t-35.5 -7h-256q-33 0 -43 11.5t-14 45.5zM610 1204q-2 5 -2 10q0 15 19 33l174 197q55 63 108 63h123q51 0 92 -63l129 -197 q8 -13 8 -24q0 -10 -6 -19q-12 -18 -45 -18h-163q-57 0 -80 61l-19 62l-33 -62q-35 -61 -96 -61h-168q-33 0 -41 18z" />
<glyph unicode="&#x176;" horiz-adv-x="1187" d="M195 1384q-5 14 -6 25q0 14 9 23q15 16 50 16h254q53 0 69 -64l101 -423q4 -20 9 -50t8 -52.5t3 -24.5l10 22q8 25 22.5 55.5t25.5 49.5l229 423q35 63 84 64h229q51 0 51 -29q0 -14 -12 -35l-493 -847l-60 -474q-10 -63 -67 -63h-230q-56 0 -56 50q0 6 1 13l53 431z M470 1567q-2 4 -2 9q0 15 17 34l174 196q55 63 109 64h125q51 0 90 -64l129 -196q8 -14 8 -26q0 -9 -5 -17q-11 -18 -46 -19h-164q-57 0 -78 62l-20 59l-31 -59q-37 -61 -96 -62h-168q-35 1 -42 19z" />
<glyph unicode="&#x177;" horiz-adv-x="1050" d="M137 1001q-3 9 -3 18q0 17 14 29q22 17 59 17h215q29 0 41 -15.5t20 -48.5l74 -385q18 -88 18 -206q41 121 72 194l180 397q27 63 78 64h201q35 0 50 -17q9 -10 9 -23q0 -11 -6 -24l-629 -1361q-31 -63 -79 -64h-162q-33 0 -49.5 17.5t-3.5 46.5l133 323zM344 1204 q-2 5 -2 10q0 15 18 33l175 197q55 63 108 63h123q51 0 92 -63l129 -197q8 -13 8 -24q0 -10 -6 -19q-12 -18 -45 -18h-164q-57 0 -80 61l-18 62l-33 -62q-35 -61 -96 -61h-168q-33 0 -41 18z" />
<glyph unicode="&#x178;" horiz-adv-x="1187" d="M195 1384q-5 14 -6 25q0 14 9 23q15 16 50 16h254q53 0 69 -64l101 -423q4 -20 9 -50t8 -52.5t3 -24.5l10 22q8 25 22.5 55.5t25.5 49.5l229 423q35 63 84 64h229q51 0 51 -29q0 -14 -12 -35l-493 -847l-60 -474q-10 -63 -67 -63h-230q-56 0 -56 50q0 6 1 13l53 431z M487 1610l25 196q8 63 70 64h127q35 0 45 -14.5t6 -49.5l-23 -196q-8 -61 -67 -62h-129q-33 0 -45 15q-9 11 -10 31q0 8 1 16zM817 1610l25 196q8 63 69 64h129q33 0 44 -15q7 -9 8 -27q0 -10 -2 -22l-23 -196q-8 -61 -68 -62h-129q-33 0 -45 15q-9 11 -9 31q0 8 1 16z" />
<glyph unicode="&#x179;" horiz-adv-x="1050" d="M59 61l23 166q2 27 24 58l590 876h-399q-60 0 -60 49q0 6 1 13l22 166q8 59 70 59h766q58 0 58 -47q0 -6 -1 -12l-20 -150q-4 -33 -29 -76l-588 -876h475q58 0 58 -47v-13l-23 -166q-8 -61 -70 -61h-839q-58 0 -59 49q0 5 1 12zM588 1610l108 196q37 63 97 64h233 q35 0 41 -19q1 -4 1 -8q0 -16 -17 -37l-174 -215q-37 -43 -89 -43h-174q-40 0 -40 25q0 14 14 37z" />
<glyph unicode="&#x17a;" horiz-adv-x="942" d="M59 61l19 156q6 33 18 45l453 526h-297q-59 0 -59 47q0 7 2 15l18 156q8 59 72 59h651q33 0 46 -14q10 -11 10 -32q0 -6 -1 -13l-20 -154q-4 -33 -17 -47l-458 -529h385q58 0 58 -46q0 -6 -1 -13l-20 -156q-8 -61 -72 -61h-731q-56 0 -57 48q0 6 1 13zM475 1247l109 197 q37 63 96 63h233q35 0 41 -17l2 -8q0 -16 -18 -38l-174 -215q-37 -43 -88 -43h-176q-38 0 -39 24q0 14 14 37z" />
<glyph unicode="&#x17b;" horiz-adv-x="1050" d="M59 61l23 166q2 27 24 58l590 876h-399q-60 0 -60 49q0 6 1 13l22 166q8 59 70 59h766q58 0 58 -47q0 -6 -1 -12l-20 -150q-4 -33 -29 -76l-588 -876h475q58 0 58 -47v-13l-23 -166q-8 -61 -70 -61h-839q-58 0 -59 49q0 5 1 12zM551 1610l22 178q6 63 70 63h225 q35 0 45 -15q7 -11 8 -31q0 -8 -1 -17l-21 -178q-8 -61 -68 -62h-227q-33 0 -45 15q-9 11 -9 31q0 8 1 16z" />
<glyph unicode="&#x17c;" horiz-adv-x="942" d="M59 61l19 156q6 33 18 45l453 526h-297q-59 0 -59 47q0 7 2 15l18 156q8 59 72 59h651q33 0 46 -14q10 -11 10 -32q0 -6 -1 -13l-20 -154q-4 -33 -17 -47l-458 -529h385q58 0 58 -46q0 -6 -1 -13l-20 -156q-8 -61 -72 -61h-731q-56 0 -57 48q0 6 1 13z" />
<glyph unicode="&#x17d;" horiz-adv-x="1050" d="M59 61l23 166q2 27 24 58l590 876h-399q-60 0 -60 49q0 6 1 13l22 166q8 59 70 59h766q58 0 58 -47q0 -6 -1 -12l-20 -150q-4 -33 -29 -76l-588 -876h475q58 0 58 -47v-13l-23 -166q-8 -61 -70 -61h-839q-58 0 -59 49q0 5 1 12zM429 1851q11 18 46 19h164q61 0 78 -62 l20 -59l31 59q37 61 96 62h168q35 0 42 -19q2 -4 2 -9q0 -15 -17 -34l-174 -196q-55 -63 -109 -64h-125q-51 0 -90 64l-129 196q-8 14 -8 26q0 9 5 17z" />
<glyph unicode="&#x17e;" horiz-adv-x="942" d="M59 61l19 156q6 33 18 45l453 526h-297q-59 0 -59 47q0 7 2 15l18 156q8 59 72 59h651q33 0 46 -14q10 -11 10 -32q0 -6 -1 -13l-20 -154q-4 -33 -17 -47l-458 -529h385q58 0 58 -46q0 -6 -1 -13l-20 -156q-8 -61 -72 -61h-731q-56 0 -57 48q0 6 1 13zM303 1490 q12 17 47 17h164q61 0 78 -61l18 -60l33 60q37 61 96 61h168q35 0 42 -17q2 -4 2 -9q0 -15 -17 -35l-176 -197q-55 -63 -109 -63h-123q-51 0 -92 63l-127 197q-9 15 -9 27q0 10 5 17z" />
<glyph unicode="&#x17f;" horiz-adv-x="770" d="M137 856l17 131q4 31 19 44t48 18l107 12h2l12 104q43 332 514 332h35q58 0 58 -48q0 -6 -1 -13l-20 -152q-8 -63 -72 -63h-22q-143 0 -154 -95l-184 -1486q-8 -63 -66 -64h-219q-56 0 -56 50q0 6 1 14l143 1155h-106q-57 0 -57 46q0 7 1 15z" />
<glyph unicode="&#x192;" horiz-adv-x="1251" d="M78 -385l20 152q6 63 70 63h49q145 0 164 94l168 752h-100q-33 0 -45.5 13t-8.5 48l19 144q8 61 67 61h127l54 234q78 332 516 331h65q59 0 59 -46q0 -7 -2 -15l-18 -152q-8 -63 -72 -63h-51q-139 0 -162 -94l-47 -195h129q35 0 47.5 -13.5t10.5 -45.5l-17 -146 q-8 -61 -71 -61h-156l-178 -791q-76 -332 -516 -331h-64q-58 0 -58 48q0 6 1 13z" />
<glyph unicode="&#x1fa;" horiz-adv-x="1204" d="M31 63l544 1321q27 63 87 64h231q61 0 70 -64l223 -1321q1 -9 1 -16q0 -47 -54 -47h-232q-57 0 -67 63l-31 205h-354l-80 -205q-25 -63 -82 -63h-219q-46 0 -46 31q0 13 9 32zM530 1669q0 20 2 33l9 57q14 125 157 158l39 72q37 66 97 65h233q35 0 41 -18q1 -4 1 -8 q0 -16 -19 -39l-93 -105q63 -39 64 -108q0 -18 -2 -31l-8 -57q-27 -172 -267 -172q-123 0 -188.5 45t-65.5 108zM561 545h199l-15 114q-12 98 -12 447q0 -2 -10 -40l-22.5 -90t-28.5 -111l-34 -114q-17 -56 -32 -92zM711 1696q0 -49 76.5 -49t84.5 59l5 35v10q0 47 -76 47 t-86 -57l-4 -35v-10z" />
<glyph unicode="&#x1fb;" d="M117 254q0 14 4 57l55 443q41 328 346 327q184 0 316 -110l8 30q10 35 23.5 49.5t43.5 14.5h215q54 0 55 -49q0 -7 -1 -15l-115 -938q-8 -63 -70 -63h-204q-53 0 -54 63v37q-51 -37 -79.5 -54t-101.5 -39.5t-150 -22.5q-139 0 -215 70.5t-76 199.5zM467 334q0 -59 74 -60 q88 0 221 88l43 340q-111 88 -201 89q-35 0 -56.5 -15.5t-26.5 -31t-9 -44.5l-43 -335q-2 -17 -2 -31zM479 1303q0 20 2 32l8 58q14 129 160 159l78 140q35 63 94 63h236q33 0 40 -18q2 -4 1 -9q0 -16 -19 -36l-135 -170q66 -41 66 -113q0 -18 -2 -31l-9 -57 q-27 -170 -266 -170q-123 0 -188.5 44.5t-65.5 107.5zM659 1329q0 -49 77 -49t85 59l6 35v10q0 47 -76.5 47.5t-86.5 -57.5l-5 -35v-10z" />
<glyph unicode="&#x1fc;" horiz-adv-x="1773" d="M27 17q-5 7 -5 15q0 14 13 31l956 1323q41 61 99 62h708q58 0 58 -47q0 -6 -1 -12l-22 -162q-8 -61 -70 -62h-438l-37 -282h406q58 0 58 -49q0 -6 -1 -13l-18 -149q-10 -63 -72 -64h-404l-40 -325h458q60 0 61 -48q0 -6 -1 -12l-23 -162q-8 -61 -70 -61h-731 q-56 0 -56 50q0 6 1 13l27 205h-361l-145 -205q-45 -63 -82 -63h-223q-33 0 -45 17zM721 545h194l43 350q-41 -68 -92 -143zM1139 1610l108 196q37 63 96 64h236q33 0 40 -19q2 -4 2 -8q0 -16 -19 -37l-172 -215q-39 -43 -91 -43h-174q-39 0 -39 25q0 15 13 37z" />
<glyph unicode="&#x1fd;" horiz-adv-x="1667" d="M106 217q0 20 3 39l10 92q12 123 106 199t269 76h258l12 100q4 29 4 35q0 80 -113 80q-70 0 -99.5 -17.5t-33.5 -66.5l-2 -19q-6 -61 -71 -61h-193q-31 0 -43 12t-10 49l2 25q27 322 471 321q186 0 276 -84q115 84 310 84q205 0 311 -75.5t106 -210.5q0 -31 -4 -45 l-26 -236q-6 -57 -66 -57h-518l-14 -125q-2 -14 -2 -21q0 -78 120 -78q123 0 138 84l2 13q8 61 69 61h183q54 0 53 -50v-11l-2 -21q-14 -158 -120 -241.5t-341 -83.5q-274 0 -383 127q-154 -127 -342 -127q-154 0 -237 65.5t-83 167.5zM446 295q0 -47 66 -47q84 0 203 76 l10 71h-195q-76 0 -81 -65l-3 -27v-8zM840 1247l108 197q35 63 96 63h234q35 0 41 -17t-19 -46l-172 -215q-39 -43 -88 -43h-176q-38 0 -38 24q0 14 14 37zM1094 674h256l10 61v17q0 80 -121 79q-125 0 -137 -96z" />
<glyph unicode="&#x1fe;" horiz-adv-x="1300" d="M145 307q0 12 5 55l88 738q20 158 156 260t421 102q152 0 270 -37l27 37q41 66 84 66h78q30 0 30 -21q0 -16 -18 -45l-67 -108q111 -84 110 -217q0 -16 -4 -56l-90 -737q-18 -156 -155.5 -259t-424.5 -103q-154 0 -272 36l-23 -34q-25 -37 -41 -51.5t-49 -14.5h-71 q-25 0 -28 19.5t13 46.5l68 106q-107 84 -107 217zM518 514l397 637q-47 25 -125.5 25t-138 -35t-67.5 -105zM553 295q43 -27 133 -27q82 0 139.5 34t65.5 106l65 530zM700 1610l109 196q37 63 96 64h234q35 0 41 -19q1 -4 1 -8q0 -16 -18 -37l-172 -215q-39 -43 -90 -43 h-174q-40 0 -40 25q-1 14 13 37z" />
<glyph unicode="&#x1ff;" horiz-adv-x="1144" d="M119 279q0 25 2 36l53 435q20 158 148.5 244.5t371.5 86.5q113 0 203 -22l16 24q43 66 84 66h74q30 0 31 -20q0 -16 -21 -46l-53 -79q125 -80 125 -213q0 -29 -2 -41l-53 -435q-43 -332 -518 -331q-111 0 -205 22l-13 -20q-25 -37 -42 -50.5t-50 -13.5h-67 q-18 0 -23.5 10.5t-0.5 23.5t16 30l49 73q-125 81 -125 220zM475 416l258 393q-31 6 -61 6q-147 0 -158 -92zM539 254q35 -4 63 -4q147 0 158 94l39 305zM586 1247l108 197q37 63 97 63h233q35 0 41 -17q1 -4 1 -8q0 -16 -17 -38l-175 -215q-37 -43 -88 -43h-176 q-38 0 -38 24q0 14 14 37z" />
<glyph unicode="&#x218;" horiz-adv-x="1224" d="M123 311q0 23 4 54l16 124q6 63 70 64h221q53 0 53 -47q0 -8 -2 -17l-10 -77q-2 -16 -2 -39q0 -113 176 -113q180 0 201 133l4 29q2 14 2 24q0 33 -31.5 61t-58.5 41t-76 32l-293 114q-68 27 -117 93.5t-49 154.5q0 10 5 53l14 107q41 365 536 364q248 0 366 -92 t118 -231q0 -16 -2 -41l-8 -80q-6 -63 -72 -64h-221q-31 0 -42.5 14.5t-9.5 49.5l3 33v12q0 121 -154 121q-164 0 -180 -133l-2 -23v-12q0 -55 57 -78l342 -123q104 -35 166.5 -111.5t62.5 -175.5q0 -6 -4 -53l-16 -131q-18 -158 -150.5 -261t-410.5 -103q-256 0 -381 93 t-125 234zM364 -528l-2 10q0 20 15 41q43 74 56 113.5t26 125.5l8 68q8 63 70 64h161q35 0 45 -16q7 -11 8 -31q0 -8 -1 -17l-11 -88q-10 -94 -40.5 -154.5t-96.5 -142.5q-25 -35 -64 -35q-9 0 -20 2l-121 27q-28 8 -33 33z" />
<glyph unicode="&#x219;" horiz-adv-x="1011" d="M94 236q0 20 2 36l4 45q6 57 66 58h196q29 0 40.5 -12.5t9.5 -45.5l-2 -30v-6q0 -61 125 -62q137 0 145 68l2 20v6q0 27 -76 60l-287 114q-61 25 -100 80.5t-39 122.5q0 23 2 43l8 60q12 123 116 205.5t329 82.5q203 0 305 -79.5t102 -190.5q0 -10 -2 -31l-6 -30 q-8 -59 -65 -60h-193q-53 0 -52 44q0 7 1 16l2 14q2 14 2 29q0 55 -108 55q-111 0 -125 -62l-2 -10l-2 -14q0 -38 40 -51l285 -107q188 -68 189 -203q0 -10 -2 -26l-15 -117q-16 -119 -127.5 -196.5t-339.5 -77.5q-213 0 -320.5 73t-107.5 179zM265 -526q-1 5 -1 10 q0 20 15 41q43 74 57 113.5t24 125.5l9 68q8 63 69 64h162q35 0 45 -16q7 -11 7 -31q0 -8 -1 -17l-10 -88q-10 -94 -41 -154.5t-96 -142.5q-25 -35 -65 -35q-9 0 -19 2l-119 29q-31 6 -36 31z" />
<glyph unicode="&#x237;" horiz-adv-x="552" d="M-166 -362l19 151q8 63 73 64h23q141 0 151 94l129 1054q6 63 70 64h219q54 0 54 -49q0 -7 -1 -15l-135 -1093q-20 -166 -144 -249t-366 -83h-35q-58 0 -58 49q0 6 1 13z" />
<glyph unicode="&#x2c6;" horiz-adv-x="761" d="M204 1204q-2 4 -2 9q0 15 17 34l174 197q55 63 109 63h125q51 0 90 -63l129 -197q8 -14 8 -25q0 -9 -5 -18q-11 -18 -46 -18h-164q-57 0 -78 61l-20 62l-31 -62q-37 -61 -96 -61h-168q-35 0 -42 18z" />
<glyph unicode="&#x2c7;" horiz-adv-x="761" d="M242 1490q12 17 45 17h164q63 0 79 -61l19 -60l33 60q37 61 96 61h168q35 0 42 -17q2 -4 1 -8q0 -15 -19 -36l-174 -197q-55 -63 -108 -63h-123q-51 0 -92 63l-127 197q-9 15 -10 27q1 10 6 17z" />
<glyph unicode="&#x2d8;" horiz-adv-x="907" d="M145 1389q0 14 5 45l4 26q8 51 61 51h129q31 0 41 -11t8 -40l-4 -35v-10q0 -61 70 -61q74 0 80 71l4 35q6 51 61 51h131q31 0 42 -11q8 -8 8 -26q0 -6 -1 -14l-4 -26q-43 -276 -336 -277q-133 0 -216 61.5t-83 170.5z" />
<glyph unicode="&#x2d9;" horiz-adv-x="538" d="M252 1268l20 176q6 63 70 63h227q33 0 44 -14q8 -11 9 -32q0 -8 -1 -17l-23 -176q-8 -61 -68 -62h-225q-35 0 -46 14q-8 10 -8 31q0 8 1 17z" />
<glyph unicode="&#x2da;" horiz-adv-x="745" d="M268 1303q0 20 2 32l9 58q27 170 272 170q123 0 185.5 -43t62.5 -111q0 -18 -2 -31l-9 -57q-27 -170 -266 -170q-121 0 -187.5 44.5t-66.5 107.5zM449 1329q0 -49 76.5 -49t84.5 59l6 35v10q0 47 -76.5 47.5t-84.5 -57.5l-6 -35v-10z" />
<glyph unicode="&#x2db;" horiz-adv-x="499" d="M25 -201q0 115 129 273q43 54 85 54l9 -1l106 -10q54 -6 54 -29q0 -16 -25 -39q-106 -102 -107 -166q0 -35 18.5 -45t61.5 -10h37q35 0 48 -14q9 -10 9 -28q0 -8 -1 -17l-11 -86q-8 -61 -69 -62h-131q-96 0 -154.5 46t-58.5 134z" />
<glyph unicode="&#x2dc;" horiz-adv-x="856" d="M188 1237l25 104q18 76 78.5 119t136.5 43q70 0 125 -22l86 -35q63 -25 70 -25q29 0 43 27l4 8q14 33 29.5 44t45.5 11h115q49 0 49 -44q0 -12 -4 -27l-22 -97q-16 -78 -67.5 -119.5t-123.5 -41.5q-84 0 -151 22l-92 31q-63 23 -76 22q-31 0 -41 -28l-4 -10 q-12 -33 -27.5 -43.5t-48.5 -10.5h-109q-45 0 -45 42q0 13 4 30z" />
<glyph unicode="&#x2dd;" horiz-adv-x="897" d="M207 1247l100 197q33 63 94 63h191q35 0 43 -17t-8 -46l-133 -197q-45 -61 -91 -61h-159q-47 0 -48 28q1 13 11 33zM563 1247l131 197q45 63 105 63h192q33 0 39 -17q1 -4 1 -8q0 -16 -17 -38l-164 -197q-53 -61 -102 -61h-160q-41 0 -42 23q0 14 17 38z" />
<glyph unicode="&#x394;" horiz-adv-x="872" d="M178 487v406q0 55 55 55h406q55 0 55 -55v-406q0 -55 -55 -55h-406q-55 0 -55 55z" />
<glyph unicode="&#x3a9;" horiz-adv-x="872" d="M131 688q0 125 90 215t213 90t214 -90t91 -215q0 -123 -89 -213t-216 -90q-123 0 -213 89t-90 214zM176 688.5q0 -108.5 75 -183.5t183.5 -75t184 75t75.5 183q0 106 -76.5 183t-183.5 77q-109 0 -183.5 -75.5t-74.5 -184z" />
<glyph unicode="&#x3bc;" horiz-adv-x="1163" d="M51 -360l168 1361q8 63 70 64h215q58 0 58 -50q0 -6 -1 -14l-78 -634q-2 -14 -2 -37q0 -31 15.5 -43.5t54.5 -12.5q94 0 211 84l80 643q8 63 67 64h219q35 0 47 -16q8 -12 8 -32q0 -7 -1 -16l-115 -940q-8 -61 -70 -61h-204q-33 0 -43.5 12.5t-10.5 48.5v35 q-150 -113 -315 -112h-8l-25 -344q-6 -63 -67 -64h-220q-54 0 -54 49q0 8 1 15z" />
<glyph unicode="&#x3c0;" horiz-adv-x="872" d="M99 938q-1 6 -1 10q0 12 5 21q7 12 26 12h612q27 0 32 -27q1 -6 1 -11q0 -20 -14 -40l-285 -463q-14 -23 -37.5 -22.5t-40.5 22.5l-284 463q-11 17 -14 35z" />
<glyph unicode="&#x1e80;" horiz-adv-x="1820" d="M190 1384q-1 7 0 14q0 50 56 50h231q59 0 66 -64l73 -596q10 -84 11 -188q20 88 61 188l223 596q25 63 84 64h215q59 0 66 -64l72 -593q8 -76 8 -230q18 90 67 227l222 596q23 63 81 64h203q45 0 45 -34q0 -12 -6 -30l-493 -1321q-25 -63 -86 -63h-224q-57 0 -63 63 l-78 615q-4 29 -4 217q0 -2 -9.5 -45t-23.5 -93t-24 -81l-230 -613q-25 -63 -86 -63h-223q-57 0 -64 63zM806 1851q11 18 46 19h223q57 0 80 -64l62 -196q4 -13 3 -24q0 -38 -46 -38h-164q-53 0 -76 43l-123 215q-10 16 -10 29q0 8 5 16z" />
<glyph unicode="&#x1e81;" horiz-adv-x="1583" d="M119 1001q-1 6 -1 11q0 23 15 37q18 16 55 16h203q57 0 66 -64l63 -473q4 -35 4 -108q10 43 39 108l191 473q27 63 77 64h205q59 0 66 -64l41 -473q8 -68 8 -108q14 55 35 108l180 473q25 63 76 64h176q37 0 53 -16q9 -9 9 -22q0 -11 -7 -26l-387 -944q-14 -35 -26.5 -46 t-42.5 -11h-263q-33 0 -43 12.5t-14 44.5l-37 408q-6 63 -6 117l-6 -19q-6 -20 -16.5 -49t-18.5 -49l-172 -408q-10 -23 -15 -33t-19.5 -17t-35.5 -7h-256q-33 0 -43 11.5t-14 45.5zM640 1490q11 17 46 17h223q57 0 80 -63l62 -197q4 -13 3 -23q0 -38 -46 -38h-164 q-53 0 -78 43l-121 215q-10 17 -10 30q0 9 5 16z" />
<glyph unicode="&#x1e82;" horiz-adv-x="1820" d="M190 1384q-1 7 0 14q0 50 56 50h231q59 0 66 -64l73 -596q10 -84 11 -188q20 88 61 188l223 596q25 63 84 64h215q59 0 66 -64l72 -593q8 -76 8 -230q18 90 67 227l222 596q23 63 81 64h203q45 0 45 -34q0 -12 -6 -30l-493 -1321q-25 -63 -86 -63h-224q-57 0 -63 63 l-78 615q-4 29 -4 217q0 -2 -9.5 -45t-23.5 -93t-24 -81l-230 -613q-25 -63 -86 -63h-223q-57 0 -64 63zM989 1610l109 196q35 63 94 64h235q33 0 40 -19q2 -4 2 -8q0 -16 -19 -37l-172 -215q-39 -43 -90 -43h-174q-38 0 -39 24q0 15 14 38z" />
<glyph unicode="&#x1e83;" horiz-adv-x="1583" d="M119 1001q-1 6 -1 11q0 23 15 37q18 16 55 16h203q57 0 66 -64l63 -473q4 -35 4 -108q10 43 39 108l191 473q27 63 77 64h205q59 0 66 -64l41 -473q8 -68 8 -108q14 55 35 108l180 473q25 63 76 64h176q37 0 53 -16q9 -9 9 -22q0 -11 -7 -26l-387 -944q-14 -35 -26.5 -46 t-42.5 -11h-263q-33 0 -43 12.5t-14 44.5l-37 408q-6 63 -6 117l-6 -19q-6 -20 -16.5 -49t-18.5 -49l-172 -408q-10 -23 -15 -33t-19.5 -17t-35.5 -7h-256q-33 0 -43 11.5t-14 45.5zM823 1247l111 197q35 63 94 63h236q33 0 40 -17q2 -4 1 -9q0 -15 -19 -37l-172 -215 q-39 -43 -90 -43h-174q-39 0 -39 25q-1 14 12 36z" />
<glyph unicode="&#x1e84;" horiz-adv-x="1820" d="M190 1384q-1 7 0 14q0 50 56 50h231q59 0 66 -64l73 -596q10 -84 11 -188q20 88 61 188l223 596q25 63 84 64h215q59 0 66 -64l72 -593q8 -76 8 -230q18 90 67 227l222 596q23 63 81 64h203q45 0 45 -34q0 -12 -6 -30l-493 -1321q-25 -63 -86 -63h-224q-57 0 -63 63 l-78 615q-4 29 -4 217q0 -2 -9.5 -45t-23.5 -93t-24 -81l-230 -613q-25 -63 -86 -63h-223q-57 0 -64 63zM815 1610l25 196q8 63 69 64h127q35 0 46.5 -14.5t4.5 -49.5l-22 -196q-8 -61 -68 -62h-129q-33 0 -45 15q-9 11 -9 31q0 8 1 16zM1147 1610l22 196q8 63 70 64h129 q33 0 44 -15q8 -11 8 -32q0 -8 -1 -17l-24 -196q-8 -61 -68 -62h-127q-35 0 -47 15q-8 10 -8 27q0 9 2 20z" />
<glyph unicode="&#x1e85;" horiz-adv-x="1583" d="M119 1001q-1 6 -1 11q0 23 15 37q18 16 55 16h203q57 0 66 -64l63 -473q4 -35 4 -108q10 43 39 108l191 473q27 63 77 64h205q59 0 66 -64l41 -473q8 -68 8 -108q14 55 35 108l180 473q25 63 76 64h176q37 0 53 -16q9 -9 9 -22q0 -11 -7 -26l-387 -944q-14 -35 -26.5 -46 t-42.5 -11h-263q-33 0 -43 12.5t-14 44.5l-37 408q-6 63 -6 117l-6 -19q-6 -20 -16.5 -49t-18.5 -49l-172 -408q-10 -23 -15 -33t-19.5 -17t-35.5 -7h-256q-33 0 -43 11.5t-14 45.5zM639 1247l23 197q10 63 71 63h127q35 0 45 -14t6 -49l-22 -197q-8 -61 -70 -61h-127 q-35 0 -46 14q-8 11 -8 31q0 7 1 16zM969 1247l24 197q8 63 70 63h127q35 0 45 -14q7 -10 7 -31q0 -8 -1 -18l-22 -197q-8 -61 -68 -61h-129q-33 0 -45 14q-9 11 -9 32q0 7 1 15z" />
<glyph unicode="&#x1ef2;" horiz-adv-x="1187" d="M195 1384q-5 14 -6 25q0 14 9 23q15 16 50 16h254q53 0 69 -64l101 -423q4 -20 9 -50t8 -52.5t3 -24.5l10 22q8 25 22.5 55.5t25.5 49.5l229 423q35 63 84 64h229q51 0 51 -29q0 -14 -12 -35l-493 -847l-60 -474q-10 -63 -67 -63h-230q-56 0 -56 50q0 6 1 13l53 431z M504 1851q12 18 45 19h225q57 0 78 -64l61 -196q4 -13 4 -24q0 -38 -47 -38h-163q-53 0 -76 43l-121 215q-11 16 -11 29q0 9 5 16z" />
<glyph unicode="&#x1ef3;" horiz-adv-x="1050" d="M137 1001q-3 9 -3 18q0 17 14 29q22 17 59 17h215q29 0 41 -15.5t20 -48.5l74 -385q18 -88 18 -206q41 121 72 194l180 397q27 63 78 64h201q35 0 50 -17q9 -10 9 -23q0 -11 -6 -24l-629 -1361q-31 -63 -79 -64h-162q-33 0 -49.5 17.5t-3.5 46.5l133 323zM368 1490 q11 17 46 17h223q57 0 78 -63l63 -197q4 -13 4 -23q0 -38 -47 -38h-164q-53 0 -77 43l-121 215q-10 17 -10 30q0 9 5 16z" />
<glyph unicode="&#x2000;" horiz-adv-x="1026" />
<glyph unicode="&#x2001;" horiz-adv-x="2054" />
<glyph unicode="&#x2002;" horiz-adv-x="1026" />
<glyph unicode="&#x2003;" horiz-adv-x="2054" />
<glyph unicode="&#x2004;" horiz-adv-x="684" />
<glyph unicode="&#x2005;" horiz-adv-x="512" />
<glyph unicode="&#x2006;" horiz-adv-x="342" />
<glyph unicode="&#x2007;" horiz-adv-x="342" />
<glyph unicode="&#x2008;" horiz-adv-x="256" />
<glyph unicode="&#x2009;" horiz-adv-x="409" />
<glyph unicode="&#x200a;" horiz-adv-x="112" />
<glyph unicode="&#x2010;" horiz-adv-x="909" d="M168 537v155q0 59 63 60h570q63 0 63 -60v-155q0 -61 -63 -62h-570q-63 1 -63 62z" />
<glyph unicode="&#x2011;" horiz-adv-x="909" d="M168 537v155q0 59 63 60h570q63 0 63 -60v-155q0 -61 -63 -62h-570q-63 1 -63 62z" />
<glyph unicode="&#x2012;" horiz-adv-x="909" d="M168 537v155q0 59 63 60h570q63 0 63 -60v-155q0 -61 -63 -62h-570q-63 1 -63 62z" />
<glyph unicode="&#x2013;" horiz-adv-x="1122" d="M168 537v155q0 59 63 60h783q63 0 63 -60v-155q0 -61 -63 -62h-783q-63 1 -63 62z" />
<glyph unicode="&#x2014;" horiz-adv-x="1783" d="M168 537v155q0 59 63 60h1444q66 0 66 -60v-155q0 -61 -66 -62h-1444q-63 1 -63 62z" />
<glyph unicode="&#x2018;" horiz-adv-x="622" d="M195 1116l20 168q16 141 113.5 222t277.5 120q14 2 25 3q16 0 26 -6q16 -9 25 -40l33 -145q3 -10 2 -20q0 -43 -55 -58q-53 -16 -75 -38t-26 -56l-20 -150q-8 -63 -70 -63h-225q-35 0 -45 14q-7 10 -8 31q1 8 2 18z" />
<glyph unicode="&#x2019;" horiz-adv-x="622" d="M195 1239q-3 10 -3 20q0 43 56 60q53 14 74.5 35.5t27.5 58.5l19 148q8 66 69 65h226q35 0 46 -15q7 -10 7 -28q0 -10 -2 -22l-21 -168q-16 -139 -113.5 -221t-277.5 -119q-15 -3 -26 -3q-15 0 -25 5q-16 8 -25 41z" />
<glyph unicode="&#x201a;" horiz-adv-x="622" d="M29 -84q-3 11 -3 20q0 44 56 60q53 14 74.5 35.5t25.5 58.5l21 148q8 66 69 65h226q35 0 45 -15q7 -11 7 -32q0 -8 -1 -18l-21 -168q-16 -139 -113.5 -220t-277.5 -120q-15 -3 -26 -3q-15 0 -25 5q-16 8 -25 41z" />
<glyph unicode="&#x201c;" horiz-adv-x="1146" d="M195 1116l20 168q16 141 113.5 222t277.5 120q14 2 25 3q16 0 26 -6q16 -9 25 -40l33 -145q3 -10 2 -20q0 -43 -55 -58q-53 -16 -75 -38t-26 -56l-20 -150q-8 -63 -70 -63h-225q-35 0 -45 14q-7 10 -8 31q1 8 2 18zM717 1116l22 168q16 141 113.5 222t277.5 120 q14 2 25 3q16 0 26 -6q15 -9 25 -40l33 -145q3 -10 3 -20q0 -43 -56 -58q-53 -16 -76 -38t-27 -56l-18 -150q-8 -63 -70 -63h-227q-33 0 -44 14q-8 11 -8 32q0 8 1 17z" />
<glyph unicode="&#x201d;" horiz-adv-x="1146" d="M195 1239q-3 10 -3 20q0 43 56 60q53 14 74.5 35.5t27.5 58.5l19 148q8 66 69 65h226q35 0 46 -15.5t5 -49.5l-21 -168q-16 -139 -113.5 -221t-277.5 -119q-15 -3 -26 -3q-15 0 -25 5q-16 8 -25 41zM717 1239q-2 9 -2 18q0 45 55 62q53 14 75.5 35.5t26.5 58.5l21 148 q8 66 70 65h225q35 0 45 -15q7 -11 7 -32q0 -8 -1 -18l-20 -168q-16 -139 -113.5 -221t-278.5 -119q-15 -3 -26 -3q-15 0 -25 5q-16 8 -24 41z" />
<glyph unicode="&#x201e;" horiz-adv-x="1146" d="M29 -84q-3 11 -3 20q0 44 56 60q53 14 74.5 35.5t25.5 58.5l21 148q8 66 69 65h226q35 0 45 -15.5t6 -49.5l-21 -168q-16 -139 -113.5 -220t-277.5 -120q-15 -3 -26 -3q-15 0 -25 5q-16 8 -25 41zM551 -84q-2 10 -2 18q0 46 55 62q53 14 75.5 35.5t27.5 58.5l20 148 q8 66 70 65h225q35 0 45 -15q7 -11 7 -32q0 -8 -1 -18l-20 -168q-18 -139 -114.5 -220t-279.5 -120q-14 -3 -25 -3q-15 0 -24 5q-16 8 -24 41z" />
<glyph unicode="&#x2020;" horiz-adv-x="1540" d="M236 893l18 156q8 59 72 59h280q35 0 48.5 -14.5t7.5 -44.5l-17 -156q-8 -61 -72 -62h-282q-56 0 -56 49q0 6 1 13zM608 63l168 1362q8 63 70 64h219q35 0 45 -15.5t6 -48.5l-166 -1362q-8 -63 -67 -63h-221q-54 0 -55 49q0 7 1 14zM1114 893l16 156q8 59 74 59h281 q35 0 47 -14q9 -11 9 -31q0 -7 -1 -14l-16 -156q-10 -61 -74 -62h-281q-56 0 -56 49q0 6 1 13z" />
<glyph unicode="&#x2021;" horiz-adv-x="1540" d="M180 434l21 156q8 59 71 59h281q35 0 48 -13t7 -46l-18 -156q-6 -61 -70 -61h-282q-58 0 -58 51q-1 5 0 10zM238 893l18 156q8 59 72 59h280q35 0 48.5 -14.5t7.5 -44.5l-17 -156q-8 -61 -72 -62h-280q-58 0 -58 49q0 6 1 13zM610 63l168 1362q8 63 70 64h219 q35 0 45 -15.5t6 -48.5l-166 -1362q-8 -63 -67 -63h-221q-54 0 -55 49q0 7 1 14zM1059 434l18 156q8 59 74 59h281q35 0 47 -13t8 -46l-19 -156q-8 -61 -71 -61h-281q-58 0 -58 51q0 5 1 10zM1116 893l17 156q8 59 73 59h281q35 0 47 -14q9 -11 9 -31q0 -7 -1 -14l-16 -156 q-10 -61 -74 -62h-281q-56 0 -56 49q0 6 1 13z" />
<glyph unicode="&#x2022;" horiz-adv-x="602" d="M178 424l41 326q8 63 68 63h227q54 0 54 -49q0 -7 -1 -14l-41 -326q-8 -61 -67 -62h-228q-33 0 -45 14q-9 10 -9 32q0 7 1 16z" />
<glyph unicode="&#x2026;" horiz-adv-x="1613" d="M113 61l22 177q6 66 70 65h225q35 0 45 -15.5t6 -49.5l-20 -177q-10 -61 -70 -61h-225q-35 0 -46 14q-8 11 -8 31q0 7 1 16zM641 61l21 177q8 66 71 65h225q35 0 45.5 -15.5t6.5 -49.5l-21 -177q-10 -61 -69 -61h-226q-35 0 -46 14q-8 11 -8 31q0 7 1 16zM1167 61l21 177 q6 66 72 65h225q35 0 45 -15q7 -11 7 -32q0 -8 -1 -18l-23 -177q-8 -61 -67 -61h-225q-35 0 -46 14q-8 11 -9 31q0 7 1 16z" />
<glyph unicode="&#x202f;" horiz-adv-x="409" />
<glyph unicode="&#x2030;" horiz-adv-x="2758" d="M248 977q0 23 2 35l24 200q14 123 102.5 188.5t270.5 65.5q162 0 248 -58t86 -155q0 -31 -2 -41l-25 -200q-33 -254 -372 -254q-166 0 -250 57.5t-84 161.5zM464 23q-1 6 -1 11q0 16 10 29l858 1321q41 63 101 64h200q27 0 33 -19.5t-12 -44.5l-860 -1321 q-41 -63 -99 -63h-198q-27 0 -32 23zM528 1016q0 -41 72 -41t80 49l20 178v6q0 39 -73.5 39t-77.5 -45l-21 -178v-8zM1133 199q0 20 2 32l26 201q14 123 101.5 188.5t271.5 65.5q162 0 248 -57.5t86 -155.5q0 -31 -2 -41l-25 -201q-33 -252 -373 -251q-168 0 -251.5 57.5 t-83.5 161.5zM1415 236q0 -39 72 -39q70 0 78 49l22 176v6q0 41 -76 41q-72 0 -75 -47l-21 -176v-10zM1952 199q0 20 2 32l24 201q14 123 102.5 188.5t270.5 65.5q162 0 248 -57.5t86 -155.5q0 -31 -2 -41l-25 -201q-33 -252 -372 -251q-166 0 -250 57.5t-84 161.5z M2232 236q0 -39 72 -39t80 49l20 176v6q0 41 -73.5 41t-77.5 -47l-21 -176v-10z" />
<glyph unicode="&#x2039;" horiz-adv-x="847" d="M172 418l27 211q4 47 67 84l436 280q14 9 27 9q10 0 19 -7q15 -12 15 -35q0 -5 -1 -12l-25 -217q-6 -45 -75 -88l-207 -123l176 -127q57 -41 53 -86l-27 -209q-4 -35 -25 -48q-10 -6 -20 -6q-12 0 -24 9l-369 279q-51 39 -47 86z" />
<glyph unicode="&#x203a;" horiz-adv-x="847" d="M172 98l27 217q6 45 73 88l209 123l-176 125q-57 43 -53 88l24 209q4 33 26 47q10 7 21 7q12 0 25 -9l367 -280q51 -37 47 -84l-25 -211q-4 -47 -67 -86l-439 -279q-14 -9 -25 -9q-10 0 -19 6q-16 11 -16 37q0 5 1 11z" />
<glyph unicode="&#x2044;" horiz-adv-x="974" d="M-17 23q-1 6 -2 11q0 16 11 29l858 1321q41 63 100 64h201q27 0 33 -20q2 -5 1 -10q0 -16 -14 -34l-860 -1321q-41 -63 -98 -63h-199q-26 0 -31 23z" />
<glyph unicode="&#x205f;" horiz-adv-x="512" />
<glyph unicode="&#x20ac;" horiz-adv-x="1415" d="M231 522l13 92q8 59 71 60h45l13 92h-47q-56 0 -57 50q0 6 1 13l11 91q6 59 71 59h45l17 123q43 365 557 364q254 0 372.5 -92t118.5 -231q0 -10 -4 -58l-10 -81q-8 -63 -66 -64h-219q-57 0 -56 48q0 7 1 16l4 22q4 27 4 41q0 111 -164 111q-176 0 -194 -138l-8 -61h157 q35 0 47.5 -12.5t10.5 -46.5l-11 -91q-8 -63 -71 -63h-158l-14 -92h159q35 0 47.5 -14.5t8.5 -45.5l-11 -92q-8 -61 -71 -61h-158l-4 -33q-4 -35 -4 -41q0 -117 166 -117q174 0 190 140l10 67q8 63 70 64h219q52 0 52 -49q0 -7 -1 -15l-14 -129q-43 -365 -559 -364 q-254 0 -373 91t-119 232q0 10 5 58l10 96h-47q-56 0 -57 48q0 6 1 13z" />
<glyph unicode="&#x2113;" horiz-adv-x="1257" d="M117 520q-3 12 -4 22q0 39 49 60l137 60l55 440q18 152 144.5 258t347.5 106q219 0 319.5 -96t100.5 -240q0 -78 -27 -150.5t-82 -133t-108.5 -106.5t-141.5 -95l-142 -77l-144 -70l-11 -66q-4 -39 -4 -51q0 -104 109 -105h258q35 0 47 -12t10 -47l-18 -156 q-8 -61 -70 -61h-262q-422 0 -422 305v27l-12 -6q-19 -9 -34 -10q-31 0 -44 40zM659 834q2 2 25 13l34 16t35.5 19.5l37.5 22.5l35 25q24 16 36 28l30 31q17 18 25.5 32.5t15.5 34t7 38.5q0 43 -29.5 68.5t-81.5 25.5q-125 0 -141 -133z" />
<glyph unicode="&#x2122;" horiz-adv-x="1986" d="M248 1264l16 135q6 49 60 49h587q53 0 47 -49l-16 -135q-6 -51 -59 -52h-150l-71 -579q-6 -53 -58 -53h-184q-46 0 -46 42q0 5 1 11l69 579h-149q-31 0 -40 11.5t-7 40.5zM956 633l95 762q6 53 59 53h162q31 0 41 -23l135 -323q20 -55 27 -80l38 74l211 329q14 23 52 23 h176q44 0 44 -40q0 -6 -1 -13l-92 -762q-6 -53 -58 -53h-174q-44 0 -44 39q0 6 1 14l35 297q-10 -25 -29 -64l-59 -104q-31 -51 -76 -51h-119q-49 0 -65 51l-41 108q-12 39 -12 76l-39 -313q-6 -53 -56 -53h-163q-48 0 -48 42q-1 5 0 11z" />
<glyph unicode="&#x2126;" horiz-adv-x="872" d="M131 688q0 125 90 215t213 90t214 -90t91 -215q0 -123 -89 -213t-216 -90q-123 0 -213 89t-90 214zM176 688.5q0 -108.5 75 -183.5t183.5 -75t184 75t75.5 183q0 106 -76.5 183t-183.5 77q-109 0 -183.5 -75.5t-74.5 -184z" />
<glyph unicode="&#x212e;" horiz-adv-x="1773" d="M223 725q0 305 217 523t524.5 218t522.5 -218t215 -523q0 -23 -9.5 -29t-31.5 -6h-1100v-483q174 -139 404 -139q285 0 501 233q10 10 25 10q16 0 28.5 -13t12.5 -32q0 -16 -19 -39q-96 -113 -241.5 -178t-306.5 -65q-313 0 -527.5 206.5t-214.5 534.5zM561 764h811v475 q-182 141 -407.5 141t-403.5 -141v-475z" />
<glyph unicode="&#x2202;" horiz-adv-x="872" d="M180 1001q0 27 27 31q5 1 10 1l43 -13l463 -285q23 -14 22.5 -37.5t-22.5 -40.5l-463 -284q-16 -10 -35 -14q-6 -1 -10 0q-12 0 -21 5q-13 7 -14 25v612z" />
<glyph unicode="&#x2206;" horiz-adv-x="872" d="M178 487v406q0 55 55 55h406q55 0 55 -55v-406q0 -55 -55 -55h-406q-55 0 -55 55z" />
<glyph unicode="&#x220f;" horiz-adv-x="872" d="M100 436q-1 5 0 11q0 21 13 40l284 463q16 20 40 20.5t38 -20.5l285 -463q10 -16 14 -34l2 -12q0 -11 -6 -19q-8 -12 -27 -12h-612q-27 -1 -31 26z" />
<glyph unicode="&#x2211;" horiz-adv-x="872" d="M127 697.5q0 23.5 25 37.5l462 285q20 13 41 13q5 0 11 -1q27 -4 26 -31v-612q0 -18 -12 -25q-9 -5 -20 -5h-11q-18 3 -35 14l-462 284q-25 17 -25 40.5z" />
<glyph unicode="&#x2212;" horiz-adv-x="1228" d="M178 614v154q0 61 66 61h886q63 0 64 -61v-154q0 -63 -64 -63h-886q-66 0 -66 63z" />
<glyph unicode="&#x221a;" horiz-adv-x="872" d="M158 487v406q0 41 17.5 58.5t57.5 17.5h406q43 0 59.5 -17.5t16.5 -58.5v-406q0 -41 -16.5 -58t-59.5 -17h-406q-41 0 -58 17t-17 58zM201 487q0 -33 32 -32h406q33 0 33 32v406q0 31 -33 31h-406q-33 0 -32 -31v-406z" />
<glyph unicode="&#x221e;" horiz-adv-x="872" d="M66 690.5q0 22.5 30 52.5l287 287q29 29 54.5 29t51.5 -29l289 -287q27 -29 27 -54t-27 -52l-289 -287q-29 -31 -52 -31t-54 31l-287 287q-30 31 -30 53.5zM115 688q0 -10 10 -20l289 -289q8 -10 22 -10q12 0 25 10l287 289q10 10 10 20q0 12 -13 25l-284 286 q-16 10 -25 11q-12 0 -22 -11l-287 -286q-12 -13 -12 -25z" />
<glyph unicode="&#x222b;" horiz-adv-x="872" d="M43 688q0 164 114.5 278.5t276.5 114.5t278.5 -114.5t116.5 -278.5q0 -162 -115.5 -276.5t-279.5 -114.5q-162 0 -276.5 113.5t-114.5 277.5z" />
<glyph unicode="&#x2248;" horiz-adv-x="1089" d="M166 299l10 119q8 96 64.5 142t124.5 46q74 0 127 -22l190 -86q57 -23 82 -23q29 0 41 51l2 9q8 33 22.5 44t44.5 11h113q55 0 55 -53q0 -9 -2 -19l-14 -98q-12 -102 -64.5 -155.5t-121.5 -53.5q-76 0 -140 31l-188 86q-41 20 -68 20q-35 0 -47 -59l-2 -8 q-8 -31 -21.5 -43.5t-45.5 -12.5h-111q-52 0 -52 60q0 7 1 14zM166 729l10 119q8 96 64.5 142t124.5 46q74 0 127 -22l190 -86q57 -23 82 -23q29 0 41 51l2 9q8 33 22.5 44t44.5 11h113q55 0 55 -53q0 -9 -2 -19l-14 -98q-12 -102 -64.5 -155.5t-121.5 -53.5q-76 0 -140 31 l-188 86q-41 20 -68 20q-35 0 -47 -57l-2 -10q-8 -31 -21.5 -43.5t-45.5 -12.5h-111q-52 0 -52 61q0 6 1 13z" />
<glyph unicode="&#x2260;" horiz-adv-x="1228" d="M150 369v155q0 59 63 60h246l67 182h-313q-63 0 -63 63v154q0 61 63 61h414l41 107q23 63 77 63h205q49 0 49 -35q0 -12 -6 -28l-41 -107h150q63 0 63 -61v-154q0 -63 -63 -63h-252l-66 -182h318q63 0 63 -60v-155q0 -61 -63 -62h-420l-39 -104q-20 -63 -80 -64h-203 q-46 0 -46 36q0 12 5 28l39 104h-145q-63 1 -63 62z" />
<glyph unicode="&#x2264;" horiz-adv-x="1095" d="M123 168v156q0 59 65 59h756q63 0 64 -59v-156q0 -61 -64 -62h-756q-65 1 -65 62zM123 799v245q0 20 9 35t18.5 20t29.5 13l764 279q11 4 20 3q15 0 26 -11q17 -17 18 -54v-209q0 -53 -64 -69l-489 -131l489 -127q63 -16 64 -70v-209q0 -37 -17 -56q-10 -12 -25 -12 q-10 0 -22 5l-764 280q-20 8 -29.5 13.5t-18.5 20t-9 34.5z" />
<glyph unicode="&#x2265;" horiz-adv-x="1095" d="M123 168v156q0 59 65 59h756q63 0 64 -59v-156q0 -61 -64 -61h-756q-65 0 -65 61zM123 514v209q0 53 65 70l490 127l-490 131q-66 16 -65 69v209q0 37 17 54q11 11 27 11q10 0 21 -3l762 -279q20 -8 30.5 -13t19 -19.5t8.5 -35.5v-245q0 -20 -8.5 -34.5t-18.5 -20 t-31 -13.5l-762 -280q-13 -5 -22 -5q-16 0 -27 12q-16 19 -16 56z" />
<glyph unicode="&#x25ca;" horiz-adv-x="872" d="M92 690.5q0 18.5 19 38.5l286 287q20 18 40 18t38 -18l287 -287q20 -20 20 -38.5t-20 -39.5l-287 -286q-18 -20 -37.5 -20.5t-40.5 20.5l-286 286q-19 21 -19 39.5z" />
<glyph unicode="&#xe000;" horiz-adv-x="1065" d="M0 1065h1065v-1065h-1065v1065z" />
<glyph horiz-adv-x="0" />
<glyph horiz-adv-x="382" d="M25 -121l-2 12q0 20 16 41q43 74 56.5 114t23.5 124l8 68q10 66 72 65h161q33 0 44 -15q8 -11 9 -33q0 -8 -1 -17l-11 -86q-12 -94 -42.5 -154.5t-94.5 -144.5q-25 -33 -63 -34q-11 0 -23 3l-119 26q-28 6 -34 31z" />
<glyph horiz-adv-x="382" d="M-41 1610l109 196q37 63 96 64h233q35 0 41 -19l2 -8q0 -16 -18 -37l-172 -215q-39 -43 -90 -43h-174q-39 0 -40 25q0 15 13 37z" />
<glyph horiz-adv-x="382" d="M-115 1638l15 134q6 59 71 59h471q35 0 46.5 -12.5t9.5 -46.5l-15 -134q-6 -61 -71 -61h-471q-56 0 -56 51q-1 4 0 10z" />
<glyph horiz-adv-x="382" d="M-135 1782q0 16 6 45l4 28q8 51 62 52h129q31 0 41 -12.5t8 -39.5l-4 -36v-11q0 -59 67 -59q76 0 82 70l4 36q6 51 62 52h131q29 0 41 -13q8 -8 8 -22q0 -7 -2 -17l-4 -28q-41 -276 -334 -277q-133 0 -217 61.5t-84 170.5z" />
<glyph horiz-adv-x="382" d="M-129 1851q12 18 45 19h166q61 0 78 -62l18 -59l33 59q37 61 96 62h168q35 0 42 -19q2 -4 2 -8q0 -15 -19 -35l-174 -196q-55 -63 -109 -64h-123q-51 0 -92 64l-127 196q-9 14 -9 26q0 9 5 17z" />
<glyph horiz-adv-x="382" d="M-68 1669q0 20 2 33l9 57q25 170 272 170q121 0 184.5 -43t63.5 -110q0 -18 -2 -31l-10 -57q-25 -172 -267 -172q-121 0 -186.5 45t-65.5 108zM113 1696q0 -49 76.5 -49t84.5 59l5 35v10q0 47 -77 47t-85 -57l-4 -35v-10z" />
<glyph horiz-adv-x="382" d="M-133 1567q-2 5 -2 9q0 15 18 34l174 196q55 63 109 64h123q51 0 92 -64l129 -196q8 -13 8 -25q0 -10 -6 -18q-12 -18 -45 -19h-164q-57 0 -80 62l-18 59l-33 -59q-35 -61 -96 -62h-168q-33 1 -41 19z" />
<glyph horiz-adv-x="382" d="M-209 1620l27 104q18 76 77.5 119t137.5 43q70 0 125 -22l86 -35q63 -25 69 -25q27 0 43 27l4 10q14 31 30 43t44 12h115q49 0 48 -46q0 -12 -3 -27l-21 -97q-18 -78 -68 -119.5t-124 -41.5q-82 0 -152 22l-90 31q-66 23 -78 22q-29 0 -41 -28l-4 -10 q-12 -33 -26.5 -43.5t-46.5 -10.5h-109q-47 0 -46 44q-1 13 3 28z" />
<glyph horiz-adv-x="382" d="M-109 1610l23 196q10 63 72 64h127q35 0 45 -14.5t6 -49.5l-23 -196q-10 -61 -69 -62h-127q-35 0 -46 15q-8 11 -9 31q0 7 1 16zM221 1610l25 196q8 63 69 64h127q35 0 45 -15q7 -10 8 -30q0 -8 -1 -19l-23 -196q-8 -61 -68 -62h-129q-33 0 -45 15q-9 11 -9 31q0 8 1 16z " />
<glyph horiz-adv-x="382" d="M8 1610l23 178q6 63 69 63h226q35 0 45 -15q7 -11 7 -31q0 -8 -1 -17l-21 -178q-8 -61 -69 -62h-226q-33 0 -45 15q-9 11 -9 31q0 8 1 16z" />
<glyph horiz-adv-x="382" d="M-11 1851q11 18 46 19h223q57 0 78 -64l61 -196q4 -15 5 -26q0 -36 -46 -36h-163q-53 0 -78 43l-121 215q-10 16 -10 29q0 8 5 16z" />
<glyph horiz-adv-x="382" d="M-215 1610l100 196q33 63 95 64h190q35 0 43 -18.5t-8 -45.5l-133 -196q-43 -61 -90 -62h-160q-47 0 -48 29q1 13 11 33zM141 1610l131 196q45 63 105 64h192q33 0 40 -19q2 -4 2 -8q0 -16 -19 -37l-164 -196q-53 -61 -102 -62h-160q-41 0 -41 23q-1 15 16 39z" />
<glyph horiz-adv-x="3131" d="M137 539q0 57 39 101t107 44q41 0 64.5 -20.5t23.5 -45.5q0 -51 -54 -69q-35 -12 -94 -12q4 -47 56 -48q37 0 69 21q16 -12 17 -35q0 -8 -5.5 -18.5t-30 -20.5t-65.5 -10q-59 0 -93 31t-34 82zM145 0v16h2849v-16h-2849zM145 1126v17h2849v-17h-2849zM221 563q80 0 80 43 q0 29 -29 29q-43 0 -51 -72zM403 668q51 16 68 16q23 0 23 -20v-84q6 18 16 39.5t32.5 43t47.5 21.5q61 0 61 -68v-36q31 104 97 104q59 0 59 -68v-104l6 -70q-51 -16 -65 -16q-23 0 -23 16v142q0 35 -18 34q-12 0 -35 -37.5t-21 -64.5l4 -74q-51 -16 -65 -16q-23 0 -23 16 v142q0 35 -18 34q-14 0 -34.5 -37.5t-20.5 -64.5l6 -74q-51 -16 -68 -16q-23 0 -22 16v148zM797 702v9q0 43 24 43h37l-6 63q51 18 68 19q25 0 24 -19v-61h100v-6q0 -45 -26 -45h-74v-183q0 -35 27 -35q20 0 40.5 17.5t20.5 38.5v53l-6 72q51 16 70 16q23 0 22 -20v-140 q0 -33 15.5 -32.5t36 38t18.5 64.5l-4 74q51 16 65 16q25 0 25 -20v-209l53 6v129l-6 78q51 16 68 16q25 0 24 -20v-84q35 102 98 102q37 0 61.5 -28.5t24.5 -80.5q0 -145 -184 -145v-86l6 -68q-51 -16 -69 -16q-23 0 -23 16v160l-53 -6v-6q0 -168 -146 -168 q-45 0 -65.5 22.5t-20.5 49.5q0 78 148 112v90q-35 -102 -96.5 -102t-61.5 66v6q-39 -70 -112 -70q-61 0 -62 64v215zM1102 344q0 -29 28 -29q53 0 58 99q-86 -21 -86 -70zM1413 467q94 12 94 108q0 43 -27.5 43t-47 -39.5t-19.5 -62.5v-49zM1626 539q0 57 39 101t107 44 q41 0 64.5 -20.5t23.5 -45.5q0 -51 -54 -69q-35 -12 -94 -12q4 -47 55 -48q37 0 68 21q18 -12 18 -35q0 -8 -5 -18.5t-29.5 -20.5t-65.5 -10q-59 0 -93 31t-34 82zM1710 563q80 0 80 43q0 29 -29 29q-43 0 -51 -72zM1892 481.5q0 20.5 14.5 35.5t38 15t40 -15t16.5 -35.5 t-16.5 -35t-40 -14.5t-38 14.5t-14.5 35zM2030 668q51 16 67 16q25 0 25 -20v-84q39 104 96 104q61 0 61 -68v-104l5 -70q-51 -16 -66 -16q-25 0 -25 16v144q0 33 -16 32q-14 0 -34.5 -37.5t-20.5 -64.5l6 -74q-51 -16 -68 -16q-25 0 -24 16v148zM2312 539q0 57 40 101 t108 44q41 0 64.5 -20.5t23.5 -45.5q0 -51 -54 -69q-35 -12 -94 -12q4 -47 56 -48q37 0 67 21q18 -12 19 -35q0 -8 -5.5 -18.5t-30 -20.5t-65.5 -10q-59 0 -94 31t-35 82zM2398 563q80 0 80 43q0 29 -29 29q-43 0 -51 -72zM2519 702v9q0 43 27 43h34l-6 63q51 18 70 19 q22 0 22 -19v-61h101v-6q0 -45 -27 -45h-74v-191q0 -33 35 -33q23 0 81.5 11.5t99.5 11.5q37 0 85 -12.5t48 -36.5q0 -31 -20.5 -46.5t-37.5 -15.5q-6 0 -58 25.5t-93 25.5q-16 0 -69.5 -8t-93.5 -8t-48 26.5t-10 139.5q0 68 -5 113z" />
</font>
</defs>
</svg>
