<?xml version="1.0" standalone="no"?>
<!DOCTYPE svg PUBLIC "-//W3C//DTD SVG 1.1//EN" "http://www.w3.org/Graphics/SVG/1.1/DTD/svg11.dtd" >
<svg xmlns="http://www.w3.org/2000/svg">
<metadata>
This is a custom SVG webfont generated by Font Squirrel.
Copyright   : Copyright c 2009 by Eduardo Manso All rights reserved
Designer    : Eduardo Manso
Foundry     : Eduardo Manso
Foundry URL : httpwwwemtypenet
</metadata>
<defs>
<font id="GeogrotesqueUltraLight" horiz-adv-x="462" >
<font-face units-per-em="2048" ascent="1536" descent="-512" />
<missing-glyph horiz-adv-x="522" />
<glyph unicode="&#xfb00;" horiz-adv-x="1288" d="M74 1020v20q0 18 20 19l121 4h25v209q0 254 370 254h8q20 0 21 -19v-24q0 -20 -21 -21h-8q-166 0 -231.5 -50t-65.5 -146v-203h549v211q0 123 85 188.5t286 65.5h8q18 0 19 -19v-24q0 -18 -19 -19h-8q-164 0 -231.5 -52t-67.5 -146v-205h268q20 0 21 -19v-24 q0 -18 -21 -19h-268v-981q0 -20 -21 -20h-32q-18 0 -19 20v981h-549v-981q0 -20 -20 -20h-35q-18 0 -18 20v981h-146q-20 1 -20 19z" />
<glyph unicode="&#xfb01;" horiz-adv-x="1126" d="M72 1020v20q0 18 16 19l123 4h27v201q0 121 84 187.5t286 66.5h246q16 0 16 -21v-22q0 -20 -16 -21h-246q-166 0 -232.5 -52t-66.5 -145v-194h600q23 0 23 -21v-1022q0 -20 -21 -20h-34q-16 0 -17 20v981h-551v-981q0 -20 -18 -20h-35q-18 0 -18 20v981h-150 q-16 1 -16 19z" />
<glyph unicode="&#xfb02;" horiz-adv-x="1126" d="M72 1020v20q0 18 16 19l123 4h27v201q0 121 84 187.5t286 66.5h301q23 0 23 -21v-1477q0 -20 -21 -20h-34q-16 0 -17 20v1434h-252q-166 0 -232.5 -52t-66.5 -145v-194h269q20 0 20 -19v-24q0 -18 -20 -19h-269v-981q0 -20 -18 -20h-35q-18 0 -18 20v981h-150 q-16 1 -16 19z" />
<glyph unicode="&#xfb03;" horiz-adv-x="1751" d="M74 1020v20q0 18 20 19l121 4h25v209q0 254 370 254h8q20 0 21 -19v-24q0 -20 -21 -21h-8q-166 0 -231.5 -50t-65.5 -146v-203h549v201q0 121 85 187.5t286 66.5h246q18 0 18 -21v-22q0 -20 -18 -21h-246q-164 0 -231.5 -52t-67.5 -145v-194h600q23 0 22 -21v-1022 q0 -20 -20 -20h-33q-18 0 -18 20v981h-551v-981q0 -20 -19 -20h-34q-18 0 -19 20v981h-549v-981q0 -20 -20 -20h-35q-18 0 -18 20v981h-146q-20 1 -20 19z" />
<glyph unicode="&#xfb04;" horiz-adv-x="1751" d="M74 1020v20q0 18 20 19l121 4h27v209q0 254 368 254h8q20 0 21 -19v-24q0 -20 -21 -21h-8q-166 0 -231.5 -50t-65.5 -146v-203h549v201q0 121 85 187.5t286 66.5h301q23 0 22 -21v-1477q0 -20 -20 -20h-31q-20 0 -20 20v1434h-252q-164 0 -230.5 -51t-66.5 -146v-194h266 q20 0 21 -19v-24q0 -18 -21 -19h-266v-981q0 -20 -21 -20h-34q-18 0 -19 20v981h-549v-981q0 -20 -20 -20h-35q-16 0 -16 20v981h-148q-20 1 -20 19z" />
<glyph unicode=" "  horiz-adv-x="522" />
<glyph unicode="&#x09;" horiz-adv-x="522" />
<glyph unicode="&#xa0;" horiz-adv-x="522" />
<glyph unicode="!" horiz-adv-x="522" d="M221 846v610q0 20 21 21h39q18 0 18 -21v-610l-8 -498q0 -20 -17 -20h-24q-20 0 -21 20zM223 20v164q0 20 21 21h35q18 0 18 -21v-164q0 -20 -18 -20h-35q-21 0 -21 20z" />
<glyph unicode="&#x22;" horiz-adv-x="718" d="M197 1456q0 20 18 21h39q16 0 16 -21l-6 -381q0 -20 -18 -20h-23q-18 0 -18 20zM449 1456q0 20 18 21h37q18 0 18 -21l-6 -381q0 -20 -18 -20h-23q-18 0 -18 20z" />
<glyph unicode="#" horiz-adv-x="1384" d="M201 545v22q0 16 16 17h193l77 282h-186q-18 0 -18 19v22q0 18 18 19h205l63 231q6 20 25 21h29q18 0 14 -21l-66 -231h369l66 231q6 20 22 21h29q18 0 14 -21l-63 -231h159q18 0 19 -19v-22q0 -18 -19 -19h-178l-78 -282h172q18 0 19 -17v-22q0 -16 -19 -17h-188 l-61 -229q-6 -18 -25 -18h-29q-18 0 -14 18l63 229h-368l-64 -229q-6 -18 -22 -18h-29q-18 0 -14 18l63 229h-178q-16 1 -16 17zM477 584h367l82 282h-371z" />
<glyph unicode="$" horiz-adv-x="1136" d="M197 410v63q0 18 20 19h33q16 0 16 -19v-61q0 -76 76 -121t225.5 -45t225 45t75.5 121v114q0 102 -143 146l-344 102q-63 20 -116.5 73.5t-53.5 127.5v90q0 96 80 156.5t250 66.5v168q0 20 18 21h35q20 0 20 -21v-170q154 -10 230 -69.5t76 -151.5v-76q0 -14 -19 -14h-33 q-14 0 -14 14v76q0 78 -71.5 122t-217.5 44q-285 0 -284 -166v-80q0 -55 40.5 -94t92.5 -55l346 -105q78 -23 128 -72t50 -118v-131q0 -92 -82 -153.5t-242 -70.5v-166q0 -20 -20 -20h-35q-18 0 -18 20v166q-174 4 -259 66t-85 158z" />
<glyph unicode="%" horiz-adv-x="1568" d="M201 1055v250q0 184 266 184t266 -184v-250q0 -184 -266 -184t-266 184zM262 1057q0 -129 205 -129q201 0 201 129v248q0 131 -201 131q-205 0 -205 -131v-248zM424 20l637 1436q10 20 26 21h29q20 0 12 -21l-636 -1436q-10 -20 -27 -20h-33q-13 0 -13 8q0 4 5 12z M836 168v250q0 184 267 184t267 -184v-250q0 -184 -267 -184t-267 184zM899 168q0 -131 203 -131t203 131v246q0 131 -203 131t-203 -131v-246z" />
<glyph unicode="&#x26;" horiz-adv-x="1427" d="M219 270v269q0 109 45 170t168 86q-117 25 -159 84t-42 165v160q0 139 86 214t310.5 75t310.5 -75t86 -214v-35q0 -18 -16 -18h-35q-20 0 -21 18v29q0 113 -68.5 173.5t-256.5 60.5q-184 0 -254 -60.5t-70 -173.5v-147q0 -117 65.5 -171.5t258.5 -54.5h682q20 0 20 -20 v-25q0 -20 -20 -20h-183v-490q0 -287 -453.5 -287t-453.5 287zM291 279q0 -233 382 -233.5t382 233.5v481h-439q-195 0 -260 -55.5t-65 -169.5v-256z" />
<glyph unicode="'" horiz-adv-x="466" d="M197 1456q0 20 18 21h39q16 0 16 -21l-6 -381q0 -20 -18 -20h-23q-18 0 -18 20z" />
<glyph unicode="(" horiz-adv-x="765" d="M219 -219v1501q0 123 85 188.5t286 65.5h10q18 0 18 -18v-25q0 -18 -18 -18h-10q-164 0 -230.5 -51.5t-66.5 -147.5v-1489q0 -96 66.5 -146.5t230.5 -50.5h10q18 0 18 -20v-25q0 -18 -18 -18h-10q-201 0 -286 66.5t-85 187.5z" />
<glyph unicode=")" horiz-adv-x="765" d="M147 -430q0 20 21 20h8q164 0 230.5 50.5t66.5 146.5v1489q0 96 -66.5 147.5t-230.5 51.5h-8q-20 0 -21 18v25q0 18 21 18h8q369 0 369 -254v-1501q0 -254 -369 -254h-8q-20 0 -21 18v25z" />
<glyph unicode="*" horiz-adv-x="1069" d="M227 1016q-4 7 -4 12q0 9 10 14l252 150l-252 151q-10 5 -10 14q0 6 4 13l11 14q8 20 24 11l250 -164l-6 293q0 20 20 20h19q18 0 18 -20l-8 -295l250 166q16 10 29 -11l8 -14q4 -6 3 -11q0 -9 -11 -16l-252 -151l252 -150q12 -7 11 -15q0 -5 -3 -11l-8 -17 q-8 -20 -29 -8l-250 162l8 -289q0 -23 -18 -22h-19q-20 0 -20 22l6 291l-250 -164q-16 -10 -24 8z" />
<glyph unicode="+" horiz-adv-x="1280" d="M197 723v27q0 18 18 18h391v393q0 20 19 21h26q16 0 17 -21v-393h395q20 0 20 -18v-27q0 -18 -20 -18h-395v-392q0 -20 -17 -20h-26q-18 0 -19 20v392h-391q-18 0 -18 18z" />
<glyph unicode="," horiz-adv-x="442" d="M61 -135q-3 5 -2 9q0 10 13 17q113 55 112 170v123q0 20 21 21h35q18 0 18 -21v-125q0 -170 -162 -229q-5 -2 -9 -2q-11 0 -15 12z" />
<glyph unicode="-" horiz-adv-x="1013" d="M195 616v25q0 18 20 18h584q20 0 20 -18v-25q0 -18 -20 -18h-584q-20 0 -20 18z" />
<glyph unicode="." horiz-adv-x="442" d="M184 20v164q0 20 21 21h35q18 0 18 -21v-164q0 -20 -18 -20h-35q-21 0 -21 20z" />
<glyph unicode="/" horiz-adv-x="802" d="M119 -301l489 1798q6 20 23 21h41q18 0 14 -21l-491 -1798q-6 -20 -23 -21h-39q-18 1 -14 21z" />
<glyph unicode="0" horiz-adv-x="1148" d="M160 279v919q0 141 90 218t324.5 77t324.5 -77t90 -218v-919q0 -141 -90 -218t-324.5 -77t-324.5 77t-90 218zM233 287q0 -115 74 -177.5t268.5 -62.5t267 61.5t72.5 178.5v903q0 117 -72.5 177t-267 60t-268.5 -61t-74 -176v-903z" />
<glyph unicode="1" horiz-adv-x="1148" d="M170 20v25q0 20 18 21h377v1329l-375 -105q-18 -10 -18 13v28q0 18 18 23l428 125q3 1 7 0q14 0 14 -17v-1396h377q18 0 18 -21v-25q0 -20 -18 -20h-828q-18 0 -18 20z" />
<glyph unicode="2" horiz-adv-x="1148" d="M186 1079v119q0 141 87 218t319 77q236 0 324 -77t88 -218v-283q0 -98 -62.5 -154t-126.5 -73l-373 -98q-166 -41 -166 -158v-366h711q20 0 21 -21v-25q0 -20 -21 -20h-766q-18 0 -18 20v426q0 147 196 199l383 103q27 8 56.5 22t60.5 53t31 90v279q0 115 -71 175 t-267 60q-193 0 -263.5 -60t-70.5 -175v-113q0 -20 -16 -20h-35q-21 0 -21 20z" />
<glyph unicode="3" horiz-adv-x="1148" d="M154 270v35q0 20 18 21h35q18 0 18 -21v-26q0 -113 74 -173.5t263.5 -60.5t262 60.5t72.5 173.5v256q0 115 -64.5 170t-259.5 55h-211q-20 0 -20 20v25q0 20 20 20h201q193 0 257.5 54.5t64.5 171.5v147q0 113 -68.5 173.5t-253.5 60.5q-188 0 -256.5 -60.5t-68.5 -173.5 v-29q0 -18 -21 -18h-35q-16 0 -16 18v35q0 139 86 214t310 75t309 -75t85 -214v-160q0 -106 -41 -165.5t-157 -83.5q123 -25 168 -86.5t45 -169.5v-269q0 -137 -90 -211.5t-318.5 -74.5t-318.5 74.5t-90 211.5z" />
<glyph unicode="4" horiz-adv-x="1148" d="M119 528v23q0 4 4 18l340 887q6 20 22 21h37q23 0 15 -21l-340 -883h675v883q0 20 21 21h35q18 0 18 -21v-1436q0 -20 -18 -20h-35q-20 0 -21 20v488h-733q-20 0 -20 20z" />
<glyph unicode="5" horiz-adv-x="1148" d="M190 270v35q0 20 21 21h35q18 0 18 -21v-26q0 -119 63.5 -176.5t252.5 -57.5q190 0 253.5 57.5t63.5 176.5v327q0 201 -324 201h-340q-18 0 -18 20v629q0 20 18 21h685q20 0 20 -21v-24q0 -20 -20 -21h-629v-539h284q190 0 294 -66.5t104 -193.5v-342q0 -139 -83 -212.5 t-308.5 -73.5t-307.5 73.5t-82 212.5z" />
<glyph unicode="6" horiz-adv-x="1148" d="M174 279v938q0 276 404 276q397 0 397 -276v-31q0 -18 -19 -19h-34q-18 0 -19 19v22q0 223 -325 224q-188 0 -259 -61.5t-71 -162.5v-475q66 133 340 133q231 0 317 -76.5t86 -218.5v-292q0 -141 -87 -218t-322 -77q-231 0 -319.5 77t-88.5 218zM248 285 q0 -117 70.5 -178.5t263.5 -61.5q195 0 265.5 61.5t70.5 178.5v280q0 117 -71 177.5t-265 60.5q-184 0 -259 -58.5t-75 -162.5v-297z" />
<glyph unicode="7" horiz-adv-x="1148" d="M125 1432v24q0 20 20 21h861q18 0 18 -21v-20q0 -4 -6 -25l-572 -1391q-8 -20 -22 -20h-43q-25 0 -16 20l575 1391h-795q-20 1 -20 21z" />
<glyph unicode="8" horiz-adv-x="1148" d="M170 279v256q0 109 48 173t179 89q-123 23 -169 88t-46 174v139q0 70 15.5 119t54.5 91t121 63.5t202 21.5q231 0 313.5 -76t82.5 -219v-139q0 -109 -46 -174.5t-173 -87.5q131 -25 181 -90.5t50 -171.5v-256q0 -141 -87 -218t-321.5 -77t-319.5 77t-85 218zM244 285 q0 -117 69.5 -178.5t261.5 -61.5q195 0 264.5 61.5t69.5 178.5v243q0 115 -69.5 175.5t-264.5 60.5q-193 0 -262 -60.5t-69 -175.5v-243zM254 1065q0 -119 64.5 -178.5t257 -59.5t257 59.5t64.5 178.5v127q0 119 -64.5 179.5t-257 60.5t-257 -60.5t-64.5 -179.5v-127z" />
<glyph unicode="9" horiz-adv-x="1148" d="M158 905v293q0 141 88 218t322.5 77t321.5 -77t87 -218v-938q0 -276 -402 -276q-399 0 -399 276v31q0 18 19 18h34q20 0 21 -18v-25q0 -96 68.5 -158.5t257 -62.5t258 61.5t69.5 159.5v473q-66 -129 -340 -129q-231 0 -318 77t-87 218zM231 911q0 -117 71 -177t267 -60 q186 0 260 58.5t74 164.5v295q0 117 -70.5 178.5t-263.5 61.5q-197 0 -267.5 -61.5t-70.5 -178.5v-281z" />
<glyph unicode=":" horiz-adv-x="442" d="M184 20v164q0 20 21 21h35q18 0 18 -21v-164q0 -20 -18 -20h-35q-21 0 -21 20zM184 881v166q0 18 21 18h35q18 0 18 -18v-166q0 -18 -18 -19h-35q-21 1 -21 19z" />
<glyph unicode=";" horiz-adv-x="559" d="M180 -135q-2 5 -1 9q0 11 11 17q113 55 113 170v123q0 20 21 21h34q16 0 17 -21v-125q0 -86 -37 -140t-123 -89q-5 -2 -9 -2q-11 0 -16 12zM303 881v166q0 18 21 18h34q16 0 17 -18v-166q0 -18 -17 -19h-34q-21 1 -21 19z" />
<glyph unicode="&#x3c;" horiz-adv-x="1187" d="M195 721v37q0 12 20 22l760 353q6 3 10 3q9 0 8 -16v-37q0 -14 -18 -22l-705 -322l705 -319q18 -12 18 -23v-37q0 -15 -8 -15q-4 0 -10 3l-760 350q-20 13 -20 23z" />
<glyph unicode="=" horiz-adv-x="1284" d="M197 543v26q0 16 18 17h856q16 0 16 -17v-26q0 -20 -16 -21h-856q-18 1 -18 21zM197 897v23q0 20 18 20h856q16 0 16 -20v-23q0 -20 -16 -20h-856q-18 0 -18 20z" />
<glyph unicode="&#x3e;" horiz-adv-x="1187" d="M197 360v37q0 14 18 23l705 319l-705 320q-18 6 -18 22v39q0 14 10 14q3 0 8 -1l760 -351q18 -10 18 -22v-39q0 -12 -18 -23l-760 -352q-5 -2 -8 -2q-10 -1 -10 16z" />
<glyph unicode="?" horiz-adv-x="1232" d="M193 1079v119q0 139 95 217t329.5 78t328.5 -78t94 -217v-201q0 -168 -168 -249l-110 -58q-117 -61 -117 -174v-168q0 -20 -20 -20h-37q-16 0 -17 20v182q0 137 148 213l121 62q127 63 127 192v195q0 113 -78 174t-273 61q-197 0 -274.5 -61t-77.5 -174v-113 q0 -20 -16 -20h-35q-20 0 -20 20zM571 20v164q0 20 17 21h37q20 0 20 -21v-164q0 -20 -20 -20h-37q-17 0 -17 20z" />
<glyph unicode="@" horiz-adv-x="1720" d="M221 88v916q0 150 140.5 232.5t498.5 82.5q246 0 392.5 -44t195.5 -109.5t49 -161.5v-685q0 -248 -211 -247q-166 0 -196 141q-180 -141 -355 -141q-244 0 -243 211q0 16 2 41l41 415q25 258 288 258q164 0 316 -135l14 99q2 18 21 18h28q18 0 17 -18l-64 -633 q-2 -20 -2 -39q0 -63 27 -105q35 -53 110 -53q137 0 137 195v678q0 121 -128 187t-439 66q-567 0 -567 -253v-912q0 -123 128 -189.5t439 -66.5h410q20 0 20 -18v-25q0 -18 -20 -18h-410q-246 0 -392 44t-196.5 109.5t-50.5 159.5zM563 305q0 -76 47 -121t146 -45 q154 0 325 131q0 29 2 47l47 480q-141 135 -299 135q-207 0 -225 -201l-39 -375q-4 -35 -4 -51z" />
<glyph unicode="A" horiz-adv-x="1107" d="M63 20l447 1436q6 20 27 21h36q16 0 25 -21l449 -1436q1 -5 1 -8q0 -12 -16 -12h-39q-14 0 -20 20l-146 455h-551l-141 -455q-6 -20 -24 -20h-33q-16 0 -16 12q0 3 1 8zM295 539h514l-205 661q-45 137 -53 189q0 -2 -7 -37t-18.5 -78t-19.5 -68z" />
<glyph unicode="B" horiz-adv-x="1249" d="M221 20v1436q0 20 21 21h360q238 0 337 -77t99 -214v-152q0 -205 -215 -264q268 -45 269 -268v-209q0 -293 -437 -293h-413q-21 0 -21 20zM295 63h360q365 0 365 238v199q0 233 -365 233h-360v-670zM295 797h334q338 0 338 237v146q0 233 -365 233h-307v-616z" />
<glyph unicode="C" horiz-adv-x="1175" d="M197 279v919q0 139 95 217t331 78q240 0 335 -78t95 -217v-115q0 -20 -19 -20h-35q-18 0 -18 20v107q0 115 -79 176t-276.5 61t-277.5 -61t-80 -176v-903q0 -115 80 -177.5t277.5 -62.5t276.5 62.5t79 177.5v133q0 16 18 16h35q18 0 19 -16v-141q0 -139 -95.5 -217 t-334.5 -78q-236 0 -331 78t-95 217z" />
<glyph unicode="D" horiz-adv-x="1290" d="M221 20v1436q0 20 19 21h417q436 0 437 -295v-887q0 -295 -437 -295h-415q-21 0 -21 20zM295 66h362q362 0 363 237v868q0 240 -363 240h-362v-1345z" />
<glyph unicode="E" horiz-adv-x="1150" d="M221 20v1436q0 20 21 21h739q20 0 20 -21v-24q0 -20 -20 -21h-686v-600h645q20 0 21 -18v-27q0 -18 -21 -18h-645v-682h715q18 0 18 -21v-25q0 -20 -18 -20h-770q-19 0 -19 20z" />
<glyph unicode="F" horiz-adv-x="1155" d="M221 20v1436q0 20 21 21h798q18 0 19 -21v-24q0 -20 -19 -21h-745v-606h704q18 0 19 -19v-26q0 -20 -19 -21h-704v-719q0 -20 -19 -20h-34q-21 0 -21 20z" />
<glyph unicode="G" horiz-adv-x="1212" d="M197 279v919q0 139 95 217t331 78q240 0 335 -78t95 -217v-113q0 -20 -19 -20h-35q-18 0 -18 20v105q0 115 -79 176t-276.5 61t-277.5 -61t-80 -176v-903q0 -115 80 -177.5t276.5 -62.5t276.5 61.5t80 174.5v325h-336q-18 0 -18 19v26q0 20 18 21h389q18 0 19 -21v-374 q0 -139 -95.5 -217t-334.5 -78q-236 0 -331 78t-95 217z" />
<glyph unicode="H" horiz-adv-x="1314" d="M221 20v1436q0 20 21 21h34q18 0 19 -21v-629h725v629q0 20 20 21h37q16 0 17 -21v-1436q0 -20 -17 -20h-37q-20 0 -20 20v744h-725v-744q0 -20 -19 -20h-34q-21 0 -21 20z" />
<glyph unicode="I" horiz-adv-x="516" d="M221 20v1436q0 20 21 21h34q18 0 19 -21v-1436q0 -20 -19 -20h-34q-21 0 -21 20z" />
<glyph unicode="J" horiz-adv-x="1054" d="M82 279v77q0 18 20 19h35q18 0 19 -19v-69q0 -115 66.5 -177.5t242.5 -62.5t241.5 62.5t65.5 177.5v1169q0 20 19 21h36q18 0 19 -21v-1177q0 -141 -83 -218t-298 -77t-299 77t-84 218z" />
<glyph unicode="K" horiz-adv-x="1146" d="M221 20v1436q0 20 21 21h34q18 0 19 -21v-686h82l571 688q18 18 35 19h41q25 0 10 -21l-592 -708l654 -728q4 -5 4 -10q0 -2 -1 -4q-3 -6 -12 -6h-49q-18 0 -32 20l-629 693h-82v-693q0 -20 -19 -20h-34q-21 0 -21 20z" />
<glyph unicode="L" horiz-adv-x="1079" d="M221 20v1436q0 20 21 21h37q16 0 16 -21v-1390h680q18 0 18 -21v-25q0 -20 -18 -20h-735q-19 0 -19 20z" />
<glyph unicode="M" horiz-adv-x="1548" d="M221 20v1436q0 20 21 21h28q16 0 21 -11l454 -1077l29 -90q0 14 33 90l448 1077q4 10 19 11h35q20 0 20 -21v-1436q0 -20 -20 -20h-35q-18 0 -19 20v1289l-32 -92l-404 -971q-8 -20 -24 -21h-39q-18 0 -27 21l-410 979q-14 31 -28 84v-1289q0 -20 -21 -20h-28 q-21 0 -21 20z" />
<glyph unicode="N" horiz-adv-x="1312" d="M221 20v1436q0 20 21 21h28q12 0 19 -9l674 -1202l59 -116v1306q0 20 20 21h33q16 0 17 -21v-1436q0 -20 -17 -20h-33q-10 0 -18 8l-668 1196q-59 100 -65 123v-1307q0 -20 -21 -20h-28q-21 0 -21 20z" />
<glyph unicode="O" horiz-adv-x="1263" d="M197 279v919q0 295 434 295q438 0 438 -295v-919q0 -295 -438 -295q-434 0 -434 295zM268 287q0 -240 362.5 -240t362.5 240v903q0 238 -362.5 237.5t-362.5 -237.5v-903z" />
<glyph unicode="P" horiz-adv-x="1212" d="M221 20v1436q0 20 19 21h413q438 0 439 -295v-287q0 -139 -98.5 -217t-340.5 -78h-358v-580q0 -20 -19 -20h-34q-21 0 -21 20zM295 664h358q365 0 365 237v270q0 115 -82 177.5t-283 62.5h-358v-747z" />
<glyph unicode="Q" horiz-adv-x="1261" d="M197 279v919q0 295 434 295q438 0 438 -295v-919q0 -264 -340 -291l330 -305q16 -12 2 -25l-19 -23q-7 -6 -13.5 -6t-12.5 6l-375 349h-10q-434 0 -434 295zM268 285q0 -240 362.5 -240t362.5 240v907q0 240 -362.5 240t-362.5 -240v-907z" />
<glyph unicode="R" horiz-adv-x="1269" d="M221 20v1436q0 20 19 21h413q438 0 439 -295v-264q0 -240 -287 -287l311 -611q2 -5 2 -8q0 -12 -20 -12h-37q-14 0 -25 20l-305 605q-27 -2 -78 -2h-358v-603q0 -20 -19 -20h-34q-21 0 -21 20zM295 688h358q365 0 365 238v245q0 115 -82 177.5t-283 62.5h-358v-723z" />
<glyph unicode="S" horiz-adv-x="1216" d="M178 279v106q0 18 19 18h34q20 0 21 -18v-100q0 -113 81 -175.5t278.5 -62.5t280.5 62.5t83 175.5v176q0 143 -178 213l-420 160q-76 29 -130 92t-54 159v113q0 139 94 217t327.5 78t328.5 -78t95 -217v-111q0 -18 -20 -18h-35q-18 0 -18 18v105q0 115 -78 175t-271 60 q-197 0 -274.5 -60t-77.5 -175v-96q0 -141 150 -199l426 -164q209 -82 209 -262v-192q0 -295 -437 -295q-434 0 -434 295z" />
<glyph unicode="T" horiz-adv-x="1034" d="M47 1432v24q0 20 21 21h901q18 0 18 -21v-24q0 -20 -18 -21h-416v-1391q0 -20 -16 -20h-37q-20 0 -21 20v1391h-411q-21 1 -21 21z" />
<glyph unicode="U" horiz-adv-x="1288" d="M209 279v1177q0 20 18 21h37q18 0 19 -21v-1169q0 -240 362.5 -240t362.5 240v1169q0 20 18 21h37q18 0 18 -21v-1177q0 -295 -436 -295t-436 295z" />
<glyph unicode="V" horiz-adv-x="1107" d="M63 1456q-1 5 -1 8q0 12 16 13h37q18 0 24 -21l369 -1180l45 -180q29 109 49 172l371 1188q6 20 20 21h39q16 0 16 -13q0 -4 -1 -8l-449 -1436q-8 -20 -25 -20h-36q-20 0 -27 20z" />
<glyph unicode="W" horiz-adv-x="1691" d="M61 1456q-2 5 -2 9q0 12 19 12h35q18 0 24 -21l301 -1186l33 -145l6 27q4 27 13.5 60.5t15.5 57.5l303 1186q8 20 22 21h35q14 0 23 -21l303 -1186l33 -145q14 78 32 145l306 1186q6 20 22 21h33q16 0 16 -13q0 -4 -2 -8l-366 -1436q-6 -20 -25 -20h-37q-16 0 -22 20 l-308 1201q-20 76 -28 125q0 -2 -4 -20.5l-10.5 -49.5t-12.5 -55l-307 -1201q-6 -20 -25 -20h-36q-16 0 -23 20z" />
<glyph unicode="X" horiz-adv-x="1169" d="M111 20l428 728l-422 708q-4 4 -4 9t3 8.5t9 3.5h47q16 0 29 -21l387 -647l373 647q8 20 26 21h41q23 0 10 -21l-413 -711l434 -725q4 -7 4 -11q0 -9 -14 -9h-43q-20 0 -31 20l-395 660l-390 -660q-10 -20 -26 -20h-43q-14 0 -14 9q1 4 4 11z" />
<glyph unicode="Y" horiz-adv-x="1087" d="M51 1456q-2 5 -2 10q0 11 17 11h40q14 0 25 -21l383 -706l31 -66q18 41 30 66l388 706q10 20 22 21h35q17 0 17 -11q0 -4 -3 -10l-452 -833v-603q0 -20 -19 -20h-35q-20 0 -20 20v596z" />
<glyph unicode="Z" horiz-adv-x="1097" d="M133 20v25q0 8 6 23l727 1343h-676q-18 0 -18 21v24q0 20 18 21h750q20 0 21 -21v-24q0 -10 -7 -19l-733 -1347h752q18 0 18 -21v-25q0 -20 -18 -20h-821q-19 0 -19 20z" />
<glyph unicode="[" horiz-adv-x="759" d="M219 -438v1935q0 20 21 21h350q18 0 18 -21v-24q0 -20 -18 -21h-297v-1845h297q18 0 18 -19v-26q0 -20 -18 -21h-350q-21 1 -21 21z" />
<glyph unicode="\" horiz-adv-x="802" d="M119 1497q-1 5 -2 8q0 12 16 13h39q18 0 23 -21l491 -1798q4 -20 -14 -21h-41q-16 0 -23 21z" />
<glyph unicode="]" horiz-adv-x="759" d="M150 -412q0 18 20 19h297v1845h-297q-20 0 -20 21v24q0 20 20 21h350q20 0 21 -21v-1935q0 -20 -21 -21h-350q-20 0 -20 21v26z" />
<glyph unicode="^" horiz-adv-x="1181" d="M201 696l350 760q8 20 22 21h37q10 0 21 -21l354 -760q2 -5 2 -9q0 -9 -14 -9h-37q-16 0 -25 18l-321 705l-320 -705q-8 -18 -20 -18h-37q-15 0 -15 9q0 3 3 9z" />
<glyph unicode="_" horiz-adv-x="911" d="M51 -217q0 20 19 20h770q20 0 20 -20v-25q0 -18 -20 -18h-770q-18 0 -19 18v25z" />
<glyph unicode="`" horiz-adv-x="739" d="M248 1518q-7 7 -7 11q0 7 15 7h41q14 0 25 -14l170 -262q3 -6 3 -11q0 -8 -14 -8h-32q-14 0 -21 12z" />
<glyph unicode="a" horiz-adv-x="1079" d="M154 229v117q0 111 66.5 177.5t189.5 66.5h417v235q0 92 -64.5 144.5t-229 52.5t-229 -51t-64.5 -144v-39q0 -20 -21 -20h-31q-18 0 -18 20v41q0 121 81 187.5t282.5 66.5t283.5 -66.5t82 -187.5v-809q0 -20 -20 -20h-27q-20 0 -21 20l-4 97q-170 -133 -381 -133 q-147 0 -219.5 66t-72.5 179zM223 238q0 -88 58.5 -140.5t177.5 -52.5q203 0 368 137v348h-405q-96 0 -147.5 -52t-51.5 -140v-100z" />
<glyph unicode="b" horiz-adv-x="1116" d="M197 20v1477q0 20 18 21h35q18 0 18 -21v-549q170 135 383 135q147 0 221 -68.5t74 -185.5v-591q0 -117 -73.5 -185.5t-221.5 -68.5q-215 0 -385 133l-4 -97q0 -20 -16 -20h-31q-18 0 -18 20zM268 184q174 -137 371 -137q117 0 176 54.5t59 144.5v577q0 86 -59 140.5 t-176 54.5q-203 0 -371 -139v-695z" />
<glyph unicode="c" horiz-adv-x="1021" d="M172 238v591q0 121 81 187.5t282.5 66.5t284.5 -66.5t83 -187.5v-43q0 -20 -20 -20h-31q-20 0 -21 20v39q0 92 -64.5 144.5t-229 52.5t-229 -52t-64.5 -145v-583q0 -94 64.5 -145.5t229 -51.5t229 51t64.5 146v57q0 20 21 20h31q20 0 20 -20v-61q0 -123 -83 -188.5 t-284.5 -65.5t-282.5 65.5t-81 188.5z" />
<glyph unicode="d" horiz-adv-x="1116" d="M172 238v591q0 117 72.5 185.5t220.5 68.5q209 0 383 -135v549q0 20 18 21h35q18 0 19 -21v-1477q0 -20 -19 -20h-29q-18 0 -18 20l-6 97q-168 -133 -383 -133q-147 0 -220 67.5t-73 186.5zM244 246q0 -90 58 -144.5t175 -54.5q197 0 371 137v695q-166 139 -371 139 q-117 0 -175 -54.5t-58 -140.5v-577z" />
<glyph unicode="e" horiz-adv-x="1058" d="M172 238v591q0 121 84 187.5t286.5 66.5t285.5 -66.5t83 -187.5v-272q0 -18 -16 -18h-651v-297q0 -94 66.5 -146.5t232.5 -52.5t232.5 52t66.5 147v53q0 20 20 20h31q18 0 18 -20v-57q0 -123 -84 -188.5t-286 -65.5q-369 0 -369 254zM244 598h598v229q0 195 -299 195 t-299 -195v-229z" />
<glyph unicode="f" horiz-adv-x="663" d="M72 1020v20q0 18 16 19l123 4h27v211q0 123 84 188.5t286 65.5h8q18 0 19 -19v-24q0 -18 -19 -19h-8q-166 0 -232.5 -52t-66.5 -146v-205h269q20 0 20 -19v-24q0 -18 -20 -19h-269v-981q0 -20 -20 -20h-33q-18 0 -18 20v981h-150q-16 1 -16 19z" />
<glyph unicode="g" horiz-adv-x="1116" d="M172 238v591q0 117 72.5 185.5t220.5 68.5q219 0 383 -137l6 101q0 18 18 18h29q18 0 19 -18v-1248q0 -121 -84 -187.5t-287 -66.5h-289q-18 0 -18 19v26q0 18 18 19h289q166 0 232.5 51t66.5 145v310q-172 -131 -383 -131q-147 0 -220 67.5t-73 186.5zM244 246 q0 -90 58 -144.5t175 -54.5q197 0 371 137v695q-166 139 -371 139q-117 0 -175 -54.5t-58 -140.5v-577z" />
<glyph unicode="h" horiz-adv-x="1128" d="M197 20v1477q0 20 18 21h35q18 0 18 -21v-549q164 135 383 135q147 0 221 -67.5t74 -181.5v-814q0 -20 -18 -20h-35q-18 0 -19 20v803q0 88 -58 141.5t-177 53.5q-205 0 -371 -137v-861q0 -20 -18 -20h-35q-18 0 -18 20z" />
<glyph unicode="i" d="M197 20v1027q0 18 18 18h35q18 0 18 -18v-1027q0 -20 -18 -20h-35q-18 0 -18 20zM197 1288v209q0 20 18 21h35q18 0 18 -21v-209q0 -20 -18 -20h-35q-18 0 -18 20z" />
<glyph unicode="j" d="M-131 -410q0 18 20 19h9q166 0 232.5 51t66.5 145v1242q0 18 18 18h35q18 0 18 -18v-1248q0 -121 -84 -187.5t-286 -66.5h-9q-20 0 -20 19v26zM197 1288v209q0 20 18 21h35q18 0 18 -21v-209q0 -20 -18 -20h-35q-18 0 -18 20z" />
<glyph unicode="k" horiz-adv-x="952" d="M195 20v1477q0 20 20 21h35q18 0 18 -21v-866h88l426 418q16 16 33 16h41q10 0 13 -5t-5 -13l-446 -441l508 -586q3 -5 3 -10q0 -10 -11 -10h-44q-18 0 -34 20l-484 551h-88v-551q0 -20 -18 -20h-35q-20 0 -20 20z" />
<glyph unicode="l" d="M197 20v1477q0 20 18 21h35q18 0 18 -21v-1477q0 -20 -18 -20h-35q-18 0 -18 20z" />
<glyph unicode="m" horiz-adv-x="1781" d="M197 20v1027q0 18 18 18h31q16 0 16 -18l2 -99q164 135 375 135q217 0 276 -147q170 147 388 147q147 0 220.5 -67.5t73.5 -181.5v-814q0 -20 -18 -20h-33q-20 0 -20 20v803q0 88 -58.5 141.5t-177.5 53.5q-207 0 -362 -141q6 -25 6 -54v-803q0 -20 -21 -20h-34 q-16 0 -17 20v803q0 88 -58.5 141.5t-178.5 53.5q-203 0 -357 -137v-861q0 -20 -18 -20h-35q-18 0 -18 20z" />
<glyph unicode="n" horiz-adv-x="1128" d="M197 20v1027q0 18 18 18h31q16 0 16 -18l4 -101q166 137 385 137q147 0 221 -67.5t74 -181.5v-814q0 -20 -18 -20h-35q-18 0 -19 20v803q0 88 -58 141.5t-177 53.5q-205 0 -371 -137v-861q0 -20 -18 -20h-35q-18 0 -18 20z" />
<glyph unicode="o" horiz-adv-x="1091" d="M172 238v591q0 254 373 254q375 0 375 -254v-591q0 -254 -375 -254q-373 0 -373 254zM244 242q0 -197 301 -197q303 0 303 197v583q0 197 -303 197q-301 0 -301 -197v-583z" />
<glyph unicode="p" horiz-adv-x="1116" d="M197 -436v1483q0 18 18 18h31q16 0 16 -18l4 -101q166 137 385 137q147 0 221 -68.5t74 -185.5v-591q0 -117 -73.5 -185.5t-221.5 -68.5q-215 0 -383 131v-551q0 -18 -18 -19h-35q-18 1 -18 19zM268 184q174 -137 371 -137q117 0 176 54.5t59 144.5v577q0 86 -59 140.5 t-176 54.5q-203 0 -371 -139v-695z" />
<glyph unicode="q" horiz-adv-x="1116" d="M172 238v591q0 117 72.5 185.5t220.5 68.5q219 0 383 -137l6 101q0 18 18 18h29q18 0 19 -18v-1483q0 -18 -19 -19h-35q-18 0 -18 19v551q-172 -131 -383 -131q-147 0 -220 67.5t-73 186.5zM244 246q0 -90 58 -144.5t175 -54.5q197 0 371 137v695q-166 139 -371 139 q-117 0 -175 -54.5t-58 -140.5v-577z" />
<glyph unicode="r" horiz-adv-x="712" d="M197 20v1027q0 18 18 18h31q16 0 16 -18l6 -125q195 162 379 161q18 0 19 -20v-29q0 -20 -19 -20q-109 0 -212 -51.5t-167 -104.5v-838q0 -20 -18 -20h-35q-18 0 -18 20z" />
<glyph unicode="s" horiz-adv-x="1001" d="M141 207v61q0 18 19 19h33q18 0 18 -19v-59q0 -76 74.5 -122t224 -46t225.5 46t76 122v113q0 104 -143 145l-344 104q-63 18 -116.5 71.5t-53.5 127.5v92q0 100 87 160.5t267 60.5t268 -60t88 -161v-76q0 -16 -20 -16h-33q-14 0 -14 16v76q0 76 -72 120t-217 44 q-285 0 -285 -164v-80q0 -57 41 -96t94 -55l344 -103q80 -25 129.5 -73.5t49.5 -118.5v-129q0 -100 -93.5 -161.5t-277.5 -61.5t-276.5 61.5t-92.5 161.5z" />
<glyph unicode="t" horiz-adv-x="733" d="M70 1020v20q0 18 18 19l121 4h24v242q0 20 19 20h35q18 0 18 -20v-242h273q20 0 20 -19v-24q0 -18 -20 -19h-273v-741q0 -94 66.5 -145.5t232.5 -51.5h31q18 0 18 -20v-23q0 -20 -18 -20h-37q-203 0 -284 65.5t-81 188.5v747h-145q-18 1 -18 19z" />
<glyph unicode="u" horiz-adv-x="1114" d="M184 231v816q0 18 19 18h35q18 0 18 -18v-801q0 -92 57.5 -145.5t178.5 -53.5q201 0 356 137v863q0 18 18 18h35q18 0 19 -18v-1027q0 -20 -19 -20h-29q-18 0 -18 20l-6 97q-156 -133 -371 -133q-145 0 -219 66t-74 181z" />
<glyph unicode="v" horiz-adv-x="884" d="M49 1047q-2 5 -2 8q0 10 16 10h39q14 0 21 -18l295 -852l26 -93q0 23 27 93l293 852q6 18 22 18h37q15 0 15 -9q0 -4 -2 -9l-355 -1027q-6 -20 -20 -20h-39q-14 0 -21 20z" />
<glyph unicode="w" horiz-adv-x="1347" d="M49 1047q-4 18 17 18h36q14 0 21 -18l233 -863l19 -82q0 10 22 82l238 863q6 18 20 18h45q18 0 25 -18l229 -863l21 -75q0 12 18 75l238 863q6 18 22 18h33q16 0 12 -18l-284 -1027q-6 -20 -23 -20h-39q-14 0 -20 20l-234 859q-12 37 -22 96q0 -2 -10.5 -41t-14.5 -57 l-243 -857q-6 -20 -21 -20h-37q-16 0 -22 20z" />
<glyph unicode="x" horiz-adv-x="991" d="M94 20l355 521l-349 506q-14 18 9 18h45q18 0 28 -18l316 -453l305 453q12 18 28 18h37q25 0 11 -18l-344 -508l362 -519q3 -6 3 -10q0 -10 -17 -10h-39q-18 0 -29 20l-328 465l-315 -465q-12 -20 -31 -20h-35q-16 0 -16 9q0 4 4 11z" />
<glyph unicode="y" horiz-adv-x="884" d="M49 1047q-2 5 -2 8q0 10 16 10h37q16 0 23 -18l295 -852l26 -95q14 59 27 95l293 852q6 18 22 18h37q15 0 15 -9q0 -4 -2 -9l-508 -1483q-8 -20 -23 -21h-29q-23 0 -14 21l146 438z" />
<glyph unicode="z" horiz-adv-x="993" d="M121 20v23q0 8 10 25l606 936h-571q-20 0 -21 18v27q0 16 21 16h645q20 0 20 -16v-23q0 -12 -4 -18l-614 -945h625q20 0 20 -20v-23q0 -20 -20 -20h-697q-20 0 -20 20z" />
<glyph unicode="{" horiz-adv-x="968" d="M129 526v25q0 20 18 20h3q274 0 274 197v514q0 254 369 254h10q18 0 18 -18v-25q0 -18 -18 -18h-10q-164 0 -229.5 -51.5t-65.5 -147.5v-514q0 -184 -203 -223q203 -39 203 -222v-530q0 -96 65.5 -146.5t229.5 -50.5h10q18 0 18 -20v-25q0 -18 -18 -18h-10 q-369 0 -369 254v532q0 195 -274 195h-3q-18 0 -18 18z" />
<glyph unicode="|" horiz-adv-x="516" d="M221 -438v1935q0 20 21 21h37q16 0 16 -21v-1935q0 -20 -16 -21h-37q-21 1 -21 21z" />
<glyph unicode="}" horiz-adv-x="968" d="M147 -430q0 20 21 20h8q164 0 230.5 50.5t66.5 146.5v530q0 182 201 222q-201 39 -201 223v514q0 96 -66.5 147.5t-230.5 51.5h-8q-20 0 -21 18v25q0 18 21 18h8q201 0 286 -65.5t85 -188.5v-514q0 -197 274 -197h2q18 0 19 -20v-25q0 -18 -19 -18h-2q-274 0 -274 -195 v-532q0 -121 -85 -187.5t-286 -66.5h-8q-20 0 -21 18v25z" />
<glyph unicode="~" horiz-adv-x="1032" d="M197 504v33q0 182 133 182q45 0 108 -39l176 -105q57 -31 88 -30q47 0 60.5 27.5t13.5 105.5v20q0 18 21 19h22q16 0 17 -21v-34q0 -182 -127 -183q-51 0 -119 41l-178 107q-47 27 -78 26q-45 0 -61.5 -26.5t-16.5 -106.5v-18q0 -20 -23 -21h-18q-18 0 -18 23z" />
<glyph unicode="&#xa1;" horiz-adv-x="522" d="M221 219l8 500q0 18 19 18h22q20 0 21 -18l8 -500v-610q0 -18 -18 -19h-39q-20 0 -21 19v610zM223 881v166q0 18 21 18h35q18 0 18 -18v-166q0 -18 -18 -19h-35q-21 1 -21 19z" />
<glyph unicode="&#xa2;" horiz-adv-x="1128" d="M201 440v594q0 115 72.5 179.5t252.5 72.5v170q0 20 19 21h35q18 0 18 -21v-170q182 -6 258 -70.5t76 -181.5v-45q0 -18 -21 -18h-32q-18 0 -19 18v39q0 94 -64.5 146.5t-229.5 52.5t-230.5 -52.5t-65.5 -146.5v-584q0 -92 65.5 -143t230.5 -51t229.5 51t64.5 143v60 q0 18 19 18h32q20 0 21 -18v-64q0 -117 -76 -182t-258 -72v-166q0 -20 -18 -20h-35q-18 0 -19 20v166q-180 8 -252.5 73.5t-72.5 180.5z" />
<glyph unicode="&#xa3;" horiz-adv-x="1402" d="M201 20v25q0 18 16 18h133v652h-133q-16 0 -16 18v27q0 16 16 16h133v443q0 137 80 205.5t315 68.5q123 0 203 -18.5t122 -57.5t57.5 -85t15.5 -113v-58q0 -18 -21 -18h-32q-18 0 -19 18v47q0 117 -65.5 168t-260 51t-259 -51t-64.5 -168v-432h389q20 0 20 -16v-27 q0 -18 -20 -18h-389v-652h500q100 0 156.5 59.5t56.5 219.5v10q0 18 20 19h33q16 0 16 -19v-10q0 -197 -71.5 -269.5t-198.5 -72.5h-717q-16 0 -16 20z" />
<glyph unicode="&#xa4;" horiz-adv-x="1153" d="M59 606v17q0 20 19 20h123v195h-123q-18 0 -19 18v16q0 20 19 21h123v305q0 139 94 217t330 78q240 0 335 -78t95 -217v-115q0 -20 -19 -20h-35q-18 0 -18 20v107q0 115 -79 176t-276.5 61t-277.5 -61t-80 -176v-297h410q18 0 18 -21v-16q0 -18 -18 -18h-410v-195h410 q18 0 18 -20v-17q0 -18 -18 -18h-410v-301q0 -115 80 -177.5t277.5 -62.5t276.5 62.5t79 177.5v133q0 16 18 16h35q18 0 19 -16v-141q0 -139 -95.5 -217t-334.5 -78q-236 0 -330 77.5t-94 217.5v309h-123q-19 0 -19 18z" />
<glyph unicode="&#xa5;" horiz-adv-x="1388" d="M205 1456q-3 6 -3 11q0 10 15 10h41q16 0 25 -21l383 -706l30 -66q18 41 31 66l387 706q10 20 23 21h34q17 0 18 -11q0 -4 -3 -10l-293 -541h194q20 0 21 -16v-18q0 -18 -21 -19h-225l-104 -196h329q20 0 21 -17v-18q0 -18 -21 -19h-354v-592q0 -20 -18 -20h-35 q-20 0 -21 20v592h-354q-18 0 -18 19v18q0 16 18 17h326l-105 196h-221q-18 0 -18 19v18q0 16 18 16h193z" />
<glyph unicode="&#xa6;" d="M197 317q0 18 18 19h35q18 0 18 -19v-755q0 -20 -18 -21h-35q-18 0 -18 21v755zM197 700v756q0 20 18 21h35q18 0 18 -21v-756q0 -18 -18 -18h-35q-18 0 -18 18z" />
<glyph unicode="&#xa7;" horiz-adv-x="1185" d="M221 -182q0 18 21 18h28q20 0 21 -18v-35q0 -195 302 -195t302 195v201q0 104 -170 151l-301 86q-68 20 -127 72.5t-59 144.5v250q0 20 16 21h33q18 0 18 -21v-246q0 -70 48 -108.5t98 -50.5l307 -90q209 -63 209 -207v-199q0 -256 -375 -256q-201 0 -286 66.5t-85 187.5 v33zM221 1042v195q0 256 373 256q203 0 288 -65.5t85 -188.5v-33q0 -18 -21 -18h-31q-18 0 -18 18v35q0 197 -302 197t-302 -197v-197q0 -109 170 -153l301 -86q68 -18 127 -71.5t59 -147.5v-250q0 -18 -16 -19h-33q-18 0 -18 19v246q0 49 -31 86t-59.5 51t-57.5 24l-305 88 q-209 66 -209 211z" />
<glyph unicode="&#xa8;" horiz-adv-x="630" d="M188 1288v215q0 18 21 19h22q18 0 19 -19v-215q0 -20 -19 -20h-22q-21 0 -21 20zM381 1288v215q0 18 18 19h25q16 0 16 -19v-215q0 -20 -16 -20h-25q-18 0 -18 20z" />
<glyph unicode="&#xa9;" horiz-adv-x="1513" d="M221 301v877q0 72 21.5 124t77 98t165 69.5t272.5 23.5t272.5 -23.5t165.5 -69.5t77.5 -98.5t21.5 -123.5v-877q0 -74 -21.5 -127t-77.5 -98t-165.5 -68.5t-272.5 -23.5t-272.5 23.5t-165 68.5t-77 98t-21.5 127zM283 295q0 -123 104.5 -190.5t370.5 -67.5t370.5 67.5 t104.5 190.5v887q0 123 -104.5 190.5t-370.5 67.5t-370.5 -67.5t-104.5 -190.5v-887zM477 528v418q0 127 57.5 189.5t222.5 62.5t223 -62.5t58 -189.5v-41q0 -20 -18 -20h-31q-18 0 -18 20v39q0 100 -40 149.5t-173 49.5t-173 -48t-40 -151v-414q0 -100 40 -149t173 -49 q131 0 172 49t41 149v56q0 20 18 20h31q18 0 18 -20v-58q0 -127 -58 -189.5t-223 -62.5t-222.5 62.5t-57.5 189.5z" />
<glyph unicode="&#xaa;" horiz-adv-x="755" d="M150 981v68q0 68 40.5 108.5t118.5 40.5h240v139q0 53 -36 82t-128 29q-170 0 -170 -109v-24q0 -14 -10 -15h-31q-14 0 -14 15v24q0 154 224 154t224 -154v-481q0 -16 -14 -16h-25q-14 0 -14 16l-4 53q-96 -80 -225 -80q-176 0 -176 150zM209 987q0 -111 129 -110 q125 0 211 79v199h-232q-53 0 -80.5 -30.5t-27.5 -77.5v-60z" />
<glyph unicode="&#xab;" horiz-adv-x="1263" d="M203 516v31q0 12 16 26l406 310q4 4 8 4q2 0 5 -1q7 -3 7 -12v-45q0 -10 -20 -26l-361 -271l361 -272q20 -14 20 -29v-41q0 -14 -8 -13q-5 0 -12 5l-406 310q-16 12 -16 24zM621 516v31q0 12 18 26l405 310q4 4 9 4l4 -1q6 -3 6 -12v-45q0 -10 -19 -26l-360 -271 l360 -272q18 -14 19 -29v-41q0 -14 -7 -13q-4 0 -12 5l-405 310q-18 12 -18 24z" />
<glyph unicode="&#xac;" horiz-adv-x="792" d="M168 675q0 93 65.5 160.5t162 67.5t163 -67.5t66.5 -160.5t-66.5 -161t-163 -68t-162 68t-65.5 161z" />
<glyph unicode="&#xad;" horiz-adv-x="1015" d="M197 616v25q0 18 18 18h584q20 0 20 -18v-25q0 -18 -20 -18h-584q-18 0 -18 18z" />
<glyph unicode="&#xae;" horiz-adv-x="1320" d="M221 848v381q0 264 441 264q436 0 436 -264v-381q0 -262 -436 -262q-441 0 -441 262zM281 844q0 -84 82.5 -144.5t298.5 -60.5q383 0 382 205v389q0 209 -382 209q-215 0 -298 -62.5t-83 -146.5v-389zM471 758v542q0 14 14 15h197q109 0 154 -42t45 -106v-55 q0 -111 -119 -139l94 -215q4 -12 -14 -13h-33q-10 0 -14 13l-90 207h-23h-152v-207q0 -12 -14 -13h-33q-12 1 -12 13zM530 1012h148q76 0 111.5 30.5t35.5 73.5v47q0 43 -35.5 74t-111.5 31h-148v-256z" />
<glyph unicode="&#xaf;" horiz-adv-x="915" d="M154 1348v22q0 18 18 19h573q18 0 19 -19v-22q0 -18 -19 -19h-573q-18 1 -18 19z" />
<glyph unicode="&#xb0;" horiz-adv-x="841" d="M150 1094v211q0 90 62 137t209.5 47t208 -47t60.5 -137v-211q0 -184 -268 -185q-272 1 -272 185zM217 1096q0 -131 204 -131t204 131v209q0 131 -204 131t-204 -131v-209z" />
<glyph unicode="&#xb1;" horiz-adv-x="1280" d="M197 289v24q0 18 18 19h848q20 0 20 -19v-24q0 -20 -20 -21h-848q-18 1 -18 21zM197 811v27q0 18 18 18h391v301q0 20 19 21h26q16 0 17 -21v-301h395q20 0 20 -18v-27q0 -18 -20 -18h-395v-306q0 -18 -17 -18h-26q-18 0 -19 18v306h-391q-18 0 -18 18z" />
<glyph unicode="&#xb2;" horiz-adv-x="792" d="M145 1241v72q0 86 54.5 133t196 47t196.5 -47t55 -133v-164q0 -61 -36 -95t-76 -46l-226 -64q-96 -29 -96 -86v-211h424q14 0 14 -12v-23q0 -14 -14 -14h-469q-12 0 -12 14v252q0 88 114 119l234 68q84 23 84 96v158q0 68 -42 103.5t-150.5 35.5t-149.5 -36t-41 -103v-64 q0 -14 -17 -14h-30q-13 0 -13 14z" />
<glyph unicode="&#xb3;" horiz-adv-x="790" d="M145 766v22q0 12 13 13h30q16 0 17 -13v-16q0 -63 42 -98t150 -35q106 0 148.5 35t42.5 98v143q0 68 -38 101t-149 33h-120q-16 0 -17 12v20q0 14 17 15h112q113 0 150 31.5t37 101.5v82q0 68 -39 101.5t-144 33.5q-109 0 -148.5 -34t-39.5 -101v-15q0 -14 -14 -14h-29 q-16 0 -16 14v21q0 86 54 132t193 46q137 0 190.5 -46t53.5 -130v-96q0 -63 -24.5 -98t-94.5 -50q76 -16 100.5 -53t24.5 -100v-158q0 -176 -250 -176q-141 0 -196.5 47t-55.5 131z" />
<glyph unicode="&#xb4;" horiz-adv-x="739" d="M248 1260l170 262q10 14 22 14h41q15 0 16 -9q0 -4 -3 -9l-181 -265q-12 -12 -22 -12h-35q-12 0 -12 8q0 4 4 11z" />
<glyph unicode="&#xb5;" horiz-adv-x="1114" d="M184 -434v1481q0 18 19 18h35q18 0 18 -18v-801q0 -92 57.5 -145.5t178.5 -53.5q201 0 356 137v863q0 18 18 18h35q18 0 19 -18v-1027q0 -20 -19 -20h-29q-18 0 -18 20l-6 97q-156 -133 -371 -133q-164 0 -227 94l6 -512q0 -20 -18 -21h-35q-19 1 -19 21z" />
<glyph unicode="&#xb6;" horiz-adv-x="1339" d="M221 897v295q0 137 93.5 211t326.5 74h180q16 0 17 -19v-1892q0 -20 -17 -21h-37q-20 0 -20 21v1046h-123q-233 0 -326.5 74t-93.5 211zM1044 -434v1890q0 20 17 21h37q18 0 18 -21v-1890q0 -20 -18 -21h-37q-17 1 -17 21z" />
<glyph unicode="&#xb7;" horiz-adv-x="442" d="M184 477v166q0 18 21 19h35q18 0 18 -19v-166q0 -18 -18 -18h-35q-21 0 -21 18z" />
<glyph unicode="&#xb8;" horiz-adv-x="303" d="M-33 -424q0 20 21 21h254q45 0 82.5 25.5t37.5 88.5q0 115 -120 115h-123q-27 0 -23 24l43 154q2 16 21 16l22 -4q18 -4 11 -24l-35 -111h90q72 0 124 -39t52 -131q0 -88 -53.5 -129t-122.5 -41h-260q-20 0 -21 21v14z" />
<glyph unicode="&#xb9;" horiz-adv-x="815" d="M145 618v23q0 14 13 14h219v772l-219 -57q-12 -4 -13 10v25q0 10 13 14l268 72q3 1 5 1q7 0 7 -11v-826h219q14 0 15 -14v-23q0 -14 -15 -14h-499q-13 0 -13 14z" />
<glyph unicode="&#xba;" horiz-adv-x="759" d="M147 987v350q0 156 232.5 156t232.5 -156v-350q0 -156 -232.5 -156t-232.5 156zM207 991q0 -113 173 -112.5t173 112.5v344q0 111 -173 111t-173 -111v-344z" />
<glyph unicode="&#xbb;" horiz-adv-x="1261" d="M203 207v45q0 10 18 27l361 270l-361 272q-18 14 -18 27v43q0 14 7 14q4 0 11 -6l406 -309q18 -12 18 -25v-30q0 -14 -18 -27l-406 -311q-4 -3 -8 -3l-4 1q-6 2 -6 12zM616 207v45q0 10 21 27l360 270l-360 272q-20 14 -21 27v43q0 14 8 14q5 0 13 -6l405 -309 q16 -12 17 -25v-30q0 -14 -17 -27l-405 -311q-5 -3 -10 -3q-2 0 -4 1q-7 2 -7 12z" />
<glyph unicode="&#xbc;" horiz-adv-x="1738" d="M145 618v23q0 14 13 14h219v768l-219 -53q-12 -4 -13 10v25q0 10 13 14l268 72q12 4 12 -10v-826h219q14 0 15 -14v-23q0 -14 -15 -14h-499q-13 0 -13 14zM664 -92l448 1661q4 14 18 14h33q14 0 8 -14l-448 -1661q-2 -14 -14 -14h-33q-16 0 -12 14zM1083 313v17q0 4 7 24 l192 516q8 14 21 15h32q14 0 8 -15l-194 -522h383v522q0 14 16 15h31q14 0 14 -15v-856q0 -14 -14 -14h-31q-16 0 -16 14v285h-434q-15 0 -15 14z" />
<glyph unicode="&#xbd;" horiz-adv-x="1785" d="M145 618v23q0 14 13 14h219v770l-219 -55q-12 -4 -13 10v25q0 10 13 14l268 72q12 4 12 -10v-826h219q14 0 15 -14v-23q0 -14 -15 -14h-499q-13 0 -13 14zM651 -92l449 1661q2 14 18 14h35q10 0 6 -14l-446 -1661q-2 -14 -17 -14h-32q-17 0 -13 14zM1137 645v72 q0 84 54 132t195 48q143 0 198.5 -48t55.5 -132v-166q0 -106 -114 -141l-223 -62q-96 -29 -97 -88v-211h424q12 0 12 -12v-23q0 -14 -12 -14h-469q-10 0 -10 14v252q0 90 113 121l231 68q88 20 88 94v160q0 66 -43 101.5t-154 35.5q-109 0 -149.5 -36t-40.5 -101v-64 q0 -16 -12 -16h-31q-16 0 -16 16z" />
<glyph unicode="&#xbe;" horiz-adv-x="1728" d="M145 764v22q0 12 13 13h30q16 0 17 -13v-16q0 -66 42 -99.5t150 -33.5q106 0 148.5 34t42.5 99v143q0 68 -38 101t-149 33h-120q-16 0 -17 12v20q0 14 17 15h112q113 0 150 31.5t37 101.5v82q0 68 -39 101.5t-144 33.5q-109 0 -148.5 -34t-39.5 -101v-15q0 -14 -14 -14 h-29q-16 0 -16 14v21q0 86 54 132t193 46q137 0 190.5 -46t53.5 -130v-96q0 -63 -24.5 -98.5t-94.5 -49.5q76 -16 100.5 -53t24.5 -100v-158q0 -176 -250 -176q-141 0 -196.5 47t-55.5 131zM659 -92l451 1661q2 14 16 14h33q14 0 8 -14l-446 -1661q-2 -14 -19 -14h-28 q-19 0 -15 14zM1077 313v17q0 4 6 24l193 516q6 14 20 15h33q16 0 8 -15l-194 -522h383v522q0 14 16 15h29q16 0 16 -15v-856q0 -14 -16 -14h-29q-16 0 -16 14v285h-434q-15 0 -15 14z" />
<glyph unicode="&#xbf;" horiz-adv-x="1232" d="M193 70q0 164 167 249l111 56q117 61 117 174v170q0 18 20 18h37q16 0 17 -18v-182q0 -139 -148 -213l-121 -64q-127 -63 -127 -190v-195q0 -115 78 -176t272 -61q199 0 276 61t77 176v113q0 18 16 18h35q20 0 20 -18v-121q0 -137 -94 -216t-328.5 -79t-329.5 79t-95 216 v203zM588 881v166q0 18 20 18h37q16 0 17 -18v-166q0 -18 -17 -19h-37q-20 1 -20 19z" />
<glyph unicode="&#xc0;" horiz-adv-x="1107" d="M63 20l447 1436q6 20 27 21h36q16 0 25 -21l449 -1436q1 -5 1 -8q0 -12 -16 -12h-39q-14 0 -20 20l-146 455h-551l-141 -455q-6 -20 -24 -20h-33q-16 0 -16 12q0 3 1 8zM295 539h514l-205 661q-45 137 -53 189q0 -2 -7 -37t-18.5 -78t-19.5 -68zM336 1886q-5 8 -5 13 q0 8 15 8h41q16 0 23 -17l170 -262q4 -6 3 -9q0 -7 -12 -7h-32q-18 0 -23 10z" />
<glyph unicode="&#xc1;" horiz-adv-x="1107" d="M63 20l447 1436q6 20 27 21h36q16 0 25 -21l449 -1436q1 -5 1 -8q0 -12 -16 -12h-39q-14 0 -20 20l-146 455h-551l-141 -455q-6 -20 -24 -20h-33q-16 0 -16 12q0 3 1 8zM295 539h514l-205 661q-45 137 -53 189q0 -2 -7 -37t-18.5 -78t-19.5 -68zM530 1628l168 262 q12 16 25 17h41q15 0 14 -9q0 -5 -4 -12l-180 -264q-10 -10 -21 -10h-34q-13 0 -13 6q-1 4 4 10z" />
<glyph unicode="&#xc2;" horiz-adv-x="1107" d="M63 20l447 1436q6 20 27 21h36q16 0 25 -21l449 -1436q1 -5 1 -8q0 -12 -16 -12h-39q-14 0 -20 20l-146 455h-551l-141 -455q-6 -20 -24 -20h-33q-16 0 -16 12q0 3 1 8zM295 539h514l-205 661q-45 137 -53 189q0 -2 -7 -37t-18.5 -78t-19.5 -68zM336 1630l172 256 q14 20 31 21h28q16 0 27 -19l174 -258q5 -7 5 -11q0 -7 -13 -7h-31q-12 0 -27 18l-149 223l-150 -223q-14 -18 -26 -18h-29q-15 0 -15 8q0 4 3 10z" />
<glyph unicode="&#xc3;" horiz-adv-x="1107" d="M63 20l447 1436q6 20 27 21h36q16 0 25 -21l449 -1436q1 -5 1 -8q0 -12 -16 -12h-39q-14 0 -20 20l-146 455h-551l-141 -455q-6 -20 -24 -20h-33q-16 0 -16 12q0 3 1 8zM274 1669v33q0 178 136 178q55 0 106 -45l102 -90q45 -37 76 -37q45 0 61.5 27.5t16.5 107.5v19 q0 18 21 18h22q16 0 16 -20v-31q-2 -178 -135 -178q-53 0 -108 45l-101 88q-45 37 -75 37q-45 0 -61.5 -27t-16.5 -106v-21q0 -18 -19 -18h-22q-19 0 -19 20zM295 539h514l-205 661q-45 137 -53 189q0 -2 -7 -37t-18.5 -78t-19.5 -68z" />
<glyph unicode="&#xc4;" horiz-adv-x="1107" d="M63 20l447 1436q6 20 27 21h36q16 0 25 -21l449 -1436q1 -5 1 -8q0 -12 -16 -12h-39q-14 0 -20 20l-146 455h-551l-141 -455q-6 -20 -24 -20h-33q-16 0 -16 12q0 3 1 8zM295 539h514l-205 661q-45 137 -53 189q0 -2 -7 -37t-18.5 -78t-19.5 -68zM428 1651v215q0 16 18 16 h25q16 0 16 -16v-215q0 -20 -16 -21h-25q-18 1 -18 21zM618 1651v215q0 16 21 16h23q18 0 18 -16v-215q0 -20 -18 -21h-23q-21 1 -21 21z" />
<glyph unicode="&#xc5;" horiz-adv-x="1107" d="M63 20l447 1436q6 20 27 21h36q16 0 25 -21l449 -1436q1 -5 1 -8q0 -12 -16 -12h-39q-14 0 -20 20l-146 455h-551l-141 -455q-6 -20 -24 -20h-33q-16 0 -16 12q0 3 1 8zM295 539h514l-205 661q-45 137 -53 189q0 -2 -7 -37t-18.5 -78t-19.5 -68zM362 1733v24 q0 158 191.5 158t191.5 -158v-24q0 -160 -191.5 -160t-191.5 160zM418 1737q0 -113 136 -113t136 113v14q0 115 -136 115t-136 -115v-14z" />
<glyph unicode="&#xc6;" horiz-adv-x="1824" d="M66 20l829 1436q8 20 25 21h735q18 0 18 -21v-22q0 -20 -18 -21h-686v-602h647q18 0 18 -18v-25q0 -18 -18 -18h-647v-687h714q18 0 19 -18v-25q0 -20 -19 -20h-755q-29 0 -29 20v455h-500l-262 -455q-12 -20 -24 -20h-33q-18 0 -18 10q0 4 4 10zM436 539h463v807 l-72 -127z" />
<glyph unicode="&#xc7;" horiz-adv-x="1175" d="M197 279v919q0 139 95 217t331 78q240 0 335 -78t95 -217v-115q0 -20 -19 -20h-35q-18 0 -18 20v107q0 115 -79 176t-276.5 61t-277.5 -61t-80 -176v-903q0 -115 80 -177.5t277.5 -62.5t276.5 62.5t79 177.5v133q0 16 18 16h35q18 0 19 -16v-141q0 -139 -95.5 -217 t-334.5 -78h-11l-30 -103h90q72 0 123 -39t51 -131q0 -88 -53.5 -129t-120.5 -41h-262q-18 0 -19 21v14q0 20 19 21h254q47 0 84.5 25.5t37.5 88.5q0 115 -122 115h-121q-29 0 -25 24l37 136q-197 10 -277.5 86t-80.5 207z" />
<glyph unicode="&#xc8;" horiz-adv-x="1150" d="M221 20v1436q0 20 21 21h739q20 0 20 -21v-24q0 -20 -20 -21h-686v-600h645q20 0 21 -18v-27q0 -18 -21 -18h-645v-682h715q18 0 18 -21v-25q0 -20 -18 -20h-770q-19 0 -19 20zM444 1886q-5 8 -5 13q0 8 16 8h41q16 0 22 -17l170 -262q4 -6 4 -9q0 -7 -12 -7h-33 q-18 0 -22 10z" />
<glyph unicode="&#xc9;" horiz-adv-x="1150" d="M221 20v1436q0 20 21 21h739q20 0 20 -21v-24q0 -20 -20 -21h-686v-600h645q20 0 21 -18v-27q0 -18 -21 -18h-645v-682h715q18 0 18 -21v-25q0 -20 -18 -20h-770q-19 0 -19 20zM567 1628l168 262q12 16 25 17h41q15 0 14 -9q0 -5 -4 -12l-180 -264q-10 -10 -21 -10h-35 q-13 0 -12 6q-1 4 4 10z" />
<glyph unicode="&#xca;" horiz-adv-x="1150" d="M221 20v1436q0 20 21 21h739q20 0 20 -21v-24q0 -20 -20 -21h-686v-600h645q20 0 21 -18v-27q0 -18 -21 -18h-645v-682h715q18 0 18 -21v-25q0 -20 -18 -20h-770q-19 0 -19 20zM360 1630l172 256q14 20 31 21h27q18 0 28 -19l175 -258q4 -7 3 -11q0 -8 -12 -7h-30 q-14 0 -27 18l-149 223l-150 -223q-16 -18 -27 -18h-30q-14 0 -14 8q0 4 3 10z" />
<glyph unicode="&#xcb;" horiz-adv-x="1150" d="M221 20v1436q0 20 21 21h739q20 0 20 -21v-24q0 -20 -20 -21h-686v-600h645q20 0 21 -18v-27q0 -18 -21 -18h-645v-682h715q18 0 18 -21v-25q0 -20 -18 -20h-770q-19 0 -19 20zM492 1651v215q0 16 18 16h25q16 0 16 -16v-215q0 -20 -16 -21h-25q-18 1 -18 21zM682 1651 v215q0 16 18 16h25q18 0 18 -16v-215q0 -20 -18 -21h-25q-18 1 -18 21z" />
<glyph unicode="&#xcc;" horiz-adv-x="516" d="M41 1886q-6 8 -6 13q0 8 14 8h43q16 0 23 -17l170 -262q10 -16 -9 -16h-32q-18 0 -23 10zM221 20v1436q0 20 21 21h34q18 0 19 -21v-1436q0 -20 -19 -20h-34q-21 0 -21 20z" />
<glyph unicode="&#xcd;" horiz-adv-x="516" d="M221 20v1436q0 20 21 21h34q18 0 19 -21v-1436q0 -20 -19 -20h-34q-21 0 -21 20zM229 1628l170 262q10 16 25 17h41q14 0 14 -9q0 -5 -4 -12l-180 -264q-10 -10 -21 -10h-34q-14 0 -14 7q0 4 3 9z" />
<glyph unicode="&#xce;" horiz-adv-x="516" d="M41 1630l172 256q14 20 31 21h26q18 0 29 -19l174 -258q4 -7 4 -11q0 -8 -12 -7h-31q-12 0 -26 18l-150 223l-149 -223q-14 -18 -27 -18h-31q-14 0 -13 8q0 4 3 10zM221 20v1436q0 20 21 21h34q18 0 19 -21v-1436q0 -20 -19 -20h-34q-21 0 -21 20z" />
<glyph unicode="&#xcf;" horiz-adv-x="516" d="M133 1651v215q0 16 19 16h24q16 0 17 -16v-215q0 -20 -17 -21h-24q-19 1 -19 21zM221 20v1436q0 20 21 21h34q18 0 19 -21v-1436q0 -20 -19 -20h-34q-21 0 -21 20zM324 1651v215q0 16 18 16h25q18 0 18 -16v-215q0 -20 -18 -21h-25q-18 1 -18 21z" />
<glyph unicode="&#xd0;" horiz-adv-x="1290" d="M31 737v23q0 20 18 20h172v676q0 20 19 21h417q436 0 437 -295v-887q0 -295 -437 -295h-415q-20 0 -21 20v699h-172q-18 0 -18 18zM295 66h362q362 0 363 237v868q0 240 -363 240h-362v-631h340q16 0 16 -20v-23q0 -18 -16 -18h-340v-653z" />
<glyph unicode="&#xd1;" horiz-adv-x="1312" d="M221 20v1436q0 20 21 21h28q12 0 19 -9l674 -1202l59 -116v1306q0 20 20 21h33q16 0 17 -21v-1436q0 -20 -17 -20h-33q-10 0 -18 8l-668 1196q-31 51 -65 121v-1305q0 -20 -21 -20h-28q-21 0 -21 20zM377 1669v33q0 178 137 178q55 0 107 -45l102 -90q45 -37 76 -37 q45 0 61.5 27.5t16.5 107.5v19q0 18 20 18h21q18 0 18 -20v-31q-2 -178 -135 -178q-53 0 -109 45l-100 88q-45 37 -76 37q-45 0 -61.5 -27t-16.5 -106v-21q0 -18 -18 -18h-23q-20 0 -20 20z" />
<glyph unicode="&#xd2;" horiz-adv-x="1263" d="M197 279v919q0 295 434 295q438 0 438 -295v-919q0 -295 -438 -295q-434 0 -434 295zM268 287q0 -240 362.5 -240t362.5 240v903q0 238 -362.5 237.5t-362.5 -237.5v-903zM414 1886q-5 8 -6 13q0 8 16 8h41q16 0 22 -17l170 -262q4 -6 4 -9q0 -7 -12 -7h-33q-16 0 -22 10 z" />
<glyph unicode="&#xd3;" horiz-adv-x="1263" d="M197 279v919q0 295 434 295q438 0 438 -295v-919q0 -295 -438 -295q-434 0 -434 295zM268 287q0 -240 362.5 -240t362.5 240v903q0 238 -362.5 237.5t-362.5 -237.5v-903zM588 1628l170 262q10 16 24 17h41q14 0 14 -9q0 -5 -3 -12l-181 -264q-10 -10 -22 -10h-33 q-14 0 -14 7q1 4 4 9z" />
<glyph unicode="&#xd4;" horiz-adv-x="1263" d="M197 279v919q0 295 434 295q438 0 438 -295v-919q0 -295 -438 -295q-434 0 -434 295zM268 287q0 -240 362.5 -240t362.5 240v903q0 238 -362.5 237.5t-362.5 -237.5v-903zM414 1630l172 256q16 20 30 21h29q16 0 29 -19l172 -258q5 -7 4 -11q0 -7 -12 -7h-31 q-12 0 -25 18l-151 223l-150 -223q-14 -18 -24 -18h-31q-15 0 -16 8q1 4 4 10z" />
<glyph unicode="&#xd5;" horiz-adv-x="1263" d="M197 279v919q0 295 434 295q438 0 438 -295v-919q0 -295 -438 -295q-434 0 -434 295zM268 287q0 -240 362.5 -240t362.5 240v903q0 238 -362.5 237.5t-362.5 -237.5v-903zM352 1669v33q0 178 135 178q55 0 107 -45l102 -90q47 -37 76 -37q47 0 63.5 27.5t16.5 107.5v19 q0 18 18 18h23q16 0 16 -20v-31q-2 -178 -135 -178q-53 0 -108 45l-99 88q-47 37 -75 37q-47 0 -63.5 -27t-16.5 -106v-21q0 -18 -19 -18h-22q-19 0 -19 20z" />
<glyph unicode="&#xd6;" horiz-adv-x="1263" d="M197 279v919q0 295 434 295q438 0 438 -295v-919q0 -295 -438 -295q-434 0 -434 295zM268 287q0 -240 362.5 -240t362.5 240v903q0 238 -362.5 237.5t-362.5 -237.5v-903zM506 1651v215q0 16 20 16h23q18 0 18 -16v-215q0 -20 -18 -21h-23q-20 1 -20 21zM696 1651v215 q0 16 21 16h22q18 0 19 -16v-215q0 -20 -19 -21h-22q-21 1 -21 21z" />
<glyph unicode="&#xd7;" horiz-adv-x="1181" d="M203 526q-4 6 -4 12q0 8 10 13l338 197l-195 339q-10 14 6 27l23 12q5 4 10 4q8 0 15 -12l196 -338l342 197q16 8 27 -6l10 -23q4 -6 4 -12q0 -9 -10 -16l-340 -197l194 -338q14 -18 -6 -27l-22 -12q-5 -4 -10 -4q-8 0 -17 10l-194 340l-338 -194q-20 -10 -29 8z" />
<glyph unicode="&#xd8;" horiz-adv-x="1263" d="M197 1194q0 295 434 295q199 0 305 -57l33 67q12 25 28 25h17q18 0 8 -25l-45 -94q92 -76 92 -211v-920q0 -139 -99.5 -218t-338.5 -79q-193 0 -301 58l-33 -68q-10 -25 -29 -24h-16q-20 0 -8 24l45 96q-92 72 -92 211v920zM268 281q0 -94 54 -148l583 1233 q-88 57 -274 57q-362 0 -363 -237v-905zM360 100q90 -57 271 -57q362 0 362 238v905q0 92 -51 147z" />
<glyph unicode="&#xd9;" horiz-adv-x="1290" d="M209 279v1177q0 20 18 21h37q18 0 19 -21v-1169q0 -240 362.5 -240t362.5 240v1169q0 20 18 21h37q18 0 18 -21v-1177q0 -295 -436 -295t-436 295zM434 1886q-6 8 -5 13q0 8 13 8h41q16 0 25 -17l170 -262q3 -5 3 -9q0 -7 -13 -7h-31q-16 0 -23 10z" />
<glyph unicode="&#xda;" horiz-adv-x="1290" d="M209 279v1177q0 20 18 21h37q18 0 19 -21v-1169q0 -240 362.5 -240t362.5 240v1169q0 20 18 21h37q18 0 18 -21v-1177q0 -295 -436 -295t-436 295zM610 1628l170 262q10 16 23 17h41q15 0 15 -10q0 -4 -3 -11l-180 -264q-12 -10 -23 -10h-35q-12 0 -11 7q-1 3 3 9z" />
<glyph unicode="&#xdb;" horiz-adv-x="1290" d="M209 279v1177q0 20 18 21h37q18 0 19 -21v-1169q0 -240 362.5 -240t362.5 240v1169q0 20 18 21h37q18 0 18 -21v-1177q0 -295 -436 -295t-436 295zM428 1630l172 256q14 20 29 21h28q18 0 29 -19l174 -258q4 -7 4 -11q0 -8 -12 -7h-31q-14 0 -26 18l-150 223l-149 -223 q-16 -18 -27 -18h-31q-14 0 -13 8q0 4 3 10z" />
<glyph unicode="&#xdc;" horiz-adv-x="1290" d="M209 279v1177q0 20 18 21h37q18 0 19 -21v-1169q0 -240 362.5 -240t362.5 240v1169q0 20 18 21h37q18 0 18 -21v-1177q0 -295 -436 -295t-436 295zM518 1651v215q0 16 21 16h24q16 0 17 -16v-215q0 -20 -17 -21h-24q-21 1 -21 21zM711 1651v215q0 16 18 16h25 q16 0 16 -16v-215q0 -20 -16 -21h-25q-18 1 -18 21z" />
<glyph unicode="&#xdd;" horiz-adv-x="1087" d="M51 1456q-2 5 -2 10q0 11 17 11h40q14 0 25 -21l383 -706l31 -66q0 8 30 66l388 706q10 20 22 21h35q17 0 17 -11q0 -4 -3 -10l-452 -833v-603q0 -20 -19 -20h-35q-20 0 -20 20v596zM526 1628l168 262q10 16 25 17h41q15 0 14 -9q0 -5 -4 -12l-180 -264q-10 -10 -21 -10 h-34q-13 0 -13 6q-1 4 4 10z" />
<glyph unicode="&#xde;" horiz-adv-x="1212" d="M221 20v1436q0 20 21 21h34q18 0 19 -21v-391h358q242 0 340.5 -78t98.5 -217v-240q0 -297 -439 -297h-358v-213q0 -20 -19 -20h-34q-21 0 -21 20zM295 299h358q201 0 283 63.5t82 176.5v225q0 113 -82 176.5t-283 63.5h-358v-705z" />
<glyph unicode="&#xdf;" horiz-adv-x="1259" d="M72 1020v20q0 18 16 19l123 4h27v219q0 254 384 254t384 -254v-82q0 -139 -175 -180l-135 -33q-143 -33 -143 -119v-14q0 -104 145 -158l263 -90q205 -74 204 -207v-161q0 -125 -73.5 -189.5t-271 -64.5t-269.5 63.5t-72 185.5v31q0 20 21 21h26q16 0 17 -21v-33 q0 -92 58 -142t219 -50t218.5 50t57.5 142v160q0 100 -164 154l-258 90q-186 61 -187 213v22q0 55 36 95.5t71 55.5t72 21l127 29q145 37 145 137v70q0 199 -314.5 199t-314.5 -199v-1258q0 -20 -20 -20h-33q-18 0 -18 20v981h-150q-16 1 -16 19z" />
<glyph unicode="&#xe0;" horiz-adv-x="1079" d="M154 229v117q0 111 66.5 177.5t189.5 66.5h417v235q0 92 -64.5 144.5t-229 52.5t-229 -51t-64.5 -144v-39q0 -20 -21 -20h-31q-18 0 -18 20v41q0 121 81 187.5t282.5 66.5t283.5 -66.5t82 -187.5v-809q0 -20 -20 -20h-27q-20 0 -21 20l-4 97q-170 -133 -381 -133 q-147 0 -219.5 66t-72.5 179zM223 238q0 -88 58.5 -140.5t177.5 -52.5q203 0 368 137v348h-405q-96 0 -147.5 -52t-51.5 -140v-100zM371 1518q-5 7 -6 11q0 7 16 7h41q12 0 22 -14l170 -262q4 -7 4 -11q0 -8 -12 -8h-33q-18 0 -22 12z" />
<glyph unicode="&#xe1;" horiz-adv-x="1079" d="M154 229v117q0 111 66.5 177.5t189.5 66.5h417v235q0 92 -64.5 144.5t-229 52.5t-229 -51t-64.5 -144v-39q0 -20 -21 -20h-31q-18 0 -18 20v41q0 121 81 187.5t282.5 66.5t283.5 -66.5t82 -187.5v-809q0 -20 -20 -20h-27q-20 0 -21 20l-4 97q-170 -133 -381 -133 q-147 0 -219.5 66t-72.5 179zM223 238q0 -88 58.5 -140.5t177.5 -52.5q203 0 368 137v348h-405q-96 0 -147.5 -52t-51.5 -140v-100zM461 1260l168 262q12 14 24 14h41q15 0 15 -8q0 -4 -4 -10l-179 -265q-12 -12 -22 -12h-35q-13 0 -13 7q0 5 5 12z" />
<glyph unicode="&#xe2;" horiz-adv-x="1079" d="M154 229v117q0 111 66.5 177.5t189.5 66.5h417v235q0 92 -64.5 144.5t-229 52.5t-229 -51t-64.5 -144v-39q0 -20 -21 -20h-31q-18 0 -18 20v41q0 121 81 187.5t282.5 66.5t283.5 -66.5t82 -187.5v-809q0 -20 -20 -20h-27q-20 0 -21 20l-4 97q-170 -133 -381 -133 q-147 0 -219.5 66t-72.5 179zM223 238q0 -88 58.5 -140.5t177.5 -52.5q203 0 368 137v348h-405q-96 0 -147.5 -52t-51.5 -140v-100zM322 1262l172 256q10 18 26 18h29q20 0 31 -16l174 -258q3 -7 3 -12q0 -9 -14 -9h-30q-14 0 -27 21l-149 223l-150 -223q-12 -20 -27 -21 h-30q-12 0 -12 9q0 5 4 12z" />
<glyph unicode="&#xe3;" horiz-adv-x="1079" d="M154 229v117q0 111 66.5 177.5t189.5 66.5h417v235q0 92 -64.5 144.5t-229 52.5t-229 -51t-64.5 -144v-39q0 -20 -21 -20h-31q-18 0 -18 20v41q0 121 81 187.5t282.5 66.5t283.5 -66.5t82 -187.5v-809q0 -20 -20 -20h-27q-20 0 -21 20l-4 97q-170 -133 -381 -133 q-147 0 -219.5 66t-72.5 179zM223 238q0 -88 58.5 -140.5t177.5 -52.5q203 0 368 137v348h-405q-96 0 -147.5 -52t-51.5 -140v-100zM258 1292v33q0 178 137 178q51 0 107 -47l102 -88q45 -37 76 -37q45 0 61.5 26.5t16.5 108.5v19q0 18 18 18h23q18 0 18 -20v-33 q-2 -178 -135 -178q-55 0 -109 45l-102 90q-41 37 -74 37q-45 0 -61.5 -27.5t-16.5 -107.5v-19q0 -18 -20 -18h-20q-21 0 -21 20z" />
<glyph unicode="&#xe4;" horiz-adv-x="1079" d="M154 229v117q0 111 66.5 177.5t189.5 66.5h417v235q0 92 -64.5 144.5t-229 52.5t-229 -51t-64.5 -144v-39q0 -20 -21 -20h-31q-18 0 -18 20v41q0 121 81 187.5t282.5 66.5t283.5 -66.5t82 -187.5v-809q0 -20 -20 -20h-27q-20 0 -21 20l-4 97q-170 -133 -381 -133 q-147 0 -219.5 66t-72.5 179zM223 238q0 -88 58.5 -140.5t177.5 -52.5q203 0 368 137v348h-405q-96 0 -147.5 -52t-51.5 -140v-100zM410 1288v215q0 18 20 19h25q16 0 16 -19v-215q0 -20 -16 -20h-25q-20 0 -20 20zM602 1288v215q0 18 19 19h24q16 0 17 -19v-215 q0 -20 -17 -20h-24q-19 0 -19 20z" />
<glyph unicode="&#xe5;" horiz-adv-x="1079" d="M154 229v117q0 111 66.5 177.5t189.5 66.5h417v235q0 92 -64.5 144.5t-229 52.5t-229 -51t-64.5 -144v-39q0 -20 -21 -20h-31q-18 0 -18 20v41q0 121 81 187.5t282.5 66.5t283.5 -66.5t82 -187.5v-809q0 -20 -20 -20h-27q-20 0 -21 20l-4 97q-170 -133 -381 -133 q-147 0 -219.5 66t-72.5 179zM223 238q0 -88 58.5 -140.5t177.5 -52.5q203 0 368 137v348h-405q-96 0 -147.5 -52t-51.5 -140v-100zM352 1368v29q0 156 191 155q188 0 188 -155v-29q0 -154 -188 -154q-191 0 -191 154zM403 1372q0 -111 140 -110q137 0 137 110v19 q0 113 -137 112q-139 0 -140 -112v-19z" />
<glyph unicode="&#xe6;" horiz-adv-x="1714" d="M154 229v93q0 109 67.5 177t188.5 68h417v275q0 182 -295 182q-166 0 -229 -51t-63 -144v-41q0 -20 -21 -20h-31q-18 0 -18 20v43q0 121 82 186.5t283 65.5q270 0 327 -139q70 139 336 139q203 0 286 -66.5t83 -187.5v-270q0 -18 -17 -18h-651v-312q0 -90 67.5 -139 t231.5 -49q299 0 299 199v55q0 18 21 18h30q18 0 19 -18v-57q0 -254 -369 -254q-305 0 -358 159q-184 -160 -394 -159q-147 0 -219.5 66t-72.5 179zM223 238q0 -90 58.5 -142.5t177.5 -52.5q184 0 368 162v305h-407q-94 0 -145.5 -53.5t-51.5 -137.5v-81zM899 598h598v229 q0 197 -299 197t-299 -197v-229z" />
<glyph unicode="&#xe7;" horiz-adv-x="1024" d="M172 238v591q0 121 81 187.5t282.5 66.5t284.5 -66.5t83 -187.5v-43q0 -20 -20 -20h-31q-20 0 -21 20v39q0 92 -64.5 144.5t-229 52.5t-229 -52t-64.5 -145v-583q0 -94 64.5 -145.5t229 -51.5t229 51t64.5 146v57q0 20 21 20h31q20 0 20 -20v-61q0 -123 -83 -188.5 t-283 -65.5h-17l-28 -103h88q72 0 124 -39t52 -131q0 -88 -53.5 -129t-122.5 -41h-261q-20 0 -20 21v14q0 20 20 21h254q45 0 83 25.5t38 88.5q0 115 -121 115h-122q-27 0 -23 24l37 136q-162 10 -227.5 74.5t-65.5 177.5z" />
<glyph unicode="&#xe8;" horiz-adv-x="1058" d="M172 238v591q0 121 84 187.5t286.5 66.5t285.5 -66.5t83 -187.5v-272q0 -18 -16 -18h-651v-297q0 -94 66.5 -146.5t232.5 -52.5t232.5 52t66.5 147v53q0 20 20 20h31q18 0 18 -20v-57q0 -123 -84 -188.5t-286 -65.5q-369 0 -369 254zM244 598h598v229q0 195 -299 195 t-299 -195v-229zM342 1518q-5 7 -5 11q0 7 15 7h41q12 0 25 -14l168 -262q5 -7 4 -12q0 -7 -12 -7h-33q-14 0 -23 12z" />
<glyph unicode="&#xe9;" horiz-adv-x="1058" d="M172 238v591q0 121 84 187.5t286.5 66.5t285.5 -66.5t83 -187.5v-272q0 -18 -16 -18h-651v-297q0 -94 66.5 -146.5t232.5 -52.5t232.5 52t66.5 147v53q0 20 20 20h31q18 0 18 -20v-57q0 -123 -84 -188.5t-286 -65.5q-369 0 -369 254zM244 598h598v229q0 195 -299 195 t-299 -195v-229zM483 1260l170 262q10 14 25 14h41q14 0 14 -8q0 -4 -4 -10l-180 -265q-10 -12 -21 -12h-34q-14 0 -14 8q0 5 3 11z" />
<glyph unicode="&#xea;" horiz-adv-x="1058" d="M172 238v591q0 121 84 187.5t286.5 66.5t285.5 -66.5t83 -187.5v-272q0 -18 -16 -18h-651v-297q0 -94 66.5 -146.5t232.5 -52.5t232.5 52t66.5 147v53q0 20 20 20h31q18 0 18 -20v-57q0 -123 -84 -188.5t-286 -65.5q-369 0 -369 254zM244 598h598v229q0 195 -299 195 t-299 -195v-229zM328 1262l172 256q10 18 28 18h27q20 0 31 -16l174 -258q3 -7 3 -12q0 -9 -13 -9h-31q-14 0 -27 21l-149 223l-150 -223q-10 -20 -26 -21h-31q-12 0 -12 9q0 5 4 12z" />
<glyph unicode="&#xeb;" horiz-adv-x="1058" d="M172 238v591q0 121 84 187.5t286.5 66.5t285.5 -66.5t83 -187.5v-272q0 -18 -16 -18h-651v-297q0 -94 66.5 -146.5t232.5 -52.5t232.5 52t66.5 147v53q0 20 20 20h31q18 0 18 -20v-57q0 -123 -84 -188.5t-286 -65.5q-369 0 -369 254zM244 598h598v229q0 195 -299 195 t-299 -195v-229zM414 1288v215q0 18 20 19h25q16 0 16 -19v-215q0 -20 -16 -20h-25q-20 0 -20 20zM606 1288v215q0 18 19 19h24q16 0 17 -19v-215q0 -20 -17 -20h-24q-19 0 -19 20z" />
<glyph unicode="&#xec;" d="M12 1518q-5 7 -5 11q0 7 16 7h40q12 0 23 -14l170 -262q10 -18 -8 -19h-33q-14 0 -22 12zM195 20v1027q0 18 20 18h35q18 0 18 -18v-1027q0 -20 -18 -20h-35q-20 0 -20 20z" />
<glyph unicode="&#xed;" d="M195 20v1027q0 18 20 18h35q18 0 18 -18v-1027q0 -20 -18 -20h-35q-20 0 -20 20zM201 1260l168 262q12 14 24 14h41q15 0 15 -8q0 -4 -5 -10l-180 -265q-10 -12 -20 -12h-35q-13 0 -13 7q0 5 5 12z" />
<glyph unicode="&#xee;" d="M16 1262l172 256q12 18 29 18h29q18 0 30 -16l173 -258q4 -7 4 -12q0 -9 -15 -9h-30q-12 0 -25 21l-152 223l-149 -223q-10 -20 -25 -21h-30q-14 0 -14 9q0 5 3 12zM195 20v1027q0 18 20 18h35q18 0 18 -18v-1027q0 -20 -18 -20h-35q-20 0 -20 20z" />
<glyph unicode="&#xef;" d="M106 1288v215q0 18 19 19h25q18 0 18 -19v-215q0 -20 -18 -20h-25q-19 0 -19 20zM195 20v1027q0 18 20 18h35q18 0 18 -18v-1027q0 -20 -18 -20h-35q-20 0 -20 20zM297 1288v215q0 18 20 19h23q18 0 18 -19v-215q0 -20 -18 -20h-23q-20 0 -20 20z" />
<glyph unicode="&#xf0;" horiz-adv-x="1187" d="M172 238v591q0 117 72.5 185.5t220.5 68.5q209 0 383 -135v326q0 55 -25 96l-202 -84q-14 -10 -23 6l-8 11q-6 16 10 26l199 82q-70 70 -250 70h-184q-18 0 -19 16v21q0 18 19 18h184q233 0 313 -92l121 51q18 8 25 -6l6 -14q2 -4 1 -9q0 -10 -11 -14l-111 -49 q25 -53 25 -121v-1044q0 -254 -373 -254t-373 254zM244 242q0 -199 301 -199q303 0 303 199v639q-166 139 -369 139q-117 0 -176 -54.5t-59 -142.5v-581z" />
<glyph unicode="&#xf1;" horiz-adv-x="1128" d="M197 20v1027q0 18 18 18h31q16 0 16 -18l4 -101q166 137 385 137q147 0 221 -67.5t74 -181.5v-814q0 -20 -18 -20h-35q-18 0 -19 20v803q0 88 -58 141.5t-177 53.5q-205 0 -371 -137v-861q0 -20 -18 -20h-35q-18 0 -18 20zM279 1294v33q0 178 135 178q51 0 106 -47 l103 -88q45 -37 75 -37q47 0 62.5 26.5t15.5 108.5v19q0 18 21 18h22q16 0 17 -20v-33q-2 -178 -136 -178q-53 0 -108 45l-100 90q-43 37 -74 37q-47 0 -63.5 -27.5t-16.5 -107.5v-19q0 -18 -19 -18h-22q-18 0 -18 20z" />
<glyph unicode="&#xf2;" horiz-adv-x="1091" d="M172 238v591q0 254 373 254q375 0 375 -254v-591q0 -254 -375 -254q-373 0 -373 254zM244 242q0 -197 301 -197q303 0 303 197v583q0 197 -303 197q-301 0 -301 -197v-583zM338 1518q-5 7 -5 11q0 7 15 7h41q12 0 23 -14l170 -262q4 -7 3 -11q0 -8 -12 -8h-32 q-14 0 -23 12z" />
<glyph unicode="&#xf3;" horiz-adv-x="1091" d="M172 238v591q0 254 373 254q375 0 375 -254v-591q0 -254 -375 -254q-373 0 -373 254zM244 242q0 -197 301 -197q303 0 303 197v583q0 197 -303 197q-301 0 -301 -197v-583zM508 1260l170 262q10 14 22 14h43q14 0 14 -8q0 -4 -3 -10l-181 -265q-10 -12 -22 -12h-35 q-12 0 -12 8q0 4 4 11z" />
<glyph unicode="&#xf4;" horiz-adv-x="1091" d="M172 238v591q0 254 373 254q375 0 375 -254v-591q0 -254 -375 -254q-373 0 -373 254zM244 242q0 -197 301 -197q303 0 303 197v583q0 197 -303 197q-301 0 -301 -197v-583zM330 1262l172 256q10 18 28 18h27q20 0 31 -16l174 -258q3 -7 3 -12q0 -9 -13 -9h-31 q-12 0 -27 21l-149 223l-150 -223q-10 -20 -26 -21h-31q-12 0 -12 9q0 5 4 12z" />
<glyph unicode="&#xf5;" horiz-adv-x="1091" d="M172 238v591q0 254 373 254q375 0 375 -254v-591q0 -254 -375 -254q-373 0 -373 254zM244 242q0 -197 301 -197q303 0 303 197v583q0 197 -303 197q-301 0 -301 -197v-583zM266 1292v33q0 178 137 178q53 0 107 -47l102 -88q45 -37 76 -37q45 0 61.5 26.5t16.5 108.5v19 q0 18 20 18h21q18 0 18 -20v-33q-2 -178 -135 -178q-53 0 -108 45l-103 90q-41 37 -73 37q-45 0 -61.5 -27.5t-16.5 -107.5v-19q0 -18 -19 -18h-22q-21 0 -21 20z" />
<glyph unicode="&#xf6;" horiz-adv-x="1091" d="M172 238v591q0 254 373 254q375 0 375 -254v-591q0 -254 -375 -254q-373 0 -373 254zM244 242q0 -197 301 -197q303 0 303 197v583q0 197 -303 197q-301 0 -301 -197v-583zM420 1288v215q0 18 18 19h25q16 0 16 -19v-215q0 -20 -16 -20h-25q-18 0 -18 20zM610 1288v215 q0 18 19 19h24q18 0 19 -19v-215q0 -20 -19 -20h-24q-19 0 -19 20z" />
<glyph unicode="&#xf7;" horiz-adv-x="1286" d="M197 711v24q0 20 16 21h858q18 0 19 -19v-26q0 -20 -19 -21h-856q-18 1 -18 21zM606 293v166q0 18 19 18h34q20 0 21 -18v-166q0 -18 -21 -19h-34q-19 1 -19 19zM606 991v166q0 20 19 21h34q20 0 21 -21v-166q0 -18 -21 -18h-34q-19 0 -19 18z" />
<glyph unicode="&#xf8;" horiz-adv-x="1091" d="M172 238v591q0 254 373 254q168 0 258 -47l37 64q12 25 30 24h21q18 0 4 -24l-53 -90q78 -61 78 -181v-591q0 -254 -375 -254q-172 0 -260 49l-35 -62q-12 -23 -29 -22h-16q-25 0 -10 22l51 88q-74 62 -74 179zM244 242q0 -72 39 -119l485 854q-78 45 -223 45 q-301 0 -301 -197v-583zM319 92q74 -47 226 -47q303 0 303 197v583q0 76 -43 121z" />
<glyph unicode="&#xf9;" horiz-adv-x="1114" d="M184 231v816q0 18 19 18h35q18 0 18 -18v-801q0 -92 57.5 -145.5t178.5 -53.5q201 0 356 137v863q0 18 18 18h35q18 0 19 -18v-1027q0 -20 -19 -20h-29q-18 0 -18 20l-6 97q-156 -133 -371 -133q-145 0 -219 66t-74 181zM371 1518q-5 7 -6 11q0 7 16 7h41q12 0 22 -14 l170 -262q4 -7 4 -11q0 -8 -12 -8h-33q-18 0 -22 12z" />
<glyph unicode="&#xfa;" horiz-adv-x="1114" d="M184 231v816q0 18 19 18h35q18 0 18 -18v-801q0 -92 57.5 -145.5t178.5 -53.5q201 0 356 137v863q0 18 18 18h35q18 0 19 -18v-1027q0 -20 -19 -20h-29q-18 0 -18 20l-6 97q-156 -133 -371 -133q-145 0 -219 66t-74 181zM506 1260l170 262q10 14 22 14h41q15 0 16 -9 q0 -4 -3 -9l-181 -265q-12 -12 -22 -12h-35q-12 0 -12 8q0 4 4 11z" />
<glyph unicode="&#xfb;" horiz-adv-x="1114" d="M184 231v816q0 18 19 18h35q18 0 18 -18v-801q0 -92 57.5 -145.5t178.5 -53.5q201 0 356 137v863q0 18 18 18h35q18 0 19 -18v-1027q0 -20 -19 -20h-29q-18 0 -18 20l-6 97q-156 -133 -371 -133q-145 0 -219 66t-74 181zM342 1262l172 256q12 18 29 18h28q18 0 31 -16 l172 -258q4 -7 4 -12q0 -9 -14 -9h-31q-12 0 -24 21l-152 223l-149 -223q-10 -20 -25 -21h-31q-14 0 -13 9q0 5 3 12z" />
<glyph unicode="&#xfc;" horiz-adv-x="1114" d="M184 231v816q0 18 19 18h35q18 0 18 -18v-801q0 -92 57.5 -145.5t178.5 -53.5q201 0 356 137v863q0 18 18 18h35q18 0 19 -18v-1027q0 -20 -19 -20h-29q-18 0 -18 20l-6 97q-156 -133 -371 -133q-145 0 -219 66t-74 181zM434 1288v215q0 18 21 19h22q18 0 19 -19v-215 q0 -20 -19 -20h-22q-21 0 -21 20zM625 1288v215q0 18 20 19h23q18 0 18 -19v-215q0 -20 -18 -20h-23q-20 0 -20 20z" />
<glyph unicode="&#xfd;" horiz-adv-x="884" d="M49 1047q-2 5 -2 8q0 10 16 10h37q16 0 23 -18l295 -852l26 -95q14 59 27 95l293 852q6 18 22 18h37q15 0 15 -9q0 -4 -2 -9l-508 -1483q-8 -20 -23 -21h-29q-23 0 -14 21l146 438zM412 1260l170 262q10 14 24 14h41q14 0 14 -8q0 -4 -4 -10l-180 -265q-10 -12 -20 -12 h-35q-14 0 -14 8q1 5 4 11z" />
<glyph unicode="&#xfe;" horiz-adv-x="1116" d="M195 -436v1933q0 20 20 21h35q18 0 18 -21v-549q170 135 383 135q147 0 221 -68.5t74 -185.5v-591q0 -119 -73.5 -186.5t-221.5 -67.5q-219 0 -383 133v-553q0 -20 -18 -21h-35q-20 1 -20 21zM268 184q160 -137 371 -137q119 0 177 53.5t58 143.5v579q0 88 -59 142.5 t-176 54.5q-209 0 -371 -139v-697z" />
<glyph unicode="&#xff;" horiz-adv-x="884" d="M49 1047q-2 5 -2 8q0 10 16 10h37q16 0 23 -18l295 -852l26 -95q14 59 27 95l293 852q6 18 22 18h37q15 0 15 -9q0 -4 -2 -9l-508 -1483q-8 -20 -23 -21h-29q-23 0 -14 21l146 438zM326 1288v215q0 18 20 19h23q18 0 18 -19v-215q0 -20 -18 -20h-23q-20 0 -20 20z M516 1288v215q0 18 21 19h22q18 0 19 -19v-215q0 -20 -19 -20h-22q-21 0 -21 20z" />
<glyph unicode="&#x100;" horiz-adv-x="1107" d="M63 20l447 1436q6 20 27 21h36q16 0 25 -21l449 -1436q1 -5 1 -8q0 -12 -16 -12h-39q-14 0 -20 20l-146 455h-551l-141 -455q-6 -20 -24 -20h-33q-16 0 -16 12q0 3 1 8zM250 1726v21q0 18 18 18h572q20 0 20 -18v-21q0 -20 -20 -20h-572q-18 0 -18 20zM295 539h514 l-205 661q-45 137 -53 189q0 -2 -7 -37t-18.5 -78t-19.5 -68z" />
<glyph unicode="&#x101;" horiz-adv-x="1079" d="M154 229v117q0 111 66.5 177.5t189.5 66.5h417v235q0 92 -64.5 144.5t-229 52.5t-229 -51t-64.5 -144v-39q0 -20 -21 -20h-31q-18 0 -18 20v41q0 121 81 187.5t282.5 66.5t283.5 -66.5t82 -187.5v-809q0 -20 -20 -20h-27q-20 0 -21 20l-4 97q-170 -133 -381 -133 q-147 0 -219.5 66t-72.5 179zM223 238q0 -88 58.5 -140.5t177.5 -52.5q203 0 368 137v348h-405q-96 0 -147.5 -52t-51.5 -140v-100zM238 1348v22q0 18 16 19h573q18 0 19 -19v-22q0 -18 -19 -19h-573q-16 1 -16 19z" />
<glyph unicode="&#x102;" horiz-adv-x="1107" d="M63 20l447 1436q6 20 27 21h36q16 0 25 -21l449 -1436q1 -5 1 -8q0 -12 -16 -12h-39q-14 0 -20 20l-146 455h-551l-141 -455q-6 -20 -24 -20h-33q-16 0 -16 12q0 3 1 8zM295 539h514l-205 661q-45 137 -53 189q0 -2 -7 -37t-18.5 -78t-19.5 -68zM319 1851v37q0 18 19 19 h24q18 0 19 -19v-39q0 -84 34 -129t138 -45t139 45t35 129v39q0 18 18 19h23q18 0 18 -19v-37q0 -113 -50 -171t-185 -58q-131 0 -181.5 58t-50.5 171z" />
<glyph unicode="&#x103;" horiz-adv-x="1079" d="M154 229v117q0 111 66.5 177.5t189.5 66.5h417v235q0 92 -64.5 144.5t-229 52.5t-229 -51t-64.5 -144v-39q0 -20 -21 -20h-31q-18 0 -18 20v41q0 121 81 187.5t282.5 66.5t283.5 -66.5t82 -187.5v-809q0 -20 -20 -20h-27q-20 0 -21 20l-4 97q-170 -133 -381 -133 q-147 0 -219.5 66t-72.5 179zM223 238q0 -88 58.5 -140.5t177.5 -52.5q203 0 368 137v348h-405q-96 0 -147.5 -52t-51.5 -140v-100zM305 1444v37q0 18 21 18h22q18 0 19 -18v-37q0 -88 34.5 -132t139 -44t139.5 44t35 132v37q0 18 16 18h25q16 0 16 -18v-37q0 -111 -49 -169 t-184.5 -58t-184.5 57t-49 170z" />
<glyph unicode="&#x104;" horiz-adv-x="1107" d="M63 20l447 1436q6 20 27 21h36q18 0 27 -21l447 -1436q6 -20 -13 -20h-14q-80 -20 -119 -66.5t-39 -93.5q0 -96 135 -96h43q18 0 19 -20v-17q0 -20 -21 -20h-53q-184 0 -184 145q0 53 40 109.5t126 93.5l-140 440h-551l-141 -455q-6 -20 -24 -20h-33q-16 0 -16 12 q0 3 1 8zM295 539h514l-205 661q-47 139 -53 191q-16 -90 -45 -185z" />
<glyph unicode="&#x105;" horiz-adv-x="1079" d="M154 229v117q0 111 66.5 177.5t189.5 66.5h417v235q0 92 -64.5 144.5t-229 52.5t-229 -51t-64.5 -144v-39q0 -20 -21 -20h-31q-18 0 -18 20v41q0 121 81 187.5t282.5 66.5t283.5 -66.5t82 -187.5v-809q0 -20 -20 -20h-5q-78 -20 -116.5 -66.5t-38.5 -93.5q0 -96 133 -96 h37q18 0 18 -20v-17q0 -20 -22 -20h-47q-182 0 -183 145q0 66 51.5 119t124.5 84l-4 82q-170 -133 -381 -133q-147 0 -219.5 66t-72.5 179zM223 238q0 -88 58.5 -140.5t177.5 -52.5q203 0 368 137v348h-405q-96 0 -147.5 -52t-51.5 -140v-100z" />
<glyph unicode="&#x106;" horiz-adv-x="1175" d="M197 279v919q0 139 95 217t331 78q240 0 335 -78t95 -217v-115q0 -20 -19 -20h-35q-18 0 -18 20v107q0 115 -79 176t-276.5 61t-277.5 -61t-80 -176v-903q0 -115 80 -177.5t277.5 -62.5t276.5 62.5t79 177.5v133q0 16 18 16h35q18 0 19 -16v-141q0 -139 -95.5 -217 t-334.5 -78q-236 0 -331 78t-95 217zM557 1628l170 262q10 16 25 17h41q15 0 14 -9q0 -5 -4 -12l-180 -264q-10 -10 -21 -10h-35q-14 0 -13 7q0 4 3 9z" />
<glyph unicode="&#x107;" horiz-adv-x="1024" d="M172 238v591q0 121 81 187.5t282.5 66.5t284.5 -66.5t83 -187.5v-43q0 -20 -20 -20h-31q-20 0 -21 20v39q0 92 -64.5 144.5t-229 52.5t-229 -52t-64.5 -145v-583q0 -94 64.5 -145.5t229 -51.5t229 51t64.5 146v57q0 20 21 20h31q20 0 20 -20v-61q0 -123 -83 -188.5 t-284.5 -65.5t-282.5 65.5t-81 188.5zM494 1260l168 262q12 14 24 14h41q15 0 15 -8q0 -4 -5 -10l-180 -265q-10 -12 -20 -12h-35q-13 0 -13 7q0 5 5 12z" />
<glyph unicode="&#x108;" horiz-adv-x="1175" d="M197 279v919q0 139 95 217t331 78q240 0 335 -78t95 -217v-115q0 -20 -19 -20h-35q-18 0 -18 20v107q0 115 -79 176t-276.5 61t-277.5 -61t-80 -176v-903q0 -115 80 -177.5t277.5 -62.5t276.5 62.5t79 177.5v133q0 16 18 16h35q18 0 19 -16v-141q0 -139 -95.5 -217 t-334.5 -78q-236 0 -331 78t-95 217zM371 1630l172 256q14 20 30 21h29q16 0 27 -19l174 -258q5 -7 4 -11q0 -7 -12 -7h-31q-12 0 -27 18l-149 223l-150 -223q-14 -18 -26 -18h-29q-15 0 -16 8q1 4 4 10z" />
<glyph unicode="&#x109;" horiz-adv-x="1024" d="M172 238v591q0 121 81 187.5t282.5 66.5t284.5 -66.5t83 -187.5v-43q0 -20 -20 -20h-31q-20 0 -21 20v39q0 92 -64.5 144.5t-229 52.5t-229 -52t-64.5 -145v-583q0 -94 64.5 -145.5t229 -51.5t229 51t64.5 146v57q0 20 21 20h31q20 0 20 -20v-61q0 -123 -83 -188.5 t-284.5 -65.5t-282.5 65.5t-81 188.5zM297 1262l172 256q10 18 29 18h28q18 0 29 -16l174 -258q3 -7 4 -12q0 -9 -14 -9h-31q-12 0 -26 21l-150 223l-150 -223q-10 -20 -26 -21h-31q-12 0 -12 9q0 5 4 12z" />
<glyph unicode="&#x10a;" horiz-adv-x="1175" d="M197 279v919q0 139 95 217t331 78q240 0 335 -78t95 -217v-115q0 -20 -19 -20h-35q-18 0 -18 20v107q0 115 -79 176t-276.5 61t-277.5 -61t-80 -176v-903q0 -115 80 -177.5t277.5 -62.5t276.5 62.5t79 177.5v133q0 16 18 16h35q18 0 19 -16v-141q0 -139 -95.5 -217 t-334.5 -78q-236 0 -331 78t-95 217zM551 1655v164q0 20 20 20h35q18 0 19 -20v-164q0 -20 -19 -21h-35q-20 1 -20 21z" />
<glyph unicode="&#x10b;" horiz-adv-x="1024" d="M172 238v591q0 121 81 187.5t282.5 66.5t284.5 -66.5t83 -187.5v-43q0 -20 -20 -20h-31q-20 0 -21 20v39q0 92 -64.5 144.5t-229 52.5t-229 -52t-64.5 -145v-583q0 -94 64.5 -145.5t229 -51.5t229 51t64.5 146v57q0 20 21 20h31q20 0 20 -20v-61q0 -123 -83 -188.5 t-284.5 -65.5t-282.5 65.5t-81 188.5zM473 1300v162q0 20 21 21h34q18 0 19 -21v-162q0 -20 -19 -20h-34q-21 0 -21 20z" />
<glyph unicode="&#x10c;" horiz-adv-x="1175" d="M197 279v919q0 139 95 217t331 78q240 0 335 -78t95 -217v-115q0 -20 -19 -20h-35q-18 0 -18 20v107q0 115 -79 176t-276.5 61t-277.5 -61t-80 -176v-903q0 -115 80 -177.5t277.5 -62.5t276.5 62.5t79 177.5v133q0 16 18 16h35q18 0 19 -16v-141q0 -139 -95.5 -217 t-334.5 -78q-236 0 -331 78t-95 217zM371 1886q-3 6 -4 11q0 10 16 10h29q12 0 26 -21l150 -223l149 223q14 20 27 21h31q13 0 12 -8q0 -5 -4 -13l-174 -258q-10 -16 -27 -16h-29q-16 0 -30 18z" />
<glyph unicode="&#x10d;" horiz-adv-x="1024" d="M172 238v591q0 121 81 187.5t282.5 66.5t284.5 -66.5t83 -187.5v-43q0 -20 -20 -20h-31q-20 0 -21 20v39q0 92 -64.5 144.5t-229 52.5t-229 -52t-64.5 -145v-583q0 -94 64.5 -145.5t229 -51.5t229 51t64.5 146v57q0 20 21 20h31q20 0 20 -20v-61q0 -123 -83 -188.5 t-284.5 -65.5t-282.5 65.5t-81 188.5zM297 1518q-4 7 -4 10q0 8 12 8h31q16 0 26 -18l150 -224l150 224q14 18 26 18h31q14 0 14 -8q0 -4 -4 -10l-174 -258q-10 -18 -29 -19h-28q-18 0 -29 21z" />
<glyph unicode="&#x10e;" horiz-adv-x="1290" d="M221 20v1436q0 20 19 21h417q436 0 437 -295v-887q0 -295 -437 -295h-415q-21 0 -21 20zM295 66h362q362 0 363 237v868q0 240 -363 240h-362v-1345zM422 1886q-4 7 -4 12q0 9 14 9h31q10 0 24 -21l152 -223l149 223q12 20 27 21h29q14 0 13 -9q0 -5 -3 -12l-174 -258 q-12 -16 -29 -16h-28q-14 0 -31 18z" />
<glyph unicode="&#x10f;" horiz-adv-x="1167" d="M172 238v591q0 117 72.5 185.5t220.5 68.5q209 0 383 -135v549q0 20 18 21h35q18 0 19 -21v-1477q0 -20 -19 -20h-29q-18 0 -18 20l-6 97q-168 -133 -383 -133q-147 0 -220 67.5t-73 186.5zM244 246q0 -90 58 -144.5t175 -54.5q197 0 371 137v695q-166 139 -371 139 q-117 0 -175 -54.5t-58 -140.5v-577zM1047 1239q4 10 18 39t17 37l12 30q8 22 11 34t5 33.5t2 43.5v57q0 18 18 19h27q20 0 21 -19v-59q0 -106 -78 -235q-8 -14 -17 -14q-3 0 -6 1l-24 8q-9 5 -9 14q0 5 3 11z" />
<glyph unicode="&#x110;" horiz-adv-x="1290" d="M31 737v23q0 20 18 20h172v676q0 20 19 21h417q436 0 437 -295v-887q0 -295 -437 -295h-415q-20 0 -21 20v699h-172q-18 0 -18 18zM295 66h362q362 0 363 237v868q0 240 -363 240h-362v-631h340q16 0 16 -20v-23q0 -18 -16 -18h-340v-653z" />
<glyph unicode="&#x111;" horiz-adv-x="1116" d="M172 238v591q0 117 72.5 185.5t220.5 68.5q209 0 383 -135v289h-404q-18 0 -18 18v19q0 20 18 20h404v203q0 20 18 21h35q18 0 19 -21v-203h102q20 0 20 -20v-19q0 -18 -20 -18h-102v-1217q0 -20 -19 -20h-29q-18 0 -18 20l-6 97q-168 -133 -383 -133q-147 0 -220 67.5 t-73 186.5zM244 246q0 -90 58 -144.5t175 -54.5q197 0 371 137v695q-166 139 -371 139q-117 0 -175 -54.5t-58 -140.5v-577z" />
<glyph unicode="&#x112;" horiz-adv-x="1150" d="M221 20v1436q0 20 21 21h739q20 0 20 -21v-24q0 -20 -20 -21h-686v-600h645q20 0 21 -18v-27q0 -18 -21 -18h-645v-682h715q18 0 18 -21v-25q0 -20 -18 -20h-770q-19 0 -19 20zM295 1726v21q0 18 20 18h570q20 0 20 -18v-21q0 -20 -20 -20h-570q-20 0 -20 20z" />
<glyph unicode="&#x113;" horiz-adv-x="1058" d="M172 238v591q0 121 84 187.5t286.5 66.5t285.5 -66.5t83 -187.5v-272q0 -18 -16 -18h-651v-297q0 -94 66.5 -146.5t232.5 -52.5t232.5 52t66.5 147v53q0 20 20 20h31q18 0 18 -20v-57q0 -123 -84 -188.5t-286 -65.5q-369 0 -369 254zM225 1348v22q0 18 19 19h573 q18 0 19 -19v-22q0 -18 -19 -19h-573q-19 1 -19 19zM244 598h598v229q0 195 -299 195t-299 -195v-229z" />
<glyph unicode="&#x114;" horiz-adv-x="1150" d="M221 20v1436q0 20 21 21h739q20 0 20 -21v-24q0 -20 -20 -21h-686v-600h645q20 0 21 -18v-27q0 -18 -21 -18h-645v-682h715q18 0 18 -21v-25q0 -20 -18 -20h-770q-19 0 -19 20zM375 1851v37q0 18 20 19h25q16 0 16 -19v-39q0 -84 35 -129t139.5 -45t139 45t34.5 129v39 q0 18 17 19h24q16 0 17 -19v-37q0 -113 -49.5 -171t-184.5 -58q-133 0 -183 58t-50 171z" />
<glyph unicode="&#x115;" horiz-adv-x="1058" d="M172 238v591q0 121 84 187.5t286.5 66.5t285.5 -66.5t83 -187.5v-272q0 -18 -16 -18h-651v-297q0 -94 66.5 -146.5t232.5 -52.5t232.5 52t66.5 147v53q0 20 20 20h31q18 0 18 -20v-57q0 -123 -84 -188.5t-286 -65.5q-369 0 -369 254zM244 598h598v229q0 195 -299 195 t-299 -195v-229zM295 1444v37q0 18 20 18h21q20 0 20 -18v-37q0 -88 35 -132t139.5 -44t138 44t33.5 132v37q0 18 19 18h24q16 0 17 -18v-37q0 -111 -50 -169t-184.5 -58t-183.5 57t-49 170z" />
<glyph unicode="&#x116;" horiz-adv-x="1150" d="M221 20v1436q0 20 21 21h739q20 0 20 -21v-24q0 -20 -20 -21h-686v-600h645q20 0 21 -18v-27q0 -18 -21 -18h-645v-682h715q18 0 18 -21v-25q0 -20 -18 -20h-770q-19 0 -19 20zM571 1655v164q0 20 19 20h35q20 0 20 -20v-164q0 -20 -20 -21h-35q-19 1 -19 21z" />
<glyph unicode="&#x117;" horiz-adv-x="1058" d="M172 238v591q0 121 84 187.5t286.5 66.5t285.5 -66.5t83 -187.5v-272q0 -18 -16 -18h-651v-297q0 -94 66.5 -146.5t232.5 -52.5t232.5 52t66.5 147v53q0 20 20 20h31q18 0 18 -20v-57q0 -123 -84 -188.5t-286 -65.5q-369 0 -369 254zM244 598h598v229q0 195 -299 195 t-299 -195v-229z" />
<glyph unicode="&#x118;" horiz-adv-x="1150" d="M221 20v1436q0 20 21 21h739q20 0 20 -21v-24q0 -20 -20 -21h-686v-600h645q20 0 21 -18v-27q0 -18 -21 -18h-645v-682h715q18 0 18 -21v-25q0 -20 -18 -20h-49q-88 0 -134.5 -46t-46.5 -106q0 -104 133 -104h62q18 0 18 -20v-17q0 -20 -22 -20h-70q-84 0 -133 40 t-49 115q0 96 90 158h-569q-19 0 -19 20z" />
<glyph unicode="&#x119;" horiz-adv-x="1058" d="M172 238v591q0 121 84 187.5t286.5 66.5t285.5 -66.5t83 -187.5v-272q0 -18 -16 -18h-651v-297q0 -94 66.5 -146.5t232.5 -52.5t232.5 52t66.5 147v53q0 20 20 20h31q18 0 18 -20v-57q0 -119 -75 -185q-4 -2 -44 -31.5t-51.5 -43t-29 -47t-17.5 -72.5q0 -115 137 -115h64 q16 0 16 -20v-17q0 -20 -18 -20h-74q-88 0 -136 42t-48 119q0 84 57 150q-72 -14 -151 -14q-369 0 -369 254zM244 598h598v229q0 195 -299 195t-299 -195v-229z" />
<glyph unicode="&#x11a;" horiz-adv-x="1150" d="M221 20v1436q0 20 21 21h739q20 0 20 -21v-24q0 -20 -20 -21h-686v-600h645q20 0 21 -18v-27q0 -18 -21 -18h-645v-682h715q18 0 18 -21v-25q0 -20 -18 -20h-770q-19 0 -19 20zM360 1886q-3 7 -3 12q0 9 14 9h30q10 0 27 -21l150 -223l149 223q12 20 27 21h30q12 0 12 -9 q0 -5 -3 -12l-175 -258q-10 -16 -28 -16h-27q-16 0 -31 18z" />
<glyph unicode="&#x11b;" horiz-adv-x="1058" d="M172 238v591q0 121 84 187.5t286.5 66.5t285.5 -66.5t83 -187.5v-272q0 -18 -16 -18h-651v-297q0 -94 66.5 -146.5t232.5 -52.5t232.5 52t66.5 147v53q0 20 20 20h31q18 0 18 -20v-57q0 -123 -84 -188.5t-286 -65.5q-369 0 -369 254zM244 598h598v229q0 195 -299 195 t-299 -195v-229zM315 1518q-5 7 -4 11q0 7 13 7h30q14 0 27 -18l149 -224l150 224q12 18 25 18h30q15 0 16 -9q0 -4 -3 -9l-175 -258q-10 -18 -30 -19h-29q-16 0 -29 21z" />
<glyph unicode="&#x11c;" horiz-adv-x="1212" d="M197 279v919q0 139 95 217t331 78q240 0 335 -78t95 -217v-113q0 -20 -19 -20h-35q-18 0 -18 20v105q0 115 -79 176t-276.5 61t-277.5 -61t-80 -176v-903q0 -115 80 -177.5t276.5 -62.5t276.5 61.5t80 174.5v325h-336q-18 0 -18 19v26q0 20 18 21h389q18 0 19 -21v-374 q0 -139 -95.5 -217t-334.5 -78q-236 0 -331 78t-95 217zM389 1630l170 256q16 20 31 21h28q18 0 29 -19l174 -258q3 -6 4 -10q0 -8 -14 -8h-29q-14 0 -26 18l-150 223l-149 -223q-16 -18 -27 -18h-31q-15 0 -14 7q0 4 4 11z" />
<glyph unicode="&#x11d;" horiz-adv-x="1116" d="M172 238v591q0 117 72.5 185.5t220.5 68.5q219 0 383 -137l6 101q0 18 18 18h29q18 0 19 -18v-1248q0 -121 -84 -187.5t-287 -66.5h-289q-18 0 -18 19v26q0 18 18 19h289q166 0 232.5 51t66.5 145v310q-172 -131 -383 -131q-147 0 -220 67.5t-73 186.5zM244 246 q0 -90 58 -144.5t175 -54.5q197 0 371 137v695q-166 139 -371 139q-117 0 -175 -54.5t-58 -140.5v-577zM342 1262l172 256q12 18 29 18h28q18 0 31 -16l172 -258q4 -7 4 -12q0 -9 -14 -9h-31q-12 0 -24 21l-152 223l-149 -223q-10 -20 -25 -21h-31q-14 0 -13 9q0 5 3 12z " />
<glyph unicode="&#x11e;" horiz-adv-x="1212" d="M197 279v919q0 139 95 217t331 78q240 0 335 -78t95 -217v-113q0 -20 -19 -20h-35q-18 0 -18 20v105q0 115 -79 176t-276.5 61t-277.5 -61t-80 -176v-903q0 -115 80 -177.5t276.5 -62.5t276.5 61.5t80 174.5v325h-336q-18 0 -18 19v26q0 20 18 21h389q18 0 19 -21v-374 q0 -139 -95.5 -217t-334.5 -78q-236 0 -331 78t-95 217zM371 1851v37q0 18 20 19h23q18 0 18 -19v-39q0 -84 35 -129t139.5 -45t139 45t34.5 129v39q0 18 17 19h24q16 0 17 -19v-37q0 -113 -50.5 -171t-183.5 -58t-183 58t-50 171z" />
<glyph unicode="&#x11f;" horiz-adv-x="1116" d="M172 238v591q0 117 72.5 185.5t220.5 68.5q219 0 383 -137l6 101q0 18 18 18h29q18 0 19 -18v-1248q0 -121 -84 -187.5t-287 -66.5h-289q-18 0 -18 19v26q0 18 18 19h289q166 0 232.5 51t66.5 145v310q-172 -131 -383 -131q-147 0 -220 67.5t-73 186.5zM244 246 q0 -90 58 -144.5t175 -54.5q197 0 371 137v695q-166 139 -371 139q-117 0 -175 -54.5t-58 -140.5v-577zM324 1444v37q0 18 18 18h23q20 0 20 -18v-37q0 -88 35 -132t138.5 -44t138 44t34.5 132v37q0 18 19 18h22q18 0 19 -18v-37q0 -111 -50.5 -169t-184.5 -58t-183 57 t-49 170z" />
<glyph unicode="&#x120;" horiz-adv-x="1212" d="M197 270v922q0 139 95 217t331 78q240 0 335 -78t95 -217v-113q0 -20 -19 -20h-35q-18 0 -18 20v105q0 115 -79 176t-276.5 61t-277.5 -61.5t-80 -175.5v-903q0 -115 80 -177.5t276.5 -62.5t276.5 61.5t80 173.5v326h-336q-18 0 -18 19v26q0 18 18 19h389q18 0 19 -19 v-377q0 -137 -95.5 -216t-334.5 -79q-236 0 -331 79t-95 216zM569 1649v163q0 20 19 21h35q20 0 20 -21v-163q0 -20 -20 -21h-35q-19 1 -19 21z" />
<glyph unicode="&#x121;" horiz-adv-x="1116" d="M172 238v591q0 117 72.5 185.5t220.5 68.5q219 0 383 -137l6 101q0 18 18 18h29q18 0 19 -18v-1248q0 -121 -84 -187.5t-287 -66.5h-289q-18 0 -18 19v26q0 18 18 19h289q166 0 232.5 51t66.5 145v310q-172 -131 -383 -131q-147 0 -220 67.5t-73 186.5zM244 246 q0 -90 58 -144.5t175 -54.5q197 0 371 137v695q-166 139 -371 139q-117 0 -175 -54.5t-58 -140.5v-577zM498 1300v162q0 20 18 21h35q20 0 20 -21v-162q0 -20 -20 -20h-35q-18 0 -18 20z" />
<glyph unicode="&#x122;" horiz-adv-x="1212" d="M197 279v919q0 139 95 217t331 78q240 0 335 -78t95 -217v-113q0 -20 -19 -20h-35q-18 0 -18 20v105q0 115 -79 176t-276.5 61t-277.5 -61t-80 -176v-903q0 -115 80 -177.5t276.5 -62.5t276.5 61.5t80 174.5v325h-336q-18 0 -18 19v26q0 20 18 21h389q18 0 19 -21v-374 q0 -139 -95.5 -217t-334.5 -78q-236 0 -331 78t-95 217zM528 -401q4 8 17.5 37.5t17.5 37t12.5 29t10.5 34.5t4 33.5t2 45.5v55q0 20 20 20h27q18 0 18 -20v-57q0 -106 -75 -238q-7 -12 -17 -12q-4 0 -8 2l-22 6q-10 5 -11 14q0 6 4 13z" />
<glyph unicode="&#x123;" horiz-adv-x="1116" d="M172 238v591q0 117 72.5 185.5t220.5 68.5q219 0 383 -137l6 101q0 18 18 18h29q18 0 19 -18v-1248q0 -121 -84 -187.5t-287 -66.5h-289q-18 0 -18 19v26q0 18 18 19h289q166 0 232.5 51t66.5 145v310q-172 -131 -383 -131q-147 0 -220 67.5t-73 186.5zM244 246 q0 -90 58 -144.5t175 -54.5q197 0 371 137v695q-166 139 -371 139q-117 0 -175 -54.5t-58 -140.5v-577zM496 1266v59q0 106 75 236q7 13 16 12q4 0 7 -2l24 -6q10 -5 11 -14q0 -5 -4 -11q-4 -10 -18.5 -38.5t-17.5 -37.5l-11 -29q-8 -22 -11 -35l-5 -34q-3 -20 -3 -43v-57 q0 -20 -18 -21h-27q-18 1 -18 21z" />
<glyph unicode="&#x124;" horiz-adv-x="1314" d="M221 20v1436q0 20 21 21h34q18 0 19 -21v-629h725v629q0 20 20 21h37q16 0 17 -21v-1436q0 -20 -17 -20h-37q-20 0 -20 20v744h-725v-744q0 -20 -19 -20h-34q-21 0 -21 20zM440 1630l172 256q14 20 31 21h29q16 0 26 -19l174 -258q4 -7 4 -11q0 -8 -12 -7h-30 q-12 0 -27 18l-150 223l-149 -223q-14 -18 -27 -18h-30q-14 0 -14 8q0 4 3 10z" />
<glyph unicode="&#x125;" horiz-adv-x="1128" d="M14 1630l172 256q16 20 31 21h29q16 0 28 -19l172 -258q12 -18 -8 -18h-30q-12 0 -25 18l-152 223l-149 -223q-14 -18 -25 -18h-30q-15 0 -16 8q0 4 3 10zM197 20v1477q0 20 18 21h35q18 0 18 -21v-549q164 135 383 135q147 0 221 -67.5t74 -181.5v-814q0 -20 -18 -20 h-35q-18 0 -19 20v803q0 88 -58 141.5t-177 53.5q-205 0 -371 -137v-861q0 -20 -18 -20h-35q-18 0 -18 20z" />
<glyph unicode="&#x126;" horiz-adv-x="1314" d="M117 1120v19q0 20 20 20h84v297q0 20 21 21h34q18 0 19 -21v-297h725v297q0 20 20 21h37q16 0 17 -21v-297h88q18 0 18 -20v-19q0 -20 -18 -20h-88v-1080q0 -20 -17 -20h-37q-20 0 -20 20v744h-725v-744q0 -20 -19 -20h-34q-20 0 -21 20v1080h-84q-20 0 -20 20zM295 827 h725v273h-725v-273z" />
<glyph unicode="&#x127;" horiz-adv-x="1128" d="M43 1257v19q0 18 20 18h134v203q0 20 18 21h35q18 0 18 -21v-203h373q18 0 18 -18v-19q0 -20 -18 -20h-373v-289q164 135 383 135q147 0 221 -67.5t74 -181.5v-814q0 -20 -18 -20h-35q-18 0 -19 20v803q0 88 -58 141.5t-177 53.5q-205 0 -371 -137v-861q0 -20 -18 -20 h-35q-18 0 -18 20v1217h-134q-20 0 -20 20z" />
<glyph unicode="&#x128;" horiz-adv-x="516" d="M-23 1669v33q0 178 138 178q55 0 106 -45l103 -90q45 -37 75 -37q45 0 61.5 27.5t16.5 107.5v19q0 18 21 18h20q18 0 19 -20v-31q-2 -178 -136 -178q-53 0 -108 45l-100 88q-45 37 -76 37q-45 0 -61.5 -27t-16.5 -106v-21q0 -18 -19 -18h-22q-21 0 -21 20zM221 20v1436 q0 20 21 21h34q18 0 19 -21v-1436q0 -20 -19 -20h-34q-21 0 -21 20z" />
<glyph unicode="&#x129;" d="M-47 1292v33q0 178 135 178q51 0 107 -47l102 -88q45 -37 76 -37q47 0 62.5 26.5t15.5 108.5v19q0 18 20 18h23q16 0 16 -20v-33q-2 -178 -135 -178q-53 0 -109 45l-100 90q-43 37 -74 37q-47 0 -63.5 -27.5t-16.5 -107.5v-19q0 -18 -18 -18h-23q-18 0 -18 20zM195 20 v1027q0 18 20 18h35q18 0 18 -18v-1027q0 -20 -18 -20h-35q-20 0 -20 20z" />
<glyph unicode="&#x12a;" horiz-adv-x="516" d="M-45 1726v21q0 18 18 18h572q20 0 20 -18v-21q0 -20 -20 -20h-572q-18 0 -18 20zM221 20v1436q0 20 21 21h34q18 0 19 -21v-1436q0 -20 -19 -20h-34q-21 0 -21 20z" />
<glyph unicode="&#x12b;" d="M-70 1348v22q0 18 19 19h571q20 0 21 -19v-22q0 -18 -21 -19h-571q-19 1 -19 19zM195 20v1027q0 18 20 18h35q18 0 18 -18v-1027q0 -20 -18 -20h-35q-20 0 -20 20z" />
<glyph unicode="&#x12c;" horiz-adv-x="516" d="M25 1851v37q0 18 18 19h25q16 0 16 -19v-39q0 -84 35 -129t139 -45t139 45t35 129v39q0 18 17 19h24q18 0 19 -19v-37q0 -113 -50.5 -171t-185.5 -58q-133 0 -182 58t-49 171zM221 20v1436q0 20 21 21h34q18 0 19 -21v-1436q0 -20 -19 -20h-34q-21 0 -21 20z" />
<glyph unicode="&#x12d;" d="M-2 1444v37q0 18 18 18h23q20 0 20 -18v-37q0 -88 35 -132t138.5 -44t138.5 44t35 132v37q0 18 18 18h22q18 0 19 -18v-37q0 -111 -50 -169t-184.5 -58t-183.5 57t-49 170zM195 20v1027q0 18 20 18h35q18 0 18 -18v-1027q0 -20 -18 -20h-35q-20 0 -20 20z" />
<glyph unicode="&#x12e;" horiz-adv-x="516" d="M47 -168q0 63 52.5 120.5t121.5 84.5v1419q0 20 21 21h34q18 0 19 -21v-1436q0 -20 -16 -20h-15q-78 -20 -115.5 -66.5t-37.5 -93.5q0 -96 133 -96h45q16 0 16 -20v-17q0 -20 -20 -20h-54q-184 0 -184 145z" />
<glyph unicode="&#x12f;" d="M23 -168q0 61 51 119.5t123 85.5v1010q0 18 18 18h35q18 0 18 -18v-1027q0 -20 -18 -20h-10q-80 -20 -118 -66.5t-38 -93.5q0 -96 135 -96h43q20 0 21 -20v-17q0 -20 -23 -20h-53q-184 0 -184 145zM197 1288v209q0 20 18 21h35q18 0 18 -21v-209q0 -20 -18 -20h-35 q-18 0 -18 20z" />
<glyph unicode="&#x130;" horiz-adv-x="516" d="M221 20v1436q0 20 21 21h34q18 0 19 -21v-1436q0 -20 -19 -20h-34q-21 0 -21 20zM221 1655v164q0 20 21 20h34q18 0 19 -20v-164q0 -20 -19 -21h-34q-21 1 -21 21z" />
<glyph unicode="&#x131;" d="M195 20v1027q0 18 20 18h35q18 0 18 -18v-1027q0 -20 -18 -20h-35q-20 0 -20 20z" />
<glyph unicode="&#x132;" horiz-adv-x="1570" d="M221 20v1436q0 20 21 21h34q18 0 19 -21v-1436q0 -20 -19 -20h-34q-21 0 -21 20zM600 279v77q0 18 18 19h35q20 0 21 -19v-69q0 -115 65.5 -177.5t241.5 -62.5t242.5 62.5t66.5 177.5v1169q0 20 17 21h36q20 0 21 -21v-1177q0 -141 -84 -218t-299 -77t-298 77t-83 218z " />
<glyph unicode="&#x133;" horiz-adv-x="927" d="M197 20v1027q0 18 18 18h35q18 0 18 -18v-1027q0 -20 -18 -20h-35q-18 0 -18 20zM197 1288v209q0 20 18 21h35q18 0 18 -21v-209q0 -20 -18 -20h-35q-18 0 -18 20zM332 -410q0 18 20 19h8q166 0 232.5 51t66.5 145v1242q0 18 19 18h35q18 0 18 -18v-1248 q0 -121 -84 -187.5t-287 -66.5h-8q-20 0 -20 19v26zM659 1288v209q0 20 19 21h35q18 0 18 -21v-209q0 -20 -18 -20h-35q-19 0 -19 20z" />
<glyph unicode="&#x134;" horiz-adv-x="1054" d="M82 279v77q0 18 20 19h35q18 0 19 -19v-69q0 -115 66.5 -177.5t242.5 -62.5t241.5 62.5t65.5 177.5v1169q0 20 19 21h36q18 0 19 -21v-1177q0 -141 -83 -218t-298 -77t-299 77t-84 218zM590 1630l172 256q14 20 31 21h28q16 0 27 -19l174 -258q5 -7 5 -11q0 -7 -13 -7 h-31q-12 0 -27 18l-149 223l-150 -223q-14 -18 -26 -18h-29q-15 0 -15 8q0 4 3 10z" />
<glyph unicode="&#x135;" d="M-131 -412q0 18 20 19h9q166 0 231.5 52t65.5 146v1242q0 18 20 18h35q18 0 18 -18v-1248q0 -121 -84 -188.5t-286 -67.5h-9q-20 0 -20 21v24zM20 1262l170 256q12 18 29 18h29q18 0 31 -16l172 -258q4 -7 4 -12q0 -9 -15 -9h-30q-12 0 -25 21l-152 223l-149 -223 q-10 -20 -25 -21h-30q-13 0 -13 8q-1 5 4 13z" />
<glyph unicode="&#x136;" horiz-adv-x="1146" d="M221 20v1436q0 20 21 21h34q18 0 19 -21v-686h82l571 688q18 18 35 19h41q25 0 10 -21l-592 -708l654 -728q4 -5 4 -10q0 -2 -1 -4q-3 -6 -12 -6h-49q-18 0 -32 20l-629 693h-82v-693q0 -20 -19 -20h-34q-21 0 -21 20zM479 -401l19 37q14 30 17 37l12 29q9 22 11.5 35 t4.5 33.5t2 45.5v55q0 20 20 20h25q20 0 20 -20v-57q0 -106 -75 -238q-9 -12 -18 -12l-7 2l-25 6q-9 5 -9 15q0 5 3 12z" />
<glyph unicode="&#x137;" horiz-adv-x="952" d="M195 20v1477q0 20 20 21h35q18 0 18 -21v-866h88l426 418q16 16 33 16h41q10 0 13 -5t-5 -13l-446 -441l508 -586q3 -5 3 -10q0 -10 -11 -10h-44q-18 0 -34 20l-484 551h-88v-551q0 -20 -18 -20h-35q-20 0 -20 20zM391 -401l19 37q14 30 17 37.5t11 29t11 34.5l5 34 q3 20 3 45v55q0 20 18 20h27q18 0 18 -20v-57q0 -106 -76 -238q-7 -12 -16 -12q-3 0 -6 2l-25 6q-9 5 -9 15q0 5 3 12z" />
<glyph unicode="&#x138;" horiz-adv-x="952" d="M195 20v1027q0 18 20 18h35q18 0 18 -18v-429h88l426 431q16 16 33 16h41q8 0 11 -6t-3 -12l-446 -455l508 -572q5 -6 4 -11q0 -9 -12 -9h-44q-18 0 -34 20l-484 539h-88v-539q0 -20 -18 -20h-35q-20 0 -20 20z" />
<glyph unicode="&#x139;" horiz-adv-x="1077" d="M221 20v1436q0 20 21 21h37q16 0 16 -21v-1390h680q18 0 18 -21v-25q0 -20 -18 -20h-735q-19 0 -19 20zM227 1628l170 262q10 16 25 17h41q14 0 14 -9q0 -5 -4 -12l-180 -264q-10 -10 -23 -10h-32q-14 0 -14 7q0 4 3 9z" />
<glyph unicode="&#x13a;" d="M197 20v1477q0 20 18 21h35q18 0 18 -21v-1477q0 -20 -18 -20h-35q-18 0 -18 20zM205 1628l168 262q12 16 24 17h41q15 0 15 -9q0 -5 -4 -12l-181 -264q-10 -10 -20 -10h-35q-13 0 -13 6q0 4 5 10z" />
<glyph unicode="&#x13b;" horiz-adv-x="1077" d="M221 20v1436q0 20 21 21h37q16 0 16 -21v-1390h680q18 0 18 -21v-25q0 -20 -18 -20h-735q-19 0 -19 20zM494 -401l18 37q14 30 17 37.5l11.5 29t10.5 34.5t4 33.5t2 45.5v55q0 20 21 20h26q18 0 19 -20v-57q0 -106 -76 -238q-7 -12 -17 -12q-4 0 -8 2l-22 6q-10 5 -10 14 q0 6 4 13z" />
<glyph unicode="&#x13c;" d="M135 -401l19 37q14 30 17 37.5t11 29t11 34.5l5 34q3 20 3 45v55q0 20 18 20h27q18 0 18 -20v-57q0 -106 -76 -238q-7 -12 -16 -12q-3 0 -6 2l-25 6q-10 5 -10 14q0 6 4 13zM197 20v1477q0 20 18 21h35q18 0 18 -21v-1477q0 -20 -18 -20h-35q-18 0 -18 20z" />
<glyph unicode="&#x13d;" horiz-adv-x="1077" d="M221 20v1436q0 20 21 21h37q16 0 16 -21v-1390h680q18 0 18 -21v-25q0 -20 -18 -20h-735q-19 0 -19 20zM651 1202l19 38q14 30 17 38t12.5 29.5t11.5 34t4 34t2 43.5v58q0 18 18 18h27q20 0 20 -18v-60q0 -106 -77 -235q-8 -14 -17 -14q-3 0 -6 1l-25 9q-9 5 -9 13 q0 5 3 11z" />
<glyph unicode="&#x13e;" horiz-adv-x="516" d="M197 20v1477q0 20 18 21h35q18 0 18 -21v-1477q0 -20 -18 -20h-35q-18 0 -18 20zM395 1239q4 10 18.5 39t17.5 37l11 30q8 22 11.5 34t5.5 33.5t2 43.5v57q0 18 18 19h27q20 0 20 -19v-59q0 -106 -77 -235q-8 -14 -17 -14q-3 0 -6 1l-25 8q-9 5 -9 14q0 5 3 11z" />
<glyph unicode="&#x13f;" horiz-adv-x="1077" d="M221 20v1436q0 20 21 21h37q16 0 16 -21v-1390h680q18 0 18 -21v-25q0 -20 -18 -20h-735q-19 0 -19 20zM770 686v166q0 18 21 18h34q18 0 19 -18v-166q0 -20 -19 -20h-34q-21 0 -21 20z" />
<glyph unicode="&#x140;" horiz-adv-x="575" d="M197 20v1477q0 20 18 21h35q18 0 18 -21v-1477q0 -20 -18 -20h-35q-18 0 -18 20zM457 686v166q0 18 18 18h35q20 0 20 -18v-166q0 -20 -20 -20h-35q-18 0 -18 20z" />
<glyph unicode="&#x141;" horiz-adv-x="1077" d="M51 655q-4 20 12 27l158 66v708q0 20 21 21h37q16 0 16 -21v-680l166 68q14 10 22 -8l9 -17q6 -18 -13 -24l-184 -76v-653h680q18 0 18 -21v-25q0 -20 -18 -20h-735q-18 0 -19 20v668l-137 -57q-16 -6 -25 10z" />
<glyph unicode="&#x142;" horiz-adv-x="489" d="M27 655q-2 6 -2 10q0 12 12 17l174 72v743q0 20 16 21h35q20 0 21 -21v-715l149 62q14 8 25 -8l8 -17q1 -4 1 -7q0 -11 -15 -17l-168 -70v-705q0 -20 -21 -20h-35q-16 0 -16 20v674l-154 -63q-18 -6 -24 10z" />
<glyph unicode="&#x143;" horiz-adv-x="1312" d="M221 20v1436q0 20 21 21h28q12 0 19 -9l674 -1202l59 -116v1306q0 20 20 21h33q16 0 17 -21v-1436q0 -20 -17 -20h-33q-10 0 -18 8l-668 1196q-31 51 -65 121v-1305q0 -20 -21 -20h-28q-21 0 -21 20zM627 1628l170 262q10 16 24 17h41q14 0 14 -9q0 -5 -4 -12l-180 -264 q-10 -10 -20 -10h-35q-14 0 -14 7q1 4 4 9z" />
<glyph unicode="&#x144;" horiz-adv-x="1128" d="M197 20v1027q0 18 18 18h31q16 0 16 -18l4 -101q166 137 385 137q147 0 221 -67.5t74 -181.5v-814q0 -20 -18 -20h-35q-18 0 -19 20v803q0 88 -58 141.5t-177 53.5q-205 0 -371 -137v-861q0 -20 -18 -20h-35q-18 0 -18 20zM545 1260l170 262q10 14 22 14h43q14 0 14 -8 q0 -4 -3 -10l-181 -265q-10 -12 -22 -12h-35q-12 0 -12 8q0 4 4 11z" />
<glyph unicode="&#x145;" horiz-adv-x="1312" d="M221 20v1436q0 20 21 21h28q12 0 19 -9l674 -1202l59 -116v1306q0 20 20 21h33q16 0 17 -21v-1436q0 -20 -17 -20h-33q-10 0 -18 8l-668 1196q-31 51 -65 121v-1305q0 -20 -21 -20h-28q-21 0 -21 20zM563 -401q4 8 17.5 37.5t17.5 37t12 29t10.5 34.5t4.5 33.5t2 45.5v55 q0 20 20 20h27q18 0 18 -20v-57q0 -106 -76 -238q-7 -12 -17 -12q-4 0 -7 2l-23 6q-10 5 -10 14q0 6 4 13z" />
<glyph unicode="&#x146;" horiz-adv-x="1128" d="M197 20v1027q0 18 18 18h31q16 0 16 -18l4 -101q166 137 385 137q147 0 221 -67.5t74 -181.5v-814q0 -20 -18 -20h-35q-18 0 -19 20v803q0 88 -58 141.5t-177 53.5q-205 0 -371 -137v-861q0 -20 -18 -20h-35q-18 0 -18 20zM473 -399l19 38q14 30 17 36l12 29 q9 22 11.5 35t4.5 33.5t2 45.5v57q0 18 18 19h27q20 0 20 -19v-59q0 -106 -76 -238q-9 -12 -17 -12l-7 2l-25 6q-9 5 -9 15q0 5 3 12z" />
<glyph unicode="&#x147;" horiz-adv-x="1312" d="M221 20v1436q0 20 21 21h28q12 0 19 -9l674 -1202l59 -116v1306q0 20 20 21h33q16 0 17 -21v-1436q0 -20 -17 -20h-33q-10 0 -18 8l-668 1196q-31 51 -65 121v-1305q0 -20 -21 -20h-28q-21 0 -21 20zM440 1886q-3 7 -3 12q0 9 14 9h30q12 0 27 -21l149 -223l150 223 q14 20 27 21h30q12 0 12 -9q0 -5 -4 -12l-174 -258q-10 -16 -26 -16h-29q-16 0 -31 18z" />
<glyph unicode="&#x148;" horiz-adv-x="1128" d="M197 20v1027q0 18 18 18h31q16 0 16 -18l4 -101q166 137 385 137q147 0 221 -67.5t74 -181.5v-814q0 -20 -18 -20h-35q-18 0 -19 20v803q0 88 -58 141.5t-177 53.5q-205 0 -371 -137v-861q0 -20 -18 -20h-35q-18 0 -18 20zM350 1518q-5 7 -4 11q0 7 12 7h31q14 0 25 -18 l151 -224l150 224q12 18 24 18h31q15 0 16 -9q0 -4 -4 -9l-174 -258q-10 -18 -30 -19h-29q-16 0 -29 21z" />
<glyph unicode="&#x149;" horiz-adv-x="1128" d="M129 1239q4 10 17.5 39t17.5 37t12 29.5t10 34t4.5 34t2.5 43.5v57q0 18 20 19h27q18 0 18 -19v-59q0 -106 -76 -235q-10 -18 -24 -13l-23 8q-10 5 -10 14q0 5 4 11zM197 20v1027q0 18 18 18h31q16 0 16 -18l4 -101q166 137 385 137q147 0 221 -67.5t74 -181.5v-814 q0 -20 -18 -20h-35q-18 0 -19 20v803q0 88 -58 141.5t-177 53.5q-205 0 -371 -137v-861q0 -20 -18 -20h-35q-18 0 -18 20z" />
<glyph unicode="&#x14a;" horiz-adv-x="1312" d="M221 20v1436q0 20 21 21h28q12 0 19 -9l674 -1202l59 -116v1306q0 20 20 21h33q16 0 17 -21v-1657q0 -121 -83 -188.5t-286 -67.5h-8q-20 0 -21 21v24q0 18 21 19h8q299 0 299 198v205l-666 1194q-55 90 -65 123v-1307q0 -20 -21 -20h-28q-21 0 -21 20z" />
<glyph unicode="&#x14b;" horiz-adv-x="1128" d="M195 20v1027q0 18 20 18h31q16 0 16 -18l2 -101q172 137 387 137q147 0 221 -67.5t74 -181.5v-1035q0 -121 -85 -188.5t-286 -67.5h-8q-20 0 -20 21v24q0 18 20 19h8q299 0 299 198v1018q0 88 -58 142.5t-177 54.5q-209 0 -371 -139v-861q0 -20 -18 -20h-35q-20 0 -20 20 z" />
<glyph unicode="&#x14c;" horiz-adv-x="1263" d="M197 279v919q0 295 434 295q438 0 438 -295v-919q0 -295 -438 -295q-434 0 -434 295zM268 287q0 -240 362.5 -240t362.5 240v903q0 238 -362.5 237.5t-362.5 -237.5v-903zM328 1726v21q0 18 20 18h570q20 0 20 -18v-21q0 -20 -20 -20h-570q-20 0 -20 20z" />
<glyph unicode="&#x14d;" horiz-adv-x="1091" d="M172 238v591q0 254 373 254q375 0 375 -254v-591q0 -254 -375 -254q-373 0 -373 254zM242 1348v22q0 18 16 19h573q20 0 21 -19v-22q0 -18 -21 -19h-573q-16 1 -16 19zM244 242q0 -197 301 -197q303 0 303 197v583q0 197 -303 197q-301 0 -301 -197v-583z" />
<glyph unicode="&#x14e;" horiz-adv-x="1263" d="M197 279v919q0 295 434 295q438 0 438 -295v-919q0 -295 -438 -295q-434 0 -434 295zM268 287q0 -240 362.5 -240t362.5 240v903q0 238 -362.5 237.5t-362.5 -237.5v-903zM397 1851v37q0 18 21 19h22q18 0 19 -19v-39q0 -84 34.5 -129t138 -45t138.5 45t35 129v39 q0 18 18 19h23q18 0 18 -19v-37q0 -113 -50 -171t-185 -58q-131 0 -181.5 58t-50.5 171z" />
<glyph unicode="&#x14f;" horiz-adv-x="1091" d="M172 238v591q0 254 373 254q375 0 375 -254v-591q0 -254 -375 -254q-373 0 -373 254zM244 242q0 -197 301 -197q303 0 303 197v583q0 197 -303 197q-301 0 -301 -197v-583zM299 1444v37q0 18 20 18h21q20 0 20 -18v-37q0 -88 35 -132t139.5 -44t139.5 44t35 132v37 q0 18 16 18h25q16 0 16 -18v-37q0 -111 -50 -169t-184.5 -58t-183.5 57t-49 170z" />
<glyph unicode="&#x150;" horiz-adv-x="1263" d="M197 279v919q0 295 434 295q438 0 438 -295v-919q0 -295 -438 -295q-434 0 -434 295zM268 287q0 -240 362.5 -240t362.5 240v903q0 238 -362.5 237.5t-362.5 -237.5v-903zM514 1630l137 256q8 20 27 21h35q20 0 10 -21l-143 -256q-10 -18 -27 -18h-31q-12 0 -12 7 q0 4 4 11zM678 1630l164 256q12 20 32 21h33q13 0 13 -8q0 -5 -5 -13l-178 -260q-10 -14 -22 -14h-31q-11 0 -11 6q0 5 5 12z" />
<glyph unicode="&#x151;" horiz-adv-x="1091" d="M172 238v591q0 254 373 254q375 0 375 -254v-591q0 -254 -375 -254q-373 0 -373 254zM244 242q0 -197 301 -197q303 0 303 197v583q0 197 -303 197q-301 0 -301 -197v-583zM430 1262l135 256q8 18 27 18h33q23 0 14 -18l-145 -256q-12 -20 -27 -21h-29q-11 0 -11 9 q0 5 3 12zM590 1262l168 256q10 18 30 18h33q14 0 14 -8q0 -4 -4 -10l-178 -261q-10 -16 -26 -16h-27q-14 0 -14 9q1 5 4 12z" />
<glyph unicode="&#x152;" horiz-adv-x="1925" d="M195 279v919q0 295 436 295q264 0 362 -115v78q0 20 21 21h739q20 0 21 -21v-24q0 -18 -21 -19h-684v-602h645q20 0 21 -18v-25q0 -18 -21 -18h-645v-687h713q20 0 20 -18v-25q0 -20 -20 -20h-770q-18 0 -19 20v78q-98 -115 -362 -114q-436 0 -436 295zM268 285 q0 -240 362.5 -240t362.5 240v915q-6 231 -362 232q-362 0 -363 -240v-907z" />
<glyph unicode="&#x153;" horiz-adv-x="1736" d="M172 238v591q0 254 373 254q266 0 334 -129q72 129 342 129q201 0 284.5 -66.5t83.5 -187.5v-270q0 -18 -18 -18h-651v-301q0 -199 300 -199t300 199v55q0 18 20 18h29q20 0 20 -18v-57q0 -123 -84 -188.5t-284 -65.5q-270 0 -342 127q-68 -127 -334 -127 q-373 0 -373 254zM244 242q0 -199 301 -199q303 0 303 199v583q0 197 -303 197q-301 0 -301 -197v-583zM920 598h600v229q0 197 -300 197t-300 -197v-229z" />
<glyph unicode="&#x154;" horiz-adv-x="1269" d="M221 20v1436q0 20 19 21h413q438 0 439 -295v-264q0 -240 -287 -287l311 -611q2 -5 2 -8q0 -12 -20 -12h-37q-14 0 -25 20l-305 605q-27 -2 -78 -2h-358v-603q0 -20 -19 -20h-34q-21 0 -21 20zM295 688h358q365 0 365 238v245q0 115 -82 177.5t-283 62.5h-358v-723z M557 1628l170 262q10 16 25 17h41q15 0 14 -9q0 -5 -4 -12l-180 -264q-10 -10 -21 -10h-35q-14 0 -13 7q0 4 3 9z" />
<glyph unicode="&#x155;" horiz-adv-x="712" d="M197 20v1027q0 18 18 18h31q16 0 16 -18l6 -125q195 162 379 161q18 0 19 -20v-29q0 -20 -19 -20q-109 0 -212 -51.5t-167 -104.5v-838q0 -20 -18 -20h-35q-18 0 -18 20zM221 1260l170 262q10 14 23 14h43q14 0 13 -8q0 -4 -3 -10l-180 -265q-10 -12 -23 -12h-35 q-12 0 -11 8q-1 4 3 11z" />
<glyph unicode="&#x156;" horiz-adv-x="1269" d="M221 20v1436q0 20 19 21h413q438 0 439 -295v-264q0 -240 -287 -287l311 -611q2 -5 2 -8q0 -12 -20 -12h-37q-14 0 -25 20l-305 605q-27 -2 -78 -2h-358v-603q0 -20 -19 -20h-34q-21 0 -21 20zM295 688h358q365 0 365 238v245q0 115 -82 177.5t-283 62.5h-358v-723z M530 -399l19 38q14 30 17 37t11.5 28.5t10.5 34.5t4 33.5t2 45.5v57q0 18 20 19h27q18 0 18 -19v-59q0 -106 -75 -238q-7 -12 -17 -12q-4 0 -8 2l-22 6q-10 5 -11 14q0 6 4 13z" />
<glyph unicode="&#x157;" horiz-adv-x="712" d="M135 -401l19 37q14 30 17 37.5t11 29t11 34.5l5 34q3 20 3 45v55q0 20 18 20h27q18 0 18 -20v-57q0 -106 -76 -238q-7 -12 -16 -12q-3 0 -6 2l-25 6q-10 5 -10 14q0 6 4 13zM197 20v1027q0 18 18 18h31q16 0 16 -18l6 -125q195 162 379 161q18 0 19 -20v-29 q0 -20 -19 -20q-109 0 -212 -51.5t-167 -104.5v-838q0 -20 -18 -20h-35q-18 0 -18 20z" />
<glyph unicode="&#x158;" horiz-adv-x="1269" d="M221 20v1436q0 20 19 21h413q438 0 439 -295v-264q0 -240 -287 -287l311 -611q2 -5 2 -8q0 -12 -20 -12h-37q-14 0 -25 20l-305 605q-27 -2 -78 -2h-358v-603q0 -20 -19 -20h-34q-21 0 -21 20zM295 688h358q365 0 365 238v245q0 115 -82 177.5t-283 62.5h-358v-723z M397 1886q-3 7 -3 12q0 9 14 9h30q10 0 27 -21l149 -223l150 223q12 20 27 21h30q12 0 12 -9q0 -5 -4 -12l-174 -258q-10 -16 -28 -16h-27q-16 0 -31 18z" />
<glyph unicode="&#x159;" horiz-adv-x="712" d="M141 1518q-4 7 -3 10q0 8 12 8h30q14 0 27 -18l149 -224l150 224q12 18 26 18h31q20 0 10 -18l-174 -258q-10 -18 -30 -19h-29q-16 0 -27 21zM197 20v1027q0 18 18 18h31q16 0 16 -18l6 -125q195 162 379 161q18 0 19 -20v-29q0 -20 -19 -20q-109 0 -212 -51.5 t-167 -104.5v-838q0 -20 -18 -20h-35q-18 0 -18 20z" />
<glyph unicode="&#x15a;" horiz-adv-x="1216" d="M178 279v106q0 18 19 18h34q20 0 21 -18v-100q0 -113 81 -175.5t278.5 -62.5t280.5 62.5t83 175.5v176q0 143 -178 213l-420 160q-76 29 -130 92t-54 159v113q0 139 94 217t327.5 78t328.5 -78t95 -217v-111q0 -18 -20 -18h-35q-18 0 -18 18v105q0 115 -78 175t-271 60 q-197 0 -274.5 -60t-77.5 -175v-96q0 -141 150 -199l426 -164q209 -82 209 -262v-192q0 -295 -437 -295q-434 0 -434 295zM586 1628l170 262q10 16 24 17h41q14 0 14 -9q0 -5 -4 -12l-180 -264q-10 -10 -22 -10h-35q-12 0 -12 7q0 3 4 9z" />
<glyph unicode="&#x15b;" horiz-adv-x="1001" d="M141 207v61q0 18 19 19h33q18 0 18 -19v-59q0 -76 74.5 -122t224 -46t225.5 46t76 122v113q0 104 -143 145l-344 104q-63 18 -116.5 71.5t-53.5 127.5v92q0 100 87 160.5t267 60.5t268 -60t88 -161v-76q0 -16 -20 -16h-33q-14 0 -14 16v76q0 76 -72 120t-217 44 q-285 0 -285 -164v-80q0 -57 41 -96t94 -55l344 -103q80 -25 129.5 -73.5t49.5 -118.5v-129q0 -100 -93.5 -161.5t-277.5 -61.5t-276.5 61.5t-92.5 161.5zM483 1260l170 262q10 14 25 14h41q14 0 14 -8q0 -4 -4 -10l-180 -265q-10 -12 -21 -12h-34q-14 0 -14 8q0 5 3 11z " />
<glyph unicode="&#x15c;" horiz-adv-x="1216" d="M178 279v106q0 18 19 18h34q20 0 21 -18v-100q0 -113 81 -175.5t278.5 -62.5t280.5 62.5t83 175.5v176q0 143 -178 213l-420 160q-76 29 -130 92t-54 159v113q0 139 94 217t327.5 78t328.5 -78t95 -217v-111q0 -18 -20 -18h-35q-18 0 -18 18v105q0 115 -78 175t-271 60 q-197 0 -274.5 -60t-77.5 -175v-96q0 -141 150 -199l426 -164q209 -82 209 -262v-192q0 -295 -437 -295q-434 0 -434 295zM391 1630l172 256q14 20 29 21h29q18 0 28 -19l174 -258q4 -7 4 -11q0 -8 -12 -7h-31q-14 0 -26 18l-150 223l-149 -223q-16 -18 -27 -18h-31 q-14 0 -13 8q0 4 3 10z" />
<glyph unicode="&#x15d;" horiz-adv-x="1001" d="M141 207v61q0 18 19 19h33q18 0 18 -19v-59q0 -76 74.5 -122t224 -46t225.5 46t76 122v113q0 104 -143 145l-344 104q-63 18 -116.5 71.5t-53.5 127.5v92q0 100 87 160.5t267 60.5t268 -60t88 -161v-76q0 -16 -20 -16h-33q-14 0 -14 16v76q0 76 -72 120t-217 44 q-285 0 -285 -164v-80q0 -57 41 -96t94 -55l344 -103q80 -25 129.5 -73.5t49.5 -118.5v-129q0 -100 -93.5 -161.5t-277.5 -61.5t-276.5 61.5t-92.5 161.5zM287 1262l172 256q10 18 26 18h29q20 0 31 -16l174 -258q3 -7 3 -12q0 -9 -13 -9h-31q-14 0 -27 21l-149 223 l-150 -223q-12 -20 -26 -21h-31q-12 0 -12 9q0 5 4 12z" />
<glyph unicode="&#x15e;" horiz-adv-x="1216" d="M178 279v106q0 18 19 18h34q20 0 21 -18v-100q0 -113 81 -175.5t278.5 -62.5t280.5 62.5t83 175.5v176q0 143 -178 213l-420 160q-76 29 -130 92t-54 159v113q0 139 94 217t327.5 78t328.5 -78t95 -217v-111q0 -18 -20 -18h-35q-18 0 -18 18v105q0 115 -78 175t-271 60 q-197 0 -274.5 -60t-77.5 -175v-96q0 -141 150 -199l426 -164q209 -82 209 -262v-192q0 -293 -435 -295l-30 -103h90q72 0 123 -39t51 -131q0 -88 -52.5 -129t-121.5 -41h-262q-18 0 -19 21v14q0 20 19 21h254q47 0 84.5 25.5t37.5 88.5q0 115 -122 115h-121q-29 0 -25 24 l37 136q-379 17 -379 293z" />
<glyph unicode="&#x15f;" horiz-adv-x="1001" d="M141 207v61q0 18 19 19h33q18 0 18 -19v-59q0 -76 74.5 -122t224 -46t225.5 46t76 122v113q0 104 -143 145l-344 104q-63 18 -116.5 71.5t-53.5 127.5v92q0 100 87 160.5t267 60.5t268 -60t88 -161v-76q0 -16 -20 -16h-33q-14 0 -14 16v76q0 76 -72 120t-217 44 q-285 0 -285 -164v-80q0 -57 41 -96t94 -55l344 -103q80 -25 129.5 -73.5t49.5 -118.5v-129q0 -100 -93.5 -161.5t-277.5 -61.5h-8l-31 -103h88q72 0 124 -39t52 -131q0 -88 -53 -129t-123 -41h-260q-18 0 -18 21v14q0 20 18 21h254q47 0 85 25.5t38 88.5q0 115 -123 115 h-121q-29 0 -24 24l36 136q-152 10 -227.5 69.5t-75.5 151.5z" />
<glyph unicode="&#x160;" horiz-adv-x="1216" d="M178 279v106q0 18 19 18h34q20 0 21 -18v-100q0 -113 81 -175.5t278.5 -62.5t280.5 62.5t83 175.5v176q0 143 -178 213l-420 160q-76 29 -130 92t-54 159v113q0 139 94 217t327.5 78t328.5 -78t95 -217v-111q0 -18 -20 -18h-35q-18 0 -18 18v105q0 115 -78 175t-271 60 q-197 0 -274.5 -60t-77.5 -175v-96q0 -141 150 -199l426 -164q209 -82 209 -262v-192q0 -295 -437 -295q-434 0 -434 295zM401 1886q-3 7 -3 12q0 9 14 9h30q12 0 27 -21l149 -223l150 223q14 20 27 21h30q12 0 12 -9q0 -5 -3 -12l-175 -258q-10 -16 -28 -16h-27 q-16 0 -31 18z" />
<glyph unicode="&#x161;" horiz-adv-x="1001" d="M141 207v61q0 18 19 19h33q18 0 18 -19v-59q0 -76 74.5 -122t224 -46t225.5 46t76 122v113q0 104 -143 145l-344 104q-63 18 -116.5 71.5t-53.5 127.5v92q0 100 87 160.5t267 60.5t268 -60t88 -161v-76q0 -16 -20 -16h-33q-14 0 -14 16v76q0 76 -72 120t-217 44 q-285 0 -285 -164v-80q0 -57 41 -96t94 -55l344 -103q80 -25 129.5 -73.5t49.5 -118.5v-129q0 -100 -93.5 -161.5t-277.5 -61.5t-276.5 61.5t-92.5 161.5zM297 1518q-4 7 -4 10q0 8 12 8h31q16 0 26 -18l150 -224l150 224q14 18 26 18h31q14 0 14 -8q0 -4 -4 -10l-174 -258 q-10 -18 -29 -19h-28q-18 0 -29 21z" />
<glyph unicode="&#x162;" horiz-adv-x="1034" d="M47 1432v24q0 20 21 21h901q18 0 18 -21v-24q0 -20 -18 -21h-416v-1391q0 -20 -16 -20h-37q-20 0 -21 20v1391h-411q-21 1 -21 21zM420 -401q4 8 17.5 37.5t17.5 37t12 29t10 34.5t4 33.5t2 45.5v55q0 20 21 20h26q18 0 19 -20v-57q0 -106 -76 -238q-7 -12 -17 -12 q-4 0 -7 2l-23 6q-10 5 -10 14q0 6 4 13z" />
<glyph unicode="&#x163;" horiz-adv-x="733" d="M70 1020v20q0 18 18 19l121 4h24v242q0 20 19 20h35q18 0 18 -20v-242h273q20 0 20 -19v-24q0 -18 -20 -19h-273v-741q0 -94 66.5 -145.5t232.5 -51.5h31q18 0 18 -20v-23q0 -20 -18 -20h-37q-203 0 -284 65.5t-81 188.5v747h-145q-18 1 -18 19zM182 -401l19 37 q14 30 17 37l12 29q9 22 11.5 35t4.5 33.5t2 45.5v55q0 20 18 20h27q20 0 20 -20v-57q0 -106 -75 -238q-9 -12 -18 -12l-7 2l-25 6q-9 5 -9 15q0 5 3 12z" />
<glyph unicode="&#x164;" horiz-adv-x="1034" d="M47 1432v24q0 20 21 21h901q18 0 18 -21v-24q0 -20 -18 -21h-416v-1391q0 -20 -16 -20h-37q-20 0 -21 20v1391h-411q-21 1 -21 21zM301 1886q-3 6 -3 11q0 10 15 10h29q12 0 27 -21l149 -223l150 223q14 20 26 21h31q13 0 13 -8q0 -5 -5 -13l-174 -258q-10 -16 -27 -16 h-28q-16 0 -31 18z" />
<glyph unicode="&#x165;" horiz-adv-x="743" d="M70 1020v20q0 18 18 19l121 4h24v242q0 20 19 20h35q18 0 18 -20v-242h273q20 0 20 -19v-24q0 -18 -20 -19h-273v-741q0 -94 66.5 -145.5t232.5 -51.5h31q18 0 18 -20v-23q0 -20 -18 -20h-37q-203 0 -284 65.5t-81 188.5v747h-145q-18 1 -18 19zM432 1219l19 37 q14 30 17 37t11 28.5t11.5 35t5.5 34t2 45.5v55q0 20 18 20h27q20 0 20 -20v-57q0 -106 -78 -238q-7 -12 -16 -12q-3 0 -6 2l-25 6q-9 5 -9 15q0 5 3 12z" />
<glyph unicode="&#x166;" horiz-adv-x="1034" d="M47 1432v24q0 20 21 21h901q18 0 18 -21v-24q0 -20 -18 -21h-416v-410h365q18 0 18 -18v-18q0 -20 -18 -21h-365v-924q0 -20 -16 -20h-37q-20 0 -21 20v924h-356q-18 0 -19 21v18q0 18 19 18h356v410h-411q-21 1 -21 21z" />
<glyph unicode="&#x167;" horiz-adv-x="733" d="M70 690v21q0 18 18 18h145v272h-145q-18 0 -18 19v20q0 18 18 19l121 4h24v242q0 20 19 20h35q18 0 18 -20v-242h273q20 0 20 -19v-24q0 -18 -20 -19h-273v-272h273q20 0 20 -18v-21q0 -16 -20 -16h-273v-414q0 -94 66.5 -145.5t232.5 -51.5h31q18 0 18 -20v-23 q0 -20 -18 -20h-37q-203 0 -284 65.5t-81 188.5v420h-145q-18 0 -18 16z" />
<glyph unicode="&#x168;" horiz-adv-x="1290" d="M209 279v1177q0 20 18 21h37q18 0 19 -21v-1169q0 -240 362.5 -240t362.5 240v1169q0 20 18 21h37q18 0 18 -21v-1177q0 -295 -436 -295t-436 295zM365 1669v33q0 178 137 178q53 0 106 -45l103 -90q45 -37 75 -37q45 0 61.5 27.5t16.5 107.5v19q0 18 19 18h22 q16 0 17 -20v-31q-2 -178 -134 -178q-55 0 -108 45l-100 88q-45 37 -76 37q-45 0 -61.5 -27t-16.5 -106v-21q0 -18 -20 -18h-21q-20 0 -20 20z" />
<glyph unicode="&#x169;" horiz-adv-x="1114" d="M184 231v816q0 18 19 18h35q18 0 18 -18v-801q0 -92 57.5 -145.5t178.5 -53.5q201 0 356 137v863q0 18 18 18h35q18 0 19 -18v-1027q0 -20 -19 -20h-29q-18 0 -18 20l-6 97q-156 -133 -371 -133q-145 0 -219 66t-74 181zM279 1292v33q0 178 135 178q51 0 106 -47l103 -88 q45 -37 75 -37q47 0 62.5 26.5t15.5 108.5v19q0 18 21 18h22q16 0 17 -20v-33q-2 -178 -136 -178q-53 0 -108 45l-100 90q-43 37 -74 37q-47 0 -63.5 -27.5t-16.5 -107.5v-19q0 -18 -19 -18h-22q-18 0 -18 20z" />
<glyph unicode="&#x16a;" horiz-adv-x="1290" d="M209 279v1177q0 20 18 21h37q18 0 19 -21v-1169q0 -240 362.5 -240t362.5 240v1169q0 20 18 21h37q18 0 18 -21v-1177q0 -295 -436 -295t-436 295zM340 1726v21q0 18 20 18h572q18 0 18 -18v-21q0 -20 -18 -20h-572q-20 0 -20 20z" />
<glyph unicode="&#x16b;" horiz-adv-x="1114" d="M184 231v816q0 18 19 18h35q18 0 18 -18v-801q0 -92 57.5 -145.5t178.5 -53.5q201 0 356 137v863q0 18 18 18h35q18 0 19 -18v-1027q0 -20 -19 -20h-29q-18 0 -18 20l-6 97q-156 -133 -371 -133q-145 0 -219 66t-74 181zM254 1348v22q0 18 16 19h574q20 0 20 -19v-22 q0 -18 -20 -19h-574q-16 1 -16 19z" />
<glyph unicode="&#x16c;" horiz-adv-x="1290" d="M209 279v1177q0 20 18 21h37q18 0 19 -21v-1169q0 -240 362.5 -240t362.5 240v1169q0 20 18 21h37q18 0 18 -21v-1177q0 -295 -436 -295t-436 295zM410 1851v37q0 18 20 19h25q16 0 16 -19v-39q0 -84 35 -129t139.5 -45t139 45t34.5 129v39q0 18 17 19h24q16 0 17 -19 v-37q0 -113 -50.5 -171t-183.5 -58t-183 58t-50 171z" />
<glyph unicode="&#x16d;" horiz-adv-x="1114" d="M184 231v816q0 18 19 18h35q18 0 18 -18v-801q0 -92 57.5 -145.5t178.5 -53.5q201 0 356 137v863q0 18 18 18h35q18 0 19 -18v-1027q0 -20 -19 -20h-29q-18 0 -18 20l-6 97q-156 -133 -371 -133q-145 0 -219 66t-74 181zM317 1444v37q0 18 19 18h22q18 0 19 -18v-37 q0 -88 34.5 -132t139 -44t139.5 44t35 132v37q0 18 18 18h23q18 0 18 -18v-37q0 -111 -50 -169t-185 -58t-183.5 57t-48.5 170z" />
<glyph unicode="&#x16e;" horiz-adv-x="1290" d="M209 279v1177q0 20 18 21h37q18 0 19 -21v-1169q0 -240 362.5 -240t362.5 240v1169q0 20 18 21h37q18 0 18 -21v-1177q0 -295 -436 -295t-436 295zM455 1733v24q0 158 190.5 158t190.5 -158v-24q0 -160 -190.5 -160t-190.5 160zM508 1737q0 -113 137 -113t137 113v14 q0 115 -137 115t-137 -115v-14z" />
<glyph unicode="&#x16f;" horiz-adv-x="1114" d="M184 231v816q0 18 19 18h35q18 0 18 -18v-801q0 -92 57.5 -145.5t178.5 -53.5q201 0 356 137v863q0 18 18 18h35q18 0 19 -18v-1027q0 -20 -19 -20h-29q-18 0 -18 20l-6 97q-156 -133 -371 -133q-145 0 -219 66t-74 181zM362 1368v29q0 156 190.5 155.5t190.5 -155.5v-29 q0 -154 -190.5 -154t-190.5 154zM414 1372q0 -111 139 -110q137 0 137 110v19q0 113 -137 112q-139 0 -139 -112v-19z" />
<glyph unicode="&#x170;" horiz-adv-x="1290" d="M209 279v1177q0 20 18 21h37q18 0 19 -21v-1169q0 -240 362.5 -240t362.5 240v1169q0 20 18 21h37q18 0 18 -21v-1177q0 -295 -436 -295t-436 295zM532 1630l136 256q10 20 26 21h35q23 0 10 -21l-141 -256q-12 -18 -27 -18h-30q-13 0 -13 7q-1 4 4 11zM694 1630l166 256 q10 20 33 21h33q12 0 12 -9q0 -5 -4 -12l-178 -260q-10 -14 -25 -14h-31q-10 0 -10 7q0 4 4 11z" />
<glyph unicode="&#x171;" horiz-adv-x="1114" d="M184 231v816q0 18 19 18h35q18 0 18 -18v-801q0 -92 57.5 -145.5t178.5 -53.5q201 0 356 137v863q0 18 18 18h35q18 0 19 -18v-1027q0 -20 -19 -20h-29q-18 0 -18 20l-6 97q-156 -133 -371 -133q-145 0 -219 66t-74 181zM434 1262l135 256q8 18 29 18h31q23 0 14 -18 l-145 -256q-12 -20 -27 -21h-29q-11 0 -11 9q0 5 3 12zM594 1262l168 256q10 18 31 18h32q14 0 14 -8q0 -4 -3 -10l-179 -261q-10 -16 -26 -16h-27q-14 0 -13 9q0 5 3 12z" />
<glyph unicode="&#x172;" horiz-adv-x="1290" d="M209 279v1177q0 20 18 21h37q18 0 19 -21v-1169q0 -240 362.5 -240t362.5 240v1169q0 20 18 21h37q18 0 18 -21v-1177q0 -133 -82 -205q-12 -8 -49 -38t-56.5 -48.5t-37.5 -53t-18 -73.5q0 -117 139 -117h78q20 0 20 -20v-17q0 -20 -22 -20h-88q-88 0 -138.5 43 t-50.5 120q0 82 64 152q-78 -18 -195 -18q-436 0 -436 295z" />
<glyph unicode="&#x173;" horiz-adv-x="1114" d="M184 231v816q0 18 19 18h35q18 0 18 -18v-801q0 -92 57.5 -145.5t178.5 -53.5q201 0 356 137v863q0 18 18 18h35q18 0 19 -18v-1027q0 -20 -19 -20h-4q-76 -20 -117 -67.5t-41 -92.5q0 -96 135 -96h37q20 0 21 -20v-17q0 -20 -23 -20h-47q-182 0 -182 145q0 66 50 118 t124 85l-6 82q-156 -133 -371 -133q-145 0 -219 66t-74 181z" />
<glyph unicode="&#x174;" horiz-adv-x="1691" d="M61 1456q-2 5 -2 9q0 12 19 12h35q18 0 24 -21l301 -1186l33 -145l6 27q4 27 13.5 60.5t15.5 57.5l303 1186q8 20 22 21h35q14 0 23 -21l303 -1186l11 -55q7 -35 13.5 -57.5t8.5 -28.5q16 84 32 141l306 1186q6 20 22 21h33q16 0 16 -13q0 -4 -2 -8l-366 -1436 q-6 -20 -25 -20h-37q-16 0 -22 20l-308 1201q-20 76 -28 125q0 -2 -4 -20.5l-10.5 -49.5t-12.5 -55l-307 -1201q-6 -20 -25 -20h-36q-16 0 -23 20zM631 1630l172 256q16 20 31 21h28q16 0 29 -19l172 -258q5 -7 5 -11q0 -7 -13 -7h-31q-12 0 -25 18l-151 223l-150 -223 q-14 -18 -24 -18h-31q-15 0 -15 8q0 4 3 10z" />
<glyph unicode="&#x175;" horiz-adv-x="1347" d="M49 1047q-4 18 17 18h36q14 0 21 -18l233 -863l19 -82q0 10 22 82l238 863q6 18 20 18h45q18 0 25 -18l229 -863l21 -75q0 12 18 75l238 863q6 18 22 18h33q16 0 12 -18l-284 -1027q-6 -20 -23 -20h-39q-14 0 -20 20l-234 859q-12 37 -22 96q0 -2 -10.5 -41t-14.5 -57 l-243 -857q-6 -20 -21 -20h-37q-16 0 -22 20zM459 1262l170 256q12 18 28 18h29q18 0 31 -16l174 -258q3 -6 3 -11q0 -10 -15 -10h-31q-12 0 -25 21l-149 223l-152 -223q-10 -20 -24 -21h-31q-13 0 -13 8q0 5 5 13z" />
<glyph unicode="&#x176;" horiz-adv-x="1087" d="M51 1456q-2 5 -2 10q0 11 17 11h40q14 0 25 -21l383 -706l31 -66q0 8 30 66l388 706q10 20 22 21h35q17 0 17 -11q0 -4 -3 -10l-452 -833v-603q0 -20 -19 -20h-35q-20 0 -20 20v596zM326 1630l172 256q14 20 30 21h27q18 0 29 -19l174 -258q4 -7 3 -11q0 -8 -11 -7h-31 q-14 0 -27 18l-149 223l-150 -223q-16 -18 -26 -18h-31q-14 0 -14 8q1 4 4 10z" />
<glyph unicode="&#x177;" horiz-adv-x="884" d="M49 1047q-2 5 -2 8q0 10 16 10h37q16 0 23 -18l295 -852l26 -95q0 25 27 95l293 852q6 18 22 18h37q15 0 15 -9q0 -4 -2 -9l-508 -1483q-8 -20 -23 -21h-29q-23 0 -14 21l146 438zM227 1262l172 256q10 18 29 18h29q18 0 28 -16l174 -258q4 -7 5 -12q0 -9 -15 -9h-31 q-12 0 -26 21l-150 223l-149 -223q-10 -20 -27 -21h-28q-14 0 -14 9q0 5 3 12z" />
<glyph unicode="&#x178;" horiz-adv-x="1087" d="M51 1456q-2 5 -2 10q0 11 17 11h40q14 0 25 -21l383 -706l31 -66q0 8 30 66l388 706q10 20 22 21h35q17 0 17 -11q0 -4 -3 -10l-452 -833v-603q0 -20 -19 -20h-35q-20 0 -20 20v596zM418 1651v215q0 16 18 16h25q16 0 16 -16v-215q0 -20 -16 -21h-25q-18 1 -18 21z M608 1651v215q0 16 19 16h24q16 0 17 -16v-215q0 -20 -17 -21h-24q-19 1 -19 21z" />
<glyph unicode="&#x179;" horiz-adv-x="1097" d="M133 20v25q0 8 6 23l727 1343h-676q-18 0 -18 21v24q0 20 18 21h750q20 0 21 -21v-24q0 -10 -7 -19l-733 -1347h752q18 0 18 -21v-25q0 -20 -18 -20h-821q-19 0 -19 20zM537 1628l168 262q12 16 24 17h41q15 0 16 -10q0 -4 -4 -11l-180 -264q-12 -10 -22 -10h-35 q-12 0 -12 7q0 3 4 9z" />
<glyph unicode="&#x17a;" horiz-adv-x="993" d="M121 20v23q0 8 10 25l606 936h-571q-20 0 -21 18v27q0 16 21 16h645q20 0 20 -16v-23q0 -12 -4 -18l-614 -945h625q20 0 20 -20v-23q0 -20 -20 -20h-697q-20 0 -20 20zM442 1260l170 262q10 14 25 14h41q14 0 14 -8q0 -4 -4 -10l-180 -265q-10 -12 -23 -12h-34 q-12 0 -12 8q-1 4 3 11z" />
<glyph unicode="&#x17b;" horiz-adv-x="1097" d="M133 20v25q0 8 6 23l727 1343h-676q-18 0 -18 21v24q0 20 18 21h750q20 0 21 -21v-24q0 -10 -7 -19l-733 -1347h752q18 0 18 -21v-25q0 -20 -18 -20h-821q-19 0 -19 20zM512 1655v164q0 20 20 20h35q18 0 19 -20v-164q0 -20 -19 -21h-35q-20 1 -20 21z" />
<glyph unicode="&#x17c;" horiz-adv-x="993" d="M121 20v23q0 8 10 25l606 936h-571q-20 0 -21 18v27q0 16 21 16h645q20 0 20 -16v-23q0 -12 -4 -18l-614 -945h625q20 0 20 -20v-23q0 -20 -20 -20h-697q-20 0 -20 20zM461 1300v162q0 20 18 21h35q20 0 21 -21v-162q0 -20 -21 -20h-35q-18 0 -18 20z" />
<glyph unicode="&#x17d;" horiz-adv-x="1097" d="M133 20v25q0 8 6 23l727 1343h-676q-18 0 -18 21v24q0 20 18 21h750q20 0 21 -21v-24q0 -10 -7 -19l-733 -1347h752q18 0 18 -21v-25q0 -20 -18 -20h-821q-19 0 -19 20zM336 1925q-3 7 -4 11q0 9 14 10h29q16 0 26 -21l150 -223l149 223q14 20 27 21h31q15 0 14 -9 q0 -5 -4 -12l-174 -258q-10 -16 -29 -16h-28q-18 0 -29 18z" />
<glyph unicode="&#x17e;" horiz-adv-x="993" d="M121 20v23q0 8 10 25l606 936h-571q-20 0 -21 18v27q0 16 21 16h645q20 0 20 -16v-23q0 -12 -4 -18l-614 -945h625q20 0 20 -20v-23q0 -20 -20 -20h-697q-20 0 -20 20zM285 1518q-4 7 -4 10q0 8 12 8h31q14 0 26 -18l150 -224l149 224q12 18 27 18h29q15 0 15 -9 q0 -4 -3 -9l-174 -258q-10 -18 -31 -19h-29q-16 0 -26 21z" />
<glyph unicode="&#x17f;" horiz-adv-x="663" d="M72 1022v18q0 18 16 19l123 4h27v209q0 123 84 188.5t286 65.5h8q18 0 19 -19v-24q0 -20 -19 -21h-8q-166 0 -232.5 -50t-66.5 -144v-1248q0 -20 -18 -20h-35q-18 0 -18 20v984h-150q-16 0 -16 18z" />
<glyph unicode="&#x192;" horiz-adv-x="1167" d="M92 -428q0 20 19 20h14q164 0 236.5 51.5t84.5 145.5l127 1028h-233q-18 0 -18 19v24q0 18 18 19h240l49 403q31 254 399 254h10q18 0 19 -18v-25q0 -18 -19 -18h-16q-299 0 -322 -199l-49 -397h242q18 0 18 -19v-24q0 -18 -18 -19h-248l-127 -1032q-14 -121 -105 -188.5 t-294 -67.5h-8q-18 0 -19 20v23z" />
<glyph unicode="&#x1fa;" horiz-adv-x="1107" d="M63 20l447 1436q6 20 27 21h36q16 0 25 -21l449 -1436q1 -5 1 -8q0 -12 -16 -12h-39q-14 0 -20 20l-146 455h-551l-141 -455q-6 -20 -24 -20h-33q-16 0 -16 12q0 3 1 8zM295 539h514l-205 661q-45 137 -53 189q0 -2 -7 -37t-18.5 -78t-19.5 -68zM362 1733v24 q0 152 177 158l102 162q10 16 23 16h41q23 0 12 -20l-113 -162q141 -23 141 -154v-24q0 -160 -191.5 -160t-191.5 160zM418 1737q0 -113 136 -113t136 113v14q0 115 -136 115t-136 -115v-14z" />
<glyph unicode="&#x1fb;" horiz-adv-x="1079" d="M154 229v117q0 111 66.5 177.5t189.5 66.5h417v235q0 92 -64.5 144.5t-229 52.5t-229 -51t-64.5 -144v-39q0 -20 -21 -20h-31q-18 0 -18 20v41q0 121 81 187.5t282.5 66.5t283.5 -66.5t82 -187.5v-809q0 -20 -20 -20h-27q-20 0 -21 20l-4 97q-170 -133 -381 -133 q-147 0 -219.5 66t-72.5 179zM223 238q0 -88 58.5 -140.5t177.5 -52.5q203 0 368 137v348h-405q-96 0 -147.5 -52t-51.5 -140v-100zM350 1368v29q0 150 178 155l152 234q10 16 22 16h43q14 0 14 -9q0 -5 -3 -11l-162 -234q135 -25 135 -151v-29q0 -154 -188 -154 q-191 0 -191 154zM401 1372q0 -111 140 -110q137 0 137 110v19q0 113 -137 112q-139 0 -140 -112v-19z" />
<glyph unicode="&#x1fc;" horiz-adv-x="1824" d="M66 20l829 1436q8 20 25 21h735q18 0 18 -21v-22q0 -20 -18 -21h-686v-602h647q18 0 18 -18v-25q0 -18 -18 -18h-647v-687h714q18 0 19 -18v-25q0 -20 -19 -20h-755q-29 0 -29 20v455h-500l-262 -455q-12 -20 -24 -20h-33q-18 0 -18 10q0 4 4 10zM436 539h463v807 l-72 -127zM967 1628l168 262q12 16 24 17h41q15 0 15 -9q0 -5 -5 -12l-178 -264q-12 -10 -22 -10h-35q-13 0 -13 6q0 4 5 10z" />
<glyph unicode="&#x1fd;" horiz-adv-x="1714" d="M154 229v93q0 109 67.5 177t188.5 68h417v275q0 182 -295 182q-166 0 -229 -51t-63 -144v-41q0 -20 -21 -20h-31q-18 0 -18 20v43q0 121 82 186.5t283 65.5q270 0 327 -139q70 139 336 139q203 0 286 -66.5t83 -187.5v-270q0 -18 -17 -18h-651v-312q0 -90 67.5 -139 t231.5 -49q299 0 299 199v55q0 18 21 18h30q18 0 19 -18v-57q0 -254 -369 -254q-305 0 -358 159q-184 -160 -394 -159q-147 0 -219.5 66t-72.5 179zM223 238q0 -90 58.5 -142.5t177.5 -52.5q184 0 368 162v305h-407q-94 0 -145.5 -53.5t-51.5 -137.5v-81zM840 1260l170 262 q10 14 24 14h41q20 0 10 -18l-180 -265q-10 -12 -22 -12h-35q-12 0 -12 8q0 4 4 11zM899 598h598v229q0 197 -299 197t-299 -197v-229z" />
<glyph unicode="&#x1fe;" horiz-adv-x="1263" d="M197 1194q0 295 434 295q199 0 305 -57l33 67q12 25 28 25h17q18 0 8 -25l-45 -94q92 -76 92 -211v-920q0 -139 -99.5 -218t-338.5 -79q-193 0 -301 58l-33 -68q-10 -25 -29 -24h-16q-20 0 -8 24l45 96q-92 72 -92 211v920zM268 281q0 -94 54 -148l583 1233 q-88 57 -274 57q-362 0 -363 -237v-905zM360 100q90 -57 271 -57q362 0 362 238v905q0 92 -51 147zM600 1628l168 262q12 16 25 17h41q15 0 14 -9q0 -5 -4 -12l-180 -264q-10 -10 -21 -10h-35q-13 0 -13 6q0 4 5 10z" />
<glyph unicode="&#x1ff;" horiz-adv-x="1091" d="M172 238v591q0 254 373 254q168 0 258 -47l37 64q12 25 30 24h21q18 0 4 -24l-53 -90q78 -61 78 -181v-591q0 -254 -375 -254q-172 0 -260 49l-35 -62q-12 -23 -29 -22h-16q-25 0 -10 22l51 88q-74 62 -74 179zM244 242q0 -72 39 -119l485 854q-78 45 -223 45 q-301 0 -301 -197v-583zM319 92q74 -47 226 -47q303 0 303 197v583q0 76 -43 121zM518 1260l170 262q10 14 25 14h41q14 0 13 -8q0 -4 -3 -10l-180 -265q-10 -12 -21 -12h-35q-14 0 -13 8q0 5 3 11z" />
<glyph unicode="&#x218;" horiz-adv-x="1216" d="M178 279v106q0 18 19 18h34q20 0 21 -18v-100q0 -113 81 -175.5t278.5 -62.5t280.5 62.5t83 175.5v176q0 143 -178 213l-420 160q-76 29 -130 92t-54 159v113q0 139 94 217t327.5 78t328.5 -78t95 -217v-111q0 -18 -20 -18h-35q-18 0 -18 18v105q0 115 -78 175t-271 60 q-197 0 -274.5 -60t-77.5 -175v-96q0 -141 150 -199l426 -164q209 -82 209 -262v-192q0 -295 -437 -295q-434 0 -434 295zM528 -401q4 8 17.5 37.5t17.5 37t12.5 29t10.5 34.5t4 33.5t2 45.5v55q0 20 20 20h27q18 0 18 -20v-57q0 -106 -75 -238q-7 -12 -17 -12q-4 0 -8 2 l-22 6q-10 5 -11 14q0 6 4 13z" />
<glyph unicode="&#x219;" horiz-adv-x="1001" d="M141 207v61q0 18 19 19h33q18 0 18 -19v-59q0 -76 74.5 -122t224 -46t225.5 46t76 122v113q0 104 -143 145l-344 104q-63 18 -116.5 71.5t-53.5 127.5v92q0 100 87 160.5t267 60.5t268 -60t88 -161v-76q0 -16 -20 -16h-33q-14 0 -14 16v76q0 76 -72 120t-217 44 q-285 0 -285 -164v-80q0 -57 41 -96t94 -55l344 -103q80 -25 129.5 -73.5t49.5 -118.5v-129q0 -100 -93.5 -161.5t-277.5 -61.5t-276.5 61.5t-92.5 161.5zM420 -403q4 8 17.5 37.5t17.5 36.5t12 28.5t10 35t4 34t2 45.5v55q0 20 21 20h26q18 0 19 -20v-57q0 -106 -76 -238 q-7 -12 -17 -12q-4 0 -7 2l-23 6q-10 5 -10 14q0 6 4 13z" />
<glyph unicode="&#x237;" d="M-131 -412q0 18 20 19h9q166 0 231.5 52t65.5 146v1242q0 18 20 18h35q18 0 18 -18v-1248q0 -121 -84 -188.5t-286 -67.5h-9q-20 0 -20 21v24z" />
<glyph unicode="&#x2c6;" horiz-adv-x="741" d="M154 1262l172 256q10 18 28 18h29q18 0 29 -16l174 -258q4 -7 4 -12q0 -9 -15 -9h-30q-12 0 -27 21l-149 223l-150 -223q-10 -20 -26 -21h-29q-14 0 -14 9q1 5 4 12z" />
<glyph unicode="&#x2c7;" horiz-adv-x="741" d="M154 1518q-3 6 -4 10q0 8 14 8h29q16 0 26 -18l150 -224l149 224q14 18 27 18h30q15 0 15 -8q0 -4 -4 -10l-174 -258q-10 -18 -29 -19h-29q-18 0 -28 21z" />
<glyph unicode="&#x2d8;" horiz-adv-x="841" d="M186 1444v37q0 18 21 18h20q20 0 21 -18v-37q0 -88 34.5 -132t139 -44t138.5 44t34 132v37q0 18 18 18h25q16 0 16 -18v-37q0 -111 -50 -169t-184 -58t-183.5 57t-49.5 170z" />
<glyph unicode="&#x2d9;" horiz-adv-x="509" d="M217 1300v162q0 20 21 21h32q20 0 21 -21v-162q0 -20 -21 -20h-32q-21 0 -21 20z" />
<glyph unicode="&#x2da;" horiz-adv-x="827" d="M223 1368v29q0 156 190.5 155.5t190.5 -155.5v-29q0 -154 -190.5 -154t-190.5 154zM276 1372q0 -111 137.5 -110.5t137.5 110.5v19q0 113 -137.5 112.5t-137.5 -112.5v-19z" />
<glyph unicode="&#x2db;" horiz-adv-x="483" d="M104 -168q0 127 164 205q14 6 24 6q6 0 11 -2l21 -10q23 -14 0 -23q-78 -25 -117 -75t-39 -93q0 -96 135 -96h43q18 0 19 -20v-17q0 -20 -19 -20h-53q-189 0 -189 145z" />
<glyph unicode="&#x2dc;" horiz-adv-x="931" d="M186 1292v33q0 178 138 178q49 0 106 -47l102 -88q45 -37 76 -37q45 0 61.5 26.5t16.5 108.5v19q0 18 19 18h22q18 0 18 -20v-33q-2 -178 -135 -178q-55 0 -108 45l-103 90q-41 37 -73 37q-45 0 -61.5 -27.5t-16.5 -107.5v-19q0 -18 -21 -18h-20q-21 0 -21 20z" />
<glyph unicode="&#x2dd;" horiz-adv-x="747" d="M174 1262l135 256q8 18 27 18h33q23 0 14 -18l-145 -256q-12 -20 -27 -21h-29q-11 0 -11 9q0 5 3 12zM334 1262l168 256q10 18 30 18h33q14 0 14 -8q0 -4 -4 -10l-178 -261q-10 -16 -26 -16h-29q-12 0 -12 9q0 5 4 12z" />
<glyph unicode="&#x394;" horiz-adv-x="792" d="M188 512v328q0 45 43 45h332q43 0 43 -45v-328q0 -45 -43 -45h-332q-43 0 -43 45z" />
<glyph unicode="&#x3a9;" horiz-adv-x="792" d="M150 674.5q0 101.5 72.5 174.5t173 73t174 -73t73.5 -173.5t-72.5 -173t-175.5 -72.5q-100 0 -172.5 71.5t-72.5 173zM186 676q0 -90 61.5 -150.5t147.5 -60.5t148.5 60.5t62.5 150.5q0 86 -62.5 147.5t-148.5 61.5t-147.5 -61.5t-61.5 -147.5z" />
<glyph unicode="&#x3bc;" horiz-adv-x="1114" d="M184 -434v1481q0 18 19 18h35q18 0 18 -18v-801q0 -92 57.5 -145.5t178.5 -53.5q201 0 356 137v863q0 18 18 18h35q18 0 19 -18v-1027q0 -20 -19 -20h-29q-18 0 -18 20l-6 97q-156 -133 -371 -133q-164 0 -227 94l6 -512q0 -20 -18 -21h-35q-19 1 -19 21z" />
<glyph unicode="&#x3c0;" horiz-adv-x="792" d="M145 913h498q14 0 22 -10q5 -7 5 -16q0 -4 -1 -8q-3 -14 -12 -31l-229 -375q-10 -17 -29 -17h-3q-22 1 -31 17l-232 375q-14 19 -14 37q0 28 26 28z" />
<glyph unicode="&#x1e80;" horiz-adv-x="1691" d="M61 1456q-2 5 -2 9q0 12 19 12h35q18 0 24 -21l301 -1186l33 -145l6 27q4 27 13.5 60.5t15.5 57.5l303 1186q8 20 22 21h35q14 0 23 -21l303 -1186l11 -55q7 -35 13.5 -57.5t8.5 -28.5q16 84 32 141l306 1186q6 20 22 21h33q16 0 16 -13q0 -4 -2 -8l-366 -1436 q-6 -20 -25 -20h-37q-16 0 -22 20l-308 1201q-20 76 -28 125q0 -2 -4 -20.5l-10.5 -49.5t-12.5 -55l-307 -1201q-6 -20 -25 -20h-36q-16 0 -23 20zM627 1886q-5 8 -6 13q0 8 16 8h41q16 0 22 -17l170 -262q4 -6 4 -9q0 -7 -12 -7h-33q-18 0 -22 10z" />
<glyph unicode="&#x1e81;" horiz-adv-x="1347" d="M49 1047q-4 18 17 18h36q14 0 21 -18l233 -863l19 -82q0 10 22 82l238 863q6 18 20 18h45q18 0 25 -18l229 -863l21 -75q0 12 18 75l238 863q6 18 22 18h33q16 0 12 -18l-284 -1027q-6 -20 -23 -20h-39q-14 0 -20 20l-234 859q-12 37 -22 96q0 -2 -10.5 -41t-14.5 -57 l-243 -857q-6 -20 -21 -20h-37q-16 0 -22 20zM459 1518q-7 7 -7 11q0 7 15 7h41q12 0 24 -14l168 -262q5 -7 5 -12q0 -7 -13 -7h-33q-16 0 -20 12z" />
<glyph unicode="&#x1e82;" horiz-adv-x="1691" d="M61 1456q-2 5 -2 9q0 12 19 12h35q18 0 24 -21l301 -1186l33 -145l6 27q4 27 13.5 60.5t15.5 57.5l303 1186q8 20 22 21h35q14 0 23 -21l303 -1186l11 -55q7 -35 13.5 -57.5t8.5 -28.5q16 84 32 141l306 1186q6 20 22 21h33q16 0 16 -13q0 -4 -2 -8l-366 -1436 q-6 -20 -25 -20h-37q-16 0 -22 20l-308 1201q-20 76 -28 125q0 -2 -4 -20.5l-10.5 -49.5t-12.5 -55l-307 -1201q-6 -20 -25 -20h-36q-16 0 -23 20zM823 1628l168 262q12 16 25 17h41q15 0 15 -10q0 -4 -3 -11l-180 -264q-12 -10 -23 -10h-35q-13 0 -12 6q-1 4 4 10z" />
<glyph unicode="&#x1e83;" horiz-adv-x="1347" d="M49 1047q-4 18 17 18h36q14 0 21 -18l233 -863l19 -82q0 10 22 82l238 863q6 18 20 18h45q18 0 25 -18l229 -863l21 -75q0 12 18 75l238 863q6 18 22 18h33q16 0 12 -18l-284 -1027q-6 -20 -23 -20h-39q-14 0 -20 20l-234 859q-12 37 -22 96q0 -2 -10.5 -41t-14.5 -57 l-243 -857q-6 -20 -21 -20h-37q-16 0 -22 20zM653 1260l170 262q10 14 23 14h43q14 0 13 -8q0 -4 -3 -10l-180 -265q-10 -12 -23 -12h-34q-12 0 -12 8q-1 4 3 11z" />
<glyph unicode="&#x1e84;" horiz-adv-x="1691" d="M61 1456q-2 5 -2 9q0 12 19 12h35q18 0 24 -21l301 -1186l33 -145l6 27q4 27 13.5 60.5t15.5 57.5l303 1186q8 20 22 21h35q14 0 23 -21l303 -1186l33 -145q14 78 32 145l306 1186q6 20 22 21h33q16 0 16 -13q0 -4 -2 -8l-366 -1436q-6 -20 -25 -20h-37q-16 0 -22 20 l-308 1201q-20 76 -28 125q0 -2 -4 -20.5l-10.5 -49.5t-12.5 -55l-307 -1201q-6 -20 -25 -20h-36q-16 0 -23 20zM719 1651v215q0 16 18 16h25q18 0 18 -16v-215q0 -20 -18 -21h-25q-18 1 -18 21zM909 1651v215q0 16 21 16h22q18 0 19 -16v-215q0 -20 -19 -21h-22 q-21 1 -21 21z" />
<glyph unicode="&#x1e85;" horiz-adv-x="1347" d="M49 1047q-4 18 17 18h36q14 0 21 -18l233 -863l19 -82q0 10 22 82l238 863q6 18 20 18h45q18 0 25 -18l229 -863l21 -75q0 12 18 75l238 863q6 18 22 18h33q16 0 12 -18l-284 -1027q-6 -20 -23 -20h-39q-14 0 -20 20l-234 859q-12 37 -22 96q0 -2 -10.5 -41t-14.5 -57 l-243 -857q-6 -20 -21 -20h-37q-16 0 -22 20zM547 1288v215q0 18 20 19h23q18 0 18 -19v-215q0 -20 -18 -20h-23q-20 0 -20 20zM737 1288v215q0 18 21 19h24q16 0 17 -19v-215q0 -20 -17 -20h-24q-21 0 -21 20z" />
<glyph unicode="&#x1ef2;" horiz-adv-x="1087" d="M51 1456q-2 5 -2 10q0 11 17 11h40q14 0 25 -21l383 -706l31 -66q0 8 30 66l388 706q10 20 22 21h35q17 0 17 -11q0 -4 -3 -10l-452 -833v-603q0 -20 -19 -20h-35q-20 0 -20 20v596zM309 1886q-7 8 -6 13q0 7 14 8h41q14 0 25 -17l168 -262q5 -6 5 -10q0 -6 -13 -6h-33 q-14 0 -23 10z" />
<glyph unicode="&#x1ef3;" horiz-adv-x="884" d="M49 1047q-2 5 -2 8q0 10 16 10h37q16 0 23 -18l295 -852l26 -95q14 59 27 95l293 852q6 18 22 18h37q15 0 15 -9q0 -4 -2 -9l-508 -1483q-8 -20 -23 -21h-29q-23 0 -14 21l146 438zM221 1518q-6 7 -5 11q0 7 13 7h41q14 0 25 -14l170 -262q4 -7 4 -11q0 -8 -12 -8h-33 q-16 0 -23 12z" />
<glyph unicode="&#x2000;" horiz-adv-x="1044" />
<glyph unicode="&#x2001;" horiz-adv-x="2091" />
<glyph unicode="&#x2002;" horiz-adv-x="1044" />
<glyph unicode="&#x2003;" horiz-adv-x="2091" />
<glyph unicode="&#x2004;" horiz-adv-x="696" />
<glyph unicode="&#x2005;" horiz-adv-x="522" />
<glyph unicode="&#x2006;" horiz-adv-x="348" />
<glyph unicode="&#x2007;" horiz-adv-x="348" />
<glyph unicode="&#x2008;" horiz-adv-x="260" />
<glyph unicode="&#x2009;" horiz-adv-x="417" />
<glyph unicode="&#x200a;" horiz-adv-x="114" />
<glyph unicode="&#x2010;" horiz-adv-x="1013" d="M195 616v25q0 18 20 18h584q20 0 20 -18v-25q0 -18 -20 -18h-584q-20 0 -20 18z" />
<glyph unicode="&#x2011;" horiz-adv-x="1013" d="M195 616v25q0 18 20 18h584q20 0 20 -18v-25q0 -18 -20 -18h-584q-20 0 -20 18z" />
<glyph unicode="&#x2012;" horiz-adv-x="1013" d="M195 616v25q0 18 20 18h584q20 0 20 -18v-25q0 -18 -20 -18h-584q-20 0 -20 18z" />
<glyph unicode="&#x2013;" horiz-adv-x="1200" d="M195 616v25q0 18 20 18h770q20 0 21 -18v-25q0 -18 -21 -18h-770q-20 0 -20 18z" />
<glyph unicode="&#x2014;" horiz-adv-x="1869" d="M195 616v25q0 18 20 18h1440q18 0 18 -18v-25q0 -18 -18 -18h-1440q-20 0 -20 18z" />
<glyph unicode="&#x2018;" horiz-adv-x="444" d="M180 1196v127q0 168 162 227q6 2 10 2q10 0 15 -10l10 -26q3 -5 2 -10q0 -10 -12 -17q-113 -53 -113 -170v-123q0 -18 -21 -18h-32q-21 0 -21 18z" />
<glyph unicode="&#x2019;" horiz-adv-x="442" d="M66 1214q-2 4 -2 8q0 10 12 17q113 55 112 170v123q0 20 21 20h35q18 0 18 -20v-125q0 -170 -162 -227q-6 -3 -11 -3q-10 0 -13 11z" />
<glyph unicode="&#x201a;" horiz-adv-x="442" d="M66 -135q-2 4 -2 8q0 11 12 18q113 55 112 170v123q0 20 21 21h35q18 0 18 -21v-125q0 -170 -162 -229q-5 -2 -9 -2q-11 0 -15 12z" />
<glyph unicode="&#x201c;" horiz-adv-x="708" d="M180 1196v127q0 168 162 227q6 2 10 2q10 0 15 -10l10 -26q8 -16 -10 -27q-113 -53 -113 -170v-123q0 -18 -21 -18h-32q-21 0 -21 18zM446 1196v127q0 168 164 227q5 2 9 2q10 0 16 -10l10 -26q2 -4 2 -9q0 -11 -12 -18q-115 -53 -115 -170v-123q0 -18 -18 -18h-35 q-21 0 -21 18z" />
<glyph unicode="&#x201d;" horiz-adv-x="708" d="M66 1214q-2 4 -2 8q0 10 12 17q113 55 112 170v123q0 20 21 20h35q18 0 18 -20v-125q0 -170 -162 -227q-6 -3 -11 -3q-10 0 -13 11zM332 1214q-2 4 -2 8q0 10 12 17q115 55 115 170v123q0 20 18 20h35q20 0 20 -20v-125q0 -170 -163 -227q-5 -3 -10 -3q-9 0 -15 11z" />
<glyph unicode="&#x201e;" horiz-adv-x="708" d="M66 -135q-2 4 -2 8q0 11 12 18q113 55 112 170v123q0 20 21 21h35q18 0 18 -21v-125q0 -170 -162 -229q-5 -2 -9 -2q-11 0 -15 12zM332 -135q-2 4 -2 8q0 11 12 18q115 55 115 170v123q0 20 18 21h35q20 0 20 -21v-125q0 -170 -163 -229q-4 -2 -9 -2q-10 0 -16 12z" />
<glyph unicode="&#x2020;" horiz-adv-x="1134" d="M221 1026v27q0 20 21 20h233q18 0 19 -20v-27q0 -16 -19 -16h-233q-21 0 -21 16zM532 20v1477q0 20 19 21h35q18 0 18 -21v-1477q0 -20 -18 -20h-35q-19 0 -19 20zM643 1026v27q0 20 19 20h233q18 0 18 -20v-27q0 -16 -18 -16h-233q-19 0 -19 16z" />
<glyph unicode="&#x2021;" horiz-adv-x="1134" d="M221 467v27q0 18 21 18h233q18 0 19 -18v-27q0 -20 -19 -21h-233q-21 1 -21 21zM221 1026v27q0 20 21 20h233q18 0 19 -20v-27q0 -16 -19 -16h-233q-21 0 -21 16zM532 20v1477q0 20 19 21h35q18 0 18 -21v-1477q0 -20 -18 -20h-35q-19 0 -19 20zM643 467v27q0 18 19 18 h233q18 0 18 -18v-27q0 -20 -18 -21h-233q-19 1 -19 21zM643 1026v27q0 20 19 20h233q18 0 18 -20v-27q0 -16 -18 -16h-233q-19 0 -19 16z" />
<glyph unicode="&#x2022;" horiz-adv-x="516" d="M221 428v260q0 20 21 21h34q18 0 19 -21v-260q0 -20 -19 -20h-34q-21 0 -21 20z" />
<glyph unicode="&#x2026;" horiz-adv-x="1515" d="M184 20v164q0 20 21 21h35q18 0 18 -21v-164q0 -20 -18 -20h-35q-21 0 -21 20zM723 20v164q0 20 20 21h33q20 0 21 -21v-164q0 -20 -21 -20h-33q-20 0 -20 20zM1260 20v164q0 20 18 21h35q20 0 20 -21v-164q0 -20 -20 -20h-35q-18 0 -18 20z" />
<glyph unicode="&#x202f;" horiz-adv-x="417" />
<glyph unicode="&#x2030;" horiz-adv-x="2224" d="M201 1055v250q0 184 266 184t266 -184v-250q0 -184 -266 -184t-266 184zM262 1057q0 -129 205 -129q201 0 201 129v248q0 131 -201 131q-205 0 -205 -131v-248zM424 20l637 1436q10 20 26 21h29q20 0 12 -21l-636 -1436q-10 -20 -27 -20h-33q-13 0 -13 8q0 4 5 12z M836 168v250q0 184 267 184t267 -184v-250q0 -184 -267 -184t-267 184zM899 168q0 -131 203 -131t203 131v246q0 131 -203 131t-203 -131v-246zM1491 168v250q0 184 270 184q264 0 264 -184v-250q0 -184 -264 -184q-147 0 -208.5 47t-61.5 137zM1554 168q0 -131 205 -131 q201 0 201 131v246q0 131 -201 131q-205 0 -205 -131v-246z" />
<glyph unicode="&#x2039;" horiz-adv-x="845" d="M203 516v31q0 12 16 26l406 310q4 4 8 4q2 0 5 -1q7 -3 7 -12v-45q0 -10 -20 -26l-361 -271l361 -272q20 -14 20 -29v-41q0 -14 -8 -13q-5 0 -12 5l-406 310q-16 12 -16 24z" />
<glyph unicode="&#x203a;" horiz-adv-x="845" d="M203 190v41q0 14 18 29l361 272l-361 271q-18 16 -18 26v45q0 8 6 12q2 1 4 1l8 -4l406 -310q18 -14 18 -26v-31q0 -12 -18 -24l-406 -310q-7 -6 -11 -5q-7 -1 -7 13z" />
<glyph unicode="&#x2044;" horiz-adv-x="933" d="M115 20l639 1436q8 20 26 21h27q17 0 16 -11q0 -4 -2 -10l-639 -1436q-8 -20 -26 -20h-33q-12 0 -12 8q0 5 4 12z" />
<glyph unicode="&#x205f;" horiz-adv-x="522" />
<glyph unicode="&#x20ac;" horiz-adv-x="1392" d="M201 606v17q0 20 18 20h121v195h-121q-18 0 -18 18v16q0 20 18 21h121v305q0 139 95 217t331 78q240 0 335 -78t95 -217v-115q0 -20 -18 -20h-35q-18 0 -19 20v107q0 115 -78.5 176t-276.5 61t-277.5 -61t-79.5 -176v-297h409q18 0 19 -21v-16q0 -18 -19 -18h-409v-195 h409q18 0 19 -20v-17q0 -18 -19 -18h-409v-301q0 -115 79.5 -177.5t277.5 -62.5t276.5 62.5t78.5 177.5v133q0 16 19 16h35q18 0 18 -16v-141q0 -139 -95 -217t-335 -78q-236 0 -331 77.5t-95 217.5v309h-121q-18 0 -18 18z" />
<glyph unicode="&#x2113;" horiz-adv-x="1081" d="M4 461q-3 6 -3 11q0 10 11 13q135 47 318 142v557q0 139 67.5 217t237.5 78q166 0 232.5 -78t66.5 -217q0 -311 -533 -594v-326q0 -94 68 -147.5t229 -53.5h191q18 0 18 -20v-23q0 -20 -18 -20h-191q-203 0 -285.5 67.5t-82.5 186.5v299q-170 -88 -289 -127q-14 -4 -25 8 zM401 666q463 252 463 516q0 113 -49 173t-181 60t-182.5 -60.5t-50.5 -174.5v-514z" />
<glyph unicode="&#x2122;" horiz-adv-x="1904" d="M221 1436v24q0 16 19 17h583q16 0 17 -17v-24q0 -16 -17 -17h-260v-813q0 -16 -14 -16h-37q-14 0 -14 16v813h-258q-19 1 -19 17zM948 606v854q0 16 15 17h30q14 0 17 -9l286 -620q10 -23 19 -53l10 24q8 23 12 29l285 620q2 8 14 9h33q16 0 17 -17v-854q0 -16 -17 -16 h-33q-14 0 -14 16v735l-4 -10q-4 -12 -9 -24.5t-7 -18.5l-250 -549q-6 -14 -21 -14h-31q-10 0 -20 14l-254 553q-4 6 -16 49v-735q0 -16 -17 -16h-30q-15 0 -15 16z" />
<glyph unicode="&#x2126;" horiz-adv-x="792" d="M150 674.5q0 101.5 72.5 174.5t173 73t174 -73t73.5 -173.5t-72.5 -173t-175.5 -72.5q-100 0 -172.5 71.5t-72.5 173zM186 676q0 -90 61.5 -150.5t147.5 -60.5t148.5 60.5t62.5 150.5q0 86 -62.5 147.5t-148.5 61.5t-147.5 -61.5t-61.5 -147.5z" />
<glyph unicode="&#x212e;" horiz-adv-x="1806" d="M121 737.5q0 313.5 222 534.5t533.5 221t533.5 -221t222 -535q0 -35 -35 -35h-1300v-372q96 -141 247.5 -224t332.5 -83q315 0 540 243q10 12 22.5 12.5t12.5 -16.5q0 -10 -14 -31q-100 -115 -248 -181t-313 -66q-311 0 -533.5 220t-222.5 533.5zM297 739h1163v396 q-98 145 -251.5 231t-332 86t-330 -83t-249.5 -224v-406z" />
<glyph unicode="&#x2202;" horiz-adv-x="792" d="M190 432v498q0 20 20.5 23t43.5 -9l375 -231q18 -12 19 -33t-19 -31l-375 -229q-14 -10 -28.5 -13.5t-25 4t-10.5 21.5z" />
<glyph unicode="&#x2206;" horiz-adv-x="792" d="M188 512v328q0 45 43 45h332q43 0 43 -45v-328q0 -45 -43 -45h-332q-43 0 -43 45z" />
<glyph unicode="&#x220f;" horiz-adv-x="792" d="M124 481q0 17 11 31l232 377q10 16 30.5 16t30.5 -16l231 -377q8 -12 12 -27q1 -5 1 -9q0 -9 -4 -16q-6 -11 -21 -11h-497q-26 0 -26 32z" />
<glyph unicode="&#x2211;" horiz-adv-x="792" d="M166 713l375 231q14 8 28 10q4 1 7 1q10 0 18 -5q10 -6 10 -20v-498q0 -14 -10 -21q-7 -5 -16 -5q-4 0 -9 1q-14 3 -28 13l-375 229q-20 10 -20 29q0 22 20 35z" />
<glyph unicode="&#x2212;" horiz-adv-x="1284" d="M197 721v24q0 18 18 19h856q16 0 16 -19v-24q0 -20 -16 -21h-856q-18 1 -18 21z" />
<glyph unicode="&#x221a;" horiz-adv-x="792" d="M170 512v328q0 63 61 63h332q61 0 62 -63v-328q0 -63 -62 -63h-332q-61 0 -61 63zM207 512q0 -27 24 -27h332q25 0 25 27v328q0 29 -25 28h-332q-25 0 -24 -28v-328z" />
<glyph unicode="&#x221e;" horiz-adv-x="792" d="M96 678q0 12 25 43l231 231q18 23 45 23t45 -23l232 -231q23 -29 22 -43q0 -18 -22 -47l-232 -232q-20 -25 -44.5 -24.5t-45.5 24.5l-231 232q-25 31 -25 47zM137 678q0 -12 8 -21l236 -231q10 -12 16 -12t17 12l235 231q8 8 8 21q0 8 -8 16l-235 236q-8 8 -16.5 8 t-16.5 -8l-236 -236q-8 -8 -8 -16z" />
<glyph unicode="&#x222b;" horiz-adv-x="792" d="M70 675q0 136 94 232.5t231 96.5t233.5 -97.5t96.5 -230.5q0 -137 -96.5 -231.5t-233.5 -94.5t-231 94.5t-94 230.5z" />
<glyph unicode="&#x2248;" horiz-adv-x="1032" d="M197 444v33q0 182 133 182q45 0 108 -38l176 -105q57 -31 88 -31q47 0 60.5 28t13.5 105v23q0 16 21 16h22q16 0 17 -18v-35q0 -182 -127 -182q-51 0 -119 41l-178 106q-47 25 -78 25q-45 0 -61.5 -26.5t-16.5 -104.5v-21q0 -18 -23 -18h-18q-18 0 -18 20zM197 756v32 q0 182 133 183q45 0 108 -39l176 -105q57 -31 88 -30q47 0 60.5 27.5t13.5 105.5v20q0 18 21 19h22q16 0 17 -21v-35q0 -182 -127 -182q-51 0 -119 41l-178 107q-47 27 -78 26q-45 0 -61.5 -26.5t-16.5 -106.5v-18q0 -20 -23 -21h-18q-18 0 -18 23z" />
<glyph unicode="&#x2260;" horiz-adv-x="1284" d="M197 543v26q0 16 18 17h334l115 291h-449q-18 0 -18 20v23q0 20 18 20h475l66 166q6 18 26 18h29q23 0 14 -18l-65 -166h311q16 0 16 -20v-23q0 -20 -16 -20h-338l-115 -291h453q16 0 16 -17v-26q0 -20 -16 -21h-479l-64 -164q-8 -20 -26 -20h-31q-20 0 -10 20l65 164 h-311q-18 1 -18 21z" />
<glyph unicode="&#x2264;" horiz-adv-x="1187" d="M195 840v39q0 14 20 22l760 307q6 3 10 4q9 0 8 -16v-37q0 -14 -18 -22l-705 -277l705 -278q18 -6 18 -23v-37q0 -20 -18 -12l-760 309q-20 9 -20 21zM197 315v23q0 20 20 20h758q18 0 18 -20v-23q0 -20 -18 -20h-758q-20 0 -20 20z" />
<glyph unicode="&#x2265;" horiz-adv-x="1187" d="M197 315v23q0 20 18 20h758q18 0 18 -20v-23q0 -20 -18 -20h-758q-18 0 -18 20zM197 522v37q0 18 18 25l705 276l-705 277q-18 8 -18 22v37q0 17 10 17q4 0 8 -3l760 -309q18 -6 18 -22v-39q0 -10 -18 -21l-760 -309q-5 -2 -8 -2q-10 0 -10 14z" />
<glyph unicode="&#x25ca;" horiz-adv-x="792" d="M117 678q0 12 18 31l232 231q16 14 30.5 14t30.5 -14l231 -231q18 -18 19 -31q0 -16 -19 -33l-231 -233q-18 -16 -30.5 -16.5t-30.5 16.5l-232 233q-18 17 -18 33z" />
<glyph unicode="&#xe000;" horiz-adv-x="1065" d="M0 1065h1065v-1065h-1065v1065z" />
<glyph horiz-adv-x="0" />
<glyph horiz-adv-x="559" d="M168 -88l18 37l18 37l11 29q8 22 10 35t4 33.5t2 45.5v55q0 20 21 21h27q18 0 18 -21v-59q0 -104 -76 -236q-7 -13 -16 -12q-4 0 -8 2l-23 6q-10 5 -10 14q0 6 4 13z" />
<glyph horiz-adv-x="524" d="M221 1628l170 262q10 16 23 17h43q14 0 13 -9q0 -5 -3 -12l-180 -264q-10 -10 -23 -10h-35q-12 0 -11 7q-1 3 3 9z" />
<glyph horiz-adv-x="524" d="M-41 1726v21q0 18 18 18h572q20 0 20 -18v-21q0 -20 -20 -20h-572q-18 0 -18 20z" />
<glyph horiz-adv-x="524" d="M29 1851v37q0 18 18 19h25q16 0 16 -19v-39q0 -84 35 -129t139.5 -45t139 45t34.5 129v39q0 18 19 19h22q18 0 19 -19v-37q0 -113 -50.5 -171t-185.5 -58q-131 0 -181 58t-50 171z" />
<glyph horiz-adv-x="524" d="M45 1886q-3 6 -3 11q0 10 15 10h29q12 0 27 -21l149 -223l150 223q14 20 26 21h31q12 0 12 -9q0 -5 -4 -12l-174 -258q-10 -16 -27 -16h-28q-16 0 -31 18z" />
<glyph horiz-adv-x="524" d="M72 1733v24q0 158 191.5 158t191.5 -158v-24q0 -160 -191.5 -160t-191.5 160zM125 1737q0 -113 137 -113t137 113v14q0 115 -137 115t-137 -115v-14z" />
<glyph horiz-adv-x="524" d="M45 1630l172 256q14 20 31 21h28q16 0 27 -19l174 -258q4 -7 4 -11q0 -8 -12 -7h-31q-12 0 -26 18l-150 223l-149 -223q-14 -18 -27 -18h-29q-15 0 -15 8q0 4 3 10z" />
<glyph horiz-adv-x="524" d="M-16 1669v33q0 178 135 178q55 0 106 -45l103 -90q45 -37 75 -37q45 0 61.5 27.5t16.5 107.5v19q0 18 21 18h20q18 0 19 -20v-31q-2 -178 -135 -178q-53 0 -109 45l-100 88q-45 37 -76 37q-45 0 -61.5 -27t-16.5 -106v-21q0 -18 -18 -18h-23q-18 0 -18 20z" />
<glyph horiz-adv-x="524" d="M137 1651v215q0 16 19 16h24q16 0 17 -16v-215q0 -20 -17 -21h-24q-19 1 -19 21zM328 1651v215q0 16 20 16h23q18 0 18 -16v-215q0 -20 -18 -21h-23q-20 1 -20 21z" />
<glyph horiz-adv-x="524" d="M225 1655v164q0 20 21 20h35q18 0 18 -20v-164q0 -20 -18 -21h-35q-21 1 -21 21z" />
<glyph horiz-adv-x="524" d="M143 1886q-6 8 -5 13q0 8 14 8h41q16 0 24 -17l170 -262q3 -5 3 -9q0 -7 -13 -7h-31q-16 0 -22 10z" />
<glyph horiz-adv-x="524" d="M61 1630l136 256q12 20 26 21h35q23 0 10 -21l-143 -256q-8 -18 -25 -18h-30q-12 0 -12 7q-1 4 3 11zM223 1630l166 256q10 20 33 21h33q12 0 12 -9q0 -5 -4 -12l-178 -260q-10 -14 -25 -14h-31q-10 0 -10 7q0 4 4 11z" />
<glyph horiz-adv-x="3237" d="M154 549q0 59 39.5 103t109.5 44q43 0 66.5 -20.5t23.5 -46.5q0 -51 -55 -70q-35 -12 -94 -12q4 -47 55 -47q37 0 70 18q18 -10 18 -35q0 -8 -6 -17t-30.5 -20.5t-65.5 -11.5q-61 0 -96 32t-35 83zM164 0v16h2904v-16h-2904zM164 1149v16h2904v-16h-2904zM242 573 q80 0 80 46q0 29 -29 28q-43 0 -51 -74zM426 680q51 16 70 16q23 0 22 -18v-88l18 42q9 22 31.5 43t48.5 21q63 0 64 -69v-37q31 106 96 106q61 0 62 -69v-107l6 -69q-51 -16 -68 -17q-23 0 -22 17v143q0 35 -19 35q-14 0 -35.5 -38t-19.5 -65l4 -75q-53 -16 -68 -17 q-25 0 -24 17v143q0 35 -16.5 35t-37 -38t-20.5 -65l8 -75q-53 -16 -69 -17q-25 0 -25 17v151zM827 717v8q0 43 27 43h37l-8 66q53 18 69 18q25 0 25 -18v-64h102v-6q0 -45 -26 -45h-76v-187q0 -35 29 -34q18 0 40.5 17t22.5 38v55l-8 72q53 16 69 16q25 0 25 -18v-143 q0 -33 15.5 -33t36 38t20.5 66l-4 74q51 16 67 16q23 0 23 -18v-215l55 6v133l-6 78q51 16 70 16q23 0 22 -18v-88q37 104 102 104q37 0 61.5 -28.5t24.5 -81.5q0 -147 -188 -148v-86l6 -69q-51 -18 -69 -19q-23 0 -23 19v161l-55 -6v-6q0 -172 -148 -172q-45 0 -66.5 22.5 t-21.5 51.5q0 78 152 114v93q-37 -104 -101 -105q-59 0 -59 68v6q-43 -72 -117 -72q-61 0 -61 66v219zM1137 352q0 -31 30 -30q55 0 60 100q-90 -21 -90 -70zM1454 475q98 12 98 111q0 43 -28.5 43t-49 -40t-20.5 -63v-51zM1671 549q0 59 40 103t110 44q41 0 65.5 -20.5 t24.5 -46.5q0 -51 -56 -70q-35 -12 -94 -12q4 -47 56 -47q37 0 69 18q18 -10 19 -35q0 -8 -6.5 -17t-31 -20.5t-65.5 -11.5q-61 0 -96 32t-35 83zM1759 573q80 0 80 46q0 29 -29 28q-43 0 -51 -74zM1944 490.5q0 21.5 15 37t38.5 15.5t40 -15.5t16.5 -37t-16.5 -36 t-40 -14.5t-38.5 14.5t-15 36zM2085 680q51 16 69 16q23 0 23 -18v-88q37 106 98 106q63 0 64 -69v-107l4 -69q-53 -16 -68 -17q-25 0 -24 17v147q0 31 -16.5 31t-37 -38t-20.5 -65l6 -75q-51 -16 -69 -17q-23 0 -23 17v151zM2374 549q0 59 40 103t109 44q41 0 64.5 -20.5 t23.5 -46.5q0 -51 -53 -70q-35 -12 -96 -12q4 -47 57 -47q37 0 70 18q16 -10 16 -35q0 -8 -5 -17t-30.5 -20.5t-66.5 -11.5q-61 0 -95 32t-34 83zM2460 573q80 0 80 46q0 29 -29 28q-43 0 -51 -74zM2583 717v8q0 43 26 43h37l-6 66q51 18 70 18q25 0 24 -18v-64h100v-6 q0 -45 -24 -45h-76v-197q0 -31 35 -30q23 0 82 11t102 11q37 0 85 -13.5t48 -37.5q0 -31 -20.5 -46.5t-36.5 -15.5q-4 0 -57.5 27t-98.5 27q-14 0 -68.5 -9.5t-95 -9.5t-50 28t-11.5 142q0 70 -2 115z" />
</font>
</defs>
</svg>
