<?xml version="1.0" standalone="no"?>
<!DOCTYPE svg PUBLIC "-//W3C//DTD SVG 1.1//EN" "http://www.w3.org/Graphics/SVG/1.1/DTD/svg11.dtd" >
<svg xmlns="http://www.w3.org/2000/svg">
<metadata>
This is a custom SVG webfont generated by Font Squirrel.
Copyright   : Copyright c 2009 by Eduardo Manso All rights reserved
Designer    : Eduardo Manso
Foundry     : Eduardo Manso
Foundry URL : httpwwwemtypenet
</metadata>
<defs>
<font id="GeogrotesqueMedium" horiz-adv-x="503" >
<font-face units-per-em="2048" ascent="1536" descent="-512" />
<missing-glyph horiz-adv-x="448" />
<glyph unicode="&#xfb00;" horiz-adv-x="1359" d="M66 928v76q0 39 38 40l113 9h12v153q0 135 103.5 213t320.5 78h17q39 0 39 -41v-88q0 -43 -39 -43h-17q-219 0 -219 -141v-131h432v164q0 291 424 290h17q39 0 39 -39v-90q0 -43 -39 -43h-17q-219 0 -219 -141v-141h209q41 0 41 -39v-86q0 -41 -41 -41h-209v-844 q0 -43 -41 -43h-123q-41 0 -41 43v844h-432v-844q0 -43 -39 -43h-125q-41 0 -41 43v844h-125q-38 0 -38 41z" />
<glyph unicode="&#xfb01;" horiz-adv-x="1206" d="M51 928v76q0 39 41 40l111 9h14v143q0 293 422 293h348q39 0 39 -41v-88q0 -43 -39 -43h-348q-219 0 -219 -141v-123h596q41 0 41 -41v-969q0 -43 -39 -43h-123q-41 0 -41 43v844h-434v-844q0 -43 -39 -43h-125q-39 0 -39 43v844h-125q-41 0 -41 41z" />
<glyph unicode="&#xfb02;" horiz-adv-x="1206" d="M51 928v76q0 39 41 40l111 9h14v143q0 293 422 293h377q41 0 41 -41v-1405q0 -43 -39 -43h-123q-41 0 -41 43v1274h-215q-219 0 -219 -141v-123h209q41 0 41 -39v-86q0 -41 -41 -41h-209v-844q0 -43 -39 -43h-125q-39 0 -39 43v844h-125q-41 0 -41 41z" />
<glyph unicode="&#xfb03;" horiz-adv-x="1857" d="M66 928v76q0 39 38 40l113 9h12v153q0 135 103.5 213t320.5 78h17q39 0 39 -41v-88q0 -43 -39 -43h-17q-219 0 -219 -141v-131h434v143q0 293 422 293h348q43 0 43 -41v-88q0 -43 -43 -43h-348q-219 0 -219 -141v-123h596q43 0 43 -41v-969q0 -43 -39 -43h-125 q-41 0 -41 43v844h-434v-844q0 -43 -39 -43h-123q-41 0 -41 43v844h-434v-844q0 -43 -39 -43h-125q-41 0 -41 43v844h-125q-38 0 -38 41z" />
<glyph unicode="&#xfb04;" horiz-adv-x="1857" d="M66 928v76q0 39 40 40l111 9h14v153q0 291 422 291h17q41 0 41 -41v-88q0 -43 -41 -43h-17q-219 0 -219 -141v-131h434v143q0 293 424 293h375q43 0 43 -41v-1405q0 -43 -39 -43h-123q-41 0 -41 43v1274h-215q-219 0 -219 -141v-123h209q41 0 41 -39v-86q0 -41 -41 -41 h-209v-844q0 -43 -41 -43h-123q-41 0 -41 43v844h-434v-844q0 -43 -39 -43h-123q-41 0 -41 43v844h-125q-40 0 -40 41z" />
<glyph unicode=" "  horiz-adv-x="448" />
<glyph unicode="&#x09;" horiz-adv-x="448" />
<glyph unicode="&#xa0;" horiz-adv-x="448" />
<glyph unicode="!" horiz-adv-x="561" d="M174 41v170q0 41 41 41h129q39 0 39 -41v-170q0 -41 -39 -41h-129q-41 0 -41 41zM174 831v574q0 43 41 43h133q37 0 37 -43v-574l-18 -425q-2 -41 -39 -41h-95q-35 0 -36 41z" />
<glyph unicode="&#x22;" horiz-adv-x="833" d="M152 1405q-2 43 41 43h120q41 0 39 -43l-18 -354q0 -43 -37 -43h-88q-39 0 -41 43zM483 1405q-2 43 39 43h121q43 0 41 -43l-16 -354q0 -43 -41 -43h-88q-37 0 -39 43z" />
<glyph unicode="#" horiz-adv-x="1411" d="M162 471v68q0 39 41 39h162l57 200h-125q-41 0 -41 39v70q0 37 41 37h166l53 188q10 43 51 43h88q33 0 33 -27q0 -7 -2 -16l-53 -188h297l53 188q12 43 49 43h90q33 0 33 -27q0 -7 -2 -16l-53 -188h110q39 0 39 -37v-70q0 -39 -39 -39h-153l-56 -200h115q41 0 41 -39v-68 q0 -41 -41 -41h-158l-51 -184q-12 -43 -49 -43h-92q-32 0 -32 25q0 8 3 18l54 184h-299l-54 -184q-12 -43 -49 -43h-88q-33 0 -33 26q0 7 2 17l54 184h-121q-41 0 -41 41zM532 578h299l58 200h-299z" />
<glyph unicode="$" horiz-adv-x="1132" d="M162 434v53q0 39 37 39h112q37 0 37 -39v-45q0 -113 217 -112.5t217 112.5v58q0 66 -112 102l-320 111q-68 25 -118 83t-50 132v80q0 96 70 166.5t219 89.5v141q0 43 41 43h125q39 0 39 -43v-141q141 -23 209.5 -92.5t68.5 -163.5v-52q0 -39 -39 -38h-110q-37 0 -37 38 v52q0 113 -201 112q-199 0 -198 -112v-37q0 -68 90 -99l319 -110q190 -66 191 -209v-119q0 -92 -74 -160.5t-219 -89.5v-141q0 -43 -39 -43h-125q-41 0 -41 43v139q-158 18 -233.5 87t-75.5 165z" />
<glyph unicode="%" horiz-adv-x="1734" d="M162 1024v221q0 217 307 217t307 -217v-221q0 -219 -307 -219t-307 219zM330 1030q0 -86 138 -86t138 86v209q0 88 -138 88t-138 -88v-209zM445 15q-2 6 -2 12q0 9 6 16l663 1362q18 43 57 43h105q18 0 23.5 -12.5t-5.5 -30.5l-659 -1362q-23 -43 -58 -43h-106 q-19 0 -24 15zM961 199v221q0 219 307 219t307 -219v-221q0 -217 -307 -217t-307 217zM1128 207q0 -90 138.5 -90t138.5 90v209q0 84 -138.5 84t-138.5 -84v-209z" />
<glyph unicode="&#x26;" horiz-adv-x="1452" d="M162 303v215q0 190 190 244q-96 29 -135 84t-39 147v154q0 319 445 319q446 0 446 -327v-56q0 -39 -39 -39h-125q-39 0 -39 39v29q0 92 -55 136t-187 44t-186.5 -44t-54.5 -136v-90q0 -92 55.5 -135t194.5 -43h698q41 0 41 -41v-92q0 -39 -41 -39h-145v-363 q0 -147 -119 -236t-393 -89q-512 0 -512 319zM367 336q0 -180 308 -180t308 180v336h-367q-137 0 -193 -44t-56 -136v-156z" />
<glyph unicode="'" horiz-adv-x="501" d="M152 1405q-2 43 41 43h120q41 0 39 -43l-18 -354q-2 -43 -37 -43h-88q-39 0 -41 43z" />
<glyph unicode="(" horiz-adv-x="755" d="M162 -172v1389q0 291 422 290h16q41 0 41 -39v-90q0 -43 -41 -43h-16q-115 0 -164 -34.5t-49 -106.5v-1346q0 -70 49 -104.5t164 -34.5h16q41 0 41 -43v-90q0 -41 -41 -41h-16q-422 0 -422 293z" />
<glyph unicode=")" horiz-adv-x="755" d="M115 -334q0 43 41 43h14q115 0 164 35t49 104v1346q0 72 -49 106.5t-164 34.5h-14q-41 0 -41 43v90q0 39 41 39h14q422 0 422 -290v-1389q0 -293 -422 -293h-14q-41 0 -41 41v90z" />
<glyph unicode="*" horiz-adv-x="1112" d="M182 918q-6 13 -6 23q0 21 25 32l231 117l-231 122q-24 13 -24 33q0 9 5 21l31 59q11 24 30 24q12 0 25 -10l234 -151l-15 282q-2 39 41 39h64q41 0 39 -39l-15 -280l230 149q14 10 26 10q18 0 29 -24l29 -59q7 -12 7 -23q0 -19 -24 -31l-231 -122l231 -117 q24 -12 24 -32q0 -11 -7 -23l-29 -60q-11 -24 -29 -24q-12 0 -26 10l-228 147l13 -262q2 -43 -39 -43h-66q-41 0 -39 43l13 266l-232 -151q-13 -8 -23 -8q-19 0 -32 24z" />
<glyph unicode="+" horiz-adv-x="1214" d="M152 676v90q0 41 41 41h329v330q0 43 39 43h88q41 0 41 -43v-330h334q41 0 41 -41v-90q0 -41 -41 -41h-334v-330q0 -41 -41 -41h-88q-39 0 -39 41v330h-329q-41 0 -41 41z" />
<glyph unicode="," horiz-adv-x="493" d="M16 -106q-4 10 -3 18q0 24 30 33q102 41 102 129v137q0 41 37 41h131q39 0 39 -41v-148q0 -213 -254 -282q-8 -2 -14 -2q-27 0 -37 26z" />
<glyph unicode="-" horiz-adv-x="952" d="M152 571v88q0 39 41 39h569q41 0 41 -39v-88q0 -39 -41 -39h-569q-41 0 -41 39z" />
<glyph unicode="." horiz-adv-x="495" d="M145 41v170q0 41 39 41h129q39 0 39 -41v-170q0 -41 -39 -41h-129q-39 0 -39 41z" />
<glyph unicode="/" horiz-adv-x="782" d="M61 -272l447 1718q10 43 45 43h139q33 0 33 -28q0 -7 -2 -15l-444 -1718q-12 -43 -50 -43h-135q-35 0 -35 28q0 7 2 15z" />
<glyph unicode="0" horiz-adv-x="1171" d="M123 311v826q0 147 107.5 238t355.5 91q250 0 357.5 -91t107.5 -238v-826q0 -147 -107.5 -237t-357.5 -90q-248 0 -355.5 90t-107.5 237zM332 344q0 -90 58.5 -137t195.5 -47q256 0 256 184v760q0 184 -256 184q-137 0 -195.5 -47t-58.5 -137v-760z" />
<glyph unicode="1" horiz-adv-x="1171" d="M150 41v98q0 37 40 37h320v1055l-317 -62q-5 -1 -10 0q-31 0 -31 35v105q0 35 41 45l487 104q5 1 9 2q9 0 17 -6q11 -8 11 -33v-1245h313q41 0 41 -37v-98q0 -41 -41 -41h-840q-40 0 -40 41z" />
<glyph unicode="2" horiz-adv-x="1171" d="M137 1014v123q0 330 453 329q461 0 461 -329v-203q0 -219 -197 -291l-362 -129q-35 -14 -57.5 -25.5t-44 -39t-21.5 -68.5v-205h647q41 0 41 -37v-98q0 -41 -41 -41h-815q-41 0 -41 41v403q0 45 15 79t44 56.5t49.5 34t53.5 23.5l413 154q109 41 109 137v178 q0 90 -58.5 137t-194.5 47t-194.5 -47t-58.5 -137v-92q0 -43 -37 -43h-125q-39 0 -39 43z" />
<glyph unicode="3" horiz-adv-x="1171" d="M119 309v56q0 41 39 41h125q39 0 39 -41v-29q0 -180 256 -180q254 0 253 180v156q0 92 -55 136t-194 44h-179q-41 0 -41 39v92q0 41 41 41h164q135 0 190.5 43t55.5 135v90q0 92 -53 136t-185 44q-135 0 -189 -44t-54 -136v-29q0 -39 -41 -39h-123q-39 0 -39 39v56 q0 328 449 327q442 0 442 -319v-154q0 -92 -38 -147t-136 -84q188 -53 188 -244v-215q0 -319 -454 -319q-461 -1 -461 325z" />
<glyph unicode="4" horiz-adv-x="1171" d="M88 471v84q0 20 10 55l271 795q12 43 49 43h129q34 0 34 -25q0 -8 -3 -18l-275 -799h500v799q0 43 41 43h129q39 0 39 -43v-1362q0 -43 -39 -43h-129q-41 0 -41 43v387h-676q-39 0 -39 41z" />
<glyph unicode="5" horiz-adv-x="1171" d="M137 307v55q0 43 39 44h125q39 0 39 -44v-26q0 -90 55.5 -136t190.5 -46q137 0 191 45t54 137v231q0 166 -249 166h-363q-39 0 -39 43v629q0 43 39 43h739q43 0 43 -41v-94q0 -41 -43 -41h-569v-367h195q229 0 342.5 -84t113.5 -225v-289q0 -326 -451.5 -326t-451.5 326z " />
<glyph unicode="6" horiz-adv-x="1171" d="M137 311v836q0 137 101.5 228t347.5 91q442 0 442 -319v-47q0 -41 -39 -41h-125q-37 0 -37 41v16q0 176 -241 176q-244 0 -244 -176v-332q84 88 274 88q227 0 327.5 -90t100.5 -237v-234q0 -328 -453.5 -328t-453.5 328zM342 338q0 -90 56.5 -136t192.5 -46t191.5 46 t55.5 136v178q0 92 -55.5 138t-192.5 46q-248 0 -248 -168v-194z" />
<glyph unicode="7" horiz-adv-x="1171" d="M102 1313v94q0 41 43 41h895q39 0 39 -41v-84q0 -25 -8 -43l-532 -1237q-18 -43 -52 -43h-149q-33 0 -33 21q0 9 6 22l533 1229h-699q-43 0 -43 41z" />
<glyph unicode="8" horiz-adv-x="1171" d="M135 311v213q0 182 197 238q-178 53 -178 237v138q0 152 93 240.5t338.5 88.5t339 -89t93.5 -240v-138q0 -184 -178 -237q197 -55 196 -238v-213q0 -328 -450.5 -328t-450.5 328zM340 338q0 -90 54.5 -136t191.5 -46t192.5 46t55.5 136v154q0 92 -55.5 138t-192.5 46 t-191.5 -45t-54.5 -139v-154zM358 1030q0 -94 48.5 -139t179.5 -45t180 46t49 138v80q0 94 -49 138t-180 44t-179.5 -44t-48.5 -138v-80z" />
<glyph unicode="9" horiz-adv-x="1171" d="M127 903v234q0 330 457 329q451 0 450 -329v-834q0 -139 -100 -229t-346 -90q-442 0 -443 319v47q0 39 39 39h125q39 0 39 -39v-18q0 -84 53.5 -130t186.5 -46t187 46t54 130v330q-82 -86 -274 -87q-225 0 -326.5 91.5t-101.5 236.5zM334 934q0 -94 56 -140t194 -46 q131 0 188 45t57 131v186q0 92 -56 137t-189 45q-137 0 -193.5 -45t-56.5 -137v-176z" />
<glyph unicode=":" horiz-adv-x="495" d="M145 41v170q0 41 39 41h129q39 0 39 -41v-170q0 -41 -39 -41h-129q-39 0 -39 41zM145 844v170q0 43 39 43h129q39 0 39 -43v-170q0 -41 -39 -41h-129q-39 0 -39 41z" />
<glyph unicode=";" horiz-adv-x="591" d="M115 -106q-4 10 -4 18q0 24 30 33q57 23 80 53.5t23 75.5v137q0 41 39 41h129q37 0 37 -41v-148q0 -213 -252 -282q-8 -2 -15 -2q-27 0 -37 26zM244 844v170q0 43 39 43h129q37 0 37 -43v-170q0 -41 -37 -41h-129q-39 0 -39 41z" />
<glyph unicode="&#x3c;" horiz-adv-x="1132" d="M152 653v140q0 29 36 45l754 333q8 3 14 4q9 0 15 -7q10 -11 10 -35v-119q0 -18 -8 -27.5t-31 -17.5l-592 -246l592 -244q39 -16 39 -47v-119q0 -25 -10 -34q-6 -6 -14 -6q-7 0 -15 3l-754 332q-36 18 -36 45z" />
<glyph unicode="=" horiz-adv-x="1245" d="M152 449v92q0 39 41 39h862q41 0 41 -39v-92q0 -39 -41 -39h-862q-41 0 -41 39zM152 854v92q0 37 41 37h862q41 0 41 -37v-92q0 -41 -41 -41h-862q-41 0 -41 41z" />
<glyph unicode="&#x3e;" horiz-adv-x="1132" d="M152 311v123q0 23 8 31t33 16l591 242l-591 242q-41 16 -41 47v123q0 25 10 35q6 7 15 7q7 0 16 -4l753 -333q35 -16 35 -45v-144q0 -29 -35 -45l-753 -334q-9 -3 -16 -3q-9 0 -15 6q-10 11 -10 36z" />
<glyph unicode="?" horiz-adv-x="1204" d="M139 1014v123q0 147 107.5 238t353.5 91q463 0 467 -329v-133q0 -211 -184 -302l-119 -55q-96 -47 -96 -135v-106q0 -41 -39 -41h-133q-37 0 -37 41v157q0 129 135 197l170 88q96 53 96 149v109q0 184 -260 184t-260 -184v-92q0 -43 -37 -43h-125q-39 0 -39 43zM459 41 v170q0 41 37 41h133q39 0 39 -41v-170q0 -41 -39 -41h-133q-37 0 -37 41z" />
<glyph unicode="@" horiz-adv-x="1904" d="M174 137v799q0 70 17.5 126t68.5 112.5t134 95.5t225.5 61.5t335 22.5t333.5 -22.5t225 -61.5t135.5 -95.5t69 -112.5t17.5 -126v-559q0 -307 -330 -307q-209 0 -270 135q-158 -135 -340 -135q-256 0 -256 241q0 31 2 49l32 326q27 289 293 289q147 0 297 -113l8 56 q6 41 46 40h108q37 0 35 -40l-51 -502q-3 -26 -3 -49q0 -146 113 -146q117 0 117 185v520q0 86 -46 140t-177 88t-359 34q-332 0 -457.5 -65.5t-125.5 -196.5v-781q0 -131 126 -196.5t457 -65.5h383q41 0 41 -41v-88q0 -39 -41 -39h-383q-193 0 -335 23.5t-225 61.5 t-134 95.5t-68.5 113.5t-17.5 128zM741 369q0 -109 136 -109q96 0 229 78v24l35 340q-115 92 -215 93q-145 0 -160 -148l-23 -235q-2 -20 -2 -43z" />
<glyph unicode="A" horiz-adv-x="1144" d="M43 41l414 1366q12 41 51 41h131q39 0 51 -41l414 -1366q3 -9 3 -16q0 -25 -36 -25h-133q-37 0 -47 41l-100 330h-451l-96 -330q-12 -41 -47 -41h-125q-32 0 -32 24q0 8 3 17zM387 537h358l-118 387q-18 51 -37 164.5t-21 146.5q0 -2 -10 -62.5t-23.5 -132t-25.5 -112.5z " />
<glyph unicode="B" horiz-adv-x="1249" d="M174 43v1362q0 43 39 43h377q483 0 483 -309v-133q0 -176 -178 -246q240 -66 240 -260v-181q0 -319 -484 -319h-438q-39 0 -39 43zM381 823h223q262 0 262 187v98q0 86 -65.5 127t-210.5 41h-209v-453zM381 172h270q276 0 277 184v129q0 176 -277 177h-270v-490z" />
<glyph unicode="C" horiz-adv-x="1189" d="M152 311v826q0 330 471 329.5t471 -329.5v-105q0 -41 -39 -41h-125q-39 0 -39 41v72q0 184 -266 184q-264 0 -265 -184v-760q0 -184 265 -184q266 0 266 184v100q0 41 39 41h125q39 0 39 -41v-133q0 -328 -471 -328t-471 328z" />
<glyph unicode="D" horiz-adv-x="1294" d="M174 43v1362q0 43 39 43h444q256 0 371 -91t115 -237v-792q0 -145 -115 -236.5t-371 -91.5h-448q-35 0 -35 43zM381 176h276q279 0 279 186v723q0 186 -279 187h-276v-1096z" />
<glyph unicode="E" horiz-adv-x="1103" d="M174 43v1362q0 43 39 43h729q39 0 39 -41v-94q0 -41 -39 -41h-561v-430h522q43 0 43 -41v-92q0 -39 -43 -39h-522v-494h584q41 0 41 -37v-98q0 -41 -41 -41h-752q-39 0 -39 43z" />
<glyph unicode="F" horiz-adv-x="1114" d="M174 43v1362q0 43 39 43h782q39 0 39 -41v-94q0 -41 -39 -41h-614v-432h575q41 0 41 -41v-99q0 -41 -41 -41h-575v-616q0 -43 -39 -43h-129q-39 0 -39 43z" />
<glyph unicode="G" horiz-adv-x="1218" d="M152 311v826q0 330 471 329.5t471 -329.5v-93q0 -41 -39 -40h-125q-39 0 -39 40v60q0 184 -266 184q-264 0 -265 -184v-760q0 -184 265 -184q266 0 266 182v205h-254q-41 0 -41 41v98q0 39 41 39h416q41 0 41 -39v-375q0 -328 -471 -328t-471 328z" />
<glyph unicode="H" horiz-adv-x="1316" d="M174 43v1362q0 43 39 43h129q39 0 39 -43v-559h555v559q0 43 37 43h133q37 0 37 -43v-1362q0 -43 -37 -43h-133q-37 0 -37 43v627h-555v-627q0 -43 -39 -43h-129q-39 0 -39 43z" />
<glyph unicode="I" horiz-adv-x="555" d="M174 43v1362q0 43 39 43h129q39 0 39 -43v-1362q0 -43 -39 -43h-129q-39 0 -39 43z" />
<glyph unicode="J" horiz-adv-x="1073" d="M51 311v109q0 43 41 43h125q39 0 39 -43v-76q0 -90 52 -137t175 -47q121 0 170 47t49 137v1061q0 43 39 43h129q41 0 41 -43v-1094q0 -328 -428 -327q-432 -1 -432 327z" />
<glyph unicode="K" horiz-adv-x="1200" d="M174 41v1366q0 41 39 41h129q41 0 41 -41v-608h51l447 608q31 41 65 41h139q23 0 27 -12.5t-6 -28.5l-496 -672l553 -694q8 -11 8 -20q0 -5 -2 -9q-6 -12 -26 -12h-168q-33 0 -62 41l-477 602h-53v-602q0 -41 -41 -41h-129q-39 0 -39 41z" />
<glyph unicode="L" horiz-adv-x="1032" d="M174 43v1362q0 43 41 43h129q39 0 39 -43v-1229h545q41 0 41 -37v-98q0 -41 -41 -41h-719q-35 0 -35 43z" />
<glyph unicode="M" horiz-adv-x="1562" d="M174 41v1366q0 41 39 41h119q27 0 37 -23l368 -856q31 -80 45 -129q8 31 47 127l361 863q10 18 37 18h125q39 0 39 -41v-1366q0 -41 -39 -41h-125q-39 0 -39 41v977q0 -2 -19.5 -64.5t-31.5 -93.5l-246 -598q-18 -43 -53 -43h-111q-35 0 -51 43l-264 625 q-6 16 -15.5 38.5t-13.5 39.5l-8 32l-4 17v-973q0 -41 -39 -41h-119q-39 0 -39 41z" />
<glyph unicode="N" horiz-adv-x="1314" d="M174 41v1366q0 41 39 41h119q25 0 35 -16l514 -897l65 -138v1010q0 41 41 41h117q37 0 37 -41v-1366q0 -41 -37 -41h-117q-27 0 -39 18l-502 879q-16 27 -30.5 55.5t-22.5 47t-14 34.5l-8 17v-1010q0 -41 -39 -41h-119q-39 0 -39 41z" />
<glyph unicode="O" horiz-adv-x="1269" d="M152 311v826q0 145 113.5 237t369.5 92t370.5 -92t114.5 -237v-826q0 -145 -114.5 -236t-370.5 -91t-369.5 91t-113.5 236zM360 344q0 -184 275 -184q276 0 276 184v760q0 184 -276 184q-274 0 -275 -184v-760z" />
<glyph unicode="P" horiz-adv-x="1216" d="M174 43v1362q0 43 39 43h432q256 0 369.5 -91t113.5 -237v-254q0 -143 -113.5 -235t-369.5 -92h-264v-496q0 -43 -39 -43h-129q-39 0 -39 43zM381 715h264q276 0 277 186v184q0 186 -277 187h-264v-557z" />
<glyph unicode="Q" horiz-adv-x="1267" d="M152 311v826q0 145 113.5 237t369.5 92t370.5 -92t114.5 -237v-826q0 -256 -309 -313l262 -234q17 -16 18 -32q0 -14 -14 -27l-65 -72q-13 -15 -27 -14q-13 0 -29 12l-381 355q-223 10 -323 98t-100 227zM360 340q0 -184 275 -184q276 0 276 184v768q0 184 -276 184 q-274 0 -275 -184v-768z" />
<glyph unicode="R" horiz-adv-x="1263" d="M174 43v1362q0 43 39 43h432q256 0 369.5 -91t113.5 -237v-221q0 -227 -247 -299l254 -557q3 -9 3 -16q0 -10 -6 -16q-11 -11 -34 -11h-129q-25 0 -43 35q-2 6 -4 8l-240 530h-37h-264v-530q0 -43 -39 -43h-129q-39 0 -39 43zM381 750h264q276 0 277 186v149 q0 186 -277 187h-264v-522z" />
<glyph unicode="S" horiz-adv-x="1208" d="M131 311v123q0 43 41 43h127q37 0 37 -43v-96q0 -180 272 -180q276 0 277 180v100q0 49 -32 87t-61.5 52.5t-86.5 36.5l-361 138q-76 31 -132 100.5t-56 163.5v121q0 145 107.5 237t350 92t352 -92t109.5 -237v-93q0 -41 -39 -40h-125q-39 0 -39 40v66q0 180 -257 180 t-257 -180v-43q0 -102 109 -143l387 -146q233 -90 233 -291v-176q0 -145 -113.5 -236t-362.5 -91t-364.5 91t-115.5 236z" />
<glyph unicode="T" horiz-adv-x="1036" d="M33 1313v94q0 41 39 41h891q41 0 41 -41v-94q0 -41 -41 -41h-340v-1229q0 -43 -39 -43h-133q-37 0 -37 43v1229h-342q-39 0 -39 41z" />
<glyph unicode="U" horiz-adv-x="1292" d="M162 311v1094q0 43 41 43h129q39 0 39 -43v-1061q0 -184 274 -184q279 0 279 184v1061q0 43 39 43h131q37 0 36 -43v-1094q0 -145 -114.5 -236t-370.5 -91t-369.5 91t-113.5 236z" />
<glyph unicode="V" horiz-adv-x="1144" d="M43 1407q-3 9 -3 17q0 24 32 24h143q35 0 47 -41l264 -883q12 -41 24.5 -105.5t18.5 -109.5l6 -45q29 178 54 256l266 887q12 41 47 41h129q35 0 36 -25q0 -7 -3 -16l-414 -1366q-12 -41 -51 -41h-131q-39 0 -51 41z" />
<glyph unicode="W" horiz-adv-x="1738" d="M41 1407q-1 7 -1 13q0 28 32 28h133q39 0 49 -41l221 -885l35 -166q10 68 35 166l225 885q12 41 47 41h123q37 0 49 -41l221 -885l17 -82q8 -43 12 -73l4 -31q0 2 5 24.5t9.5 49t10.5 58.5t12 54l225 885q10 41 47 41h115q32 0 32 -28q0 -6 -1 -13l-346 -1366 q-8 -41 -52 -41h-126q-37 0 -48 41l-227 903q-8 29 -29 166q-14 -109 -28 -168l-232 -901q-8 -41 -47 -41h-129q-37 0 -47 41z" />
<glyph unicode="X" horiz-adv-x="1193" d="M71 15q-2 5 -2 11q0 10 7 21l399 696l-385 660q-11 18 -11 28q0 17 27 17h152q33 0 59 -41l289 -492l277 492q20 41 57 41h139q41 0 21 -41l-391 -668l409 -698q5 -11 6 -20q0 -5 -2 -9q-4 -12 -24 -12h-152q-37 0 -59 41l-305 514l-287 -514q-25 -41 -59 -41h-140 q-20 0 -25 15z" />
<glyph unicode="Y" horiz-adv-x="1126" d="M39 1407q-7 13 -7 21q0 20 36 20h147q29 0 49 -41l266 -561q23 -57 35 -96q0 4 11.5 40.5t21.5 55.5l285 561q20 41 45 41h131q34 0 34 -19q0 -9 -8 -22l-415 -832v-534q0 -41 -39 -41h-131q-39 0 -39 41v510z" />
<glyph unicode="Z" horiz-adv-x="1064" d="M92 41v98q0 14 10 35l605 1098h-539q-41 0 -41 41v94q0 41 41 41h750q43 0 43 -41v-90q0 -20 -9 -37l-612 -1104h614q41 0 41 -37v-98q0 -41 -41 -41h-823q-39 0 -39 41z" />
<glyph unicode="[" horiz-adv-x="804" d="M162 -408v1854q0 43 41 43h434q41 0 41 -41v-96q0 -39 -41 -39h-266v-1585h266q41 0 41 -41v-97q0 -39 -41 -39h-434q-41 0 -41 41z" />
<glyph unicode="\" horiz-adv-x="782" d="M61 1446q-2 8 -2 15q0 28 35 28h135q39 0 50 -43l444 -1718q2 -9 2 -16q0 -28 -33 -27h-139q-33 0 -45 43z" />
<glyph unicode="]" horiz-adv-x="804" d="M127 -313q0 41 41 41h264v1585h-264q-41 0 -41 39v96q0 41 41 41h434q39 0 39 -43v-1854q0 -41 -39 -41h-434q-41 0 -41 39v97z" />
<glyph unicode="^" horiz-adv-x="1202" d="M154 655l331 754q18 39 45 39h140q29 0 43 -39l336 -754q3 -8 3 -14q0 -9 -6 -15q-11 -11 -34 -12h-121q-29 0 -45 41l-248 588l-242 -588q-18 -41 -45 -41h-121q-23 0 -33 12q-7 7 -7 15q1 6 4 14z" />
<glyph unicode="_" horiz-adv-x="942" d="M47 -209q0 39 41 39h768q41 0 41 -39v-92q0 -39 -41 -39h-768q-41 0 -41 39v92z" />
<glyph unicode="`" horiz-adv-x="688" d="M170 1468q-11 14 -11 24q0 16 31 15h132q35 0 55 -37l125 -229q8 -13 8 -21q0 -15 -27 -16h-100q-29 0 -51 25z" />
<glyph unicode="a" horiz-adv-x="1085" d="M117 242v100q0 113 76.5 185.5t220.5 72.5h336v164q0 72 -46.5 108.5t-160.5 36.5q-117 0 -164 -33.5t-47 -105.5v-16q0 -43 -41 -43h-111q-37 0 -37 43v32q0 287 402.5 287t402.5 -287v-743q0 -43 -39 -43h-110q-39 0 -41 43l-4 61q-154 -121 -336 -120 q-143 0 -222 72.5t-79 185.5zM315 270q0 -119 154 -118q141 0 281 108v182h-293q-78 0 -110 -31.5t-32 -97.5v-43z" />
<glyph unicode="b" horiz-adv-x="1130" d="M152 43v1403q0 43 41 43h122q39 0 39 -43v-494q160 121 348 121q152 0 227 -76.5t75 -212.5v-512q0 -135 -75 -211.5t-227 -76.5q-195 0 -352 122l-6 -63q-2 -43 -39 -43h-112q-41 0 -41 43zM354 274q147 -109 289 -108q158 0 158 139v447q0 139 -158 139 q-147 0 -289 -111v-506z" />
<glyph unicode="c" horiz-adv-x="1030" d="M127 274v508q0 291 410 291q408 0 407 -291v-39q0 -41 -39 -41h-114q-41 0 -41 41v23q0 72 -47.5 106.5t-163.5 34.5q-115 0 -162 -34.5t-47 -106.5v-477q0 -70 47 -104.5t162 -34.5q117 0 164 34.5t47 104.5v43q0 41 41 41h114q39 0 39 -41v-58q0 -291 -409 -290 q-408 -1 -408 290z" />
<glyph unicode="d" horiz-adv-x="1130" d="M127 272v512q0 135 74.5 212t226.5 77q182 0 350 -121v494q0 43 37 43h125q39 0 39 -43v-1403q0 -43 -39 -43h-113q-39 0 -41 43l-4 63q-162 -123 -354 -122q-152 0 -226.5 76.5t-74.5 211.5zM330 305q0 -139 157 -139q141 0 291 108v506q-143 111 -291 111 q-158 0 -157 -139v-447z" />
<glyph unicode="e" horiz-adv-x="1052" d="M127 274v508q0 291 412 291q403 0 403 -291v-260q0 -39 -37 -39h-579v-196q0 -70 46 -106t166.5 -36t167 36t46.5 106v24q0 41 41 41h108q41 0 41 -41v-37q0 -291 -407.5 -291t-407.5 291zM326 635h426v133q0 143 -213 143t-213 -143v-133z" />
<glyph unicode="f" horiz-adv-x="708" d="M51 928v76q0 39 39 40l113 9h12v164q0 291 424 290h14q41 0 41 -39v-90q0 -43 -41 -43h-14q-219 0 -219 -141v-141h209q41 0 41 -39v-86q0 -41 -41 -41h-209v-844q0 -43 -41 -43h-123q-41 0 -41 43v844h-125q-39 0 -39 41z" />
<glyph unicode="g" horiz-adv-x="1130" d="M127 272v512q0 135 74.5 212t226.5 77q199 0 354 -127l4 68q2 43 41 43h113q39 0 39 -43v-1157q0 -291 -422 -291h-293q-43 0 -43 41v88q0 41 43 41h293q221 0 221 143v223q-162 -119 -350 -118q-152 0 -226.5 76.5t-74.5 211.5zM330 305q0 -139 157 -139q141 0 291 108 v506q-143 111 -291 111q-158 0 -157 -139v-447z" />
<glyph unicode="h" horiz-adv-x="1140" d="M152 43v1403q0 43 41 43h122q39 0 39 -43v-492q150 119 348 119q145 0 223.5 -75.5t78.5 -196.5v-758q0 -43 -39 -43h-123q-41 0 -41 43v709q0 141 -158 141q-150 0 -289 -109v-741q0 -43 -39 -43h-122q-41 0 -41 43z" />
<glyph unicode="i" d="M152 43v971q0 43 41 43h122q39 0 39 -43v-971q0 -43 -39 -43h-122q-41 0 -41 43zM152 1255v191q0 43 41 43h122q39 0 39 -43v-191q0 -41 -39 -41h-122q-41 0 -41 41z" />
<glyph unicode="j" horiz-adv-x="501" d="M-125 -305q0 41 39 41h18q219 0 220 143v1135q0 43 38 43h123q41 0 41 -43v-1157q0 -291 -422 -291h-18q-39 0 -39 41v88zM152 1255v191q0 43 38 43h125q39 0 39 -43v-191q0 -41 -39 -41h-125q-38 0 -38 41z" />
<glyph unicode="k" horiz-adv-x="1007" d="M152 41v1407q0 41 38 41h125q39 0 39 -41v-778h60l321 346q35 41 66 41h135q20 0 26.5 -14.5t-8.5 -28.5l-376 -416l417 -557q8 -11 9 -20q0 -5 -3 -9q-6 -12 -26 -12h-135q-31 0 -62 41l-362 475h-62v-475q0 -41 -39 -41h-125q-38 0 -38 41z" />
<glyph unicode="l" d="M152 43v1403q0 43 41 43h122q39 0 39 -43v-1403q0 -43 -39 -43h-122q-41 0 -41 43z" />
<glyph unicode="m" horiz-adv-x="1767" d="M152 43v973q0 41 41 41h112q37 0 39 -41l6 -68q145 125 340 125q203 0 273 -145q166 145 364 145q145 0 224 -75.5t79 -196.5v-758q0 -43 -41 -43h-121q-43 0 -43 43v709q0 141 -157 141q-156 0 -279 -111q2 -8 2 -28v-711q0 -43 -39 -43h-123q-41 0 -41 43v709 q0 141 -157 141q-150 0 -277 -109v-741q0 -43 -39 -43h-122q-41 0 -41 43z" />
<glyph unicode="n" horiz-adv-x="1140" d="M152 43v973q0 41 41 41h112q37 0 39 -41l6 -68q145 125 352 125q145 0 223.5 -75.5t78.5 -196.5v-758q0 -43 -39 -43h-123q-41 0 -41 43v709q0 141 -158 141q-150 0 -289 -109v-741q0 -43 -39 -43h-122q-41 0 -41 43z" />
<glyph unicode="o" horiz-adv-x="1105" d="M127 274v508q0 135 104.5 213t321.5 78t321.5 -77.5t104.5 -213.5v-508q0 -135 -104.5 -212.5t-321.5 -77.5t-321.5 77.5t-104.5 212.5zM330 291q0 -141 224 -141t224 141v473q0 143 -224 143t-224 -143v-473z" />
<glyph unicode="p" horiz-adv-x="1130" d="M152 -393v1407q0 43 41 43h112q37 0 39 -43l6 -66q160 125 352 125q152 0 227 -76.5t75 -212.5v-512q0 -135 -75 -211.5t-227 -76.5q-190 0 -348 118v-495q0 -41 -39 -41h-122q-41 0 -41 41zM354 274q147 -109 289 -108q158 0 158 139v447q0 139 -158 139 q-147 0 -289 -111v-506z" />
<glyph unicode="q" horiz-adv-x="1130" d="M127 272v512q0 135 74.5 212t226.5 77q188 0 354 -125l4 66q2 43 41 43h113q39 0 39 -43v-1407q0 -41 -39 -41h-125q-37 0 -37 41v495q-162 -119 -350 -118q-152 0 -226.5 76.5t-74.5 211.5zM330 305q0 -139 157 -139q141 0 291 108v506q-143 111 -291 111 q-158 0 -157 -139v-447z" />
<glyph unicode="r" horiz-adv-x="757" d="M152 43v973q0 41 41 41h112q37 0 39 -41l8 -92q147 150 332 149q43 0 43 -41v-96q0 -39 -43 -43q-188 -12 -330 -137v-713q0 -43 -39 -43h-122q-41 0 -41 43z" />
<glyph unicode="s" horiz-adv-x="995" d="M102 238v53q0 39 37 39h113q35 0 35 -39v-43q0 -113 218 -113t218 113v57q0 63 -115 103l-319 110q-66 23 -116 81t-50 134v78q0 111 93 186.5t294 75.5q197 0 291 -75.5t94 -186.5v-51q0 -37 -39 -37h-111q-37 0 -36 37v51q0 113 -201 113q-199 0 -199 -113v-35 q0 -70 88 -98l320 -111q193 -68 192 -209v-120q0 -109 -101 -181.5t-304 -72.5t-302.5 72.5t-99.5 181.5z" />
<glyph unicode="t" horiz-adv-x="753" d="M45 928v76q0 39 41 40l104 9h13v215q0 43 41 43h125q39 0 39 -43v-215h219q41 0 41 -39v-86q0 -41 -41 -41h-219v-574q0 -141 215 -141h39q41 0 40 -43v-88q0 -41 -40 -41h-70q-215 0 -302 71.5t-87 219.5v596h-117q-41 0 -41 41z" />
<glyph unicode="u" horiz-adv-x="1128" d="M139 254v760q0 43 37 43h125q39 0 39 -43v-709q0 -141 158 -141q145 0 278 106v744q0 43 37 43h127q37 0 37 -43v-973q0 -41 -37 -41h-117q-37 0 -39 41l-4 63q-143 -121 -342 -120q-141 0 -220 73.5t-79 196.5z" />
<glyph unicode="v" horiz-adv-x="958" d="M33 1014q-3 10 -3 17q0 26 38 26h131q31 0 47 -43l200 -611q18 -53 33 -157q12 94 37 155l213 613q14 43 45 43h117q38 0 38 -26q0 -8 -3 -17l-340 -975q-6 -23 -13.5 -31t-27.5 -8h-142q-20 0 -28 8t-15 31z" />
<glyph unicode="w" horiz-adv-x="1449" d="M33 1014q-3 9 -3 17q0 26 40 26h120q35 0 46 -43l178 -662q4 -16 7 -39.5t6 -39t3 -17.5l25 96l182 662q10 43 47 43h123q35 0 45 -43l166 -662q6 -25 10 -46l6 -33q2 -11 2 -13q0 16 23 92l176 662q10 43 45 43h102q39 0 40 -28q0 -7 -3 -15l-276 -975q-6 -23 -14.5 -31 t-26.5 -8h-148q-35 0 -43 39l-159 629q-20 68 -21 106l-26 -106l-181 -629q-8 -39 -41 -39h-145q-33 0 -41 39z" />
<glyph unicode="x" horiz-adv-x="995" d="M44 12q-2 4 -2 9q0 9 7 20l334 496l-324 477q-12 16 -6 29.5t29 13.5h135q33 0 59 -43l234 -336l219 336q27 43 59 43h121q20 0 25.5 -13.5t-6.5 -29.5l-324 -484l334 -489q7 -11 7 -20q0 -5 -2 -9q-5 -12 -28 -12h-135q-31 0 -57 41l-242 350l-233 -350q-29 -41 -58 -41 h-120q-21 0 -26 12z" />
<glyph unicode="y" horiz-adv-x="958" d="M33 1014q-3 10 -3 17q0 26 38 26h127q31 0 47 -43l204 -617q10 -25 17.5 -58.5t11.5 -62.5l4 -24q14 68 39 141l211 621q12 43 47 43h115q38 0 38 -26q0 -8 -3 -17l-482 -1407q-12 -41 -43 -41h-92q-41 0 -41 26q0 6 2 15l119 377z" />
<glyph unicode="z" horiz-adv-x="960" d="M88 41v86q0 18 8 31l494 731h-432q-41 0 -41 39v88q0 41 41 41h643q41 0 41 -41v-86q0 -20 -8 -31l-500 -733h502q39 0 38 -39v-86q0 -41 -38 -41h-709q-39 0 -39 41z" />
<glyph unicode="{" horiz-adv-x="954" d="M115 485v88q0 43 41 43h2q203 0 202 142v459q0 291 422 290h17q41 0 41 -39v-90q0 -43 -41 -43h-17q-115 0 -164 -34.5t-49 -106.5v-457q0 -162 -155 -207q156 -47 155 -208v-474q0 -70 49.5 -104.5t163.5 -34.5h17q41 0 41 -43v-90q0 -41 -41 -41h-17q-422 0 -422 293 v475q0 141 -202 141h-2q-41 0 -41 41z" />
<glyph unicode="|" horiz-adv-x="555" d="M174 -408v1854q0 43 41 43h129q39 0 39 -43v-1854q0 -41 -39 -41h-129q-41 0 -41 41z" />
<glyph unicode="}" horiz-adv-x="954" d="M115 -334q0 43 41 43h16q115 0 164 35t49 104v474q0 162 156 208q-156 45 -156 207v457q0 72 -49 106.5t-164 34.5h-16q-41 0 -41 43v90q0 39 41 39h16q422 0 422 -290v-459q0 -141 203 -142h2q41 0 41 -43v-88q0 -41 -41 -41h-2q-203 0 -203 -141v-475q0 -293 -422 -293 h-16q-41 0 -41 41v90z" />
<glyph unicode="~" horiz-adv-x="1050" d="M152 492l6 77q6 92 55 138.5t111 46.5q51 0 102 -23l192 -90q63 -31 91 -31q8 0 15 2t11 6.5t6 7.5t4.5 11t3.5 13t2 19.5t3 22.5l2 15q4 37 43 36h65q37 0 35 -47l-6 -75q-8 -98 -54 -143.5t-106 -45.5q-57 0 -119 29l-196 90q-53 25 -76 24q-27 0 -33 -14t-12 -61 l-2 -19q-4 -37 -45 -37h-66q-36 1 -32 48z" />
<glyph unicode="&#xa1;" horiz-adv-x="561" d="M174 225l21 426q2 41 36 41h95q37 0 39 -41l20 -426v-575q0 -41 -41 -41h-131q-39 0 -39 41v575zM176 846v170q0 41 39 41h129q41 0 41 -41v-170q0 -41 -41 -41h-129q-39 0 -39 41z" />
<glyph unicode="&#xa2;" horiz-adv-x="1140" d="M162 471v506q0 252 301 287v141q0 43 39 43h125q37 0 37 -43v-139q313 -33 313 -289v-37q0 -41 -37 -41h-117q-39 0 -39 41v23q0 70 -47 105.5t-164 35.5q-115 0 -161.5 -36t-46.5 -105v-478q0 -70 47 -105.5t161 -35.5q117 0 164 36t47 105v43q0 41 39 41h117 q37 0 37 -41v-57q0 -256 -313 -289v-139q0 -43 -37 -43h-125q-39 0 -39 43v139q-301 35 -301 289z" />
<glyph unicode="&#xa3;" horiz-adv-x="1429" d="M162 41v90q0 41 41 41h121v463h-121q-41 0 -41 41v90q0 39 41 39h121v344q0 317 442 317q446 0 446 -317v-68q0 -41 -38 -41h-121q-41 0 -41 41v31q0 92 -54.5 134t-189.5 42q-131 0 -183.5 -42t-52.5 -134v-307h287q41 0 41 -39v-90q0 -41 -41 -41h-287v-463h386 q154 0 153 207v14q0 43 41 43h117q41 0 41 -43v-14q0 -213 -78 -296t-223 -83h-766q-41 0 -41 41z" />
<glyph unicode="&#xa4;" horiz-adv-x="1390" d="M162 561v53q0 37 41 37h84v144h-84q-41 0 -41 41v53q0 37 41 37h84v211q0 330 471 329.5t471 -329.5v-105q0 -41 -39 -41h-123q-41 0 -41 41v72q0 184 -266 184q-264 0 -264 -184v-178h282q39 0 39 -37v-53q0 -41 -39 -41h-282v-144h282q39 0 39 -37v-53q0 -41 -39 -41 h-282v-176q0 -184 264 -184q266 0 266 184v100q0 41 41 41h123q39 0 39 -41v-133q0 -328 -471 -327.5t-471 327.5v209h-84q-41 0 -41 41z" />
<glyph unicode="&#xa5;" horiz-adv-x="1386" d="M168 1407q-5 11 -5 19q0 22 36 22h145q31 0 49 -41l266 -561l35 -94q14 57 35 94l283 561q18 41 47 41h129q35 0 35 -20q0 -9 -6 -21l-238 -467h131q41 0 41 -39v-53q0 -41 -41 -41h-197l-69 -143h266q41 0 41 -39v-54q0 -39 -41 -39h-311v-491q0 -41 -39 -41h-129 q-41 0 -41 41v491h-311q-41 0 -41 39v54q0 39 41 39h256l-70 143h-186q-41 0 -41 41v53q0 39 41 39h118z" />
<glyph unicode="&#xa6;" d="M152 287q0 43 41 43h122q39 0 39 -43v-695q0 -41 -39 -41h-122q-41 0 -41 41v695zM152 711v694q0 43 41 43h122q39 0 39 -43v-694q0 -41 -39 -41h-122q-41 0 -41 41z" />
<glyph unicode="&#xa7;" horiz-adv-x="1171" d="M174 -131q0 39 41 39h109q41 0 41 -39v-35q0 -70 50 -104.5t167 -34.5q217 0 217 141v158q0 68 -125 108l-281 82q-76 23 -134 88.5t-58 161.5v193q0 41 37 41h112q37 0 37 -41v-172q0 -47 34 -77t71 -42l301 -88q82 -27 144 -84.5t62 -159.5v-151q0 -133 -99 -213 t-314 -80q-412 0 -412 284v25zM174 1020v151q0 135 99.5 215t314.5 80q412 0 411 -286v-23q0 -41 -41 -41h-108q-41 0 -41 41v31q0 72 -49 105.5t-166 33.5t-168 -33.5t-51 -105.5v-158q0 -68 125 -108l280 -82q76 -23 134.5 -88.5t58.5 -161.5v-195q0 -39 -37 -39h-113 q-37 0 -37 39v176q0 84 -104 115l-301 92q-82 25 -144.5 82.5t-62.5 159.5z" />
<glyph unicode="&#xa8;" horiz-adv-x="739" d="M164 1257v201q0 41 41 41h74q39 0 38 -41v-201q0 -41 -38 -40h-74q-41 -1 -41 40zM422 1257v201q0 41 41 41h74q39 0 38 -41v-201q0 -41 -38 -40h-74q-41 -1 -41 40z" />
<glyph unicode="&#xa9;" horiz-adv-x="1593" d="M174 416v618q0 92 22.5 161t84 134.5t191.5 101t325 35.5q158 0 272.5 -25.5t182 -64.5t106.5 -98t51 -114.5t12 -129.5v-618q0 -92 -22.5 -160t-84 -135.5t-192.5 -102t-325.5 -34.5t-324.5 34.5t-191.5 102t-84 135.5t-22.5 160zM324 387q0 -272 473 -272 q475 0 475 272v676q0 272 -475 272q-473 0 -473 -274v-674zM469 557v332q0 139 73.5 208.5t256.5 69.5q184 0 256.5 -69.5t72.5 -208.5v-27q0 -41 -41 -41h-98q-41 0 -41 41v23q0 72 -31.5 106.5t-117.5 34.5t-117 -34t-31 -107v-320q0 -76 31 -109.5t117 -33.5t117.5 35 t31.5 108v35q0 43 41 43h98q41 0 41 -43v-43q0 -139 -72.5 -208.5t-256.5 -69.5q-182 0 -256 69.5t-74 208.5z" />
<glyph unicode="&#xaa;" horiz-adv-x="755" d="M117 967v57q0 70 50 114t140 44h180v102q0 70 -104 70t-104 -68v-12q0 -29 -27 -29h-88q-29 0 -29 29v18q0 82 64.5 128t187.5 46q252 0 252 -180v-438q0 -29 -29 -29h-84q-29 0 -30 29l-4 33q-84 -72 -191 -72q-92 0 -138 45t-46 113zM268 989q0 -68 74 -67q80 0 145 59 v98h-151q-68 0 -68 -65v-25z" />
<glyph unicode="&#xab;" horiz-adv-x="1234" d="M150 461v125q0 25 34 53l394 291q9 9 17 9q5 0 10 -3q13 -8 13 -29v-127q0 -31 -40 -63l-269 -195l269 -194q41 -27 40 -62v-127q0 -23 -13 -28q-5 -2 -10 -3q-9 0 -17 7l-394 291q-34 26 -34 55zM618 461v125q0 25 35 53l394 291q9 9 17 9q5 0 9 -3q12 -8 12 -29v-127 q0 -31 -38 -63l-269 -195l269 -194q39 -27 38 -62v-127q0 -23 -12 -28q-5 -2 -9 -3q-8 0 -17 7l-394 291q-35 26 -35 55z" />
<glyph unicode="&#xac;" horiz-adv-x="825" d="M160 675.5q0 104.5 73.5 177.5t178 73t177.5 -73t73 -177.5t-73 -178t-177.5 -73.5t-178 73.5t-73.5 178z" />
<glyph unicode="&#xad;" horiz-adv-x="952" d="M152 571v88q0 39 41 39h569q41 0 41 -39v-88q0 -39 -41 -39h-569q-41 0 -41 39z" />
<glyph unicode="&#xae;" horiz-adv-x="1345" d="M174 760v387q0 319 502 319q498 0 498 -319v-387q0 -319 -498 -320q-502 1 -502 320zM311 748q0 -184 365 -185q360 0 360 182v414q0 182 -360 182q-365 0 -365 -182v-411zM451 692v514q0 29 28 29h223q219 0 220 -166v-43q0 -106 -91 -143l76 -191q10 -31 -26 -30h-84 q-14 0 -29 30l-70 168h-108v-168q0 -31 -27 -30h-84q-28 -1 -28 30zM590 965h98q41 0 67.5 18t26.5 47v33q0 68 -94 67h-98v-165z" />
<glyph unicode="&#xaf;" horiz-adv-x="876" d="M139 1288v78q0 37 41 37h516q41 0 41 -37v-78q0 -39 -41 -39h-516q-41 0 -41 39z" />
<glyph unicode="&#xb0;" horiz-adv-x="888" d="M127 1042v203q0 106 72.5 161.5t245.5 55.5t245 -55t72 -162v-203q0 -106 -72 -162.5t-245 -56.5t-245.5 56.5t-72.5 162.5zM301 1051q0 -90 144.5 -90t144.5 90v188q0 88 -144.5 88t-144.5 -88v-188z" />
<glyph unicode="&#xb1;" horiz-adv-x="1214" d="M152 197v88q0 41 41 41h831q41 0 41 -41v-88q0 -43 -41 -43h-831q-41 0 -41 43zM152 766v92q0 39 41 39h329v233q0 41 39 41h88q41 0 41 -41v-233h334q41 0 41 -39v-92q0 -39 -41 -39h-334v-235q0 -43 -41 -43h-88q-39 0 -39 43v235h-329q-41 0 -41 39z" />
<glyph unicode="&#xb2;" horiz-adv-x="808" d="M115 1186v76q0 88 67.5 146t219 58t220 -58t68.5 -146v-109q0 -141 -119 -188l-229 -93q-53 -16 -53 -49v-108h379q29 0 28 -29v-70q0 -31 -28 -30h-508q-29 0 -29 30v234q0 35 15.5 59.5t32 34.5t42.5 21l256 102q57 23 58 76v94q0 100 -133.5 100t-133.5 -100v-51 q0 -31 -26 -31h-99q-28 0 -28 31z" />
<glyph unicode="&#xb3;" horiz-adv-x="806" d="M115 780v35q0 29 28 29h95q33 0 32 -29v-12q0 -100 133.5 -100.5t133.5 100.5v74q0 98 -131 98h-101q-33 0 -33 29v67q0 31 33 31h86q133 0 133 98v41q0 51 -28.5 75.5t-94.5 24.5q-127 0 -127 -100v-12q0 -27 -28 -27h-96q-31 0 -31 27v37q0 203 284 202q279 0 279 -200 v-92q0 -104 -98 -132q109 -39 108 -149v-119q0 -199 -286 -198q-156 0 -223.5 56t-67.5 146z" />
<glyph unicode="&#xb4;" horiz-adv-x="688" d="M184 1241l127 229q20 37 56 37h131q31 0 31 -15q0 -9 -11 -24l-162 -239q-16 -25 -51 -25h-98q-29 0 -29 17q-1 8 6 20z" />
<glyph unicode="&#xb5;" horiz-adv-x="1128" d="M139 -391v1405q0 43 37 43h125q39 0 39 -43v-709q0 -141 158 -141q145 0 278 106v744q0 43 37 43h127q37 0 37 -43v-973q0 -41 -37 -41h-117q-37 0 -39 41l-4 63q-143 -121 -342 -120q-53 0 -108 14l10 -389q0 -43 -37 -43h-127q-37 0 -37 43z" />
<glyph unicode="&#xb6;" horiz-adv-x="1415" d="M174 881v288q0 133 92 206t320 73h248q37 0 36 -41v-1798q0 -43 -36 -43h-132q-41 0 -40 43v991h-76q-227 0 -319.5 73t-92.5 208zM1034 -391v1796q0 43 41 43h131q37 0 37 -43v-1796q0 -43 -37 -43h-131q-41 0 -41 43z" />
<glyph unicode="&#xb7;" horiz-adv-x="495" d="M145 489v170q0 41 39 41h129q39 0 39 -41v-170q0 -41 -39 -40h-129q-39 -1 -39 40z" />
<glyph unicode="&#xb8;" horiz-adv-x="460" d="M10 -367q0 39 41 39h211q68 0 68 49q0 47 -68 48h-141q-35 0 -48.5 12t-6.5 39l51 194q10 37 43 37h4l57 -6q32 -3 32 -29q0 -9 -3 -20l-31 -107h72q80 0 131 -43t51 -125q0 -86 -51 -128t-131 -42h-240q-41 0 -41 39v43z" />
<glyph unicode="&#xb9;" horiz-adv-x="798" d="M115 618v70q0 27 30 27h177v594l-177 -31q-31 -6 -30 22v74q0 23 30 29l310 59q5 2 9 2q6 0 10 -4q7 -6 7 -24v-721h174q18 0 23.5 -5t5.5 -22v-70q0 -31 -29 -30h-510q-30 -1 -30 30z" />
<glyph unicode="&#xba;" horiz-adv-x="774" d="M115 991v291q0 86 68.5 135t203.5 49t202.5 -49t67.5 -135v-291q0 -182 -270 -182q-272 0 -272 182zM270 1008q0 -78 117 -78q115 0 115 78v260q0 76 -115 75q-117 0 -117 -75v-260z" />
<glyph unicode="&#xbb;" horiz-adv-x="1234" d="M150 154v127q0 31 40 61l269 197l-269 194q-41 27 -40 62v127q0 23 12 28q5 2 10 3q9 0 18 -7l392 -291q37 -27 36 -55v-125q0 -27 -36 -53l-392 -293q-10 -8 -19 -8q-5 0 -9 3q-12 7 -12 30zM618 154v127q0 31 39 61l269 197l-269 194q-39 27 -39 62v127q0 23 13 28 q5 2 9 3q8 0 17 -7l394 -291q35 -27 34 -55v-125q0 -27 -34 -53l-394 -293q-9 -8 -17 -8q-5 0 -9 3q-13 7 -13 30z" />
<glyph unicode="&#xbc;" horiz-adv-x="1830" d="M115 618v70q0 27 30 27h177v598l-177 -35q-31 -6 -30 22v74q0 23 30 29l310 59q12 4 19 -2t7 -24v-721h174q18 0 23.5 -5t5.5 -22v-70q0 -31 -29 -30h-510q-30 -1 -30 30zM668 -74l401 1598q6 29 37 28h104q29 0 23 -28l-404 -1598q-10 -31 -32 -30h-107q-24 0 -24 19 q0 5 2 11zM1133 274v64q0 12 4 24l153 478q10 29 37 28h103q31 0 20 -28l-150 -467h259v467q0 29 30 28h101q29 0 28 -28v-809q0 -31 -28 -31h-101q-31 0 -30 31v215h-394q-32 -1 -32 28z" />
<glyph unicode="&#xbd;" horiz-adv-x="1853" d="M115 618v70q0 27 30 27h177v598l-177 -35q-31 -6 -30 22v74q0 23 30 29l310 59q12 4 19 -2t7 -24v-721h174q18 0 23.5 -5t5.5 -22v-70q0 -31 -29 -30h-510q-30 -1 -30 30zM649 -74l406 1598q8 29 32 28h107q29 0 23 -28l-406 -1598q-6 -31 -31 -30h-106q-26 0 -26 21 q0 4 1 9zM1159 600v76q0 88 66.5 146.5t220 58.5t222.5 -58.5t69 -146.5v-109q0 -141 -121 -188l-227 -92q-53 -16 -54 -49v-109h377q31 0 31 -29v-69q0 -31 -31 -31h-506q-29 0 -28 31v233q0 35 15 59.5t30.5 35t44.5 20.5l256 102q57 20 57 76v94q0 100 -135 101 q-131 0 -131 -101v-51q0 -31 -29 -31h-98q-29 0 -29 31z" />
<glyph unicode="&#xbe;" horiz-adv-x="1843" d="M115 778v35q0 29 28 29h95q33 0 32 -29v-12q0 -100 133.5 -100.5t133.5 100.5v73q0 98 -131 99h-101q-33 0 -33 28v68q0 31 33 31h86q133 0 133 96v43q0 51 -28.5 75.5t-94.5 24.5q-127 0 -127 -100v-12q0 -27 -28 -27h-96q-31 0 -31 27v37q0 203 284 202q279 0 279 -200 v-92q0 -104 -98 -132q109 -39 108 -149v-119q0 -199 -286 -199q-156 0 -223.5 56.5t-67.5 146.5zM680 -74l403 1598q10 29 35 28h107q29 0 20 -28l-403 -1598q-6 -31 -33 -30h-107q-24 0 -23 20q0 5 1 10zM1143 274v64q0 12 6 24l151 478q12 29 37 28h103q33 0 20 -28 l-147 -467h256v467q0 29 30 28h101q29 0 29 -28v-809q0 -31 -29 -31h-101q-31 0 -30 31v215h-393q-33 -1 -33 28z" />
<glyph unicode="&#xbf;" horiz-adv-x="1204" d="M139 53q0 211 185 301l116 56q98 47 99 135v106q0 41 39 41h131q39 0 39 -41v-157q0 -129 -138 -197l-170 -88q-96 -53 -96 -150v-108q0 -184 260 -184t260 184v92q0 43 39 43h123q41 0 41 -43v-125q0 -145 -107.5 -236.5t-355.5 -91.5q-461 0 -465 328v135zM539 846v170 q0 41 39 41h131q39 0 39 -41v-170q0 -41 -39 -41h-131q-39 0 -39 41z" />
<glyph unicode="&#xc0;" horiz-adv-x="1144" d="M43 41l414 1366q12 41 51 41h131q39 0 51 -41l414 -1366q3 -9 3 -16q0 -25 -36 -25h-133q-37 0 -47 41l-100 330h-451l-96 -330q-12 -41 -47 -41h-125q-32 0 -32 24q0 8 3 17zM293 1858q6 12 26 12h132q35 0 57 -41l125 -225q20 -41 -19 -41h-100q-33 0 -51 28l-162 236 q-10 13 -10 23q0 4 2 8zM387 537h358l-118 387q-18 51 -37 164.5t-21 146.5q0 -2 -10 -62.5t-23.5 -132t-25.5 -112.5z" />
<glyph unicode="&#xc1;" horiz-adv-x="1144" d="M43 41l414 1366q12 41 51 41h131q39 0 51 -41l414 -1366q3 -9 3 -16q0 -25 -36 -25h-133q-37 0 -47 41l-100 330h-451l-96 -330q-12 -41 -47 -41h-125q-32 0 -32 24q0 8 3 17zM387 537h358l-118 387q-18 51 -37 164.5t-21 146.5q0 -2 -10 -62.5t-23.5 -132t-25.5 -112.5z M502 1604l127 227q20 39 55 39h131q31 0 31 -18q0 -9 -8 -23l-164 -238q-16 -27 -51 -26h-99q-29 0 -29 18q0 8 7 21z" />
<glyph unicode="&#xc2;" horiz-adv-x="1144" d="M43 41l414 1366q12 41 51 41h131q39 0 51 -41l414 -1366q3 -9 3 -16q0 -25 -36 -25h-133q-37 0 -47 41l-100 330h-451l-96 -330q-12 -41 -47 -41h-125q-32 0 -32 24q0 8 3 17zM306 1577q-2 4 -2 8q0 9 7 19l160 225q29 41 64 41h73q35 0 66 -41l160 -225q7 -10 6 -19 q0 -4 -1 -8q-5 -12 -28 -12h-96q-31 0 -56 39l-86 143l-88 -143q-20 -39 -57 -39h-96q-21 0 -26 12zM387 537h358l-118 387q-18 51 -37 164.5t-21 146.5q0 -2 -10 -62.5t-23.5 -132t-25.5 -112.5z" />
<glyph unicode="&#xc3;" horiz-adv-x="1144" d="M43 41l414 1366q12 41 51 41h131q39 0 51 -41l414 -1366q3 -9 3 -16q0 -25 -36 -25h-133q-37 0 -47 41l-100 330h-451l-96 -330q-12 -41 -47 -41h-125q-32 0 -32 24q0 8 3 17zM242 1630l4 68q4 84 51 127t116.5 43t125.5 -35l92 -55q70 -39 84 -39q27 0 34 16.5t7 63.5 v14q0 37 45 37h65q39 0 35 -47l-4 -68q-4 -86 -52 -128t-118 -42t-125 33l-90 55q-72 41 -86 41q-29 0 -35 -15.5t-6 -64.5v-16q0 -35 -43 -35h-68q-34 0 -33 35q0 6 1 12zM387 537h358l-118 387q-18 51 -37 164.5t-21 146.5q0 -2 -10 -62.5t-23.5 -132t-25.5 -112.5z" />
<glyph unicode="&#xc4;" horiz-adv-x="1144" d="M43 41l414 1366q12 41 51 41h131q39 0 51 -41l414 -1366q3 -9 3 -16q0 -25 -36 -25h-133q-37 0 -47 41l-100 330h-451l-96 -330q-12 -41 -47 -41h-125q-32 0 -32 24q0 8 3 17zM369 1614v203q0 43 39 43h73q39 0 39 -43v-203q0 -39 -39 -39h-73q-39 0 -39 39zM387 537h358 l-118 387q-18 51 -37 164.5t-21 146.5q0 -2 -10 -62.5t-23.5 -132t-25.5 -112.5zM627 1614v203q0 43 37 43h75q39 0 39 -43v-203q0 -39 -39 -39h-75q-37 0 -37 39z" />
<glyph unicode="&#xc5;" horiz-adv-x="1144" d="M43 41l414 1366q12 41 51 41h131q39 0 51 -41l414 -1366q3 -9 3 -16q0 -25 -36 -25h-133q-37 0 -47 41l-100 330h-451l-96 -330q-12 -41 -47 -41h-125q-32 0 -32 24q0 8 3 17zM360 1688v49q0 70 54.5 115.5t159 45.5t158.5 -46t54 -115v-49q0 -72 -54 -117t-158.5 -45 t-159 45t-54.5 117zM387 537h358l-118 387q-18 51 -37 164.5t-21 146.5q0 -2 -10 -62.5t-23.5 -132t-25.5 -112.5zM481 1704q0 -72 91.5 -72t91.5 72v14q0 74 -91.5 74t-91.5 -74v-14z" />
<glyph unicode="&#xc6;" horiz-adv-x="1781" d="M46 10q-4 5 -4 12q0 8 5 19l803 1366q23 41 57 41h711q41 0 41 -39v-90q0 -41 -41 -41h-557v-440h522q39 0 39 -39v-86q0 -39 -39 -39h-522v-504h584q41 0 41 -39v-90q0 -41 -41 -41h-738q-45 0 -45 41v330h-426l-188 -330q-25 -41 -49 -41h-123q-21 0 -30 10zM535 537 h327v575q-18 -39 -71 -135z" />
<glyph unicode="&#xc7;" horiz-adv-x="1189" d="M152 311v826q0 330 471 329.5t471 -329.5v-105q0 -41 -39 -41h-125q-39 0 -39 41v72q0 184 -266 184q-264 0 -265 -184v-760q0 -184 265 -184q266 0 266 184v100q0 41 39 41h125q39 0 39 -41v-133q0 -328 -471 -327h-5l-26 -95h72q80 0 131 -43t51 -125q0 -86 -51.5 -128 t-130.5 -42h-240q-41 0 -41 39v43q0 39 41 39h211q68 0 67 49q0 47 -67 48h-141q-37 0 -49.5 12t-6.5 39l45 172q-331 45 -331 319z" />
<glyph unicode="&#xc8;" horiz-adv-x="1103" d="M174 43v1362q0 43 39 43h729q39 0 39 -41v-94q0 -41 -39 -41h-561v-430h522q43 0 43 -41v-92q0 -39 -43 -39h-522v-494h584q41 0 41 -37v-98q0 -41 -41 -41h-752q-39 0 -39 43zM333 1858q5 12 27 12h132q35 0 55 -41l127 -225q7 -14 7 -23q0 -18 -28 -18h-100 q-31 0 -51 28l-162 236q-9 13 -9 23q0 4 2 8z" />
<glyph unicode="&#xc9;" horiz-adv-x="1103" d="M174 43v1362q0 43 39 43h729q39 0 39 -41v-94q0 -41 -39 -41h-561v-430h522q43 0 43 -41v-92q0 -39 -43 -39h-522v-494h584q41 0 41 -37v-98q0 -41 -41 -41h-752q-39 0 -39 43zM481 1604l125 227q23 39 56 39h133q30 0 30 -17q0 -9 -10 -24l-164 -238q-14 -27 -51 -26 h-98q-27 0 -28 17q0 9 7 22z" />
<glyph unicode="&#xca;" horiz-adv-x="1103" d="M174 43v1362q0 43 39 43h729q39 0 39 -41v-94q0 -41 -39 -41h-561v-430h522q43 0 43 -41v-92q0 -39 -43 -39h-522v-494h584q41 0 41 -37v-98q0 -41 -41 -41h-752q-39 0 -39 43zM286 1577q-2 4 -2 8q0 9 7 19l160 225q31 41 65 41h74q35 0 63 -41l160 -225q10 -10 10 -19 q0 -4 -3 -8q-7 -12 -27 -12h-97q-33 0 -55 39l-88 143l-86 -143q-23 -39 -57 -39h-97q-22 0 -27 12z" />
<glyph unicode="&#xcb;" horiz-adv-x="1103" d="M174 43v1362q0 43 39 43h729q39 0 39 -41v-94q0 -41 -39 -41h-561v-430h522q43 0 43 -41v-92q0 -39 -43 -39h-522v-494h584q41 0 41 -37v-98q0 -41 -41 -41h-752q-39 0 -39 43zM373 1614v203q0 43 39 43h73q39 0 39 -43v-203q0 -39 -39 -39h-73q-39 0 -39 39zM631 1614 v203q0 43 39 43h73q39 0 39 -43v-203q0 -39 -39 -39h-73q-39 0 -39 39z" />
<glyph unicode="&#xcc;" horiz-adv-x="555" d="M7 1858q5 12 28 12h131q35 0 55 -41l127 -225q20 -41 -20 -41h-101q-31 0 -51 28l-162 236q-9 13 -8 23q-1 4 1 8zM174 43v1362q0 43 39 43h129q39 0 39 -43v-1362q0 -43 -39 -43h-129q-39 0 -39 43z" />
<glyph unicode="&#xcd;" horiz-adv-x="555" d="M174 43v1362q0 43 39 43h129q39 0 39 -43v-1362q0 -43 -39 -43h-129q-39 0 -39 43zM201 1604l125 227q23 39 55 39h133q30 0 30 -17q0 -9 -9 -24l-164 -238q-14 -27 -52 -26h-98q-28 0 -28 16q0 10 8 23z" />
<glyph unicode="&#xce;" horiz-adv-x="555" d="M11 1577q-2 4 -1 8q0 9 6 19l160 225q31 41 66 41h73q35 0 64 -41l160 -225q7 -10 6 -19q0 -4 -1 -8q-5 -12 -26 -12h-96q-33 0 -55 39l-88 143l-86 -143q-23 -39 -58 -39h-96q-23 0 -28 12zM174 43v1362q0 43 39 43h129q39 0 39 -43v-1362q0 -43 -39 -43h-129 q-39 0 -39 43z" />
<glyph unicode="&#xcf;" horiz-adv-x="555" d="M74 1614v203q0 43 39 43h75q37 0 37 -43v-203q0 -39 -37 -39h-75q-39 0 -39 39zM174 43v1362q0 43 39 43h129q39 0 39 -43v-1362q0 -43 -39 -43h-129q-39 0 -39 43zM332 1614v203q0 43 39 43h73q39 0 39 -43v-203q0 -39 -39 -39h-73q-39 0 -39 39z" />
<glyph unicode="&#xd0;" horiz-adv-x="1294" d="M14 692v76q0 39 41 39h119v598q0 43 39 43h444q256 0 371 -91t115 -237v-792q0 -145 -115 -236.5t-371 -91.5h-448q-35 0 -35 43v610h-119q-41 0 -41 39zM381 176h276q279 0 279 186v723q0 186 -279 187h-276v-465h246q41 0 41 -39v-76q0 -39 -41 -39h-246v-477z" />
<glyph unicode="&#xd1;" horiz-adv-x="1314" d="M174 41v1366q0 41 39 41h119q25 0 35 -16l514 -897q12 -20 26.5 -53l26.5 -58l12 -27v1010q0 41 41 41h117q37 0 37 -41v-1366q0 -41 -37 -41h-117q-27 0 -39 18l-502 879q-16 27 -30.5 55.5t-22.5 47t-14 34.5l-8 17v-1010q0 -41 -39 -41h-119q-39 0 -39 41zM328 1630 l4 68q4 84 52 127t116 43q72 0 127 -35l90 -55q72 -39 86 -39q27 0 34 16.5t7 63.5v14q0 37 45 37h65q39 0 35 -47l-6 -68q-4 -86 -52 -128t-117 -42t-124 33l-92 55q-70 41 -84 41q-29 0 -35 -15.5t-6 -64.5v-16q0 -35 -43 -35h-68q-38 0 -34 47z" />
<glyph unicode="&#xd2;" horiz-adv-x="1269" d="M152 311v826q0 145 113.5 237t369.5 92t370.5 -92t114.5 -237v-826q0 -145 -114.5 -236t-370.5 -91t-369.5 91t-113.5 236zM360 344q0 -184 275 -184q276 0 276 184v760q0 184 -276 184q-274 0 -275 -184v-760zM364 1858q5 12 25 12h133q33 0 56 -41l124 -225 q8 -15 8 -24q0 -17 -26 -17h-100q-33 0 -52 28l-161 236q-9 13 -9 23q0 4 2 8z" />
<glyph unicode="&#xd3;" horiz-adv-x="1269" d="M152 311v826q0 145 113.5 237t369.5 92t370.5 -92t114.5 -237v-826q0 -145 -114.5 -236t-370.5 -91t-369.5 91t-113.5 236zM360 344q0 -184 275 -184q276 0 276 184v760q0 184 -276 184q-274 0 -275 -184v-760zM539 1604l125 227q23 39 57 39h131q30 0 30 -17 q0 -9 -10 -24l-163 -238q-14 -27 -52 -26h-96q-29 0 -29 18q0 8 7 21z" />
<glyph unicode="&#xd4;" horiz-adv-x="1269" d="M152 311v826q0 145 113.5 237t369.5 92t370.5 -92t114.5 -237v-826q0 -145 -114.5 -236t-370.5 -91t-369.5 91t-113.5 236zM360 344q0 -184 275 -184q276 0 276 184v760q0 184 -276 184q-274 0 -275 -184v-760zM368 1577q-2 4 -2 8q0 9 7 19l159 225q31 41 64 41h76 q33 0 63 -41l160 -225q8 -10 8 -19q0 -4 -2 -8q-6 -12 -29 -12h-94q-33 0 -55 39l-88 143l-88 -143q-20 -39 -58 -39h-96q-20 0 -25 12z" />
<glyph unicode="&#xd5;" horiz-adv-x="1269" d="M152 311v826q0 145 113.5 237t369.5 92t370.5 -92t114.5 -237v-826q0 -145 -114.5 -236t-370.5 -91t-369.5 91t-113.5 236zM305 1630l4 68q4 84 52.5 127t115.5 43q70 0 125 -35l92 -55q70 -39 86 -39q25 0 32 16.5t7 63.5v14q0 37 45 37h66q39 0 35 -47l-4 -68 q-4 -86 -52.5 -128t-117.5 -42q-68 0 -123 33l-93 55q-72 41 -86 41q-27 0 -33.5 -15.5t-6.5 -64.5v-16q0 -35 -41 -35h-70q-37 0 -33 47zM360 344q0 -184 275 -184q276 0 276 184v760q0 184 -276 184q-274 0 -275 -184v-760z" />
<glyph unicode="&#xd6;" horiz-adv-x="1269" d="M152 311v826q0 145 113.5 237t369.5 92t370.5 -92t114.5 -237v-826q0 -145 -114.5 -236t-370.5 -91t-369.5 91t-113.5 236zM360 344q0 -184 275 -184q276 0 276 184v760q0 184 -276 184q-274 0 -275 -184v-760zM430 1614v203q0 43 39 43h74q39 0 39 -43v-203 q0 -39 -39 -39h-74q-39 0 -39 39zM688 1614v203q0 43 39 43h74q39 0 39 -43v-203q0 -39 -39 -39h-74q-39 0 -39 39z" />
<glyph unicode="&#xd7;" horiz-adv-x="1155" d="M160 532q-8 13 -8 24q0 19 22 32l289 164l-166 288q-8 13 -8 24q0 18 20 32l76 45q13 8 24 8q19 0 31 -25l166 -286l291 166q33 18 53 -13l45 -80q7 -13 8 -24q0 -20 -24 -33l-289 -166l166 -285q8 -13 8 -23q0 -19 -22 -32l-78 -45q-12 -9 -22 -8q-17 0 -31 22l-166 285 l-287 -164q-13 -7 -24 -7q-19 0 -31 24z" />
<glyph unicode="&#xd8;" horiz-adv-x="1269" d="M152 309v826q0 145 113.5 236t369.5 91q184 0 303 -53l20 41q0 2 7.5 15.5t10.5 18.5t11 14t17.5 12t21.5 3h39q23 0 23 -19q0 -16 -15 -44l-49 -94q96 -82 96 -221v-826q0 -145 -114.5 -236t-370.5 -91q-190 0 -311 55l-19 -39q-35 -63 -72 -64h-32q-24 0 -25 21 q0 16 14 43l48 96q-86 80 -86 215zM360 322l486 915q-72 49 -211 49q-274 0 -275 -184v-760v-20zM418 213q68 -55 217 -55q276 0 276 184v760q0 14 -4 35z" />
<glyph unicode="&#xd9;" horiz-adv-x="1294" d="M162 311v1094q0 43 41 43h129q39 0 39 -43v-1061q0 -184 274 -184q279 0 279 184v1061q0 43 39 43h131q37 0 36 -43v-1094q0 -145 -114.5 -236t-370.5 -91t-369.5 91t-113.5 236zM388 1858q5 12 28 12h131q35 0 55 -41l127 -225q7 -14 7 -23q0 -18 -27 -18h-101 q-31 0 -51 28l-162 236q-9 13 -8 23q-1 4 1 8z" />
<glyph unicode="&#xda;" horiz-adv-x="1294" d="M162 311v1094q0 43 41 43h129q39 0 39 -43v-1061q0 -184 274 -184q279 0 279 184v1061q0 43 39 43h131q37 0 36 -43v-1094q0 -145 -114.5 -236t-370.5 -91t-369.5 91t-113.5 236zM567 1604l125 227q20 39 56 39h133q29 0 29 -17q0 -9 -9 -24l-164 -238q-14 -27 -51 -26 h-98q-28 0 -28 16q-1 10 7 23z" />
<glyph unicode="&#xdb;" horiz-adv-x="1294" d="M162 311v1094q0 43 41 43h129q39 0 39 -43v-1061q0 -184 274 -184q279 0 279 184v1061q0 43 39 43h131q37 0 36 -43v-1094q0 -145 -114.5 -236t-370.5 -91t-369.5 91t-113.5 236zM380 1577q-2 4 -2 8q0 9 7 19l160 225q31 41 63 41h76q33 0 64 -41l159 -225q8 -10 8 -19 q0 -4 -2 -8q-6 -12 -26 -12h-96q-33 0 -56 39l-88 143l-86 -143q-23 -39 -59 -39h-94q-23 0 -28 12z" />
<glyph unicode="&#xdc;" horiz-adv-x="1294" d="M162 311v1094q0 43 41 43h129q39 0 39 -43v-1061q0 -184 274 -184q279 0 279 184v1061q0 43 39 43h131q37 0 36 -43v-1094q0 -145 -114.5 -236t-370.5 -91t-369.5 91t-113.5 236zM442 1614v203q0 43 39 43h74q39 0 39 -43v-203q0 -39 -39 -39h-74q-39 0 -39 39zM700 1614 v203q0 43 39 43h74q39 0 39 -43v-203q0 -39 -39 -39h-74q-39 0 -39 39z" />
<glyph unicode="&#xdd;" horiz-adv-x="1126" d="M39 1407q-7 13 -7 21q0 20 36 20h147q29 0 49 -41l266 -561l35 -94q14 57 33 94l285 561q20 41 45 41h131q34 0 34 -19q0 -9 -8 -22l-415 -832v-534q0 -41 -39 -41h-131q-39 0 -39 41v510zM500 1604l127 227q20 39 55 39h131q31 0 31 -18q0 -9 -8 -23l-164 -238 q-16 -27 -51 -26h-99q-29 0 -29 18q0 8 7 21z" />
<glyph unicode="&#xde;" horiz-adv-x="1216" d="M174 41v1366q0 41 39 41h129q41 0 41 -41v-350h262q256 0 369.5 -91.5t113.5 -234.5v-203q0 -145 -113.5 -235t-369.5 -90h-262v-162q0 -41 -41 -41h-129q-39 0 -39 41zM383 375h262q276 0 277 188v133q0 188 -277 189h-262v-510z" />
<glyph unicode="&#xdf;" horiz-adv-x="1316" d="M51 928v76q0 37 39 40l113 9h12v164q0 133 106.5 211.5t333.5 78.5q442 0 443 -290v-80q0 -131 -156 -189l-139 -51q-88 -33 -88 -78v-10q0 -53 96 -94l250 -105q195 -82 194 -223v-117q0 -135 -85 -210.5t-283.5 -75.5t-273 68.5t-74.5 209.5v17q0 43 41 43h84 q41 0 41 -43v-23q0 -68 39.5 -102.5t142 -34.5t142.5 35.5t40 101.5v94q0 63 -111 109l-235 98q-51 23 -85 44.5t-64.5 70.5t-30.5 112v43q0 70 46 117t105 68l111 41q104 35 104 114v35q0 147 -244.5 147.5t-244.5 -147.5v-1159q0 -43 -41 -43h-123q-41 0 -41 43v844h-125 q-39 0 -39 41z" />
<glyph unicode="&#xe0;" horiz-adv-x="1085" d="M117 242v100q0 113 76.5 185.5t220.5 72.5h336v164q0 72 -46.5 108.5t-160.5 36.5q-117 0 -164 -33.5t-47 -105.5v-16q0 -43 -41 -43h-111q-37 0 -37 43v32q0 287 402.5 287t402.5 -287v-743q0 -43 -39 -43h-110q-39 0 -41 43l-4 61q-154 -121 -336 -120 q-143 0 -222 72.5t-79 185.5zM315 270q0 -119 154 -118q141 0 281 108v182h-293q-78 0 -110 -31.5t-32 -97.5v-43zM326 1468q-11 15 -11 24q0 15 29 15h133q35 0 55 -37l125 -229q8 -13 8 -21q0 -15 -26 -16h-100q-29 0 -52 25z" />
<glyph unicode="&#xe1;" horiz-adv-x="1085" d="M117 242v100q0 113 76.5 185.5t220.5 72.5h336v164q0 72 -46.5 108.5t-160.5 36.5q-117 0 -164 -33.5t-47 -105.5v-16q0 -43 -41 -43h-111q-37 0 -37 43v32q0 287 402.5 287t402.5 -287v-743q0 -43 -39 -43h-110q-39 0 -41 43l-4 61q-154 -121 -336 -120 q-143 0 -222 72.5t-79 185.5zM315 270q0 -119 154 -118q141 0 281 108v182h-293q-78 0 -110 -31.5t-32 -97.5v-43zM428 1241l125 229q23 37 55 37h133q30 0 31 -14q0 -9 -12 -25l-162 -239q-14 -25 -51 -25h-98q-27 0 -28 17q0 8 7 20z" />
<glyph unicode="&#xe2;" horiz-adv-x="1085" d="M117 242v100q0 113 76.5 185.5t220.5 72.5h336v164q0 72 -46.5 108.5t-160.5 36.5q-117 0 -164 -33.5t-47 -105.5v-16q0 -43 -41 -43h-111q-37 0 -37 43v32q0 287 402.5 287t402.5 -287v-743q0 -43 -39 -43h-110q-39 0 -41 43l-4 61q-154 -121 -336 -120 q-143 0 -222 72.5t-79 185.5zM280 1215q-2 4 -2 8q0 8 7 18l159 227q31 39 66 39h74q35 0 63 -39l160 -227q7 -10 7 -18q0 -4 -2 -8q-5 -11 -26 -11h-96q-33 0 -55 37l-88 143l-88 -143q-25 -37 -56 -37h-96q-22 0 -27 11zM315 270q0 -119 154 -118q141 0 281 108v182h-293 q-78 0 -110 -31.5t-32 -97.5v-43z" />
<glyph unicode="&#xe3;" horiz-adv-x="1085" d="M117 242v100q0 113 76.5 185.5t220.5 72.5h336v164q0 72 -46.5 108.5t-160.5 36.5q-117 0 -164 -33.5t-47 -105.5v-16q0 -43 -41 -43h-111q-37 0 -37 43v32q0 287 402.5 287t402.5 -287v-743q0 -43 -39 -43h-110q-39 0 -41 43l-4 61q-154 -121 -336 -120 q-143 0 -222 72.5t-79 185.5zM219 1253l4 68q4 84 52.5 127t115.5 43q72 0 127 -35l90 -55q72 -39 86 -39q27 0 34 16.5t7 63.5v14q0 37 45 37h66q39 0 35 -47l-7 -68q-4 -86 -51 -128t-118 -42q-68 0 -123 33l-93 55q-70 41 -83 41q-29 0 -35 -15t-6 -65v-16q0 -35 -43 -35 h-68q-39 0 -35 47zM315 270q0 -119 154 -118q141 0 281 108v182h-293q-78 0 -110 -31.5t-32 -97.5v-43z" />
<glyph unicode="&#xe4;" horiz-adv-x="1085" d="M117 242v100q0 113 76.5 185.5t220.5 72.5h336v164q0 72 -46.5 108.5t-160.5 36.5q-117 0 -164 -33.5t-47 -105.5v-16q0 -43 -41 -43h-111q-37 0 -37 43v32q0 287 402.5 287t402.5 -287v-743q0 -43 -39 -43h-110q-39 0 -41 43l-4 61q-154 -121 -336 -120 q-143 0 -222 72.5t-79 185.5zM315 270q0 -119 154 -118q141 0 281 108v182h-293q-78 0 -110 -31.5t-32 -97.5v-43zM338 1257v201q0 41 41 41h76q37 0 37 -41v-201q0 -41 -37 -40h-76q-41 -1 -41 40zM596 1257v201q0 41 41 41h74q39 0 39 -41v-201q0 -41 -39 -40h-74 q-41 -1 -41 40z" />
<glyph unicode="&#xe5;" horiz-adv-x="1085" d="M117 242v100q0 113 76.5 185.5t220.5 72.5h336v164q0 72 -46.5 108.5t-160.5 36.5q-117 0 -164 -33.5t-47 -105.5v-16q0 -43 -41 -43h-111q-37 0 -37 43v32q0 287 402.5 287t402.5 -287v-743q0 -43 -39 -43h-110q-39 0 -41 43l-4 61q-154 -121 -336 -120 q-143 0 -222 72.5t-79 185.5zM315 270q0 -119 154 -118q141 0 281 108v182h-293q-78 0 -110 -31.5t-32 -97.5v-43zM344 1321v70q0 68 52.5 109.5t152.5 41.5t152.5 -42t52.5 -109v-70q0 -68 -52.5 -109t-152.5 -41t-152.5 41t-52.5 109zM457 1341q0 -70 93 -69.5t93 69.5v29 q0 70 -93 70t-93 -70v-29z" />
<glyph unicode="&#xe6;" horiz-adv-x="1675" d="M117 242v88q0 113 77.5 185.5t219.5 72.5h334v200q0 135 -207 136q-115 0 -163 -36t-48 -106v-28q0 -41 -39 -41h-111q-39 0 -39 41v34q0 285 404 285q223 0 299 -112q92 113 315 112q403 0 404 -291v-250q0 -39 -37 -38h-580v-218q0 -70 48 -104.5t165 -34.5 q215 0 215 144v28q0 41 39 41h103q41 0 40 -41v-37q0 -289 -397 -288q-287 0 -368 139q-174 -139 -373 -139q-150 0 -225.5 71.5t-75.5 186.5zM315 266q0 -59 39 -91t113 -32q127 0 281 119v187h-302q-131 0 -131 -127v-56zM946 633h428v141q0 145 -215 146 q-213 0 -213 -146v-141z" />
<glyph unicode="&#xe7;" horiz-adv-x="1032" d="M127 274v508q0 291 410 291q408 0 407 -291v-39q0 -41 -39 -41h-114q-41 0 -41 41v23q0 72 -47.5 106.5t-163.5 34.5q-115 0 -162 -34.5t-47 -106.5v-477q0 -70 47 -104.5t162 -34.5q117 0 164 34.5t47 104.5v43q0 41 41 41h114q39 0 39 -41v-58q0 -291 -409 -290h-7 l-26 -95h73q78 0 129.5 -43t51.5 -125q0 -86 -51.5 -128t-129.5 -42h-241q-39 0 -39 39v43q0 39 39 39h211q70 0 69 49q0 47 -69 48h-139q-39 0 -51.5 12t-4.5 39l43 174q-266 44 -266 280z" />
<glyph unicode="&#xe8;" horiz-adv-x="1052" d="M127 274v508q0 291 412 291q403 0 403 -291v-260q0 -39 -37 -39h-579v-196q0 -70 46 -106t166.5 -36t167 36t46.5 106v24q0 41 41 41h108q41 0 41 -41v-37q0 -291 -407.5 -291t-407.5 291zM289 1468q-11 14 -11 24q0 16 31 15h131q35 0 56 -37l127 -229q20 -37 -21 -37 h-100q-29 0 -51 25zM326 635h426v133q0 143 -213 143t-213 -143v-133z" />
<glyph unicode="&#xe9;" horiz-adv-x="1052" d="M127 274v508q0 291 412 291q403 0 403 -291v-260q0 -39 -37 -39h-579v-196q0 -70 46 -106t166.5 -36t167 36t46.5 106v24q0 41 41 41h108q41 0 41 -41v-37q0 -291 -407.5 -291t-407.5 291zM326 635h426v133q0 143 -213 143t-213 -143v-133zM436 1241l127 229q20 37 55 37 h132q30 0 30 -14q0 -9 -12 -25l-162 -239q-14 -25 -51 -25h-96q-29 0 -29 17q-1 8 6 20z" />
<glyph unicode="&#xea;" horiz-adv-x="1052" d="M127 274v508q0 291 412 291q403 0 403 -291v-260q0 -39 -37 -39h-579v-196q0 -70 46 -106t166.5 -36t167 36t46.5 106v24q0 41 41 41h108q41 0 41 -41v-37q0 -291 -407.5 -291t-407.5 291zM271 1215q-2 4 -1 8q0 8 6 18l160 227q31 39 64 39h75q33 0 64 -39l160 -227 q7 -10 7 -18q0 -4 -2 -8q-5 -11 -26 -11h-96q-33 0 -55 37l-88 143l-90 -143q-23 -37 -56 -37h-94q-23 0 -28 11zM326 635h426v133q0 143 -213 143t-213 -143v-133z" />
<glyph unicode="&#xeb;" horiz-adv-x="1052" d="M127 274v508q0 291 412 291q403 0 403 -291v-260q0 -39 -37 -39h-579v-196q0 -70 46 -106t166.5 -36t167 36t46.5 106v24q0 41 41 41h108q41 0 41 -41v-37q0 -291 -407.5 -291t-407.5 291zM326 635h426v133q0 143 -213 143t-213 -143v-133zM330 1257v201q0 41 41 41h73 q39 0 39 -41v-201q0 -41 -39 -40h-73q-41 -1 -41 40zM588 1257v201q0 41 41 41h73q39 0 39 -41v-201q0 -41 -39 -40h-73q-41 -1 -41 40z" />
<glyph unicode="&#xec;" d="M-8 1468q-12 15 -12 25q0 15 30 14h133q33 0 56 -37l125 -229q20 -37 -19 -37h-100q-31 0 -51 25zM152 41v973q0 43 38 43h125q39 0 39 -43v-973q0 -41 -39 -41h-125q-38 0 -38 41z" />
<glyph unicode="&#xed;" d="M152 41v973q0 43 38 43h125q39 0 39 -43v-973q0 -41 -39 -41h-125q-38 0 -38 41zM172 1241l127 229q20 37 55 37h131q30 0 31 -14q0 -9 -12 -25l-162 -239q-14 -25 -51 -25h-96q-29 0 -30 17q0 8 7 20z" />
<glyph unicode="&#xee;" d="M-9 1215q-2 4 -2 8q0 8 7 18l160 227q29 39 63 39h76q33 0 63 -39l160 -227q7 -10 7 -18q0 -4 -2 -8q-5 -11 -27 -11h-95q-33 0 -57 37l-86 143l-90 -143q-23 -37 -55 -37h-97q-20 0 -25 11zM152 41v973q0 43 38 43h125q39 0 39 -43v-973q0 -41 -39 -41h-125 q-38 0 -38 41z" />
<glyph unicode="&#xef;" d="M49 1257v201q0 41 41 41h74q39 0 39 -41v-201q0 -41 -39 -40h-74q-41 -1 -41 40zM152 41v973q0 43 38 43h125q39 0 39 -43v-973q0 -41 -39 -41h-125q-38 0 -38 41zM307 1257v201q0 41 41 41h74q39 0 39 -41v-201q0 -41 -39 -40h-74q-41 -1 -41 40z" />
<glyph unicode="&#xf0;" horiz-adv-x="1193" d="M127 272v512q0 135 76 212t227 77q193 0 348 -123v228q0 29 -14 49l-121 -53q-37 -16 -53 14l-15 24q-9 12 -9 23q0 18 26 31l133 59q-51 41 -168 41h-197q-41 0 -41 39v63q0 39 41 39h197q231 0 330 -90l102 51q12 6 23 7q20 0 32 -23l15 -25q5 -11 5 -20q0 -19 -22 -31 l-94 -47q20 -45 21 -110v-947q0 -289 -416 -288q-217 0 -321.5 76.5t-104.5 211.5zM330 289q0 -143 224 -143.5t224 143.5v497q-143 111 -289 111q-160 0 -159 -141v-467z" />
<glyph unicode="&#xf1;" horiz-adv-x="1140" d="M152 43v973q0 41 41 41h112q37 0 39 -41l6 -68q145 125 352 125q145 0 223.5 -75.5t78.5 -196.5v-758q0 -43 -39 -43h-123q-41 0 -41 43v709q0 141 -158 141q-150 0 -289 -109v-741q0 -43 -39 -43h-122q-41 0 -41 43zM233 1266l5 67q6 86 53 128t116.5 42t124.5 -33 l93 -55q70 -41 84 -41q27 0 34 16.5t7 63.5v16q0 35 45 35h65q39 0 35 -47l-4 -67q-4 -84 -53.5 -127t-118 -43t-123.5 34l-92 56q-70 39 -84 39q-29 0 -35 -15.5t-6 -64.5v-15q0 -37 -43 -36h-68q-39 0 -35 47z" />
<glyph unicode="&#xf2;" horiz-adv-x="1105" d="M127 274v508q0 135 104.5 213t321.5 78t321.5 -77.5t104.5 -213.5v-508q0 -135 -104.5 -212.5t-321.5 -77.5t-321.5 77.5t-104.5 212.5zM305 1468q-12 15 -12 25q0 15 31 14h133q33 0 55 -37l125 -229q20 -37 -19 -37h-100q-31 0 -51 25zM330 291q0 -141 224 -141 t224 141v473q0 143 -224 143t-224 -143v-473z" />
<glyph unicode="&#xf3;" horiz-adv-x="1105" d="M127 274v508q0 135 104.5 213t321.5 78t321.5 -77.5t104.5 -213.5v-508q0 -135 -104.5 -212.5t-321.5 -77.5t-321.5 77.5t-104.5 212.5zM330 291q0 -141 224 -141t224 141v473q0 143 -224 143t-224 -143v-473zM469 1241l125 229q23 37 55 37h133q30 0 31 -14 q0 -9 -12 -25l-162 -239q-14 -25 -51 -25h-99q-28 0 -28 16q0 8 8 21z" />
<glyph unicode="&#xf4;" horiz-adv-x="1105" d="M127 274v508q0 135 104.5 213t321.5 78t321.5 -77.5t104.5 -213.5v-508q0 -135 -104.5 -212.5t-321.5 -77.5t-321.5 77.5t-104.5 212.5zM291 1215q-2 4 -2 8q0 8 8 18l160 227q29 39 63 39h74q35 0 63 -39l160 -227q8 -10 8 -18q0 -4 -2 -8q-6 -11 -26 -11h-97 q-31 0 -55 37l-88 143l-88 -143q-25 -37 -55 -37h-97q-20 0 -26 11zM330 291q0 -141 224 -141t224 141v473q0 143 -224 143t-224 -143v-473z" />
<glyph unicode="&#xf5;" horiz-adv-x="1105" d="M127 274v508q0 135 104.5 213t321.5 78t321.5 -77.5t104.5 -213.5v-508q0 -135 -104.5 -212.5t-321.5 -77.5t-321.5 77.5t-104.5 212.5zM225 1253l4 68q4 84 52.5 127t115.5 43q72 0 127 -35l92 -55q70 -39 84 -39q27 0 34 16.5t7 63.5v14q0 37 45 37h66q39 0 35 -47 l-4 -68q-6 -86 -54.5 -128t-117 -42t-123.5 33l-92 55q-70 41 -84 41q-29 0 -35 -15t-6 -65v-16q0 -35 -43 -35h-68q-39 0 -35 47zM330 291q0 -141 224 -141t224 141v473q0 143 -224 143t-224 -143v-473z" />
<glyph unicode="&#xf6;" horiz-adv-x="1105" d="M127 274v508q0 135 104.5 213t321.5 78t321.5 -77.5t104.5 -213.5v-508q0 -135 -104.5 -212.5t-321.5 -77.5t-321.5 77.5t-104.5 212.5zM330 291q0 -141 224 -141t224 141v473q0 143 -224 143t-224 -143v-473zM350 1257v201q0 41 39 41h76q37 0 37 -41v-201 q0 -41 -37 -40h-76q-39 -1 -39 40zM606 1257v201q0 41 41 41h76q37 0 37 -41v-201q0 -41 -37 -40h-76q-41 -1 -41 40z" />
<glyph unicode="&#xf7;" horiz-adv-x="1245" d="M152 616v91q0 39 38 38h865q41 0 41 -38v-91q0 -41 -41 -41h-862q-41 0 -41 41zM520 213v170q0 41 41 41h127q39 0 39 -41v-170q0 -41 -39 -41h-127q-41 0 -41 41zM520 946v170q0 41 41 41h127q39 0 39 -41v-170q0 -41 -39 -41h-127q-41 0 -41 41z" />
<glyph unicode="&#xf8;" horiz-adv-x="1105" d="M127 274v508q0 135 104.5 213t321.5 78q133 0 227 -29l11 19q2 2 8 14l8 17q2 4 8 13t12.5 11t13.5 5t17 3h43q22 0 22 -17q0 -16 -18 -46l-37 -64q111 -76 111 -217v-508q0 -135 -104.5 -212.5t-321.5 -77.5q-127 0 -229 30l-9 -16q-2 -4 -7 -15.5t-7 -14.5l-7 -10 q-5 -7 -8 -9t-7.5 -6t-9.5 -5t-11 -2.5t-14 -1.5h-37q-24 0 -24 19q0 16 18 45l32 59q-106 72 -106 217zM330 291q0 -33 6 -47l356 643q-49 20 -139 20q-223 0 -223 -143v-473zM412 170q49 -20 141 -20q225 0 225 141v473q0 33 -10 51z" />
<glyph unicode="&#xf9;" horiz-adv-x="1128" d="M139 254v760q0 43 37 43h125q39 0 39 -43v-709q0 -141 158 -141q145 0 278 106v744q0 43 37 43h127q37 0 37 -43v-973q0 -41 -37 -41h-117q-37 0 -39 41l-4 63q-143 -121 -342 -120q-141 0 -220 73.5t-79 196.5zM317 1468q-12 15 -11 25q0 15 30 14h133q33 0 55 -37 l125 -229q8 -13 8 -21q0 -15 -26 -16h-101q-31 0 -51 25z" />
<glyph unicode="&#xfa;" horiz-adv-x="1128" d="M139 254v760q0 43 37 43h125q39 0 39 -43v-709q0 -141 158 -141q145 0 278 106v744q0 43 37 43h127q37 0 37 -43v-973q0 -41 -37 -41h-117q-37 0 -39 41l-4 63q-143 -121 -342 -120q-141 0 -220 73.5t-79 196.5zM471 1241l125 229q23 37 55 37h133q30 0 31 -14 q0 -9 -12 -25l-162 -239q-14 -25 -51 -25h-98q-28 0 -29 16q0 8 8 21z" />
<glyph unicode="&#xfb;" horiz-adv-x="1128" d="M139 254v760q0 43 37 43h125q39 0 39 -43v-709q0 -141 158 -141q145 0 278 106v744q0 43 37 43h127q37 0 37 -43v-973q0 -41 -37 -41h-117q-37 0 -39 41l-4 63q-143 -121 -342 -120q-141 0 -220 73.5t-79 196.5zM282 1215q-2 4 -2 8q0 8 7 18l159 227q31 39 66 39h74 q35 0 63 -39l160 -227q7 -10 7 -18q0 -4 -2 -8q-5 -11 -26 -11h-96q-33 0 -55 37l-88 143l-88 -143q-25 -37 -55 -37h-97q-22 0 -27 11z" />
<glyph unicode="&#xfc;" horiz-adv-x="1128" d="M139 254v760q0 43 37 43h125q39 0 39 -43v-709q0 -141 158 -141q145 0 278 106v744q0 43 37 43h127q37 0 37 -43v-973q0 -41 -37 -41h-117q-37 0 -39 41l-4 63q-143 -121 -342 -120q-141 0 -220 73.5t-79 196.5zM354 1257v201q0 41 39 41h76q39 0 39 -41v-201 q0 -41 -39 -40h-76q-39 -1 -39 40zM610 1257v201q0 41 41 41h76q37 0 37 -41v-201q0 -41 -37 -40h-76q-41 -1 -41 40z" />
<glyph unicode="&#xfd;" horiz-adv-x="958" d="M33 1014q-3 10 -3 17q0 26 38 26h127q31 0 47 -43l204 -617q10 -25 17.5 -58.5t11.5 -62.5l4 -24q14 68 39 141l211 621q12 43 47 43h115q38 0 38 -26q0 -8 -3 -17l-482 -1407q-12 -41 -43 -41h-92q-41 0 -41 26q0 6 2 15l119 377zM408 1241l124 229q20 37 56 37h133 q29 0 29 -15q0 -9 -11 -24l-161 -239q-14 -25 -52 -25h-98q-28 0 -28 16q0 8 8 21z" />
<glyph unicode="&#xfe;" horiz-adv-x="1130" d="M152 -393v1841q0 41 38 41h123q41 0 41 -41v-498q150 123 346 123q152 0 228 -76.5t76 -212.5v-514q0 -133 -76 -209.5t-228 -76.5q-197 0 -346 118v-495q0 -41 -39 -41h-125q-38 0 -38 41zM354 268q143 -111 287 -110q160 0 160 143v455q0 141 -160 141 q-152 0 -287 -111v-518z" />
<glyph unicode="&#xff;" horiz-adv-x="958" d="M33 1014q-3 10 -3 17q0 26 38 26h127q31 0 47 -43l204 -617q10 -25 17.5 -58.5t11.5 -62.5l4 -24q14 68 39 141l211 621q12 43 47 43h115q38 0 38 -26q0 -8 -3 -17l-482 -1407q-12 -41 -43 -41h-92q-41 0 -41 26q0 6 2 15l119 377zM281 1257v201q0 41 41 41h73 q39 0 39 -41v-201q0 -41 -39 -40h-73q-41 -1 -41 40zM539 1257v201q0 41 41 41h73q39 0 39 -41v-201q0 -41 -39 -40h-73q-41 -1 -41 40z" />
<glyph unicode="&#x100;" horiz-adv-x="1144" d="M43 41l414 1366q12 41 51 41h131q39 0 51 -41l414 -1366q3 -9 3 -16q0 -25 -36 -25h-133q-37 0 -47 41l-100 330h-451l-96 -330q-12 -41 -47 -41h-125q-32 0 -32 24q0 8 3 17zM272 1665v78q0 37 41 37h518q39 0 39 -37v-78q0 -39 -39 -39h-518q-41 0 -41 39zM387 537h358 l-118 387q-18 51 -37 164.5t-21 146.5q0 -2 -10 -62.5t-23.5 -132t-25.5 -112.5z" />
<glyph unicode="&#x101;" horiz-adv-x="1085" d="M117 242v100q0 113 76.5 185.5t220.5 72.5h336v164q0 72 -46.5 108.5t-160.5 36.5q-117 0 -164 -33.5t-47 -105.5v-16q0 -43 -41 -43h-111q-37 0 -37 43v32q0 287 402.5 287t402.5 -287v-743q0 -43 -39 -43h-110q-39 0 -41 43l-4 61q-154 -121 -336 -120 q-143 0 -222 72.5t-79 185.5zM244 1288v78q0 37 41 37h516q41 0 41 -37v-78q0 -39 -41 -39h-516q-41 0 -41 39zM315 270q0 -119 154 -118q141 0 281 108v182h-293q-78 0 -110 -31.5t-32 -97.5v-43z" />
<glyph unicode="&#x102;" horiz-adv-x="1144" d="M43 41l414 1366q12 41 51 41h131q39 0 51 -41l414 -1366q3 -9 3 -16q0 -25 -36 -25h-133q-37 0 -47 41l-100 330h-451l-96 -330q-12 -41 -47 -41h-125q-32 0 -32 24q0 8 3 17zM301 1808v33q0 33 35 33h78q35 0 35 -33v-39q0 -59 26.5 -90t97 -31t97 31t26.5 90v39 q0 33 37 33h74q37 0 37 -33v-33q0 -252 -275 -252q-268 0 -268 252zM387 537h358l-118 387q-18 51 -37 164.5t-21 146.5q0 -2 -10 -62.5t-23.5 -132t-25.5 -112.5z" />
<glyph unicode="&#x103;" horiz-adv-x="1085" d="M117 242v100q0 113 76.5 185.5t220.5 72.5h336v164q0 72 -46.5 108.5t-160.5 36.5q-117 0 -164 -33.5t-47 -105.5v-16q0 -43 -41 -43h-111q-37 0 -37 43v32q0 287 402.5 287t402.5 -287v-743q0 -43 -39 -43h-110q-39 0 -41 43l-4 61q-154 -121 -336 -120 q-143 0 -222 72.5t-79 185.5zM291 1425v31q0 35 37 35h75q35 0 35 -35v-35q0 -125 125 -125q70 0 96.5 33t26.5 92v35q0 35 37 35h74q37 0 37 -35v-31q0 -250 -277 -249q-266 -1 -266 249zM315 270q0 -119 154 -118q141 0 281 108v182h-293q-78 0 -110 -31.5t-32 -97.5v-43z " />
<glyph unicode="&#x104;" horiz-adv-x="1144" d="M43 41l414 1366q12 41 51 41h131q39 0 51 -41l414 -1366q3 -9 3 -16q0 -25 -36 -25h-41q-121 0 -121 -117q0 -88 105 -88h59q41 0 41 -39v-59q0 -39 -53 -39h-98q-82 0 -146.5 45t-64.5 143q0 49 30.5 117t98.5 111l-90 297h-451l-96 -330q-12 -41 -47 -41h-125 q-32 0 -32 24q0 8 3 17zM387 537h358l-118 387q-45 143 -58 311q0 -2 -11 -64l-24 -133q-13 -72 -24 -110z" />
<glyph unicode="&#x105;" horiz-adv-x="1085" d="M117 242v100q0 113 76.5 185.5t220.5 72.5h336v164q0 72 -46.5 108.5t-160.5 36.5q-117 0 -164 -33.5t-47 -105.5v-16q0 -43 -41 -43h-111q-37 0 -37 43v32q0 287 402.5 287t402.5 -287v-743q0 -43 -39 -43h-16q-55 -2 -83 -36t-28 -83q0 -86 103 -86h28q41 0 41 -39v-59 q0 -39 -51 -39h-80q-78 0 -138 48t-60 140q0 131 131 215l-2 43q-154 -121 -336 -120q-143 0 -222 72.5t-79 185.5zM315 270q0 -119 154 -118q141 0 281 108v182h-293q-78 0 -110 -31.5t-32 -97.5v-43z" />
<glyph unicode="&#x106;" horiz-adv-x="1189" d="M152 311v826q0 330 471 329.5t471 -329.5v-105q0 -41 -39 -41h-125q-39 0 -39 41v72q0 184 -266 184q-264 0 -265 -184v-760q0 -184 265 -184q266 0 266 184v100q0 41 39 41h125q39 0 39 -41v-133q0 -328 -471 -328t-471 328zM524 1604l125 227q23 39 56 39h133 q30 0 30 -17q0 -9 -10 -24l-164 -238q-14 -27 -51 -26h-98q-28 0 -28 16q-1 10 7 23z" />
<glyph unicode="&#x107;" horiz-adv-x="1032" d="M127 274v508q0 291 410 291q408 0 407 -291v-39q0 -41 -39 -41h-114q-41 0 -41 41v23q0 72 -47.5 106.5t-163.5 34.5q-115 0 -162 -34.5t-47 -106.5v-477q0 -70 47 -104.5t162 -34.5q117 0 164 34.5t47 104.5v43q0 41 41 41h114q39 0 39 -41v-58q0 -291 -409 -290 q-408 -1 -408 290zM446 1241l127 229q20 37 56 37h131q31 0 31 -15q0 -9 -11 -24l-162 -239q-16 -25 -51 -25h-98q-29 0 -29 17q-1 8 6 20z" />
<glyph unicode="&#x108;" horiz-adv-x="1189" d="M152 311v826q0 330 471 329.5t471 -329.5v-105q0 -41 -39 -41h-125q-39 0 -39 41v72q0 184 -266 184q-264 0 -265 -184v-760q0 -184 265 -184q266 0 266 184v100q0 41 39 41h125q39 0 39 -41v-133q0 -328 -471 -328t-471 328zM335 1577q-2 4 -2 8q0 9 7 19l160 225 q31 41 65 41h74q35 0 63 -41l160 -225q7 -10 7 -19q0 -4 -2 -8q-5 -12 -25 -12h-97q-33 0 -55 39l-88 143l-86 -143q-23 -39 -57 -39h-96q-23 0 -28 12z" />
<glyph unicode="&#x109;" horiz-adv-x="1032" d="M127 274v508q0 291 410 291q408 0 407 -291v-39q0 -41 -39 -41h-114q-41 0 -41 41v23q0 72 -47.5 106.5t-163.5 34.5q-115 0 -162 -34.5t-47 -106.5v-477q0 -70 47 -104.5t162 -34.5q117 0 164 34.5t47 104.5v43q0 41 41 41h114q39 0 39 -41v-58q0 -291 -409 -290 q-408 -1 -408 290zM251 1215q-2 4 -2 8q0 8 7 18l160 227q29 39 63 39h74q35 0 65 -39l160 -227q7 -10 7 -18q0 -4 -2 -8q-5 -11 -27 -11h-97q-31 0 -55 37l-86 143l-90 -143q-23 -37 -55 -37h-97q-20 0 -25 11z" />
<glyph unicode="&#x10a;" horiz-adv-x="1189" d="M152 311v826q0 330 471 329.5t471 -329.5v-105q0 -41 -39 -41h-125q-39 0 -39 41v72q0 184 -266 184q-264 0 -265 -184v-760q0 -184 265 -184q266 0 266 184v100q0 41 39 41h125q39 0 39 -41v-133q0 -328 -471 -328t-471 328zM492 1616v172q0 39 38 39h127q39 0 39 -39 v-172q0 -39 -39 -39h-127q-38 0 -38 39z" />
<glyph unicode="&#x10b;" horiz-adv-x="1032" d="M127 274v508q0 291 410 291q408 0 407 -291v-39q0 -41 -39 -41h-114q-41 0 -41 41v23q0 72 -47.5 106.5t-163.5 34.5q-115 0 -162 -34.5t-47 -106.5v-477q0 -70 47 -104.5t162 -34.5q117 0 164 34.5t47 104.5v43q0 41 41 41h114q39 0 39 -41v-58q0 -291 -409 -290 q-408 -1 -408 290zM412 1272v168q0 41 39 41h129q39 0 38 -41v-168q0 -41 -38 -41h-129q-39 0 -39 41z" />
<glyph unicode="&#x10c;" horiz-adv-x="1189" d="M152 311v826q0 330 471 329.5t471 -329.5v-105q0 -41 -39 -41h-125q-39 0 -39 41v72q0 184 -266 184q-264 0 -265 -184v-760q0 -184 265 -184q266 0 266 184v100q0 41 39 41h125q39 0 39 -41v-133q0 -328 -471 -328t-471 328zM326 1859q6 11 28 11h95q31 0 59 -41 l86 -139l88 139q27 41 55 41h97q20 0 26 -11q2 -4 2 -9q0 -9 -8 -21l-160 -225q-27 -39 -63 -39h-76q-33 0 -63 41l-160 223q-8 12 -8 21q0 5 2 9z" />
<glyph unicode="&#x10d;" horiz-adv-x="1032" d="M127 274v508q0 291 410 291q408 0 407 -291v-39q0 -41 -39 -41h-114q-41 0 -41 41v23q0 72 -47.5 106.5t-163.5 34.5q-115 0 -162 -34.5t-47 -106.5v-477q0 -70 47 -104.5t162 -34.5q117 0 164 34.5t47 104.5v43q0 41 41 41h114q39 0 39 -41v-58q0 -291 -409 -290 q-408 -1 -408 290zM250 1496q6 11 26 11h97q29 0 55 -39l90 -141l86 141q29 39 55 39h97q23 0 28 -11q2 -4 2 -8q0 -9 -8 -20l-160 -227q-29 -37 -65 -37h-74q-35 0 -63 39l-160 225q-8 11 -8 20q0 4 2 8z" />
<glyph unicode="&#x10e;" horiz-adv-x="1294" d="M174 43v1362q0 43 39 43h444q256 0 371 -91t115 -237v-792q0 -145 -115 -236.5t-371 -91.5h-448q-35 0 -35 43zM373 1859q6 11 28 11h95q31 0 57 -41l88 -139l88 139q27 41 55 41h97q20 0 26 -11.5t-6 -29.5l-160 -225q-29 -39 -63 -39h-76q-33 0 -63 41l-160 223 q-8 12 -8 21q0 5 2 9zM381 176h276q279 0 279 186v723q0 186 -279 187h-276v-1096z" />
<glyph unicode="&#x10f;" horiz-adv-x="1288" d="M127 272v512q0 135 74.5 212t226.5 77q182 0 350 -121v494q0 43 37 43h125q39 0 39 -43v-1403q0 -43 -39 -43h-113q-39 0 -41 43l-4 63q-162 -123 -354 -122q-152 0 -226.5 76.5t-74.5 211.5zM330 305q0 -139 157 -139q141 0 291 108v506q-143 111 -291 111 q-158 0 -157 -139v-447zM1077 1225l19 38q12 26 15 36t10 28.5t9.5 33.5t4.5 38.5t2 50.5v61q0 41 41 41h92q41 0 41 -41v-71q0 -121 -90 -266q-13 -22 -41 -22q-6 0 -13 1l-69 16q-27 7 -28 30q0 11 7 26z" />
<glyph unicode="&#x110;" horiz-adv-x="1294" d="M14 692v76q0 39 41 39h119v598q0 43 39 43h444q256 0 371 -91t115 -237v-792q0 -145 -115 -236.5t-371 -91.5h-448q-35 0 -35 43v610h-119q-41 0 -41 39zM381 176h276q279 0 279 186v723q0 186 -279 187h-276v-465h246q41 0 41 -39v-76q0 -39 -41 -39h-246v-477z" />
<glyph unicode="&#x111;" horiz-adv-x="1130" d="M127 272v512q0 135 74.5 212t226.5 77q182 0 350 -121v224h-270q-41 0 -41 38v66q0 39 41 39h270v127q0 43 37 43h125q39 0 39 -43v-127h76q41 0 41 -39v-66q0 -39 -41 -38h-76v-1133q0 -43 -39 -43h-113q-39 0 -41 43l-4 63q-162 -123 -354 -122q-152 0 -226.5 76.5 t-74.5 211.5zM330 305q0 -139 157 -139q141 0 291 108v506q-143 111 -291 111q-158 0 -157 -139v-447z" />
<glyph unicode="&#x112;" horiz-adv-x="1103" d="M174 43v1362q0 43 39 43h729q39 0 39 -41v-94q0 -41 -39 -41h-561v-430h522q43 0 43 -41v-92q0 -39 -43 -39h-522v-494h584q41 0 41 -37v-98q0 -41 -41 -41h-752q-39 0 -39 43zM264 1665v78q0 37 41 37h516q41 0 41 -37v-78q0 -39 -41 -39h-516q-41 0 -41 39z" />
<glyph unicode="&#x113;" horiz-adv-x="1052" d="M127 274v508q0 291 412 291q403 0 403 -291v-260q0 -39 -37 -39h-579v-196q0 -70 46 -106t166.5 -36t167 36t46.5 106v24q0 41 41 41h108q41 0 41 -41v-37q0 -291 -407.5 -291t-407.5 291zM227 1288v78q0 37 43 37h516q41 0 41 -37v-78q0 -39 -41 -39h-516q-43 0 -43 39z M326 635h426v133q0 143 -213 143t-213 -143v-133z" />
<glyph unicode="&#x114;" horiz-adv-x="1103" d="M174 43v1362q0 43 39 43h729q39 0 39 -41v-94q0 -41 -39 -41h-561v-430h522q43 0 43 -41v-92q0 -39 -43 -39h-522v-494h584q41 0 41 -37v-98q0 -41 -41 -41h-752q-39 0 -39 43zM291 1808v33q0 33 37 33h78q35 0 34 -33v-39q0 -59 27 -90t97.5 -31t97 31t26.5 90v39 q0 33 37 33h74q37 0 37 -33v-33q0 -252 -275 -252q-270 0 -270 252z" />
<glyph unicode="&#x115;" horiz-adv-x="1052" d="M127 274v508q0 291 412 291q403 0 403 -291v-260q0 -39 -37 -39h-579v-196q0 -70 46 -106t166.5 -36t167 36t46.5 106v24q0 41 41 41h108q41 0 41 -41v-37q0 -291 -407.5 -291t-407.5 291zM256 1425v31q0 35 35 35h76q37 0 36 -35v-35q0 -125 123 -125q70 0 96.5 33 t26.5 92v35q0 35 37 35h74q37 0 37 -35v-31q0 -250 -275 -249q-266 -1 -266 249zM326 635h426v133q0 143 -213 143t-213 -143v-133z" />
<glyph unicode="&#x116;" horiz-adv-x="1103" d="M174 43v1362q0 43 39 43h729q39 0 39 -41v-94q0 -41 -39 -41h-561v-430h522q43 0 43 -41v-92q0 -39 -43 -39h-522v-494h584q41 0 41 -37v-98q0 -41 -41 -41h-752q-39 0 -39 43zM471 1616v172q0 39 39 39h127q39 0 39 -39v-172q0 -39 -39 -39h-127q-39 0 -39 39z" />
<glyph unicode="&#x117;" horiz-adv-x="1052" d="M127 274v508q0 291 412 291q403 0 403 -291v-260q0 -39 -37 -39h-579v-196q0 -70 46 -106t166.5 -36t167 36t46.5 106v24q0 41 41 41h108q41 0 41 -41v-37q0 -291 -407.5 -291t-407.5 291zM326 635h426v133q0 143 -213 143t-213 -143v-133z" />
<glyph unicode="&#x118;" horiz-adv-x="1103" d="M174 43v1362q0 43 39 43h729q39 0 39 -41v-94q0 -41 -39 -41h-561v-430h522q43 0 43 -41v-92q0 -39 -43 -39h-522v-494h584q41 0 41 -37v-98q0 -41 -41 -41h-70q-57 0 -85 -34t-28 -83q0 -88 105 -88h59q41 0 41 -39v-59q0 -39 -53 -39h-98q-84 0 -147.5 45t-63.5 143 q0 88 51 154h-463q-39 0 -39 43z" />
<glyph unicode="&#x119;" horiz-adv-x="1052" d="M127 274v508q0 291 412 291q403 0 403 -291v-260q0 -39 -37 -39h-579v-196q0 -70 46 -106t166.5 -36t167 36t46.5 106v24q0 41 41 41h108q41 0 41 -41v-37q0 -135 -80 -202l-28 -23q-20 -16 -27.5 -23.5t-24 -21.5t-22.5 -26.5t-14.5 -26.5t-11.5 -32.5t-3 -37.5 q0 -86 103 -86h63q41 0 41 -39v-59q0 -39 -51 -39h-111q-80 0 -138 43t-58 133q0 88 43 154q-55 -4 -88 -4q-408 -1 -408 290zM326 635h426v133q0 143 -213 143t-213 -143v-133z" />
<glyph unicode="&#x11a;" horiz-adv-x="1103" d="M174 43v1362q0 43 39 43h729q39 0 39 -41v-94q0 -41 -39 -41h-561v-430h522q43 0 43 -41v-92q0 -39 -43 -39h-522v-494h584q41 0 41 -37v-98q0 -41 -41 -41h-752q-39 0 -39 43zM285 1859q6 11 28 11h97q29 0 57 -41l86 -139l88 139q29 41 55 41h97q20 0 27 -11q2 -4 3 -9 q0 -9 -10 -21l-160 -225q-27 -39 -63 -39h-74q-35 0 -65 41l-160 223q-8 12 -8 21q0 5 2 9z" />
<glyph unicode="&#x11b;" horiz-adv-x="1052" d="M127 274v508q0 291 412 291q403 0 403 -291v-260q0 -39 -37 -39h-579v-196q0 -70 46 -106t166.5 -36t167 36t46.5 106v24q0 41 41 41h108q41 0 41 -41v-37q0 -291 -407.5 -291t-407.5 291zM260 1496q6 11 27 11h96q29 0 55 -39l90 -141l88 141q27 39 56 39h94 q23 0 29 -11q2 -4 2 -8q0 -9 -9 -20l-159 -227q-29 -37 -64 -37h-76q-33 0 -63 39l-160 225q-8 11 -8 20q0 4 2 8zM326 635h426v133q0 143 -213 143t-213 -143v-133z" />
<glyph unicode="&#x11c;" horiz-adv-x="1218" d="M152 311v826q0 330 471 329.5t471 -329.5v-93q0 -41 -39 -40h-125q-39 0 -39 40v60q0 184 -266 184q-264 0 -265 -184v-760q0 -184 265 -184q266 0 266 182v205h-254q-41 0 -41 41v98q0 39 41 39h416q41 0 41 -39v-375q0 -328 -471 -328t-471 328zM342 1577q-2 4 -2 8 q0 9 8 19l160 225q29 41 63 41h74q35 0 64 -41l159 -225q10 -10 10 -19q0 -4 -2 -8q-7 -12 -28 -12h-96q-31 0 -56 39l-88 143l-86 -143q-23 -39 -57 -39h-96q-21 0 -27 12z" />
<glyph unicode="&#x11d;" horiz-adv-x="1130" d="M127 272v512q0 135 74.5 212t226.5 77q199 0 354 -127l4 68q2 43 41 43h113q39 0 39 -43v-1157q0 -291 -422 -291h-293q-43 0 -43 41v88q0 41 43 41h293q221 0 221 143v223q-162 -119 -350 -118q-152 0 -226.5 76.5t-74.5 211.5zM300 1215q-2 4 -2 8q0 8 7 18l160 227 q29 39 63 39h74q35 0 66 -39l159 -227q7 -10 7 -18q0 -4 -1 -8q-5 -11 -28 -11h-96q-31 0 -56 37l-86 143l-90 -143q-23 -37 -55 -37h-96q-21 0 -26 11zM330 305q0 -139 157 -139q141 0 291 108v506q-143 111 -291 111q-158 0 -157 -139v-447z" />
<glyph unicode="&#x11e;" horiz-adv-x="1218" d="M152 311v826q0 330 471 329.5t471 -329.5v-93q0 -41 -39 -40h-125q-39 0 -39 40v60q0 184 -266 184q-264 0 -265 -184v-760q0 -184 265 -184q266 0 266 182v205h-254q-41 0 -41 41v98q0 39 41 39h416q41 0 41 -39v-375q0 -328 -471 -328t-471 328zM336 1808v33 q0 33 37 33h76q37 0 36 -33v-39q0 -59 27 -90t97.5 -31t97 31t26.5 90v39q0 33 35 33h76q37 0 37 -33v-33q0 -252 -277 -252q-268 0 -268 252z" />
<glyph unicode="&#x11f;" horiz-adv-x="1130" d="M127 272v512q0 135 74.5 212t226.5 77q199 0 354 -127l4 68q2 43 41 43h113q39 0 39 -43v-1157q0 -291 -422 -291h-293q-43 0 -43 41v88q0 41 43 41h293q221 0 221 143v223q-162 -119 -350 -118q-152 0 -226.5 76.5t-74.5 211.5zM289 1425v31q0 35 37 35h75q35 0 35 -35 v-35q0 -125 125 -125q70 0 96.5 33t26.5 92v35q0 35 37 35h74q37 0 36 -35v-31q0 -250 -276 -249q-266 -1 -266 249zM330 305q0 -139 157 -139q141 0 291 108v506q-143 111 -291 111q-158 0 -157 -139v-447z" />
<glyph unicode="&#x120;" horiz-adv-x="1218" d="M152 305v825q0 328 471 328t471 -328v-94q0 -39 -39 -39h-125q-39 0 -39 39v62q0 184 -266 184q-264 0 -265 -184v-760q0 -184 265 -184q266 0 266 182v205h-254q-41 0 -41 41v98q0 37 41 37h416q41 0 41 -37v-375q0 -328 -471 -328t-471 328zM508 1610v170q0 41 37 41 h129q37 0 37 -41v-170q0 -41 -37 -41h-129q-37 0 -37 41z" />
<glyph unicode="&#x121;" horiz-adv-x="1130" d="M127 272v512q0 135 74.5 212t226.5 77q199 0 354 -127l4 68q2 43 41 43h113q39 0 39 -43v-1157q0 -291 -422 -291h-293q-43 0 -43 41v88q0 41 43 41h293q221 0 221 143v223q-162 -119 -350 -118q-152 0 -226.5 76.5t-74.5 211.5zM330 305q0 -139 157 -139q141 0 291 108 v506q-143 111 -291 111q-158 0 -157 -139v-447zM449 1272v168q0 41 40 41h129q37 0 37 -41v-168q0 -41 -37 -41h-129q-40 0 -40 41z" />
<glyph unicode="&#x122;" horiz-adv-x="1218" d="M152 311v826q0 330 471 329.5t471 -329.5v-93q0 -41 -39 -40h-125q-39 0 -39 40v60q0 184 -266 184q-264 0 -265 -184v-760q0 -184 265 -184q266 0 266 182v205h-254q-41 0 -41 41v98q0 39 41 39h416q41 0 41 -39v-375q0 -328 -471 -328t-471 328zM479 -432l19 38 q12 26 15 35t10 28.5t9.5 34.5t4.5 39t2 50v62q0 41 41 41h92q39 0 39 -41v-72q0 -121 -88 -266q-14 -22 -39 -23q-7 0 -15 2l-71 17q-25 7 -26 28q0 11 7 27z" />
<glyph unicode="&#x123;" horiz-adv-x="1130" d="M127 272v512q0 135 74.5 212t226.5 77q199 0 354 -127l4 68q2 43 41 43h113q39 0 39 -43v-1157q0 -291 -422 -291h-293q-43 0 -43 41v88q0 41 43 41h293q221 0 221 143v223q-162 -119 -350 -118q-152 0 -226.5 76.5t-74.5 211.5zM330 305q0 -139 157 -139q141 0 291 108 v506q-143 111 -291 111q-158 0 -157 -139v-447zM442 1255v72q0 121 90 266q13 22 41 22q6 0 13 -1l69 -17q27 -7 28 -29q0 -11 -7 -26l-19 -38q-12 -26 -15 -36t-10 -28.5t-9 -33.5t-4.5 -39t-2.5 -50v-62q0 -41 -41 -41h-92q-41 0 -41 41z" />
<glyph unicode="&#x124;" horiz-adv-x="1314" d="M174 43v1362q0 43 39 43h129q39 0 39 -43v-559h555v559q0 43 37 43h133q37 0 37 -43v-1362q0 -43 -37 -43h-133q-37 0 -37 43v627h-555v-627q0 -43 -39 -43h-129q-39 0 -39 43zM390 1577q-2 4 -2 8q0 9 7 19l160 225q31 41 66 41h73q35 0 64 -41l160 -225q7 -10 6 -19 q0 -4 -1 -8q-5 -12 -26 -12h-96q-33 0 -56 39l-88 143l-86 -143q-23 -39 -57 -39h-96q-23 0 -28 12z" />
<glyph unicode="&#x125;" horiz-adv-x="1140" d="M-13 1577q-2 4 -2 8q0 9 7 19l160 225q29 41 63 41h74q35 0 65 -41l160 -225q10 -14 5 -26.5t-27 -12.5h-97q-31 0 -55 39l-86 143l-88 -143q-20 -39 -57 -39h-97q-20 0 -25 12zM152 43v1403q0 43 41 43h122q39 0 39 -43v-492q150 119 348 119q145 0 223.5 -75.5 t78.5 -196.5v-758q0 -43 -39 -43h-123q-41 0 -41 43v709q0 141 -158 141q-150 0 -289 -109v-741q0 -43 -39 -43h-122q-41 0 -41 43z" />
<glyph unicode="&#x126;" horiz-adv-x="1314" d="M59 1075v66q0 39 41 39h74v225q0 43 39 43h129q39 0 39 -43v-225h555v225q0 43 37 43h133q37 0 37 -43v-225h74q41 0 40 -39v-66q0 -39 -40 -39h-74v-993q0 -43 -37 -43h-133q-37 0 -37 43v627h-555v-627q0 -43 -39 -43h-129q-39 0 -39 43v993h-74q-41 0 -41 39zM381 846 h555v190h-555v-190z" />
<glyph unicode="&#x127;" horiz-adv-x="1140" d="M20 1214v66q0 39 43 39h89v127q0 43 41 43h122q39 0 39 -43v-127h254q43 0 43 -39v-66q0 -41 -43 -40h-254v-220q150 119 348 119q145 0 223.5 -75.5t78.5 -196.5v-758q0 -43 -39 -43h-123q-41 0 -41 43v709q0 141 -158 141q-150 0 -289 -109v-741q0 -43 -39 -43h-122 q-41 0 -41 43v1131h-89q-43 -1 -43 40z" />
<glyph unicode="&#x128;" horiz-adv-x="555" d="M-51 1630l4 68q4 84 52 127t116 43q72 0 127 -35l90 -55q72 -39 86 -39q25 0 33 16.5t8 63.5v14q0 37 45 37h65q34 0 34 -35q0 -6 -1 -12l-4 -68q-4 -86 -53 -128t-116.5 -42t-123.5 33l-92 55q-70 41 -84 41q-29 0 -35 -15.5t-6 -64.5v-16q0 -35 -43 -35h-67 q-39 0 -35 47zM174 43v1362q0 43 39 43h129q39 0 39 -43v-1362q0 -43 -39 -43h-129q-39 0 -39 43z" />
<glyph unicode="&#x129;" d="M-78 1253l4 68q4 84 51.5 127t117 43t124.5 -35l92 -55q70 -39 84 -39q27 0 34 16.5t7 63.5v14q0 37 45 37h66q39 0 35 -47l-4 -68q-4 -86 -52.5 -128t-118 -42t-124.5 33l-90 55q-72 41 -87 41q-29 0 -34.5 -15t-5.5 -65v-16q0 -35 -43 -35h-68q-34 0 -34 35q0 6 1 12z M152 41v973q0 43 38 43h125q39 0 39 -43v-973q0 -41 -39 -41h-125q-38 0 -38 41z" />
<glyph unicode="&#x12a;" horiz-adv-x="555" d="M-18 1665v78q0 37 38 37h519q41 0 41 -37v-78q0 -39 -41 -39h-519q-38 0 -38 39zM174 43v1362q0 43 39 43h129q39 0 39 -43v-1362q0 -43 -39 -43h-129q-39 0 -39 43z" />
<glyph unicode="&#x12b;" d="M-47 1288v78q0 37 43 37h516q39 0 39 -37v-78q0 -39 -39 -39h-516q-43 0 -43 39zM152 41v973q0 43 38 43h125q39 0 39 -43v-973q0 -41 -39 -41h-125q-38 0 -38 41z" />
<glyph unicode="&#x12c;" horiz-adv-x="555" d="M6 1808v33q0 33 37 33h76q37 0 37 -33v-39q0 -59 26.5 -90t97 -31t97 31t26.5 90v39q0 33 35 33h76q35 0 35 -33v-33q0 -252 -275 -252q-268 0 -268 252zM174 43v1362q0 43 39 43h129q39 0 39 -43v-1362q0 -43 -39 -43h-129q-39 0 -39 43z" />
<glyph unicode="&#x12d;" d="M-18 1425v31q0 35 34 35h76q35 0 35 -35v-35q0 -125 125 -125q70 0 96.5 33t26.5 92v35q0 35 37 35h73q37 0 37 -35v-31q0 -250 -274 -249q-266 -1 -266 249zM152 41v973q0 43 38 43h125q39 0 39 -43v-973q0 -41 -39 -41h-125q-38 0 -38 41z" />
<glyph unicode="&#x12e;" horiz-adv-x="555" d="M35 -154q0 53 32.5 121t106.5 109v1329q0 43 39 43h129q39 0 39 -43v-1362q0 -43 -39 -43h-41q-51 0 -79.5 -34t-28.5 -83q0 -88 104 -88h59q39 0 39 -39v-59q0 -39 -53 -39h-96q-84 0 -147.5 45t-63.5 143z" />
<glyph unicode="&#x12f;" d="M10 -154q0 55 32 123t110 107v938q0 43 41 43h122q39 0 39 -43v-971q0 -43 -39 -43h-39q-109 -6 -108 -117q0 -88 104 -88h60q41 0 41 -39v-59q0 -39 -54 -39h-98q-82 0 -146.5 45t-64.5 143zM152 1255v191q0 43 41 43h122q39 0 39 -43v-191q0 -41 -39 -41h-122 q-41 0 -41 41z" />
<glyph unicode="&#x130;" horiz-adv-x="555" d="M174 43v1362q0 43 39 43h129q39 0 39 -43v-1362q0 -43 -39 -43h-129q-39 0 -39 43zM176 1616v172q0 39 39 39h127q39 0 39 -39v-172q0 -39 -39 -39h-127q-39 0 -39 39z" />
<glyph unicode="&#x131;" d="M152 41v973q0 43 38 43h125q39 0 39 -43v-973q0 -41 -39 -41h-125q-38 0 -38 41z" />
<glyph unicode="&#x132;" horiz-adv-x="1628" d="M174 43v1362q0 43 39 43h129q39 0 39 -43v-1362q0 -43 -39 -43h-129q-39 0 -39 43zM606 311v109q0 43 41 43h127q37 0 37 -43v-76q0 -90 52 -137t177 -47q121 0 170.5 47t49.5 137v1061q0 43 36 43h131q41 0 41 -43v-1094q0 -328 -428 -327q-434 -1 -434 327z" />
<glyph unicode="&#x133;" horiz-adv-x="1005" d="M152 43v971q0 43 41 43h122q39 0 39 -43v-971q0 -43 -39 -43h-122q-41 0 -41 43zM152 1255v191q0 43 41 43h122q39 0 39 -43v-191q0 -41 -39 -41h-122q-41 0 -41 41zM377 -305q0 41 41 41h16q219 0 219 143v1135q0 43 39 43h123q41 0 41 -43v-1157q0 -291 -422 -291h-16 q-41 0 -41 41v88zM653 1255v191q0 43 39 43h125q39 0 39 -43v-191q0 -41 -39 -41h-125q-39 0 -39 41z" />
<glyph unicode="&#x134;" horiz-adv-x="1073" d="M51 311v109q0 43 41 43h125q39 0 39 -43v-76q0 -90 52 -137t175 -47q121 0 170 47t49 137v1061q0 43 39 43h129q41 0 41 -43v-1094q0 -328 -428 -327q-432 -1 -432 327zM531 1577q-2 4 -1 8q0 9 7 19l159 225q31 41 64 41h76q33 0 63 -41l160 -225q7 -10 7 -19 q0 -4 -2 -8q-5 -12 -28 -12h-94q-33 0 -55 39l-88 143l-88 -143q-20 -39 -58 -39h-96q-21 0 -26 12z" />
<glyph unicode="&#x135;" d="M-125 -309q0 41 39 41h18q219 0 220 145v1137q0 43 38 43h123q41 0 41 -43v-1159q0 -289 -422 -289h-18q-39 0 -39 39v86zM-13 1215q-2 4 -2 8q0 8 7 18l160 227q29 39 63 39h74q35 0 65 -39l160 -227q7 -10 7 -18q0 -4 -2 -8q-5 -11 -27 -11h-97q-31 0 -55 37l-86 143 l-90 -143q-23 -37 -55 -37h-97q-20 0 -25 11z" />
<glyph unicode="&#x136;" horiz-adv-x="1200" d="M174 41v1366q0 41 39 41h129q41 0 41 -41v-608h51l447 608q31 41 65 41h139q23 0 27 -12.5t-6 -28.5l-496 -672l553 -694q8 -11 8 -20q0 -5 -2 -9q-6 -12 -26 -12h-168q-33 0 -62 41l-477 602h-53v-602q0 -41 -41 -41h-129q-39 0 -39 41zM457 -432q6 12 17 37.5t14.5 35 t11.5 29t10 34.5t4 39t2 50v62q0 41 39 41h92q41 0 41 -41v-72q0 -121 -90 -266q-13 -22 -38 -23q-7 0 -15 2l-70 17q-26 7 -26 27q0 12 8 28z" />
<glyph unicode="&#x137;" horiz-adv-x="1007" d="M152 41v1407q0 41 38 41h125q39 0 39 -41v-778h60l321 346q35 41 66 41h135q20 0 26.5 -14.5t-8.5 -28.5l-376 -416l417 -557q8 -11 9 -20q0 -5 -3 -9q-6 -12 -26 -12h-135q-31 0 -62 41l-362 475h-62v-475q0 -41 -39 -41h-125q-38 0 -38 41zM381 -432l18 38 q12 26 15.5 35t10.5 28.5t9 34.5t4 39t2 50v62q0 41 41 41h92q41 0 41 -41v-72q0 -121 -90 -266q-13 -22 -38 -23q-7 0 -15 2l-70 17q-27 7 -27 29q0 11 7 26z" />
<glyph unicode="&#x138;" horiz-adv-x="1007" d="M152 41v973q0 43 38 43h125q39 0 39 -43v-350h60l321 352q35 41 66 41h135q20 0 26.5 -13.5t-8.5 -29.5l-376 -420l417 -553q8 -11 9 -20q0 -5 -3 -9q-6 -12 -26 -12h-135q-31 0 -62 41l-362 469h-62v-469q0 -41 -39 -41h-125q-38 0 -38 41z" />
<glyph unicode="&#x139;" horiz-adv-x="1032" d="M174 43v1362q0 43 41 43h129q39 0 39 -43v-1229h545q41 0 41 -37v-98q0 -41 -41 -41h-719q-35 0 -35 43zM201 1604l125 227q23 39 55 39h133q30 0 30 -17q0 -9 -9 -24l-164 -238q-14 -27 -52 -26h-98q-28 0 -28 16q0 10 8 23z" />
<glyph unicode="&#x13a;" d="M152 43v1403q0 43 41 43h122q39 0 39 -43v-1403q0 -43 -39 -43h-122q-41 0 -41 43zM176 1604l127 227q20 39 55 39h131q31 0 31 -18q0 -9 -8 -23l-164 -238q-16 -27 -51 -26h-98q-29 0 -29 18q-1 8 6 21z" />
<glyph unicode="&#x13b;" horiz-adv-x="1032" d="M174 43v1362q0 43 41 43h129q39 0 39 -43v-1229h545q41 0 41 -37v-98q0 -41 -41 -41h-719q-35 0 -35 43zM401 -432q6 12 17.5 37.5t14.5 35t10.5 29t10.5 34.5t5 39t2 50v62q0 41 39 41h92q41 0 41 -41v-72q0 -121 -90 -266q-13 -22 -38 -23q-7 0 -16 2l-69 17 q-26 7 -27 27q0 12 8 28z" />
<glyph unicode="&#x13c;" d="M106 -434l19 38q12 26 15 35t10.5 28.5t9.5 34.5t4 38.5t2 50.5v62q0 41 41 41h92q39 0 39 -41v-72q0 -121 -88 -266q-15 -24 -42 -24q-6 0 -11 1l-72 19q-25 7 -26 28q0 11 7 27zM152 43v1403q0 43 41 43h122q39 0 39 -43v-1403q0 -43 -39 -43h-122q-41 0 -41 43z" />
<glyph unicode="&#x13d;" horiz-adv-x="1032" d="M174 43v1362q0 43 41 43h129q39 0 39 -43v-1229h545q41 0 41 -37v-98q0 -41 -41 -41h-719q-35 0 -35 43zM631 1206q6 12 17 38l16 35q4 9 11 28.5t9 34t4 38t2 52.5v61q0 41 41 41h90q41 0 41 -41v-72q0 -123 -88 -266q-15 -24 -41 -24q-6 0 -12 2l-72 18q-26 7 -26 28 q0 11 8 27z" />
<glyph unicode="&#x13e;" horiz-adv-x="661" d="M152 43v1403q0 43 41 43h122q39 0 39 -43v-1403q0 -43 -39 -43h-122q-41 0 -41 43zM455 1225q6 12 17 37.5t14 36t10.5 29t10.5 33.5t5 38.5t2 50.5v61q0 41 39 41h92q41 0 41 -41v-71q0 -121 -90 -266q-13 -22 -40 -22q-6 0 -13 1l-70 16q-26 7 -26 28q0 12 8 28z" />
<glyph unicode="&#x13f;" horiz-adv-x="1032" d="M174 43v1362q0 43 41 43h129q39 0 39 -43v-1229h545q41 0 41 -37v-98q0 -41 -41 -41h-719q-35 0 -35 43zM686 670v170q0 41 41 41h127q39 0 39 -41v-170q0 -41 -39 -41h-127q-41 0 -41 41z" />
<glyph unicode="&#x140;" horiz-adv-x="720" d="M152 43v1403q0 43 41 43h122q39 0 39 -43v-1403q0 -43 -39 -43h-122q-41 0 -41 43zM492 670v170q0 41 40 41h127q39 0 39 -41v-170q0 -41 -39 -41h-127q-40 0 -40 41z" />
<glyph unicode="&#x141;" horiz-adv-x="1032" d="M16 645q-4 10 -3 18q0 23 28 33l133 54v655q0 43 41 43h129q39 0 39 -43v-569l113 47q11 4 19 4q23 0 34 -27l20 -45q12 -31 -24 -49l-162 -66v-524h545q41 0 41 -37v-98q0 -41 -41 -41h-719q-35 0 -35 43v573l-86 -36q-35 -12 -51 22z" />
<glyph unicode="&#x142;" horiz-adv-x="552" d="M2 645q-4 11 -4 21q0 22 25 30l151 60v690q0 43 41 43h123q39 0 39 -43v-606l104 43q10 4 19 4q22 0 32 -27l19 -45q4 -9 4 -17q0 -20 -27 -32l-151 -64v-659q0 -43 -39 -43h-123q-41 0 -41 43v578l-102 -41q-10 -4 -19 -4q-22 0 -35 26z" />
<glyph unicode="&#x143;" horiz-adv-x="1314" d="M174 41v1366q0 41 39 41h119q25 0 35 -16l514 -897q12 -20 26.5 -53l26.5 -58l12 -27v1010q0 41 41 41h117q37 0 37 -41v-1366q0 -41 -37 -41h-117q-27 0 -39 18l-502 879q-16 27 -30.5 55.5t-22.5 47t-14 34.5l-8 17v-1010q0 -41 -39 -41h-119q-39 0 -39 41zM584 1604 l125 227q23 39 55 39h133q30 0 30 -17q0 -9 -9 -24l-164 -238q-14 -27 -52 -26h-98q-27 0 -27 17q0 9 7 22z" />
<glyph unicode="&#x144;" horiz-adv-x="1140" d="M152 43v973q0 41 41 41h112q37 0 39 -41l6 -68q145 125 352 125q145 0 223.5 -75.5t78.5 -196.5v-758q0 -43 -39 -43h-123q-41 0 -41 43v709q0 141 -158 141q-150 0 -289 -109v-741q0 -43 -39 -43h-122q-41 0 -41 43zM498 1241l127 229q20 37 55 37h131q31 0 31 -15 q0 -9 -11 -24l-161 -239q-16 -25 -52 -25h-98q-29 0 -29 17q0 8 7 20z" />
<glyph unicode="&#x145;" horiz-adv-x="1314" d="M174 41v1366q0 41 39 41h119q25 0 35 -16l514 -897l65 -138v1010q0 41 41 41h117q37 0 37 -41v-1366q0 -41 -37 -41h-117q-27 0 -39 18l-502 879q-16 27 -30.5 55.5t-22.5 47t-14 34.5l-8 17v-1010q0 -41 -39 -41h-119q-39 0 -39 41zM524 -434q6 12 18 38l15 35 q4 9 11 28.5t9.5 34.5t4.5 38.5t2 50.5v62q0 41 41 41h90q41 0 41 -41v-72q0 -121 -88 -266q-15 -24 -42 -24q-6 0 -12 1l-71 19q-26 7 -27 27q0 12 8 28z" />
<glyph unicode="&#x146;" horiz-adv-x="1140" d="M152 43v973q0 41 41 41h112q37 0 39 -41l6 -68q145 125 352 125q145 0 223.5 -75.5t78.5 -196.5v-758q0 -43 -39 -43h-123q-41 0 -41 43v709q0 141 -158 141q-150 0 -289 -109v-741q0 -43 -39 -43h-122q-41 0 -41 43zM430 -432l19 38q12 26 15 35t10 28.5t9 34.5t4 39 t2 50v62q0 41 41 41h93q39 0 39 -41v-72q0 -121 -89 -266q-14 -22 -38 -23q-7 0 -15 2l-71 17q-25 7 -26 28q0 11 7 27z" />
<glyph unicode="&#x147;" horiz-adv-x="1314" d="M174 41v1366q0 41 39 41h119q25 0 35 -16l514 -897q12 -20 26.5 -53l26.5 -58l12 -27v1010q0 41 41 41h117q37 0 37 -41v-1366q0 -41 -37 -41h-117q-27 0 -39 18l-502 879q-16 27 -30.5 55.5t-22.5 47t-14 34.5l-8 17v-1010q0 -41 -39 -41h-119q-39 0 -39 41zM389 1859 q6 11 29 11h96q29 0 57 -41l86 -139l88 139q29 41 56 41h96q20 0 27 -11q2 -4 2 -9q0 -9 -8 -21l-160 -225q-27 -39 -64 -39h-73q-35 0 -66 41l-160 223q-8 12 -8 21q0 5 2 9z" />
<glyph unicode="&#x148;" horiz-adv-x="1140" d="M152 43v973q0 41 41 41h112q37 0 39 -41l6 -68q145 125 352 125q145 0 223.5 -75.5t78.5 -196.5v-758q0 -43 -39 -43h-123q-41 0 -41 43v709q0 141 -158 141q-150 0 -289 -109v-741q0 -43 -39 -43h-122q-41 0 -41 43zM303 1496q6 11 27 11h96q29 0 55 -39l90 -141l86 141 q29 39 56 39h96q23 0 29 -11q2 -4 2 -8q0 -9 -9 -20l-159 -227q-29 -37 -66 -37h-74q-35 0 -63 39l-160 225q-8 11 -8 20q0 4 2 8z" />
<glyph unicode="&#x149;" horiz-adv-x="1140" d="M82 1225q6 12 17.5 37.5t14.5 36t10 29t10 33.5t5 38.5t2 50.5v61q0 41 39 41h92q41 0 41 -41v-71q0 -121 -90 -266q-16 -27 -53 -21l-70 16q-26 7 -26 28q0 12 8 28zM152 43v973q0 41 41 41h112q37 0 39 -41l6 -68q145 125 352 125q145 0 223.5 -75.5t78.5 -196.5v-758 q0 -43 -39 -43h-123q-41 0 -41 43v709q0 141 -158 141q-150 0 -289 -109v-741q0 -43 -39 -43h-122q-41 0 -41 43z" />
<glyph unicode="&#x14a;" horiz-adv-x="1314" d="M174 41v1366q0 41 39 41h119q25 0 35 -16l514 -897l23 -49l30 -60l12 -29v1010q0 41 41 41h117q37 0 37 -41v-1552q0 -289 -414 -289h-16q-41 0 -41 39v86q0 41 41 41h16q219 0 219 145v146l-500 874q-59 104 -75 154v-1010q0 -41 -39 -41h-119q-39 0 -39 41z" />
<glyph unicode="&#x14b;" horiz-adv-x="1140" d="M152 41v975q0 41 38 41h115q39 0 39 -41l4 -68q156 125 354 125q143 0 222.5 -74.5t79.5 -195.5v-948q0 -289 -422 -289h-15q-43 0 -43 39v86q0 41 43 41h15q219 0 219 145v877q0 143 -158 143q-160 0 -289 -111v-745q0 -41 -39 -41h-125q-38 0 -38 41z" />
<glyph unicode="&#x14c;" horiz-adv-x="1269" d="M152 311v826q0 145 113.5 237t369.5 92t370.5 -92t114.5 -237v-826q0 -145 -114.5 -236t-370.5 -91t-369.5 91t-113.5 236zM336 1665v78q0 37 41 37h518q41 0 41 -37v-78q0 -39 -41 -39h-518q-41 0 -41 39zM360 344q0 -184 275 -184q276 0 276 184v760q0 184 -276 184 q-274 0 -275 -184v-760z" />
<glyph unicode="&#x14d;" horiz-adv-x="1105" d="M127 274v508q0 135 104.5 213t321.5 78t321.5 -77.5t104.5 -213.5v-508q0 -135 -104.5 -212.5t-321.5 -77.5t-321.5 77.5t-104.5 212.5zM254 1288v78q0 37 43 37h514q41 0 41 -37v-78q0 -39 -41 -39h-514q-43 0 -43 39zM330 291q0 -141 224 -141t224 141v473 q0 143 -224 143t-224 -143v-473z" />
<glyph unicode="&#x14e;" horiz-adv-x="1269" d="M152 311v826q0 145 113.5 237t369.5 92t370.5 -92t114.5 -237v-826q0 -145 -114.5 -236t-370.5 -91t-369.5 91t-113.5 236zM360 344q0 -184 275 -184q276 0 276 184v760q0 184 -276 184q-274 0 -275 -184v-760zM362 1808v33q0 33 35 33h78q37 0 37 -33v-39 q0 -59 26.5 -90t96.5 -31t96.5 31t26.5 90v39q0 33 37 33h73q37 0 37 -33v-33q0 -252 -274 -252q-269 0 -269 252z" />
<glyph unicode="&#x14f;" horiz-adv-x="1105" d="M127 274v508q0 135 104.5 213t321.5 78t321.5 -77.5t104.5 -213.5v-508q0 -135 -104.5 -212.5t-321.5 -77.5t-321.5 77.5t-104.5 212.5zM276 1425v31q0 35 37 35h74q37 0 37 -35v-35q0 -125 123 -125q72 0 98.5 33t26.5 92v35q0 35 35 35h75q35 0 35 -35v-31 q0 -250 -274 -249q-267 -1 -267 249zM330 291q0 -141 224 -141t224 141v473q0 143 -224 143t-224 -143v-473z" />
<glyph unicode="&#x150;" horiz-adv-x="1269" d="M152 311v826q0 145 113.5 237t369.5 92t370.5 -92t114.5 -237v-826q0 -145 -114.5 -236t-370.5 -91t-369.5 91t-113.5 236zM360 344q0 -184 275 -184q276 0 276 184v760q0 184 -276 184q-274 0 -275 -184v-760zM412 1604l104 225q16 41 57 41h109q20 0 29.5 -12.5 t-2.5 -28.5l-125 -225q-20 -39 -54 -39h-94q-31 0 -31 18q1 9 7 21zM668 1604l135 225q25 41 61 41h111q29 0 29 -17q0 -9 -9 -24l-157 -227q-25 -37 -58 -37h-94q-27 0 -27 15q0 10 9 24z" />
<glyph unicode="&#x151;" horiz-adv-x="1105" d="M127 274v508q0 135 104.5 213t321.5 78t321.5 -77.5t104.5 -213.5v-508q0 -135 -104.5 -212.5t-321.5 -77.5t-321.5 77.5t-104.5 212.5zM330 291q0 -141 224 -141t224 141v473q0 143 -224 143t-224 -143v-473zM342 1215q-4 6 -4 12.5t4 13.5l107 227q20 39 55 39h112 q20 0 28.5 -12t-1.5 -27l-127 -227q-23 -37 -53 -37h-92q-21 0 -29 11zM598 1241l137 227q23 39 64 39h108q20 0 28 -12q2 -4 2 -8q0 -9 -9 -19l-158 -229q-23 -35 -59 -35h-90q-30 0 -30 17q-1 8 7 20z" />
<glyph unicode="&#x152;" horiz-adv-x="1841" d="M152 309v830q0 145 113.5 236t369.5 91q160 0 276 -67v8q0 41 41 41h727q39 0 39 -39v-92q0 -41 -39 -41h-559v-436h522q41 0 41 -39v-90q0 -37 -41 -37h-522v-502h584q41 0 41 -37v-94q0 -41 -41 -41h-754q-39 0 -39 41v8q-111 -66 -276 -65q-256 0 -369.5 90 t-113.5 235zM360 342q0 -186 275 -186q270 0 276 178v772q0 186 -276 186q-274 0 -275 -186v-764z" />
<glyph unicode="&#x153;" horiz-adv-x="1705" d="M127 272v510q0 135 104.5 213t321.5 78q221 0 311 -84q102 84 324 84q406 0 405 -291v-250q0 -39 -39 -38h-579v-213q0 -70 49 -107t164 -37q215 0 215 144v28q0 41 39 41h104q41 0 41 -41v-37q0 -289 -399 -288q-225 0 -324 84q-88 -84 -311 -84q-217 0 -321.5 76.5 t-104.5 211.5zM330 289q0 -143 224 -143.5t224 143.5v477q0 145 -224 145t-224 -145v-477zM975 633h428v141q0 145 -215 146q-213 0 -213 -146v-141z" />
<glyph unicode="&#x154;" horiz-adv-x="1263" d="M174 43v1362q0 43 39 43h432q256 0 369.5 -91t113.5 -237v-221q0 -227 -247 -299l254 -557q3 -9 3 -16q0 -10 -6 -16q-11 -11 -34 -11h-129q-25 0 -43 35q-2 6 -4 8l-240 530h-301v-530q0 -43 -39 -43h-129q-39 0 -39 43zM381 750h264q276 0 277 186v149q0 186 -277 187 h-264v-522zM487 1604l127 227q20 39 56 39h131q30 0 30 -17q0 -9 -10 -24l-164 -238q-14 -27 -51 -26h-96q-29 0 -29 18q-1 8 6 21z" />
<glyph unicode="&#x155;" horiz-adv-x="757" d="M152 43v973q0 41 41 41h112q37 0 39 -41l8 -92q147 150 332 149q43 0 43 -41v-96q0 -39 -43 -43q-188 -12 -330 -137v-713q0 -43 -39 -43h-122q-41 0 -41 43zM233 1241l127 229q20 37 56 37h131q31 0 31 -15q0 -9 -11 -24l-161 -239q-16 -25 -52 -25h-98q-29 0 -29 17 q-1 8 6 20z" />
<glyph unicode="&#x156;" horiz-adv-x="1263" d="M174 43v1362q0 43 39 43h432q256 0 369.5 -91t113.5 -237v-221q0 -227 -247 -299l254 -557q3 -9 3 -16q0 -10 -6 -16q-11 -11 -34 -11h-129q-25 0 -43 35q-2 6 -4 8l-240 530h-301v-530q0 -43 -39 -43h-129q-39 0 -39 43zM381 750h264q276 0 277 186v149q0 186 -277 187 h-264v-522zM485 -432l19 38q12 26 15 35t10.5 28.5t9.5 34.5t4 39t2 50v62q0 41 41 41h92q39 0 39 -41v-72q0 -121 -88 -266q-14 -22 -39 -23q-7 0 -15 2l-71 17q-25 7 -26 28q0 11 7 27z" />
<glyph unicode="&#x157;" horiz-adv-x="757" d="M109 -432l18 38q12 26 15 35t10.5 28.5t9.5 34.5t4 39t2 50v62q0 41 41 41h92q39 0 39 -41v-72q0 -121 -88 -266q-14 -22 -39 -23q-7 0 -14 2l-72 17q-25 7 -26 28q1 11 8 27zM152 43v973q0 41 41 41h112q37 0 39 -41l8 -92q147 150 332 149q43 0 43 -41v-96 q0 -39 -43 -43q-188 -12 -330 -137v-713q0 -43 -39 -43h-122q-41 0 -41 43z" />
<glyph unicode="&#x158;" horiz-adv-x="1263" d="M174 43v1362q0 43 39 43h432q256 0 369.5 -91t113.5 -237v-221q0 -227 -247 -299l254 -557q3 -9 3 -16q0 -10 -6 -16q-11 -11 -34 -11h-129q-25 0 -43 35q-2 6 -4 8l-240 530h-301v-530q0 -43 -39 -43h-129q-39 0 -39 43zM343 1859q7 11 28 11h96q29 0 57 -41l86 -139 l88 139q29 41 56 41h96q20 0 27.5 -11.5t-7.5 -29.5l-159 -225q-27 -39 -64 -39h-74q-35 0 -63 41l-160 223q-10 12 -9 21q0 5 2 9zM381 750h264q276 0 277 186v149q0 186 -277 187h-264v-522z" />
<glyph unicode="&#x159;" horiz-adv-x="757" d="M111 1496q6 11 28 11h94q29 0 56 -39l90 -141l88 141q27 39 55 39h96q20 0 26.5 -11t-5.5 -28l-160 -227q-29 -37 -63 -37h-76q-33 0 -64 39l-159 225q-8 11 -8 20q0 4 2 8zM152 43v973q0 41 41 41h112q37 0 39 -41l8 -92q147 150 332 149q43 0 43 -41v-96q0 -39 -43 -43 q-188 -12 -330 -137v-713q0 -43 -39 -43h-122q-41 0 -41 43z" />
<glyph unicode="&#x15a;" horiz-adv-x="1208" d="M131 311v123q0 43 41 43h127q37 0 37 -43v-96q0 -180 272 -180q276 0 277 180v100q0 49 -32 87t-61.5 52.5t-86.5 36.5l-361 138q-76 31 -132 100.5t-56 163.5v121q0 145 107.5 237t350 92t352 -92t109.5 -237v-93q0 -41 -39 -40h-125q-39 0 -39 40v66q0 180 -257 180 t-257 -180v-43q0 -102 109 -143l387 -146q233 -90 233 -291v-176q0 -145 -113.5 -236t-362.5 -91t-364.5 91t-115.5 236zM528 1604l125 227q23 39 56 39h133q30 0 30 -17q0 -9 -10 -24l-164 -238q-14 -27 -51 -26h-98q-27 0 -27 17q-1 9 6 22z" />
<glyph unicode="&#x15b;" horiz-adv-x="995" d="M102 238v53q0 39 37 39h113q35 0 35 -39v-43q0 -113 218 -113t218 113v57q0 63 -115 103l-319 110q-66 23 -116 81t-50 134v78q0 111 93 186.5t294 75.5q197 0 291 -75.5t94 -186.5v-51q0 -37 -39 -37h-111q-37 0 -36 37v51q0 113 -201 113q-199 0 -199 -113v-35 q0 -70 88 -98l320 -111q193 -68 192 -209v-120q0 -109 -101 -181.5t-304 -72.5t-302.5 72.5t-99.5 181.5zM430 1241l125 229q23 37 55 37h133q30 0 31 -14q0 -9 -12 -25l-162 -239q-14 -25 -51 -25h-98q-27 0 -28 17q0 8 7 20z" />
<glyph unicode="&#x15c;" horiz-adv-x="1208" d="M131 311v123q0 43 41 43h127q37 0 37 -43v-96q0 -180 272 -180q276 0 277 180v100q0 49 -32 87t-61.5 52.5t-86.5 36.5l-361 138q-76 31 -132 100.5t-56 163.5v121q0 145 107.5 237t350 92t352 -92t109.5 -237v-93q0 -41 -39 -40h-125q-39 0 -39 40v66q0 180 -257 180 t-257 -180v-43q0 -102 109 -143l387 -146q233 -90 233 -291v-176q0 -145 -113.5 -236t-362.5 -91t-364.5 91t-115.5 236zM337 1577q-2 4 -2 8q0 9 7 19l160 225q31 41 65 41h74q35 0 64 -41l159 -225q8 -10 8 -19q0 -4 -2 -8q-6 -12 -26 -12h-96q-33 0 -56 39l-88 143 l-86 -143q-23 -39 -57 -39h-96q-23 0 -28 12z" />
<glyph unicode="&#x15d;" horiz-adv-x="995" d="M102 238v53q0 39 37 39h113q35 0 35 -39v-43q0 -113 218 -113t218 113v57q0 63 -115 103l-319 110q-66 23 -116 81t-50 134v78q0 111 93 186.5t294 75.5q197 0 291 -75.5t94 -186.5v-51q0 -37 -39 -37h-111q-37 0 -36 37v51q0 113 -201 113q-199 0 -199 -113v-35 q0 -70 88 -98l320 -111q193 -68 192 -209v-120q0 -109 -101 -181.5t-304 -72.5t-302.5 72.5t-99.5 181.5zM230 1215q-2 4 -1 8q0 8 7 18l159 227q31 39 66 39h74q35 0 63 -39l160 -227q7 -10 7 -18q0 -4 -2 -8q-5 -11 -26 -11h-96q-33 0 -55 37l-88 143l-88 -143 q-25 -37 -56 -37h-96q-23 0 -28 11z" />
<glyph unicode="&#x15e;" horiz-adv-x="1208" d="M131 311v123q0 43 41 43h127q37 0 37 -43v-96q0 -180 272 -180q276 0 277 180v100q0 49 -32 87t-61.5 52.5t-86.5 36.5l-361 138q-76 31 -132 100.5t-56 163.5v121q0 145 107.5 237t350 92t352 -92t109.5 -237v-93q0 -41 -39 -40h-125q-39 0 -39 40v66q0 180 -257 180 t-257 -180v-43q0 -102 109 -143l387 -146q233 -90 233 -291v-176q0 -139 -103 -228t-335 -97l-24 -97h71q80 0 130.5 -43t50.5 -125q0 -86 -50.5 -128t-130.5 -42h-239q-41 0 -41 39v43q0 39 41 39h211q68 0 67 49q0 47 -67 48h-142q-37 0 -49 12t-6 39l43 168 q-199 16 -291 104t-92 219z" />
<glyph unicode="&#x15f;" horiz-adv-x="995" d="M102 238v53q0 39 37 39h113q35 0 35 -39v-43q0 -113 218 -113t218 113v57q0 63 -115 103l-319 110q-66 23 -116 81t-50 134v78q0 111 93 186.5t294 75.5q197 0 291 -75.5t94 -186.5v-51q0 -37 -39 -37h-111q-37 0 -36 37v51q0 113 -201 113q-199 0 -199 -113v-35 q0 -70 88 -98l320 -111q193 -68 192 -209v-120q0 -106 -98 -179t-293 -75l-26 -95h73q78 0 129 -43t51 -125q0 -86 -51 -128t-129 -42h-241q-41 0 -41 39v43q0 39 41 39h211q68 0 67 49q0 47 -67 48h-142q-35 0 -48 12t-7 39l45 172q-141 20 -211 88t-70 158z" />
<glyph unicode="&#x160;" horiz-adv-x="1208" d="M131 311v123q0 43 41 43h127q37 0 37 -43v-96q0 -180 272 -180q276 0 277 180v100q0 49 -32 87t-61.5 52.5t-86.5 36.5l-361 138q-76 31 -132 100.5t-56 163.5v121q0 145 107.5 237t350 92t352 -92t109.5 -237v-93q0 -41 -39 -40h-125q-39 0 -39 40v66q0 180 -257 180 t-257 -180v-43q0 -102 109 -143l387 -146q233 -90 233 -291v-176q0 -145 -113.5 -236t-362.5 -91t-364.5 91t-115.5 236zM341 1859q7 11 28 11h96q29 0 57 -41l86 -139l88 139q29 41 56 41h96q20 0 28 -11q2 -4 2 -9q0 -9 -10 -21l-159 -225q-27 -39 -64 -39h-74 q-35 0 -63 41l-160 223q-10 12 -9 21q0 5 2 9z" />
<glyph unicode="&#x161;" horiz-adv-x="995" d="M102 238v53q0 39 37 39h113q35 0 35 -39v-43q0 -113 218 -113t218 113v57q0 63 -115 103l-319 110q-66 23 -116 81t-50 134v78q0 111 93 186.5t294 75.5q197 0 291 -75.5t94 -186.5v-51q0 -37 -39 -37h-111q-37 0 -36 37v51q0 113 -201 113q-199 0 -199 -113v-35 q0 -70 88 -98l320 -111q193 -68 192 -209v-120q0 -109 -101 -181.5t-304 -72.5t-302.5 72.5t-99.5 181.5zM241 1496q7 11 27 11h97q27 0 55 -39l90 -141l86 141q29 39 55 39h97q20 0 27 -11q2 -4 3 -8q0 -9 -10 -20l-160 -227q-27 -37 -63 -37h-74q-35 0 -63 39l-160 225 q-10 11 -10 20q1 4 3 8z" />
<glyph unicode="&#x162;" horiz-adv-x="1036" d="M33 1313v94q0 41 39 41h891q41 0 41 -41v-94q0 -41 -41 -41h-340v-1229q0 -43 -39 -43h-133q-37 0 -37 43v1229h-342q-39 0 -39 41zM373 -432l18 38q12 26 15.5 35t10.5 28.5t9 34.5t4 39t2 50v62q0 41 41 41h92q39 0 39 -41v-72q0 -121 -88 -266q-14 -22 -38 -23 q-7 0 -15 2l-72 17q-25 7 -25 28q0 11 7 27z" />
<glyph unicode="&#x163;" horiz-adv-x="753" d="M45 928v76q0 39 41 40l104 9h13v215q0 43 41 43h125q39 0 39 -43v-215h219q41 0 41 -39v-86q0 -41 -41 -41h-219v-574q0 -141 215 -141h39q41 0 40 -43v-88q0 -41 -40 -41h-70q-215 0 -302 71.5t-87 219.5v596h-117q-41 0 -41 41zM174 -434l19 38q12 26 15 35t10 28.5 t9 34.5t4 38.5t2 50.5v62q0 41 41 41h93q41 0 41 -41v-72q0 -121 -91 -266q-13 -24 -40 -24q-6 0 -13 1l-69 19q-27 7 -28 29q0 11 7 26z" />
<glyph unicode="&#x164;" horiz-adv-x="1036" d="M33 1313v94q0 41 39 41h891q41 0 41 -41v-94q0 -41 -41 -41h-340v-1229q0 -43 -39 -43h-133q-37 0 -37 43v1229h-342q-39 0 -39 41zM250 1859q6 11 26 11h97q31 0 57 -41l88 -139l86 139q29 41 55 41h97q23 0 28 -11q2 -4 2 -9q0 -9 -8 -21l-160 -225q-29 -39 -65 -39 h-74q-35 0 -63 41l-160 223q-8 12 -8 21q0 5 2 9z" />
<glyph unicode="&#x165;" horiz-adv-x="811" d="M45 928v76q0 39 41 40l104 9h13v215q0 43 41 43h125q39 0 39 -43v-215h219q41 0 41 -39v-86q0 -41 -41 -41h-219v-574q0 -141 215 -141h39q41 0 40 -43v-88q0 -41 -40 -41h-70q-215 0 -302 71.5t-87 219.5v596h-117q-41 0 -41 41zM508 1214q6 12 17.5 38t14.5 35t10 28.5 t10 35t5 39t2 50.5v61q0 41 39 41h92q41 0 41 -41v-71q0 -121 -90 -267q-13 -24 -41 -23q-6 0 -12 1l-70 18q-26 7 -26 28q0 11 8 27z" />
<glyph unicode="&#x166;" horiz-adv-x="1036" d="M33 1313v94q0 41 39 41h891q41 0 41 -41v-94q0 -41 -41 -41h-340v-342h274q41 0 41 -37v-64q0 -41 -41 -41h-274v-745q0 -43 -39 -43h-133q-37 0 -37 43v745h-269q-41 0 -41 41v64q0 37 41 37h269v342h-342q-39 0 -39 41z" />
<glyph unicode="&#x167;" horiz-adv-x="753" d="M45 598v64q0 39 41 38h117v187h-117q-41 0 -41 41v76q0 39 41 40l104 9h13v215q0 43 41 43h125q39 0 39 -43v-215h219q41 0 41 -39v-86q0 -41 -41 -41h-219v-187h219q43 0 43 -38v-64q0 -41 -43 -41h-219v-244q0 -141 215 -141h39q41 0 40 -43v-88q0 -41 -40 -41h-70 q-215 0 -302 71.5t-87 219.5v266h-117q-41 0 -41 41z" />
<glyph unicode="&#x168;" horiz-adv-x="1294" d="M162 311v1094q0 43 41 43h129q39 0 39 -43v-1061q0 -184 274 -184q279 0 279 184v1061q0 43 39 43h131q37 0 36 -43v-1094q0 -145 -114.5 -236t-370.5 -91t-369.5 91t-113.5 236zM317 1630l5 68q4 84 52 127t115 43q72 0 127 -35l91 -55q72 -39 86 -39q25 0 33 16.5 t8 63.5v14q0 37 43 37h67q37 0 33 -47l-4 -68q-4 -86 -52.5 -128t-117.5 -42q-68 0 -123 33l-92 55q-70 41 -86 41q-27 0 -33 -15.5t-6 -64.5v-16q0 -35 -43 -35h-68q-39 0 -35 47z" />
<glyph unicode="&#x169;" horiz-adv-x="1128" d="M139 254v760q0 43 37 43h125q39 0 39 -43v-709q0 -141 158 -141q145 0 278 106v744q0 43 37 43h127q37 0 37 -43v-973q0 -41 -37 -41h-117q-37 0 -39 41l-4 63q-143 -121 -342 -120q-141 0 -220 73.5t-79 196.5zM233 1253l5 68q6 84 53 127t116.5 43t124.5 -35l93 -55 q70 -39 84 -39q27 0 34 16.5t7 63.5v14q0 37 45 37h65q39 0 35 -47l-4 -68q-4 -86 -53.5 -128t-118 -42t-123.5 33l-92 55q-70 41 -84 41q-29 0 -35 -15t-6 -65v-16q0 -35 -43 -35h-68q-39 0 -35 47z" />
<glyph unicode="&#x16a;" horiz-adv-x="1294" d="M162 311v1094q0 43 41 43h129q39 0 39 -43v-1061q0 -184 274 -184q279 0 279 184v1061q0 43 39 43h131q37 0 36 -43v-1094q0 -145 -114.5 -236t-370.5 -91t-369.5 91t-113.5 236zM350 1665v78q0 37 39 37h518q41 0 41 -37v-78q0 -39 -41 -39h-518q-39 0 -39 39z" />
<glyph unicode="&#x16b;" horiz-adv-x="1128" d="M139 254v760q0 43 37 43h125q39 0 39 -43v-709q0 -141 158 -141q145 0 278 106v744q0 43 37 43h127q37 0 37 -43v-973q0 -41 -37 -41h-117q-37 0 -39 41l-4 63q-143 -121 -342 -120q-141 0 -220 73.5t-79 196.5zM264 1288v78q0 37 43 37h514q41 0 41 -37v-78 q0 -39 -41 -39h-514q-43 0 -43 39z" />
<glyph unicode="&#x16c;" horiz-adv-x="1294" d="M162 311v1094q0 43 41 43h129q39 0 39 -43v-1061q0 -184 274 -184q279 0 279 184v1061q0 43 39 43h131q37 0 36 -43v-1094q0 -145 -114.5 -236t-370.5 -91t-369.5 91t-113.5 236zM375 1808v33q0 33 37 33h75q37 0 37 -33v-39q0 -59 27 -90t96.5 -31t96 31t26.5 90v39 q0 33 37 33h76q35 0 35 -33v-33q0 -252 -275 -252q-268 0 -268 252z" />
<glyph unicode="&#x16d;" horiz-adv-x="1128" d="M139 254v760q0 43 37 43h125q39 0 39 -43v-709q0 -141 158 -141q145 0 278 106v744q0 43 37 43h127q37 0 37 -43v-973q0 -41 -37 -41h-117q-37 0 -39 41l-4 63q-143 -121 -342 -120q-141 0 -220 73.5t-79 196.5zM281 1425v31q0 35 36 35h74q37 0 37 -35v-35 q0 -125 123 -125q72 0 98.5 33t26.5 92v35q0 35 35 35h75q35 0 35 -35v-31q0 -250 -274 -249q-266 -1 -266 249z" />
<glyph unicode="&#x16e;" horiz-adv-x="1294" d="M162 311v1094q0 43 41 43h129q39 0 39 -43v-1061q0 -184 274 -184q279 0 279 184v1061q0 43 39 43h131q37 0 36 -43v-1094q0 -145 -114.5 -236t-370.5 -91t-369.5 91t-113.5 236zM434 1688v49q0 70 54.5 115.5t159 45.5t158.5 -46t54 -115v-49q0 -72 -54 -117t-158.5 -45 t-159 45t-54.5 117zM555 1704q0 -72 92 -72t92 72v14q0 74 -92 74t-92 -74v-14z" />
<glyph unicode="&#x16f;" horiz-adv-x="1128" d="M139 254v760q0 43 37 43h125q39 0 39 -43v-709q0 -141 158 -141q145 0 278 106v744q0 43 37 43h127q37 0 37 -43v-973q0 -41 -37 -41h-117q-37 0 -39 41l-4 63q-143 -121 -342 -120q-141 0 -220 73.5t-79 196.5zM356 1321v70q0 68 52.5 109.5t151.5 41.5t151.5 -42 t52.5 -109v-70q0 -68 -52.5 -109t-151.5 -41t-151.5 41t-52.5 109zM467 1341q0 -70 93 -69.5t93 69.5v29q0 70 -93 70t-93 -70v-29z" />
<glyph unicode="&#x170;" horiz-adv-x="1294" d="M162 311v1094q0 43 41 43h129q39 0 39 -43v-1061q0 -184 274 -184q279 0 279 184v1061q0 43 39 43h131q37 0 36 -43v-1094q0 -145 -114.5 -236t-370.5 -91t-369.5 91t-113.5 236zM440 1604l105 225q18 41 57 41h109q23 0 31 -12.5t-3 -28.5l-125 -225q-23 -39 -53 -39 h-94q-32 0 -32 19q0 9 5 20zM696 1604l138 225q23 41 61 41h111q28 0 28 -16q0 -10 -10 -25l-158 -227q-23 -37 -57 -37h-94q-26 0 -27 16q0 9 8 23z" />
<glyph unicode="&#x171;" horiz-adv-x="1128" d="M139 254v760q0 43 37 43h125q39 0 39 -43v-709q0 -141 158 -141q145 0 278 106v744q0 43 37 43h127q37 0 37 -43v-973q0 -41 -37 -41h-117q-37 0 -39 41l-4 63q-143 -121 -342 -120q-141 0 -220 73.5t-79 196.5zM348 1215q-4 5 -3 11q0 7 5 15l107 227q20 39 55 39h111 q20 0 28 -12t-2 -27l-127 -227q-23 -37 -53 -37h-92q-21 0 -29 11zM604 1241l137 227q23 39 64 39h108q23 0 29 -12q2 -4 2 -8q0 -9 -8 -19l-158 -229q-25 -35 -61 -35h-90q-30 0 -30 17q-1 8 7 20z" />
<glyph unicode="&#x172;" horiz-adv-x="1294" d="M162 311v1094q0 43 41 43h129q39 0 39 -43v-1061q0 -184 274 -184q279 0 279 184v1061q0 43 39 43h131q37 0 36 -43v-1094q0 -129 -75 -205q-12 -12 -52 -46.5t-56.5 -52t-34 -54.5t-17.5 -76q0 -82 102 -82h62q43 0 43 -39v-59q0 -39 -53 -39h-111q-80 0 -138.5 45 t-58.5 135q0 86 47 154q-57 -8 -143 -8q-256 0 -369.5 91t-113.5 236z" />
<glyph unicode="&#x173;" horiz-adv-x="1128" d="M139 254v760q0 43 37 43h125q39 0 39 -43v-709q0 -141 158 -141q145 0 278 106v744q0 43 37 43h127q37 0 37 -43v-973q0 -41 -37 -41h-14q-53 -2 -83 -42t-30 -81q0 -82 102 -82h31q41 0 41 -39v-59q0 -39 -51 -39h-80q-78 0 -139.5 48t-61.5 140q0 129 127 211l-2 47 q-143 -121 -342 -120q-141 0 -220 73.5t-79 196.5z" />
<glyph unicode="&#x174;" horiz-adv-x="1738" d="M41 1407q-1 7 -1 13q0 28 32 28h133q39 0 49 -41l221 -885l35 -164q0 31 35 164l225 885q12 41 47 41h123q37 0 49 -41l221 -885l17 -82q8 -43 12 -73l4 -31q0 2 5 24.5t9.5 49t10.5 58.5t12 54l225 885q10 41 47 41h115q32 0 32 -28q0 -6 -1 -13l-346 -1366 q-8 -41 -52 -41h-126q-37 0 -48 41l-227 903q-8 29 -29 166q-14 -109 -28 -168l-232 -901q-8 -41 -47 -41h-129q-37 0 -47 41zM605 1577q-2 4 -2 8q0 9 7 19l160 225q31 41 66 41h73q35 0 64 -41l160 -225q10 -10 9 -19q0 -4 -2 -8q-7 -12 -28 -12h-96q-33 0 -55 39l-89 143 l-86 -143q-23 -39 -57 -39h-96q-23 0 -28 12z" />
<glyph unicode="&#x175;" horiz-adv-x="1449" d="M33 1014q-3 9 -3 17q0 26 40 26h120q35 0 46 -43l178 -662q4 -16 7 -39.5t6 -39t3 -17.5l25 96l182 662q10 43 47 43h123q35 0 45 -43l166 -662q6 -25 10 -46l6 -33q2 -11 2 -13q0 16 23 92l176 662q10 43 45 43h102q39 0 40 -28q0 -7 -3 -15l-276 -975q-6 -23 -14.5 -31 t-26.5 -8h-148q-35 0 -43 39l-159 629q-20 68 -21 106l-26 -106l-181 -629q-8 -39 -41 -39h-145q-33 0 -41 39zM462 1215q-2 4 -2 8q0 8 7 18l160 227q29 39 63 39h74q35 0 65 -39l160 -227q7 -10 7 -18q0 -4 -2 -8q-5 -11 -27 -11h-97q-31 0 -55 37l-86 143l-90 -143 q-23 -37 -55 -37h-97q-20 0 -25 11z" />
<glyph unicode="&#x176;" horiz-adv-x="1126" d="M39 1407q-7 13 -7 21q0 20 36 20h147q29 0 49 -41l266 -561q23 -57 35 -96q0 4 11.5 40.5t21.5 55.5l285 561q20 41 45 41h131q34 0 34 -19q0 -9 -8 -22l-415 -832v-534q0 -41 -39 -41h-131q-39 0 -39 41v510zM295 1577q-2 4 -2 8q0 9 8 19l160 225q29 41 63 41h74 q36 0 64 -41l159 -225q10 -10 10 -19q0 -4 -3 -8q-7 -12 -27 -12h-96q-31 0 -56 39l-86 143l-88 -143q-20 -39 -57 -39h-96q-21 0 -27 12z" />
<glyph unicode="&#x177;" horiz-adv-x="958" d="M33 1014q-3 10 -3 17q0 26 38 26h127q31 0 47 -43l204 -617q10 -25 17.5 -58.5t11.5 -62.5l4 -24q14 68 39 141l211 621q12 43 47 43h115q38 0 38 -26q0 -8 -3 -17l-482 -1407q-12 -41 -43 -41h-92q-41 0 -41 26q0 6 2 15l119 377zM212 1215q-2 4 -2 8q0 8 7 18l160 227 q31 39 63 39h76q33 0 64 -39l159 -227q7 -10 7 -18q0 -4 -2 -8q-5 -11 -27 -11h-94q-33 0 -56 37l-88 143l-90 -143q-23 -37 -55 -37h-96q-21 0 -26 11z" />
<glyph unicode="&#x178;" horiz-adv-x="1126" d="M39 1407q-7 13 -7 21q0 20 36 20h147q29 0 49 -41l266 -561q23 -57 35 -96q0 4 11.5 40.5t21.5 55.5l285 561q20 41 45 41h131q34 0 34 -19q0 -9 -8 -22l-415 -832v-534q0 -41 -39 -41h-131q-39 0 -39 41v510zM358 1614v203q0 43 37 43h76q39 0 39 -43v-203 q0 -39 -39 -39h-76q-37 0 -37 39zM616 1614v203q0 43 37 43h76q37 0 37 -43v-203q0 -39 -37 -39h-76q-37 0 -37 39z" />
<glyph unicode="&#x179;" horiz-adv-x="1064" d="M92 41v98q0 14 10 35l605 1098h-539q-41 0 -41 41v94q0 41 41 41h750q43 0 43 -41v-90q0 -20 -9 -37l-612 -1104h614q41 0 41 -37v-98q0 -41 -41 -41h-823q-39 0 -39 41zM471 1604l125 227q23 39 55 39h133q30 0 30 -17q0 -9 -9 -24l-164 -238q-14 -27 -51 -26h-98 q-28 0 -29 16q0 10 8 23z" />
<glyph unicode="&#x17a;" horiz-adv-x="960" d="M88 41v86q0 18 8 31l494 731h-432q-41 0 -41 39v88q0 41 41 41h643q41 0 41 -41v-86q0 -20 -8 -31l-500 -733h502q39 0 38 -39v-86q0 -41 -38 -41h-709q-39 0 -39 41zM387 1241l127 229q20 37 55 37h131q31 0 31 -15q0 -9 -10 -24l-164 -239q-14 -25 -49 -25h-98 q-29 0 -30 17q0 8 7 20z" />
<glyph unicode="&#x17b;" horiz-adv-x="1064" d="M92 41v98q0 14 10 35l605 1098h-539q-41 0 -41 41v94q0 41 41 41h750q43 0 43 -41v-90q0 -20 -9 -37l-612 -1104h614q41 0 41 -37v-98q0 -41 -41 -41h-823q-39 0 -39 41zM430 1616v172q0 39 39 39h127q39 0 39 -39v-172q0 -39 -39 -39h-127q-39 0 -39 39z" />
<glyph unicode="&#x17c;" horiz-adv-x="960" d="M88 41v86q0 18 8 31l494 731h-432q-41 0 -41 39v88q0 41 41 41h643q41 0 41 -41v-86q0 -20 -8 -31l-500 -733h502q39 0 38 -39v-86q0 -41 -38 -41h-709q-39 0 -39 41zM377 1272v168q0 41 41 41h127q39 0 39 -41v-168q0 -41 -39 -41h-127q-41 0 -41 41z" />
<glyph unicode="&#x17d;" horiz-adv-x="1064" d="M92 41v98q0 14 10 35l605 1098h-539q-41 0 -41 41v94q0 41 41 41h750q43 0 43 -41v-90q0 -20 -9 -37l-612 -1104h614q41 0 41 -37v-98q0 -41 -41 -41h-823q-39 0 -39 41zM270 1877q6 11 29 11h94q29 0 56 -39l90 -141l88 141q27 39 55 39h96q20 0 27 -11q2 -4 2 -8 q0 -9 -8 -20l-160 -227q-29 -37 -64 -37h-75q-33 0 -64 41l-160 223q-8 11 -8 20q0 4 2 8z" />
<glyph unicode="&#x17e;" horiz-adv-x="960" d="M88 41v86q0 18 8 31l494 731h-432q-41 0 -41 39v88q0 41 41 41h643q41 0 41 -41v-86q0 -20 -8 -31l-500 -733h502q39 0 38 -39v-86q0 -41 -38 -41h-709q-39 0 -39 41zM219 1496q6 11 29 11h94q29 0 55 -39l90 -141l88 141q27 39 56 39h96q20 0 27 -11q2 -4 2 -8 q0 -9 -8 -20l-160 -227q-27 -37 -64 -37h-75q-33 0 -64 39l-160 225q-8 11 -8 20q0 4 2 8z" />
<glyph unicode="&#x17f;" horiz-adv-x="708" d="M51 930v74q0 39 41 40l111 9h14v155q0 289 422 289h14q41 0 41 -41v-84q0 -41 -41 -41h-14q-219 0 -219 -145v-1145q0 -41 -39 -41h-125q-39 0 -39 41v850h-125q-41 0 -41 39z" />
<glyph unicode="&#x192;" horiz-adv-x="1196" d="M109 -326q0 43 41 43h30q217 0 236 142l100 878h-164q-41 0 -41 41v84q0 41 41 41h180l37 314q31 291 453 290h18q39 0 39 -39v-90q0 -43 -39 -43h-32q-219 0 -238 -141l-35 -291h185q41 0 41 -41v-84q0 -41 -41 -41h-199l-103 -899q-33 -293 -454 -293h-14q-41 0 -41 41 v88z" />
<glyph unicode="&#x1fa;" horiz-adv-x="1144" d="M43 41l414 1366q12 41 51 41h131q39 0 51 -41l414 -1366q3 -9 3 -16q0 -25 -36 -25h-133q-37 0 -47 41l-100 330h-451l-96 -330q-12 -41 -47 -41h-125q-32 0 -32 24q0 8 3 17zM356 1688v49q0 61 41 103t123 54l66 121q20 39 55 39h133q20 0 27 -12q2 -4 2 -9q0 -9 -8 -20 l-103 -141q90 -41 90 -135v-49q0 -72 -54 -117t-158.5 -45t-159 45t-54.5 117zM387 537h358l-118 387q-18 51 -37 164.5t-21 146.5q0 -2 -10 -62.5t-23.5 -132t-25.5 -112.5zM477 1704q0 -72 91 -72t91 72v14q0 74 -91 74t-91 -74v-14z" />
<glyph unicode="&#x1fb;" horiz-adv-x="1085" d="M117 242v100q0 113 76.5 185.5t220.5 72.5h336v164q0 72 -46.5 108.5t-160.5 36.5q-117 0 -164 -33.5t-47 -105.5v-16q0 -43 -41 -43h-111q-37 0 -37 43v32q0 287 402.5 287t402.5 -287v-743q0 -43 -39 -43h-110q-39 0 -41 43l-4 61q-154 -121 -336 -120 q-143 0 -222 72.5t-79 185.5zM315 270q0 -119 154 -118q141 0 281 108v182h-293q-78 0 -110 -31.5t-32 -97.5v-43zM338 1321v70q0 125 149 147l95 170q20 39 55 39h131q31 0 31 -16q0 -10 -11 -25l-126 -184q86 -39 86 -131v-70q0 -68 -52.5 -109t-153 -41t-152.5 41 t-52 109zM449 1341q0 -70 94 -69.5t94 69.5v29q0 70 -94 70t-94 -70v-29z" />
<glyph unicode="&#x1fc;" horiz-adv-x="1781" d="M46 10q-4 5 -4 12q0 8 5 19l803 1366q23 41 57 41h711q41 0 41 -39v-90q0 -41 -41 -41h-557v-440h522q39 0 39 -39v-86q0 -39 -39 -39h-522v-504h584q41 0 41 -39v-90q0 -41 -41 -41h-738q-45 0 -45 41v330h-426l-188 -330q-25 -41 -49 -41h-123q-21 0 -30 10zM535 537 h327v575q-18 -39 -71 -135zM938 1604l125 227q20 39 55 39h131q31 0 31 -18q0 -9 -8 -23l-164 -238q-14 -27 -51 -26h-99q-28 0 -28 16q0 10 8 23z" />
<glyph unicode="&#x1fd;" horiz-adv-x="1675" d="M117 242v88q0 113 77.5 185.5t219.5 72.5h334v200q0 135 -207 136q-115 0 -163 -36t-48 -106v-28q0 -41 -39 -41h-111q-39 0 -39 41v34q0 285 404 285q223 0 299 -112q92 113 315 112q403 0 404 -291v-250q0 -39 -37 -38h-580v-218q0 -70 48 -104.5t165 -34.5 q215 0 215 144v28q0 41 39 41h103q41 0 40 -41v-37q0 -289 -397 -288q-287 0 -368 139q-174 -139 -373 -139q-150 0 -225.5 71.5t-75.5 186.5zM315 266q0 -59 39 -91t113 -32q127 0 281 119v187h-302q-131 0 -131 -127v-56zM770 1241l127 229q20 37 55 37h131q31 0 31 -15 q0 -9 -10 -24l-162 -239q-16 -25 -51 -25h-98q-29 0 -30 17q0 8 7 20zM946 633h428v141q0 145 -215 146q-213 0 -213 -146v-141z" />
<glyph unicode="&#x1fe;" horiz-adv-x="1269" d="M152 309v826q0 145 113.5 236t369.5 91q184 0 303 -53l20 41q0 2 7.5 15.5t10.5 18.5t11 14t17.5 12t21.5 3h39q23 0 23 -19q0 -16 -15 -44l-49 -94q96 -82 96 -221v-826q0 -145 -114.5 -236t-370.5 -91q-190 0 -311 55l-19 -39q-35 -63 -72 -64h-32q-24 0 -25 21 q0 16 14 43l48 96q-86 80 -86 215zM360 322l486 915q-72 49 -211 49q-274 0 -275 -184v-780zM418 213q68 -55 217 -55q276 0 276 184v760q0 14 -4 35zM543 1604l127 227q20 39 55 39h131q30 0 30 -17q0 -9 -9 -24l-164 -238q-14 -27 -51 -26h-97q-29 0 -29 18q0 8 7 21z" />
<glyph unicode="&#x1ff;" horiz-adv-x="1105" d="M127 274v508q0 135 104.5 213t321.5 78q133 0 227 -29l11 19q2 2 8 14l8 17q2 4 8 13t12.5 11t13.5 5t17 3h43q22 0 22 -17q0 -16 -18 -46l-37 -64q111 -76 111 -217v-508q0 -135 -104.5 -212.5t-321.5 -77.5q-127 0 -229 30l-9 -16q-2 -4 -7 -15.5t-7 -14.5l-7 -10 q-5 -7 -8 -9t-7.5 -6t-9.5 -5t-11 -2.5t-14 -1.5h-37q-24 0 -24 19q0 16 18 45l32 59q-106 72 -106 217zM330 291q0 -33 6 -47l356 643q-49 20 -139 20q-223 0 -223 -143v-473zM412 170q49 -20 141 -20q225 0 225 141v473q0 33 -10 51zM477 1241l125 229q23 37 55 37h134 q30 0 30 -14q0 -9 -12 -25l-162 -239q-14 -25 -51 -25h-98q-27 0 -28 17q0 8 7 20z" />
<glyph unicode="&#x218;" horiz-adv-x="1208" d="M131 311v123q0 43 41 43h127q37 0 37 -43v-96q0 -180 272 -180q276 0 277 180v100q0 49 -32 87t-61.5 52.5t-86.5 36.5l-361 138q-76 31 -132 100.5t-56 163.5v121q0 145 107.5 237t350 92t352 -92t109.5 -237v-93q0 -41 -39 -40h-125q-39 0 -39 40v66q0 180 -257 180 t-257 -180v-43q0 -102 109 -143l387 -146q233 -90 233 -291v-176q0 -145 -113.5 -236t-362.5 -91t-364.5 91t-115.5 236zM473 -432q6 12 17 38l16 35q4 9 11 28.5t9 34.5t4 39t2 50v62q0 41 41 41h91q41 0 41 -41v-72q0 -121 -89 -266q-14 -22 -38 -23q-7 0 -15 2l-71 17 q-26 7 -27 27q0 12 8 28z" />
<glyph unicode="&#x219;" horiz-adv-x="995" d="M102 238v53q0 39 37 39h113q35 0 35 -39v-43q0 -113 218 -113t218 113v57q0 63 -115 103l-319 110q-66 23 -116 81t-50 134v78q0 111 93 186.5t294 75.5q197 0 291 -75.5t94 -186.5v-51q0 -37 -39 -37h-111q-37 0 -36 37v51q0 113 -201 113q-199 0 -199 -113v-35 q0 -70 88 -98l320 -111q193 -68 192 -209v-120q0 -109 -101 -181.5t-304 -72.5t-302.5 72.5t-99.5 181.5zM387 -434l19 38q12 26 15 35t10 28.5t9 34.5t4 38.5t2 50.5v62q0 41 41 41h93q41 0 41 -41v-72q0 -121 -91 -266q-13 -24 -40 -24q-6 0 -13 1l-69 19q-27 7 -28 29 q0 11 7 26z" />
<glyph unicode="&#x237;" d="M-125 -309q0 41 39 41h18q219 0 220 145v1137q0 43 38 43h123q41 0 41 -43v-1159q0 -289 -422 -289h-18q-39 0 -39 39v86z" />
<glyph unicode="&#x2c6;" horiz-adv-x="745" d="M105 1215q-2 4 -1 8q0 8 7 18l159 227q31 39 64 39h76q33 0 63 -39l160 -227q7 -10 7 -18q0 -4 -2 -8q-5 -11 -28 -11h-94q-33 0 -55 37l-88 143l-90 -143q-23 -37 -56 -37h-96q-21 0 -26 11z" />
<glyph unicode="&#x2c7;" horiz-adv-x="745" d="M104 1496q6 11 27 11h96q29 0 56 -39l90 -141l88 141q27 39 55 39h94q23 0 29 -11q2 -4 2 -8q0 -9 -8 -20l-160 -227q-29 -37 -63 -37h-76q-33 0 -64 39l-159 225q-8 11 -9 20q0 4 2 8z" />
<glyph unicode="&#x2d8;" horiz-adv-x="866" d="M162 1425v31q0 35 37 35h73q37 0 37 -35v-35q0 -125 123 -125q70 0 96.5 33t26.5 92v35q0 35 37 35h76q35 0 34 -35v-31q0 -250 -274 -249q-266 -1 -266 249z" />
<glyph unicode="&#x2d9;" horiz-adv-x="518" d="M156 1272v168q0 41 41 41h127q39 0 38 -41v-168q0 -41 -38 -41h-127q-41 0 -41 41z" />
<glyph unicode="&#x2da;" horiz-adv-x="778" d="M184 1321v70q0 68 52.5 109.5t152.5 41.5t152.5 -42t52.5 -109v-70q0 -68 -52.5 -109t-152.5 -41t-152.5 41t-52.5 109zM297 1341q0 -70 93 -69.5t93 69.5v29q0 70 -93 70t-93 -70v-29z" />
<glyph unicode="&#x2db;" horiz-adv-x="487" d="M45 -158q0 123 121 215q28 23 58 23q13 0 26 -4l53 -15q16 -6 21.5 -18t-13.5 -27q-111 -68 -110 -137q0 -84 125 -84h43q41 0 41 -39v-59q0 -39 -41 -39h-101q-96 0 -159.5 48t-63.5 136z" />
<glyph unicode="&#x2dc;" horiz-adv-x="884" d="M111 1253l4 68q4 84 52 127t116 43q72 0 127 -35l90 -55q72 -39 86 -39q25 0 33 16.5t8 63.5v14q0 37 45 37h65q34 0 34 -35q0 -6 -1 -12l-4 -68q-4 -86 -53 -128t-117 -42t-123 33l-92 55q-70 41 -84 41q-29 0 -35 -15t-6 -65v-16q0 -35 -43 -35h-68q-38 0 -34 47z" />
<glyph unicode="&#x2dd;" horiz-adv-x="813" d="M112 1215q-3 5 -4 12q0 7 5 14l106 227q18 39 55 39h111q23 0 31 -12t-2 -27l-129 -227q-20 -37 -54 -37h-90q-22 0 -29 11zM369 1241l135 227q25 39 65 39h109q20 0 27 -12q2 -4 2 -8q0 -9 -9 -19l-157 -229q-23 -35 -60 -35h-92q-29 0 -29 16q0 8 9 21z" />
<glyph unicode="&#x394;" horiz-adv-x="825" d="M180 496v362q0 49 51 49h363q49 0 49 -49v-362q0 -51 -49 -52h-363q-51 1 -51 52z" />
<glyph unicode="&#x3a9;" horiz-adv-x="825" d="M141 675.5q0 112.5 80 192.5t191 80q113 0 192.5 -80t79.5 -192q0 -111 -80 -190.5t-192.5 -79.5t-191.5 78.5t-79 191zM178 676q0 -98 67.5 -166t166.5 -68q96 0 163.5 68t67.5 166q0 94 -67.5 162.5t-163.5 68.5q-98 0 -166 -68.5t-68 -162.5z" />
<glyph unicode="&#x3bc;" horiz-adv-x="1128" d="M139 -391v1405q0 43 37 43h125q39 0 39 -43v-709q0 -141 158 -141q145 0 278 106v744q0 43 37 43h127q37 0 37 -43v-973q0 -41 -37 -41h-117q-37 0 -39 41l-4 63q-143 -121 -342 -120q-53 0 -108 14l10 -389q0 -43 -37 -43h-127q-37 0 -37 43z" />
<glyph unicode="&#x3c0;" horiz-adv-x="825" d="M108 906q0 11 5 20q6 12 24 12h547q16 0 24 -11q6 -10 6 -23v-4q-1 -15 -12 -34l-256 -411q-12 -23 -34.5 -23t-34.5 23l-256 411q-13 21 -13 40z" />
<glyph unicode="&#x1e80;" horiz-adv-x="1738" d="M41 1407q-1 7 -1 13q0 28 32 28h133q39 0 49 -41l221 -885l35 -164q0 31 35 164l225 885q12 41 47 41h123q37 0 49 -41l221 -885l17 -82q8 -43 12 -73l4 -31q0 2 5 24.5t9.5 49t10.5 58.5t12 54l225 885q10 41 47 41h115q32 0 32 -28q0 -6 -1 -13l-346 -1366 q-8 -41 -52 -41h-126q-37 0 -48 41l-227 903q-8 29 -29 166q-14 -109 -28 -168l-232 -901q-8 -41 -47 -41h-129q-37 0 -47 41zM595 1858q5 12 28 12h131q35 0 55 -41l127 -225q7 -14 7 -23q0 -18 -28 -18h-100q-31 0 -51 28l-162 236q-9 13 -9 23q0 4 2 8z" />
<glyph unicode="&#x1e81;" horiz-adv-x="1449" d="M33 1014q-3 9 -3 17q0 26 40 26h120q35 0 46 -43l178 -662q4 -16 7 -39.5t6 -39t3 -17.5l25 96l182 662q10 43 47 43h123q35 0 45 -43l166 -662q6 -25 10 -46l6 -33q2 -11 2 -13q0 16 23 92l176 662q10 43 45 43h102q39 0 40 -28q0 -7 -3 -15l-276 -975q-6 -23 -14.5 -31 t-26.5 -8h-148q-35 0 -43 39l-159 629q-20 68 -21 106l-26 -106l-181 -629q-8 -39 -41 -39h-145q-33 0 -41 39zM477 1468q-12 15 -12 25q0 15 31 14h133q33 0 55 -37l125 -229q8 -13 8 -21q0 -15 -26 -16h-101q-31 0 -51 25z" />
<glyph unicode="&#x1e82;" horiz-adv-x="1738" d="M41 1407q-1 7 -1 13q0 28 32 28h133q39 0 49 -41l221 -885l35 -164q0 31 35 164l225 885q12 41 47 41h123q37 0 49 -41l221 -885l17 -82q8 -43 12 -73l4 -31q0 2 5 24.5t9.5 49t10.5 58.5t12 54l225 885q10 41 47 41h115q32 0 32 -28q0 -6 -1 -13l-346 -1366 q-8 -41 -52 -41h-126q-37 0 -48 41l-227 903q-8 29 -29 166q-14 -109 -28 -168l-232 -901q-8 -41 -47 -41h-129q-37 0 -47 41zM805 1604l125 227q23 39 57 39h131q30 0 30 -17q0 -9 -9 -24l-164 -238q-14 -27 -51 -26h-97q-29 0 -29 18q0 8 7 21z" />
<glyph unicode="&#x1e83;" horiz-adv-x="1449" d="M33 1014q-3 9 -3 17q0 26 40 26h120q35 0 46 -43l178 -662q4 -16 7 -39.5t6 -39t3 -17.5l25 96l182 662q10 43 47 43h123q35 0 45 -43l166 -662q6 -25 10 -46l6 -33q2 -11 2 -13q0 16 23 92l176 662q10 43 45 43h102q39 0 40 -28q0 -7 -3 -15l-276 -975q-6 -23 -14.5 -31 t-26.5 -8h-148q-35 0 -43 39l-159 629q-20 68 -21 106l-26 -106l-181 -629q-8 -39 -41 -39h-145q-33 0 -41 39zM672 1241l125 229q20 37 55 37h131q31 0 31 -15q0 -9 -10 -24l-162 -239q-14 -25 -51 -25h-99q-28 0 -28 16q0 8 8 21z" />
<glyph unicode="&#x1e84;" horiz-adv-x="1738" d="M41 1407q-1 7 -1 13q0 28 32 28h133q39 0 49 -41l221 -885l35 -164q0 31 35 164l225 885q12 41 47 41h123q37 0 49 -41l221 -885l17 -82q8 -43 12 -73l4 -31q0 2 5 24.5t9.5 49t10.5 58.5t12 54l225 885q10 41 47 41h115q32 0 32 -28q0 -6 -1 -13l-346 -1366 q-8 -41 -52 -41h-126q-37 0 -48 41l-227 903q-8 29 -29 166q-14 -109 -28 -168l-232 -901q-8 -41 -47 -41h-129q-37 0 -47 41zM664 1614v203q0 43 38 43h76q37 0 37 -43v-203q0 -39 -37 -39h-76q-38 0 -38 39zM922 1614v203q0 43 39 43h73q39 0 39 -43v-203q0 -39 -39 -39 h-73q-39 0 -39 39z" />
<glyph unicode="&#x1e85;" horiz-adv-x="1449" d="M33 1014q-3 9 -3 17q0 26 40 26h120q35 0 46 -43l178 -662q4 -16 7 -39.5t6 -39t3 -17.5l25 96l182 662q10 43 47 43h123q35 0 45 -43l166 -662q6 -25 10 -46l6 -33q2 -11 2 -13q0 16 23 92l176 662q10 43 45 43h102q39 0 40 -28q0 -7 -3 -15l-276 -975q-6 -23 -14.5 -31 t-26.5 -8h-148q-35 0 -43 39l-159 629q-20 68 -21 106l-26 -106l-181 -629q-8 -39 -41 -39h-145q-33 0 -41 39zM520 1257v201q0 41 41 41h74q39 0 39 -41v-201q0 -41 -39 -40h-74q-41 -1 -41 40zM778 1257v201q0 41 39 41h76q37 0 37 -41v-201q0 -41 -37 -40h-76 q-39 -1 -39 40z" />
<glyph unicode="&#x1ef2;" horiz-adv-x="1126" d="M39 1407q-7 13 -7 21q0 20 36 20h147q29 0 49 -41l266 -561l35 -94q14 57 33 94l285 561q20 41 45 41h131q34 0 34 -19q0 -9 -8 -22l-415 -832v-534q0 -41 -39 -41h-131q-39 0 -39 41v510zM304 1858q5 12 26 12h133q33 0 55 -41l125 -225q7 -14 7 -24q0 -18 -25 -17h-101 q-33 0 -51 28l-162 236q-9 13 -8 23q-1 4 1 8z" />
<glyph unicode="&#x1ef3;" horiz-adv-x="958" d="M33 1014q-3 10 -3 17q0 26 38 26h127q31 0 47 -43l204 -617q10 -25 17.5 -58.5t11.5 -62.5l4 -24q14 68 39 141l211 621q12 43 47 43h115q38 0 38 -26q0 -8 -3 -17l-482 -1407q-12 -41 -43 -41h-92q-41 0 -41 26q0 6 2 15l119 377zM225 1468q-11 14 -10 24q0 16 31 15 h131q35 0 55 -37l125 -229q8 -13 8 -21q0 -15 -26 -16h-101q-29 0 -51 25z" />
<glyph unicode="&#x2000;" horiz-adv-x="1026" />
<glyph unicode="&#x2001;" horiz-adv-x="2054" />
<glyph unicode="&#x2002;" horiz-adv-x="1026" />
<glyph unicode="&#x2003;" horiz-adv-x="2054" />
<glyph unicode="&#x2004;" horiz-adv-x="684" />
<glyph unicode="&#x2005;" horiz-adv-x="512" />
<glyph unicode="&#x2006;" horiz-adv-x="342" />
<glyph unicode="&#x2007;" horiz-adv-x="342" />
<glyph unicode="&#x2008;" horiz-adv-x="256" />
<glyph unicode="&#x2009;" horiz-adv-x="409" />
<glyph unicode="&#x200a;" horiz-adv-x="112" />
<glyph unicode="&#x2010;" horiz-adv-x="952" d="M152 571v88q0 39 41 39h569q41 0 41 -39v-88q0 -39 -41 -39h-569q-41 0 -41 39z" />
<glyph unicode="&#x2011;" horiz-adv-x="952" d="M152 571v88q0 39 41 39h569q41 0 41 -39v-88q0 -39 -41 -39h-569q-41 0 -41 39z" />
<glyph unicode="&#x2012;" horiz-adv-x="952" d="M152 571v88q0 39 41 39h569q41 0 41 -39v-88q0 -39 -41 -39h-569q-41 0 -41 39z" />
<glyph unicode="&#x2013;" horiz-adv-x="1150" d="M152 571v88q0 39 41 39h768q41 0 40 -39v-88q0 -39 -40 -39h-768q-41 0 -41 39z" />
<glyph unicode="&#x2014;" horiz-adv-x="1810" d="M152 571v88q0 39 41 39h1425q41 0 41 -39v-88q0 -39 -41 -39h-1425q-41 0 -41 39z" />
<glyph unicode="&#x2018;" horiz-adv-x="493" d="M123 1143v147q0 213 254 285q7 2 14 1q27 0 37 -28l31 -88q4 -10 3 -17q0 -23 -30 -34q-102 -39 -102 -129v-137q0 -39 -39 -39h-129q-39 0 -39 39z" />
<glyph unicode="&#x2019;" horiz-adv-x="493" d="M37 1217q-5 11 -5 20q0 22 29 31q102 41 103 129v137q0 41 39 41h129q39 0 39 -41v-148q0 -213 -254 -282q-8 -2 -15 -2q-27 0 -36 26z" />
<glyph unicode="&#x201a;" horiz-adv-x="493" d="M37 -106q-5 11 -5 20q0 22 29 31q102 41 103 129v137q0 41 39 41h129q39 0 39 -41v-148q0 -213 -254 -282q-8 -2 -15 -2q-27 0 -36 26z" />
<glyph unicode="&#x201c;" horiz-adv-x="882" d="M123 1143v147q0 213 254 285q7 2 14 1q27 0 37 -28l31 -88q4 -10 3 -17q0 -23 -30 -34q-102 -39 -102 -129v-137q0 -39 -39 -39h-129q-39 0 -39 39zM514 1143v147q0 213 252 285q7 2 14 1q27 0 37 -28l31 -88q4 -10 4 -17q0 -23 -31 -34q-100 -39 -100 -129v-137 q0 -39 -39 -39h-131q-37 0 -37 39z" />
<glyph unicode="&#x201d;" horiz-adv-x="882" d="M37 1217q-5 11 -5 20q0 22 29 31q102 41 103 129v137q0 41 39 41h129q39 0 39 -41v-148q0 -213 -254 -282q-8 -2 -15 -2q-27 0 -36 26zM426 1217q-4 10 -4 19q0 23 29 32q102 41 102 129v137q0 41 39 41h131q37 0 37 -41v-148q0 -213 -252 -282q-8 -2 -15 -2 q-27 0 -36 26z" />
<glyph unicode="&#x201e;" horiz-adv-x="882" d="M37 -106q-5 11 -5 20q0 22 29 31q102 41 103 129v137q0 41 39 41h129q39 0 39 -41v-148q0 -213 -254 -282q-8 -2 -15 -2q-27 0 -36 26zM426 -106q-4 10 -4 19q0 23 29 32q102 41 102 129v137q0 41 39 41h131q37 0 37 -41v-148q0 -213 -252 -282q-8 -2 -15 -2 q-27 0 -36 26z" />
<glyph unicode="&#x2020;" horiz-adv-x="1320" d="M174 950v92q0 37 41 37h256q41 0 41 -37v-92q0 -41 -41 -41h-256q-41 0 -41 41zM563 43v1403q0 43 37 43h127q37 0 37 -43v-1403q0 -43 -37 -43h-127q-37 0 -37 43zM813 950v92q0 37 43 37h254q41 0 41 -37v-92q0 -41 -41 -41h-254q-43 0 -43 41z" />
<glyph unicode="&#x2021;" horiz-adv-x="1320" d="M174 446v91q0 41 41 41h256q41 0 41 -41v-91q0 -41 -41 -40h-256q-41 -1 -41 40zM174 950v92q0 37 41 37h256q41 0 41 -37v-92q0 -41 -41 -41h-256q-41 0 -41 41zM563 43v1403q0 43 37 43h127q37 0 37 -43v-1403q0 -43 -37 -43h-127q-37 0 -37 43zM813 446v91q0 41 43 41 h254q41 0 41 -41v-91q0 -41 -41 -40h-254q-43 -1 -43 40zM813 950v92q0 37 43 37h254q41 0 41 -37v-92q0 -41 -41 -41h-254q-43 0 -43 41z" />
<glyph unicode="&#x2022;" horiz-adv-x="552" d="M174 422v291q0 41 41 41h127q39 0 39 -41v-291q0 -41 -39 -41h-127q-41 0 -41 41z" />
<glyph unicode="&#x2026;" horiz-adv-x="1550" d="M145 41v170q0 41 39 41h129q39 0 39 -41v-170q0 -41 -39 -41h-129q-39 0 -39 41zM674 41v170q0 41 39 41h129q39 0 39 -41v-170q0 -41 -39 -41h-129q-39 0 -39 41zM1200 41v170q0 41 39 41h129q37 0 37 -41v-170q0 -41 -37 -41h-129q-39 0 -39 41z" />
<glyph unicode="&#x202f;" horiz-adv-x="409" />
<glyph unicode="&#x2030;" horiz-adv-x="2463" d="M162 1024v221q0 217 307 217t307 -217v-221q0 -219 -307 -219t-307 219zM330 1030q0 -86 138 -86t138 86v209q0 88 -138 88t-138 -88v-209zM445 15q-2 6 -2 12q0 9 6 16l663 1362q18 43 57 43h105q18 0 23.5 -12.5t-5.5 -30.5l-659 -1362q-23 -43 -58 -43h-106 q-19 0 -24 15zM961 199v221q0 219 307 219t307 -219v-221q0 -217 -307 -217t-307 217zM1128 207q0 -90 138.5 -90t138.5 90v209q0 84 -138.5 84t-138.5 -84v-209zM1690 199v221q0 219 309 219q303 0 303 -219v-221q0 -217 -303 -217q-309 0 -309 217zM1858 207 q0 -90 138 -90t138 90v209q0 84 -138 84t-138 -84v-209z" />
<glyph unicode="&#x2039;" horiz-adv-x="765" d="M150 461v125q0 25 34 53l394 291q9 9 17 9q5 0 10 -3q13 -8 13 -29v-127q0 -31 -40 -63l-269 -195l269 -194q41 -27 40 -62v-127q0 -23 -13 -28q-5 -2 -10 -3q-9 0 -17 7l-394 291q-34 26 -34 55z" />
<glyph unicode="&#x203a;" horiz-adv-x="765" d="M150 139v127q0 35 40 62l269 194l-269 195q-41 33 -40 63v127q0 20 12 29q4 3 9 3q9 0 19 -9l392 -291q37 -29 36 -53v-125q0 -29 -36 -55l-392 -291q-10 -6 -18 -7q-5 0 -10 3q-12 5 -12 28z" />
<glyph unicode="&#x2044;" horiz-adv-x="944" d="M46 15q-2 6 -2 12q0 9 5 16l662 1362q20 43 57 43h104q20 0 26 -12q2 -4 2 -9q0 -10 -7 -22l-662 -1362q-20 -43 -57 -43h-106q-17 0 -22 15z" />
<glyph unicode="&#x205f;" horiz-adv-x="512" />
<glyph unicode="&#x20ac;" horiz-adv-x="1390" d="M162 561v53q0 37 41 37h84v144h-84q-41 0 -41 41v53q0 37 41 37h84v211q0 330 471 329.5t471 -329.5v-105q0 -41 -39 -41h-123q-41 0 -41 41v72q0 184 -266 184q-264 0 -264 -184v-178h282q39 0 39 -37v-53q0 -41 -39 -41h-282v-144h282q39 0 39 -37v-53q0 -41 -39 -41 h-282v-176q0 -184 264 -184q266 0 266 184v100q0 41 41 41h123q39 0 39 -41v-133q0 -328 -471 -327.5t-471 327.5v209h-84q-41 0 -41 41z" />
<glyph unicode="&#x2113;" horiz-adv-x="1157" d="M20 485q-4 11 -4 20q0 23 27 34l16 6l39 17l54 24l59 26q31 14 53 27v491q0 145 91 235.5t290 90.5q190 0 278.5 -90t88.5 -236q0 -98 -46 -186t-131 -162.5t-170 -129t-198 -113.5v-205q0 -168 211 -168h219q43 0 43 -39v-86q0 -41 -41 -41h-223q-412 0 -412 287v151 q-123 -57 -151 -65q-39 -10 -52 18zM467 741q352 197 352 377q0 172 -176 172t-176 -184v-365z" />
<glyph unicode="&#x2122;" horiz-adv-x="1927" d="M174 1337v80q0 31 35 31h579q33 0 33 -31v-80q0 -31 -33 -30h-202v-693q0 -35 -33 -34h-109q-33 0 -32 34v693h-203q-35 -1 -35 30zM922 614v801q0 33 34 33h97q20 0 26 -14l232 -469q20 -45 26 -66q0 6 27 62l225 473q6 14 31 14h100q35 0 35 -33v-801q0 -35 -35 -34 h-100q-33 0 -33 34v512q0 -2 -3 -11t-7 -23.5t-10 -22.5l-146 -326q-16 -33 -45 -32h-76q-29 0 -43 32l-153 330q-8 16 -21 60v-519q0 -35 -30 -34h-97q-34 -1 -34 34z" />
<glyph unicode="&#x2126;" horiz-adv-x="825" d="M141 675.5q0 112.5 80 192.5t191 80q113 0 192.5 -80t79.5 -192q0 -111 -80 -190.5t-192.5 -79.5t-191.5 78.5t-79 191zM178 676q0 -98 67.5 -166t166.5 -68q96 0 163.5 68t67.5 166q0 94 -67.5 162.5t-163.5 68.5q-98 0 -166 -68.5t-68 -162.5z" />
<glyph unicode="&#x212e;" horiz-adv-x="1773" d="M129 725q0 305 218 523t523.5 218t521.5 -218t216 -523q0 -35 -35 -35h-1192v-424q195 -221 489 -221q298 0 516 236q10 10 21 10q29 0 29 -29q0 -14 -15 -35q-98 -113 -243.5 -178t-307.5 -65q-309 0 -525 212t-216 529zM381 745h981v431q-201 227 -492 227 q-293 0 -489 -223v-435z" />
<glyph unicode="&#x2202;" horiz-adv-x="825" d="M182 408v546q0 25 23.5 30t48.5 -11l416 -258q18 -12 18 -34t-18 -34l-416 -256q-25 -14 -48.5 -12t-23.5 29z" />
<glyph unicode="&#x2206;" horiz-adv-x="825" d="M180 496v362q0 49 51 49h363q49 0 49 -49v-362q0 -51 -49 -52h-363q-51 1 -51 52z" />
<glyph unicode="&#x220f;" horiz-adv-x="825" d="M123 496l256 413q12 20 33.5 20.5t33.5 -20.5l256 -413q10 -14 13 -31q1 -4 0 -8q0 -11 -4 -20q-6 -11 -23 -11h-547q-18 0 -25 10q-6 8 -6 20q0 20 13 40z" />
<glyph unicode="&#x2211;" horiz-adv-x="825" d="M137 680.5q0 21.5 21 34.5l413 258q14 10 31 13q4 1 8 1q11 0 20 -7q11 -9 11 -26v-546q0 -27 -25 -29h-6q-21 0 -39 12l-413 256q-21 12 -21 33.5z" />
<glyph unicode="&#x2212;" horiz-adv-x="1245" d="M152 659v91q0 41 41 41h862q41 0 41 -41v-91q0 -41 -41 -41h-862q-41 0 -41 41z" />
<glyph unicode="&#x221a;" horiz-adv-x="825" d="M162 496v362q0 37 16.5 52.5t52.5 15.5h363q37 0 52.5 -15.5t15.5 -52.5v-362q0 -37 -15.5 -53.5t-52.5 -16.5h-363q-37 0 -53 16.5t-16 53.5zM201 496q0 -31 30 -31h363q31 0 31 31v362q0 29 -31 29h-363q-31 0 -30 -29v-362z" />
<glyph unicode="&#x221e;" horiz-adv-x="825" d="M82 678q0 20 24 47l259 256q25 27 49 27t49 -27l254 -256q27 -27 26 -47q0 -25 -26 -49l-254 -258q-25 -27 -49.5 -27t-48.5 27l-259 258q-24 24 -24 49zM125 675q0 -11 10 -20l256 -258q12 -10 23 -10q8 0 18 10l258 258q10 12 10 21q0 10 -10 20l-258 258q-8 8 -18 9 q-12 0 -23 -9l-254 -258q-12 -10 -12 -21z" />
<glyph unicode="&#x222b;" horiz-adv-x="825" d="M55 676q0 145 104.5 250.5t251 105.5t252 -105.5t105.5 -252t-105.5 -251t-250.5 -104.5q-150 0 -253.5 103.5t-103.5 253.5z" />
<glyph unicode="&#x2248;" horiz-adv-x="1050" d="M152 369l6 75q6 94 55 140.5t111 46.5q51 0 102 -25l192 -88q63 -31 91 -31q8 0 15 1t11 5.5t6 7.5t4.5 12t3.5 14t2 19.5t3 22.5l2 15q4 37 43 37h65q37 0 35 -48l-6 -77q-8 -98 -54 -142.5t-106 -44.5q-57 0 -119 27l-196 92q-53 23 -76 23q-27 0 -33 -13.5t-12 -60.5 l-2 -19q-4 -37 -45 -36h-66q-36 0 -32 47zM152 735l6 76q6 94 55 140t111 46q51 0 102 -24l192 -88q63 -31 91 -31q8 0 15 1t11 5t6 7t4.5 12.5t3.5 14.5t2 18.5t3 23.5l2 14q4 37 43 37h65q37 0 35 -47l-6 -78q-8 -98 -54 -142t-106 -44q-57 0 -119 26l-196 93 q-53 23 -76 22q-27 0 -33 -13t-12 -61l-2 -18q-4 -37 -45 -37h-66q-36 0 -32 47z" />
<glyph unicode="&#x2260;" horiz-adv-x="1245" d="M152 449v92q0 39 41 39h286l90 233h-376q-41 0 -41 41v92q0 37 41 37h440l51 135q16 43 51 43h117q33 0 33 -23q0 -8 -4 -20l-52 -135h226q41 0 41 -37v-92q0 -41 -41 -41h-291l-88 -233h379q41 0 41 -39v-92q0 -39 -41 -39h-445l-49 -136q-16 -41 -53 -41h-119 q-37 0 -24 41l51 136h-223q-41 0 -41 39z" />
<glyph unicode="&#x2264;" horiz-adv-x="1132" d="M152 242v86q0 39 41 39h749q39 0 39 -39v-86q0 -41 -39 -41h-749q-41 0 -41 41zM152 811v139q0 29 36 45l754 291q9 3 15 3q24 0 24 -40v-121q0 -31 -39 -45l-592 -200l592 -203q39 -12 39 -45v-121q0 -40 -24 -40q-7 0 -15 3l-754 291q-36 16 -36 43z" />
<glyph unicode="&#x2265;" horiz-adv-x="1132" d="M152 236v92q0 41 41 41h749q39 0 39 -41v-92q0 -39 -39 -39h-749q-41 0 -41 39zM152 514v123q0 35 41 47l591 199l-591 198q-41 14 -41 47v125q0 41 24 41q7 0 17 -4l753 -289q35 -14 35 -47v-143q0 -29 -35 -45l-753 -291q-9 -3 -16 -3q-25 0 -25 42z" />
<glyph unicode="&#x25ca;" horiz-adv-x="825" d="M102 678q0 14 19 33l258 258q16 18 35 18q12 0 32 -18l259 -258q18 -20 18 -33q0 -18 -18 -35l-259 -258q-18 -18 -32 -18q-18 0 -35 18l-258 258q-19 17 -19 35z" />
<glyph unicode="&#xe000;" horiz-adv-x="1055" d="M0 1055h1055v-1055h-1055v1055z" />
<glyph horiz-adv-x="0" />
<glyph horiz-adv-x="591" d="M162 -76l18 38q12 26 15.5 35t10.5 28.5t9 34t4 38t2 52.5v61q0 41 41 41h92q39 0 39 -41v-72q0 -123 -88 -266q-15 -24 -41 -24q-6 0 -12 1l-72 19q-25 7 -25 28q0 11 7 27z" />
<glyph horiz-adv-x="450" d="M98 1604l125 227q23 39 56 39h133q30 0 30 -17q0 -9 -10 -24l-164 -238q-14 -27 -51 -26h-98q-28 0 -28 16q-1 10 7 23z" />
<glyph horiz-adv-x="450" d="M-72 1665v78q0 37 39 37h518q41 0 41 -37v-78q0 -39 -41 -39h-518q-39 0 -39 39z" />
<glyph horiz-adv-x="450" d="M-47 1808v33q0 33 37 33h76q37 0 36 -33v-39q0 -59 27 -90t97.5 -31t97 31t26.5 90v39q0 33 35 33h76q35 0 35 -33v-33q0 -252 -275 -252q-268 0 -268 252z" />
<glyph horiz-adv-x="450" d="M-43 1859q6 11 29 11h96q29 0 57 -41l86 -139l88 139q27 41 56 41h96q20 0 27 -11q2 -4 2 -9q0 -9 -9 -21l-159 -225q-27 -39 -64 -39h-74q-35 0 -65 41l-160 223q-8 12 -8 21q0 5 2 9z" />
<glyph horiz-adv-x="450" d="M12 1688v49q0 70 54.5 115.5t159 45.5t158.5 -46t54 -115v-49q0 -72 -54 -117t-158.5 -45t-159 45t-54.5 117zM135 1704q0 -72 91 -72t91 72v14q0 74 -91 74t-91 -74v-14z" />
<glyph horiz-adv-x="450" d="M-42 1577q-2 4 -2 8q0 9 7 19l160 225q31 41 65 41h74q35 0 64 -41l159 -225q8 -10 9 -19q0 -4 -2 -8q-6 -12 -27 -12h-96q-33 0 -56 39l-88 143l-86 -143q-23 -39 -57 -39h-96q-23 0 -28 12z" />
<glyph horiz-adv-x="450" d="M-104 1630l4 68q4 84 52 127t116 43q72 0 127 -35l90 -55q72 -39 86 -39q25 0 33 16.5t8 63.5v14q0 37 45 37h65q34 0 34 -35q0 -6 -1 -12l-4 -68q-4 -86 -52 -128t-118 -42q-68 0 -123 33l-92 55q-70 41 -84 41q-29 0 -35 -15.5t-6 -64.5v-16q0 -35 -43 -35h-68 q-38 0 -34 47z" />
<glyph horiz-adv-x="450" d="M20 1614v203q0 43 39 43h76q37 0 37 -43v-203q0 -39 -37 -39h-76q-39 0 -39 39zM279 1614v203q0 43 38 43h74q39 0 39 -43v-203q0 -39 -39 -39h-74q-38 0 -38 39z" />
<glyph horiz-adv-x="450" d="M123 1616v172q0 39 39 39h127q39 0 39 -39v-172q0 -39 -39 -39h-127q-39 0 -39 39z" />
<glyph horiz-adv-x="450" d="M54 1858q5 12 28 12h131q35 0 55 -41l125 -225q8 -15 8 -24q0 -17 -26 -17h-101q-31 0 -51 28l-162 236q-9 13 -8 23q-1 4 1 8z" />
<glyph horiz-adv-x="450" d="M-68 1604l105 225q16 41 57 41h109q20 0 29.5 -12.5t-3.5 -28.5l-125 -225q-20 -39 -53 -39h-94q-31 0 -31 18q0 9 6 21zM188 1604l136 225q25 41 61 41h111q29 0 29 -17q0 -9 -9 -24l-158 -227q-25 -37 -57 -37h-94q-27 0 -28 15q0 10 9 24z" />
<glyph horiz-adv-x="3155" d="M139 539q0 57 39 101t107 44q41 0 64.5 -20.5t23.5 -45.5q0 -51 -53 -69q-35 -12 -95 -12q4 -47 56 -48q37 0 69 21q16 -12 17 -35q0 -8 -5.5 -18.5t-30 -20.5t-65.5 -10q-59 0 -93 31t-34 82zM147 0v16h2849v-16h-2849zM147 1126v17h2849v-17h-2849zM223 563q80 0 80 43 q0 29 -29 29q-43 0 -51 -72zM406 668q51 16 67 16q23 0 23 -20v-84q6 18 16 39.5t32.5 43t47.5 21.5q61 0 61 -68v-36q31 104 97 104q59 0 59 -68v-104l6 -70q-51 -16 -65 -16q-23 0 -23 16v142q0 35 -18 34q-12 0 -34 -37.5t-22 -64.5l4 -74q-51 -16 -65 -16q-23 0 -23 16 v142q0 35 -18 34q-14 0 -34.5 -37.5t-20.5 -64.5l6 -74q-51 -16 -68 -16q-23 0 -22 16v148zM799 702v9q0 43 24 43h37l-6 63q51 18 68 19q25 0 24 -19v-61h101v-6q0 -45 -27 -45h-74v-183q0 -35 27 -35q20 0 40.5 17.5t20.5 38.5v53l-6 72q51 16 70 16q23 0 22 -20v-140 q0 -33 15 -32q18 0 37.5 37.5t17.5 64.5l-4 74q51 16 67 16q23 0 23 -20v-209l53 6v129l-6 78q51 16 68 16q25 0 24 -20v-84q35 102 98 102q37 0 61.5 -28.5t24.5 -80.5q0 -145 -184 -145v-86l6 -68q-51 -16 -69 -16q-23 0 -23 16v160l-53 -6v-6q0 -168 -146 -168 q-45 0 -65.5 22.5t-20.5 49.5q0 78 148 112v90q-35 -102 -96.5 -102t-61.5 66v6q-39 -70 -112 -70q-61 0 -62 64v215zM1104 344q0 -29 29 -29q53 0 57 99q-86 -21 -86 -70zM1415 467q94 12 94 108q0 43 -27.5 43t-47 -39.5t-19.5 -62.5v-49zM1628 539q0 57 39 101t107 44 q41 0 64.5 -20.5t23.5 -45.5q0 -51 -54 -69q-35 -12 -94 -12q4 -47 55 -48q37 0 70 21q17 -12 17 -35q0 -8 -5.5 -18.5t-30 -20.5t-65.5 -10q-59 0 -93 31t-34 82zM1712 563q80 0 80 43q0 29 -29 29q-43 0 -51 -72zM1894 481.5q0 20.5 14.5 35.5t38 15t40 -15t16.5 -35.5 t-16.5 -35t-40 -14.5t-38 14.5t-14.5 35zM2032 668q51 16 67 16q25 0 25 -20v-84q37 104 96 104q61 0 61 -68v-104l5 -70q-51 -16 -66 -16q-25 0 -25 16v144q0 33 -16 32q-14 0 -34.5 -37.5t-20.5 -64.5l6 -74q-51 -16 -68 -16q-25 0 -24 16v148zM2314 539q0 57 40 101 t108 44q41 0 64.5 -20.5t23.5 -45.5q0 -51 -53 -69q-35 -12 -95 -12q4 -47 56 -48q37 0 67 21q18 -12 19 -35q0 -8 -5.5 -18.5t-30 -20.5t-65.5 -10q-59 0 -94 31t-35 82zM2400 563q80 0 80 43q0 29 -29 29q-43 0 -51 -72zM2521 702v9q0 43 27 43h37l-9 63q51 18 70 19 q23 0 23 -19v-61h100v-6q0 -45 -25 -45h-75v-191q0 -33 34 -33q23 0 81.5 11.5t99.5 11.5q37 0 85 -12.5t48 -36.5q0 -31 -20.5 -46.5t-37.5 -15.5q-6 0 -57 25.5t-94 25.5q-16 0 -69.5 -8t-93.5 -8t-48 26.5t-10 139.5q0 68 -2 113z" />
</font>
</defs>
</svg>
