<?xml version="1.0" standalone="no"?>
<!DOCTYPE svg PUBLIC "-//W3C//DTD SVG 1.1//EN" "http://www.w3.org/Graphics/SVG/1.1/DTD/svg11.dtd" >
<svg xmlns="http://www.w3.org/2000/svg">
<metadata>
This is a custom SVG webfont generated by Font Squirrel.
Copyright   : Copyright c 2009 by Eduardo Manso All rights reserved
Designer    : Eduardo Manso
Foundry     : Eduardo Manso
Foundry URL : httpwwwemtypenet
</metadata>
<defs>
<font id="GeogrotesqueLight" horiz-adv-x="1126" >
<font-face units-per-em="2048" ascent="1536" descent="-512" />
<missing-glyph horiz-adv-x="501" />
<glyph unicode="&#xfb00;" horiz-adv-x="1316" d="M72 999v35q0 25 26 25l119 6h23v195q0 266 387 266h12q25 0 25 -27v-45q0 -27 -25 -27h-12q-274 0 -275 -178v-184h516v199q0 266 389 266h11q27 0 26 -25v-45q0 -27 -26 -26h-11q-276 0 -276 -181v-188h252q27 0 27 -23v-43q0 -27 -27 -26h-252v-946q0 -27 -27 -27h-59 q-27 0 -27 27v946h-516v-946q0 -27 -24 -27h-64q-25 0 -24 27v946h-142q-26 -1 -26 26z" />
<glyph unicode="&#xfb01;" horiz-adv-x="1159" d="M66 999v35q0 25 26 25l119 6h20v186q0 266 390 267h278q27 0 27 -27v-45q0 -27 -27 -27h-278q-274 0 -275 -180v-174h602q27 0 27 -25v-1013q0 -27 -25 -27h-61q-27 0 -27 27v946h-516v-946q0 -27 -27 -27h-63q-25 0 -25 27v946h-139q-26 -1 -26 26z" />
<glyph unicode="&#xfb02;" horiz-adv-x="1159" d="M66 999v35q0 25 26 25l119 6h20v186q0 266 390 267h327q27 0 27 -27v-1464q0 -27 -25 -27h-61q-27 0 -27 27v1392h-241q-274 0 -275 -180v-174h252q25 0 25 -23v-43q0 -27 -25 -26h-252v-946q0 -27 -27 -27h-63q-25 0 -25 27v946h-139q-26 -1 -26 26z" />
<glyph unicode="&#xfb03;" horiz-adv-x="1794" d="M72 999v35q0 25 26 25l119 6h23v195q0 266 387 266h12q25 0 25 -27v-45q0 -27 -25 -27h-12q-274 0 -275 -178v-184h516v186q0 266 389 267h277q29 0 29 -27v-45q0 -27 -29 -27h-277q-276 0 -276 -180v-174h604q29 0 29 -25v-1013q0 -27 -25 -27h-63q-27 0 -27 27v946 h-518v-946q0 -27 -25 -27h-61q-27 0 -27 27v946h-516v-946q0 -27 -24 -27h-64q-25 0 -24 27v946h-142q-26 -1 -26 26z" />
<glyph unicode="&#xfb04;" horiz-adv-x="1794" d="M72 999v35q0 25 26 25l119 6h23v195q0 266 387 266h12q25 0 25 -27v-45q0 -27 -25 -27h-12q-274 0 -275 -178v-184h516v186q0 266 392 267h325q29 0 29 -27v-1464q0 -27 -25 -27h-63q-27 0 -27 27v1392h-239q-152 0 -214.5 -46t-62.5 -134v-174h252q27 0 27 -23v-43 q0 -27 -27 -26h-252v-946q0 -27 -27 -27h-61q-27 0 -27 27v946h-516v-946q0 -27 -24 -27h-64q-25 0 -24 27v946h-142q-26 -1 -26 26z" />
<glyph unicode=" "  horiz-adv-x="501" />
<glyph unicode="&#x09;" horiz-adv-x="501" />
<glyph unicode="&#xa0;" horiz-adv-x="501" />
<glyph unicode="!" horiz-adv-x="536" d="M209 846v604q0 27 24 27h70q25 0 25 -27v-604l-11 -479q0 -27 -26 -27h-45q-25 0 -25 27zM211 27v166q0 27 27 26h63q25 0 25 -26v-166q0 -27 -25 -27h-63q-27 0 -27 27z" />
<glyph unicode="&#x22;" horiz-adv-x="759" d="M184 1450q0 27 27 27h63q23 0 23 -27l-10 -375q0 -29 -25 -28h-43q-27 0 -26 28zM463 1450q0 27 22 27h64q27 0 26 -27l-8 -375q0 -29 -26 -28h-43q-25 0 -25 28z" />
<glyph unicode="#" horiz-adv-x="1400" d="M188 526v33q0 27 27 27h184l72 258h-170q-25 0 -25 26v35q0 27 25 27h195l59 219q8 27 33 27h49q27 0 18 -27l-61 -219h348l64 219q6 27 30 27h47q29 0 19 -27l-62 -219h148q27 0 26 -27v-35q0 -27 -26 -26h-172l-72 -258h156q25 0 24 -27v-33q0 -27 -24 -26h-180 l-58 -215q-6 -27 -33 -27h-49q-25 0 -18 27l61 215h-350l-61 -215q-6 -27 -29 -27h-49q-25 0 -19 27l60 215h-160q-27 -1 -27 26zM498 586h346l74 258h-349z" />
<glyph unicode="$" horiz-adv-x="1142" d="M188 420v59q0 25 25 25h57q23 0 23 -25v-55q0 -70 70.5 -112t206 -42t207 42t71.5 112v96q0 90 -135 133l-340 107q-63 23 -115.5 78t-52.5 129v86q0 98 76.5 161.5t240.5 73.5v162q0 27 27 27h63q25 0 25 -27v-162q154 -14 227.5 -77.5t73.5 -157.5v-68q0 -23 -27 -22 h-55q-25 0 -25 22v68q0 150 -262 149q-258 0 -258 -149v-68q0 -49 37 -85t84 -48l338 -107q182 -59 182 -198v-127q0 -94 -78.5 -156.5t-236.5 -77.5v-159q0 -27 -25 -27h-63q-27 0 -27 27v157q-168 8 -251 73t-83 163z" />
<glyph unicode="%" horiz-adv-x="1630" d="M188 1053v241q0 195 283 195q281 0 281 -195v-241q0 -197 -281 -197q-283 0 -283 197zM287 1055q0 -117 184 -117q182 0 182 117v237q0 119 -182 119q-184 0 -184 -119v-237zM434 27l649 1423q10 27 35 27h53q27 0 15 -27l-647 -1423q-10 -27 -37 -27h-58q-14 0 -13 12 q0 6 3 15zM879 178v242q0 197 280 196q283 0 283 -196v-242q0 -195 -283 -194q-280 -1 -280 194zM975 180q0 -119 184 -119t184 119v238q0 117 -184 117t-184 -117v-238z" />
<glyph unicode="&#x26;" horiz-adv-x="1441" d="M203 283v254q0 104 43 164.5t162 86.5q-111 27 -151 85.5t-40 160.5v160q0 141 90 220t322.5 79t323.5 -80t91 -221v-41q0 -27 -24 -27h-64q-25 0 -24 27v29q0 106 -66.5 161.5t-235.5 55.5t-234.5 -55.5t-65.5 -161.5v-131q0 -109 63.5 -161t241.5 -52h690q25 0 25 -27 v-47q0 -25 -25 -25h-172v-452q0 -137 -112.5 -219t-362.5 -82q-475 0 -475 299zM317 297q0 -217 361 -217q362 0 362 217v440h-422q-178 0 -239.5 -53t-61.5 -162v-225z" />
<glyph unicode="'" horiz-adv-x="481" d="M184 1450q0 27 27 27h63q23 0 23 -27l-10 -375q0 -29 -25 -28h-43q-27 0 -26 28z" />
<glyph unicode="(" horiz-adv-x="765" d="M203 -207v1477q0 266 387 266h14q25 0 25 -25v-45q0 -27 -25 -26h-14q-150 0 -210.5 -47t-60.5 -133v-1455q0 -88 60.5 -134t210.5 -46h14q25 0 25 -26v-45q0 -27 -25 -27h-14q-387 0 -387 266z" />
<glyph unicode=")" horiz-adv-x="765" d="M139 -401q0 27 27 26h10q150 0 210 46t60 134v1455q0 86 -60 133t-210 47h-10q-27 0 -27 26v45q0 25 27 25h10q387 0 387 -266v-1477q0 -266 -387 -266h-10q-27 0 -27 27v45z" />
<glyph unicode="*" horiz-adv-x="1089" d="M215 991q-4 9 -4 16q0 13 14 19l248 141l-248 144q-15 9 -14 21q0 6 4 14l14 28q14 25 37 10l246 -159l-8 291q0 27 26 26h33q23 0 23 -26l-8 -291l245 159q23 18 37 -10l14 -28q5 -8 6 -15q0 -12 -16 -20l-250 -144l250 -141q14 -7 14 -20q0 -7 -4 -15l-14 -28 q-14 -25 -37 -11l-243 158l6 -283q0 -29 -23 -28h-35q-25 0 -24 28l8 285l-246 -160q-23 -16 -37 11z" />
<glyph unicode="+" horiz-adv-x="1267" d="M184 713v47q0 27 27 26h373v375q0 27 24 27h45q27 0 27 -27v-375h379q25 0 24 -26v-47q0 -25 -24 -25h-379v-375q0 -27 -27 -26h-45q-25 0 -24 26v375h-373q-27 0 -27 25z" />
<glyph unicode="," horiz-adv-x="458" d="M47 -125q-2 5 -2 10q0 13 18 21q111 53 111 160v127q0 27 23 26h65q27 0 27 -26v-132q0 -186 -191 -247q-6 -1 -10 -2q-16 0 -22 16z" />
<glyph unicode="-" horiz-adv-x="1001" d="M184 606v45q0 25 27 25h582q27 0 26 -25v-45q0 -27 -26 -26h-582q-27 -1 -27 26z" />
<glyph unicode="." horiz-adv-x="460" d="M174 27v166q0 27 27 26h61q27 0 27 -26v-166q0 -27 -27 -27h-61q-27 0 -27 27z" />
<glyph unicode="/" horiz-adv-x="802" d="M102 -295l478 1786q6 27 32 27h70q20 0 20 -16q0 -5 -2 -11l-477 -1786q-6 -27 -33 -27h-69q-20 0 -20 18q0 4 1 9z" />
<glyph unicode="0" horiz-adv-x="1163" d="M150 289v899q0 143 96 224t336 81q242 0 337 -81t95 -224v-899q0 -143 -95.5 -224t-336.5 -81q-240 0 -336 81t-96 224zM266 305q0 -109 68.5 -166t247 -57t248 57.5t69.5 165.5v864q0 109 -69.5 167.5t-248 58.5t-247 -58.5t-68.5 -167.5v-864z" />
<glyph unicode="1" horiz-adv-x="1163" d="M164 27v47q0 27 24 26h363v1252l-361 -92q-25 -6 -24 20v51q0 25 24 33l453 117q3 1 6 0q17 0 17 -23v-1358h360q25 0 25 -26v-47q0 -27 -25 -27h-838q-24 0 -24 27z" />
<glyph unicode="2" horiz-adv-x="1163" d="M172 1065v123q0 143 92 224t330 81q242 0 335 -81t93 -224v-260q0 -109 -61.5 -170.5t-129.5 -79.5l-370 -107q-156 -41 -156 -151v-320h699q25 0 24 -26v-47q0 -27 -24 -27h-789q-25 0 -25 27v422q0 137 187 198l393 117q137 43 137 162v245q0 111 -67.5 168.5 t-245.5 57.5q-174 0 -241.5 -58.5t-67.5 -167.5v-106q0 -27 -25 -27h-63q-25 0 -25 27z" />
<glyph unicode="3" horiz-adv-x="1163" d="M143 285v41q0 27 27 26h61q25 0 25 -26v-29q0 -106 70.5 -161.5t244.5 -55.5q172 0 241 55t69 162v225q0 113 -61.5 164t-239.5 51h-203q-25 0 -25 25v47q0 27 25 27h190q178 0 239.5 52t61.5 161v131q0 106 -65.5 161.5t-234.5 55.5t-235.5 -55.5t-66.5 -161.5v-29 q0 -27 -24 -27h-62q-27 0 -26 27v41q0 141 92 221t324.5 80t322.5 -79t90 -220v-160q0 -100 -41 -159.5t-151 -86.5q119 -27 162.5 -87t43.5 -164v-254q0 -141 -95 -220t-331.5 -79t-332 80t-95.5 221z" />
<glyph unicode="4" horiz-adv-x="1163" d="M111 512v45q0 12 8 37l317 856q10 27 33 27h66q29 0 16 -27l-320 -864h625v864q0 27 25 27h65q27 0 27 -27v-1423q0 -27 -27 -27h-65q-25 0 -25 27v458h-719q-26 0 -26 27z" />
<glyph unicode="5" horiz-adv-x="1163" d="M176 285v41q0 27 27 26h59q27 0 27 -26v-29q0 -111 60.5 -164t236.5 -53q174 0 234.5 53t60.5 164v301q0 193 -303 193h-349q-23 0 -22 26v633q0 27 22 27h707q27 0 27 -27v-47q0 -27 -27 -27h-614v-487h258q205 0 311 -72t106 -205v-327q0 -145 -88 -223t-322.5 -78 t-322.5 78t-88 223z" />
<glyph unicode="6" horiz-adv-x="1163" d="M164 1200q0 293 417.5 293t417.5 -293v-35q0 -27 -26 -26h-64q-25 0 -24 26v23q0 209 -303 209q-172 0 -237.5 -57.5t-65.5 -151.5v-434q70 119 321 118q231 0 322.5 -80.5t91.5 -224.5v-278q0 -143 -92.5 -224t-333.5 -81q-238 0 -331 80.5t-93 224.5v911zM279 301 q0 -109 66.5 -165t242.5 -56q178 0 244.5 56.5t66.5 164.5v252q0 111 -66.5 166t-244.5 55q-168 0 -238.5 -53t-70.5 -150v-270z" />
<glyph unicode="7" horiz-adv-x="1163" d="M119 1403v47q0 27 26 27h877q25 0 25 -27v-47q0 -12 -5 -25l-565 -1351q-10 -27 -33 -27h-75q-31 0 -19 27l565 1349h-770q-26 0 -26 27z" />
<glyph unicode="8" horiz-adv-x="1163" d="M158 289v246q0 102 49 165.5t174 90.5q-119 27 -163 89t-44 167v141q0 145 86 225t322 80q240 0 323.5 -80t83.5 -225v-141q0 -104 -44 -167t-161 -89q123 -27 172.5 -90.5t49.5 -165.5v-246q0 -143 -92.5 -224t-332 -81t-331.5 81t-92 224zM274 301q0 -109 66 -165 t242 -56q178 0 244.5 56.5t66.5 164.5v217q0 111 -66.5 168t-244.5 57q-176 0 -242 -57t-66 -168v-217zM289 1061q0 -113 59.5 -168t233.5 -55q176 0 235.5 55t59.5 168v113q0 113 -59.5 168t-235.5 55q-174 0 -233.5 -55.5t-59.5 -167.5v-113z" />
<glyph unicode="9" horiz-adv-x="1163" d="M150 909v279q0 143 93 224t335 81q240 0 331.5 -81t91.5 -224v-912q0 -293 -419 -292q-414 0 -414 292v35q0 25 25 25h63q25 0 25 -25v-22q0 -209 301 -209q174 0 238.5 56.5t64.5 152.5v432q-70 -117 -320 -117q-231 0 -323 81t-92 224zM264 922q0 -106 67.5 -164 t246.5 -58q170 0 238.5 54.5t68.5 154.5v265q0 109 -65.5 166t-241.5 57q-178 0 -246 -57.5t-68 -165.5v-252z" />
<glyph unicode=":" horiz-adv-x="460" d="M174 27v166q0 27 27 26h61q27 0 27 -26v-166q0 -27 -27 -27h-61q-27 0 -27 27zM174 874v168q0 29 27 29h61q27 0 27 -29v-168q0 -27 -27 -26h-61q-27 -1 -27 26z" />
<glyph unicode=";" horiz-adv-x="571" d="M160 -125q-2 5 -2 10q0 13 18 21q63 29 87 65.5t24 94.5v127q0 27 26 26h62q27 0 26 -26v-132q0 -180 -190 -247q-6 -1 -11 -2q-16 0 -22 16zM287 874v168q0 29 26 29h62q27 0 26 -29v-168q0 -27 -26 -26h-62q-26 -1 -26 26z" />
<glyph unicode="&#x3c;" horiz-adv-x="1179" d="M184 705v67q0 20 25 31l762 348q7 3 11 3q15 0 15 -24v-61q0 -23 -26 -31l-674 -301l674 -297q27 -10 26 -30v-62q0 -24 -14 -24q-5 0 -12 4l-762 348q-25 11 -25 29z" />
<glyph unicode="=" horiz-adv-x="1280" d="M184 516v47q0 25 27 25h860q25 0 25 -25v-47q0 -25 -25 -24h-860q-27 -1 -27 24zM184 889v45q0 27 27 27h860q25 0 25 -27v-45q0 -27 -25 -27h-860q-27 0 -27 27z" />
<glyph unicode="&#x3e;" horiz-adv-x="1177" d="M184 348v62q0 20 27 30l672 297l-672 301q-27 8 -27 27v65q0 26 15 26q5 0 12 -3l762 -350q25 -10 24 -29v-72q0 -16 -24 -26l-762 -350q-7 -3 -12 -4q-15 0 -15 26z" />
<glyph unicode="?" horiz-adv-x="1232" d="M178 1065v123q0 305 436 305q440 0 441 -305v-182q0 -180 -174 -269l-113 -55q-113 -57 -113 -164v-151q0 -27 -26 -27h-64q-27 0 -26 27v176q0 139 145 211l139 69q117 61 117 178v170q0 109 -73.5 167.5t-252 58.5t-251 -58.5t-72.5 -167.5v-106q0 -27 -27 -27h-59 q-27 0 -27 27zM539 27v166q0 27 26 26h64q27 0 26 -26v-166q0 -27 -26 -27h-64q-26 0 -26 27z" />
<glyph unicode="@" horiz-adv-x="1787" d="M209 104v883q0 78 28.5 137.5t101.5 108.5t212 76.5t344 27.5q201 0 341 -27.5t213 -76.5t102.5 -108.5t29.5 -137.5v-649q0 -266 -250 -266q-180 0 -221 141q-166 -141 -352 -141q-250 0 -250 221q0 29 2 43l39 391q29 270 291 270q164 0 313 -129l12 84q2 27 29 27h55 q23 0 21 -27l-62 -596q-2 -18 -1 -35q0 -66 25 -109q32 -54 105 -54q133 0 133 194v633q0 80 -47 134.5t-178 89t-350 34.5q-319 0 -447.5 -66.5t-128.5 -191.5v-876q0 -80 46.5 -134.5t178.5 -89.5t351 -35h403q27 0 27 -26v-43q0 -27 -27 -27h-403q-205 0 -345 28t-212 79 t-100.5 109t-28.5 134zM618 326q0 -68 43.5 -108t135.5 -40q137 0 297 115q0 25 2 39l47 440q-143 123 -277 123q-188 0 -209 -184l-36 -359q0 -4 -1.5 -13t-1.5 -13z" />
<glyph unicode="A" d="M57 27l441 1423q6 27 32 27h68q25 0 31 -27l442 -1423q3 -7 3 -12q0 -15 -23 -15h-68q-23 0 -31 27l-131 419h-524l-127 -419q-6 -27 -31 -27h-63q-21 0 -21 14q-1 6 2 13zM326 541h469l-181 581q-25 80 -55 230q-16 -115 -49 -226z" />
<glyph unicode="B" horiz-adv-x="1255" d="M209 27v1423q0 27 24 27h369q453 0 453 -297v-148q0 -199 -207 -260q264 -51 264 -268v-201q0 -303 -455 -303h-424q-24 0 -24 27zM324 809h301q315 0 315 225v129q0 104 -78 159.5t-260 55.5h-278v-569zM324 98h333q340 0 340 221v179q0 219 -340 219h-333v-619z" />
<glyph unicode="C" horiz-adv-x="1185" d="M184 289v899q0 305 443.5 305t443.5 -305v-113q0 -29 -24 -28h-64q-27 0 -27 28v94q0 106 -74.5 166t-255 60t-254 -58.5t-73.5 -167.5v-864q0 -109 73.5 -166t254 -57t255 59.5t74.5 163.5v125q0 25 27 25h64q25 0 24 -25v-141q0 -305 -443.5 -305t-443.5 305z" />
<glyph unicode="D" horiz-adv-x="1298" d="M209 27v1423q0 27 22 27h431q455 0 454 -308v-864q0 -305 -454 -305h-431q-22 0 -22 27zM324 100h338q340 0 339 224v829q0 223 -339 223h-338v-1276z" />
<glyph unicode="E" horiz-adv-x="1142" d="M209 27v1423q0 27 24 27h742q27 0 26 -27v-47q0 -27 -26 -27h-651v-551h612q27 0 27 -26v-45q0 -27 -27 -27h-612v-627h677q25 0 25 -26v-47q0 -27 -25 -27h-770q-22 0 -22 27z" />
<glyph unicode="F" horiz-adv-x="1150" d="M209 27v1423q0 27 24 27h799q25 0 25 -27v-47q0 -27 -25 -27h-708v-555h667q27 0 27 -26v-47q0 -27 -27 -27h-667v-694q0 -27 -25 -27h-66q-24 0 -24 27z" />
<glyph unicode="G" horiz-adv-x="1220" d="M184 289v899q0 305 443.5 305t443.5 -305v-109q0 -27 -24 -26h-64q-27 0 -27 26v90q0 106 -74.5 166t-255 60t-254 -58.5t-73.5 -167.5v-864q0 -109 73.5 -166t254.5 -57q330 0 329 219v291h-309q-27 0 -26 26v48q0 27 26 26h397q27 0 27 -26v-377q0 -305 -443.5 -305 t-443.5 305z" />
<glyph unicode="H" horiz-adv-x="1323" d="M209 27v1423q0 27 24 27h66q25 0 25 -27v-612h677v612q0 27 23 27h68q25 0 24 -27v-1423q0 -27 -24 -27h-68q-23 0 -23 27v710h-677v-710q0 -27 -25 -27h-66q-24 0 -24 27z" />
<glyph unicode="I" horiz-adv-x="530" d="M209 27v1423q0 27 24 27h66q25 0 25 -27v-1423q0 -27 -25 -27h-66q-24 0 -24 27z" />
<glyph unicode="J" horiz-adv-x="1064" d="M74 289v88q0 27 26 26h64q23 0 22 -26v-72q0 -109 63.5 -166t224.5 -57t221.5 57.5t60.5 165.5v1145q0 27 24 27h64q27 0 26 -27v-1161q0 -143 -88 -224t-309 -81t-310 81t-89 224z" />
<glyph unicode="K" horiz-adv-x="1169" d="M209 27v1423q0 27 24 27h66q25 0 25 -27v-666h73l537 668q18 25 43 25h72q33 0 12 -27l-563 -700l626 -723q5 -6 5 -12q0 -3 -2 -7q-5 -8 -15 -8h-88q-14 0 -41 27l-584 667h-75v-667q0 -27 -25 -27h-66q-24 0 -24 27z" />
<glyph unicode="L" horiz-adv-x="1071" d="M209 27v1423q0 27 24 27h66q25 0 25 -27v-1350h643q25 0 24 -26v-47q0 -27 -24 -27h-738q-20 0 -20 27z" />
<glyph unicode="M" horiz-adv-x="1562" d="M209 27v1423q0 27 24 27h60q18 0 24 -17l431 -1014l34 -100q20 61 37 98l424 1018q6 14 25 15h63q23 0 23 -27v-1423q0 -27 -23 -27h-63q-27 0 -27 27v1200l-39 -113l-356 -862q-8 -27 -35 -27h-59q-23 0 -33 27l-369 876q-23 45 -33 97v-1198q0 -27 -24 -27h-60 q-24 0 -24 27z" />
<glyph unicode="N" horiz-adv-x="1320" d="M209 27v1423q0 27 24 27h60q16 0 22 -11l627 -1114l64 -125v1223q0 27 26 27h58q25 0 24 -27v-1423q0 -27 -24 -27h-58q-18 0 -24 12l-621 1106q-57 88 -70 131v-1222q0 -27 -24 -27h-60q-24 0 -24 27z" />
<glyph unicode="O" horiz-adv-x="1273" d="M184 289v899q0 305 453 305q455 0 455 -305v-899q0 -305 -455 -305q-453 0 -453 305zM299 305q0 -223 338 -223t338 223v864q0 225 -338 225.5t-338 -225.5v-864z" />
<glyph unicode="P" horiz-adv-x="1220" d="M209 27v1423q0 27 22 27h424q455 0 455 -308v-278q0 -307 -455 -307h-331v-557q0 -27 -25 -27h-66q-24 0 -24 27zM324 684h331q338 0 338 223v246q0 223 -338 223h-331v-692z" />
<glyph unicode="Q" horiz-adv-x="1271" d="M184 289v899q0 305 453 305q455 0 455 -305v-899q0 -262 -332 -299l311 -285q18 -18 2 -35l-35 -37q-9 -11 -17 -10q-8 0 -17 8l-379 353q-441 2 -441 305zM299 303q0 -223 338 -223t338 223v868q0 225 -338 225.5t-338 -225.5v-868z" />
<glyph unicode="R" horiz-adv-x="1273" d="M209 27v1423q0 27 22 27h424q455 0 455 -308v-251q0 -240 -279 -293l297 -598q2 -6 3 -12q0 -15 -25 -15h-66q-23 0 -32 27l-287 587q-23 -2 -66 -2h-331v-585q0 -27 -25 -27h-66q-24 0 -24 27zM324 711h331q338 0 338 223v219q0 223 -338 223h-331v-665z" />
<glyph unicode="S" horiz-adv-x="1220" d="M166 289v112q0 29 24 29h64q27 0 27 -29v-100q0 -221 333 -221q338 0 338 221v156q0 131 -180 200l-403 158q-76 27 -131.5 94.5t-55.5 161.5v117q0 305 436.5 305t436.5 -305v-107q0 -27 -27 -26h-61q-25 0 -25 26v93q0 106 -72.5 164.5t-251 58.5t-251 -58.5 t-72.5 -164.5v-80q0 -133 137 -185l416 -157q217 -84 217 -273v-190q0 -305 -449 -305q-450 0 -450 305z" />
<glyph unicode="T" horiz-adv-x="1040" d="M43 1403v47q0 27 27 27h903q27 0 26 -27v-47q0 -27 -26 -27h-395v-1349q0 -27 -25 -27h-66q-25 0 -24 27v1349h-393q-27 0 -27 27z" />
<glyph unicode="U" horiz-adv-x="1296" d="M195 289v1161q0 27 26 27h66q25 0 24 -27v-1145q0 -223 338 -223t338 223v1145q0 27 27 27h65q23 0 23 -27v-1161q0 -305 -453.5 -305t-453.5 305z" />
<glyph unicode="V" d="M57 1450q-3 7 -2 12q0 14 21 15h71q25 0 31 -27l338 -1096l49 -207q27 131 49 203l340 1100q8 27 31 27h66q22 0 22 -16q0 -5 -2 -11l-442 -1423q-6 -27 -31 -27h-68q-27 0 -32 27z" />
<glyph unicode="W" horiz-adv-x="1716" d="M57 1450q-2 6 -2 11q0 16 21 16h67q25 0 31 -27l277 -1098l34 -151q20 96 35 151l283 1098q6 27 31 27h61q23 0 31 -27l278 -1098l33 -162q18 96 35 162l282 1098q6 27 31 27h55q24 0 24 -18q0 -4 -1 -9l-363 -1423q-6 -27 -32 -27h-66q-23 0 -31 27l-282 1116 q-16 53 -29 137l-31 -137l-282 -1116q-6 -27 -33 -27h-65q-25 0 -31 27z" />
<glyph unicode="X" horiz-adv-x="1183" d="M102 29l420 723l-413 696q-14 29 10 29h82q20 0 37 -27l360 -604l344 604q14 27 37 27h72q29 0 12 -27l-408 -702l428 -721q6 -10 6 -16q0 -11 -18 -11h-80q-20 0 -39 27l-368 618l-361 -618q-16 -27 -37 -27h-71q-18 0 -19 12q0 7 6 17z" />
<glyph unicode="Y" horiz-adv-x="1103" d="M49 1450q-4 8 -3 13q0 14 22 14h71q18 0 33 -27l350 -668q20 -39 31 -71q0 6 33 71l356 668q14 27 33 27h63q24 0 24 -13q0 -6 -5 -14l-445 -838v-585q0 -27 -26 -27h-66q-23 0 -22 27v573z" />
<glyph unicode="Z" horiz-adv-x="1093" d="M121 27v47q0 14 8 28l694 1274h-639q-27 0 -26 27v47q0 27 26 27h756q27 0 27 -27v-47q0 -12 -4 -21l-703 -1282h713q27 0 26 -26v-47q0 -27 -26 -27h-828q-24 0 -24 27z" />
<glyph unicode="[" horiz-adv-x="776" d="M203 -432v1923q0 27 24 27h381q27 0 27 -27v-47q0 -27 -27 -27h-289v-1775h289q27 0 27 -27v-47q0 -27 -27 -27h-381q-24 0 -24 27z" />
<glyph unicode="\" horiz-adv-x="802" d="M102 1491q-1 5 -1 10q0 17 20 17h69q27 0 33 -27l477 -1786q2 -6 2 -11q0 -16 -20 -16h-70q-27 0 -32 27z" />
<glyph unicode="]" horiz-adv-x="776" d="M145 -385q0 27 25 27h289v1775h-289q-25 0 -25 27v47q0 27 25 27h379q25 0 24 -27v-1923q0 -27 -24 -27h-379q-25 0 -25 27v47z" />
<glyph unicode="^" horiz-adv-x="1196" d="M186 688l349 764q12 25 28 25h68q16 0 28 -25l351 -764q3 -7 2 -12q0 -15 -23 -14h-61q-20 0 -31 26l-299 674l-299 -674q-10 -27 -31 -26h-61q-23 0 -23 14q-1 5 2 12z" />
<glyph unicode="_" horiz-adv-x="925" d="M49 -215q0 25 27 25h776q25 0 25 -25v-45q0 -27 -25 -27h-776q-27 0 -27 27v45z" />
<glyph unicode="`" horiz-adv-x="729" d="M223 1511q-7 9 -6 15q0 10 21 10h67q20 0 35 -20l158 -254q5 -9 5 -15q0 -10 -18 -10h-53q-25 0 -33 16z" />
<glyph unicode="a" horiz-adv-x="1089" d="M143 233v113q0 111 71 181.5t200 70.5h393v213q0 88 -59.5 135t-209 47t-210 -46t-60.5 -132v-33q0 -27 -24 -26h-58q-23 0 -22 26v39q0 266 377 266q207 0 292 -69.5t85 -196.5v-794q0 -27 -23 -27h-55q-25 0 -25 27l-6 86q-164 -129 -369 -129q-145 0 -221 69t-76 180z M254 248q0 -170 211 -170q180 0 342 129v299h-373q-180 0 -180 -174v-84z" />
<glyph unicode="b" horiz-adv-x="1128" d="M184 27v1464q0 27 27 27h59q27 0 27 -27v-537q168 133 375 133q150 0 223.5 -71.5t73.5 -194.5v-571q0 -125 -74 -195.5t-223 -70.5q-211 0 -379 131l-2 -88q0 -27 -27 -27h-53q-27 0 -27 27zM297 213q166 -129 348 -129q109 0 161 50t52 130v541q0 80 -52 129t-161 49 q-199 0 -348 -129v-641z" />
<glyph unicode="c" horiz-adv-x="1030" d="M158 250v569q0 127 87 197.5t296 70.5q207 0 293 -70.5t86 -197.5v-43q0 -25 -25 -24h-57q-27 0 -27 24v35q0 88 -59.5 134t-210.5 46q-150 0 -210.5 -46t-60.5 -134v-553q0 -88 60.5 -134t210.5 -46q152 0 211 46t59 134v53q0 25 27 25h57q25 0 25 -25v-61 q0 -129 -86 -197.5t-295 -68.5q-381 0 -381 266z" />
<glyph unicode="d" horiz-adv-x="1128" d="M158 250v571q0 123 73.5 194.5t225.5 71.5q201 0 374 -133v537q0 27 25 27h62q27 0 26 -27v-1464q0 -27 -26 -27h-54q-27 0 -26 27l-4 88q-168 -131 -377 -131q-152 0 -225.5 70.5t-73.5 195.5zM270 264q0 -80 52.5 -130t160.5 -50q174 0 348 129v641q-158 129 -348 129 q-109 0 -161 -49t-52 -129v-541z" />
<glyph unicode="e" horiz-adv-x="1062" d="M158 250v569q0 268 387 268q383 0 383 -268v-270q0 -23 -25 -23h-635v-270q0 -86 61.5 -133t215 -47t215 47t61.5 133v45q0 27 23 27h57q27 0 27 -27v-51q0 -266 -385 -266t-385 266zM268 612h553v203q0 178 -276.5 178t-276.5 -178v-203z" />
<glyph unicode="f" horiz-adv-x="679" d="M66 999v35q0 25 22 25l123 6h18v199q0 266 392 266h10q27 0 26 -25v-45q0 -27 -26 -26h-10q-152 0 -213.5 -47.5t-61.5 -133.5v-188h252q25 0 25 -23v-43q0 -27 -25 -26h-252v-946q0 -27 -27 -27h-63q-27 0 -27 27v946h-141q-22 -1 -22 26z" />
<glyph unicode="g" horiz-adv-x="1128" d="M158 250v571q0 123 73.5 194.5t225.5 71.5q207 0 377 -135l4 90q0 29 26 29h54q27 0 26 -29v-1224q0 -268 -389 -269h-293q-25 0 -24 25v45q0 27 24 27h293q276 0 276 180v287q-170 -129 -374 -129q-152 0 -225.5 70.5t-73.5 195.5zM270 264q0 -80 52.5 -130t160.5 -50 q174 0 348 129v641q-158 129 -348 129q-109 0 -161 -49t-52 -129v-541z" />
<glyph unicode="h" horiz-adv-x="1138" d="M184 27v1464q0 27 27 27h59q27 0 27 -27v-537q162 133 375 133q147 0 222 -70.5t75 -189.5v-800q0 -27 -25 -27h-63q-23 0 -23 27v778q0 180 -213 180q-199 0 -348 -129v-829q0 -27 -27 -27h-59q-27 0 -27 27z" />
<glyph unicode="i" horiz-adv-x="479" d="M184 27v1015q0 29 27 29h59q27 0 27 -29v-1015q0 -27 -27 -27h-59q-27 0 -27 27zM184 1286v205q0 27 27 27h59q27 0 27 -27v-205q0 -27 -27 -26h-59q-27 -1 -27 26z" />
<glyph unicode="j" horiz-adv-x="479" d="M-131 -381q0 27 27 27h12q276 0 276 180v1216q0 29 25 29h61q27 0 27 -29v-1224q0 -268 -389 -269h-12q-27 0 -27 25v45zM184 1286v205q0 27 25 27h61q27 0 27 -27v-205q0 -27 -27 -26h-61q-25 -1 -25 26z" />
<glyph unicode="k" horiz-adv-x="976" d="M184 27v1464q0 27 25 27h61q27 0 27 -27v-844h78l395 397q27 27 45 27h70q14 0 17 -8t-5 -19l-428 -436l483 -581q7 -7 7 -13q0 -3 -2 -6q-5 -8 -15 -8h-72q-27 0 -45 27l-448 530h-80v-530q0 -27 -27 -27h-61q-25 0 -25 27z" />
<glyph unicode="l" horiz-adv-x="479" d="M184 27v1464q0 27 27 27h59q27 0 27 -27v-1464q0 -27 -27 -27h-59q-27 0 -27 27z" />
<glyph unicode="m" horiz-adv-x="1785" d="M184 27v1017q0 27 27 27h53q27 0 27 -27l2 -90q156 133 364 133q213 0 279 -149q162 150 381 149q150 0 225.5 -70.5t75.5 -189.5v-800q0 -27 -27 -27h-61q-27 0 -27 27v778q0 180 -213 180q-182 0 -340 -131q4 -16 4 -49v-778q0 -27 -22 -27h-64q-25 0 -24 27v778 q0 180 -213 180q-190 0 -334 -129v-829q0 -27 -27 -27h-59q-27 0 -27 27z" />
<glyph unicode="n" horiz-adv-x="1138" d="M184 27v1017q0 27 27 27h53q27 0 27 -27l2 -92q164 135 379 135q147 0 222 -70.5t75 -189.5v-800q0 -27 -25 -27h-63q-23 0 -23 27v778q0 180 -213 180q-199 0 -348 -129v-829q0 -27 -27 -27h-59q-27 0 -27 27z" />
<glyph unicode="o" horiz-adv-x="1101" d="M158 250v569q0 268 393 268t393 -268v-569q0 -266 -393 -266t-393 266zM270 258q0 -180 280.5 -180t280.5 180v553q0 180 -280.5 180t-280.5 -180v-553z" />
<glyph unicode="p" horiz-adv-x="1128" d="M184 -426v1468q0 29 27 29h53q27 0 27 -29l2 -90q170 135 379 135q150 0 223.5 -71.5t73.5 -194.5v-571q0 -125 -74 -195.5t-223 -70.5q-209 0 -375 129v-539q0 -25 -27 -25h-59q-27 0 -27 25zM297 213q166 -129 348 -129q109 0 161 50t52 130v541q0 80 -52 129t-161 49 q-199 0 -348 -129v-641z" />
<glyph unicode="q" horiz-adv-x="1128" d="M158 250v571q0 123 73.5 194.5t225.5 71.5q207 0 377 -135l4 90q0 29 26 29h54q27 0 26 -29v-1468q0 -25 -26 -25h-62q-25 0 -25 25v539q-170 -129 -374 -129q-152 0 -225.5 70.5t-73.5 195.5zM270 264q0 -80 52.5 -130t160.5 -50q174 0 348 129v641q-158 129 -348 129 q-109 0 -161 -49t-52 -129v-541z" />
<glyph unicode="r" horiz-adv-x="731" d="M184 27v1017q0 27 27 27h53q27 0 27 -27l4 -116q176 158 367 157q29 0 28 -24v-51q0 -27 -28 -27q-109 -4 -208.5 -53t-156.5 -99v-804q0 -27 -27 -27h-59q-27 0 -27 27z" />
<glyph unicode="s" horiz-adv-x="1005" d="M131 217v62q0 23 23 22h59q20 0 20 -22v-58q0 -70 71 -110.5t206 -40.5q137 0 209 41t72 110v98q0 88 -138 132l-338 106q-66 23 -118 78t-52 129v88q0 102 89.5 168.5t277.5 66.5q186 0 276.5 -66.5t90.5 -168.5v-68q0 -25 -25 -24h-57q-25 0 -25 24v68q0 150 -262 149 q-258 0 -258 -149v-68q0 -51 37 -86.5t84 -48.5l340 -106q182 -59 182 -197v-129q0 -102 -97.5 -167.5t-288 -65.5t-284.5 64.5t-94 168.5z" />
<glyph unicode="t" horiz-adv-x="743" d="M63 999v35q0 23 25 25l117 6h20v235q0 29 27 29h63q23 0 23 -29v-235h256q27 0 27 -23v-43q0 -27 -27 -26h-256v-694q0 -88 62.5 -134.5t211.5 -46.5h35q27 0 27 -26v-45q0 -27 -27 -27h-47q-209 0 -292 67.5t-83 198.5v707h-137q-25 -1 -25 26z" />
<glyph unicode="u" d="M172 242v800q0 29 23 29h63q27 0 27 -29v-778q0 -180 213 -180q180 0 333 129v829q0 29 25 29h62q25 0 24 -29v-1015q0 -27 -24 -27h-56q-27 0 -26 27l-5 86q-152 -129 -362 -129q-145 0 -221 69.5t-76 188.5z" />
<glyph unicode="v" horiz-adv-x="913" d="M45 1044q-1 5 -1 10q0 18 22 17h67q23 0 31 -27l266 -784q4 -14 15.5 -60t13.5 -53q14 74 28 113l271 784q6 27 30 27h60q22 0 22 -17q0 -4 -2 -10l-352 -1019q-8 -25 -29 -25h-67q-20 0 -29 25z" />
<glyph unicode="w" horiz-adv-x="1386" d="M45 1044q-1 5 -1 9q0 18 24 18h63q20 0 27 -27l217 -806l20 -88l23 88l221 806q6 27 29 27h69q25 0 31 -27l211 -806q18 -80 20 -84q0 6 21 84l219 806q6 27 29 27h55q22 0 22 -17q0 -4 -2 -10l-284 -1019q-6 -25 -27 -25h-76q-18 0 -24 25l-213 794q-6 20 -23 99 l-24 -101l-226 -792q-6 -25 -26 -25h-72q-23 0 -29 25z" />
<glyph unicode="x" horiz-adv-x="999" d="M78 8q-2 3 -2 7q0 5 4 12l352 516l-344 501q-18 27 14 27h72q20 0 39 -27l291 -421l282 421q16 27 37 27h62q33 0 14 -27l-340 -503l354 -514q7 -10 7 -16q0 -11 -21 -11h-70q-23 0 -38 27l-304 434l-292 -434q-16 -27 -39 -27h-60q-14 0 -18 8z" />
<glyph unicode="y" horiz-adv-x="913" d="M45 1044q-1 5 -1 10q0 18 22 17h65q23 0 29 -27l268 -784q10 -33 31 -110q0 25 28 106l271 788q6 27 30 27h60q22 0 22 -17q0 -4 -2 -10l-501 -1470q-6 -25 -31 -25h-49q-27 0 -21 25l140 422z" />
<glyph unicode="z" horiz-adv-x="989" d="M111 27v43q0 12 6 22l579 883h-532q-27 0 -27 26v43q0 27 27 27h651q25 0 25 -27v-38q0 -16 -6 -25l-582 -885h590q27 0 26 -26v-43q0 -27 -26 -27h-705q-26 0 -26 27z" />
<glyph unicode="{" horiz-adv-x="968" d="M123 516v47q0 25 27 25h2q254 0 254 180v502q0 266 389 266h10q27 0 26 -25v-45q0 -27 -26 -26h-10q-150 0 -212.5 -47t-62.5 -133v-500q0 -180 -186 -221q186 -39 186 -220v-514q0 -88 62.5 -134t212.5 -46h10q27 0 26 -26v-45q0 -27 -26 -27h-10q-389 0 -389 266v518 q0 180 -254 181h-2q-27 -1 -27 24z" />
<glyph unicode="|" horiz-adv-x="530" d="M209 -432v1923q0 27 24 27h66q25 0 25 -27v-1923q0 -27 -25 -27h-66q-24 0 -24 27z" />
<glyph unicode="}" horiz-adv-x="968" d="M139 -401q0 27 27 26h10q150 0 211.5 46t61.5 134v514q0 182 188 220q-188 41 -188 221v500q0 86 -61.5 133t-211.5 47h-10q-27 0 -27 26v45q0 25 27 25h10q389 0 389 -266v-502q0 -180 254 -180h2q25 0 25 -25v-47q0 -25 -25 -24h-2q-254 0 -254 -181v-518 q0 -266 -389 -266h-10q-27 0 -27 27v45z" />
<glyph unicode="~" horiz-adv-x="1042" d="M184 504l2 45q8 184 144 184q41 0 106 -35l182 -98q61 -31 91 -31q41 0 53 24.5t12 92.5v19q0 25 29 24h35q23 0 22 -29l-2 -47q-10 -184 -139 -184q-51 0 -117 37l-184 102q-49 27 -80 27q-41 0 -55.5 -24.5t-14.5 -92.5v-20q0 -25 -26 -25h-35q-23 0 -23 31z" />
<glyph unicode="&#xa1;" horiz-adv-x="536" d="M209 223l10 479q0 27 27 27h45q25 0 24 -27l13 -479v-604q0 -25 -27 -25h-70q-23 0 -22 25v604zM211 877v167q0 27 22 27h66q27 0 27 -27v-167q0 -25 -27 -25h-66q-22 0 -22 25z" />
<glyph unicode="&#xa2;" horiz-adv-x="1138" d="M188 451v569q0 248 320 268v162q0 27 27 27h63q23 0 23 -27v-162q330 -16 329 -268v-41q0 -27 -24 -27h-58q-27 0 -26 27v35q0 86 -59.5 133t-211.5 47q-150 0 -210 -47t-60 -133v-553q0 -90 60.5 -135t209.5 -45q152 0 211.5 45t59.5 135v51q0 27 26 27h58q25 0 24 -27 v-61q0 -248 -329 -267v-157q0 -27 -23 -27h-63q-27 0 -27 27v159q-320 21 -320 265z" />
<glyph unicode="&#xa3;" horiz-adv-x="1421" d="M188 27v45q0 27 27 26h127v596h-127q-27 0 -27 27v45q0 25 27 25h127v411q0 143 87 217t325.5 74t326.5 -73.5t88 -217.5v-57q0 -27 -22 -27h-64q-25 0 -24 27v43q0 109 -62.5 158t-240.5 49q-176 0 -236.5 -49.5t-60.5 -157.5v-397h360q25 0 25 -25v-45q0 -27 -25 -27 h-360v-596h469q92 0 143 55.5t51 202.5v11q0 27 27 26h57q27 0 27 -26v-11q0 -205 -75 -280.5t-208 -75.5h-735q-27 0 -27 27z" />
<glyph unicode="&#xa4;" horiz-adv-x="1404" d="M190 594v29q0 27 27 26h113v180h-113q-27 0 -27 27v27q0 25 27 24h113v281q0 305 443.5 305t443.5 -305v-113q0 -29 -25 -28h-64q-27 0 -26 28v94q0 106 -75 166t-255 60t-254 -58.5t-74 -167.5v-262h373q25 0 25 -24v-27q0 -27 -25 -27h-373v-180h373q25 0 25 -26v-29 q0 -23 -25 -23h-373v-266q0 -109 74 -166t254 -57t255 59.5t75 163.5v125q0 25 26 25h64q25 0 25 -25v-141q0 -305 -443.5 -305t-443.5 305v282h-113q-27 0 -27 23z" />
<glyph unicode="&#xa5;" horiz-adv-x="1394" d="M195 1450q-4 8 -4 13q0 14 22 14h72q18 0 32 -27l351 -668q8 -14 18 -41.5t12 -29.5l33 71l356 668q14 27 33 27h64q24 0 23 -13q0 -6 -5 -14l-276 -520h174q27 0 26 -27v-29q0 -23 -26 -22h-217l-95 -180h312q27 0 26 -27v-29q0 -27 -26 -26h-342v-563q0 -27 -27 -27 h-65q-23 0 -23 27v563h-344q-25 0 -25 26v29q0 27 25 27h305l-94 180h-211q-25 0 -25 22v29q0 27 25 27h170z" />
<glyph unicode="&#xa6;" horiz-adv-x="479" d="M184 311q0 25 27 25h59q27 0 27 -25v-743q0 -27 -27 -27h-59q-27 0 -27 27v743zM184 709v741q0 27 27 27h59q27 0 27 -27v-741q0 -27 -27 -27h-59q-27 0 -27 27z" />
<glyph unicode="&#xa7;" horiz-adv-x="1187" d="M209 -168q0 27 24 27h56q27 0 26 -27v-35q0 -180 277.5 -180t277.5 180v189q0 98 -155 139l-297 86q-70 18 -131.5 77.5t-61.5 151.5v234q0 25 27 24h57q23 0 23 -24v-225q0 -61 45 -98.5t90 -51.5l305 -88q209 -63 209 -221v-183q0 -270 -387 -270q-207 0 -296 68.5 t-89 197.5v29zM209 1042v183q0 268 385 268q209 0 298 -68.5t89 -195.5v-31q0 -27 -27 -27h-53q-27 0 -27 27v35q0 86 -61 132t-214 46t-215 -46t-62 -132v-186q0 -100 155 -142l295 -84q70 -20 131.5 -78.5t61.5 -152.5v-234q0 -27 -27 -26h-55q-25 0 -25 26v226 q0 45 -27.5 78.5t-53 48t-54.5 20.5l-305 92q-209 61 -209 221z" />
<glyph unicode="&#xa8;" horiz-adv-x="667" d="M182 1286v211q0 27 27 27h39q27 0 26 -27v-211q0 -27 -26 -26h-39q-27 -1 -27 26zM395 1286v211q0 27 27 27h39q25 0 24 -27v-211q0 -27 -24 -26h-39q-27 -1 -27 26z" />
<glyph unicode="&#xa9;" horiz-adv-x="1548" d="M209 338v801q0 80 21.5 137t80 110.5t175 80t288.5 26.5t289 -26.5t175 -80t79.5 -110.5t21.5 -137v-801q0 -78 -21.5 -136.5t-79.5 -111.5t-175 -79.5t-289 -26.5t-288.5 26.5t-175 79.5t-80 111.5t-21.5 136.5zM297 326q0 -125 106.5 -195t370.5 -70t371.5 70 t107.5 195v827q0 123 -107.5 192.5t-371.5 69.5t-370.5 -69.5t-106.5 -194.5v-825zM477 541v393q0 129 63.5 195.5t233.5 66.5q174 0 236.5 -65.5t62.5 -196.5v-37q0 -27 -26 -27h-50q-27 0 -26 27v35q0 92 -39 137t-158 45t-155.5 -45t-36.5 -137v-389q0 -92 36.5 -136.5 t155.5 -44.5t158 44.5t39 136.5v51q0 27 26 27h50q27 0 26 -27v-53q0 -133 -62.5 -197.5t-236.5 -64.5q-170 0 -233.5 65.5t-63.5 196.5z" />
<glyph unicode="&#xaa;" horiz-adv-x="761" d="M141 983v66q0 68 43 109.5t127 41.5h224v129q0 98 -148 98q-150 0 -149 -96v-22q0 -16 -19 -17h-47q-18 0 -18 17v24q0 160 235 160q231 0 232 -162v-471q0 -20 -17 -20h-47q-14 0 -16 20l-4 47q-96 -78 -215 -78q-92 0 -136.5 42t-44.5 112zM227 991q0 -94 115 -94 q113 0 193 74v166h-209q-98 0 -99 -95v-51z" />
<glyph unicode="&#xab;" horiz-adv-x="1261" d="M186 502v61q0 18 25 35l403 305q5 4 12 4q3 0 6 -1q9 -3 9 -15v-72q0 -16 -27 -37l-333 -250l333 -247q27 -23 27 -41v-68q0 -12 -9 -16l-6 -2q-6 0 -12 6l-403 303q-25 15 -25 35zM623 502v61q0 18 24 35l404 305q5 4 11 4q3 0 6 -1q9 -3 9 -15v-72q0 -16 -26 -37 l-334 -250l334 -247q27 -23 26 -41v-68q0 -12 -9 -16l-6 -2q-6 0 -11 6l-404 303q-24 15 -24 35z" />
<glyph unicode="&#xac;" horiz-adv-x="808" d="M168 680q0 96 67.5 165.5t165.5 69.5q100 0 170 -69.5t70 -165.5q0 -100 -69.5 -169t-170.5 -69q-98 0 -165.5 69t-67.5 169z" />
<glyph unicode="&#xad;" horiz-adv-x="1001" d="M184 606v45q0 25 27 25h582q27 0 26 -25v-45q0 -27 -26 -26h-582q-27 -1 -27 26z" />
<glyph unicode="&#xae;" horiz-adv-x="1335" d="M209 827v383q0 283 463 283q457 0 456 -283v-383q0 -283 -456 -282q-463 -1 -463 282zM291 821q0 -203 381 -203q377 0 377 201v400q0 199 -377 198q-381 0 -381 -198v-398zM469 743v535q0 20 16 20h207q207 0 207 -153v-53q0 -109 -111 -144l89 -205q8 -20 -17 -20h-51 q-10 0 -18 20l-82 195h-17h-141v-195q0 -20 -16 -20h-50q-16 0 -16 20zM551 1004h133q66 0 99.5 26.5t33.5 65.5v43q0 41 -32.5 67.5t-100.5 26.5h-133v-229z" />
<glyph unicode="&#xaf;" horiz-adv-x="909" d="M150 1337v39q0 27 26 27h557q27 0 27 -27v-39q0 -27 -27 -26h-557q-26 -1 -26 26z" />
<glyph unicode="&#xb0;" horiz-adv-x="860" d="M145 1083v211q0 94 65.5 144.5t221.5 50.5t220.5 -50t64.5 -145v-211q0 -195 -285 -194q-156 0 -221.5 50t-65.5 144zM244 1087q0 -119 188 -118q186 0 186 118v205q0 119 -186 119q-188 0 -188 -119v-205z" />
<glyph unicode="&#xb1;" horiz-adv-x="1267" d="M184 260v45q0 27 27 27h848q25 0 24 -27v-45q0 -27 -24 -27h-848q-27 0 -27 27zM184 803v45q0 25 27 24h373v285q0 27 24 27h45q27 0 27 -27v-285h379q25 0 24 -24v-45q0 -27 -24 -27h-379v-282q0 -29 -27 -29h-45q-25 0 -24 29v282h-373q-27 0 -27 27z" />
<glyph unicode="&#xb2;" horiz-adv-x="802" d="M137 1231v74q0 188 262 188q264 0 265 -188v-148q0 -117 -115 -156l-227 -73q-82 -29 -82 -76v-178h409q18 0 19 -21v-37q0 -18 -19 -18h-481q-18 0 -18 18v248q0 37 21.5 64.5t38.5 36t48 18.5l240 78q78 27 77 92v139q0 127 -176 127q-98 0 -136 -32.5t-38 -94.5v-61 q0 -20 -18 -21h-53q-17 1 -17 21z" />
<glyph unicode="&#xb3;" horiz-adv-x="800" d="M137 774v27q0 18 17 18h53q18 0 18 -18v-15q0 -125 176 -124q174 0 174 124v123q0 63 -35.5 93t-133.5 30h-117q-20 0 -21 19v34q0 20 21 21h106q100 0 136 28.5t36 92.5v71q0 61 -36.5 92t-131.5 31q-96 0 -133 -30.5t-37 -92.5v-16q0 -16 -16 -16h-53q-18 0 -19 16v27 q0 90 56.5 138t203.5 48q143 0 199.5 -48t56.5 -136v-94q0 -61 -23.5 -96.5t-88.5 -49.5q119 -29 119 -153v-146q0 -184 -263 -184q-264 0 -264 186z" />
<glyph unicode="&#xb4;" horiz-adv-x="729" d="M229 1262l158 254q14 20 35 20h70q17 0 17 -10q0 -6 -5 -15l-176 -258q-10 -16 -31 -16h-53q-18 0 -19 11q0 6 4 14z" />
<glyph unicode="&#xb5;" d="M172 -424v1466q0 29 23 29h63q27 0 27 -29v-778q0 -180 213 -180q180 0 333 129v829q0 29 25 29h62q25 0 24 -29v-1015q0 -27 -24 -27h-56q-25 0 -26 27l-5 86q-152 -129 -362 -129q-133 0 -193 69l9 -477q0 -27 -27 -27h-63q-23 0 -23 27z" />
<glyph unicode="&#xb6;" horiz-adv-x="1368" d="M209 897v295q0 137 93 211t325 74h202q25 0 25 -25v-1876q0 -27 -25 -27h-65q-27 0 -27 27v1036h-110q-231 0 -324.5 74t-93.5 211zM1047 -424v1874q0 27 26 27h64q25 0 24 -27v-1874q0 -27 -24 -27h-64q-26 0 -26 27z" />
<glyph unicode="&#xb7;" horiz-adv-x="460" d="M174 483v168q0 27 27 27h61q27 0 27 -27v-168q0 -25 -27 -24h-61q-27 -1 -27 24z" />
<glyph unicode="&#xb8;" horiz-adv-x="354" d="M-20 -408q0 25 26 25h244q104 0 104 96q0 94 -104 94h-129q-20 0 -29.5 8.5t-5.5 24.5l49 168q8 23 26 23h3l31 -4q25 -4 16 -33l-33 -111h84q74 0 126 -40t52 -129t-52 -131t-126 -42h-256q-27 0 -26 27v24z" />
<glyph unicode="&#xb9;" horiz-adv-x="815" d="M137 623v34q0 20 19 21h206v721l-206 -49q-18 -4 -19 14v39q0 16 19 20l280 68q2 1 4 1l9 -3q6 -4 6 -14v-797h207q18 0 18 -21v-34q0 -18 -18 -19h-506q-19 1 -19 19z" />
<glyph unicode="&#xba;" horiz-adv-x="768" d="M139 993v336q0 164 245 164t245 -164v-336q0 -164 -245 -164t-245 164zM227 1004q0 -102 157 -102.5t157 102.5v319q0 100 -157 100t-157 -100v-319z" />
<glyph unicode="&#xbb;" horiz-adv-x="1259" d="M186 190v72q0 16 27 37l334 250l-334 248q-27 23 -27 41v67q0 12 10 17q3 1 6 1q6 0 11 -5l403 -304q25 -14 25 -34v-62q0 -18 -25 -35l-403 -305q-5 -4 -11 -4q-3 0 -6 1q-10 3 -10 15zM621 190v72q0 16 26 37l334 250l-334 248q-27 23 -26 41v67q0 12 9 17q3 1 6 1 q6 0 11 -5l404 -304q25 -14 24 -34v-62q0 -18 -24 -35l-404 -305q-5 -4 -11 -4q-3 0 -6 1q-9 3 -9 15z" />
<glyph unicode="&#xbc;" horiz-adv-x="1777" d="M137 623v34q0 20 19 21h206v723l-206 -51q-18 -4 -19 14v39q0 16 19 20l280 68q6 2 12.5 -2t6.5 -14v-797h207q18 0 18 -21v-34q0 -18 -18 -19h-506q-19 1 -19 19zM668 -86l438 1649q6 20 22 20h58q18 0 12 -20l-438 -1649q-6 -20 -21 -20h-55q-18 0 -18 12zM1106 301v31 q0 10 4 20l184 514q6 18 23 19h55q23 0 12 -19l-182 -508h348v508q0 18 19 19h53q18 0 18 -19v-846q0 -20 -18 -20h-53q-18 0 -19 20v265h-424q-20 0 -20 16z" />
<glyph unicode="&#xbd;" horiz-adv-x="1818" d="M137 623v34q0 20 19 21h206v727l-206 -55q-18 -4 -19 14v39q0 16 19 20l280 68q6 2 12.5 -2t6.5 -14v-797h207q18 0 18 -21v-34q0 -18 -18 -19h-506q-19 1 -19 19zM655 -86l437 1649q6 20 24 20h55q18 0 13 -20l-436 -1649q-8 -20 -23 -20h-53q-18 0 -18 12q0 4 1 8z M1151 635v74q0 188 262 188q266 0 266 -188v-150q0 -119 -116 -156l-228 -73q-82 -27 -82 -76v-178h412q18 0 18 -19v-37q0 -20 -18 -20h-483q-16 0 -17 20v246q0 88 107 121l241 78q78 27 78 90v139q0 129 -178 129q-96 0 -135 -32.5t-39 -96.5v-59q0 -20 -16 -21h-54 q-18 1 -18 21z" />
<glyph unicode="&#xbe;" horiz-adv-x="1775" d="M137 772v27q0 18 17 18h53q18 0 18 -18v-15q0 -125 176 -125q174 0 174 125v123q0 63 -35.5 92t-133.5 29h-117q-20 0 -21 21v34q0 18 21 19h106q100 0 136 29.5t36 93.5v71q0 59 -36.5 91t-131.5 32q-96 0 -133 -31.5t-37 -91.5v-16q0 -16 -16 -16h-53q-18 0 -19 16v27 q0 90 56.5 138t203.5 48q143 0 199.5 -48t56.5 -136v-95q0 -61 -23.5 -96t-88.5 -49q119 -29 119 -154v-145q0 -184 -263 -184q-264 0 -264 186zM672 -86l436 1649q6 20 22 20h58q16 0 10 -20l-436 -1649q-6 -20 -23 -20h-53q-17 0 -16 11q0 4 2 9zM1102 301v31q0 10 6 20 l184 514q6 18 23 19h55q20 0 12 -19l-182 -508h348v508q0 18 19 19h53q18 0 18 -19v-846q0 -20 -18 -20h-53q-18 0 -19 20v265h-424q-22 0 -22 16z" />
<glyph unicode="&#xbf;" horiz-adv-x="1232" d="M178 66q0 180 174 266l113 57q113 55 113 162v151q0 27 26 27h64q27 0 26 -27v-174q0 -137 -145 -211l-139 -69q-117 -63 -117 -178v-172q0 -109 73.5 -166.5t252 -57.5t251 57.5t72.5 166.5v106q0 29 27 29h59q27 0 27 -29v-121q0 -307 -437 -307q-440 0 -440 307v183z M578 877v167q0 27 26 27h64q27 0 26 -27v-167q0 -25 -26 -25h-64q-26 0 -26 25z" />
<glyph unicode="&#xc0;" d="M57 27l441 1423q6 27 32 27h68q25 0 31 -27l442 -1423q3 -7 3 -12q0 -15 -23 -15h-68q-23 0 -31 27l-131 419h-524l-127 -419q-6 -27 -31 -27h-63q-21 0 -21 14q-1 6 2 13zM326 541h469l-181 581q-37 121 -55 228q-23 -129 -49 -224zM328 1880q-6 10 -7 16q0 10 17 11h70 q20 0 34 -25l158 -252q6 -10 6 -16q0 -11 -18 -10h-53q-20 0 -31 18z" />
<glyph unicode="&#xc1;" d="M57 27l441 1423q6 27 32 27h68q25 0 31 -27l442 -1423q3 -7 3 -12q0 -15 -23 -15h-68q-23 0 -31 27l-131 419h-524l-127 -419q-6 -27 -31 -27h-63q-21 0 -21 14q-1 6 2 13zM326 541h469l-181 581q-37 121 -55 228q-23 -129 -49 -224zM522 1630l160 254q14 23 33 23h69 q20 0 21 -10q0 -6 -8 -17l-176 -258q-10 -16 -31 -16h-53q-20 0 -20 10q-1 5 5 14z" />
<glyph unicode="&#xc2;" d="M57 27l441 1423q6 27 32 27h68q25 0 31 -27l442 -1423q3 -7 3 -12q0 -15 -23 -15h-68q-23 0 -31 27l-131 419h-524l-127 -419q-6 -27 -31 -27h-63q-21 0 -21 14q-1 6 2 13zM326 541h469l-181 581q-37 121 -55 228q-23 -129 -49 -224zM332 1632l170 248q18 27 39 27h43 q25 0 39 -25l172 -250q8 -10 8 -16q0 -10 -21 -10h-53q-14 0 -35 26l-131 201l-131 -201q-14 -27 -37 -26h-49q-21 0 -21 11q0 5 7 15z" />
<glyph unicode="&#xc3;" d="M57 27l441 1423q6 27 32 27h68q25 0 31 -27l442 -1423q3 -7 3 -12q0 -15 -23 -15h-68q-23 0 -31 27l-131 419h-524l-127 -419q-6 -27 -31 -27h-63q-21 0 -21 14q-1 6 2 13zM266 1667l2 43q10 176 146 176q63 0 114 -41l99 -80q47 -37 78 -36q43 0 55 23.5t12 92.5v21 q0 23 29 22h35q25 0 24 -28l-2 -43q-10 -178 -147 -179q-57 0 -113 45l-98 78q-51 37 -78 37q-41 0 -54.5 -23.5t-13.5 -95.5v-18q0 -25 -28 -25h-37q-23 0 -23 31zM326 541h469l-181 581q-37 121 -55 228q-23 -129 -49 -224z" />
<glyph unicode="&#xc4;" d="M57 27l441 1423q6 27 32 27h68q25 0 31 -27l442 -1423q3 -7 3 -12q0 -15 -23 -15h-68q-23 0 -31 27l-131 419h-524l-127 -419q-6 -27 -31 -27h-63q-21 0 -21 14q-1 6 2 13zM326 541h469l-181 581q-37 121 -55 228q-23 -129 -49 -224zM412 1649v211q0 27 26 26h39 q25 0 25 -26v-211q0 -27 -25 -27h-39q-26 0 -26 27zM625 1649v211q0 27 26 26h39q25 0 25 -26v-211q0 -27 -25 -27h-39q-26 0 -26 27z" />
<glyph unicode="&#xc5;" d="M57 27l441 1423q6 27 32 27h68q25 0 31 -27l442 -1423q3 -7 3 -12q0 -15 -23 -15h-68q-23 0 -31 27l-131 419h-524l-127 -419q-6 -27 -31 -27h-63q-21 0 -21 14q-1 6 2 13zM326 541h469l-181 581q-37 121 -55 228q-23 -129 -49 -224zM365 1729v32q0 158 198 158 q100 0 149.5 -43t49.5 -115v-32q0 -72 -49 -116t-150 -44q-198 0 -198 160zM438 1737q0 -102 125 -102.5t125 102.5v14q0 102 -125 102t-125 -102v-14z" />
<glyph unicode="&#xc6;" horiz-adv-x="1822" d="M59 27l826 1423q16 27 37 27h733q25 0 24 -25v-47q0 -25 -24 -25h-651v-555h612q25 0 24 -26v-43q0 -27 -24 -27h-612v-631h675q27 0 27 -26v-45q0 -27 -27 -27h-751q-35 0 -35 27v419h-481l-240 -419q-18 -27 -31 -27h-61q-26 0 -26 13q0 6 5 14zM469 541h424v739 l-72 -129z" />
<glyph unicode="&#xc7;" horiz-adv-x="1185" d="M184 289v899q0 305 443.5 305t443.5 -305v-113q0 -29 -24 -28h-64q-27 0 -27 28v94q0 106 -74.5 166t-255 60t-254 -58.5t-73.5 -167.5v-864q0 -109 73.5 -166t254 -57t255 59.5t74.5 163.5v125q0 25 27 25h64q25 0 24 -25v-141q0 -305 -444 -305h-11l-28 -101h86 q74 0 126 -40t52 -129t-52 -131t-126 -42h-256q-27 0 -27 27v24q0 25 27 25h241q104 0 105 96q0 94 -105 94h-127q-23 0 -30.5 8.5t-3.5 24.5l41 148q-355 22 -355 301z" />
<glyph unicode="&#xc8;" horiz-adv-x="1142" d="M209 27v1423q0 27 24 27h742q27 0 26 -27v-47q0 -27 -26 -27h-651v-551h612q27 0 27 -26v-45q0 -27 -27 -27h-612v-627h677q25 0 25 -26v-47q0 -27 -25 -27h-770q-22 0 -22 27zM414 1880q-6 10 -6 16q0 11 18 11h70q18 0 34 -25l156 -252q6 -10 6 -16q0 -10 -16 -10h-55 q-18 0 -31 18z" />
<glyph unicode="&#xc9;" horiz-adv-x="1142" d="M209 27v1423q0 27 24 27h742q27 0 26 -27v-47q0 -27 -26 -27h-651v-551h612q27 0 27 -26v-45q0 -27 -27 -27h-612v-627h677q25 0 25 -26v-47q0 -27 -25 -27h-770q-22 0 -22 27zM543 1630l157 254q16 23 33 23h70q21 0 21 -11q0 -6 -7 -16l-176 -258q-12 -16 -31 -16h-55 q-18 0 -18 10q0 5 6 14z" />
<glyph unicode="&#xca;" horiz-adv-x="1142" d="M209 27v1423q0 27 24 27h742q27 0 26 -27v-47q0 -27 -26 -27h-651v-551h612q27 0 27 -26v-45q0 -27 -27 -27h-612v-627h677q25 0 25 -26v-47q0 -27 -25 -27h-770q-22 0 -22 27zM340 1632l170 248q20 27 39 27h43q25 0 39 -25l172 -250q8 -10 8 -16q0 -10 -20 -10h-54 q-14 0 -35 26l-131 201l-131 -201q-14 -27 -37 -26h-49q-21 0 -21 11q0 5 7 15z" />
<glyph unicode="&#xcb;" horiz-adv-x="1142" d="M209 27v1423q0 27 24 27h742q27 0 26 -27v-47q0 -27 -26 -27h-651v-551h612q27 0 27 -26v-45q0 -27 -27 -27h-612v-627h677q25 0 25 -26v-47q0 -27 -25 -27h-770q-22 0 -22 27zM459 1649v211q0 27 24 26h39q25 0 25 -26v-211q0 -27 -25 -27h-39q-24 0 -24 27zM672 1649 v211q0 27 24 26h39q25 0 25 -26v-211q0 -27 -25 -27h-39q-24 0 -24 27z" />
<glyph unicode="&#xcc;" horiz-adv-x="530" d="M33 1880q-7 10 -7 17q0 10 17 10h70q20 0 34 -25l156 -252q18 -27 -10 -26h-53q-20 0 -31 18zM209 27v1423q0 27 24 27h66q25 0 25 -27v-1423q0 -27 -25 -27h-66q-24 0 -24 27z" />
<glyph unicode="&#xcd;" horiz-adv-x="530" d="M209 27v1423q0 27 24 27h66q25 0 25 -27v-1423q0 -27 -25 -27h-66q-24 0 -24 27zM221 1630l160 254q14 23 31 23h69q21 0 21 -11q0 -6 -6 -16l-177 -258q-10 -16 -30 -16h-56q-18 0 -18 10q0 5 6 14z" />
<glyph unicode="&#xce;" horiz-adv-x="530" d="M35 1632l170 248q18 27 39 27h43q25 0 39 -25l172 -250q7 -10 6 -15q0 -11 -21 -11h-51q-14 0 -35 26l-133 201l-129 -201q-16 -27 -37 -26h-51q-20 0 -20 10q0 6 8 16zM209 27v1423q0 27 24 27h66q25 0 25 -27v-1423q0 -27 -25 -27h-66q-24 0 -24 27z" />
<glyph unicode="&#xcf;" horiz-adv-x="530" d="M115 1649v211q0 27 26 26h39q25 0 25 -26v-211q0 -27 -25 -27h-39q-26 0 -26 27zM209 27v1423q0 27 24 27h66q25 0 25 -27v-1423q0 -27 -25 -27h-66q-24 0 -24 27zM328 1649v211q0 27 26 26h39q25 0 25 -26v-211q0 -27 -25 -27h-39q-26 0 -26 27z" />
<glyph unicode="&#xd0;" horiz-adv-x="1298" d="M27 729v39q0 25 24 25h158v657q0 27 22 27h431q455 0 454 -308v-864q0 -305 -454 -305h-431q-23 0 -22 27v675h-158q-24 0 -24 27zM324 100h338q340 0 339 224v829q0 223 -339 223h-338v-583h311q25 0 24 -25v-39q0 -27 -24 -27h-311v-602z" />
<glyph unicode="&#xd1;" horiz-adv-x="1320" d="M209 27v1423q0 27 24 27h60q16 0 22 -11l627 -1114l64 -125v1223q0 27 26 27h58q25 0 24 -27v-1423q0 -27 -24 -27h-58q-18 0 -24 12l-621 1106q-61 92 -70 127v-1218q0 -27 -24 -27h-60q-24 0 -24 27zM365 1667l2 43q8 176 145 176q63 0 113 -41l100 -80q45 -37 78 -36 q41 0 54 23.5t13 92.5v21q0 23 29 22h35q23 0 22 -28l-2 -43q-8 -178 -147 -179q-55 0 -113 45l-96 78q-51 37 -80 37q-41 0 -54 -23.5t-13 -95.5v-18q0 -25 -27 -25h-37q-22 0 -22 31z" />
<glyph unicode="&#xd2;" horiz-adv-x="1273" d="M184 289v899q0 305 453 305q455 0 455 -305v-899q0 -305 -455 -305q-453 0 -453 305zM299 305q0 -223 338 -223t338 223v864q0 225 -338 225.5t-338 -225.5v-864zM403 1880q-6 10 -6 16q0 10 17 11h69q20 0 35 -25l158 -252q5 -9 5 -15q0 -11 -17 -11h-54q-20 0 -30 18z " />
<glyph unicode="&#xd3;" horiz-adv-x="1273" d="M184 289v899q0 305 453 305q455 0 455 -305v-899q0 -305 -455 -305q-453 0 -453 305zM299 305q0 -223 338 -223t338 223v864q0 225 -338 225.5t-338 -225.5v-864zM575 1630l158 254q16 23 33 23h70q20 0 20 -10q0 -6 -8 -17l-174 -258q-12 -16 -31 -16h-55q-19 0 -19 9 q-1 6 6 15z" />
<glyph unicode="&#xd4;" horiz-adv-x="1273" d="M184 289v899q0 305 453 305q455 0 455 -305v-899q0 -305 -455 -305q-453 0 -453 305zM299 305q0 -223 338 -223t338 223v864q0 225 -338 225.5t-338 -225.5v-864zM406 1632l169 248q18 27 39 27h43q25 0 39 -25l172 -250q8 -10 8 -16q0 -10 -20 -10h-53q-14 0 -35 26 l-131 201l-131 -201q-14 -27 -37 -26h-49q-21 0 -21 11q0 5 7 15z" />
<glyph unicode="&#xd5;" horiz-adv-x="1273" d="M184 289v899q0 305 453 305q455 0 455 -305v-899q0 -305 -455 -305q-453 0 -453 305zM299 305q0 -223 338 -223t338 223v864q0 225 -338 225.5t-338 -225.5v-864zM340 1667l2 43q10 176 145 176q63 0 115 -41l98 -80q47 -37 80 -36q41 0 53.5 23.5t12.5 92.5v21 q0 23 28 22h35q25 0 25 -28l-2 -43q-10 -178 -148 -179q-57 0 -112 45l-99 78q-51 37 -77 37q-41 0 -54.5 -23.5t-13.5 -95.5v-18q0 -25 -29 -25h-37q-22 0 -22 31z" />
<glyph unicode="&#xd6;" horiz-adv-x="1273" d="M184 289v899q0 305 453 305q455 0 455 -305v-899q0 -305 -455 -305q-453 0 -453 305zM299 305q0 -223 338 -223t338 223v864q0 225 -338 225.5t-338 -225.5v-864zM485 1649v211q0 27 27 26h39q25 0 24 -26v-211q0 -27 -24 -27h-39q-27 0 -27 27zM698 1649v211q0 27 27 26 h39q25 0 24 -26v-211q0 -27 -24 -27h-39q-27 0 -27 27z" />
<glyph unicode="&#xd7;" horiz-adv-x="1181" d="M190 532q-3 8 -3 14q0 13 14 21l325 187l-190 325q-12 20 10 35l39 23q8 6 15 6q11 0 20 -17l188 -325l328 188q25 14 35 -8l20 -39q5 -8 6 -15q0 -12 -16 -22l-326 -188l187 -324q16 -25 -8 -37l-39 -22q-8 -5 -16 -5q-12 0 -19 13l-187 326l-325 -187q-27 -12 -37 13z " />
<glyph unicode="&#xd8;" horiz-adv-x="1273" d="M184 1186q0 307 453 307q188 0 305 -55l29 57q20 37 41 37h24q27 0 8 -37l-47 -94q94 -74 95 -215v-897q0 -305 -455 -305q-201 0 -307 55l-29 -59q-18 -37 -41 -37h-22q-29 0 -11 37l47 96q-90 74 -90 213v897zM299 303q0 -70 31 -115l563 1147q-88 59 -256 60 q-338 0 -338 -226v-866zM381 139q82 -59 256 -59q338 0 338 223v866q0 66 -33 119z" />
<glyph unicode="&#xd9;" horiz-adv-x="1298" d="M195 289v1161q0 27 26 27h66q25 0 24 -27v-1145q0 -223 338 -223t338 223v1145q0 27 27 27h65q23 0 23 -27v-1161q0 -305 -453.5 -305t-453.5 305zM426 1880q-7 10 -7 17q0 10 17 10h70q20 0 35 -25l155 -252q6 -10 7 -16q0 -10 -17 -10h-55q-18 0 -29 18z" />
<glyph unicode="&#xda;" horiz-adv-x="1298" d="M195 289v1161q0 27 26 27h66q25 0 24 -27v-1145q0 -223 338 -223t338 223v1145q0 27 27 27h65q23 0 23 -27v-1161q0 -305 -453.5 -305t-453.5 305zM600 1630l158 254q14 23 33 23h69q20 0 20 -10q0 -6 -8 -17l-176 -258q-10 -16 -30 -16h-54q-19 0 -19 9q0 6 7 15z" />
<glyph unicode="&#xdb;" horiz-adv-x="1298" d="M195 289v1161q0 27 26 27h66q25 0 24 -27v-1145q0 -223 338 -223t338 223v1145q0 27 27 27h65q23 0 23 -27v-1161q0 -305 -453.5 -305t-453.5 305zM420 1632l168 248q20 27 39 27h45q23 0 39 -25l170 -250q8 -10 8 -16q0 -10 -21 -10h-51q-16 0 -35 26l-133 201 l-131 -201q-14 -27 -37 -26h-49q-20 0 -20 10q0 6 8 16z" />
<glyph unicode="&#xdc;" horiz-adv-x="1298" d="M195 289v1161q0 27 26 27h66q25 0 24 -27v-1145q0 -223 338 -223t338 223v1145q0 27 27 27h65q23 0 23 -27v-1161q0 -305 -453.5 -305t-453.5 305zM500 1649v211q0 27 26 26h39q23 0 23 -26v-211q0 -27 -23 -27h-39q-26 0 -26 27zM713 1649v211q0 27 24 26h39 q25 0 25 -26v-211q0 -27 -25 -27h-39q-24 0 -24 27z" />
<glyph unicode="&#xdd;" horiz-adv-x="1103" d="M49 1450q-4 8 -3 13q0 14 22 14h71q18 0 33 -27l350 -668q20 -39 31 -71q0 6 33 71l356 668q14 27 33 27h63q24 0 24 -13q0 -6 -5 -14l-445 -838v-585q0 -27 -26 -27h-66q-23 0 -22 27v573zM520 1630l160 254q14 23 33 23h69q20 0 21 -10q0 -6 -8 -17l-177 -258 q-10 -16 -30 -16h-53q-20 0 -21 10q0 5 6 14z" />
<glyph unicode="&#xde;" horiz-adv-x="1220" d="M209 27v1423q0 27 24 27h66q25 0 25 -27v-379h331q455 0 455 -307v-232q0 -307 -455 -307h-331v-198q0 -27 -25 -27h-66q-24 0 -24 27zM324 324h331q338 0 338 225v199q0 225 -338 225h-331v-649z" />
<glyph unicode="&#xdf;" horiz-adv-x="1284" d="M66 999v35q0 25 22 25l123 6h18v205q0 266 408 266q403 0 403 -266v-82q0 -80 -53 -124t-117 -60l-137 -37q-125 -35 -125 -109v-14q0 -88 129 -135l260 -97q201 -74 201 -213v-151q0 -129 -77 -196.5t-277 -67.5q-197 0 -269.5 65.5t-72.5 196.5v24q0 27 26 27h43 q27 0 27 -27v-28q0 -88 51 -133.5t194.5 -45.5t197 45.5t53.5 133.5v139q0 88 -150 139l-252 94q-184 68 -184 220v28q0 129 172 176l121 33q133 37 133 131v60q0 184 -293 184q-295 0 -295 -184v-1235q0 -27 -27 -27h-63q-27 0 -27 27v946h-141q-22 -1 -22 26z" />
<glyph unicode="&#xe0;" horiz-adv-x="1089" d="M143 233v113q0 111 71 181.5t200 70.5h393v213q0 88 -59.5 135t-209 47t-210 -46t-60.5 -132v-33q0 -27 -24 -26h-58q-23 0 -22 26v39q0 266 377 266q207 0 292 -69.5t85 -196.5v-794q0 -27 -23 -27h-55q-25 0 -25 27l-6 86q-164 -129 -369 -129q-145 0 -221 69t-76 180z M254 248q0 -170 211 -170q180 0 342 129v299h-373q-180 0 -180 -174v-84zM358 1511q-8 9 -7 16q0 9 20 9h69q20 0 35 -20l156 -254q6 -9 6 -16q0 -9 -16 -9h-54q-25 0 -32 16z" />
<glyph unicode="&#xe1;" horiz-adv-x="1089" d="M143 233v113q0 111 71 181.5t200 70.5h393v213q0 88 -59.5 135t-209 47t-210 -46t-60.5 -132v-33q0 -27 -24 -26h-58q-23 0 -22 26v39q0 266 377 266q207 0 292 -69.5t85 -196.5v-794q0 -27 -23 -27h-55q-25 0 -25 27l-6 86q-164 -129 -369 -129q-145 0 -221 69t-76 180z M254 248q0 -170 211 -170q180 0 342 129v299h-373q-180 0 -180 -174v-84zM455 1262l155 254q14 20 35 20h70q18 0 18 -10q0 -6 -6 -15l-176 -258q-10 -16 -31 -16h-53q-16 0 -16 11q0 6 4 14z" />
<glyph unicode="&#xe2;" horiz-adv-x="1089" d="M143 233v113q0 111 71 181.5t200 70.5h393v213q0 88 -59.5 135t-209 47t-210 -46t-60.5 -132v-33q0 -27 -24 -26h-58q-23 0 -22 26v39q0 266 377 266q207 0 292 -69.5t85 -196.5v-794q0 -27 -23 -27h-55q-25 0 -25 27l-6 86q-164 -129 -369 -129q-145 0 -221 69t-76 180z M254 248q0 -170 211 -170q180 0 342 129v299h-373q-180 0 -180 -174v-84zM313 1264l168 247q20 25 39 25h45q25 0 41 -23l168 -249q8 -10 8 -17q0 -10 -20 -10h-49q-18 0 -37 27l-131 198l-133 -198q-14 -27 -35 -27h-51q-20 0 -21 10q0 7 8 17z" />
<glyph unicode="&#xe3;" horiz-adv-x="1089" d="M143 233v113q0 111 71 181.5t200 70.5h393v213q0 88 -59.5 135t-209 47t-210 -46t-60.5 -132v-33q0 -27 -24 -26h-58q-23 0 -22 26v39q0 266 377 266q207 0 292 -69.5t85 -196.5v-794q0 -27 -23 -27h-55q-25 0 -25 27l-6 86q-164 -129 -369 -129q-145 0 -221 69t-76 180z M248 1288l2 43q8 178 145 178q59 0 113 -43l100 -82q45 -37 78 -36q41 0 54.5 24.5t13.5 93.5v19q0 25 28 24h35q23 0 23 -28l-2 -43q-8 -178 -146 -178q-61 0 -112 43l-101 77q-47 39 -78 39q-41 0 -54 -23.5t-13 -95.5v-18q0 -23 -29 -22h-35q-22 -1 -22 28zM254 248 q0 -170 211 -170q180 0 342 129v299h-373q-180 0 -180 -174v-84z" />
<glyph unicode="&#xe4;" horiz-adv-x="1089" d="M143 233v113q0 111 71 181.5t200 70.5h393v213q0 88 -59.5 135t-209 47t-210 -46t-60.5 -132v-33q0 -27 -24 -26h-58q-23 0 -22 26v39q0 266 377 266q207 0 292 -69.5t85 -196.5v-794q0 -27 -23 -27h-55q-25 0 -25 27l-6 86q-164 -129 -369 -129q-145 0 -221 69t-76 180z M254 248q0 -170 211 -170q180 0 342 129v299h-373q-180 0 -180 -174v-84zM391 1286v211q0 27 27 27h39q25 0 24 -27v-211q0 -27 -24 -26h-39q-27 -1 -27 26zM604 1286v211q0 27 25 27h39q27 0 26 -27v-211q0 -27 -26 -26h-39q-25 -1 -25 26z" />
<glyph unicode="&#xe5;" horiz-adv-x="1089" d="M143 233v113q0 111 71 181.5t200 70.5h393v213q0 88 -59.5 135t-209 47t-210 -46t-60.5 -132v-33q0 -27 -24 -26h-58q-23 0 -22 26v39q0 266 377 266q207 0 292 -69.5t85 -196.5v-794q0 -27 -23 -27h-55q-25 0 -25 27l-6 86q-164 -129 -369 -129q-145 0 -221 69t-76 180z M254 248q0 -170 211 -170q180 0 342 129v299h-373q-180 0 -180 -174v-84zM352 1362v41q0 154 195.5 153.5t195.5 -153.5v-41q0 -156 -195.5 -156t-195.5 156zM424 1372q0 -100 123 -100q127 0 127 100v19q0 100 -127 100q-123 0 -123 -100v-19z" />
<glyph unicode="&#xe6;" horiz-adv-x="1712" d="M143 233v93q0 111 71 181.5t200 70.5h393v253q0 170 -268 170q-150 0 -210.5 -47t-60.5 -133v-39q0 -27 -24 -26h-58q-27 0 -26 26v41q0 125 87 194.5t294 69.5q256 0 321 -133q74 133 332 133q383 0 383 -266v-268q0 -23 -25 -23h-634v-282q0 -88 62 -132t214 -44 q276 0 276 182v47q0 25 23 25h55q25 0 25 -25v-51q0 -266 -379 -266q-303 0 -363 155q-186 -156 -391 -155q-150 0 -223.5 68t-73.5 181zM254 248q0 -78 54.5 -126t156.5 -48q172 0 342 149v273h-377q-88 0 -132 -48.5t-44 -125.5v-74zM918 612h552v205q0 182 -276 182 q-152 0 -214 -48t-62 -134v-205z" />
<glyph unicode="&#xe7;" horiz-adv-x="1032" d="M158 250v569q0 127 87 197.5t296 70.5q207 0 293 -70.5t86 -197.5v-43q0 -25 -25 -24h-57q-27 0 -27 24v35q0 88 -59.5 134t-210.5 46q-150 0 -210.5 -46t-60.5 -134v-553q0 -88 60.5 -134t210.5 -46q152 0 211 46t59 134v53q0 25 27 25h57q25 0 25 -25v-61 q0 -129 -86 -197.5t-295 -68.5h-13l-28 -101h84q74 0 126 -40t52 -129t-52.5 -131t-125.5 -42h-256q-27 0 -27 27v24q0 25 27 25h243q104 0 105 96q0 94 -105 94h-129q-20 0 -29.5 8.5t-4.5 24.5l40 148q-288 26 -288 262z" />
<glyph unicode="&#xe8;" horiz-adv-x="1062" d="M158 250v569q0 268 387 268q383 0 383 -268v-270q0 -23 -25 -23h-635v-270q0 -86 61.5 -133t215 -47t215 47t61.5 133v45q0 27 23 27h57q27 0 27 -27v-51q0 -266 -385 -266t-385 266zM268 612h553v203q0 178 -276.5 178t-276.5 -178v-203zM328 1511q-7 9 -7 15 q0 10 19 10h70q20 0 34 -20l158 -254q5 -9 5 -15q0 -10 -17 -10h-53q-25 0 -33 16z" />
<glyph unicode="&#xe9;" horiz-adv-x="1062" d="M158 250v569q0 268 387 268q383 0 383 -268v-270q0 -23 -25 -23h-635v-270q0 -86 61.5 -133t215 -47t215 47t61.5 133v45q0 27 23 27h57q27 0 27 -27v-51q0 -266 -385 -266t-385 266zM268 612h553v203q0 178 -276.5 178t-276.5 -178v-203zM473 1262l156 254q16 20 35 20 h69q19 0 19 -11q0 -5 -4 -14l-177 -258q-12 -16 -30 -16h-56q-16 0 -16 11q0 6 4 14z" />
<glyph unicode="&#xea;" horiz-adv-x="1062" d="M158 250v569q0 268 387 268q383 0 383 -268v-270q0 -23 -25 -23h-635v-270q0 -86 61.5 -133t215 -47t215 47t61.5 133v45q0 27 23 27h57q27 0 27 -27v-51q0 -266 -385 -266t-385 266zM268 612h553v203q0 178 -276.5 178t-276.5 -178v-203zM313 1264l168 247q20 25 39 25 h45q25 0 41 -23l168 -249q8 -10 8 -17q0 -10 -20 -10h-49q-18 0 -37 27l-131 198l-133 -198q-14 -27 -35 -27h-51q-20 0 -21 10q0 7 8 17z" />
<glyph unicode="&#xeb;" horiz-adv-x="1062" d="M158 250v569q0 268 387 268q383 0 383 -268v-270q0 -23 -25 -23h-635v-270q0 -86 61.5 -133t215 -47t215 47t61.5 133v45q0 27 23 27h57q27 0 27 -27v-51q0 -266 -385 -266t-385 266zM268 612h553v203q0 178 -276.5 178t-276.5 -178v-203zM391 1286v211q0 27 27 27h39 q25 0 24 -27v-211q0 -27 -24 -26h-39q-27 -1 -27 26zM604 1286v211q0 27 25 27h39q27 0 26 -27v-211q0 -27 -26 -26h-39q-25 -1 -25 26z" />
<glyph unicode="&#xec;" horiz-adv-x="479" d="M4 1511q-7 9 -7 15q0 10 19 10h70q20 0 35 -20l158 -254q14 -25 -13 -25h-53q-27 0 -33 16zM184 27v1017q0 27 25 27h61q27 0 27 -27v-1017q0 -27 -27 -27h-61q-25 0 -25 27z" />
<glyph unicode="&#xed;" horiz-adv-x="479" d="M184 27v1017q0 27 25 27h61q27 0 27 -27v-1017q0 -27 -27 -27h-61q-25 0 -25 27zM193 1262l157 254q14 20 35 20h70q17 0 17 -10q0 -6 -5 -15l-176 -258q-10 -16 -31 -16h-53q-17 0 -18 12q1 6 4 13z" />
<glyph unicode="&#xee;" horiz-adv-x="479" d="M10 1264l170 247q20 25 39 25h43q27 0 41 -23l170 -249q8 -10 8 -17q0 -10 -20 -10h-51q-16 0 -37 27l-129 198l-133 -198q-14 -27 -35 -27h-51q-21 0 -21 11q-1 6 6 16zM184 27v1017q0 27 25 27h61q27 0 27 -27v-1017q0 -27 -27 -27h-61q-25 0 -25 27z" />
<glyph unicode="&#xef;" horiz-adv-x="479" d="M88 1286v211q0 27 27 27h39q27 0 26 -27v-211q0 -27 -26 -26h-39q-27 -1 -27 26zM184 27v1017q0 27 25 27h61q27 0 27 -27v-1017q0 -27 -27 -27h-61q-25 0 -25 27zM301 1286v211q0 27 27 27h39q27 0 26 -27v-211q0 -27 -26 -26h-39q-27 -1 -27 26z" />
<glyph unicode="&#xf0;" horiz-adv-x="1198" d="M158 250v571q0 123 75.5 194.5t225.5 71.5q199 0 372 -133v299q0 45 -22 80l-178 -76q-25 -14 -33 11l-8 14q-12 25 12 35l180 78q-66 57 -227 57h-188q-27 0 -27 27v32q0 25 27 25h188q233 0 319 -92l117 51q23 12 33 -8l10 -17q3 -7 3 -12q0 -13 -17 -20l-107 -52 q27 -49 27 -116v-1020q0 -266 -389 -266q-393 0 -393 266zM270 258q0 -182 280.5 -182t280.5 182v600q-158 129 -348 129q-109 0 -161 -49t-52 -131v-549z" />
<glyph unicode="&#xf1;" horiz-adv-x="1138" d="M184 27v1017q0 27 27 27h53q27 0 27 -27l2 -92q164 135 379 135q147 0 222 -70.5t75 -189.5v-800q0 -27 -25 -27h-63q-23 0 -23 27v778q0 180 -213 180q-199 0 -348 -129v-829q0 -27 -27 -27h-59q-27 0 -27 27zM266 1294l2 43q10 178 146 179q59 0 114 -43l99 -82 q47 -37 78 -37q43 0 55 24.5t12 94.5v18q0 25 29 25h35q25 0 24 -29l-2 -43q-10 -178 -145 -178q-61 0 -113 43l-100 77q-49 39 -78 39q-41 0 -54.5 -23.5t-13.5 -94.5v-17q0 -25 -28 -24h-35q-25 -1 -25 28z" />
<glyph unicode="&#xf2;" horiz-adv-x="1101" d="M158 250v569q0 268 393 268t393 -268v-569q0 -266 -393 -266t-393 266zM270 258q0 -180 280.5 -180t280.5 180v553q0 180 -280.5 180t-280.5 -180v-553zM328 1511q-7 9 -7 15q0 10 19 10h70q20 0 34 -20l158 -254q5 -9 5 -15q0 -10 -17 -10h-53q-25 0 -33 16z" />
<glyph unicode="&#xf3;" horiz-adv-x="1101" d="M158 250v569q0 268 393 268t393 -268v-569q0 -266 -393 -266t-393 266zM270 258q0 -180 280.5 -180t280.5 180v553q0 180 -280.5 180t-280.5 -180v-553zM500 1262l155 254q16 20 35 20h70q18 0 18 -10q0 -6 -6 -15l-174 -258q-12 -16 -31 -16h-55q-17 0 -17 10q0 6 5 15z " />
<glyph unicode="&#xf4;" horiz-adv-x="1101" d="M158 250v569q0 268 393 268t393 -268v-569q0 -266 -393 -266t-393 266zM270 258q0 -180 280.5 -180t280.5 180v553q0 180 -280.5 180t-280.5 -180v-553zM322 1264l170 247q18 25 38 25h43q27 0 41 -23l170 -249q7 -10 7 -16q0 -11 -21 -11h-49q-18 0 -37 27l-131 198 l-131 -198q-16 -27 -35 -27h-53q-20 0 -20 10q0 7 8 17z" />
<glyph unicode="&#xf5;" horiz-adv-x="1101" d="M158 250v569q0 268 393 268t393 -268v-569q0 -266 -393 -266t-393 266zM256 1288l2 43q8 178 145 178q59 0 113 -43l100 -82q45 -37 78 -36q41 0 54.5 24.5t13.5 93.5v19q0 25 29 24h34q23 0 23 -28l-2 -43q-8 -178 -146 -178q-59 0 -112 43l-101 77q-47 39 -77 39 q-41 0 -54.5 -23.5t-13.5 -95.5v-18q0 -23 -27 -22h-34q-25 -1 -25 28zM270 258q0 -180 280.5 -180t280.5 180v553q0 180 -280.5 180t-280.5 -180v-553z" />
<glyph unicode="&#xf6;" horiz-adv-x="1101" d="M158 250v569q0 268 393 268t393 -268v-569q0 -266 -393 -266t-393 266zM270 258q0 -180 280.5 -180t280.5 180v553q0 180 -280.5 180t-280.5 -180v-553zM399 1286v211q0 27 27 27h39q27 0 27 -27v-211q0 -27 -27 -26h-39q-27 -1 -27 26zM612 1286v211q0 27 27 27h39 q25 0 24 -27v-211q0 -27 -24 -26h-39q-27 -1 -27 26z" />
<glyph unicode="&#xf7;" horiz-adv-x="1280" d="M184 686v45q0 25 25 25h864q25 0 25 -25v-45q0 -27 -25 -27h-862q-27 0 -27 27zM584 270v168q0 27 26 27h64q25 0 24 -27v-168q0 -25 -24 -24h-64q-26 -1 -26 24zM584 983v168q0 27 26 27h64q25 0 24 -27v-168q0 -27 -24 -27h-64q-26 0 -26 27z" />
<glyph unicode="&#xf8;" horiz-adv-x="1101" d="M158 819q0 268 393 268q158 0 250 -43l28 50q18 37 41 36h29q23 0 4 -36l-45 -82q86 -68 86 -193v-569q0 -266 -393 -266q-152 0 -254 43l-27 -47q-18 -37 -41 -37h-22q-31 0 -10 37l47 81q-86 61 -86 189v569zM270 258q0 -57 29 -100l451 796q-68 37 -199 37 q-281 0 -281 -180v-553zM348 115q66 -37 203 -37q281 0 280 180v553q0 63 -30 102z" />
<glyph unicode="&#xf9;" d="M172 242v800q0 29 23 29h63q27 0 27 -29v-778q0 -180 213 -180q180 0 333 129v829q0 29 25 29h62q25 0 24 -29v-1015q0 -27 -24 -27h-56q-27 0 -26 27l-5 86q-152 -129 -362 -129q-145 0 -221 69.5t-76 188.5zM356 1511q-8 9 -8 16q0 9 21 9h69q20 0 35 -20l156 -254 q6 -9 6 -16q0 -9 -17 -9h-53q-27 0 -33 16z" />
<glyph unicode="&#xfa;" d="M172 242v800q0 29 23 29h63q27 0 27 -29v-778q0 -180 213 -180q180 0 333 129v829q0 29 25 29h62q25 0 24 -29v-1015q0 -27 -24 -27h-56q-27 0 -26 27l-5 86q-152 -129 -362 -129q-145 0 -221 69.5t-76 188.5zM500 1262l155 254q16 20 35 20h70q18 0 18 -10q0 -6 -6 -15 l-174 -258q-12 -16 -31 -16h-55q-17 0 -17 10q0 6 5 15z" />
<glyph unicode="&#xfb;" d="M172 242v800q0 29 23 29h63q27 0 27 -29v-778q0 -180 213 -180q180 0 333 129v829q0 29 25 29h62q25 0 24 -29v-1015q0 -27 -24 -27h-56q-27 0 -26 27l-5 86q-152 -129 -362 -129q-145 0 -221 69.5t-76 188.5zM328 1264l170 247q18 25 39 25h43q27 0 41 -23l170 -249 q7 -10 6 -16q0 -11 -21 -11h-49q-16 0 -37 27l-131 198l-131 -198q-16 -27 -35 -27h-53q-19 0 -19 10q0 7 7 17z" />
<glyph unicode="&#xfc;" d="M172 242v800q0 29 23 29h63q27 0 27 -29v-778q0 -180 213 -180q180 0 333 129v829q0 29 25 29h62q25 0 24 -29v-1015q0 -27 -24 -27h-56q-27 0 -26 27l-5 86q-152 -129 -362 -129q-145 0 -221 69.5t-76 188.5zM412 1286v211q0 27 26 27h39q27 0 27 -27v-211 q0 -27 -27 -26h-39q-26 -1 -26 26zM625 1286v211q0 27 26 27h39q27 0 27 -27v-211q0 -27 -27 -26h-39q-26 -1 -26 26z" />
<glyph unicode="&#xfd;" horiz-adv-x="913" d="M45 1044q-1 5 -1 10q0 18 22 17h65q23 0 29 -27l268 -784q10 -33 31 -110q0 25 28 106l271 788q6 27 30 27h60q22 0 22 -17q0 -4 -2 -10l-501 -1470q-6 -25 -31 -25h-49q-27 0 -21 25l140 422zM412 1262l157 254q14 20 35 20h70q17 0 17 -10q0 -6 -5 -15l-176 -258 q-10 -16 -31 -16h-53q-18 0 -18 11q0 6 4 14z" />
<glyph unicode="&#xfe;" horiz-adv-x="1128" d="M184 -426v1917q0 27 25 27h61q27 0 27 -27v-537q162 133 375 133q150 0 224.5 -71.5t74.5 -194.5v-571q0 -125 -75 -195.5t-224 -70.5q-215 0 -375 129v-539q0 -25 -27 -25h-61q-25 0 -25 25zM297 211q158 -129 346 -129q109 0 162 50t53 130v545q0 82 -53 131t-162 49 q-186 0 -346 -129v-647z" />
<glyph unicode="&#xff;" horiz-adv-x="913" d="M45 1044q-1 5 -1 10q0 18 22 17h65q23 0 29 -27l268 -784q10 -33 31 -110q0 25 28 106l271 788q6 27 30 27h60q22 0 22 -17q0 -4 -2 -10l-501 -1470q-6 -25 -31 -25h-49q-27 0 -21 25l140 422zM313 1286v211q0 27 25 27h39q27 0 26 -27v-211q0 -27 -26 -26h-39 q-25 -1 -25 26zM526 1286v211q0 27 25 27h39q27 0 26 -27v-211q0 -27 -26 -26h-39q-25 -1 -25 26z" />
<glyph unicode="&#x100;" d="M57 27l441 1423q6 27 32 27h68q25 0 31 -27l442 -1423q3 -7 3 -12q0 -15 -23 -15h-68q-23 0 -31 27l-131 419h-524l-127 -419q-6 -27 -31 -27h-63q-21 0 -21 14q-1 6 2 13zM258 1716v41q0 23 27 23h557q27 0 26 -23v-41q0 -25 -26 -24h-557q-27 -1 -27 24zM326 541h469 l-181 581q-37 121 -55 228q-23 -129 -49 -224z" />
<glyph unicode="&#x101;" horiz-adv-x="1089" d="M143 233v113q0 111 71 181.5t200 70.5h393v213q0 88 -59.5 135t-209 47t-210 -46t-60.5 -132v-33q0 -27 -24 -26h-58q-23 0 -22 26v39q0 266 377 266q207 0 292 -69.5t85 -196.5v-794q0 -27 -23 -27h-55q-25 0 -25 27l-6 86q-164 -129 -369 -129q-145 0 -221 69t-76 180z M240 1337v39q0 27 24 27h559q25 0 25 -27v-39q0 -27 -25 -26h-559q-24 -1 -24 26zM254 248q0 -170 211 -170q180 0 342 129v299h-373q-180 0 -180 -174v-84z" />
<glyph unicode="&#x102;" d="M57 27l441 1423q6 27 32 27h68q25 0 31 -27l442 -1423q3 -7 3 -12q0 -15 -23 -15h-68q-23 0 -31 27l-131 419h-524l-127 -419q-6 -27 -31 -27h-63q-21 0 -21 14q-1 6 2 13zM317 1849v35q0 25 23 25h41q23 0 22 -25v-37q0 -78 33 -118.5t127 -40.5t127 40.5t33 118.5v37 q0 25 25 25h38q23 0 23 -25v-35q0 -115 -56.5 -175t-193.5 -60q-133 0 -187.5 59t-54.5 176zM326 541h469l-181 581q-37 121 -55 228q-23 -129 -49 -224z" />
<glyph unicode="&#x103;" horiz-adv-x="1089" d="M143 233v113q0 111 71 181.5t200 70.5h393v213q0 88 -59.5 135t-209 47t-210 -46t-60.5 -132v-33q0 -27 -24 -26h-58q-23 0 -22 26v39q0 266 377 266q207 0 292 -69.5t85 -196.5v-794q0 -27 -23 -27h-55q-25 0 -25 27l-6 86q-164 -129 -369 -129q-145 0 -221 69t-76 180z M254 248q0 -170 211 -170q180 0 342 129v299h-373q-180 0 -180 -174v-84zM303 1446v37q0 25 25 24h39q25 0 24 -24v-39q0 -76 33 -117t127 -41t127 41t33 117v39q0 25 22 24h39q25 0 25 -24v-37q0 -115 -56.5 -176.5t-191.5 -61.5q-137 0 -191.5 61.5t-54.5 176.5z" />
<glyph unicode="&#x104;" d="M57 27l441 1423q6 27 32 27h68q23 0 31 -27l442 -1423q10 -27 -20 -27h-23q-76 -12 -111.5 -56t-35.5 -91q0 -94 127 -95h49q25 0 24 -24v-31q0 -27 -30 -27h-68q-193 0 -192 160q0 53 37.5 112.5t115.5 98.5l-123 399h-524l-129 -419q-8 -27 -29 -27h-63q-21 0 -21 14 q-1 6 2 13zM326 541h469l-181 581q-25 78 -55 228q-14 -109 -49 -224z" />
<glyph unicode="&#x105;" horiz-adv-x="1089" d="M143 233v113q0 111 71 181.5t200 70.5h393v213q0 88 -59.5 135t-209 47t-210 -46t-60.5 -132v-33q0 -27 -24 -26h-58q-23 0 -22 26v39q0 266 377 266q207 0 292 -69.5t85 -196.5v-794q0 -27 -23 -27h-10q-70 -14 -106 -58t-36 -92q0 -92 123 -92h35q27 0 27 -24v-31 q0 -27 -31 -27h-59q-82 0 -134.5 40t-52.5 120q0 125 164 207l-6 70q-164 -129 -369 -129q-145 0 -221 69t-76 180zM254 248q0 -170 211 -170q180 0 342 129v299h-373q-180 0 -180 -174v-84z" />
<glyph unicode="&#x106;" horiz-adv-x="1185" d="M184 289v899q0 305 443.5 305t443.5 -305v-113q0 -29 -24 -28h-64q-27 0 -27 28v94q0 106 -74.5 166t-255 60t-254 -58.5t-73.5 -167.5v-864q0 -109 73.5 -166t254 -57t255 59.5t74.5 163.5v125q0 25 27 25h64q25 0 24 -25v-141q0 -305 -443.5 -305t-443.5 305zM551 1630 l160 254q14 23 32 23h68q21 0 21 -11q0 -6 -7 -16l-176 -258q-10 -16 -31 -16h-53q-20 0 -20 10q0 5 6 14z" />
<glyph unicode="&#x107;" horiz-adv-x="1032" d="M158 250v569q0 127 87 197.5t296 70.5q207 0 293 -70.5t86 -197.5v-43q0 -25 -25 -24h-57q-27 0 -27 24v35q0 88 -59.5 134t-210.5 46q-150 0 -210.5 -46t-60.5 -134v-553q0 -88 60.5 -134t210.5 -46q152 0 211 46t59 134v53q0 25 27 25h57q25 0 25 -25v-61 q0 -129 -86 -197.5t-295 -68.5q-381 0 -381 266zM481 1262l158 254q14 20 35 20h69q17 0 18 -10q0 -6 -5 -15l-176 -258q-10 -16 -31 -16h-53q-18 0 -19 11q0 6 4 14z" />
<glyph unicode="&#x108;" horiz-adv-x="1185" d="M184 289v899q0 305 443.5 305t443.5 -305v-113q0 -29 -24 -28h-64q-27 0 -27 28v94q0 106 -74.5 166t-255 60t-254 -58.5t-73.5 -167.5v-864q0 -109 73.5 -166t254 -57t255 59.5t74.5 163.5v125q0 25 27 25h64q25 0 24 -25v-141q0 -305 -443.5 -305t-443.5 305zM365 1632 l170 248q18 27 38 27h43q25 0 39 -25l172 -250q7 -10 7 -16q0 -10 -19 -10h-53q-14 0 -35 26l-133 201l-129 -201q-16 -27 -37 -26h-51q-19 0 -19 10q0 6 7 16z" />
<glyph unicode="&#x109;" horiz-adv-x="1032" d="M158 250v569q0 127 87 197.5t296 70.5q207 0 293 -70.5t86 -197.5v-43q0 -25 -25 -24h-57q-27 0 -27 24v35q0 88 -59.5 134t-210.5 46q-150 0 -210.5 -46t-60.5 -134v-553q0 -88 60.5 -134t210.5 -46q152 0 211 46t59 134v53q0 25 27 25h57q25 0 25 -25v-61 q0 -129 -86 -197.5t-295 -68.5q-381 0 -381 266zM285 1264l170 247q18 25 39 25h43q27 0 41 -23l170 -249q7 -10 6 -16q0 -11 -21 -11h-49q-18 0 -37 27l-131 198l-131 -198q-16 -27 -35 -27h-53q-20 0 -20 10q0 7 8 17z" />
<glyph unicode="&#x10a;" horiz-adv-x="1185" d="M184 289v899q0 305 443.5 305t443.5 -305v-113q0 -29 -24 -28h-64q-27 0 -27 28v94q0 106 -74.5 166t-255 60t-254 -58.5t-73.5 -167.5v-864q0 -109 73.5 -166t254 -57t255 59.5t74.5 163.5v125q0 25 27 25h64q25 0 24 -25v-141q0 -305 -443.5 -305t-443.5 305zM537 1653 v166q0 27 26 26h62q27 0 26 -26v-166q0 -27 -26 -27h-62q-26 0 -26 27z" />
<glyph unicode="&#x10b;" horiz-adv-x="1032" d="M158 250v569q0 127 87 197.5t296 70.5q207 0 293 -70.5t86 -197.5v-43q0 -25 -25 -24h-57q-27 0 -27 24v35q0 88 -59.5 134t-210.5 46q-150 0 -210.5 -46t-60.5 -134v-553q0 -88 60.5 -134t210.5 -46q152 0 211 46t59 134v53q0 25 27 25h57q25 0 25 -25v-61 q0 -129 -86 -197.5t-295 -68.5q-381 0 -381 266zM459 1298v168q0 25 24 25h66q25 0 24 -25v-168q0 -27 -24 -26h-66q-24 -1 -24 26z" />
<glyph unicode="&#x10c;" horiz-adv-x="1185" d="M184 289v899q0 305 443.5 305t443.5 -305v-113q0 -29 -24 -28h-64q-27 0 -27 28v94q0 106 -74.5 166t-255 60t-254 -58.5t-73.5 -167.5v-864q0 -109 73.5 -166t254 -57t255 59.5t74.5 163.5v125q0 25 27 25h64q25 0 24 -25v-141q0 -305 -443.5 -305t-443.5 305zM362 1880 q-8 10 -7 17q0 10 20 10h51q20 0 37 -27l129 -201l133 201q20 27 35 27h51q21 0 21 -11q0 -6 -7 -16l-172 -250q-14 -25 -39 -24h-43q-20 0 -39 26z" />
<glyph unicode="&#x10d;" horiz-adv-x="1032" d="M158 250v569q0 127 87 197.5t296 70.5q207 0 293 -70.5t86 -197.5v-43q0 -25 -25 -24h-57q-27 0 -27 24v35q0 88 -59.5 134t-210.5 46q-150 0 -210.5 -46t-60.5 -134v-553q0 -88 60.5 -134t210.5 -46q152 0 211 46t59 134v53q0 25 27 25h57q25 0 25 -25v-61 q0 -129 -86 -197.5t-295 -68.5q-381 0 -381 266zM285 1511q-8 9 -8 16q0 9 20 9h53q18 0 35 -25l131 -200l131 200q18 25 37 25h49q21 0 21 -10q0 -6 -6 -15l-170 -249q-14 -25 -41 -25h-43q-20 0 -39 27z" />
<glyph unicode="&#x10e;" horiz-adv-x="1298" d="M209 27v1423q0 27 22 27h431q455 0 454 -308v-864q0 -305 -454 -305h-431q-22 0 -22 27zM324 100h338q340 0 339 224v829q0 223 -339 223h-338v-1276zM412 1880q-7 10 -7 16q0 11 21 11h49q23 0 37 -27l131 -201l131 201q20 27 35 27h53q20 0 20 -10q0 -6 -8 -17 l-172 -250q-14 -25 -38 -24h-43q-18 0 -39 26z" />
<glyph unicode="&#x10f;" horiz-adv-x="1212" d="M158 250v571q0 123 73.5 194.5t225.5 71.5q201 0 374 -133v537q0 27 25 27h62q27 0 26 -27v-1464q0 -27 -26 -27h-54q-27 0 -26 27l-4 88q-168 -131 -377 -131q-152 0 -225.5 70.5t-73.5 195.5zM270 264q0 -80 52.5 -130t160.5 -50q174 0 348 129v641q-158 129 -348 129 q-109 0 -161 -49t-52 -129v-541zM1063 1243l21 45l18.5 41t12.5 34.5t9 46.5t2 52v60q0 27 27 26h47q27 0 27 -26v-64q0 -113 -80 -248q-9 -14 -24 -13q-5 0 -11 1l-37 10q-16 5 -16 19q0 7 4 16z" />
<glyph unicode="&#x110;" horiz-adv-x="1298" d="M27 729v39q0 25 24 25h158v657q0 27 22 27h431q455 0 454 -308v-864q0 -305 -454 -305h-431q-23 0 -22 27v675h-158q-24 0 -24 27zM324 100h338q340 0 339 224v829q0 223 -339 223h-338v-583h311q25 0 24 -25v-39q0 -27 -24 -27h-311v-602z" />
<glyph unicode="&#x111;" horiz-adv-x="1128" d="M158 250v571q0 123 73.5 194.5t225.5 71.5q201 0 374 -133v271h-364q-27 0 -27 26v31q0 27 27 27h364v182q0 27 25 27h62q27 0 26 -27v-182h96q25 0 25 -27v-31q0 -27 -25 -26h-96v-1198q0 -27 -26 -27h-54q-27 0 -26 27l-4 88q-168 -131 -377 -131q-152 0 -225.5 70.5 t-73.5 195.5zM270 264q0 -80 52.5 -130t160.5 -50q174 0 348 129v641q-158 129 -348 129q-109 0 -161 -49t-52 -129v-541z" />
<glyph unicode="&#x112;" horiz-adv-x="1142" d="M209 27v1423q0 27 24 27h742q27 0 26 -27v-47q0 -27 -26 -27h-651v-551h612q27 0 27 -26v-45q0 -27 -27 -27h-612v-627h677q25 0 25 -26v-47q0 -27 -25 -27h-770q-22 0 -22 27zM287 1716v41q0 23 26 23h557q27 0 27 -23v-41q0 -25 -27 -24h-557q-26 -1 -26 24z" />
<glyph unicode="&#x113;" horiz-adv-x="1062" d="M158 250v569q0 268 387 268q383 0 383 -268v-270q0 -23 -25 -23h-635v-270q0 -86 61.5 -133t215 -47t215 47t61.5 133v45q0 27 23 27h57q27 0 27 -27v-51q0 -266 -385 -266t-385 266zM225 1337v39q0 27 27 27h557q27 0 27 -27v-39q0 -27 -27 -26h-557q-27 -1 -27 26z M268 612h553v203q0 178 -276.5 178t-276.5 -178v-203z" />
<glyph unicode="&#x114;" horiz-adv-x="1142" d="M209 27v1423q0 27 24 27h742q27 0 26 -27v-47q0 -27 -26 -27h-651v-551h612q27 0 27 -26v-45q0 -27 -27 -27h-612v-627h677q25 0 25 -26v-47q0 -27 -25 -27h-770q-22 0 -22 27zM354 1849v35q0 25 23 25h41q23 0 22 -25v-37q0 -78 33 -118.5t127 -40.5t127 40.5t33 118.5 v37q0 25 24 25h39q23 0 23 -25v-35q0 -115 -56.5 -175t-191.5 -60t-189.5 59t-54.5 176z" />
<glyph unicode="&#x115;" horiz-adv-x="1062" d="M158 250v569q0 268 387 268q383 0 383 -268v-270q0 -23 -25 -23h-635v-270q0 -86 61.5 -133t215 -47t215 47t61.5 133v45q0 27 23 27h57q27 0 27 -27v-51q0 -266 -385 -266t-385 266zM268 612h553v203q0 178 -276.5 178t-276.5 -178v-203zM287 1446v37q0 25 24 24h39 q23 0 23 -24v-39q0 -76 32.5 -117t129.5 -41q92 0 124.5 41t32.5 117v39q0 25 25 24h39q25 0 24 -24v-37q0 -115 -57 -176.5t-191 -61.5q-137 0 -191 61.5t-54 176.5z" />
<glyph unicode="&#x116;" horiz-adv-x="1142" d="M209 27v1423q0 27 24 27h742q27 0 26 -27v-47q0 -27 -26 -27h-651v-551h612q27 0 27 -26v-45q0 -27 -27 -27h-612v-627h677q25 0 25 -26v-47q0 -27 -25 -27h-770q-22 0 -22 27zM543 1653v166q0 27 26 26h62q27 0 26 -26v-166q0 -27 -26 -27h-62q-26 0 -26 27z" />
<glyph unicode="&#x117;" horiz-adv-x="1062" d="M158 250v569q0 268 387 268q383 0 383 -268v-270q0 -23 -25 -23h-635v-270q0 -86 61.5 -133t215 -47t215 47t61.5 133v45q0 27 23 27h57q27 0 27 -27v-51q0 -266 -385 -266t-385 266zM268 612h553v203q0 178 -276.5 178t-276.5 -178v-203z" />
<glyph unicode="&#x118;" horiz-adv-x="1142" d="M209 27v1423q0 27 24 27h742q27 0 26 -27v-47q0 -27 -26 -27h-651v-551h612q27 0 27 -26v-45q0 -27 -27 -27h-612v-627h677q25 0 25 -26v-47q0 -27 -25 -27h-57q-78 0 -118 -42t-40 -99q0 -100 123 -101h62q27 0 26 -24v-31q0 -27 -30 -27h-82q-84 0 -138.5 41t-54.5 125 q0 90 80 158h-541q-22 0 -22 27z" />
<glyph unicode="&#x119;" horiz-adv-x="1062" d="M158 250v569q0 268 387 268q383 0 383 -268v-270q0 -23 -25 -23h-635v-270q0 -86 61.5 -133t215 -47t215 47t61.5 133v45q0 27 23 27h57q27 0 27 -27v-51q0 -125 -80 -189q-6 -4 -44 -34.5t-49.5 -45t-27.5 -47t-16 -69.5q0 -106 127 -107h61q27 0 27 -24v-31 q0 -27 -31 -27h-86q-84 0 -136 42t-52 124q0 88 55 152q-61 -10 -133 -10q-385 0 -385 266zM268 612h553v203q0 178 -276.5 178t-276.5 -178v-203z" />
<glyph unicode="&#x11a;" horiz-adv-x="1142" d="M209 27v1423q0 27 24 27h742q27 0 26 -27v-47q0 -27 -26 -27h-651v-551h612q27 0 27 -26v-45q0 -27 -27 -27h-612v-627h677q25 0 25 -26v-47q0 -27 -25 -27h-770q-22 0 -22 27zM340 1880q-7 10 -7 16q0 11 21 11h49q23 0 37 -27l131 -201l131 201q20 27 35 27h54 q20 0 20 -10q0 -6 -8 -17l-172 -250q-14 -25 -39 -24h-43q-18 0 -39 26z" />
<glyph unicode="&#x11b;" horiz-adv-x="1062" d="M158 250v569q0 268 387 268q383 0 383 -268v-270q0 -23 -25 -23h-635v-270q0 -86 61.5 -133t215 -47t215 47t61.5 133v45q0 27 23 27h57q27 0 27 -27v-51q0 -266 -385 -266t-385 266zM268 612h553v203q0 178 -276.5 178t-276.5 -178v-203zM301 1511q-7 9 -7 15 q0 10 21 10h52q20 0 34 -25l134 -200l129 200q20 25 36 25h52q20 0 20 -9q0 -6 -8 -16l-170 -249q-14 -25 -41 -25h-43q-18 0 -39 27z" />
<glyph unicode="&#x11c;" horiz-adv-x="1220" d="M184 289v899q0 305 443.5 305t443.5 -305v-109q0 -27 -24 -26h-64q-27 0 -27 26v90q0 106 -74.5 166t-255 60t-254 -58.5t-73.5 -167.5v-864q0 -109 73.5 -166t254.5 -57q330 0 329 219v291h-309q-27 0 -26 26v48q0 27 26 26h397q27 0 27 -26v-377q0 -305 -443.5 -305 t-443.5 305zM381 1632l168 248q20 27 39 27h43q25 0 41 -25l170 -250q8 -10 8 -16q0 -10 -21 -10h-53q-14 0 -33 26l-133 201l-131 -201q-14 -27 -37 -26h-49q-20 0 -20 10q0 6 8 16z" />
<glyph unicode="&#x11d;" horiz-adv-x="1128" d="M158 250v571q0 123 73.5 194.5t225.5 71.5q207 0 377 -135l4 90q0 29 26 29h54q27 0 26 -29v-1224q0 -268 -389 -269h-293q-25 0 -24 25v45q0 27 24 27h293q276 0 276 180v287q-170 -129 -374 -129q-152 0 -225.5 70.5t-73.5 195.5zM270 264q0 -80 52.5 -130t160.5 -50 q174 0 348 129v641q-158 129 -348 129q-109 0 -161 -49t-52 -129v-541zM332 1264l170 247q18 25 39 25h43q27 0 41 -23l170 -249q8 -10 8 -17q0 -10 -21 -10h-51q-16 0 -37 27l-129 198l-133 -198q-14 -27 -35 -27h-51q-21 0 -21 11q0 6 7 16z" />
<glyph unicode="&#x11e;" horiz-adv-x="1220" d="M184 289v899q0 305 443.5 305t443.5 -305v-109q0 -27 -24 -26h-64q-27 0 -27 26v90q0 106 -74.5 166t-255 60t-254 -58.5t-73.5 -167.5v-864q0 -109 73.5 -166t254.5 -57q330 0 329 219v291h-309q-27 0 -26 26v48q0 27 26 26h397q27 0 27 -26v-377q0 -305 -443.5 -305 t-443.5 305zM365 1849v35q0 25 24 25h39q23 0 23 -25v-37q0 -78 32.5 -118.5t127 -40.5t127 40.5t32.5 118.5v37q0 25 25 25h39q25 0 24 -25v-35q0 -115 -56.5 -175t-193.5 -60q-135 0 -189 59t-54 176z" />
<glyph unicode="&#x11f;" horiz-adv-x="1128" d="M158 250v571q0 123 73.5 194.5t225.5 71.5q207 0 377 -135l4 90q0 29 26 29h54q27 0 26 -29v-1224q0 -268 -389 -269h-293q-25 0 -24 25v45q0 27 24 27h293q276 0 276 180v287q-170 -129 -374 -129q-152 0 -225.5 70.5t-73.5 195.5zM270 264q0 -80 52.5 -130t160.5 -50 q174 0 348 129v641q-158 129 -348 129q-109 0 -161 -49t-52 -129v-541zM315 1446v37q0 25 23 24h39q25 0 24 -24v-39q0 -76 33 -117t129 -41q92 0 125 41t33 117v39q0 25 24 24h39q23 0 23 -24v-37q0 -115 -56.5 -176.5t-191.5 -61.5t-189.5 61.5t-54.5 176.5z" />
<glyph unicode="&#x120;" horiz-adv-x="1220" d="M184 283v899q0 305 443.5 305t443.5 -305v-109q0 -27 -24 -26h-64q-27 0 -27 26v90q0 106 -74.5 164.5t-255 58.5t-254 -57t-73.5 -166v-864q0 -109 73.5 -166t254.5 -57q330 0 329 219v291h-309q-27 0 -26 26v47q0 27 26 27h397q27 0 27 -27v-376q0 -307 -443.5 -307 t-443.5 307zM553 1645v167q0 27 27 27h63q25 0 25 -27v-167q0 -25 -25 -25h-63q-27 0 -27 25z" />
<glyph unicode="&#x121;" horiz-adv-x="1128" d="M158 250v571q0 123 73.5 194.5t225.5 71.5q207 0 377 -135l4 90q0 29 26 29h54q27 0 26 -29v-1224q0 -268 -389 -269h-293q-25 0 -24 25v45q0 27 24 27h293q276 0 276 180v287q-170 -129 -374 -129q-152 0 -225.5 70.5t-73.5 195.5zM270 264q0 -80 52.5 -130t160.5 -50 q174 0 348 129v641q-158 129 -348 129q-109 0 -161 -49t-52 -129v-541zM483 1298v168q0 25 27 25h65q25 0 25 -25v-168q0 -27 -25 -26h-65q-27 -1 -27 26z" />
<glyph unicode="&#x122;" horiz-adv-x="1220" d="M184 289v899q0 305 443.5 305t443.5 -305v-109q0 -27 -24 -26h-64q-27 0 -27 26v90q0 106 -74.5 166t-255 60t-254 -58.5t-73.5 -167.5v-864q0 -109 73.5 -166t254.5 -57q330 0 329 219v291h-309q-27 0 -26 26v48q0 27 26 26h397q27 0 27 -26v-377q0 -305 -443.5 -305 t-443.5 305zM516 -412q6 14 20.5 44t18.5 41l12 35q8 24 10.5 46.5t2.5 52.5v58q0 27 26 26h47q27 0 27 -26v-62q0 -115 -80 -247q-9 -16 -25 -16q-5 0 -10 1l-37 13q-16 4 -16 18q0 6 4 16z" />
<glyph unicode="&#x123;" horiz-adv-x="1128" d="M158 250v571q0 123 73.5 194.5t225.5 71.5q207 0 377 -135l4 90q0 29 26 29h54q27 0 26 -29v-1224q0 -268 -389 -269h-293q-25 0 -24 25v45q0 27 24 27h293q276 0 276 180v287q-170 -129 -374 -129q-152 0 -225.5 70.5t-73.5 195.5zM270 264q0 -80 52.5 -130t160.5 -50 q174 0 348 129v641q-158 129 -348 129q-109 0 -161 -49t-52 -129v-541zM479 1270v63q0 113 80 248q9 14 24 14q5 0 11 -2l37 -10q16 -4 16 -18q0 -7 -4 -17q-6 -16 -20.5 -44.5t-18.5 -41t-12 -35t-10 -45t-2 -53.5v-59q0 -27 -27 -27h-47q-27 0 -27 27z" />
<glyph unicode="&#x124;" horiz-adv-x="1323" d="M209 27v1423q0 27 24 27h66q25 0 25 -27v-612h677v612q0 27 23 27h68q25 0 24 -27v-1423q0 -27 -24 -27h-68q-23 0 -23 27v710h-677v-710q0 -27 -25 -27h-66q-24 0 -24 27zM430 1632l170 248q18 27 39 27h43q23 0 39 -25l172 -250q7 -10 7 -15q0 -11 -21 -11h-52 q-16 0 -34 26l-134 201l-129 -201q-16 -27 -36 -26h-52q-20 0 -20 10q0 6 8 16z" />
<glyph unicode="&#x125;" horiz-adv-x="1138" d="M8 1632l170 248q18 27 39 27h43q25 0 39 -25l172 -250q20 -27 -12 -26h-53q-14 0 -35 26l-131 201l-131 -201q-14 -27 -37 -26h-49q-21 0 -21 11q-1 5 6 15zM184 27v1464q0 27 27 27h59q27 0 27 -27v-537q162 133 375 133q147 0 222 -70.5t75 -189.5v-800q0 -27 -25 -27 h-63q-23 0 -23 27v778q0 180 -213 180q-199 0 -348 -129v-829q0 -27 -27 -27h-59q-27 0 -27 27z" />
<glyph unicode="&#x126;" horiz-adv-x="1323" d="M100 1114v33q0 25 25 24h84v279q0 27 24 27h66q25 0 25 -27v-279h677v279q0 27 23 27h68q25 0 24 -27v-279h82q27 0 27 -24v-33q0 -27 -27 -27h-82v-1060q0 -27 -24 -27h-68q-23 0 -23 27v710h-677v-710q0 -27 -25 -27h-66q-25 0 -24 27v1060h-84q-25 0 -25 27zM324 838 h677v249h-677v-249z" />
<glyph unicode="&#x127;" horiz-adv-x="1138" d="M37 1251v35q0 23 26 23h121v182q0 27 27 27h59q27 0 27 -27v-182h340q25 0 25 -23v-35q0 -27 -25 -26h-340v-271q162 133 375 133q147 0 222 -70.5t75 -189.5v-800q0 -27 -25 -27h-63q-23 0 -23 27v778q0 180 -213 180q-199 0 -348 -129v-829q0 -27 -27 -27h-59 q-27 0 -27 27v1198h-121q-26 -1 -26 26z" />
<glyph unicode="&#x128;" horiz-adv-x="530" d="M-31 1667l2 43q8 176 146 176q63 0 112 -41l101 -80q45 -37 78 -36q41 0 54 23.5t13 92.5v21q0 23 29 22h35q25 0 24 -28l-4 -43q-8 -178 -147 -179q-55 0 -113 45l-96 78q-51 37 -80 37q-41 0 -53.5 -23.5t-12.5 -95.5v-18q0 -25 -28 -25h-37q-23 0 -23 31zM209 27v1423 q0 27 24 27h66q25 0 25 -27v-1423q0 -27 -25 -27h-66q-24 0 -24 27z" />
<glyph unicode="&#x129;" horiz-adv-x="479" d="M-57 1288l4 43q8 178 145 178q57 0 113 -43l98 -82q47 -37 80 -36q41 0 53.5 24.5t12.5 93.5v19q0 25 28 24h35q25 0 25 -28l-2 -43q-8 -178 -146 -178q-61 0 -113 43l-100 77q-47 39 -78 39q-41 0 -54 -23.5t-13 -95.5v-18q0 -23 -29 -22h-35q-24 -1 -24 28zM184 27 v1017q0 27 25 27h61q27 0 27 -27v-1017q0 -27 -27 -27h-61q-25 0 -25 27z" />
<glyph unicode="&#x12a;" horiz-adv-x="530" d="M-39 1716v41q0 23 27 23h557q27 0 26 -23v-41q0 -25 -26 -24h-557q-27 -1 -27 24zM209 27v1423q0 27 24 27h66q25 0 25 -27v-1423q0 -27 -25 -27h-66q-24 0 -24 27z" />
<glyph unicode="&#x12b;" horiz-adv-x="479" d="M-66 1337v39q0 27 27 27h557q27 0 27 -27v-39q0 -27 -27 -26h-557q-27 -1 -27 26zM184 27v1017q0 27 25 27h61q27 0 27 -27v-1017q0 -27 -27 -27h-61q-25 0 -25 27z" />
<glyph unicode="&#x12c;" horiz-adv-x="530" d="M20 1849v35q0 25 23 25h39q25 0 24 -25v-37q0 -78 33 -118.5t125 -40.5q96 0 129 40.5t33 118.5v37q0 25 23 25h38q25 0 25 -25v-35q0 -115 -56.5 -175t-193.5 -60q-133 0 -187.5 59t-54.5 176zM209 27v1423q0 27 24 27h66q25 0 25 -27v-1423q0 -27 -25 -27h-66 q-24 0 -24 27z" />
<glyph unicode="&#x12d;" horiz-adv-x="479" d="M-6 1446v37q0 25 22 24h41q23 0 23 -24v-39q0 -76 32.5 -117t129.5 -41q92 0 124.5 41t32.5 117v39q0 25 25 24h39q23 0 22 -24v-37q0 -115 -56 -176.5t-189 -61.5q-137 0 -191.5 61.5t-54.5 176.5zM184 27v1017q0 27 25 27h61q27 0 27 -27v-1017q0 -27 -27 -27h-61 q-25 0 -25 27z" />
<glyph unicode="&#x12e;" horiz-adv-x="530" d="M43 -164q0 59 47 119.5t119 93.5v1401q0 27 24 27h66q25 0 25 -27v-1423q0 -27 -25 -27h-20q-72 -12 -107 -56t-35 -91q0 -94 123 -95h51q25 0 25 -24v-31q0 -27 -33 -27h-63q-88 0 -142.5 39t-54.5 121z" />
<glyph unicode="&#x12f;" horiz-adv-x="479" d="M20 -164q0 59 46.5 121.5t117.5 91.5v993q0 29 27 29h59q27 0 27 -29v-1015q0 -27 -27 -27h-18q-72 -14 -106.5 -57t-34.5 -90q0 -94 127 -95h47q27 0 26 -24v-31q0 -27 -30 -27h-68q-193 0 -193 160zM184 1286v205q0 27 27 27h59q27 0 27 -27v-205q0 -27 -27 -26h-59 q-27 -1 -27 26z" />
<glyph unicode="&#x130;" horiz-adv-x="530" d="M209 27v1423q0 27 24 27h66q25 0 25 -27v-1423q0 -27 -25 -27h-66q-24 0 -24 27zM209 1653v166q0 27 24 26h64q27 0 27 -26v-166q0 -27 -27 -27h-64q-24 0 -24 27z" />
<glyph unicode="&#x131;" horiz-adv-x="479" d="M184 27v1017q0 27 25 27h61q27 0 27 -27v-1017q0 -27 -27 -27h-61q-25 0 -25 27z" />
<glyph unicode="&#x132;" horiz-adv-x="1599" d="M209 27v1423q0 27 24 27h66q25 0 25 -27v-1423q0 -27 -25 -27h-66q-24 0 -24 27zM606 289v88q0 27 25 26h63q25 0 25 -26v-72q0 -109 62.5 -166t223 -57t222 57.5t61.5 165.5v1145q0 27 23 27h65q27 0 27 -27v-1161q0 -143 -88 -224t-309.5 -81t-310.5 81t-89 224z" />
<glyph unicode="&#x133;" horiz-adv-x="956" d="M184 27v1015q0 29 27 29h59q27 0 27 -29v-1015q0 -27 -27 -27h-59q-27 0 -27 27zM184 1286v205q0 27 27 27h59q27 0 27 -27v-205q0 -27 -27 -26h-59q-27 -1 -27 26zM348 -381q0 27 25 27h14q274 0 275 180v1216q0 29 24 29h64q25 0 24 -29v-1224q0 -268 -387 -269h-14 q-25 0 -25 25v45zM662 1286v205q0 27 24 27h64q25 0 24 -27v-205q0 -27 -24 -26h-64q-24 -1 -24 26z" />
<glyph unicode="&#x134;" horiz-adv-x="1067" d="M74 289v88q0 27 26 26h64q23 0 22 -26v-72q0 -109 63.5 -166t224.5 -57t221.5 57.5t60.5 165.5v1145q0 27 24 27h64q27 0 26 -27v-1161q0 -143 -88 -224t-309 -81t-310 81t-89 224zM580 1632l170 248q18 27 38 27h43q25 0 39 -25l172 -250q7 -10 7 -15q0 -11 -21 -11h-51 q-14 0 -35 26l-133 201l-129 -201q-16 -27 -37 -26h-51q-20 0 -20 10q0 6 8 16z" />
<glyph unicode="&#x135;" horiz-adv-x="479" d="M-131 -383q0 27 27 27h10q279 0 278 180v1220q0 27 25 27h61q27 0 27 -27v-1228q0 -266 -391 -267h-10q-27 0 -27 25v43zM10 1264l170 247q20 25 39 25h43q27 0 41 -23l170 -249q8 -10 8 -17q0 -10 -20 -10h-51q-16 0 -37 27l-129 198l-133 -198q-14 -27 -35 -27h-51 q-21 0 -21 11q-1 6 6 16z" />
<glyph unicode="&#x136;" horiz-adv-x="1169" d="M209 27v1423q0 27 24 27h66q25 0 25 -27v-666h73l537 668q18 25 43 25h72q33 0 12 -27l-563 -700l626 -723q5 -6 5 -12q0 -3 -2 -7q-5 -8 -15 -8h-88q-14 0 -41 27l-584 667h-75v-667q0 -27 -25 -27h-66q-24 0 -24 27zM477 -412q6 14 20.5 44t18.5 41l12 35 q8 24 10.5 46.5t2.5 52.5v58q0 27 26 26h47q27 0 27 -26v-62q0 -115 -82 -247q-8 -16 -23 -16q-5 0 -10 1l-39 13q-15 4 -14 17q0 7 4 17z" />
<glyph unicode="&#x137;" horiz-adv-x="976" d="M184 27v1464q0 27 25 27h61q27 0 27 -27v-844h78l395 397q27 27 45 27h70q14 0 17 -8t-5 -19l-428 -436l483 -581q7 -7 7 -13q0 -3 -2 -6q-5 -8 -15 -8h-72q-27 0 -45 27l-448 530h-80v-530q0 -27 -27 -27h-61q-25 0 -25 27zM391 -412q6 14 20.5 44t18.5 41.5t11.5 35 t10.5 46t3 52.5v58q0 27 24 26h49q25 0 25 -26v-62q0 -115 -80 -247q-8 -16 -24 -16q-5 0 -11 1l-37 13q-16 4 -15 16q0 7 5 18z" />
<glyph unicode="&#x138;" horiz-adv-x="976" d="M184 27v1017q0 27 25 27h61q27 0 27 -27v-407h78l395 407q27 27 45 27h70q14 0 17 -8t-5 -19l-428 -446l483 -571q7 -7 7 -13q0 -3 -2 -6q-5 -8 -15 -8h-72q-27 0 -45 27l-448 520h-80v-520q0 -27 -27 -27h-61q-25 0 -25 27z" />
<glyph unicode="&#x139;" horiz-adv-x="1071" d="M209 27v1423q0 27 24 27h66q25 0 25 -27v-1350h643q25 0 24 -26v-47q0 -27 -24 -27h-738q-20 0 -20 27zM221 1630l160 254q14 23 31 23h69q21 0 21 -11q0 -6 -6 -16l-177 -258q-10 -16 -30 -16h-56q-18 0 -18 10q0 5 6 14z" />
<glyph unicode="&#x13a;" horiz-adv-x="479" d="M184 27v1464q0 27 27 27h59q27 0 27 -27v-1464q0 -27 -27 -27h-59q-27 0 -27 27zM195 1630l159 254q14 23 33 23h70q19 0 19 -11q0 -6 -7 -16l-176 -258q-10 -16 -31 -16h-53q-20 0 -20 10q0 5 6 14z" />
<glyph unicode="&#x13b;" horiz-adv-x="1071" d="M209 27v1423q0 27 24 27h66q25 0 25 -27v-1350h643q25 0 24 -26v-47q0 -27 -24 -27h-738q-20 0 -20 27zM469 -412q6 14 20.5 44t18.5 41l12 35q8 24 10 46.5t2 52.5v58q0 27 25 26h49q25 0 25 -26v-62q0 -115 -80 -247q-8 -16 -24 -16q-5 0 -11 1l-37 13q-15 4 -14 17 q0 7 4 17z" />
<glyph unicode="&#x13c;" horiz-adv-x="479" d="M129 -412q6 14 20.5 44t18.5 41.5t11 35t9 46t2 52.5v58q0 27 27 26h47q27 0 27 -26v-62q0 -115 -80 -247q-8 -16 -24 -16q-5 0 -11 1l-37 13q-16 4 -15 16q0 7 5 18zM184 27v1464q0 27 27 27h59q27 0 27 -27v-1464q0 -27 -27 -27h-59q-27 0 -27 27z" />
<glyph unicode="&#x13d;" horiz-adv-x="1071" d="M209 27v1423q0 27 24 27h66q25 0 25 -27v-1350h643q25 0 24 -26v-47q0 -27 -24 -27h-738q-20 0 -20 27zM649 1210q6 16 20.5 46t18.5 41l12 34q8 23 10.5 46.5t2.5 54.5v57q0 27 24 27h49q25 0 25 -27v-64q0 -113 -80 -245q-8 -16 -24 -16q-5 0 -11 1l-37 13 q-15 4 -14 16q0 7 4 16z" />
<glyph unicode="&#x13e;" horiz-adv-x="563" d="M184 27v1464q0 27 27 27h59q27 0 27 -27v-1464q0 -27 -27 -27h-59q-27 0 -27 27zM418 1243q6 16 19.5 45t18.5 41t12 34.5t9 46.5t2 52v60q0 27 27 26h47q27 0 27 -26v-64q0 -113 -80 -248q-9 -14 -24 -13q-5 0 -11 1l-37 10q-16 5 -15 18q0 7 5 17z" />
<glyph unicode="&#x13f;" horiz-adv-x="1071" d="M209 27v1423q0 27 24 27h66q25 0 25 -27v-1350h643q25 0 24 -26v-47q0 -27 -24 -27h-738q-20 0 -20 27zM750 686v168q0 25 24 25h64q27 0 26 -25v-168q0 -27 -26 -27h-64q-24 0 -24 27z" />
<glyph unicode="&#x140;" horiz-adv-x="624" d="M184 27v1464q0 27 27 27h59q27 0 27 -27v-1464q0 -27 -27 -27h-59q-27 0 -27 27zM469 686v168q0 25 27 25h61q27 0 27 -25v-168q0 -27 -27 -27h-61q-27 0 -27 27z" />
<glyph unicode="&#x141;" horiz-adv-x="1071" d="M43 657q-2 7 -2 12q0 15 16 21l152 64v696q0 27 24 27h66q25 0 25 -27v-651l149 63q23 10 33 -14l12 -25q12 -23 -16 -32l-178 -74v-617h643q25 0 24 -26v-47q0 -27 -24 -27h-738q-20 0 -20 27v641l-123 -50q-25 -10 -35 17z" />
<glyph unicode="&#x142;" horiz-adv-x="512" d="M20 657q-3 8 -3 14q0 13 16 19l168 68v733q0 27 24 27h62q27 0 26 -27v-686l136 57q25 10 32 -14l15 -25q3 -6 2 -11q0 -14 -21 -21l-164 -70v-694q0 -27 -26 -27h-62q-25 0 -24 27v649l-138 -58q-27 -10 -34 17z" />
<glyph unicode="&#x143;" horiz-adv-x="1320" d="M209 27v1423q0 27 24 27h60q16 0 22 -11l627 -1114l64 -125v1223q0 27 26 27h58q25 0 24 -27v-1423q0 -27 -24 -27h-58q-18 0 -24 12l-621 1106q-61 92 -70 127v-1218q0 -27 -24 -27h-60q-24 0 -24 27zM618 1630l158 254q16 23 33 23h70q21 0 21 -11q0 -6 -7 -16 l-176 -258q-12 -16 -31 -16h-55q-18 0 -18 10q-1 5 5 14z" />
<glyph unicode="&#x144;" horiz-adv-x="1138" d="M184 27v1017q0 27 27 27h53q27 0 27 -27l2 -92q164 135 379 135q147 0 222 -70.5t75 -189.5v-800q0 -27 -25 -27h-63q-23 0 -23 27v778q0 180 -213 180q-199 0 -348 -129v-829q0 -27 -27 -27h-59q-27 0 -27 27zM535 1262l155 254q14 20 35 20h70q18 0 18 -10q0 -6 -6 -15 l-176 -258q-10 -16 -29 -16h-55q-17 0 -17 10q0 6 5 15z" />
<glyph unicode="&#x145;" horiz-adv-x="1320" d="M209 27v1423q0 27 24 27h60q16 0 22 -11l627 -1114l64 -125v1223q0 27 26 27h58q25 0 24 -27v-1423q0 -27 -24 -27h-58q-18 0 -24 12l-621 1106q-61 92 -70 127v-1218q0 -27 -24 -27h-60q-24 0 -24 27zM553 -412q6 14 20 44l20 41q5 11 12 35t9 46.5t2 52.5v58 q0 27 27 26h47q27 0 27 -26v-62q0 -115 -80 -247q-9 -16 -25 -16q-5 0 -10 1l-37 13q-16 4 -16 18q0 6 4 16z" />
<glyph unicode="&#x146;" horiz-adv-x="1138" d="M184 27v1017q0 27 27 27h53q27 0 27 -27l2 -92q164 135 379 135q147 0 222 -70.5t75 -189.5v-800q0 -27 -25 -27h-63q-23 0 -23 27v778q0 180 -213 180q-199 0 -348 -129v-829q0 -27 -27 -27h-59q-27 0 -27 27zM465 -410q6 14 20.5 44t18.5 41.5t11 35t10 46t3 53.5v57 q0 27 25 26h49q25 0 25 -26v-62q0 -115 -80 -247q-8 -16 -24 -16q-5 0 -11 1l-37 13q-16 4 -15 16q0 7 5 18z" />
<glyph unicode="&#x147;" horiz-adv-x="1320" d="M209 27v1423q0 27 24 27h60q16 0 22 -11l627 -1114l64 -125v1223q0 27 26 27h58q25 0 24 -27v-1423q0 -27 -24 -27h-58q-18 0 -24 12l-621 1106q-61 92 -70 127v-1218q0 -27 -24 -27h-60q-24 0 -24 27zM430 1880q-8 10 -8 17q0 10 20 10h52q20 0 36 -27l129 -201l134 201 q18 27 34 27h52q21 0 21 -11q0 -6 -7 -16l-172 -250q-16 -25 -39 -24h-43q-20 0 -39 26z" />
<glyph unicode="&#x148;" horiz-adv-x="1138" d="M184 27v1017q0 27 27 27h53q27 0 27 -27l2 -92q164 135 379 135q147 0 222 -70.5t75 -189.5v-800q0 -27 -25 -27h-63q-23 0 -23 27v778q0 180 -213 180q-199 0 -348 -129v-829q0 -27 -27 -27h-59q-27 0 -27 27zM338 1511q-7 9 -7 15q0 10 21 10h51q20 0 35 -25l133 -200 l129 200q20 25 37 25h51q20 0 21 -9q0 -6 -8 -16l-170 -249q-14 -25 -41 -25h-43q-18 0 -39 27z" />
<glyph unicode="&#x149;" horiz-adv-x="1138" d="M115 1243q6 16 20.5 45t18.5 41l12 34.5t10 46.5t2 52v60q0 27 27 26h47q27 0 27 -26v-64q0 -113 -82 -248q-10 -18 -33 -12l-39 10q-15 5 -15 19q1 7 5 16zM184 27v1017q0 27 27 27h53q27 0 27 -27l2 -92q164 135 379 135q147 0 222 -70.5t75 -189.5v-800q0 -27 -25 -27 h-63q-23 0 -23 27v778q0 180 -213 180q-199 0 -348 -129v-829q0 -27 -27 -27h-59q-27 0 -27 27z" />
<glyph unicode="&#x14a;" horiz-adv-x="1320" d="M209 27v1423q0 27 24 27h60q16 0 22 -11l627 -1114l64 -125v1223q0 27 26 27h58q25 0 24 -27v-1634q0 -266 -385 -267h-10q-27 0 -27 25v43q0 27 27 27h10q276 0 277 180v190l-619 1104l-70 133v-1224q0 -27 -24 -27h-60q-24 0 -24 27z" />
<glyph unicode="&#x14b;" horiz-adv-x="1138" d="M184 27v1017q0 27 25 27h55q27 0 27 -27l2 -92q164 135 379 135q147 0 223 -70.5t76 -187.5v-1013q0 -266 -389 -267h-11q-27 0 -26 25v43q0 27 26 27h11q276 0 276 180v983q0 180 -213 180q-199 0 -348 -129v-831q0 -27 -27 -27h-61q-25 0 -25 27z" />
<glyph unicode="&#x14c;" horiz-adv-x="1273" d="M184 289v899q0 305 453 305q455 0 455 -305v-899q0 -305 -455 -305q-453 0 -453 305zM299 305q0 -223 338 -223t338 223v864q0 225 -338 225.5t-338 -225.5v-864zM332 1716v41q0 23 26 23h557q27 0 27 -23v-41q0 -25 -27 -24h-557q-26 -1 -26 24z" />
<glyph unicode="&#x14d;" horiz-adv-x="1101" d="M158 250v569q0 268 393 268t393 -268v-569q0 -266 -393 -266t-393 266zM246 1337v39q0 27 24 27h559q27 0 27 -27v-39q0 -27 -27 -26h-559q-24 -1 -24 26zM270 258q0 -180 280.5 -180t280.5 180v553q0 180 -280.5 180t-280.5 -180v-553z" />
<glyph unicode="&#x14e;" horiz-adv-x="1273" d="M184 289v899q0 305 453 305q455 0 455 -305v-899q0 -305 -455 -305q-453 0 -453 305zM299 305q0 -223 338 -223t338 223v864q0 225 -338 225.5t-338 -225.5v-864zM391 1849v35q0 25 23 25h41q23 0 22 -25v-37q0 -78 33 -118.5t127 -40.5t127 40.5t33 118.5v37q0 25 24 25 h39q23 0 23 -25v-35q0 -115 -56.5 -175t-191.5 -60t-189.5 59t-54.5 176z" />
<glyph unicode="&#x14f;" horiz-adv-x="1101" d="M158 250v569q0 268 393 268t393 -268v-569q0 -266 -393 -266t-393 266zM270 258q0 -180 280.5 -180t280.5 180v553q0 180 -280.5 180t-280.5 -180v-553zM293 1446v37q0 25 24 24h39q25 0 25 -24v-39q0 -76 31.5 -117t128.5 -41q94 0 125.5 41t31.5 117v39q0 25 25 24h39 q25 0 24 -24v-37q0 -115 -56 -176.5t-191 -61.5q-137 0 -191.5 61.5t-54.5 176.5z" />
<glyph unicode="&#x150;" horiz-adv-x="1273" d="M184 289v899q0 305 453 305q455 0 455 -305v-899q0 -305 -455 -305q-453 0 -453 305zM299 305q0 -223 338 -223t338 223v864q0 225 -338 225.5t-338 -225.5v-864zM485 1632l129 248q12 27 35 27h60q14 0 18 -9.5t-2 -17.5l-141 -248q-12 -27 -35 -26h-47q-20 0 -20 13 q-1 5 3 13zM678 1632l158 248q16 27 41 27h57q20 0 20 -10q0 -6 -8 -17l-172 -252q-14 -23 -37 -22h-47q-18 0 -18 10q0 6 6 16z" />
<glyph unicode="&#x151;" horiz-adv-x="1101" d="M158 250v569q0 268 393 268t393 -268v-569q0 -266 -393 -266t-393 266zM270 258q0 -180 280.5 -180t280.5 180v553q0 180 -280.5 180t-280.5 -180v-553zM406 1264l126 247q10 25 37 25h56q33 0 18 -25l-139 -247q-12 -27 -35 -27h-47q-20 0 -20 13q0 6 4 14zM598 1264 l158 247q14 25 41 25h57q19 0 19 -10q0 -6 -7 -15l-174 -251q-14 -23 -35 -23h-47q-18 0 -18 11q0 6 6 16z" />
<glyph unicode="&#x152;" horiz-adv-x="1908" d="M184 289v899q0 305 453 305q225 0 338 -96v53q0 27 26 27h740q27 0 26 -25v-47q0 -27 -26 -27h-649v-553h610q27 0 27 -26v-43q0 -27 -27 -27h-610v-631h677q27 0 27 -24v-47q0 -27 -27 -27h-770q-25 0 -24 27v53q-113 -96 -338 -96q-453 0 -453 305zM299 303 q0 -223 338 -223q332 0 338 213v889q-6 215 -338 215q-338 0 -338 -226v-868z" />
<glyph unicode="&#x153;" horiz-adv-x="1736" d="M158 250v571q0 266 393 266q250 0 328 -112q86 113 340 112q381 0 380 -266v-268q0 -23 -22 -23h-635v-276q0 -182 275.5 -182t275.5 182v47q0 25 27 25h51q27 0 26 -25v-51q0 -266 -378 -266q-256 0 -340 110q-76 -111 -328 -110q-393 0 -393 266zM270 258 q0 -182 280.5 -182t280.5 182v553q0 182 -280.5 182t-280.5 -182v-553zM942 612h551v205q0 182 -275.5 182t-275.5 -182v-205z" />
<glyph unicode="&#x154;" horiz-adv-x="1275" d="M209 27v1423q0 27 22 27h424q455 0 455 -308v-251q0 -240 -279 -293l297 -598q2 -6 3 -12q0 -15 -25 -15h-66q-23 0 -32 27l-287 587q-23 -2 -66 -2h-331v-585q0 -27 -25 -27h-66q-24 0 -24 27zM324 711h331q338 0 338 223v219q0 223 -338 223h-331v-665zM539 1630 l157 254q16 23 33 23h70q20 0 20 -10q0 -6 -8 -17l-174 -258q-12 -16 -31 -16h-55q-19 0 -19 9q0 6 7 15z" />
<glyph unicode="&#x155;" horiz-adv-x="731" d="M184 27v1017q0 27 27 27h53q27 0 27 -27l4 -116q176 158 367 157q29 0 28 -24v-51q0 -27 -28 -27q-109 -4 -208.5 -53t-156.5 -99v-804q0 -27 -27 -27h-59q-27 0 -27 27zM225 1262l158 254q14 20 35 20h67q19 0 19 -11q0 -5 -4 -14l-176 -258q-10 -16 -31 -16h-53 q-18 0 -19 11q0 6 4 14z" />
<glyph unicode="&#x156;" horiz-adv-x="1275" d="M209 27v1423q0 27 22 27h424q455 0 455 -308v-252q0 -240 -279 -292l297 -598q2 -6 3 -12q0 -15 -25 -15h-66q-23 0 -32 27l-287 587q-23 -2 -66 -2h-331v-585q0 -27 -25 -27h-66q-24 0 -24 27zM324 711h331q338 0 338 223v219q0 223 -338 223h-331v-665zM518 -410 q8 14 22 44l18 41q5 11 12.5 35t9.5 46.5t2 53.5v57q0 27 26 26h47q27 0 27 -26v-62q0 -115 -80 -247q-9 -16 -25 -16q-5 0 -10 1l-37 13q-16 4 -16 18q0 6 4 16z" />
<glyph unicode="&#x157;" horiz-adv-x="731" d="M129 -412q6 14 20.5 44t18.5 41.5t11 35t9 46t2 52.5v58q0 27 27 26h47q27 0 27 -26v-62q0 -115 -80 -247q-8 -16 -24 -16q-5 0 -11 1l-37 13q-16 4 -15 16q0 7 5 18zM184 27v1017q0 27 27 27h53q27 0 27 -27l4 -116q176 158 367 157q29 0 28 -24v-51q0 -27 -28 -27 q-109 -4 -208.5 -53t-156.5 -99v-804q0 -27 -27 -27h-59q-27 0 -27 27z" />
<glyph unicode="&#x158;" horiz-adv-x="1275" d="M209 27v1423q0 27 22 27h424q455 0 455 -308v-251q0 -240 -279 -293l297 -598q2 -6 3 -12q0 -15 -25 -15h-66q-23 0 -32 27l-287 587q-23 -2 -66 -2h-331v-585q0 -27 -25 -27h-66q-24 0 -24 27zM324 711h331q338 0 338 223v219q0 223 -338 223h-331v-665zM387 1880 q-8 10 -8 17q0 10 20 10h50q23 0 36 -27l131 -201l134 201q18 27 34 27h52q20 0 20 -10q0 -6 -8 -17l-170 -250q-16 -25 -39 -24h-45q-18 0 -39 26z" />
<glyph unicode="&#x159;" horiz-adv-x="731" d="M135 1511q-8 9 -8 16q0 9 20 9h54q18 0 32 -25l134 -200l131 200q18 25 37 25h49q33 0 14 -25l-170 -249q-16 -25 -41 -25h-45q-18 0 -39 27zM184 27v1017q0 27 27 27h53q27 0 27 -27l4 -116q176 158 367 157q29 0 28 -24v-51q0 -27 -28 -27q-109 -4 -208.5 -53 t-156.5 -99v-804q0 -27 -27 -27h-59q-27 0 -27 27z" />
<glyph unicode="&#x15a;" horiz-adv-x="1220" d="M166 289v112q0 29 24 29h64q27 0 27 -29v-100q0 -221 333 -221q338 0 338 221v156q0 131 -180 200l-403 158q-76 27 -131.5 94.5t-55.5 161.5v117q0 305 436.5 305t436.5 -305v-107q0 -27 -27 -26h-61q-25 0 -25 26v93q0 106 -72.5 164.5t-251 58.5t-251 -58.5 t-72.5 -164.5v-80q0 -133 137 -185l416 -157q217 -84 217 -273v-190q0 -305 -449 -305q-450 0 -450 305zM573 1630l158 254q16 23 33 23h70q20 0 20 -10q0 -6 -8 -17l-174 -258q-12 -16 -31 -16h-55q-19 0 -19 9q-1 6 6 15z" />
<glyph unicode="&#x15b;" horiz-adv-x="1005" d="M131 217v62q0 23 23 22h59q20 0 20 -22v-58q0 -70 71 -110.5t206 -40.5q137 0 209 41t72 110v98q0 88 -138 132l-338 106q-66 23 -118 78t-52 129v88q0 102 89.5 168.5t277.5 66.5q186 0 276.5 -66.5t90.5 -168.5v-68q0 -25 -25 -24h-57q-25 0 -25 24v68q0 150 -262 149 q-258 0 -258 -149v-68q0 -51 37 -86.5t84 -48.5l340 -106q182 -59 182 -197v-129q0 -102 -97.5 -167.5t-288 -65.5t-284.5 64.5t-94 168.5zM471 1262l156 254q16 20 35 20h69q19 0 19 -11q0 -5 -5 -14l-176 -258q-12 -16 -30 -16h-56q-15 0 -15 12q0 5 3 13z" />
<glyph unicode="&#x15c;" horiz-adv-x="1220" d="M166 289v112q0 29 24 29h64q27 0 27 -29v-100q0 -221 333 -221q338 0 338 221v156q0 131 -180 200l-403 158q-76 27 -131.5 94.5t-55.5 161.5v117q0 305 436.5 305t436.5 -305v-107q0 -27 -27 -26h-61q-25 0 -25 26v93q0 106 -72.5 164.5t-251 58.5t-251 -58.5 t-72.5 -164.5v-80q0 -133 137 -185l416 -157q217 -84 217 -273v-190q0 -305 -449 -305q-450 0 -450 305zM381 1632l168 248q20 27 39 27h43q25 0 41 -25l170 -250q8 -10 8 -16q0 -10 -21 -10h-53q-14 0 -33 26l-133 201l-131 -201q-14 -27 -37 -26h-49q-20 0 -20 10 q0 6 8 16z" />
<glyph unicode="&#x15d;" horiz-adv-x="1005" d="M131 217v62q0 23 23 22h59q20 0 20 -22v-58q0 -70 71 -110.5t206 -40.5q137 0 209 41t72 110v98q0 88 -138 132l-338 106q-66 23 -118 78t-52 129v88q0 102 89.5 168.5t277.5 66.5q186 0 276.5 -66.5t90.5 -168.5v-68q0 -25 -25 -24h-57q-25 0 -25 24v68q0 150 -262 149 q-258 0 -258 -149v-68q0 -51 37 -86.5t84 -48.5l340 -106q182 -59 182 -197v-129q0 -102 -97.5 -167.5t-288 -65.5t-284.5 64.5t-94 168.5zM270 1264l170 247q20 25 39 25h43q27 0 43 -23l168 -249q8 -10 8 -17q0 -10 -20 -10h-49q-18 0 -37 27l-131 198l-133 -198 q-14 -27 -35 -27h-51q-21 0 -21 11q-1 6 6 16z" />
<glyph unicode="&#x15e;" horiz-adv-x="1220" d="M166 289v112q0 29 24 29h64q27 0 27 -29v-100q0 -221 333 -221q338 0 338 221v156q0 131 -180 200l-403 158q-76 27 -131.5 94.5t-55.5 161.5v117q0 305 436.5 305t436.5 -305v-107q0 -27 -27 -26h-61q-25 0 -25 26v93q0 106 -72.5 164.5t-251 58.5t-251 -58.5 t-72.5 -164.5v-80q0 -133 137 -185l416 -157q217 -84 217 -273v-190q0 -299 -438 -305l-27 -101h84q74 0 126 -40t52 -129t-52 -131t-126 -42h-256q-27 0 -27 27v24q0 25 27 25h244q102 0 102 96q0 94 -102 94h-129q-23 0 -31 8.5t-4 24.5l41 146q-383 20 -383 303z" />
<glyph unicode="&#x15f;" horiz-adv-x="1005" d="M131 217v62q0 23 23 22h59q20 0 20 -22v-58q0 -70 71 -110.5t206 -40.5q137 0 209 41t72 110v98q0 88 -138 132l-338 106q-66 23 -118 78t-52 129v88q0 102 89.5 168.5t277.5 66.5q186 0 276.5 -66.5t90.5 -168.5v-68q0 -25 -25 -24h-57q-25 0 -25 24v68q0 150 -262 149 q-258 0 -258 -149v-68q0 -51 37 -86.5t84 -48.5l340 -106q182 -59 182 -197v-129q0 -102 -97.5 -167.5t-287.5 -65.5h-2l-29 -101h86q74 0 126 -40t52 -129t-52 -131t-126 -42h-256q-27 0 -26 27v24q0 25 26 25h242q104 0 104 96q0 94 -104 94h-127q-23 0 -31 8.5t-4 24.5 l41 148q-150 12 -224.5 74.5t-74.5 154.5z" />
<glyph unicode="&#x160;" horiz-adv-x="1220" d="M166 289v112q0 29 24 29h64q27 0 27 -29v-100q0 -221 333 -221q338 0 338 221v156q0 131 -180 200l-403 158q-76 27 -131.5 94.5t-55.5 161.5v117q0 305 436.5 305t436.5 -305v-107q0 -27 -27 -26h-61q-25 0 -25 26v93q0 106 -72.5 164.5t-251 58.5t-251 -58.5 t-72.5 -164.5v-80q0 -133 137 -185l416 -157q217 -84 217 -273v-190q0 -305 -449 -305q-450 0 -450 305zM389 1880q-8 10 -8 17q0 10 20 10h50q23 0 36 -27l131 -201l134 201q18 27 34 27h52q21 0 21 -11q0 -6 -7 -16l-172 -250q-16 -25 -39 -24h-43q-20 0 -41 26z" />
<glyph unicode="&#x161;" horiz-adv-x="1005" d="M131 217v62q0 23 23 22h59q20 0 20 -22v-58q0 -70 71 -110.5t206 -40.5q137 0 209 41t72 110v98q0 88 -138 132l-338 106q-66 23 -118 78t-52 129v88q0 102 89.5 168.5t277.5 66.5q186 0 276.5 -66.5t90.5 -168.5v-68q0 -25 -25 -24h-57q-25 0 -25 24v68q0 150 -262 149 q-258 0 -258 -149v-68q0 -51 37 -86.5t84 -48.5l340 -106q182 -59 182 -197v-129q0 -102 -97.5 -167.5t-288 -65.5t-284.5 64.5t-94 168.5zM283 1511q-8 9 -8 16q0 9 20 9h53q18 0 35 -25l131 -200l131 200q18 25 37 25h49q21 0 21 -10q0 -6 -7 -15l-170 -249 q-16 -25 -40 -25h-43q-20 0 -41 27z" />
<glyph unicode="&#x162;" horiz-adv-x="1040" d="M43 1403v47q0 27 27 27h903q27 0 26 -27v-47q0 -27 -26 -27h-395v-1349q0 -27 -25 -27h-66q-25 0 -24 27v1349h-393q-27 0 -27 27zM408 -412q6 14 20 44t18 41l13 35q8 24 10 46.5t2 52.5v58q0 27 27 26h47q27 0 26 -26v-62q0 -115 -79 -247q-9 -16 -25 -16q-5 0 -10 1 l-37 13q-16 4 -17 18q1 6 5 16z" />
<glyph unicode="&#x163;" horiz-adv-x="743" d="M63 999v35q0 23 25 25l117 6h20v235q0 29 27 29h63q23 0 23 -29v-235h256q27 0 27 -23v-43q0 -27 -27 -26h-256v-694q0 -88 62.5 -134.5t211.5 -46.5h35q27 0 27 -26v-45q0 -27 -27 -27h-47q-209 0 -292 67.5t-83 198.5v707h-137q-25 -1 -25 26zM182 -412q6 14 20.5 44 t18.5 41l12 35q8 24 10.5 46.5t2.5 52.5v58q0 27 24 26h49q27 0 27 -26v-62q0 -115 -82 -247q-8 -16 -24 -16q-5 0 -11 1l-36 13q-15 4 -15 17q0 7 4 17z" />
<glyph unicode="&#x164;" horiz-adv-x="1040" d="M43 1403v47q0 27 27 27h903q27 0 26 -27v-47q0 -27 -26 -27h-395v-1349q0 -27 -25 -27h-66q-25 0 -24 27v1349h-393q-27 0 -27 27zM291 1880q-8 10 -8 17q0 10 20 10h51q20 0 37 -27l129 -201l133 201q20 27 35 27h51q21 0 21 -11q0 -6 -6 -16l-172 -250q-14 -25 -39 -24 h-43q-20 0 -39 26z" />
<glyph unicode="&#x165;" horiz-adv-x="770" d="M63 999v35q0 23 25 25l117 6h20v235q0 29 27 29h63q23 0 23 -29v-235h256q27 0 27 -23v-43q0 -27 -27 -26h-256v-694q0 -88 62.5 -134.5t211.5 -46.5h35q27 0 27 -26v-45q0 -27 -27 -27h-47q-209 0 -292 67.5t-83 198.5v707h-137q-25 -1 -25 26zM459 1225q6 14 20.5 43.5 t18.5 42.5l11 35q7 23 9 45t2 53v59q0 25 27 25h47q27 0 27 -25v-63q0 -113 -80 -248q-7 -15 -22 -15q-6 0 -13 3l-37 10q-16 4 -16 17q1 7 6 18z" />
<glyph unicode="&#x166;" horiz-adv-x="1040" d="M43 1403v47q0 27 27 27h903q27 0 26 -27v-47q0 -27 -26 -27h-395v-391h337q27 0 27 -22v-35q0 -27 -27 -27h-337v-874q0 -27 -25 -27h-66q-25 0 -24 27v874h-330q-27 0 -27 27v35q0 23 27 22h330v391h-393q-27 0 -27 27z" />
<glyph unicode="&#x167;" horiz-adv-x="743" d="M63 666v34q0 25 25 25h137v248h-137q-25 0 -25 26v35q0 23 25 25l117 6h20v235q0 29 27 29h63q23 0 23 -29v-235h256q27 0 27 -23v-43q0 -27 -27 -26h-256v-248h260q25 0 25 -25v-34q0 -25 -25 -25h-260v-362q0 -88 62.5 -134.5t211.5 -46.5h35q27 0 27 -26v-45 q0 -27 -27 -27h-47q-209 0 -292 67.5t-83 198.5v375h-137q-25 0 -25 25z" />
<glyph unicode="&#x168;" horiz-adv-x="1298" d="M195 289v1161q0 27 26 27h66q25 0 24 -27v-1145q0 -223 338 -223t338 223v1145q0 27 27 27h65q23 0 23 -27v-1161q0 -305 -453.5 -305t-453.5 305zM354 1667l2 43q8 176 146 176q63 0 112 -41l101 -80q45 -37 78 -36q41 0 54 23.5t13 92.5v21q0 23 29 22h33q25 0 24 -28 l-2 -43q-8 -178 -147 -179q-57 0 -113 45l-98 78q-49 37 -78 37q-41 0 -54.5 -23.5t-13.5 -95.5v-18q0 -25 -28 -25h-37q-21 0 -21 31z" />
<glyph unicode="&#x169;" d="M172 242v800q0 29 23 29h63q27 0 27 -29v-778q0 -180 213 -180q180 0 333 129v829q0 29 25 29h62q25 0 24 -29v-1015q0 -27 -24 -27h-56q-27 0 -26 27l-5 86q-152 -129 -362 -129q-145 0 -221 69.5t-76 188.5zM266 1288l2 43q10 178 146 178q59 0 114 -43l99 -82 q47 -37 78 -36q43 0 55 24.5t12 93.5v19q0 25 29 24h35q25 0 24 -28l-2 -43q-10 -178 -145 -178q-61 0 -113 43l-100 77q-49 39 -78 39q-41 0 -54.5 -23.5t-13.5 -95.5v-18q0 -23 -28 -22h-35q-25 -1 -25 28z" />
<glyph unicode="&#x16a;" horiz-adv-x="1298" d="M195 289v1161q0 27 26 27h66q25 0 24 -27v-1145q0 -223 338 -223t338 223v1145q0 27 27 27h65q23 0 23 -27v-1161q0 -305 -453.5 -305t-453.5 305zM346 1716v41q0 23 25 23h559q25 0 24 -23v-41q0 -25 -24 -24h-559q-25 -1 -25 24z" />
<glyph unicode="&#x16b;" d="M172 242v800q0 29 23 29h63q27 0 27 -29v-778q0 -180 213 -180q180 0 333 129v829q0 29 25 29h62q25 0 24 -29v-1015q0 -27 -24 -27h-56q-27 0 -26 27l-5 86q-152 -129 -362 -129q-145 0 -221 69.5t-76 188.5zM258 1337v39q0 27 27 27h557q27 0 26 -27v-39q0 -27 -26 -26 h-557q-27 -1 -27 26z" />
<glyph unicode="&#x16c;" horiz-adv-x="1298" d="M195 289v1161q0 27 26 27h66q25 0 24 -27v-1145q0 -223 338 -223t338 223v1145q0 27 27 27h65q23 0 23 -27v-1161q0 -305 -453.5 -305t-453.5 305zM403 1849v35q0 25 25 25h39q25 0 25 -25v-37q0 -78 31.5 -118.5t125.5 -40.5q96 0 128 40.5t32 118.5v37q0 25 25 25h38 q25 0 25 -25v-35q0 -115 -56.5 -175t-193.5 -60q-135 0 -189.5 59t-54.5 176z" />
<glyph unicode="&#x16d;" d="M172 242v800q0 29 23 29h63q27 0 27 -29v-778q0 -180 213 -180q180 0 333 129v829q0 29 25 29h62q25 0 24 -29v-1015q0 -27 -24 -27h-56q-27 0 -26 27l-5 86q-152 -129 -362 -129q-145 0 -221 69.5t-76 188.5zM309 1446v37q0 25 23 24h39q25 0 24 -24v-39q0 -76 33 -117 t127 -41t127 41t33 117v39q0 25 22 24h39q25 0 25 -24v-37q0 -115 -56.5 -176.5t-191.5 -61.5t-189.5 61.5t-54.5 176.5z" />
<glyph unicode="&#x16e;" horiz-adv-x="1298" d="M195 289v1161q0 27 26 27h66q25 0 24 -27v-1145q0 -223 338 -223t338 223v1145q0 27 27 27h65q23 0 23 -27v-1161q0 -305 -453.5 -305t-453.5 305zM451 1729v32q0 158 198 158q102 0 150.5 -43t48.5 -115v-32q0 -72 -48 -116t-151 -44q-198 0 -198 160zM526 1737 q0 -102 123 -103q125 0 125 103v14q0 102 -125 102q-123 0 -123 -102v-14z" />
<glyph unicode="&#x16f;" d="M172 242v800q0 29 23 29h63q27 0 27 -29v-778q0 -180 213 -180q180 0 333 129v829q0 29 25 29h62q25 0 24 -29v-1015q0 -27 -24 -27h-56q-27 0 -26 27l-5 86q-152 -129 -362 -129q-145 0 -221 69.5t-76 188.5zM362 1362v41q0 154 196 153.5t196 -153.5v-41 q0 -156 -196 -156t-196 156zM434 1372q0 -100 123 -100q127 0 127 100v19q0 100 -127 100q-123 0 -123 -100v-19z" />
<glyph unicode="&#x170;" horiz-adv-x="1298" d="M195 289v1161q0 27 26 27h66q25 0 24 -27v-1145q0 -223 338 -223t338 223v1145q0 27 27 27h65q23 0 23 -27v-1161q0 -305 -453.5 -305t-453.5 305zM508 1632l129 248q12 27 35 27h57q16 0 20.5 -9.5t-1.5 -17.5l-142 -248q-14 -27 -35 -26h-49q-18 0 -18 12q0 6 4 14z M698 1632l160 248q14 27 41 27h55q21 0 21 -11q0 -6 -6 -16l-172 -252q-14 -23 -37 -22h-47q-19 0 -19 11q-1 6 4 15z" />
<glyph unicode="&#x171;" d="M172 242v800q0 29 23 29h63q27 0 27 -29v-778q0 -180 213 -180q180 0 333 129v829q0 29 25 29h62q25 0 24 -29v-1015q0 -27 -24 -27h-56q-27 0 -26 27l-5 86q-152 -129 -362 -129q-145 0 -221 69.5t-76 188.5zM412 1264l127 247q10 25 36 25h56q33 0 18 -25l-139 -247 q-12 -27 -35 -27h-47q-20 0 -20 13q0 6 4 14zM604 1264l158 247q14 25 41 25h57q20 0 20 -9q0 -6 -8 -16l-174 -251q-14 -23 -34 -23h-48q-18 0 -18 11q0 6 6 16z" />
<glyph unicode="&#x172;" horiz-adv-x="1298" d="M195 289v1161q0 27 26 27h66q25 0 24 -27v-1145q0 -223 338 -223t338 223v1145q0 27 27 27h65q23 0 23 -27v-1161q0 -131 -82 -205q-2 -2 -47 -39t-58.5 -51t-33 -52t-19.5 -77q0 -106 125 -107h74q29 0 29 -24v-31q0 -27 -33 -27h-94q-86 0 -139.5 43t-53.5 126t59 155 q-80 -16 -180 -16q-454 0 -454 305z" />
<glyph unicode="&#x173;" d="M172 242v800q0 29 23 29h63q27 0 27 -29v-778q0 -180 213 -180q180 0 333 129v829q0 29 25 29h62q25 0 24 -29v-1015q0 -27 -24 -27h-7q-72 -12 -107.5 -58t-35.5 -92q0 -92 125 -92h35q25 0 24 -24v-31q0 -27 -30 -27h-58q-84 0 -136 40t-52 120q0 59 43 113.5t117 91.5 l-5 72q-152 -129 -362 -129q-145 0 -221 69.5t-76 188.5z" />
<glyph unicode="&#x174;" horiz-adv-x="1716" d="M57 1450q-2 6 -2 11q0 16 21 16h67q25 0 31 -27l277 -1098l34 -151q20 96 35 151l283 1098q6 27 31 27h61q23 0 31 -27l278 -1098l33 -162q18 96 35 162l282 1098q6 27 31 27h55q24 0 24 -18q0 -4 -1 -9l-363 -1423q-6 -27 -32 -27h-66q-23 0 -31 27l-282 1116 q-16 53 -29 137l-31 -137l-282 -1116q-6 -27 -33 -27h-65q-25 0 -31 27zM629 1632l170 248q20 27 39 27h43q25 0 39 -25l172 -250q8 -10 7 -16q0 -10 -20 -10h-53q-14 0 -35 26l-131 201l-131 -201q-14 -27 -37 -26h-49q-21 0 -21 11q0 5 7 15z" />
<glyph unicode="&#x175;" horiz-adv-x="1386" d="M45 1044q-1 5 -1 9q0 18 24 18h63q20 0 27 -27l217 -806l20 -88l23 88l221 806q6 27 29 27h69q25 0 31 -27l211 -806q18 -80 20 -84q0 6 21 84l219 806q6 27 29 27h55q22 0 22 -17q0 -4 -2 -10l-284 -1019q-6 -25 -27 -25h-76q-18 0 -24 25l-213 794q-6 20 -23 99 l-24 -101l-226 -792q-6 -25 -26 -25h-72q-23 0 -29 25zM463 1264l168 247q20 25 41 25h43q25 0 41 -23l170 -249q7 -10 6 -16q0 -11 -21 -11h-49q-18 0 -37 27l-131 198l-131 -198q-16 -27 -35 -27h-53q-20 0 -20 10q0 7 8 17z" />
<glyph unicode="&#x176;" horiz-adv-x="1103" d="M49 1450q-4 8 -3 13q0 14 22 14h71q18 0 33 -27l350 -668q8 -14 18.5 -41.5t12.5 -29.5l33 71l356 668q14 27 33 27h63q24 0 24 -13q0 -6 -5 -14l-445 -838v-585q0 -27 -26 -27h-66q-23 0 -22 27v573zM322 1632l170 248q18 27 38 27h43q25 0 39 -25l172 -250q7 -10 7 -15 q0 -11 -21 -11h-51q-16 0 -35 26l-133 201l-129 -201q-16 -27 -37 -26h-51q-20 0 -20 10q0 6 8 16z" />
<glyph unicode="&#x177;" horiz-adv-x="913" d="M45 1044q-1 5 -1 10q0 18 22 17h65q23 0 29 -27l268 -784q10 -33 31 -110q0 25 28 106l271 788q6 27 30 27h60q22 0 22 -17q0 -4 -2 -10l-501 -1470q-6 -25 -31 -25h-49q-27 0 -21 25l140 422zM225 1264l170 247q18 25 39 25h43q27 0 41 -23l170 -249q8 -10 8 -17 q0 -10 -20 -10h-51q-16 0 -37 27l-129 198l-133 -198q-14 -27 -35 -27h-51q-21 0 -21 11q-1 6 6 16z" />
<glyph unicode="&#x178;" horiz-adv-x="1103" d="M49 1450q-4 8 -3 13q0 14 22 14h71q18 0 33 -27l350 -668q20 -39 31 -71q0 6 33 71l356 668q14 27 33 27h63q24 0 24 -13q0 -6 -5 -14l-445 -838v-585q0 -27 -26 -27h-66q-23 0 -22 27v573zM401 1649v211q0 27 27 26h39q25 0 25 -26v-211q0 -27 -25 -27h-39q-27 0 -27 27 zM614 1649v211q0 27 27 26h39q23 0 22 -26v-211q0 -27 -22 -27h-39q-27 0 -27 27z" />
<glyph unicode="&#x179;" horiz-adv-x="1095" d="M121 27v47q0 14 8 28l694 1274h-639q-27 0 -26 27v47q0 27 26 27h756q27 0 27 -27v-47q0 -12 -4 -21l-703 -1282h713q27 0 26 -26v-47q0 -27 -26 -27h-828q-24 0 -24 27zM518 1630l160 254q14 23 33 23h69q19 0 19 -11q0 -6 -6 -16l-177 -258q-10 -16 -30 -16h-54 q-20 0 -20 10q0 5 6 14z" />
<glyph unicode="&#x17a;" horiz-adv-x="989" d="M111 27v43q0 12 6 22l579 883h-532q-27 0 -27 26v43q0 27 27 27h651q25 0 25 -27v-38q0 -16 -6 -25l-582 -885h590q27 0 26 -26v-43q0 -27 -26 -27h-705q-26 0 -26 27zM430 1262l156 254q16 20 35 20h69q18 0 18 -10q0 -6 -6 -15l-174 -258q-12 -16 -30 -16h-56 q-16 0 -16 11q0 6 4 14z" />
<glyph unicode="&#x17b;" horiz-adv-x="1095" d="M121 27v47q0 14 8 28l694 1274h-639q-27 0 -26 27v47q0 27 26 27h756q27 0 27 -27v-47q0 -12 -4 -21l-703 -1282h713q27 0 26 -26v-47q0 -27 -26 -27h-828q-24 0 -24 27zM492 1653v166q0 27 24 26h64q27 0 26 -26v-166q0 -27 -26 -27h-64q-24 0 -24 27z" />
<glyph unicode="&#x17c;" horiz-adv-x="989" d="M111 27v43q0 12 6 22l579 883h-532q-27 0 -27 26v43q0 27 27 27h651q25 0 25 -27v-38q0 -16 -6 -25l-582 -885h590q27 0 26 -26v-43q0 -27 -26 -27h-705q-26 0 -26 27zM438 1298v168q0 25 27 25h65q23 0 23 -25v-168q0 -27 -23 -26h-65q-27 -1 -27 26z" />
<glyph unicode="&#x17d;" horiz-adv-x="1095" d="M121 27v47q0 14 8 28l694 1274h-639q-27 0 -26 27v47q0 27 26 27h756q27 0 27 -27v-47q0 -12 -4 -21l-703 -1282h713q27 0 26 -26v-47q0 -27 -26 -27h-828q-24 0 -24 27zM319 1913q-8 10 -7 16q0 10 20 10h53q18 0 35 -26l131 -201l131 201q18 27 37 26h49q21 0 21 -10 q0 -6 -7 -16l-170 -250q-14 -25 -41 -25h-43q-20 0 -41 27z" />
<glyph unicode="&#x17e;" horiz-adv-x="989" d="M111 27v43q0 12 6 22l579 883h-532q-27 0 -27 26v43q0 27 27 27h651q25 0 25 -27v-38q0 -16 -6 -25l-582 -885h590q27 0 26 -26v-43q0 -27 -26 -27h-705q-26 0 -26 27zM266 1511q-7 9 -6 15q0 10 21 10h51q20 0 35 -25l133 -200l129 200q20 25 37 25h51q20 0 20 -9 q0 -6 -8 -16l-170 -249q-14 -25 -41 -25h-43q-18 0 -39 27z" />
<glyph unicode="&#x17f;" horiz-adv-x="679" d="M66 999v35q0 25 26 25l119 6h20v195q0 266 390 266h10q27 0 26 -27v-43q0 -25 -26 -24h-10q-274 0 -275 -181v-1224q0 -27 -27 -27h-63q-25 0 -25 27v948h-139q-26 -1 -26 24z" />
<glyph unicode="&#x192;" horiz-adv-x="1181" d="M98 -399q0 29 25 28h20q276 0 297 181l117 987h-209q-27 0 -26 26v43q0 27 26 27h221l45 377q31 266 420 266h10q27 0 27 -25v-45q0 -27 -27 -26h-20q-274 0 -297 -180l-47 -367h225q27 0 27 -27v-43q0 -27 -27 -26h-233l-119 -998q-33 -268 -418 -268h-12q-25 0 -25 27 v43z" />
<glyph unicode="&#x1fa;" d="M57 27l441 1423q6 27 32 27h68q25 0 31 -27l442 -1423q3 -7 3 -12q0 -15 -23 -15h-68q-23 0 -31 27l-131 419h-524l-127 -419q-6 -27 -31 -27h-63q-21 0 -21 14q-1 6 2 13zM326 541h469l-181 581q-37 121 -55 228q-23 -129 -49 -224zM362 1729v32q0 145 175 158l90 152 q16 23 35 22h69q29 0 14 -27l-108 -155q123 -29 123 -150v-32q0 -72 -49 -116t-152 -44q-197 0 -197 160zM436 1737q0 -102 123 -103q127 0 127 103v14q0 102 -127 102q-123 0 -123 -102v-14z" />
<glyph unicode="&#x1fb;" horiz-adv-x="1089" d="M143 233v113q0 111 71 181.5t200 70.5h393v213q0 88 -59.5 135t-209 47t-210 -46t-60.5 -132v-33q0 -27 -24 -26h-58q-23 0 -22 26v39q0 266 377 266q207 0 292 -69.5t85 -196.5v-794q0 -27 -23 -27h-55q-25 0 -25 27l-6 86q-164 -129 -369 -129q-145 0 -221 69t-76 180z M254 248q0 -170 211 -170q180 0 342 129v299h-373q-180 0 -180 -174v-84zM348 1362v41q0 66 42 107.5t128 45.5l135 218q14 23 35 22h70q18 0 18 -11q0 -6 -6 -16l-152 -221q119 -31 119 -145v-41q0 -156 -194.5 -156t-194.5 156zM420 1372q0 -100 123 -100q125 0 125 100 v19q0 100 -125 100q-123 0 -123 -100v-19z" />
<glyph unicode="&#x1fc;" horiz-adv-x="1822" d="M59 27l826 1423q16 27 37 27h733q25 0 24 -25v-47q0 -25 -24 -25h-651v-555h612q25 0 24 -26v-43q0 -27 -24 -27h-612v-631h675q27 0 27 -26v-45q0 -27 -27 -27h-751q-35 0 -35 27v419h-481l-240 -419q-18 -27 -31 -27h-61q-26 0 -26 13q0 6 5 14zM469 541h424v739 l-72 -129zM965 1630l157 254q14 23 33 23h70q20 0 20 -10q0 -6 -8 -17l-176 -258q-10 -16 -29 -16h-55q-19 0 -19 9q0 6 7 15z" />
<glyph unicode="&#x1fd;" horiz-adv-x="1712" d="M143 233v93q0 111 71 181.5t200 70.5h393v253q0 170 -268 170q-150 0 -210.5 -47t-60.5 -133v-39q0 -27 -24 -26h-58q-27 0 -26 26v41q0 125 87 194.5t294 69.5q256 0 321 -133q74 133 332 133q383 0 383 -266v-268q0 -23 -25 -23h-634v-282q0 -88 62 -132t214 -44 q276 0 276 182v47q0 25 23 25h55q25 0 25 -25v-51q0 -266 -379 -266q-303 0 -363 155q-186 -156 -391 -155q-150 0 -223.5 68t-73.5 181zM254 248q0 -78 54.5 -126t156.5 -48q172 0 342 149v273h-377q-88 0 -132 -48.5t-44 -125.5v-74zM825 1262l156 254q16 20 35 20h69 q29 0 13 -25l-176 -258q-10 -16 -29 -16h-55q-17 0 -18 10q0 6 5 15zM918 612h552v205q0 182 -276 182q-152 0 -214 -48t-62 -134v-205z" />
<glyph unicode="&#x1fe;" horiz-adv-x="1273" d="M184 1186q0 307 453 307q188 0 305 -55l29 57q20 37 41 37h24q27 0 8 -37l-47 -94q94 -74 95 -215v-897q0 -305 -455 -305q-201 0 -307 55l-29 -59q-18 -37 -41 -37h-22q-29 0 -11 37l47 96q-90 74 -90 213v897zM299 303q0 -70 31 -115l563 1147q-88 59 -256 60 q-338 0 -338 -226v-866zM381 139q82 -59 256 -59q338 0 338 223v866q0 66 -33 119zM584 1630l159 254q14 23 31 23h70q21 0 21 -11q0 -6 -7 -16l-176 -258q-10 -16 -31 -16h-53q-20 0 -20 10q0 5 6 14z" />
<glyph unicode="&#x1ff;" horiz-adv-x="1101" d="M158 819q0 268 393 268q158 0 250 -43l28 50q18 37 41 36h29q23 0 4 -36l-45 -82q86 -68 86 -193v-569q0 -266 -393 -266q-152 0 -254 43l-27 -47q-18 -37 -41 -37h-22q-31 0 -10 37l47 81q-86 61 -86 189v569zM270 258q0 -57 29 -100l451 796q-68 37 -199 37 q-281 0 -281 -180v-553zM348 115q66 -37 203 -37q281 0 280 180v553q0 63 -30 102zM510 1262l156 254q16 20 34 20h70q19 0 19 -11q0 -5 -5 -14l-176 -258q-10 -16 -30 -16h-56q-15 0 -15 12q0 5 3 13z" />
<glyph unicode="&#x218;" horiz-adv-x="1220" d="M166 289v112q0 29 24 29h64q27 0 27 -29v-100q0 -221 333 -221q338 0 338 221v156q0 131 -180 200l-403 158q-76 27 -131.5 94.5t-55.5 161.5v117q0 305 436.5 305t436.5 -305v-107q0 -27 -27 -26h-61q-25 0 -25 26v92q0 106 -72.5 165t-251 59t-251 -58.5t-72.5 -165.5 v-79q0 -133 137 -185l416 -157q217 -84 217 -273v-190q0 -305 -449 -305q-450 0 -450 305zM514 -412q6 14 20.5 44t18.5 41l12 35q8 24 10.5 46.5t2.5 52.5v58q0 27 26 26h47q27 0 27 -26v-62q0 -115 -80 -247q-9 -16 -25 -16q-5 0 -10 1l-37 13q-16 4 -16 18q0 6 4 16z" />
<glyph unicode="&#x219;" horiz-adv-x="1005" d="M131 217v62q0 23 23 22h59q20 0 20 -22v-58q0 -70 71 -110.5t206 -40.5q137 0 209 41t72 110v98q0 88 -138 132l-338 106q-66 23 -118 78t-52 129v88q0 102 89.5 168.5t277.5 66.5q186 0 276.5 -66.5t90.5 -168.5v-68q0 -25 -25 -24h-57q-25 0 -25 24v68q0 150 -262 149 q-258 0 -258 -149v-68q0 -51 37 -87t84 -48l340 -106q182 -59 182 -197v-129q0 -102 -97.5 -167.5t-288 -65.5t-284.5 64.5t-94 168.5zM412 -414q8 14 21 44l19 41q5 11 12 35t9 46.5t2 52.5v58q0 27 27 26h47q27 0 26 -26v-64q0 -113 -79 -245q-9 -16 -25 -16q-5 0 -10 1 l-37 12q-16 4 -16 19q0 6 4 16z" />
<glyph unicode="&#x237;" horiz-adv-x="479" d="M-131 -383q0 27 27 27h10q279 0 278 180v1220q0 27 25 27h61q27 0 27 -27v-1228q0 -266 -391 -267h-10q-27 0 -27 25v43z" />
<glyph unicode="&#x2c6;" horiz-adv-x="747" d="M141 1264l170 247q18 25 39 25h43q27 0 41 -23l170 -249q7 -10 7 -16q0 -11 -21 -11h-49q-18 0 -37 27l-131 198l-131 -198q-16 -27 -35 -27h-53q-20 0 -21 10q0 7 8 17z" />
<glyph unicode="&#x2c7;" horiz-adv-x="747" d="M141 1511q-8 9 -8 16q0 9 21 9h53q18 0 35 -25l131 -200l131 200q18 25 37 25h49q21 0 21 -10q0 -6 -7 -15l-170 -249q-14 -25 -41 -25h-43q-20 0 -39 27z" />
<glyph unicode="&#x2d8;" horiz-adv-x="854" d="M180 1446v37q0 25 25 24h39q23 0 22 -24v-39q0 -76 33 -117t129 -41q92 0 125 41t33 117v39q0 25 24 24h39q25 0 25 -24v-37q0 -115 -57.5 -176.5t-190.5 -61.5q-137 0 -191.5 61.5t-54.5 176.5z" />
<glyph unicode="&#x2d9;" horiz-adv-x="514" d="M201 1298v168q0 25 24 25h66q25 0 24 -25v-168q0 -27 -24 -26h-66q-24 -1 -24 26z" />
<glyph unicode="&#x2da;" horiz-adv-x="817" d="M213 1362v41q0 154 195.5 153.5t195.5 -153.5v-41q0 -156 -195.5 -156t-195.5 156zM285 1372q0 -100 123 -100q127 0 127 100v19q0 100 -127 100q-123 0 -123 -100v-19z" />
<glyph unicode="&#x2db;" horiz-adv-x="487" d="M86 -166q0 121 154 209q16 12 31 12l18 -4l30 -10q10 -4 12.5 -14.5t-9.5 -16.5q-143 -63 -144 -160q0 -92 135 -92h41q27 0 27 -24v-31q0 -27 -27 -27h-67q-94 0 -147.5 40t-53.5 118z" />
<glyph unicode="&#x2dc;" horiz-adv-x="923" d="M166 1288l2 43q8 178 145 178q57 0 113 -43l100 -82q45 -37 78 -36q41 0 54.5 24.5t13.5 93.5v19q0 25 26 24h35q25 0 25 -28l-2 -43q-8 -178 -146 -178q-61 0 -112 43l-101 77q-47 39 -78 39q-41 0 -54 -23.5t-13 -95.5v-18q0 -23 -29 -22h-35q-22 -1 -22 28z" />
<glyph unicode="&#x2dd;" horiz-adv-x="772" d="M156 1264l127 247q10 25 36 25h56q33 0 18 -25l-139 -247q-12 -27 -35 -27h-47q-20 0 -20 13q0 6 4 14zM348 1264l158 247q14 25 41 25h57q20 0 20 -9q0 -6 -8 -16l-174 -251q-14 -23 -34 -23h-48q-18 0 -18 11q0 6 6 16z" />
<glyph unicode="&#x394;" horiz-adv-x="808" d="M186 510v342q0 47 47 47h342q45 0 46 -47v-342q0 -45 -46 -45h-342q-47 0 -47 45z" />
<glyph unicode="&#x3a9;" horiz-adv-x="808" d="M147 680q0 104 75 180t179 76q106 0 182 -76t76 -180q0 -106 -75.5 -181t-182.5 -75q-104 0 -179 75t-75 181zM184 679q0 -91 63.5 -153.5t155 -62.5t155 62.5t63.5 154.5q0 88 -63.5 153.5t-155 65.5t-155 -64.5t-63.5 -155.5z" />
<glyph unicode="&#x3bc;" d="M172 -424v1466q0 29 23 29h63q27 0 27 -29v-778q0 -180 213 -180q180 0 333 129v829q0 29 25 29h62q25 0 24 -29v-1015q0 -27 -24 -27h-56q-27 0 -26 27l-5 86q-152 -129 -362 -129q-133 0 -193 69l9 -477q0 -27 -27 -27h-63q-23 0 -23 27z" />
<glyph unicode="&#x3c0;" horiz-adv-x="808" d="M117 899q0 10 5 17q7 11 21 12h516q16 0 23 -12q5 -8 5 -19q0 -4 -1 -7q-2 -15 -10 -30l-240 -389q-12 -20 -32.5 -20t-32.5 20l-240 389q-14 20 -14 39z" />
<glyph unicode="&#x1e80;" horiz-adv-x="1716" d="M57 1450q-2 6 -2 11q0 16 21 16h67q25 0 31 -27l277 -1098l34 -151q20 96 35 151l283 1098q6 27 31 27h61q23 0 31 -27l278 -1098l33 -162q18 96 35 162l282 1098q6 27 31 27h55q24 0 24 -18q0 -4 -1 -9l-363 -1423q-6 -27 -32 -27h-66q-23 0 -31 27l-282 1116 q-16 53 -29 137l-31 -137l-282 -1116q-6 -27 -33 -27h-65q-25 0 -31 27zM623 1880q-6 10 -6 16q0 11 18 11h67q20 0 35 -25l158 -252q6 -10 6 -16q0 -11 -18 -10h-54q-20 0 -30 18z" />
<glyph unicode="&#x1e81;" horiz-adv-x="1386" d="M45 1044q-1 5 -1 9q0 18 24 18h63q20 0 27 -27l217 -806l20 -88l23 88l221 806q6 27 29 27h69q25 0 31 -27l211 -806q18 -80 20 -84q0 6 21 84l219 806q6 27 29 27h55q22 0 22 -17q0 -4 -2 -10l-284 -1019q-6 -25 -27 -25h-76q-18 0 -24 25l-213 794q-6 20 -23 99 l-24 -101l-226 -792q-6 -25 -26 -25h-72q-23 0 -29 25zM465 1511q-8 9 -8 16q0 9 20 9h70q20 0 35 -20l155 -254q6 -9 7 -16q0 -9 -17 -9h-53q-27 0 -33 16z" />
<glyph unicode="&#x1e82;" horiz-adv-x="1716" d="M57 1450q-2 6 -2 11q0 16 21 16h67q25 0 31 -27l277 -1098l34 -151q20 96 35 151l283 1098q6 27 31 27h61q23 0 31 -27l278 -1098q25 -96 33 -159q16 90 35 159l282 1098q6 27 31 27h55q24 0 24 -18q0 -4 -1 -9l-363 -1423q-6 -27 -32 -27h-66q-23 0 -31 27l-282 1116 q-16 53 -29 137l-31 -137l-282 -1116q-6 -27 -33 -27h-65q-25 0 -31 27zM823 1630l158 254q16 23 33 23h69q20 0 21 -10q0 -6 -8 -17l-176 -258q-10 -16 -29 -16h-55q-19 0 -20 9q0 6 7 15z" />
<glyph unicode="&#x1e83;" horiz-adv-x="1386" d="M45 1044q-1 5 -1 9q0 18 24 18h63q20 0 27 -27l217 -806l20 -88l23 88l221 806q6 27 29 27h69q25 0 31 -27l211 -806q18 -80 20 -84q0 6 21 84l219 806q6 27 29 27h55q22 0 22 -17q0 -4 -2 -10l-284 -1019q-6 -25 -27 -25h-76q-18 0 -24 25l-213 794q-6 20 -23 99 l-24 -101l-226 -792q-6 -25 -26 -25h-72q-23 0 -29 25zM662 1262l157 254q14 20 35 20h68q19 0 19 -11q0 -5 -5 -14l-176 -258q-10 -16 -31 -16h-53q-17 0 -18 12q1 6 4 13z" />
<glyph unicode="&#x1e84;" horiz-adv-x="1716" d="M57 1450q-2 6 -2 11q0 16 21 16h67q25 0 31 -27l277 -1098l34 -151q20 96 35 151l283 1098q6 27 31 27h61q23 0 31 -27l278 -1098q25 -96 33 -159q16 90 35 159l282 1098q6 27 31 27h55q24 0 24 -18q0 -4 -1 -9l-363 -1423q-6 -27 -32 -27h-66q-23 0 -31 27l-282 1116 q-16 53 -29 137l-31 -137l-282 -1116q-6 -27 -33 -27h-65q-25 0 -31 27zM709 1649v211q0 27 24 26h39q25 0 25 -26v-211q0 -27 -25 -27h-39q-24 0 -24 27zM920 1649v211q0 27 26 26h39q25 0 25 -26v-211q0 -27 -25 -27h-39q-26 0 -26 27z" />
<glyph unicode="&#x1e85;" horiz-adv-x="1386" d="M45 1044q-1 5 -1 9q0 18 24 18h63q20 0 27 -27l217 -806l20 -88l23 88l221 806q6 27 29 27h69q25 0 31 -27l211 -806q18 -80 20 -84q0 6 21 84l219 806q6 27 29 27h55q22 0 22 -17q0 -4 -2 -10l-284 -1019q-6 -25 -27 -25h-76q-18 0 -24 25l-213 794q-6 20 -23 99 l-24 -101l-226 -792q-6 -25 -26 -25h-72q-23 0 -29 25zM541 1286v211q0 27 26 27h39q25 0 25 -27v-211q0 -27 -25 -26h-39q-26 -1 -26 26zM754 1286v211q0 27 26 27h39q25 0 25 -27v-211q0 -27 -25 -26h-39q-26 -1 -26 26z" />
<glyph unicode="&#x1ef2;" horiz-adv-x="1103" d="M49 1450q-4 8 -3 13q0 14 22 14h71q18 0 33 -27l350 -668q20 -39 31 -71q0 6 33 71l356 668q14 27 33 27h63q24 0 24 -13q0 -6 -5 -14l-445 -838v-585q0 -27 -26 -27h-66q-23 0 -22 27v573zM313 1880q-7 10 -7 17q0 10 18 10h69q18 0 35 -25l156 -252q6 -10 6 -16 q0 -10 -17 -10h-55q-18 0 -31 18z" />
<glyph unicode="&#x1ef3;" horiz-adv-x="913" d="M45 1044q-1 5 -1 10q0 18 22 17h65q23 0 29 -27l268 -784q10 -33 31 -110q0 25 28 106l271 788q6 27 30 27h60q22 0 22 -17q0 -4 -2 -10l-501 -1470q-6 -25 -31 -25h-49q-27 0 -21 25l140 422zM221 1511q-7 9 -7 15q0 10 19 10h70q20 0 35 -20l158 -254q5 -9 5 -15 q0 -10 -18 -10h-53q-27 0 -33 16z" />
<glyph unicode="&#x2000;" horiz-adv-x="1044" />
<glyph unicode="&#x2001;" horiz-adv-x="2091" />
<glyph unicode="&#x2002;" horiz-adv-x="1044" />
<glyph unicode="&#x2003;" horiz-adv-x="2091" />
<glyph unicode="&#x2004;" horiz-adv-x="696" />
<glyph unicode="&#x2005;" horiz-adv-x="522" />
<glyph unicode="&#x2006;" horiz-adv-x="348" />
<glyph unicode="&#x2007;" horiz-adv-x="348" />
<glyph unicode="&#x2008;" horiz-adv-x="260" />
<glyph unicode="&#x2009;" horiz-adv-x="417" />
<glyph unicode="&#x200a;" horiz-adv-x="114" />
<glyph unicode="&#x2010;" horiz-adv-x="1001" d="M184 606v45q0 25 27 25h582q27 0 26 -25v-45q0 -27 -26 -26h-582q-27 -1 -27 26z" />
<glyph unicode="&#x2011;" horiz-adv-x="1001" d="M184 606v45q0 25 27 25h582q27 0 26 -25v-45q0 -27 -26 -26h-582q-27 -1 -27 26z" />
<glyph unicode="&#x2012;" horiz-adv-x="1001" d="M184 606v45q0 25 27 25h582q27 0 26 -25v-45q0 -27 -26 -26h-582q-27 -1 -27 26z" />
<glyph unicode="&#x2013;" horiz-adv-x="1193" d="M184 606v45q0 25 27 25h772q27 0 27 -25v-45q0 -27 -27 -26h-772q-27 -1 -27 26z" />
<glyph unicode="&#x2014;" horiz-adv-x="1861" d="M184 606v45q0 25 27 25h1444q25 0 24 -25v-45q0 -27 -24 -26h-1444q-27 -1 -27 26z" />
<glyph unicode="&#x2018;" horiz-adv-x="460" d="M164 1188v131q0 188 190 248q5 1 10 1q15 0 23 -16l16 -45q2 -6 3 -11q0 -14 -17 -21q-111 -53 -110 -160v-127q0 -27 -25 -27h-66q-24 0 -24 27z" />
<glyph unicode="&#x2019;" horiz-adv-x="458" d="M57 1223q-3 6 -3 11q0 13 18 21q111 51 110 158v129q0 25 25 25h63q27 0 27 -25v-133q0 -186 -191 -248q-5 -1 -9 -1q-17 0 -23 18z" />
<glyph unicode="&#x201a;" horiz-adv-x="458" d="M57 -125q-3 6 -3 11q0 12 18 20q111 53 110 160v127q0 27 25 26h63q27 0 27 -26v-132q0 -186 -191 -247q-6 -1 -10 -2q-16 0 -22 16z" />
<glyph unicode="&#x201c;" horiz-adv-x="765" d="M164 1188v131q0 188 190 248q5 1 10 1q15 0 23 -16l16 -45q8 -23 -14 -32q-111 -53 -110 -160v-127q0 -27 -25 -27h-66q-24 0 -24 27zM469 1188v131q0 188 190 248q6 1 11 1q16 0 22 -16l19 -45q2 -6 2 -10q0 -15 -19 -22q-111 -53 -110 -160v-127q0 -27 -25 -27h-63 q-27 0 -27 27z" />
<glyph unicode="&#x201d;" horiz-adv-x="765" d="M57 1223q-3 6 -3 11q0 13 18 21q111 51 110 158v129q0 25 25 25h63q27 0 27 -25v-133q0 -186 -191 -248q-5 -1 -9 -1q-17 0 -23 18zM362 1223q-2 5 -2 10q0 13 17 22q111 51 110 158v129q0 25 25 25h66q27 0 26 -25v-133q0 -186 -192 -248q-5 -1 -9 -1q-15 0 -22 18z" />
<glyph unicode="&#x201e;" horiz-adv-x="765" d="M57 -125q-3 6 -3 11q0 12 18 20q111 53 110 160v127q0 27 25 26h63q27 0 27 -26v-132q0 -186 -191 -247q-6 -1 -10 -2q-16 0 -22 16zM362 -125q-2 5 -2 10q0 13 17 21q111 53 110 160v127q0 27 25 26h66q27 0 26 -26v-132q0 -186 -192 -247l-10 -2q-15 0 -21 16z" />
<glyph unicode="&#x2020;" horiz-adv-x="1200" d="M209 1010v45q0 27 24 26h242q27 0 27 -26v-45q0 -27 -27 -27h-242q-24 0 -24 27zM545 27v1464q0 27 24 27h62q27 0 26 -27v-1464q0 -27 -26 -27h-62q-24 0 -24 27zM698 1010v45q0 27 27 26h242q25 0 24 -26v-45q0 -27 -24 -27h-242q-27 0 -27 27z" />
<glyph unicode="&#x2021;" horiz-adv-x="1200" d="M209 465v45q0 25 24 25h242q27 0 27 -25v-45q0 -29 -27 -29h-242q-24 0 -24 29zM209 1010v45q0 27 24 26h242q27 0 27 -26v-45q0 -27 -27 -27h-242q-24 0 -24 27zM545 27v1464q0 27 24 27h62q27 0 26 -27v-1464q0 -27 -26 -27h-62q-24 0 -24 27zM698 465v45q0 25 27 25 h242q25 0 24 -25v-45q0 -29 -24 -29h-242q-27 0 -27 29zM698 1010v45q0 27 27 26h242q25 0 24 -26v-45q0 -27 -24 -27h-242q-27 0 -27 27z" />
<glyph unicode="&#x2022;" horiz-adv-x="530" d="M209 428v270q0 27 24 27h66q25 0 25 -27v-270q0 -25 -25 -25h-66q-24 0 -24 25z" />
<glyph unicode="&#x2026;" horiz-adv-x="1536" d="M174 27v166q0 27 27 26h61q27 0 27 -26v-166q0 -27 -27 -27h-61q-27 0 -27 27zM713 27v166q0 27 24 26h64q27 0 26 -26v-166q0 -27 -26 -27h-64q-24 0 -24 27zM1249 27v166q0 27 25 26h63q27 0 27 -26v-166q0 -27 -27 -27h-63q-25 0 -25 27z" />
<glyph unicode="&#x202f;" horiz-adv-x="417" />
<glyph unicode="&#x2030;" horiz-adv-x="2310" d="M188 1053v241q0 195 283 195q281 0 281 -195v-241q0 -197 -281 -197q-283 0 -283 197zM287 1055q0 -117 184 -117q182 0 182 117v237q0 119 -182 119q-184 0 -184 -119v-237zM434 27l649 1423q10 27 35 27h53q27 0 15 -27l-647 -1423q-10 -27 -37 -27h-58q-14 0 -13 12 q0 6 3 15zM879 178v242q0 197 280 196q283 0 283 -196v-242q0 -195 -283 -194q-280 -1 -280 194zM975 180q0 -119 184 -119t184 119v238q0 117 -184 117t-184 -117v-238zM1561 178v242q0 197 282 196q281 0 281 -196v-242q0 -195 -281 -194q-282 -1 -282 194zM1657 180 q0 -119 186 -119q182 0 182 119v238q0 117 -182 117q-186 0 -186 -117v-238z" />
<glyph unicode="&#x2039;" horiz-adv-x="825" d="M186 502v61q0 18 25 35l403 305q5 4 12 4q3 0 6 -1q9 -3 9 -15v-72q0 -16 -27 -37l-333 -250l333 -247q27 -23 27 -41v-68q0 -12 -9 -16l-6 -2q-6 0 -12 6l-403 303q-25 15 -25 35z" />
<glyph unicode="&#x203a;" horiz-adv-x="825" d="M186 176v68q0 18 27 41l334 247l-334 250q-27 20 -27 37v72q0 12 10 15q3 1 6 1q6 0 11 -4l403 -305q25 -16 25 -35v-61q0 -20 -25 -35l-403 -303q-6 -6 -12 -7h-2q-5 0 -9 5q-4 6 -4 14z" />
<glyph unicode="&#x2044;" horiz-adv-x="944" d="M96 27l649 1423q10 27 35 27h54q17 0 17 -12q0 -6 -5 -15l-645 -1423q-12 -27 -37 -27h-58q-15 0 -14 11q0 7 4 16z" />
<glyph unicode="&#x205f;" horiz-adv-x="522" />
<glyph unicode="&#x20ac;" horiz-adv-x="1400" d="M188 594v29q0 27 27 26h111v180h-111q-27 0 -27 27v27q0 25 27 24h111v281q0 305 442 305t442 -305v-113q0 -29 -22 -28h-64q-27 0 -26 28v94q0 106 -75 166t-255 60t-254 -58.5t-74 -167.5v-262h371q27 0 27 -24v-27q0 -27 -27 -27h-371v-180h371q27 0 27 -26v-29 q0 -23 -27 -23h-371v-266q0 -109 74 -166t254 -57t255 59.5t75 163.5v125q0 25 26 25h64q23 0 22 -25v-141q0 -305 -442 -305t-442 305v282h-111q-27 0 -27 23z" />
<glyph unicode="&#x2113;" horiz-adv-x="1110" d="M10 471q-3 8 -3 15q0 14 16 20q2 0 42.5 16.5t113.5 49t134 65.5v537q0 307 330 307q319 0 320 -307q0 -311 -537 -596v-291q0 -92 60.5 -141.5t209.5 -49.5h201q25 0 25 -26v-43q0 -27 -25 -27h-203q-381 0 -381 264v256q-133 -66 -247 -108q-27 -10 -35 12zM426 1163 v-471q430 240 430 475q0 104 -48 160.5t-167 56.5q-123 0 -169 -56t-46 -165z" />
<glyph unicode="&#x2122;" horiz-adv-x="1925" d="M209 1413v43q0 20 20 21h590q20 0 21 -21v-43q0 -18 -21 -18h-246v-783q0 -23 -20 -22h-57q-23 0 -23 22v783h-244q-20 0 -20 18zM946 612v842q0 23 21 23h51q16 0 20 -11l271 -575l22 -60q0 6 21 58l270 577q4 10 18 11h56q20 0 20 -23v-842q0 -23 -20 -22h-56 q-20 0 -20 22v670q0 -2 -3 -10l-8 -23q-5 -14 -10 -22l-219 -479q-10 -23 -28 -23h-43q-16 0 -29 23l-223 483q-4 6 -19 55v-674q0 -23 -20 -22h-51q-21 -1 -21 22z" />
<glyph unicode="&#x2126;" horiz-adv-x="808" d="M147 680q0 104 75 180t179 76q106 0 182 -76t76 -180q0 -106 -75.5 -181t-182.5 -75q-104 0 -179 75t-75 181zM184 680q0 -92 63.5 -155.5t155 -63.5t155 63.5t63.5 155.5q0 88 -63.5 152.5t-155 64.5t-155 -64.5t-63.5 -152.5z" />
<glyph unicode="&#x212e;" horiz-adv-x="1806" d="M125 737q0 313 222 534.5t534 221.5q309 0 531 -221t222 -535q0 -35 -35 -35h-1273v-389q94 -131 239.5 -207.5t315.5 -76.5q311 0 536 245q10 10 21 11q18 0 18 -21q0 -12 -14 -33q-100 -115 -247.5 -181t-313.5 -66q-313 0 -534.5 219t-221.5 534zM326 748h1114v407 q-98 133 -244.5 212t-314.5 79t-313.5 -77t-241.5 -208v-413z" />
<glyph unicode="&#x2202;" horiz-adv-x="808" d="M188 428v514q0 25 22.5 29t45.5 -10l389 -242q18 -14 18.5 -34.5t-18.5 -31.5l-389 -241q-23 -14 -45.5 -11.5t-22.5 27.5z" />
<glyph unicode="&#x2206;" horiz-adv-x="808" d="M186 510v342q0 45 47 45h342q45 0 46 -45v-342q0 -47 -46 -47h-342q-47 0 -47 47z" />
<glyph unicode="&#x220f;" horiz-adv-x="808" d="M133 510l238 391q12 17 31 18h2q22 -1 32 -18l242 -391q8 -14 11 -29q1 -5 1 -9q0 -9 -4 -16q-6 -11 -22 -12h-517q-14 0 -21 12q-6 9 -6 19q0 17 13 35z" />
<glyph unicode="&#x2211;" horiz-adv-x="808" d="M145 684.5q0 20.5 21 34.5l387 242q16 8 31 10h5q11 0 19 -6q10 -8 10 -23v-514q0 -25 -21 -28q-4 -1 -8 0q-18 0 -36 12l-387 241q-21 11 -21 31.5z" />
<glyph unicode="&#x2212;" horiz-adv-x="1280" d="M184 705v47q0 25 27 24h860q25 0 25 -24v-47q0 -25 -25 -25h-860q-27 0 -27 25z" />
<glyph unicode="&#x221a;" horiz-adv-x="808" d="M170 510v342q0 33 15.5 48t47.5 15h342q66 0 66 -63v-342q0 -66 -66 -66h-342q-63 0 -63 66zM207 510q0 -29 26 -29h342q29 0 29 29v342q0 27 -29 27h-342q-27 0 -26 -27v-342z" />
<glyph unicode="&#x221e;" horiz-adv-x="808" d="M92 682q0 14 25 45l241 242q29 23 45 22q20 0 48 -22l241 -242q23 -25 23 -45q0 -25 -23 -47l-241 -242q-27 -25 -48 -24q-16 0 -45 24l-241 242q-25 29 -25 47zM135 679q0 -11 8 -17l244 -242q6 -10 16.5 -10t20.5 10l242 242q10 10 10 18q0 6 -10 18l-242 244 q-14 8 -21 8q-8 0 -16 -8l-244 -244q-8 -8 -8 -19z" />
<glyph unicode="&#x222b;" horiz-adv-x="808" d="M68 680q0 141 97 239.5t236 98.5q141 0 241.5 -98.5t100.5 -239.5t-100 -239.5t-241.5 -98.5t-237.5 98.5t-96 239.5z" />
<glyph unicode="&#x2248;" horiz-adv-x="1042" d="M184 754l2 45q8 184 144 184q41 0 106 -35l182 -100q61 -29 91 -29q41 0 53 24.5t12 92.5v18q0 25 29 25h35q23 0 22 -29l-2 -47q-10 -184 -139 -184q-51 0 -117 37l-184 102q-49 25 -80 25q-41 0 -55.5 -23.5t-14.5 -91.5v-20q0 -25 -26 -25h-35q-23 0 -23 31zM184 426 l2 45q8 184 144 184q41 0 106 -34l182 -101q61 -29 91 -28q41 0 53 24.5t12 91.5v19q0 25 29 24h35q23 0 22 -28l-2 -48q-10 -184 -139 -184q-51 0 -117 37l-184 102q-49 25 -80 25q-41 0 -55.5 -23.5t-14.5 -91.5v-20q0 -25 -26 -25h-35q-23 0 -23 31z" />
<glyph unicode="&#x2260;" horiz-adv-x="1280" d="M184 516v47q0 25 27 25h319l109 274h-428q-27 0 -27 27v45q0 27 27 27h465l61 155q10 27 33 27h59q27 0 17 -27l-62 -155h287q25 0 25 -27v-45q0 -27 -25 -27h-323l-109 -274h432q25 0 25 -25v-47q0 -25 -25 -24h-469l-61 -158q-10 -25 -35 -25h-60q-25 0 -14 25l62 158 h-283q-27 -1 -27 24z" />
<glyph unicode="&#x2264;" horiz-adv-x="1179" d="M184 293v45q0 25 27 24h760q27 0 26 -24v-45q0 -25 -26 -25h-760q-27 0 -27 25zM184 838v67q0 20 25 31l762 303q8 4 13 4q14 0 13 -22v-64q0 -20 -26 -31l-674 -256l674 -254q27 -8 26 -30v-64q0 -20 -15 -20q-5 0 -11 2l-762 303q-25 13 -25 31z" />
<glyph unicode="&#x2265;" horiz-adv-x="1177" d="M184 291v47q0 27 27 27h758q25 0 24 -27v-47q0 -25 -24 -25h-758q-27 0 -27 25zM184 522v66q0 20 27 28l672 254l-672 256q-27 10 -27 31v64q0 23 15 23q5 0 12 -3l762 -303q25 -10 24 -31v-71q0 -16 -24 -29l-762 -305q-7 -3 -12 -3q-15 0 -15 23z" />
<glyph unicode="&#x25ca;" horiz-adv-x="808" d="M113 682q0 10 18 33l240 239q18 16 32 17q18 0 33 -17l242 -239q16 -18 16 -33q0 -18 -16 -33l-242 -241q-14 -18 -33 -19q-12 0 -32 19l-240 241q-18 17 -18 33z" />
<glyph unicode="&#xe000;" horiz-adv-x="1070" d="M0 1070h1070v-1070h-1070v1070z" />
<glyph horiz-adv-x="0" />
<glyph horiz-adv-x="571" d="M168 -84q6 14 20.5 44t18.5 41t11 34.5t9 46t2 53.5v58q0 27 27 26h47q27 0 27 -26v-62q0 -115 -80 -248q-8 -16 -24 -15q-5 0 -11 1l-37 12q-16 4 -15 17q0 7 5 18z" />
<glyph horiz-adv-x="503" d="M184 1630l158 254q16 23 33 23h69q21 0 21 -11q0 -6 -6 -16l-176 -258q-12 -16 -31 -16h-55q-18 0 -19 10q0 5 6 14z" />
<glyph horiz-adv-x="503" d="M-51 1716v41q0 23 24 23h559q25 0 25 -23v-41q0 -25 -25 -24h-559q-24 -1 -24 24z" />
<glyph horiz-adv-x="503" d="M6 1849v35q0 25 25 25h39q25 0 24 -25v-37q0 -78 32 -118.5t126 -40.5q96 0 128 40.5t32 118.5v37q0 25 24 25h39q25 0 25 -25v-35q0 -115 -56.5 -175t-193.5 -60q-135 0 -189.5 59t-54.5 176z" />
<glyph horiz-adv-x="503" d="M23 1880q-8 10 -8 17q0 10 20 10h49q23 0 37 -27l131 -201l133 201q18 27 35 27h51q20 0 20 -10q0 -6 -8 -17l-170 -250q-16 -25 -39 -24h-45q-18 0 -39 26z" />
<glyph horiz-adv-x="503" d="M53 1729v32q0 158 199 158q102 0 150.5 -43t48.5 -115v-32q0 -72 -48.5 -116t-150.5 -44q-199 0 -199 160zM129 1737q0 -102 123 -103q125 0 125 103v14q0 102 -125 102q-123 0 -123 -102v-14z" />
<glyph horiz-adv-x="503" d="M23 1632l167 248q20 27 39 27h45q23 0 39 -25l170 -250q8 -10 8 -16q0 -10 -20 -10h-51q-16 0 -35 26l-133 201l-131 -201q-14 -27 -37 -26h-49q-20 0 -20 10q0 6 8 16z" />
<glyph horiz-adv-x="503" d="M-43 1667l2 43q8 176 145 176q63 0 113 -41l100 -80q45 -37 78 -36q41 0 54.5 23.5t13.5 92.5v21q0 23 29 22h34q23 0 23 -28l-2 -43q-8 -178 -148 -179q-57 0 -112 45l-99 78q-49 37 -77 37q-41 0 -54.5 -23.5t-13.5 -95.5v-18q0 -25 -29 -25h-37q-20 0 -20 31z" />
<glyph horiz-adv-x="503" d="M102 1649v211q0 27 27 26h39q23 0 22 -26v-211q0 -27 -22 -27h-39q-27 0 -27 27zM315 1649v211q0 27 25 26h41q23 0 22 -26v-211q0 -27 -22 -27h-41q-25 0 -25 27z" />
<glyph horiz-adv-x="503" d="M195 1653v166q0 27 26 26h64q27 0 26 -26v-166q0 -27 -26 -27h-64q-26 0 -26 27z" />
<glyph horiz-adv-x="503" d="M119 1880q-6 10 -6 16q0 11 18 11h70q18 0 32 -25l158 -252q6 -10 6 -16q0 -10 -16 -10h-55q-20 0 -31 18z" />
<glyph horiz-adv-x="503" d="M23 1632l127 248q14 27 34 27h60q14 0 18 -9.5t-2 -17.5l-141 -248q-12 -27 -35 -26h-47q-19 0 -19 11q0 6 5 15zM213 1632l158 248q16 27 41 27h57q20 0 20 -10q0 -6 -8 -17l-170 -252q-16 -23 -37 -22h-49q-18 0 -18 10q0 6 6 16z" />
<glyph horiz-adv-x="3231" d="M150 549q0 59 39.5 103t109.5 44q41 0 65.5 -20.5t24.5 -46.5q0 -51 -55 -70q-35 -12 -94 -12q4 -47 55 -47q37 0 70 18q18 -10 18 -35q0 -8 -6 -17t-30.5 -20.5t-65.5 -11.5q-61 0 -96 32t-35 83zM158 0v16h2906v-16h-2906zM158 1149v16h2906v-16h-2906zM238 573 q80 0 79 46q0 29 -28 28q-43 0 -51 -74zM422 680q51 16 70 16q23 0 22 -18v-88q6 20 16.5 41.5t33 43t48.5 21.5q63 0 64 -69v-37q29 106 96 106q61 0 62 -69v-107l6 -69q-51 -16 -68 -17q-23 0 -22 17v143q0 35 -19 35q-14 0 -34.5 -38t-20.5 -65l4 -75q-53 -16 -68 -17 q-25 0 -24 17v143q0 35 -16.5 35t-37 -38t-20.5 -65l6 -75q-51 -16 -69 -17q-23 0 -23 17v151zM823 717v8q0 43 25 43h37l-6 66q53 18 69 18q25 0 25 -18v-64h102v-6q0 -45 -26 -45h-76v-187q0 -35 28 -34q18 0 40 17t22 38v55l-6 72q53 16 69 16q25 0 25 -18v-143 q0 -33 15.5 -33t36 36.5t20.5 67.5l-4 74q51 16 67 16q23 0 23 -18v-215l55 6v133l-8 78q53 16 69 16q25 0 25 -18v-88q37 104 102 104q37 0 61.5 -28.5t24.5 -81.5q0 -147 -188 -148v-86l6 -69q-51 -18 -69 -19q-23 0 -23 19v161l-55 -6v-6q0 -172 -148 -172 q-45 0 -66.5 22.5t-21.5 51.5q0 78 152 114v93q-37 -104 -101 -105q-61 0 -61 68v6q-41 -72 -115 -72q-63 0 -63 66v219zM1133 352q0 -31 30 -30q55 0 60 100q-90 -21 -90 -70zM1450 475q98 12 98 111q0 43 -28.5 43t-49 -40t-20.5 -63v-51zM1667 549q0 59 40 103t110 44 q41 0 65.5 -20.5t24.5 -46.5q0 -51 -56 -70q-35 -12 -94 -12q4 -47 55 -47q37 0 70 18q18 -10 19 -35q0 -8 -6.5 -17t-31 -20.5t-65.5 -11.5q-61 0 -96 32t-35 83zM1753 573q82 0 82 46q0 29 -29 28q-43 0 -53 -74zM1939 490.5q0 21.5 14.5 37t39 15.5t41 -15.5t16.5 -37 t-16.5 -36t-41 -14.5t-39 14.5t-14.5 36zM2079 680q53 16 69 16q25 0 25 -18v-88q37 106 98 106q63 0 64 -69v-107l4 -69q-53 -16 -68 -17q-25 0 -24 17v147q0 31 -16.5 31t-37 -38t-20.5 -65l6 -75q-51 -16 -70 -17q-23 0 -22 17v151zM2367 549q0 59 41 103t111 44 q41 0 64.5 -20.5t23.5 -46.5q0 -51 -53 -70q-35 -12 -96 -12q4 -47 55 -47q39 0 70 18q18 -10 18 -35q0 -8 -5 -17t-30.5 -20.5t-66.5 -11.5q-61 0 -96.5 32t-35.5 83zM2456 573q80 0 79 46q0 29 -28 28q-43 0 -51 -74zM2578 717v8q0 43 27 43h37l-6 66q51 18 69 18 q23 0 23 -18v-64h102v-6q0 -45 -24 -45h-78v-197q0 -31 35 -30q25 0 84 11t100 11q39 0 87 -13.5t48 -37.5q0 -31 -20.5 -46.5t-36.5 -15.5q-6 0 -58.5 27t-97.5 27q-14 0 -68.5 -9.5t-95.5 -9.5t-50 28t-11 142q0 70 -2 115z" />
</font>
</defs>
</svg>
